  0
SECTION
  2
HEADER
  9
$ACADVER
  1
AC1032
  9
$ACADMAINTVER
 90
4
  9
$DWGCODEPAGE
  3
ANSI_1252
  9
$LASTSAVEDBY
  1
ezdxf
  9
$REQUIREDVERSIONS
160
0
  9
$INSBASE
 10
0.0
 20
0.0
 30
0.0
  9
$EXTMIN
 10
1e+20
 20
1e+20
 30
1e+20
  9
$EXTMAX
 10
-1e+20
 20
-1e+20
 30
-1e+20
  9
$LIMMIN
 10
0.0
 20
0.0
  9
$LIMMAX
 10
420.0
 20
297.0
  9
$ORTHOMODE
 70
0
  9
$REGENMODE
 70
1
  9
$FILLMODE
 70
1
  9
$QTEXTMODE
 70
0
  9
$MIRRTEXT
 70
1
  9
$LTSCALE
 40
1.0
  9
$ATTMODE
 70
1
  9
$TEXTSIZE
 40
2.5
  9
$TRACEWID
 40
1.0
  9
$TEXTSTYLE
  7
Standard
  9
$CLAYER
  8
0
  9
$CELTYPE
  6
ByLayer
  9
$CECOLOR
 62
256
  9
$CELTSCALE
 40
1.0
  9
$DISPSILH
 70
0
  9
$DIMSCALE
 40
1.0
  9
$DIMASZ
 40
2.5
  9
$DIMEXO
 40
0.625
  9
$DIMDLI
 40
3.75
  9
$DIMRND
 40
0.0
  9
$DIMDLE
 40
0.0
  9
$DIMEXE
 40
1.25
  9
$DIMTP
 40
0.0
  9
$DIMTM
 40
0.0
  9
$DIMTXT
 40
2.5
  9
$DIMCEN
 40
2.5
  9
$DIMTSZ
 40
0.0
  9
$DIMTOL
 70
0
  9
$DIMLIM
 70
0
  9
$DIMTIH
 70
0
  9
$DIMTOH
 70
0
  9
$DIMSE1
 70
0
  9
$DIMSE2
 70
0
  9
$DIMTAD
 70
1
  9
$DIMZIN
 70
8
  9
$DIMBLK
  1

  9
$DIMASO
 70
1
  9
$DIMSHO
 70
1
  9
$DIMPOST
  1

  9
$DIMAPOST
  1

  9
$DIMALT
 70
0
  9
$DIMALTD
 70
3
  9
$DIMALTF
 40
0.03937007874
  9
$DIMLFAC
 40
1.0
  9
$DIMTOFL
 70
1
  9
$DIMTVP
 40
0.0
  9
$DIMTIX
 70
0
  9
$DIMSOXD
 70
0
  9
$DIMSAH
 70
0
  9
$DIMBLK1
  1

  9
$DIMBLK2
  1

  9
$DIMSTYLE
  2
ISO-25
  9
$DIMCLRD
 70
0
  9
$DIMCLRE
 70
0
  9
$DIMCLRT
 70
0
  9
$DIMTFAC
 40
1.0
  9
$DIMGAP
 40
0.625
  9
$DIMJUST
 70
0
  9
$DIMSD1
 70
0
  9
$DIMSD2
 70
0
  9
$DIMTOLJ
 70
0
  9
$DIMTZIN
 70
8
  9
$DIMALTZ
 70
0
  9
$DIMALTTZ
 70
0
  9
$DIMUPT
 70
0
  9
$DIMDEC
 70
2
  9
$DIMTDEC
 70
2
  9
$DIMALTU
 70
2
  9
$DIMALTTD
 70
3
  9
$DIMTXSTY
  7
Standard
  9
$DIMAUNIT
 70
0
  9
$DIMADEC
 70
0
  9
$DIMALTRND
 40
0.0
  9
$DIMAZIN
 70
0
  9
$DIMDSEP
 70
44
  9
$DIMATFIT
 70
3
  9
$DIMFRAC
 70
0
  9
$DIMLDRBLK
  1

  9
$DIMLUNIT
 70
2
  9
$DIMLWD
 70
-2
  9
$DIMLWE
 70
-2
  9
$DIMTMOVE
 70
0
  9
$DIMFXL
 40
1.0
  9
$DIMFXLON
 70
0
  9
$DIMJOGANG
 40
0.785398163397
  9
$DIMTFILL
 70
0
  9
$DIMTFILLCLR
 70
0
  9
$DIMARCSYM
 70
0
  9
$DIMLTYPE
  6

  9
$DIMLTEX1
  6

  9
$DIMLTEX2
  6

  9
$DIMTXTDIRECTION
 70
0
  9
$LUNITS
 70
2
  9
$LUPREC
 70
4
  9
$SKETCHINC
 40
1.0
  9
$FILLETRAD
 40
10.0
  9
$AUNITS
 70
0
  9
$AUPREC
 70
2
  9
$MENU
  1
.
  9
$ELEVATION
 40
0.0
  9
$PELEVATION
 40
0.0
  9
$THICKNESS
 40
0.0
  9
$LIMCHECK
 70
0
  9
$CHAMFERA
 40
0.0
  9
$CHAMFERB
 40
0.0
  9
$CHAMFERC
 40
0.0
  9
$CHAMFERD
 40
0.0
  9
$SKPOLY
 70
0
  9
$TDCREATE
 40
2461312.9933564817
  9
$TDUCREATE
 40
2458532.153996898
  9
$TDUPDATE
 40
2461312.9934027777
  9
$TDUUPDATE
 40
2458532.1544311
  9
$TDINDWG
 40
0.0
  9
$TDUSRTIMER
 40
0.0
  9
$USRTIMER
 70
1
  9
$ANGBASE
 50
0.0
  9
$ANGDIR
 70
0
  9
$PDMODE
 70
0
  9
$PDSIZE
 40
0.0
  9
$PLINEWID
 40
0.0
  9
$SPLFRAME
 70
0
  9
$SPLINETYPE
 70
6
  9
$SPLINESEGS
 70
8
  9
$HANDSEED
  5
12B
  9
$SURFTAB1
 70
6
  9
$SURFTAB2
 70
6
  9
$SURFTYPE
 70
6
  9
$SURFU
 70
6
  9
$SURFV
 70
6
  9
$UCSBASE
  2

  9
$UCSNAME
  2

  9
$UCSORG
 10
0.0
 20
0.0
 30
0.0
  9
$UCSXDIR
 10
1.0
 20
0.0
 30
0.0
  9
$UCSYDIR
 10
0.0
 20
1.0
 30
0.0
  9
$UCSORTHOREF
  2

  9
$UCSORTHOVIEW
 70
0
  9
$UCSORGTOP
 10
0.0
 20
0.0
 30
0.0
  9
$UCSORGBOTTOM
 10
0.0
 20
0.0
 30
0.0
  9
$UCSORGLEFT
 10
0.0
 20
0.0
 30
0.0
  9
$UCSORGRIGHT
 10
0.0
 20
0.0
 30
0.0
  9
$UCSORGFRONT
 10
0.0
 20
0.0
 30
0.0
  9
$UCSORGBACK
 10
0.0
 20
0.0
 30
0.0
  9
$PUCSBASE
  2

  9
$PUCSNAME
  2

  9
$PUCSORG
 10
0.0
 20
0.0
 30
0.0
  9
$PUCSXDIR
 10
1.0
 20
0.0
 30
0.0
  9
$PUCSYDIR
 10
0.0
 20
1.0
 30
0.0
  9
$PUCSORTHOREF
  2

  9
$PUCSORTHOVIEW
 70
0
  9
$PUCSORGTOP
 10
0.0
 20
0.0
 30
0.0
  9
$PUCSORGBOTTOM
 10
0.0
 20
0.0
 30
0.0
  9
$PUCSORGLEFT
 10
0.0
 20
0.0
 30
0.0
  9
$PUCSORGRIGHT
 10
0.0
 20
0.0
 30
0.0
  9
$PUCSORGFRONT
 10
0.0
 20
0.0
 30
0.0
  9
$PUCSORGBACK
 10
0.0
 20
0.0
 30
0.0
  9
$USERI1
 70
0
  9
$USERI2
 70
0
  9
$USERI3
 70
0
  9
$USERI4
 70
0
  9
$USERI5
 70
0
  9
$USERR1
 40
0.0
  9
$USERR2
 40
0.0
  9
$USERR3
 40
0.0
  9
$USERR4
 40
0.0
  9
$USERR5
 40
0.0
  9
$WORLDVIEW
 70
1
  9
$SHADEDGE
 70
3
  9
$SHADEDIF
 70
70
  9
$TILEMODE
 70
1
  9
$MAXACTVP
 70
64
  9
$PINSBASE
 10
0.0
 20
0.0
 30
0.0
  9
$PLIMCHECK
 70
0
  9
$PEXTMIN
 10
1e+20
 20
1e+20
 30
1e+20
  9
$PEXTMAX
 10
-1e+20
 20
-1e+20
 30
-1e+20
  9
$PLIMMIN
 10
-0.0
 20
-0.0
  9
$PLIMMAX
 10
420.0
 20
297.0
  9
$UNITMODE
 70
0
  9
$VISRETAIN
 70
1
  9
$PLINEGEN
 70
0
  9
$PSLTSCALE
 70
0
  9
$TREEDEPTH
 70
3020
  9
$CMLSTYLE
  2
Standard
  9
$CMLJUST
 70
0
  9
$CMLSCALE
 40
20.0
  9
$PROXYGRAPHICS
 70
1
  9
$MEASUREMENT
 70
1
  9
$CELWEIGHT
370
-1
  9
$ENDCAPS
280
0
  9
$JOINSTYLE
280
0
  9
$LWDISPLAY
290
1
  9
$INSUNITS
 70
4
  9
$HYPERLINKBASE
  1

  9
$STYLESHEET
  1

  9
$XEDIT
290
1
  9
$CEPSNTYPE
380
0
  9
$PSTYLEMODE
290
1
  9
$FINGERPRINTGUID
  2
{41545F39-EC88-4272-A319-80A55C90443C}
  9
$VERSIONGUID
  2
{28A409F7-E3DD-49A4-9FDA-3899F94E42AF}
  9
$EXTNAMES
290
1
  9
$PSVPSCALE
 40
0.0
  9
$OLESTARTUP
290
0
  9
$SORTENTS
280
127
  9
$INDEXCTL
280
0
  9
$HIDETEXT
280
1
  9
$XCLIPFRAME
280
1
  9
$HALOGAP
280
0
  9
$OBSCOLOR
 70
257
  9
$OBSLTYPE
280
0
  9
$INTERSECTIONDISPLAY
280
0
  9
$INTERSECTIONCOLOR
 70
257
  9
$DIMASSOC
280
2
  9
$PROJECTNAME
  1

  9
$CAMERADISPLAY
290
0
  9
$LENSLENGTH
 40
50.0
  9
$CAMERAHEIGHT
 40
0.0
  9
$STEPSPERSEC
 40
24.0
  9
$STEPSIZE
 40
100.0
  9
$3DDWFPREC
 40
2.0
  9
$PSOLWIDTH
 40
0.005
  9
$PSOLHEIGHT
 40
0.08
  9
$LOFTANG1
 40
1.570796326795
  9
$LOFTANG2
 40
1.570796326795
  9
$LOFTMAG1
 40
0.0
  9
$LOFTMAG2
 40
0.0
  9
$LOFTPARAM
 70
7
  9
$LOFTNORMALS
280
1
  9
$LATITUDE
 40
37.795
  9
$LONGITUDE
 40
-122.394
  9
$NORTHDIRECTION
 40
0.0
  9
$TIMEZONE
 70
-8000
  9
$LIGHTGLYPHDISPLAY
280
1
  9
$TILEMODELIGHTSYNCH
280
1
  9
$CMATERIAL
347
20
  9
$SOLIDHIST
280
0
  9
$SHOWHIST
280
1
  9
$DWFFRAME
280
2
  9
$DGNFRAME
280
2
  9
$REALWORLDSCALE
290
1
  9
$INTERFERECOLOR
 62
256
  9
$CSHADOW
280
0
  9
$SHADOWPLANELOCATION
 40
0.0
  0
ENDSEC
  0
SECTION
  2
CLASSES
  0
CLASS
  1
ACDBDICTIONARYWDFLT
  2
AcDbDictionaryWithDefault
  3
ObjectDBX Classes
 90
0
 91
0
280
0
281
0
  0
CLASS
  1
SUN
  2
AcDbSun
  3
SCENEOE
 90
1153
 91
0
280
0
281
0
  0
CLASS
  1
VISUALSTYLE
  2
AcDbVisualStyle
  3
ObjectDBX Classes
 90
4095
 91
0
280
0
281
0
  0
CLASS
  1
MATERIAL
  2
AcDbMaterial
  3
ObjectDBX Classes
 90
1153
 91
0
280
0
281
0
  0
CLASS
  1
SCALE
  2
AcDbScale
  3
ObjectDBX Classes
 90
1153
 91
0
280
0
281
0
  0
CLASS
  1
TABLESTYLE
  2
AcDbTableStyle
  3
ObjectDBX Classes
 90
4095
 91
0
280
0
281
0
  0
CLASS
  1
MLEADERSTYLE
  2
AcDbMLeaderStyle
  3
ACDB_MLEADERSTYLE_CLASS
 90
4095
 91
0
280
0
281
0
  0
CLASS
  1
DICTIONARYVAR
  2
AcDbDictionaryVar
  3
ObjectDBX Classes
 90
0
 91
0
280
0
281
0
  0
CLASS
  1
CELLSTYLEMAP
  2
AcDbCellStyleMap
  3
ObjectDBX Classes
 90
1152
 91
0
280
0
281
0
  0
CLASS
  1
MENTALRAYRENDERSETTINGS
  2
AcDbMentalRayRenderSettings
  3
SCENEOE
 90
1024
 91
0
280
0
281
0
  0
CLASS
  1
ACDBDETAILVIEWSTYLE
  2
AcDbDetailViewStyle
  3
ObjectDBX Classes
 90
1025
 91
0
280
0
281
0
  0
CLASS
  1
ACDBSECTIONVIEWSTYLE
  2
AcDbSectionViewStyle
  3
ObjectDBX Classes
 90
1025
 91
0
280
0
281
0
  0
CLASS
  1
RASTERVARIABLES
  2
AcDbRasterVariables
  3
ISM
 90
0
 91
0
280
0
281
0
  0
CLASS
  1
ACDBPLACEHOLDER
  2
AcDbPlaceHolder
  3
ObjectDBX Classes
 90
0
 91
0
280
0
281
0
  0
CLASS
  1
LAYOUT
  2
AcDbLayout
  3
ObjectDBX Classes
 90
0
 91
0
280
0
281
0
  0
ENDSEC
  0
SECTION
  2
TABLES
  0
TABLE
  2
VPORT
  5
8
330
0
100
AcDbSymbolTable
 70
1
  0
VPORT
  5
23
330
8
100
AcDbSymbolTableRecord
100
AcDbViewportTableRecord
  2
*Active
 70
0
 10
0.0
 20
0.0
 11
1.0
 21
1.0
 12
0.0
 22
0.0
 13
0.0
 23
0.0
 14
0.5
 24
0.5
 15
0.5
 25
0.5
 16
0.0
 26
0.0
 36
1.0
 17
0.0
 27
0.0
 37
0.0
 40
1000.0
 41
1.34
 42
50.0
 43
0.0
 44
0.0
 50
0.0
 51
0.0
 71
0
 72
1000
 73
1
 74
3
 75
0
 76
0
 77
0
 78
0
281
0
 65
0
146
0.0
  0
ENDTAB
  0
TABLE
  2
LTYPE
  5
2
330
0
100
AcDbSymbolTable
 70
5
  0
LTYPE
  5
24
330
2
100
AcDbSymbolTableRecord
100
AcDbLinetypeTableRecord
  2
ByBlock
 70
0
  3

 72
65
 73
0
 40
0.0
  0
LTYPE
  5
25
330
2
100
AcDbSymbolTableRecord
100
AcDbLinetypeTableRecord
  2
ByLayer
 70
0
  3

 72
65
 73
0
 40
0.0
  0
LTYPE
  5
26
330
2
100
AcDbSymbolTableRecord
100
AcDbLinetypeTableRecord
  2
Continuous
 70
0
  3

 72
65
 73
0
 40
0.0
  0
LTYPE
  5
2F
330
2
100
AcDbSymbolTableRecord
100
AcDbLinetypeTableRecord
  2
ISO02-TRAZOS
 70
0
  3
ISO 128 tipo 02 - trazos (d=0,25) __ __ __
 72
65
 73
2
 40
3.75
 49
3.0
 74
0
 49
-0.75
 74
0
  0
LTYPE
  5
30
330
2
100
AcDbSymbolTableRecord
100
AcDbLinetypeTableRecord
  2
ISO04-TRAZO-PUNTO
 70
0
  3
ISO 128 tipo 04 - trazo largo y punto (d=0,25) ____ . ____
 72
65
 73
4
 40
7.625
 49
6.0
 74
0
 49
-0.75
 74
0
 49
0.125
 74
0
 49
-0.75
 74
0
  0
ENDTAB
  0
TABLE
  2
LAYER
  5
1
330
0
100
AcDbSymbolTable
 70
14
  0
LAYER
  5
27
330
1
100
AcDbSymbolTableRecord
100
AcDbLayerTableRecord
  2
0
 70
0
 62
7
  6
Continuous
370
-3
390
13
347
21
  0
LAYER
  5
28
330
1
100
AcDbSymbolTableRecord
100
AcDbLayerTableRecord
  2
Defpoints
 70
0
 62
7
  6
Continuous
290
0
370
-3
390
13
347
21
  0
LAYER
  5
31
330
1
100
AcDbSymbolTableRecord
100
AcDbLayerTableRecord
  2
01-VISIBLE
 70
0
 62
7
  6
CONTINUOUS
370
50
390
13
347
21
  0
LAYER
  5
32
330
1
100
AcDbSymbolTableRecord
100
AcDbLayerTableRecord
  2
02-OCULTA
 70
0
 62
4
  6
ISO02-TRAZOS
370
25
390
13
347
21
  0
LAYER
  5
33
330
1
100
AcDbSymbolTableRecord
100
AcDbLayerTableRecord
  2
03-EJE
 70
0
 62
1
  6
ISO04-TRAZO-PUNTO
370
25
390
13
347
21
  0
LAYER
  5
34
330
1
100
AcDbSymbolTableRecord
100
AcDbLayerTableRecord
  2
04-COTA
 70
0
 62
3
  6
CONTINUOUS
370
25
390
13
347
21
  0
LAYER
  5
35
330
1
100
AcDbSymbolTableRecord
100
AcDbLayerTableRecord
  2
05-RAYADO
 70
0
 62
8
  6
CONTINUOUS
370
25
390
13
347
21
  0
LAYER
  5
36
330
1
100
AcDbSymbolTableRecord
100
AcDbLayerTableRecord
  2
06-TEXTO
 70
0
 62
7
  6
CONTINUOUS
370
25
390
13
347
21
  0
LAYER
  5
37
330
1
100
AcDbSymbolTableRecord
100
AcDbLayerTableRecord
  2
07-RECUADRO
 70
0
 62
7
  6
CONTINUOUS
370
70
390
13
347
21
  0
LAYER
  5
38
330
1
100
AcDbSymbolTableRecord
100
AcDbLayerTableRecord
  2
08-FINA
 70
0
 62
5
  6
CONTINUOUS
370
25
390
13
347
21
  0
LAYER
  5
39
330
1
100
AcDbSymbolTableRecord
100
AcDbLayerTableRecord
  2
09-PLANO-CORTE
 70
0
 62
1
  6
ISO04-TRAZO-PUNTO
370
50
390
13
347
21
  0
LAYER
  5
3A
330
1
100
AcDbSymbolTableRecord
100
AcDbLayerTableRecord
  2
10-ROTULO
 70
0
 62
7
  6
CONTINUOUS
370
35
390
13
347
21
  0
LAYER
  5
3B
330
1
100
AcDbSymbolTableRecord
100
AcDbLayerTableRecord
  2
11-TEXTO-ROTULO
 70
0
 62
7
  6
CONTINUOUS
370
25
390
13
347
21
  0
LAYER
  5
3C
330
1
100
AcDbSymbolTableRecord
100
AcDbLayerTableRecord
  2
12-SOLDADURA
 70
0
 62
6
  6
CONTINUOUS
370
25
390
13
347
21
  0
ENDTAB
  0
TABLE
  2
STYLE
  5
5
330
0
100
AcDbSymbolTable
 70
2
  0
STYLE
  5
29
330
5
100
AcDbSymbolTableRecord
100
AcDbTextStyleTableRecord
  2
Standard
 70
0
 40
0.0
 41
1.0
 50
0.0
 71
0
 42
2.5
  3
txt
  4

  0
STYLE
  5
3D
330
5
100
AcDbSymbolTableRecord
100
AcDbTextStyleTableRecord
  2
ISO3098
 70
0
 40
0.0
 41
1.0
 50
0.0
 71
0
 42
2.5
  3
isocpeur.ttf
  4

  0
ENDTAB
  0
TABLE
  2
VIEW
  5
7
330
0
100
AcDbSymbolTable
 70
0
  0
ENDTAB
  0
TABLE
  2
UCS
  5
6
330
0
100
AcDbSymbolTable
 70
0
  0
ENDTAB
  0
TABLE
  2
APPID
  5
3
330
0
100
AcDbSymbolTable
 70
3
  0
APPID
  5
2A
330
3
100
AcDbSymbolTableRecord
100
AcDbRegAppTableRecord
  2
ACAD
 70
0
  0
APPID
  5
128
330
3
100
AcDbSymbolTableRecord
100
AcDbRegAppTableRecord
  2
HATCHBACKGROUNDCOLOR
 70
0
  0
APPID
  5
129
330
3
100
AcDbSymbolTableRecord
100
AcDbRegAppTableRecord
  2
EZDXF
 70
0
  0
ENDTAB
  0
TABLE
  2
DIMSTYLE
  5
4
330
0
100
AcDbSymbolTable
 70
2
100
AcDbDimStyleTable
  0
DIMSTYLE
105
2B
330
4
100
AcDbSymbolTableRecord
100
AcDbDimStyleTableRecord
  2
Standard
 70
0
 40
1.0
 41
2.5
 42
0.625
 43
3.75
 44
1.25
 45
0.0
 46
0.0
 47
0.0
 48
0.0
 49
2.5
140
2.5
141
2.5
142
0.0
143
0.03937007874
144
1.0
145
0.0
146
1.0
147
0.625
148
0.0
 69
0
 70
0
 71
0
 72
0
 73
0
 74
0
 75
0
 76
0
 77
1
 78
8
 79
3
170
0
171
3
172
1
173
0
174
0
175
0
176
0
177
0
178
0
179
2
271
2
272
2
273
2
274
3
275
0
276
0
277
2
278
44
279
0
280
0
281
0
282
0
283
0
284
8
285
0
286
0
288
0
289
3
290
0
371
-2
372
-2
  0
DIMSTYLE
105
3E
330
4
100
AcDbSymbolTableRecord
100
AcDbDimStyleTableRecord
  2
FLAMA-ISO
 70
0
 40
1.0
 41
3.0
 42
1.0
 43
3.75
 44
2.0
 45
0.0
 46
0.0
 47
0.0
 48
0.0
 49
2.5
140
3.5
141
2.5
142
0.0
143
0.03937007874
144
1.0
145
0.0
146
1.0
147
1.0
148
0.0
 69
0
 70
0
 71
0
 72
0
 73
0
 74
0
 75
0
 76
0
 77
1
 78
8
 79
3
170
0
171
3
172
1
173
0
174
0
175
0
176
3
177
3
178
3
179
2
271
1
272
2
273
2
274
3
275
0
276
0
277
2
278
44
279
0
280
0
281
0
282
0
283
0
284
8
285
0
286
0
288
0
289
3
290
0
340
3D
371
25
372
25
  0
ENDTAB
  0
TABLE
  2
BLOCK_RECORD
  5
9
330
0
100
AcDbSymbolTable
 70
2
  0
BLOCK_RECORD
  5
17
330
9
100
AcDbSymbolTableRecord
100
AcDbBlockTableRecord
  2
*Model_Space
340
1A
 70
0
280
1
281
0
  0
BLOCK_RECORD
  5
122
330
9
100
AcDbSymbolTableRecord
100
AcDbBlockTableRecord
  2
*Paper_Space
340
125
 70
0
280
1
281
0
  0
ENDTAB
  0
ENDSEC
  0
SECTION
  2
BLOCKS
  0
BLOCK
  5
18
330
17
100
AcDbEntity
  8
0
100
AcDbBlockBegin
  2
*Model_Space
 70
0
 10
0.0
 20
0.0
 30
0.0
  3
*Model_Space
  1

  0
ENDBLK
  5
19
330
17
100
AcDbEntity
  8
0
100
AcDbBlockEnd
  0
BLOCK
  5
123
330
122
100
AcDbEntity
  8
0
100
AcDbBlockBegin
  2
*Paper_Space
 70
0
 10
0.0
 20
0.0
 30
0.0
  3
*Paper_Space
  1

  0
ENDBLK
  5
124
330
122
100
AcDbEntity
  8
0
100
AcDbBlockEnd
  0
ENDSEC
  0
SECTION
  2
ENTITIES
  0
LWPOLYLINE
  5
3F
330
17
100
AcDbEntity
  8
08-FINA
100
AcDbPolyline
 90
4
 70
1
 10
0.0
 20
0.0
 10
420.0
 20
0.0
 10
420.0
 20
297.0
 10
0.0
 20
297.0
  0
LWPOLYLINE
  5
40
330
17
100
AcDbEntity
  8
07-RECUADRO
100
AcDbPolyline
 90
4
 70
1
 10
20.0
 20
10.0
 10
410.0
 20
10.0
 10
410.0
 20
287.0
 10
20.0
 20
287.0
  0
LINE
  5
41
330
17
100
AcDbEntity
  8
07-RECUADRO
100
AcDbLine
 10
210.0
 20
0.0
 30
0.0
 11
210.0
 21
15.0
 31
0.0
  0
LINE
  5
42
330
17
100
AcDbEntity
  8
07-RECUADRO
100
AcDbLine
 10
210.0
 20
297.0
 30
0.0
 11
210.0
 21
282.0
 31
0.0
  0
LINE
  5
43
330
17
100
AcDbEntity
  8
07-RECUADRO
100
AcDbLine
 10
0.0
 20
148.5
 30
0.0
 11
25.0
 21
148.5
 31
0.0
  0
LINE
  5
44
330
17
100
AcDbEntity
  8
07-RECUADRO
100
AcDbLine
 10
420.0
 20
148.5
 30
0.0
 11
405.0
 21
148.5
 31
0.0
  0
LINE
  5
45
330
17
100
AcDbEntity
  8
08-FINA
100
AcDbLine
 10
60.0
 20
10.0
 30
0.0
 11
60.0
 21
5.0
 31
0.0
  0
LINE
  5
46
330
17
100
AcDbEntity
  8
08-FINA
100
AcDbLine
 10
60.0
 20
287.0
 30
0.0
 11
60.0
 21
292.0
 31
0.0
  0
LINE
  5
47
330
17
100
AcDbEntity
  8
08-FINA
100
AcDbLine
 10
110.0
 20
10.0
 30
0.0
 11
110.0
 21
5.0
 31
0.0
  0
LINE
  5
48
330
17
100
AcDbEntity
  8
08-FINA
100
AcDbLine
 10
110.0
 20
287.0
 30
0.0
 11
110.0
 21
292.0
 31
0.0
  0
LINE
  5
49
330
17
100
AcDbEntity
  8
08-FINA
100
AcDbLine
 10
160.0
 20
10.0
 30
0.0
 11
160.0
 21
5.0
 31
0.0
  0
LINE
  5
4A
330
17
100
AcDbEntity
  8
08-FINA
100
AcDbLine
 10
160.0
 20
287.0
 30
0.0
 11
160.0
 21
292.0
 31
0.0
  0
LINE
  5
4B
330
17
100
AcDbEntity
  8
08-FINA
100
AcDbLine
 10
260.0
 20
10.0
 30
0.0
 11
260.0
 21
5.0
 31
0.0
  0
LINE
  5
4C
330
17
100
AcDbEntity
  8
08-FINA
100
AcDbLine
 10
260.0
 20
287.0
 30
0.0
 11
260.0
 21
292.0
 31
0.0
  0
LINE
  5
4D
330
17
100
AcDbEntity
  8
08-FINA
100
AcDbLine
 10
310.0
 20
10.0
 30
0.0
 11
310.0
 21
5.0
 31
0.0
  0
LINE
  5
4E
330
17
100
AcDbEntity
  8
08-FINA
100
AcDbLine
 10
310.0
 20
287.0
 30
0.0
 11
310.0
 21
292.0
 31
0.0
  0
LINE
  5
4F
330
17
100
AcDbEntity
  8
08-FINA
100
AcDbLine
 10
360.0
 20
10.0
 30
0.0
 11
360.0
 21
5.0
 31
0.0
  0
LINE
  5
50
330
17
100
AcDbEntity
  8
08-FINA
100
AcDbLine
 10
360.0
 20
287.0
 30
0.0
 11
360.0
 21
292.0
 31
0.0
  0
LINE
  5
51
330
17
100
AcDbEntity
  8
08-FINA
100
AcDbLine
 10
20.0
 20
48.5
 30
0.0
 11
15.0
 21
48.5
 31
0.0
  0
LINE
  5
52
330
17
100
AcDbEntity
  8
08-FINA
100
AcDbLine
 10
410.0
 20
48.5
 30
0.0
 11
415.0
 21
48.5
 31
0.0
  0
LINE
  5
53
330
17
100
AcDbEntity
  8
08-FINA
100
AcDbLine
 10
20.0
 20
98.5
 30
0.0
 11
15.0
 21
98.5
 31
0.0
  0
LINE
  5
54
330
17
100
AcDbEntity
  8
08-FINA
100
AcDbLine
 10
410.0
 20
98.5
 30
0.0
 11
415.0
 21
98.5
 31
0.0
  0
LINE
  5
55
330
17
100
AcDbEntity
  8
08-FINA
100
AcDbLine
 10
20.0
 20
198.5
 30
0.0
 11
15.0
 21
198.5
 31
0.0
  0
LINE
  5
56
330
17
100
AcDbEntity
  8
08-FINA
100
AcDbLine
 10
410.0
 20
198.5
 30
0.0
 11
415.0
 21
198.5
 31
0.0
  0
LINE
  5
57
330
17
100
AcDbEntity
  8
08-FINA
100
AcDbLine
 10
20.0
 20
248.5
 30
0.0
 11
15.0
 21
248.5
 31
0.0
  0
LINE
  5
58
330
17
100
AcDbEntity
  8
08-FINA
100
AcDbLine
 10
410.0
 20
248.5
 30
0.0
 11
415.0
 21
248.5
 31
0.0
  0
TEXT
  5
59
330
17
100
AcDbEntity
  8
06-TEXTO
100
AcDbText
 10
40.0
 20
5.0
 30
0.0
 40
3.5
  1
1
  7
ISO3098
 72
1
 11
40.0
 21
5.0
 31
0.0
100
AcDbText
 73
2
  0
TEXT
  5
5A
330
17
100
AcDbEntity
  8
06-TEXTO
100
AcDbText
 10
40.0
 20
292.0
 30
0.0
 40
3.5
  1
1
  7
ISO3098
 72
1
 11
40.0
 21
292.0
 31
0.0
100
AcDbText
 73
2
  0
TEXT
  5
5B
330
17
100
AcDbEntity
  8
06-TEXTO
100
AcDbText
 10
85.0
 20
5.0
 30
0.0
 40
3.5
  1
2
  7
ISO3098
 72
1
 11
85.0
 21
5.0
 31
0.0
100
AcDbText
 73
2
  0
TEXT
  5
5C
330
17
100
AcDbEntity
  8
06-TEXTO
100
AcDbText
 10
85.0
 20
292.0
 30
0.0
 40
3.5
  1
2
  7
ISO3098
 72
1
 11
85.0
 21
292.0
 31
0.0
100
AcDbText
 73
2
  0
TEXT
  5
5D
330
17
100
AcDbEntity
  8
06-TEXTO
100
AcDbText
 10
135.0
 20
5.0
 30
0.0
 40
3.5
  1
3
  7
ISO3098
 72
1
 11
135.0
 21
5.0
 31
0.0
100
AcDbText
 73
2
  0
TEXT
  5
5E
330
17
100
AcDbEntity
  8
06-TEXTO
100
AcDbText
 10
135.0
 20
292.0
 30
0.0
 40
3.5
  1
3
  7
ISO3098
 72
1
 11
135.0
 21
292.0
 31
0.0
100
AcDbText
 73
2
  0
TEXT
  5
5F
330
17
100
AcDbEntity
  8
06-TEXTO
100
AcDbText
 10
185.0
 20
5.0
 30
0.0
 40
3.5
  1
4
  7
ISO3098
 72
1
 11
185.0
 21
5.0
 31
0.0
100
AcDbText
 73
2
  0
TEXT
  5
60
330
17
100
AcDbEntity
  8
06-TEXTO
100
AcDbText
 10
185.0
 20
292.0
 30
0.0
 40
3.5
  1
4
  7
ISO3098
 72
1
 11
185.0
 21
292.0
 31
0.0
100
AcDbText
 73
2
  0
TEXT
  5
61
330
17
100
AcDbEntity
  8
06-TEXTO
100
AcDbText
 10
235.0
 20
5.0
 30
0.0
 40
3.5
  1
5
  7
ISO3098
 72
1
 11
235.0
 21
5.0
 31
0.0
100
AcDbText
 73
2
  0
TEXT
  5
62
330
17
100
AcDbEntity
  8
06-TEXTO
100
AcDbText
 10
235.0
 20
292.0
 30
0.0
 40
3.5
  1
5
  7
ISO3098
 72
1
 11
235.0
 21
292.0
 31
0.0
100
AcDbText
 73
2
  0
TEXT
  5
63
330
17
100
AcDbEntity
  8
06-TEXTO
100
AcDbText
 10
285.0
 20
5.0
 30
0.0
 40
3.5
  1
6
  7
ISO3098
 72
1
 11
285.0
 21
5.0
 31
0.0
100
AcDbText
 73
2
  0
TEXT
  5
64
330
17
100
AcDbEntity
  8
06-TEXTO
100
AcDbText
 10
285.0
 20
292.0
 30
0.0
 40
3.5
  1
6
  7
ISO3098
 72
1
 11
285.0
 21
292.0
 31
0.0
100
AcDbText
 73
2
  0
TEXT
  5
65
330
17
100
AcDbEntity
  8
06-TEXTO
100
AcDbText
 10
335.0
 20
5.0
 30
0.0
 40
3.5
  1
7
  7
ISO3098
 72
1
 11
335.0
 21
5.0
 31
0.0
100
AcDbText
 73
2
  0
TEXT
  5
66
330
17
100
AcDbEntity
  8
06-TEXTO
100
AcDbText
 10
335.0
 20
292.0
 30
0.0
 40
3.5
  1
7
  7
ISO3098
 72
1
 11
335.0
 21
292.0
 31
0.0
100
AcDbText
 73
2
  0
TEXT
  5
67
330
17
100
AcDbEntity
  8
06-TEXTO
100
AcDbText
 10
385.0
 20
5.0
 30
0.0
 40
3.5
  1
8
  7
ISO3098
 72
1
 11
385.0
 21
5.0
 31
0.0
100
AcDbText
 73
2
  0
TEXT
  5
68
330
17
100
AcDbEntity
  8
06-TEXTO
100
AcDbText
 10
385.0
 20
292.0
 30
0.0
 40
3.5
  1
8
  7
ISO3098
 72
1
 11
385.0
 21
292.0
 31
0.0
100
AcDbText
 73
2
  0
TEXT
  5
69
330
17
100
AcDbEntity
  8
06-TEXTO
100
AcDbText
 10
10.0
 20
29.25
 30
0.0
 40
3.5
  1
F
  7
ISO3098
 72
1
 11
10.0
 21
29.25
 31
0.0
100
AcDbText
 73
2
  0
TEXT
  5
6A
330
17
100
AcDbEntity
  8
06-TEXTO
100
AcDbText
 10
415.0
 20
29.25
 30
0.0
 40
3.5
  1
F
  7
ISO3098
 72
1
 11
415.0
 21
29.25
 31
0.0
100
AcDbText
 73
2
  0
TEXT
  5
6B
330
17
100
AcDbEntity
  8
06-TEXTO
100
AcDbText
 10
10.0
 20
73.5
 30
0.0
 40
3.5
  1
E
  7
ISO3098
 72
1
 11
10.0
 21
73.5
 31
0.0
100
AcDbText
 73
2
  0
TEXT
  5
6C
330
17
100
AcDbEntity
  8
06-TEXTO
100
AcDbText
 10
415.0
 20
73.5
 30
0.0
 40
3.5
  1
E
  7
ISO3098
 72
1
 11
415.0
 21
73.5
 31
0.0
100
AcDbText
 73
2
  0
TEXT
  5
6D
330
17
100
AcDbEntity
  8
06-TEXTO
100
AcDbText
 10
10.0
 20
123.5
 30
0.0
 40
3.5
  1
D
  7
ISO3098
 72
1
 11
10.0
 21
123.5
 31
0.0
100
AcDbText
 73
2
  0
TEXT
  5
6E
330
17
100
AcDbEntity
  8
06-TEXTO
100
AcDbText
 10
415.0
 20
123.5
 30
0.0
 40
3.5
  1
D
  7
ISO3098
 72
1
 11
415.0
 21
123.5
 31
0.0
100
AcDbText
 73
2
  0
TEXT
  5
6F
330
17
100
AcDbEntity
  8
06-TEXTO
100
AcDbText
 10
10.0
 20
173.5
 30
0.0
 40
3.5
  1
C
  7
ISO3098
 72
1
 11
10.0
 21
173.5
 31
0.0
100
AcDbText
 73
2
  0
TEXT
  5
70
330
17
100
AcDbEntity
  8
06-TEXTO
100
AcDbText
 10
415.0
 20
173.5
 30
0.0
 40
3.5
  1
C
  7
ISO3098
 72
1
 11
415.0
 21
173.5
 31
0.0
100
AcDbText
 73
2
  0
TEXT
  5
71
330
17
100
AcDbEntity
  8
06-TEXTO
100
AcDbText
 10
10.0
 20
223.5
 30
0.0
 40
3.5
  1
B
  7
ISO3098
 72
1
 11
10.0
 21
223.5
 31
0.0
100
AcDbText
 73
2
  0
TEXT
  5
72
330
17
100
AcDbEntity
  8
06-TEXTO
100
AcDbText
 10
415.0
 20
223.5
 30
0.0
 40
3.5
  1
B
  7
ISO3098
 72
1
 11
415.0
 21
223.5
 31
0.0
100
AcDbText
 73
2
  0
TEXT
  5
73
330
17
100
AcDbEntity
  8
06-TEXTO
100
AcDbText
 10
10.0
 20
267.75
 30
0.0
 40
3.5
  1
A
  7
ISO3098
 72
1
 11
10.0
 21
267.75
 31
0.0
100
AcDbText
 73
2
  0
TEXT
  5
74
330
17
100
AcDbEntity
  8
06-TEXTO
100
AcDbText
 10
415.0
 20
267.75
 30
0.0
 40
3.5
  1
A
  7
ISO3098
 72
1
 11
415.0
 21
267.75
 31
0.0
100
AcDbText
 73
2
  0
LWPOLYLINE
  5
75
330
17
100
AcDbEntity
  8
10-ROTULO
100
AcDbPolyline
 90
4
 70
1
 10
230.0
 20
60.0
 10
244.0
 20
60.0
 10
244.0
 20
66.0
 10
230.0
 20
66.0
  0
LWPOLYLINE
  5
76
330
17
100
AcDbEntity
  8
10-ROTULO
100
AcDbPolyline
 90
4
 70
1
 10
244.0
 20
60.0
 10
263.0
 20
60.0
 10
263.0
 20
66.0
 10
244.0
 20
66.0
  0
TEXT
  5
77
330
17
100
AcDbEntity
  8
11-TEXTO-ROTULO
100
AcDbText
 10
253.5
 20
63.0
 30
0.0
 40
2.2
  1
Fecha
  7
ISO3098
 72
1
 11
253.5
 21
63.0
 31
0.0
100
AcDbText
 73
2
  0
LWPOLYLINE
  5
78
330
17
100
AcDbEntity
  8
10-ROTULO
100
AcDbPolyline
 90
4
 70
1
 10
263.0
 20
60.0
 10
286.0
 20
60.0
 10
286.0
 20
66.0
 10
263.0
 20
66.0
  0
TEXT
  5
79
330
17
100
AcDbEntity
  8
11-TEXTO-ROTULO
100
AcDbText
 10
274.5
 20
63.0
 30
0.0
 40
2.2
  1
Nombre
  7
ISO3098
 72
1
 11
274.5
 21
63.0
 31
0.0
100
AcDbText
 73
2
  0
LWPOLYLINE
  5
7A
330
17
100
AcDbEntity
  8
10-ROTULO
100
AcDbPolyline
 90
4
 70
1
 10
230.0
 20
54.0
 10
244.0
 20
54.0
 10
244.0
 20
60.0
 10
230.0
 20
60.0
  0
TEXT
  5
7B
330
17
100
AcDbEntity
  8
11-TEXTO-ROTULO
100
AcDbText
 10
231.5
 20
57.0
 30
0.0
 40
2.2
  1
Dibujó
  7
ISO3098
 11
231.5
 21
57.0
 31
0.0
100
AcDbText
 73
2
  0
LWPOLYLINE
  5
7C
330
17
100
AcDbEntity
  8
10-ROTULO
100
AcDbPolyline
 90
4
 70
1
 10
244.0
 20
54.0
 10
263.0
 20
54.0
 10
263.0
 20
60.0
 10
244.0
 20
60.0
  0
TEXT
  5
7D
330
17
100
AcDbEntity
  8
11-TEXTO-ROTULO
100
AcDbText
 10
253.5
 20
57.0
 30
0.0
 40
2.2
  1
28/09/2026
  7
ISO3098
 72
1
 11
253.5
 21
57.0
 31
0.0
100
AcDbText
 73
2
  0
LWPOLYLINE
  5
7E
330
17
100
AcDbEntity
  8
10-ROTULO
100
AcDbPolyline
 90
4
 70
1
 10
263.0
 20
54.0
 10
286.0
 20
54.0
 10
286.0
 20
60.0
 10
263.0
 20
60.0
  0
TEXT
  5
7F
330
17
100
AcDbEntity
  8
11-TEXTO-ROTULO
100
AcDbText
 10
274.5
 20
57.0
 30
0.0
 40
2.2
  1
T. Sinay
  7
ISO3098
 72
1
 11
274.5
 21
57.0
 31
0.0
100
AcDbText
 73
2
  0
LWPOLYLINE
  5
80
330
17
100
AcDbEntity
  8
10-ROTULO
100
AcDbPolyline
 90
4
 70
1
 10
230.0
 20
48.0
 10
244.0
 20
48.0
 10
244.0
 20
54.0
 10
230.0
 20
54.0
  0
TEXT
  5
81
330
17
100
AcDbEntity
  8
11-TEXTO-ROTULO
100
AcDbText
 10
231.5
 20
51.0
 30
0.0
 40
2.2
  1
Revisó
  7
ISO3098
 11
231.5
 21
51.0
 31
0.0
100
AcDbText
 73
2
  0
LWPOLYLINE
  5
82
330
17
100
AcDbEntity
  8
10-ROTULO
100
AcDbPolyline
 90
4
 70
1
 10
244.0
 20
48.0
 10
263.0
 20
48.0
 10
263.0
 20
54.0
 10
244.0
 20
54.0
  0
LWPOLYLINE
  5
83
330
17
100
AcDbEntity
  8
10-ROTULO
100
AcDbPolyline
 90
4
 70
1
 10
263.0
 20
48.0
 10
286.0
 20
48.0
 10
286.0
 20
54.0
 10
263.0
 20
54.0
  0
LWPOLYLINE
  5
84
330
17
100
AcDbEntity
  8
10-ROTULO
100
AcDbPolyline
 90
4
 70
1
 10
230.0
 20
42.0
 10
244.0
 20
42.0
 10
244.0
 20
48.0
 10
230.0
 20
48.0
  0
TEXT
  5
85
330
17
100
AcDbEntity
  8
11-TEXTO-ROTULO
100
AcDbText
 10
231.5
 20
45.0
 30
0.0
 40
2.2
  1
Aprobó
  7
ISO3098
 11
231.5
 21
45.0
 31
0.0
100
AcDbText
 73
2
  0
LWPOLYLINE
  5
86
330
17
100
AcDbEntity
  8
10-ROTULO
100
AcDbPolyline
 90
4
 70
1
 10
244.0
 20
42.0
 10
263.0
 20
42.0
 10
263.0
 20
48.0
 10
244.0
 20
48.0
  0
LWPOLYLINE
  5
87
330
17
100
AcDbEntity
  8
10-ROTULO
100
AcDbPolyline
 90
4
 70
1
 10
263.0
 20
42.0
 10
286.0
 20
42.0
 10
286.0
 20
48.0
 10
263.0
 20
48.0
  0
LWPOLYLINE
  5
88
330
17
100
AcDbEntity
  8
10-ROTULO
100
AcDbPolyline
 90
4
 70
1
 10
230.0
 20
28.0
 10
252.0
 20
28.0
 10
252.0
 20
42.0
 10
230.0
 20
42.0
  0
TEXT
  5
89
330
17
100
AcDbEntity
  8
11-TEXTO-ROTULO
100
AcDbText
 10
231.0
 20
41.0
 30
0.0
 40
1.8
  1
Escala
  7
ISO3098
 11
231.0
 21
41.0
 31
0.0
100
AcDbText
 73
3
  0
TEXT
  5
8A
330
17
100
AcDbEntity
  8
11-TEXTO-ROTULO
100
AcDbText
 10
241.0
 20
33.6
 30
0.0
 40
5.0
  1
-
  7
ISO3098
 72
1
 11
241.0
 21
33.6
 31
0.0
100
AcDbText
 73
2
  0
LWPOLYLINE
  5
8B
330
17
100
AcDbEntity
  8
10-ROTULO
100
AcDbPolyline
 90
4
 70
1
 10
252.0
 20
28.0
 10
286.0
 20
28.0
 10
286.0
 20
42.0
 10
252.0
 20
42.0
  0
TEXT
  5
8C
330
17
100
AcDbEntity
  8
11-TEXTO-ROTULO
100
AcDbText
 10
253.0
 20
41.0
 30
0.0
 40
1.8
  1
Método de proyección
  7
ISO3098
 11
253.0
 21
41.0
 31
0.0
100
AcDbText
 73
3
  0
CIRCLE
  5
8D
330
17
100
AcDbEntity
  8
01-VISIBLE
100
AcDbCircle
 10
264.0
 20
33.5
 30
0.0
 40
3.5
  0
CIRCLE
  5
8E
330
17
100
AcDbEntity
  8
01-VISIBLE
100
AcDbCircle
 10
264.0
 20
33.5
 30
0.0
 40
1.75
  0
LWPOLYLINE
  5
8F
330
17
100
AcDbEntity
  8
01-VISIBLE
100
AcDbPolyline
 90
4
 70
1
 10
271.0
 20
30.0
 10
278.0
 20
31.75
 10
278.0
 20
35.25
 10
271.0
 20
37.0
  0
LINE
  5
90
330
17
100
AcDbEntity
  8
03-EJE
100
AcDbLine
 10
259.0
 20
33.5
 30
0.0
 11
279.5
 21
33.5
 31
0.0
  0
LINE
  5
91
330
17
100
AcDbEntity
  8
03-EJE
100
AcDbLine
 10
264.0
 20
28.5
 30
0.0
 11
264.0
 21
38.5
 31
0.0
  0
LWPOLYLINE
  5
92
330
17
100
AcDbEntity
  8
10-ROTULO
100
AcDbPolyline
 90
4
 70
1
 10
230.0
 20
18.0
 10
286.0
 20
18.0
 10
286.0
 20
28.0
 10
230.0
 20
28.0
  0
TEXT
  5
93
330
17
100
AcDbEntity
  8
11-TEXTO-ROTULO
100
AcDbText
 10
231.0
 20
27.0
 30
0.0
 40
1.8
  1
Tolerancias generales
  7
ISO3098
 11
231.0
 21
27.0
 31
0.0
100
AcDbText
 73
3
  0
TEXT
  5
94
330
17
100
AcDbEntity
  8
11-TEXTO-ROTULO
100
AcDbText
 10
258.0
 20
21.6
 30
0.0
 40
3.5
  1
ISO 2768-m
  7
ISO3098
 72
1
 11
258.0
 21
21.6
 31
0.0
100
AcDbText
 73
2
  0
LWPOLYLINE
  5
95
330
17
100
AcDbEntity
  8
10-ROTULO
100
AcDbPolyline
 90
4
 70
1
 10
230.0
 20
10.0
 10
286.0
 20
10.0
 10
286.0
 20
18.0
 10
230.0
 20
18.0
  0
TEXT
  5
96
330
17
100
AcDbEntity
  8
11-TEXTO-ROTULO
100
AcDbText
 10
231.0
 20
17.0
 30
0.0
 40
1.8
  1
Formato
  7
ISO3098
 11
231.0
 21
17.0
 31
0.0
100
AcDbText
 73
3
  0
TEXT
  5
97
330
17
100
AcDbEntity
  8
11-TEXTO-ROTULO
100
AcDbText
 10
258.0
 20
12.6
 30
0.0
 40
3.5
  1
A3
  7
ISO3098
 72
1
 11
258.0
 21
12.6
 31
0.0
100
AcDbText
 73
2
  0
LWPOLYLINE
  5
98
330
17
100
AcDbEntity
  8
10-ROTULO
100
AcDbPolyline
 90
4
 70
1
 10
286.0
 20
54.0
 10
358.0
 20
54.0
 10
358.0
 20
66.0
 10
286.0
 20
66.0
  0
TEXT
  5
99
330
17
100
AcDbEntity
  8
11-TEXTO-ROTULO
100
AcDbText
 10
287.0
 20
65.0
 30
0.0
 40
1.8
  1
Propietario
  7
ISO3098
 11
287.0
 21
65.0
 31
0.0
100
AcDbText
 73
3
  0
TEXT
  5
9A
330
17
100
AcDbEntity
  8
11-TEXTO-ROTULO
100
AcDbText
 10
322.0
 20
58.6
 30
0.0
 40
5.0
  1
FLAMA S.A.
  7
ISO3098
 72
1
 11
322.0
 21
58.6
 31
0.0
100
AcDbText
 73
2
  0
LWPOLYLINE
  5
9B
330
17
100
AcDbEntity
  8
10-ROTULO
100
AcDbPolyline
 90
4
 70
1
 10
286.0
 20
22.0
 10
358.0
 20
22.0
 10
358.0
 20
54.0
 10
286.0
 20
54.0
  0
TEXT
  5
9C
330
17
100
AcDbEntity
  8
11-TEXTO-ROTULO
100
AcDbText
 10
287.0
 20
53.0
 30
0.0
 40
1.8
  1
Denominación
  7
ISO3098
 11
287.0
 21
53.0
 31
0.0
100
AcDbText
 73
3
  0
TEXT
  5
9D
330
17
100
AcDbEntity
  8
11-TEXTO-ROTULO
100
AcDbText
 10
322.0
 20
35.0
 30
0.0
 40
5.0
  1
Extintor HCFC/HFC 5 kg
  7
ISO3098
 72
1
 11
322.0
 21
35.0
 31
0.0
100
AcDbText
 73
2
  0
TEXT
  5
9E
330
17
100
AcDbEntity
  8
11-TEXTO-ROTULO
100
AcDbText
 10
322.0
 20
25.5
 30
0.0
 40
2.2
  1
Datos técnicos y normativa aplicable
  7
ISO3098
 72
1
 11
322.0
 21
25.5
 31
0.0
100
AcDbText
 73
2
  0
LWPOLYLINE
  5
9F
330
17
100
AcDbEntity
  8
10-ROTULO
100
AcDbPolyline
 90
4
 70
1
 10
286.0
 20
10.0
 10
358.0
 20
10.0
 10
358.0
 20
22.0
 10
286.0
 20
22.0
  0
TEXT
  5
A0
330
17
100
AcDbEntity
  8
11-TEXTO-ROTULO
100
AcDbText
 10
287.0
 20
21.0
 30
0.0
 40
1.8
  1
Tipo de documento
  7
ISO3098
 11
287.0
 21
21.0
 31
0.0
100
AcDbText
 73
3
  0
TEXT
  5
A1
330
17
100
AcDbEntity
  8
11-TEXTO-ROTULO
100
AcDbText
 10
322.0
 20
14.6
 30
0.0
 40
3.5
  1
Especificaciones y normas
  7
ISO3098
 72
1
 11
322.0
 21
14.6
 31
0.0
100
AcDbText
 73
2
  0
LWPOLYLINE
  5
A2
330
17
100
AcDbEntity
  8
10-ROTULO
100
AcDbPolyline
 90
4
 70
1
 10
358.0
 20
10.0
 10
410.0
 20
10.0
 10
410.0
 20
24.0
 10
358.0
 20
24.0
  0
TEXT
  5
A3
330
17
100
AcDbEntity
  8
11-TEXTO-ROTULO
100
AcDbText
 10
359.0
 20
23.0
 30
0.0
 40
1.8
  1
N° de plano
  7
ISO3098
 11
359.0
 21
23.0
 31
0.0
100
AcDbText
 73
3
  0
TEXT
  5
A4
330
17
100
AcDbEntity
  8
11-TEXTO-ROTULO
100
AcDbText
 10
384.0
 20
15.6
 30
0.0
 40
5.0
  1
FL-HAL-001
  7
ISO3098
 72
1
 11
384.0
 21
15.6
 31
0.0
100
AcDbText
 73
2
  0
LWPOLYLINE
  5
A5
330
17
100
AcDbEntity
  8
10-ROTULO
100
AcDbPolyline
 90
4
 70
1
 10
358.0
 20
24.0
 10
382.0
 20
24.0
 10
382.0
 20
34.0
 10
358.0
 20
34.0
  0
TEXT
  5
A6
330
17
100
AcDbEntity
  8
11-TEXTO-ROTULO
100
AcDbText
 10
359.0
 20
33.0
 30
0.0
 40
1.8
  1
Hoja
  7
ISO3098
 11
359.0
 21
33.0
 31
0.0
100
AcDbText
 73
3
  0
TEXT
  5
A7
330
17
100
AcDbEntity
  8
11-TEXTO-ROTULO
100
AcDbText
 10
370.0
 20
27.6
 30
0.0
 40
3.5
  1
3 / 3
  7
ISO3098
 72
1
 11
370.0
 21
27.6
 31
0.0
100
AcDbText
 73
2
  0
LWPOLYLINE
  5
A8
330
17
100
AcDbEntity
  8
10-ROTULO
100
AcDbPolyline
 90
4
 70
1
 10
382.0
 20
24.0
 10
410.0
 20
24.0
 10
410.0
 20
34.0
 10
382.0
 20
34.0
  0
TEXT
  5
A9
330
17
100
AcDbEntity
  8
11-TEXTO-ROTULO
100
AcDbText
 10
383.0
 20
33.0
 30
0.0
 40
1.8
  1
Idioma
  7
ISO3098
 11
383.0
 21
33.0
 31
0.0
100
AcDbText
 73
3
  0
TEXT
  5
AA
330
17
100
AcDbEntity
  8
11-TEXTO-ROTULO
100
AcDbText
 10
396.0
 20
27.6
 30
0.0
 40
3.5
  1
es
  7
ISO3098
 72
1
 11
396.0
 21
27.6
 31
0.0
100
AcDbText
 73
2
  0
LWPOLYLINE
  5
AB
330
17
100
AcDbEntity
  8
10-ROTULO
100
AcDbPolyline
 90
4
 70
1
 10
358.0
 20
34.0
 10
382.0
 20
34.0
 10
382.0
 20
44.0
 10
358.0
 20
44.0
  0
TEXT
  5
AC
330
17
100
AcDbEntity
  8
11-TEXTO-ROTULO
100
AcDbText
 10
359.0
 20
43.0
 30
0.0
 40
1.8
  1
Edición
  7
ISO3098
 11
359.0
 21
43.0
 31
0.0
100
AcDbText
 73
3
  0
TEXT
  5
AD
330
17
100
AcDbEntity
  8
11-TEXTO-ROTULO
100
AcDbText
 10
370.0
 20
37.6
 30
0.0
 40
3.5
  1
0
  7
ISO3098
 72
1
 11
370.0
 21
37.6
 31
0.0
100
AcDbText
 73
2
  0
LWPOLYLINE
  5
AE
330
17
100
AcDbEntity
  8
10-ROTULO
100
AcDbPolyline
 90
4
 70
1
 10
382.0
 20
34.0
 10
410.0
 20
34.0
 10
410.0
 20
44.0
 10
382.0
 20
44.0
  0
TEXT
  5
AF
330
17
100
AcDbEntity
  8
11-TEXTO-ROTULO
100
AcDbText
 10
383.0
 20
43.0
 30
0.0
 40
1.8
  1
Fecha de emisión
  7
ISO3098
 11
383.0
 21
43.0
 31
0.0
100
AcDbText
 73
3
  0
TEXT
  5
B0
330
17
100
AcDbEntity
  8
11-TEXTO-ROTULO
100
AcDbText
 10
396.0
 20
37.6
 30
0.0
 40
2.5
  1
28/09/2026
  7
ISO3098
 72
1
 11
396.0
 21
37.6
 31
0.0
100
AcDbText
 73
2
  0
LWPOLYLINE
  5
B1
330
17
100
AcDbEntity
  8
10-ROTULO
100
AcDbPolyline
 90
4
 70
1
 10
358.0
 20
44.0
 10
410.0
 20
44.0
 10
410.0
 20
55.0
 10
358.0
 20
55.0
  0
TEXT
  5
B2
330
17
100
AcDbEntity
  8
11-TEXTO-ROTULO
100
AcDbText
 10
359.0
 20
54.0
 30
0.0
 40
1.8
  1
Material
  7
ISO3098
 11
359.0
 21
54.0
 31
0.0
100
AcDbText
 73
3
  0
TEXT
  5
B3
330
17
100
AcDbEntity
  8
11-TEXTO-ROTULO
100
AcDbText
 10
384.0
 20
48.1
 30
0.0
 40
2.5
  1
Ver lista de piezas
  7
ISO3098
 72
1
 11
384.0
 21
48.1
 31
0.0
100
AcDbText
 73
2
  0
LWPOLYLINE
  5
B4
330
17
100
AcDbEntity
  8
10-ROTULO
100
AcDbPolyline
 90
4
 70
1
 10
358.0
 20
55.0
 10
410.0
 20
55.0
 10
410.0
 20
66.0
 10
358.0
 20
66.0
  0
TEXT
  5
B5
330
17
100
AcDbEntity
  8
11-TEXTO-ROTULO
100
AcDbText
 10
359.0
 20
65.0
 30
0.0
 40
1.8
  1
Reemplaza a / Reemplazado por
  7
ISO3098
 11
359.0
 21
65.0
 31
0.0
100
AcDbText
 73
3
  0
TEXT
  5
B6
330
17
100
AcDbEntity
  8
11-TEXTO-ROTULO
100
AcDbText
 10
384.0
 20
59.1
 30
0.0
 40
2.5
  1
-
  7
ISO3098
 72
1
 11
384.0
 21
59.1
 31
0.0
100
AcDbText
 73
2
  0
LWPOLYLINE
  5
B7
330
17
100
AcDbEntity
  8
07-RECUADRO
100
AcDbPolyline
 90
4
 70
1
 10
230.0
 20
10.0
 10
410.0
 20
10.0
 10
410.0
 20
66.0
 10
230.0
 20
66.0
  0
TEXT
  5
B8
330
17
100
AcDbEntity
  8
06-TEXTO
100
AcDbText
 10
28.0
 20
275.0
 30
0.0
 40
5.0
  1
EXTINTOR HCFC/HFC 5 KG - ESPECIFICACIONES
  7
ISO3098
 11
28.0
 21
275.0
 31
0.0
100
AcDbText
 73
1
  0
LWPOLYLINE
  5
B9
330
17
100
AcDbEntity
  8
10-ROTULO
100
AcDbPolyline
 90
4
 70
1
 10
28.0
 20
259.0
 10
123.0
 20
259.0
 10
123.0
 20
265.0
 10
28.0
 20
265.0
  0
LWPOLYLINE
  5
BA
330
17
100
AcDbEntity
  8
10-ROTULO
100
AcDbPolyline
 90
4
 70
1
 10
123.0
 20
259.0
 10
203.0
 20
259.0
 10
203.0
 20
265.0
 10
123.0
 20
265.0
  0
TEXT
  5
BB
330
17
100
AcDbEntity
  8
06-TEXTO
100
AcDbText
 10
29.5
 20
262.0
 30
0.0
 40
2.5
  1
Capacidad nominal
  7
ISO3098
 11
29.5
 21
262.0
 31
0.0
100
AcDbText
 73
2
  0
TEXT
  5
BC
330
17
100
AcDbEntity
  8
06-TEXTO
100
AcDbText
 10
163.0
 20
262.0
 30
0.0
 40
2.5
  1
5 kg
  7
ISO3098
 72
1
 11
163.0
 21
262.0
 31
0.0
100
AcDbText
 73
2
  0
LWPOLYLINE
  5
BD
330
17
100
AcDbEntity
  8
10-ROTULO
100
AcDbPolyline
 90
4
 70
1
 10
28.0
 20
253.0
 10
123.0
 20
253.0
 10
123.0
 20
259.0
 10
28.0
 20
259.0
  0
LWPOLYLINE
  5
BE
330
17
100
AcDbEntity
  8
10-ROTULO
100
AcDbPolyline
 90
4
 70
1
 10
123.0
 20
253.0
 10
203.0
 20
253.0
 10
203.0
 20
259.0
 10
123.0
 20
259.0
  0
TEXT
  5
BF
330
17
100
AcDbEntity
  8
06-TEXTO
100
AcDbText
 10
29.5
 20
256.0
 30
0.0
 40
2.5
  1
Peso cargado (kg)
  7
ISO3098
 11
29.5
 21
256.0
 31
0.0
100
AcDbText
 73
2
  0
TEXT
  5
C0
330
17
100
AcDbEntity
  8
06-TEXTO
100
AcDbText
 10
163.0
 20
256.0
 30
0.0
 40
2.5
  1
8,50
  7
ISO3098
 72
1
 11
163.0
 21
256.0
 31
0.0
100
AcDbText
 73
2
  0
LWPOLYLINE
  5
C1
330
17
100
AcDbEntity
  8
10-ROTULO
100
AcDbPolyline
 90
4
 70
1
 10
28.0
 20
247.0
 10
123.0
 20
247.0
 10
123.0
 20
253.0
 10
28.0
 20
253.0
  0
LWPOLYLINE
  5
C2
330
17
100
AcDbEntity
  8
10-ROTULO
100
AcDbPolyline
 90
4
 70
1
 10
123.0
 20
247.0
 10
203.0
 20
247.0
 10
203.0
 20
253.0
 10
123.0
 20
253.0
  0
TEXT
  5
C3
330
17
100
AcDbEntity
  8
06-TEXTO
100
AcDbText
 10
29.5
 20
250.0
 30
0.0
 40
2.5
  1
Altura (mm)
  7
ISO3098
 11
29.5
 21
250.0
 31
0.0
100
AcDbText
 73
2
  0
TEXT
  5
C4
330
17
100
AcDbEntity
  8
06-TEXTO
100
AcDbText
 10
163.0
 20
250.0
 30
0.0
 40
2.5
  1
480
  7
ISO3098
 72
1
 11
163.0
 21
250.0
 31
0.0
100
AcDbText
 73
2
  0
LWPOLYLINE
  5
C5
330
17
100
AcDbEntity
  8
10-ROTULO
100
AcDbPolyline
 90
4
 70
1
 10
28.0
 20
241.0
 10
123.0
 20
241.0
 10
123.0
 20
247.0
 10
28.0
 20
247.0
  0
LWPOLYLINE
  5
C6
330
17
100
AcDbEntity
  8
10-ROTULO
100
AcDbPolyline
 90
4
 70
1
 10
123.0
 20
241.0
 10
203.0
 20
241.0
 10
203.0
 20
247.0
 10
123.0
 20
247.0
  0
TEXT
  5
C7
330
17
100
AcDbEntity
  8
06-TEXTO
100
AcDbText
 10
29.5
 20
244.0
 30
0.0
 40
2.5
  1
Ancho (mm)
  7
ISO3098
 11
29.5
 21
244.0
 31
0.0
100
AcDbText
 73
2
  0
TEXT
  5
C8
330
17
100
AcDbEntity
  8
06-TEXTO
100
AcDbText
 10
163.0
 20
244.0
 30
0.0
 40
2.5
  1
225
  7
ISO3098
 72
1
 11
163.0
 21
244.0
 31
0.0
100
AcDbText
 73
2
  0
LWPOLYLINE
  5
C9
330
17
100
AcDbEntity
  8
10-ROTULO
100
AcDbPolyline
 90
4
 70
1
 10
28.0
 20
235.0
 10
123.0
 20
235.0
 10
123.0
 20
241.0
 10
28.0
 20
241.0
  0
LWPOLYLINE
  5
CA
330
17
100
AcDbEntity
  8
10-ROTULO
100
AcDbPolyline
 90
4
 70
1
 10
123.0
 20
235.0
 10
203.0
 20
235.0
 10
203.0
 20
241.0
 10
123.0
 20
241.0
  0
TEXT
  5
CB
330
17
100
AcDbEntity
  8
06-TEXTO
100
AcDbText
 10
29.5
 20
238.0
 30
0.0
 40
2.5
  1
Profundidad (mm)
  7
ISO3098
 11
29.5
 21
238.0
 31
0.0
100
AcDbText
 73
2
  0
TEXT
  5
CC
330
17
100
AcDbEntity
  8
06-TEXTO
100
AcDbText
 10
163.0
 20
238.0
 30
0.0
 40
2.5
  1
153
  7
ISO3098
 72
1
 11
163.0
 21
238.0
 31
0.0
100
AcDbText
 73
2
  0
LWPOLYLINE
  5
CD
330
17
100
AcDbEntity
  8
10-ROTULO
100
AcDbPolyline
 90
4
 70
1
 10
28.0
 20
229.0
 10
123.0
 20
229.0
 10
123.0
 20
235.0
 10
28.0
 20
235.0
  0
LWPOLYLINE
  5
CE
330
17
100
AcDbEntity
  8
10-ROTULO
100
AcDbPolyline
 90
4
 70
1
 10
123.0
 20
229.0
 10
203.0
 20
229.0
 10
203.0
 20
235.0
 10
123.0
 20
235.0
  0
TEXT
  5
CF
330
17
100
AcDbEntity
  8
06-TEXTO
100
AcDbText
 10
29.5
 20
232.0
 30
0.0
 40
2.5
  1
Tiempo de descarga (s)
  7
ISO3098
 11
29.5
 21
232.0
 31
0.0
100
AcDbText
 73
2
  0
TEXT
  5
D0
330
17
100
AcDbEntity
  8
06-TEXTO
100
AcDbText
 10
163.0
 20
232.0
 30
0.0
 40
2.5
  1
10
  7
ISO3098
 72
1
 11
163.0
 21
232.0
 31
0.0
100
AcDbText
 73
2
  0
LWPOLYLINE
  5
D1
330
17
100
AcDbEntity
  8
10-ROTULO
100
AcDbPolyline
 90
4
 70
1
 10
28.0
 20
223.0
 10
123.0
 20
223.0
 10
123.0
 20
229.0
 10
28.0
 20
229.0
  0
LWPOLYLINE
  5
D2
330
17
100
AcDbEntity
  8
10-ROTULO
100
AcDbPolyline
 90
4
 70
1
 10
123.0
 20
223.0
 10
203.0
 20
223.0
 10
203.0
 20
229.0
 10
123.0
 20
229.0
  0
TEXT
  5
D3
330
17
100
AcDbEntity
  8
06-TEXTO
100
AcDbText
 10
29.5
 20
226.0
 30
0.0
 40
2.5
  1
Alcance (m)
  7
ISO3098
 11
29.5
 21
226.0
 31
0.0
100
AcDbText
 73
2
  0
TEXT
  5
D4
330
17
100
AcDbEntity
  8
06-TEXTO
100
AcDbText
 10
163.0
 20
226.0
 30
0.0
 40
2.5
  1
5
  7
ISO3098
 72
1
 11
163.0
 21
226.0
 31
0.0
100
AcDbText
 73
2
  0
LWPOLYLINE
  5
D5
330
17
100
AcDbEntity
  8
10-ROTULO
100
AcDbPolyline
 90
4
 70
1
 10
28.0
 20
217.0
 10
123.0
 20
217.0
 10
123.0
 20
223.0
 10
28.0
 20
223.0
  0
LWPOLYLINE
  5
D6
330
17
100
AcDbEntity
  8
10-ROTULO
100
AcDbPolyline
 90
4
 70
1
 10
123.0
 20
217.0
 10
203.0
 20
217.0
 10
203.0
 20
223.0
 10
123.0
 20
223.0
  0
TEXT
  5
D7
330
17
100
AcDbEntity
  8
06-TEXTO
100
AcDbText
 10
29.5
 20
220.0
 30
0.0
 40
2.5
  1
Rango temperatura (°C)
  7
ISO3098
 11
29.5
 21
220.0
 31
0.0
100
AcDbText
 73
2
  0
TEXT
  5
D8
330
17
100
AcDbEntity
  8
06-TEXTO
100
AcDbText
 10
163.0
 20
220.0
 30
0.0
 40
2.5
  1
-20 a 50
  7
ISO3098
 72
1
 11
163.0
 21
220.0
 31
0.0
100
AcDbText
 73
2
  0
LWPOLYLINE
  5
D9
330
17
100
AcDbEntity
  8
10-ROTULO
100
AcDbPolyline
 90
4
 70
1
 10
28.0
 20
211.0
 10
123.0
 20
211.0
 10
123.0
 20
217.0
 10
28.0
 20
217.0
  0
LWPOLYLINE
  5
DA
330
17
100
AcDbEntity
  8
10-ROTULO
100
AcDbPolyline
 90
4
 70
1
 10
123.0
 20
211.0
 10
203.0
 20
211.0
 10
203.0
 20
217.0
 10
123.0
 20
217.0
  0
TEXT
  5
DB
330
17
100
AcDbEntity
  8
06-TEXTO
100
AcDbText
 10
29.5
 20
214.0
 30
0.0
 40
2.5
  1
Presión de servicio (MPa)
  7
ISO3098
 11
29.5
 21
214.0
 31
0.0
100
AcDbText
 73
2
  0
TEXT
  5
DC
330
17
100
AcDbEntity
  8
06-TEXTO
100
AcDbText
 10
163.0
 20
214.0
 30
0.0
 40
2.5
  1
0,8
  7
ISO3098
 72
1
 11
163.0
 21
214.0
 31
0.0
100
AcDbText
 73
2
  0
LWPOLYLINE
  5
DD
330
17
100
AcDbEntity
  8
10-ROTULO
100
AcDbPolyline
 90
4
 70
1
 10
28.0
 20
205.0
 10
123.0
 20
205.0
 10
123.0
 20
211.0
 10
28.0
 20
211.0
  0
LWPOLYLINE
  5
DE
330
17
100
AcDbEntity
  8
10-ROTULO
100
AcDbPolyline
 90
4
 70
1
 10
123.0
 20
205.0
 10
203.0
 20
205.0
 10
203.0
 20
211.0
 10
123.0
 20
211.0
  0
TEXT
  5
DF
330
17
100
AcDbEntity
  8
06-TEXTO
100
AcDbText
 10
29.5
 20
208.0
 30
0.0
 40
2.5
  1
Presión de ensayo (MPa)
  7
ISO3098
 11
29.5
 21
208.0
 31
0.0
100
AcDbText
 73
2
  0
TEXT
  5
E0
330
17
100
AcDbEntity
  8
06-TEXTO
100
AcDbText
 10
163.0
 20
208.0
 30
0.0
 40
2.5
  1
2,0
  7
ISO3098
 72
1
 11
163.0
 21
208.0
 31
0.0
100
AcDbText
 73
2
  0
LWPOLYLINE
  5
E1
330
17
100
AcDbEntity
  8
10-ROTULO
100
AcDbPolyline
 90
4
 70
1
 10
28.0
 20
199.0
 10
123.0
 20
199.0
 10
123.0
 20
205.0
 10
28.0
 20
205.0
  0
LWPOLYLINE
  5
E2
330
17
100
AcDbEntity
  8
10-ROTULO
100
AcDbPolyline
 90
4
 70
1
 10
123.0
 20
199.0
 10
203.0
 20
199.0
 10
203.0
 20
205.0
 10
123.0
 20
205.0
  0
TEXT
  5
E3
330
17
100
AcDbEntity
  8
06-TEXTO
100
AcDbText
 10
29.5
 20
202.0
 30
0.0
 40
2.5
  1
Soporte vehicular
  7
ISO3098
 11
29.5
 21
202.0
 31
0.0
100
AcDbText
 73
2
  0
TEXT
  5
E4
330
17
100
AcDbEntity
  8
06-TEXTO
100
AcDbText
 10
163.0
 20
202.0
 30
0.0
 40
2.5
  1
Opcional
  7
ISO3098
 72
1
 11
163.0
 21
202.0
 31
0.0
100
AcDbText
 73
2
  0
LWPOLYLINE
  5
E5
330
17
100
AcDbEntity
  8
10-ROTULO
100
AcDbPolyline
 90
4
 70
1
 10
28.0
 20
193.0
 10
123.0
 20
193.0
 10
123.0
 20
199.0
 10
28.0
 20
199.0
  0
LWPOLYLINE
  5
E6
330
17
100
AcDbEntity
  8
10-ROTULO
100
AcDbPolyline
 90
4
 70
1
 10
123.0
 20
193.0
 10
203.0
 20
193.0
 10
203.0
 20
199.0
 10
123.0
 20
199.0
  0
TEXT
  5
E7
330
17
100
AcDbEntity
  8
06-TEXTO
100
AcDbText
 10
29.5
 20
196.0
 30
0.0
 40
2.5
  1
Soporte pared
  7
ISO3098
 11
29.5
 21
196.0
 31
0.0
100
AcDbText
 73
2
  0
TEXT
  5
E8
330
17
100
AcDbEntity
  8
06-TEXTO
100
AcDbText
 10
163.0
 20
196.0
 30
0.0
 40
2.5
  1
Si
  7
ISO3098
 72
1
 11
163.0
 21
196.0
 31
0.0
100
AcDbText
 73
2
  0
LWPOLYLINE
  5
E9
330
17
100
AcDbEntity
  8
10-ROTULO
100
AcDbPolyline
 90
4
 70
1
 10
28.0
 20
187.0
 10
123.0
 20
187.0
 10
123.0
 20
193.0
 10
28.0
 20
193.0
  0
LWPOLYLINE
  5
EA
330
17
100
AcDbEntity
  8
10-ROTULO
100
AcDbPolyline
 90
4
 70
1
 10
123.0
 20
187.0
 10
203.0
 20
187.0
 10
203.0
 20
193.0
 10
123.0
 20
193.0
  0
TEXT
  5
EB
330
17
100
AcDbEntity
  8
06-TEXTO
100
AcDbText
 10
29.5
 20
190.0
 30
0.0
 40
2.5
  1
Norma IRAM agente extintor
  7
ISO3098
 11
29.5
 21
190.0
 31
0.0
100
AcDbText
 73
2
  0
TEXT
  5
EC
330
17
100
AcDbEntity
  8
06-TEXTO
100
AcDbText
 10
163.0
 20
190.0
 30
0.0
 40
2.0
  1
3526-1 (HCFC) / 3526-5 (HFC 236fa)
  7
ISO3098
 72
1
 11
163.0
 21
190.0
 31
0.0
100
AcDbText
 73
2
  0
LWPOLYLINE
  5
ED
330
17
100
AcDbEntity
  8
10-ROTULO
100
AcDbPolyline
 90
4
 70
1
 10
28.0
 20
181.0
 10
123.0
 20
181.0
 10
123.0
 20
187.0
 10
28.0
 20
187.0
  0
LWPOLYLINE
  5
EE
330
17
100
AcDbEntity
  8
10-ROTULO
100
AcDbPolyline
 90
4
 70
1
 10
123.0
 20
181.0
 10
203.0
 20
181.0
 10
203.0
 20
187.0
 10
123.0
 20
187.0
  0
TEXT
  5
EF
330
17
100
AcDbEntity
  8
06-TEXTO
100
AcDbText
 10
29.5
 20
184.0
 30
0.0
 40
2.5
  1
Norma IRAM extintor
  7
ISO3098
 11
29.5
 21
184.0
 31
0.0
100
AcDbText
 73
2
  0
TEXT
  5
F0
330
17
100
AcDbEntity
  8
06-TEXTO
100
AcDbText
 10
163.0
 20
184.0
 30
0.0
 40
2.5
  1
3504
  7
ISO3098
 72
1
 11
163.0
 21
184.0
 31
0.0
100
AcDbText
 73
2
  0
LWPOLYLINE
  5
F1
330
17
100
AcDbEntity
  8
10-ROTULO
100
AcDbPolyline
 90
4
 70
1
 10
28.0
 20
175.0
 10
123.0
 20
175.0
 10
123.0
 20
181.0
 10
28.0
 20
181.0
  0
LWPOLYLINE
  5
F2
330
17
100
AcDbEntity
  8
10-ROTULO
100
AcDbPolyline
 90
4
 70
1
 10
123.0
 20
175.0
 10
203.0
 20
175.0
 10
203.0
 20
181.0
 10
123.0
 20
181.0
  0
TEXT
  5
F3
330
17
100
AcDbEntity
  8
06-TEXTO
100
AcDbText
 10
29.5
 20
178.0
 30
0.0
 40
2.5
  1
Volumen interior del recipiente (dm³)
  7
ISO3098
 11
29.5
 21
178.0
 31
0.0
100
AcDbText
 73
2
  0
TEXT
  5
F4
330
17
100
AcDbEntity
  8
06-TEXTO
100
AcDbText
 10
163.0
 20
178.0
 30
0.0
 40
2.5
  1
6
  7
ISO3098
 72
1
 11
163.0
 21
178.0
 31
0.0
100
AcDbText
 73
2
  0
LWPOLYLINE
  5
F5
330
17
100
AcDbEntity
  8
10-ROTULO
100
AcDbPolyline
 90
4
 70
1
 10
28.0
 20
169.0
 10
123.0
 20
169.0
 10
123.0
 20
175.0
 10
28.0
 20
175.0
  0
LWPOLYLINE
  5
F6
330
17
100
AcDbEntity
  8
10-ROTULO
100
AcDbPolyline
 90
4
 70
1
 10
123.0
 20
169.0
 10
203.0
 20
169.0
 10
203.0
 20
175.0
 10
123.0
 20
175.0
  0
TEXT
  5
F7
330
17
100
AcDbEntity
  8
06-TEXTO
100
AcDbText
 10
29.5
 20
172.0
 30
0.0
 40
2.5
  1
Diámetro exterior del recipiente (mm)
  7
ISO3098
 11
29.5
 21
172.0
 31
0.0
100
AcDbText
 73
2
  0
TEXT
  5
F8
330
17
100
AcDbEntity
  8
06-TEXTO
100
AcDbText
 10
163.0
 20
172.0
 30
0.0
 40
2.5
  1
153
  7
ISO3098
 72
1
 11
163.0
 21
172.0
 31
0.0
100
AcDbText
 73
2
  0
LWPOLYLINE
  5
F9
330
17
100
AcDbEntity
  8
10-ROTULO
100
AcDbPolyline
 90
4
 70
1
 10
28.0
 20
163.0
 10
123.0
 20
163.0
 10
123.0
 20
169.0
 10
28.0
 20
169.0
  0
LWPOLYLINE
  5
FA
330
17
100
AcDbEntity
  8
10-ROTULO
100
AcDbPolyline
 90
4
 70
1
 10
123.0
 20
163.0
 10
203.0
 20
163.0
 10
203.0
 20
169.0
 10
123.0
 20
169.0
  0
TEXT
  5
FB
330
17
100
AcDbEntity
  8
06-TEXTO
100
AcDbText
 10
29.5
 20
166.0
 30
0.0
 40
2.5
  1
Rosca de cuello
  7
ISO3098
 11
29.5
 21
166.0
 31
0.0
100
AcDbText
 73
2
  0
TEXT
  5
FC
330
17
100
AcDbEntity
  8
06-TEXTO
100
AcDbText
 10
163.0
 20
166.0
 30
0.0
 40
2.5
  1
M30x1,5
  7
ISO3098
 72
1
 11
163.0
 21
166.0
 31
0.0
100
AcDbText
 73
2
  0
TEXT
  5
FD
330
17
100
AcDbEntity
  8
06-TEXTO
100
AcDbText
 10
28.0
 20
155.0
 30
0.0
 40
2.5
  1
Fuente de especificaciones: catálogo técnico de referencia, págs. 13 y 14.
  7
ISO3098
 11
28.0
 21
155.0
 31
0.0
100
AcDbText
 73
1
  0
TEXT
  5
FE
330
17
100
AcDbEntity
  8
06-TEXTO
100
AcDbText
 10
28.0
 20
149.0
 30
0.0
 40
2.5
  1
Geometría del recipiente: Plano recipiente 5 kg R2.
  7
ISO3098
 11
28.0
 21
149.0
 31
0.0
100
AcDbText
 73
1
  0
TEXT
  5
FF
330
17
100
AcDbEntity
  8
06-TEXTO
100
AcDbText
 10
215.0
 20
275.0
 30
0.0
 40
3.5
  1
NORMAS DE PRODUCTO (según tabla de especificaciones)
  7
ISO3098
 11
215.0
 21
275.0
 31
0.0
100
AcDbText
 73
1
  0
TEXT
  5
100
330
17
100
AcDbEntity
  8
06-TEXTO
100
AcDbText
 10
217.0
 20
268.0
 30
0.0
 40
2.5
  1
Norma IRAM agente extintor: IRAM 3526-1 (HCFC) / 3526-5 (HFC 236fa)
  7
ISO3098
 11
217.0
 21
268.0
 31
0.0
100
AcDbText
 73
1
  0
TEXT
  5
101
330
17
100
AcDbEntity
  8
06-TEXTO
100
AcDbText
 10
217.0
 20
263.0
 30
0.0
 40
2.5
  1
Norma IRAM extintor: IRAM 3504
  7
ISO3098
 11
217.0
 21
263.0
 31
0.0
100
AcDbText
 73
1
  0
TEXT
  5
102
330
17
100
AcDbEntity
  8
06-TEXTO
100
AcDbText
 10
215.0
 20
254.0
 30
0.0
 40
3.5
  1
NORMAS DE DIBUJO TÉCNICO APLICADAS
  7
ISO3098
 11
215.0
 21
254.0
 31
0.0
100
AcDbText
 73
1
  0
TEXT
  5
103
330
17
100
AcDbEntity
  8
06-TEXTO
100
AcDbText
 10
217.0
 20
247.0
 30
0.0
 40
2.5
  1
IRAM 4501 (ISO 5456-2) - Dibujo técnico - Vistas
  7
ISO3098
 11
217.0
 21
247.0
 31
0.0
100
AcDbText
 73
1
  0
TEXT
  5
104
330
17
100
AcDbEntity
  8
06-TEXTO
100
AcDbText
 10
221.0
 20
242.8
 30
0.0
 40
2.0
  1
Método de proyección ISO E (primer diedro): vista superior debajo de la anterior,
  7
ISO3098
 11
221.0
 21
242.8
 31
0.0
100
AcDbText
 73
1
  0
TEXT
  5
105
330
17
100
AcDbEntity
  8
06-TEXTO
100
AcDbText
 10
221.0
 20
239.4
 30
0.0
 40
2.0
  1
lateral izquierda a la derecha de la anterior; símbolo del método en el rótulo.
  7
ISO3098
 11
221.0
 21
239.4
 31
0.0
100
AcDbText
 73
1
  0
TEXT
  5
106
330
17
100
AcDbEntity
  8
06-TEXTO
100
AcDbText
 10
217.0
 20
234.8
 30
0.0
 40
2.5
  1
IRAM 4502 (ISO 128-20 / ISO 128-24) - Dibujo técnico - Líneas
  7
ISO3098
 11
217.0
 21
234.8
 31
0.0
100
AcDbText
 73
1
  0
TEXT
  5
107
330
17
100
AcDbEntity
  8
06-TEXTO
100
AcDbText
 10
221.0
 20
230.60000000000002
 30
0.0
 40
2.0
  1
Grupo de líneas 0,5: continua gruesa 0,5 mm (aristas visibles), continua fina 0,25 mm
  7
ISO3098
 11
221.0
 21
230.60000000000002
 31
0.0
100
AcDbText
 73
1
  0
TEXT
  5
108
330
17
100
AcDbEntity
  8
06-TEXTO
100
AcDbText
 10
221.0
 20
227.20000000000002
 30
0.0
 40
2.0
  1
(cotas, rayados, fondo de rosca, referencias), trazos finos 0,25 mm (aristas ocultas),
  7
ISO3098
 11
221.0
 21
227.20000000000002
 31
0.0
100
AcDbText
 73
1
  0
TEXT
  5
109
330
17
100
AcDbEntity
  8
06-TEXTO
100
AcDbText
 10
221.0
 20
223.8
 30
0.0
 40
2.0
  1
trazo largo y punto fino 0,25 mm (ejes), trazo y punto grueso en extremos del plano de
  7
ISO3098
 11
221.0
 21
223.8
 31
0.0
100
AcDbText
 73
1
  0
TEXT
  5
10A
330
17
100
AcDbEntity
  8
06-TEXTO
100
AcDbText
 10
221.0
 20
220.4
 30
0.0
 40
2.0
  1
corte.
  7
ISO3098
 11
221.0
 21
220.4
 31
0.0
100
AcDbText
 73
1
  0
TEXT
  5
10B
330
17
100
AcDbEntity
  8
06-TEXTO
100
AcDbText
 10
217.0
 20
215.8
 30
0.0
 40
2.5
  1
IRAM 4503 (ISO 3098-1/-2) - Dibujo técnico - Letras y números
  7
ISO3098
 11
217.0
 21
215.8
 31
0.0
100
AcDbText
 73
1
  0
TEXT
  5
10C
330
17
100
AcDbEntity
  8
06-TEXTO
100
AcDbText
 10
221.0
 20
211.60000000000002
 30
0.0
 40
2.0
  1
Escritura tipo B vertical; alturas nominales 2,5 - 3,5 - 5 - 7 - 10 mm.
  7
ISO3098
 11
221.0
 21
211.60000000000002
 31
0.0
100
AcDbText
 73
1
  0
TEXT
  5
10D
330
17
100
AcDbEntity
  8
06-TEXTO
100
AcDbText
 10
217.0
 20
207.00000000000003
 30
0.0
 40
2.5
  1
IRAM 4504 (ISO 5457) - Dibujo técnico - Formatos, elementos gráficos y plegado de láminas
  7
ISO3098
 11
217.0
 21
207.00000000000003
 31
0.0
100
AcDbText
 73
1
  0
TEXT
  5
10E
330
17
100
AcDbEntity
  8
06-TEXTO
100
AcDbText
 10
221.0
 20
202.80000000000004
 30
0.0
 40
2.0
  1
Formatos serie A, recuadro 0,7 mm, marcas de centrado y sistema de coordenadas de zonas.
  7
ISO3098
 11
221.0
 21
202.80000000000004
 31
0.0
100
AcDbText
 73
1
  0
TEXT
  5
10F
330
17
100
AcDbEntity
  8
06-TEXTO
100
AcDbText
 10
217.0
 20
198.20000000000005
 30
0.0
 40
2.5
  1
IRAM 4505 (ISO 5455) - Dibujo técnico - Escalas
  7
ISO3098
 11
217.0
 21
198.20000000000005
 31
0.0
100
AcDbText
 73
1
  0
TEXT
  5
110
330
17
100
AcDbEntity
  8
06-TEXTO
100
AcDbText
 10
221.0
 20
194.00000000000006
 30
0.0
 40
2.0
  1
Sólo escalas normalizadas: 1:1, 1:2, 1:5, 1:10, 1:20 y ampliaciones 2:1, 5:1.
  7
ISO3098
 11
221.0
 21
194.00000000000006
 31
0.0
100
AcDbText
 73
1
  0
TEXT
  5
111
330
17
100
AcDbEntity
  8
06-TEXTO
100
AcDbText
 10
217.0
 20
189.40000000000006
 30
0.0
 40
2.5
  1
IRAM 4507 (ISO 128-40 / 128-44 / 128-50) - Dibujo técnico - Cortes y secciones
  7
ISO3098
 11
217.0
 21
189.40000000000006
 31
0.0
100
AcDbText
 73
1
  0
TEXT
  5
112
330
17
100
AcDbEntity
  8
06-TEXTO
100
AcDbText
 10
221.0
 20
185.20000000000007
 30
0.0
 40
2.0
  1
Plano de corte con letras y flechas; rayado a 45° con línea fina; secciones estrechas
  7
ISO3098
 11
221.0
 21
185.20000000000007
 31
0.0
100
AcDbText
 73
1
  0
TEXT
  5
113
330
17
100
AcDbEntity
  8
06-TEXTO
100
AcDbText
 10
221.0
 20
181.80000000000007
 30
0.0
 40
2.0
  1
ennegrecidas.
  7
ISO3098
 11
221.0
 21
181.80000000000007
 31
0.0
100
AcDbText
 73
1
  0
TEXT
  5
114
330
17
100
AcDbEntity
  8
06-TEXTO
100
AcDbText
 10
217.0
 20
177.20000000000007
 30
0.0
 40
2.5
  1
IRAM 4508 (ISO 7200 / ISO 7573) - Dibujo técnico - Rótulo, lista de materiales y despiece
  7
ISO3098
 11
217.0
 21
177.20000000000007
 31
0.0
100
AcDbText
 73
1
  0
TEXT
  5
115
330
17
100
AcDbEntity
  8
06-TEXTO
100
AcDbText
 10
221.0
 20
173.00000000000009
 30
0.0
 40
2.0
  1
Rótulo en el ángulo inferior derecho; lista de piezas sobre el rótulo, leída de abajo
  7
ISO3098
 11
221.0
 21
173.00000000000009
 31
0.0
100
AcDbText
 73
1
  0
TEXT
  5
116
330
17
100
AcDbEntity
  8
06-TEXTO
100
AcDbText
 10
221.0
 20
169.60000000000008
 30
0.0
 40
2.0
  1
hacia arriba; números de posición (ISO 6433).
  7
ISO3098
 11
221.0
 21
169.60000000000008
 31
0.0
100
AcDbText
 73
1
  0
TEXT
  5
117
330
17
100
AcDbEntity
  8
06-TEXTO
100
AcDbText
 10
217.0
 20
165.00000000000009
 30
0.0
 40
2.5
  1
IRAM 4513 (ISO 129-1) - Dibujo técnico - Acotación
  7
ISO3098
 11
217.0
 21
165.00000000000009
 31
0.0
100
AcDbText
 73
1
  0
TEXT
  5
118
330
17
100
AcDbEntity
  8
06-TEXTO
100
AcDbText
 10
221.0
 20
160.8000000000001
 30
0.0
 40
2.0
  1
Cotas en mm sin unidad, cifra sobre la línea de cota, flechas cerradas llenas, separador
  7
ISO3098
 11
221.0
 21
160.8000000000001
 31
0.0
100
AcDbText
 73
1
  0
TEXT
  5
119
330
17
100
AcDbEntity
  8
06-TEXTO
100
AcDbText
 10
221.0
 20
157.4000000000001
 30
0.0
 40
2.0
  1
decimal coma; prefijo Ø en diámetros.
  7
ISO3098
 11
221.0
 21
157.4000000000001
 31
0.0
100
AcDbText
 73
1
  0
TEXT
  5
11A
330
17
100
AcDbEntity
  8
06-TEXTO
100
AcDbText
 10
217.0
 20
152.8000000000001
 30
0.0
 40
2.5
  1
IRAM 4520 (ISO 6410-1) - Dibujo técnico - Representación de roscas
  7
ISO3098
 11
217.0
 21
152.8000000000001
 31
0.0
100
AcDbText
 73
1
  0
TEXT
  5
11B
330
17
100
AcDbEntity
  8
06-TEXTO
100
AcDbText
 10
221.0
 20
148.6000000000001
 30
0.0
 40
2.0
  1
Cresta con línea gruesa, fondo con línea fina; rayado hasta la cresta.
  7
ISO3098
 11
221.0
 21
148.6000000000001
 31
0.0
100
AcDbText
 73
1
  0
TEXT
  5
11C
330
17
100
AcDbEntity
  8
06-TEXTO
100
AcDbText
 10
217.0
 20
144.0000000000001
 30
0.0
 40
2.5
  1
IRAM 4540 (ISO 5456-3) - Dibujo técnico - Representación de perspectivas
  7
ISO3098
 11
217.0
 21
144.0000000000001
 31
0.0
100
AcDbText
 73
1
  0
TEXT
  5
11D
330
17
100
AcDbEntity
  8
06-TEXTO
100
AcDbText
 10
221.0
 20
139.80000000000013
 30
0.0
 40
2.0
  1
Proyección axonométrica isométrica, sin aristas ocultas.
  7
ISO3098
 11
221.0
 21
139.80000000000013
 31
0.0
100
AcDbText
 73
1
  0
TEXT
  5
11E
330
17
100
AcDbEntity
  8
06-TEXTO
100
AcDbText
 10
217.0
 20
135.20000000000013
 30
0.0
 40
2.0
  1
ISO 2553 - Representación simbólica de soldaduras: Símbolo de filete, contorno en todo el perímetro; proceso 131 (MIG, ISO 4063).
  7
ISO3098
 11
217.0
 21
135.20000000000013
 31
0.0
100
AcDbText
 73
1
  0
TEXT
  5
11F
330
17
100
AcDbEntity
  8
06-TEXTO
100
AcDbText
 10
217.0
 20
130.20000000000013
 30
0.0
 40
2.5
  1
ISO 2768-1 - Tolerancias generales: clase m (media) salvo indicación
  7
ISO3098
 11
217.0
 21
130.20000000000013
 31
0.0
100
AcDbText
 73
1
  0
TEXT
  5
120
330
17
100
AcDbEntity
  8
06-TEXTO
100
AcDbText
 10
217.0
 20
123.20000000000013
 30
0.0
 40
2.0
  1
Las normas se citan por número y título; el texto normativo completo debe consultarse en la
  7
ISO3098
 11
217.0
 21
123.20000000000013
 31
0.0
100
AcDbText
 73
1
  0
TEXT
  5
121
330
17
100
AcDbEntity
  8
06-TEXTO
100
AcDbText
 10
217.0
 20
119.80000000000013
 30
0.0
 40
2.0
  1
edición vigente publicada por IRAM / ISO.
  7
ISO3098
 11
217.0
 21
119.80000000000013
 31
0.0
100
AcDbText
 73
1
  0
VIEWPORT
  5
126
330
122
100
AcDbEntity
 67
1
  8
VIEWPORTS
100
AcDbViewport
 10
322560.0
 20
228096.0
 30
0.0
 40
709632.0
 41
501811.2
 68
1
 69
1
 12
322560.0
 22
228096.0
 13
0.0
 23
0.0
 14
10.0
 24
10.0
 15
10.0
 25
10.0
 16
0.0
 26
0.0
 36
1.0
 17
0.0
 27
0.0
 37
0.0
 42
50.0
 43
0.0
 44
0.0
 45
501811.2
 50
0.0
 51
0.0
 72
100
 90
557088
  1

281
0
 71
0
 74
0
110
0.0
120
0.0
130
0.0
111
1.0
121
0.0
131
0.0
112
0.0
122
1.0
132
0.0
 79
0
146
0.0
282
0
  0
VIEWPORT
  5
127
330
122
100
AcDbEntity
 67
1
  8
VIEWPORTS
100
AcDbViewport
 10
210.0
 20
148.5
 30
0.0
 40
420.0
 41
297.0
 68
2
 69
3
 12
210.0
 22
148.5
 13
0.0
 23
0.0
 14
10.0
 24
10.0
 15
10.0
 25
10.0
 16
0.0
 26
0.0
 36
1.0
 17
0.0
 27
0.0
 37
0.0
 42
50.0
 43
0.0
 44
0.0
 45
297.0
 50
0.0
 51
0.0
 72
100
 90
0
  1

281
0
 71
0
 74
0
110
0.0
120
0.0
130
0.0
111
1.0
121
0.0
131
0.0
112
0.0
122
1.0
132
0.0
 79
0
146
0.0
282
0
  0
ENDSEC
  0
SECTION
  2
OBJECTS
  0
DICTIONARY
  5
A
330
0
100
AcDbDictionary
281
1
  3
ACAD_COLOR
350
B
  3
ACAD_GROUP
350
C
  3
ACAD_LAYOUT
350
D
  3
ACAD_MATERIAL
350
E
  3
ACAD_MLEADERSTYLE
350
F
  3
ACAD_MLINESTYLE
350
10
  3
ACAD_PLOTSETTINGS
350
11
  3
ACAD_PLOTSTYLENAME
350
12
  3
ACAD_SCALELIST
350
14
  3
ACAD_TABLESTYLE
350
15
  3
ACAD_VISUALSTYLE
350
16
  3
EZDXF_META
350
2D
  0
DICTIONARY
  5
B
330
A
100
AcDbDictionary
281
1
  0
DICTIONARY
  5
C
330
A
100
AcDbDictionary
281
1
  0
DICTIONARY
  5
D
330
A
100
AcDbDictionary
281
1
  3
Model
350
1A
  3
Lamina_A3
350
125
  0
DICTIONARY
  5
E
330
A
100
AcDbDictionary
281
1
  3
ByBlock
350
1F
  3
ByLayer
350
20
  3
Global
350
21
  0
DICTIONARY
  5
F
330
A
100
AcDbDictionary
281
1
  3
Standard
350
2C
  0
DICTIONARY
  5
10
330
A
100
AcDbDictionary
281
1
  3
Standard
350
22
  0
DICTIONARY
  5
11
330
A
100
AcDbDictionary
281
1
  0
ACDBDICTIONARYWDFLT
  5
12
330
A
100
AcDbDictionary
281
1
  3
Normal
350
13
100
AcDbDictionaryWithDefault
340
13
  0
ACDBPLACEHOLDER
  5
13
330
12
  0
DICTIONARY
  5
14
330
A
100
AcDbDictionary
281
1
  0
DICTIONARY
  5
15
330
A
100
AcDbDictionary
281
1
  0
DICTIONARY
  5
16
330
A
100
AcDbDictionary
281
1
  0
LAYOUT
  5
1A
330
D
100
AcDbPlotSettings
  1

  4
A3
  6

 40
7.5
 41
20.0
 42
7.5
 43
20.0
 44
420.0
 45
297.0
 46
0.0
 47
0.0
 48
0.0
 49
0.0
140
0.0
141
0.0
142
1.0
143
1.0
 70
1024
 72
1
 73
0
 74
5
  7

 75
16
 76
0
 77
2
 78
300
147
1.0
148
0.0
149
0.0
100
AcDbLayout
  1
Model
 70
1
 71
0
 10
0.0
 20
0.0
 11
420.0
 21
297.0
 12
0.0
 22
0.0
 32
0.0
 14
1e+20
 24
1e+20
 34
1e+20
 15
-1e+20
 25
-1e+20
 35
-1e+20
146
0.0
 13
0.0
 23
0.0
 33
0.0
 16
1.0
 26
0.0
 36
0.0
 17
0.0
 27
1.0
 37
0.0
 76
1
330
17
  0
MATERIAL
  5
1F
102
{ACAD_REACTORS
330
E
102
}
330
E
100
AcDbMaterial
  1
ByBlock
  2

 70
0
 40
1.0
 71
1
 41
1.0
 91
-1023410177
 42
1.0
 72
1
  3

 73
1
 74
1
 75
1
 44
0.5
 73
0
 45
1.0
 46
1.0
 77
1
  4

 78
1
 79
1
170
1
 48
1.0
171
1
  6

172
1
173
1
174
1
140
1.0
141
1.0
175
1
  7

176
1
177
1
178
1
143
1.0
179
1
  8

270
1
271
1
272
1
145
1.0
146
1.0
273
1
  9

274
1
275
1
276
1
 42
1.0
 72
1
  3

 73
1
 74
1
 75
1
 94
63
  0
MATERIAL
  5
20
102
{ACAD_REACTORS
330
E
102
}
330
E
100
AcDbMaterial
  1
ByLayer
  2

 70
0
 40
1.0
 71
1
 41
1.0
 91
-1023410177
 42
1.0
 72
1
  3

 73
1
 74
1
 75
1
 44
0.5
 73
0
 45
1.0
 46
1.0
 77
1
  4

 78
1
 79
1
170
1
 48
1.0
171
1
  6

172
1
173
1
174
1
140
1.0
141
1.0
175
1
  7

176
1
177
1
178
1
143
1.0
179
1
  8

270
1
271
1
272
1
145
1.0
146
1.0
273
1
  9

274
1
275
1
276
1
 42
1.0
 72
1
  3

 73
1
 74
1
 75
1
 94
63
  0
MATERIAL
  5
21
102
{ACAD_REACTORS
330
E
102
}
330
E
100
AcDbMaterial
  1
Global
  2

 70
0
 40
1.0
 71
1
 41
1.0
 91
-1023410177
 42
1.0
 72
1
  3

 73
1
 74
1
 75
1
 44
0.5
 73
0
 45
1.0
 46
1.0
 77
1
  4

 78
1
 79
1
170
1
 48
1.0
171
1
  6

172
1
173
1
174
1
140
1.0
141
1.0
175
1
  7

176
1
177
1
178
1
143
1.0
179
1
  8

270
1
271
1
272
1
145
1.0
146
1.0
273
1
  9

274
1
275
1
276
1
 42
1.0
 72
1
  3

 73
1
 74
1
 75
1
 94
63
  0
MLINESTYLE
  5
22
102
{ACAD_REACTORS
330
10
102
}
330
10
100
AcDbMlineStyle
  2
Standard
 70
0
  3

 62
256
 51
90.0
 52
90.0
 71
2
 49
0.5
 62
256
  6
BYLAYER
 49
-0.5
 62
256
  6
BYLAYER
  0
MLEADERSTYLE
  5
2C
102
{ACAD_REACTORS
330
F
102
}
330
F
100
AcDbMLeaderStyle
179
2
170
2
171
1
172
0
 90
2
 40
0.0
 41
0.0
173
1
 91
-1056964608
 92
-2
290
1
 42
2.0
291
1
 43
8.0
  3
Standard
 44
4.0
300

342
29
174
1
175
1
176
0
178
1
 93
-1056964608
 45
4.0
292
0
297
0
 46
4.0
 94
-1056964608
 47
1.0
 49
1.0
140
1.0
294
1
141
0.0
177
0
142
1.0
295
0
296
0
143
3.75
271
0
272
9
273
9
  0
DICTIONARY
  5
2D
330
A
100
AcDbDictionary
280
1
281
1
  3
CREATED_BY_EZDXF
350
2E
  3
WRITTEN_BY_EZDXF
350
12A
  0
DICTIONARYVAR
  5
2E
330
2D
100
DictionaryVariables
280
0
  1
1.4.4 @ 2026-09-28T23:50:26.078193+00:00
  0
LAYOUT
  5
125
330
D
100
AcDbPlotSettings
  1

  2
DWG To PDF.pc3
  4
ISO_full_bleed_A3_(420.00_x_297.00_MM)_(420.00_x_297.00_MM)
  6

 40
0.0
 41
0.0
 42
0.0
 43
0.0
 44
420.0
 45
297.0
 46
0.0
 47
0.0
 48
0.0
 49
0.0
140
0.0
141
0.0
142
0.0078125
143
12.0
 70
672
 72
1
 73
0
 74
5
  7

 75
1
 76
0
 77
2
 78
300
147
1.0
148
0.0
149
0.0
100
AcDbLayout
  1
Lamina_A3
 70
1
 71
3
 10
-0.0
 20
-0.0
 11
420.0
 21
297.0
 12
0.0
 22
0.0
 32
0.0
 14
1e+20
 24
1e+20
 34
1e+20
 15
-1e+20
 25
-1e+20
 35
-1e+20
146
0.0
 13
0.0
 23
0.0
 33
0.0
 16
1.0
 26
0.0
 36
0.0
 17
0.0
 27
1.0
 37
0.0
 76
1
330
122
331
126
  0
DICTIONARYVAR
  5
12A
330
2D
100
DictionaryVariables
280
0
  1
1.4.4 @ 2026-09-28T23:50:30.764214+00:00
  0
ENDSEC
  0
EOF
