  0
SECTION
  2
HEADER
  9
$ACADVER
  1
AC1032
  9
$ACADMAINTVER
 90
4
  9
$DWGCODEPAGE
  3
ANSI_1252
  9
$LASTSAVEDBY
  1
ezdxf
  9
$REQUIREDVERSIONS
160
0
  9
$INSBASE
 10
0.0
 20
0.0
 30
0.0
  9
$EXTMIN
 10
1e+20
 20
1e+20
 30
1e+20
  9
$EXTMAX
 10
-1e+20
 20
-1e+20
 30
-1e+20
  9
$LIMMIN
 10
0.0
 20
0.0
  9
$LIMMAX
 10
420.0
 20
297.0
  9
$ORTHOMODE
 70
0
  9
$REGENMODE
 70
1
  9
$FILLMODE
 70
1
  9
$QTEXTMODE
 70
0
  9
$MIRRTEXT
 70
1
  9
$LTSCALE
 40
1.0
  9
$ATTMODE
 70
1
  9
$TEXTSIZE
 40
2.5
  9
$TRACEWID
 40
1.0
  9
$TEXTSTYLE
  7
Standard
  9
$CLAYER
  8
0
  9
$CELTYPE
  6
ByLayer
  9
$CECOLOR
 62
256
  9
$CELTSCALE
 40
1.0
  9
$DISPSILH
 70
0
  9
$DIMSCALE
 40
1.0
  9
$DIMASZ
 40
2.5
  9
$DIMEXO
 40
0.625
  9
$DIMDLI
 40
3.75
  9
$DIMRND
 40
0.0
  9
$DIMDLE
 40
0.0
  9
$DIMEXE
 40
1.25
  9
$DIMTP
 40
0.0
  9
$DIMTM
 40
0.0
  9
$DIMTXT
 40
2.5
  9
$DIMCEN
 40
2.5
  9
$DIMTSZ
 40
0.0
  9
$DIMTOL
 70
0
  9
$DIMLIM
 70
0
  9
$DIMTIH
 70
0
  9
$DIMTOH
 70
0
  9
$DIMSE1
 70
0
  9
$DIMSE2
 70
0
  9
$DIMTAD
 70
1
  9
$DIMZIN
 70
8
  9
$DIMBLK
  1

  9
$DIMASO
 70
1
  9
$DIMSHO
 70
1
  9
$DIMPOST
  1

  9
$DIMAPOST
  1

  9
$DIMALT
 70
0
  9
$DIMALTD
 70
3
  9
$DIMALTF
 40
0.03937007874
  9
$DIMLFAC
 40
1.0
  9
$DIMTOFL
 70
1
  9
$DIMTVP
 40
0.0
  9
$DIMTIX
 70
0
  9
$DIMSOXD
 70
0
  9
$DIMSAH
 70
0
  9
$DIMBLK1
  1

  9
$DIMBLK2
  1

  9
$DIMSTYLE
  2
ISO-25
  9
$DIMCLRD
 70
0
  9
$DIMCLRE
 70
0
  9
$DIMCLRT
 70
0
  9
$DIMTFAC
 40
1.0
  9
$DIMGAP
 40
0.625
  9
$DIMJUST
 70
0
  9
$DIMSD1
 70
0
  9
$DIMSD2
 70
0
  9
$DIMTOLJ
 70
0
  9
$DIMTZIN
 70
8
  9
$DIMALTZ
 70
0
  9
$DIMALTTZ
 70
0
  9
$DIMUPT
 70
0
  9
$DIMDEC
 70
2
  9
$DIMTDEC
 70
2
  9
$DIMALTU
 70
2
  9
$DIMALTTD
 70
3
  9
$DIMTXSTY
  7
Standard
  9
$DIMAUNIT
 70
0
  9
$DIMADEC
 70
0
  9
$DIMALTRND
 40
0.0
  9
$DIMAZIN
 70
0
  9
$DIMDSEP
 70
44
  9
$DIMATFIT
 70
3
  9
$DIMFRAC
 70
0
  9
$DIMLDRBLK
  1

  9
$DIMLUNIT
 70
2
  9
$DIMLWD
 70
-2
  9
$DIMLWE
 70
-2
  9
$DIMTMOVE
 70
0
  9
$DIMFXL
 40
1.0
  9
$DIMFXLON
 70
0
  9
$DIMJOGANG
 40
0.785398163397
  9
$DIMTFILL
 70
0
  9
$DIMTFILLCLR
 70
0
  9
$DIMARCSYM
 70
0
  9
$DIMLTYPE
  6

  9
$DIMLTEX1
  6

  9
$DIMLTEX2
  6

  9
$DIMTXTDIRECTION
 70
0
  9
$LUNITS
 70
2
  9
$LUPREC
 70
4
  9
$SKETCHINC
 40
1.0
  9
$FILLETRAD
 40
10.0
  9
$AUNITS
 70
0
  9
$AUPREC
 70
2
  9
$MENU
  1
.
  9
$ELEVATION
 40
0.0
  9
$PELEVATION
 40
0.0
  9
$THICKNESS
 40
0.0
  9
$LIMCHECK
 70
0
  9
$CHAMFERA
 40
0.0
  9
$CHAMFERB
 40
0.0
  9
$CHAMFERC
 40
0.0
  9
$CHAMFERD
 40
0.0
  9
$SKPOLY
 70
0
  9
$TDCREATE
 40
2461313.195509259
  9
$TDUCREATE
 40
2458532.153996898
  9
$TDUPDATE
 40
2461313.195509259
  9
$TDUUPDATE
 40
2458532.1544311
  9
$TDINDWG
 40
0.0
  9
$TDUSRTIMER
 40
0.0
  9
$USRTIMER
 70
1
  9
$ANGBASE
 50
0.0
  9
$ANGDIR
 70
0
  9
$PDMODE
 70
0
  9
$PDSIZE
 40
0.0
  9
$PLINEWID
 40
0.0
  9
$SPLFRAME
 70
0
  9
$SPLINETYPE
 70
6
  9
$SPLINESEGS
 70
8
  9
$HANDSEED
  5
257
  9
$SURFTAB1
 70
6
  9
$SURFTAB2
 70
6
  9
$SURFTYPE
 70
6
  9
$SURFU
 70
6
  9
$SURFV
 70
6
  9
$UCSBASE
  2

  9
$UCSNAME
  2

  9
$UCSORG
 10
0.0
 20
0.0
 30
0.0
  9
$UCSXDIR
 10
1.0
 20
0.0
 30
0.0
  9
$UCSYDIR
 10
0.0
 20
1.0
 30
0.0
  9
$UCSORTHOREF
  2

  9
$UCSORTHOVIEW
 70
0
  9
$UCSORGTOP
 10
0.0
 20
0.0
 30
0.0
  9
$UCSORGBOTTOM
 10
0.0
 20
0.0
 30
0.0
  9
$UCSORGLEFT
 10
0.0
 20
0.0
 30
0.0
  9
$UCSORGRIGHT
 10
0.0
 20
0.0
 30
0.0
  9
$UCSORGFRONT
 10
0.0
 20
0.0
 30
0.0
  9
$UCSORGBACK
 10
0.0
 20
0.0
 30
0.0
  9
$PUCSBASE
  2

  9
$PUCSNAME
  2

  9
$PUCSORG
 10
0.0
 20
0.0
 30
0.0
  9
$PUCSXDIR
 10
1.0
 20
0.0
 30
0.0
  9
$PUCSYDIR
 10
0.0
 20
1.0
 30
0.0
  9
$PUCSORTHOREF
  2

  9
$PUCSORTHOVIEW
 70
0
  9
$PUCSORGTOP
 10
0.0
 20
0.0
 30
0.0
  9
$PUCSORGBOTTOM
 10
0.0
 20
0.0
 30
0.0
  9
$PUCSORGLEFT
 10
0.0
 20
0.0
 30
0.0
  9
$PUCSORGRIGHT
 10
0.0
 20
0.0
 30
0.0
  9
$PUCSORGFRONT
 10
0.0
 20
0.0
 30
0.0
  9
$PUCSORGBACK
 10
0.0
 20
0.0
 30
0.0
  9
$USERI1
 70
0
  9
$USERI2
 70
0
  9
$USERI3
 70
0
  9
$USERI4
 70
0
  9
$USERI5
 70
0
  9
$USERR1
 40
0.0
  9
$USERR2
 40
0.0
  9
$USERR3
 40
0.0
  9
$USERR4
 40
0.0
  9
$USERR5
 40
0.0
  9
$WORLDVIEW
 70
1
  9
$SHADEDGE
 70
3
  9
$SHADEDIF
 70
70
  9
$TILEMODE
 70
1
  9
$MAXACTVP
 70
64
  9
$PINSBASE
 10
0.0
 20
0.0
 30
0.0
  9
$PLIMCHECK
 70
0
  9
$PEXTMIN
 10
1e+20
 20
1e+20
 30
1e+20
  9
$PEXTMAX
 10
-1e+20
 20
-1e+20
 30
-1e+20
  9
$PLIMMIN
 10
-0.0
 20
-0.0
  9
$PLIMMAX
 10
420.0
 20
297.0
  9
$UNITMODE
 70
0
  9
$VISRETAIN
 70
1
  9
$PLINEGEN
 70
0
  9
$PSLTSCALE
 70
0
  9
$TREEDEPTH
 70
3020
  9
$CMLSTYLE
  2
Standard
  9
$CMLJUST
 70
0
  9
$CMLSCALE
 40
20.0
  9
$PROXYGRAPHICS
 70
1
  9
$MEASUREMENT
 70
1
  9
$CELWEIGHT
370
-1
  9
$ENDCAPS
280
0
  9
$JOINSTYLE
280
0
  9
$LWDISPLAY
290
1
  9
$INSUNITS
 70
4
  9
$HYPERLINKBASE
  1

  9
$STYLESHEET
  1

  9
$XEDIT
290
1
  9
$CEPSNTYPE
380
0
  9
$PSTYLEMODE
290
1
  9
$FINGERPRINTGUID
  2
{79B420A9-0E71-4058-AA6C-159ECADD6718}
  9
$VERSIONGUID
  2
{3AB311FF-70AA-44FC-99E1-4865358DE97D}
  9
$EXTNAMES
290
1
  9
$PSVPSCALE
 40
0.0
  9
$OLESTARTUP
290
0
  9
$SORTENTS
280
127
  9
$INDEXCTL
280
0
  9
$HIDETEXT
280
1
  9
$XCLIPFRAME
280
1
  9
$HALOGAP
280
0
  9
$OBSCOLOR
 70
257
  9
$OBSLTYPE
280
0
  9
$INTERSECTIONDISPLAY
280
0
  9
$INTERSECTIONCOLOR
 70
257
  9
$DIMASSOC
280
2
  9
$PROJECTNAME
  1

  9
$CAMERADISPLAY
290
0
  9
$LENSLENGTH
 40
50.0
  9
$CAMERAHEIGHT
 40
0.0
  9
$STEPSPERSEC
 40
24.0
  9
$STEPSIZE
 40
100.0
  9
$3DDWFPREC
 40
2.0
  9
$PSOLWIDTH
 40
0.005
  9
$PSOLHEIGHT
 40
0.08
  9
$LOFTANG1
 40
1.570796326795
  9
$LOFTANG2
 40
1.570796326795
  9
$LOFTMAG1
 40
0.0
  9
$LOFTMAG2
 40
0.0
  9
$LOFTPARAM
 70
7
  9
$LOFTNORMALS
280
1
  9
$LATITUDE
 40
37.795
  9
$LONGITUDE
 40
-122.394
  9
$NORTHDIRECTION
 40
0.0
  9
$TIMEZONE
 70
-8000
  9
$LIGHTGLYPHDISPLAY
280
1
  9
$TILEMODELIGHTSYNCH
280
1
  9
$CMATERIAL
347
20
  9
$SOLIDHIST
280
0
  9
$SHOWHIST
280
1
  9
$DWFFRAME
280
2
  9
$DGNFRAME
280
2
  9
$REALWORLDSCALE
290
1
  9
$INTERFERECOLOR
 62
256
  9
$CSHADOW
280
0
  9
$SHADOWPLANELOCATION
 40
0.0
  0
ENDSEC
  0
SECTION
  2
CLASSES
  0
CLASS
  1
ACDBDICTIONARYWDFLT
  2
AcDbDictionaryWithDefault
  3
ObjectDBX Classes
 90
0
 91
0
280
0
281
0
  0
CLASS
  1
SUN
  2
AcDbSun
  3
SCENEOE
 90
1153
 91
0
280
0
281
0
  0
CLASS
  1
VISUALSTYLE
  2
AcDbVisualStyle
  3
ObjectDBX Classes
 90
4095
 91
0
280
0
281
0
  0
CLASS
  1
MATERIAL
  2
AcDbMaterial
  3
ObjectDBX Classes
 90
1153
 91
0
280
0
281
0
  0
CLASS
  1
SCALE
  2
AcDbScale
  3
ObjectDBX Classes
 90
1153
 91
0
280
0
281
0
  0
CLASS
  1
TABLESTYLE
  2
AcDbTableStyle
  3
ObjectDBX Classes
 90
4095
 91
0
280
0
281
0
  0
CLASS
  1
MLEADERSTYLE
  2
AcDbMLeaderStyle
  3
ACDB_MLEADERSTYLE_CLASS
 90
4095
 91
0
280
0
281
0
  0
CLASS
  1
DICTIONARYVAR
  2
AcDbDictionaryVar
  3
ObjectDBX Classes
 90
0
 91
0
280
0
281
0
  0
CLASS
  1
CELLSTYLEMAP
  2
AcDbCellStyleMap
  3
ObjectDBX Classes
 90
1152
 91
0
280
0
281
0
  0
CLASS
  1
MENTALRAYRENDERSETTINGS
  2
AcDbMentalRayRenderSettings
  3
SCENEOE
 90
1024
 91
0
280
0
281
0
  0
CLASS
  1
ACDBDETAILVIEWSTYLE
  2
AcDbDetailViewStyle
  3
ObjectDBX Classes
 90
1025
 91
0
280
0
281
0
  0
CLASS
  1
ACDBSECTIONVIEWSTYLE
  2
AcDbSectionViewStyle
  3
ObjectDBX Classes
 90
1025
 91
0
280
0
281
0
  0
CLASS
  1
RASTERVARIABLES
  2
AcDbRasterVariables
  3
ISM
 90
0
 91
0
280
0
281
0
  0
CLASS
  1
LAYOUT
  2
AcDbLayout
  3
ObjectDBX Classes
 90
0
 91
0
280
0
281
0
  0
CLASS
  1
ACDBPLACEHOLDER
  2
AcDbPlaceHolder
  3
ObjectDBX Classes
 90
0
 91
0
280
0
281
0
  0
ENDSEC
  0
SECTION
  2
TABLES
  0
TABLE
  2
VPORT
  5
8
330
0
100
AcDbSymbolTable
 70
1
  0
VPORT
  5
23
330
8
100
AcDbSymbolTableRecord
100
AcDbViewportTableRecord
  2
*Active
 70
0
 10
0.0
 20
0.0
 11
1.0
 21
1.0
 12
0.0
 22
0.0
 13
0.0
 23
0.0
 14
0.5
 24
0.5
 15
0.5
 25
0.5
 16
0.0
 26
0.0
 36
1.0
 17
0.0
 27
0.0
 37
0.0
 40
1000.0
 41
1.34
 42
50.0
 43
0.0
 44
0.0
 50
0.0
 51
0.0
 71
0
 72
1000
 73
1
 74
3
 75
0
 76
0
 77
0
 78
0
281
0
 65
0
146
0.0
  0
ENDTAB
  0
TABLE
  2
LTYPE
  5
2
330
0
100
AcDbSymbolTable
 70
5
  0
LTYPE
  5
24
330
2
100
AcDbSymbolTableRecord
100
AcDbLinetypeTableRecord
  2
ByBlock
 70
0
  3

 72
65
 73
0
 40
0.0
  0
LTYPE
  5
25
330
2
100
AcDbSymbolTableRecord
100
AcDbLinetypeTableRecord
  2
ByLayer
 70
0
  3

 72
65
 73
0
 40
0.0
  0
LTYPE
  5
26
330
2
100
AcDbSymbolTableRecord
100
AcDbLinetypeTableRecord
  2
Continuous
 70
0
  3

 72
65
 73
0
 40
0.0
  0
LTYPE
  5
2F
330
2
100
AcDbSymbolTableRecord
100
AcDbLinetypeTableRecord
  2
IRAM-E-TRAZOS
 70
0
  3
IRAM 4502 E - trazos __ __ __
 72
65
 73
2
 40
5.0
 49
4.0
 74
0
 49
-1.0
 74
0
  0
LTYPE
  5
30
330
2
100
AcDbSymbolTableRecord
100
AcDbLinetypeTableRecord
  2
IRAM-F-TRAZO-PUNTO
 70
0
  3
IRAM 4502 F - trazo largo y trazo corto ____ _ ____
 72
65
 73
4
 40
20.0
 49
15.0
 74
0
 49
-2.0
 74
0
 49
1.0
 74
0
 49
-2.0
 74
0
  0
ENDTAB
  0
TABLE
  2
LAYER
  5
1
330
0
100
AcDbSymbolTable
 70
14
  0
LAYER
  5
27
330
1
100
AcDbSymbolTableRecord
100
AcDbLayerTableRecord
  2
0
 70
0
 62
7
  6
Continuous
370
-3
390
13
347
21
  0
LAYER
  5
28
330
1
100
AcDbSymbolTableRecord
100
AcDbLayerTableRecord
  2
Defpoints
 70
0
 62
7
  6
Continuous
290
0
370
-3
390
13
347
21
  0
LAYER
  5
31
330
1
100
AcDbSymbolTableRecord
100
AcDbLayerTableRecord
  2
01-VISIBLE
 70
0
 62
7
  6
CONTINUOUS
370
70
390
13
347
21
1001
AcAecLayerStandard
1000

1000
A continua gruesa: contornos y aristas visibles
  0
LAYER
  5
33
330
1
100
AcDbSymbolTableRecord
100
AcDbLayerTableRecord
  2
02-OCULTA
 70
0
 62
4
  6
IRAM-E-TRAZOS
370
35
390
13
347
21
1001
AcAecLayerStandard
1000

1000
E de trazos media: contornos y aristas ocultos
  0
LAYER
  5
34
330
1
100
AcDbSymbolTableRecord
100
AcDbLayerTableRecord
  2
03-EJE
 70
0
 62
1
  6
IRAM-F-TRAZO-PUNTO
370
18
390
13
347
21
1001
AcAecLayerStandard
1000

1000
F trazo largo y corto fina: ejes, simetrías, trayectorias
  0
LAYER
  5
35
330
1
100
AcDbSymbolTableRecord
100
AcDbLayerTableRecord
  2
04-COTA
 70
0
 62
3
  6
CONTINUOUS
370
18
390
13
347
21
1001
AcAecLayerStandard
1000

1000
B continua fina: líneas de cota y auxiliares
  0
LAYER
  5
36
330
1
100
AcDbSymbolTableRecord
100
AcDbLayerTableRecord
  2
05-RAYADO
 70
0
 62
8
  6
CONTINUOUS
370
18
390
13
347
21
1001
AcAecLayerStandard
1000

1000
B continua fina: rayados IRAM 4509
  0
LAYER
  5
37
330
1
100
AcDbSymbolTableRecord
100
AcDbLayerTableRecord
  2
06-TEXTO
 70
0
 62
7
  6
CONTINUOUS
370
25
390
13
347
21
1001
AcAecLayerStandard
1000

1000
Escritura IRAM 4503 tipo B (trazo h/10)
  0
LAYER
  5
38
330
1
100
AcDbSymbolTableRecord
100
AcDbLayerTableRecord
  2
07-RECUADRO
 70
0
 62
7
  6
CONTINUOUS
370
70
390
13
347
21
1001
AcAecLayerStandard
1000

1000
Recuadro IRAM 4504
  0
LAYER
  5
39
330
1
100
AcDbSymbolTableRecord
100
AcDbLayerTableRecord
  2
08-FINA
 70
0
 62
5
  6
CONTINUOUS
370
18
390
13
347
21
1001
AcAecLayerStandard
1000

1000
B continua fina: referencias, fondos de rosca, contornos de detalle
  0
LAYER
  5
3A
330
1
100
AcDbSymbolTableRecord
100
AcDbLayerTableRecord
  2
09-PLANO-CORTE
 70
0
 62
1
  6
IRAM-F-TRAZO-PUNTO
370
18
390
13
347
21
1001
AcAecLayerStandard
1000

1000
G trazo largo y corto fina con extremos gruesos: planos de corte
  0
LAYER
  5
3B
330
1
100
AcDbSymbolTableRecord
100
AcDbLayerTableRecord
  2
10-ROTULO
 70
0
 62
7
  6
CONTINUOUS
370
35
390
13
347
21
1001
AcAecLayerStandard
1000

1000
Rótulo y lista de materiales IRAM 4508
  0
LAYER
  5
3C
330
1
100
AcDbSymbolTableRecord
100
AcDbLayerTableRecord
  2
11-TEXTO-ROTULO
 70
0
 62
7
  6
CONTINUOUS
370
25
390
13
347
21
1001
AcAecLayerStandard
1000

1000
Escritura del rótulo
  0
LAYER
  5
3D
330
1
100
AcDbSymbolTableRecord
100
AcDbLayerTableRecord
  2
12-SOLDADURA
 70
0
 62
6
  6
CONTINUOUS
370
18
390
13
347
21
1001
AcAecLayerStandard
1000

1000
Símbolos de soldadura
  0
ENDTAB
  0
TABLE
  2
STYLE
  5
5
330
0
100
AcDbSymbolTable
 70
2
  0
STYLE
  5
29
330
5
100
AcDbSymbolTableRecord
100
AcDbTextStyleTableRecord
  2
Standard
 70
0
 40
0.0
 41
1.0
 50
0.0
 71
0
 42
2.5
  3
txt
  4

  0
STYLE
  5
3E
330
5
100
AcDbSymbolTableRecord
100
AcDbTextStyleTableRecord
  2
ISO3098
 70
0
 40
0.0
 41
1.0
 50
0.0
 71
0
 42
2.5
  3
isocpeur.ttf
  4

  0
ENDTAB
  0
TABLE
  2
VIEW
  5
7
330
0
100
AcDbSymbolTable
 70
0
  0
ENDTAB
  0
TABLE
  2
UCS
  5
6
330
0
100
AcDbSymbolTable
 70
0
  0
ENDTAB
  0
TABLE
  2
APPID
  5
3
330
0
100
AcDbSymbolTable
 70
4
  0
APPID
  5
2A
330
3
100
AcDbSymbolTableRecord
100
AcDbRegAppTableRecord
  2
ACAD
 70
0
  0
APPID
  5
32
330
3
100
AcDbSymbolTableRecord
100
AcDbRegAppTableRecord
  2
AcAecLayerStandard
 70
0
  0
APPID
  5
254
330
3
100
AcDbSymbolTableRecord
100
AcDbRegAppTableRecord
  2
HATCHBACKGROUNDCOLOR
 70
0
  0
APPID
  5
255
330
3
100
AcDbSymbolTableRecord
100
AcDbRegAppTableRecord
  2
EZDXF
 70
0
  0
ENDTAB
  0
TABLE
  2
DIMSTYLE
  5
4
330
0
100
AcDbSymbolTable
 70
2
100
AcDbDimStyleTable
  0
DIMSTYLE
105
2B
330
4
100
AcDbSymbolTableRecord
100
AcDbDimStyleTableRecord
  2
Standard
 70
0
 40
1.0
 41
2.5
 42
0.625
 43
3.75
 44
1.25
 45
0.0
 46
0.0
 47
0.0
 48
0.0
 49
2.5
140
2.5
141
2.5
142
0.0
143
0.03937007874
144
1.0
145
0.0
146
1.0
147
0.625
148
0.0
 69
0
 70
0
 71
0
 72
0
 73
0
 74
0
 75
0
 76
0
 77
1
 78
8
 79
3
170
0
171
3
172
1
173
0
174
0
175
0
176
0
177
0
178
0
179
2
271
2
272
2
273
2
274
3
275
0
276
0
277
2
278
44
279
0
280
0
281
0
282
0
283
0
284
8
285
0
286
0
288
0
289
3
290
0
371
-2
372
-2
  0
DIMSTYLE
105
43
330
4
100
AcDbSymbolTableRecord
100
AcDbDimStyleTableRecord
  2
FLAMA-IRAM
 70
0
 40
1.0
 41
3.5
 42
1.5
 43
3.75
 44
2.0
 45
0.0
 46
0.0
 47
0.0
 48
0.0
 49
2.5
140
3.5
141
2.5
142
0.0
143
0.03937007874
144
1.0
145
0.0
146
1.0
147
1.0
148
0.0
 69
0
 70
0
 71
0
 72
0
 73
0
 74
0
 75
0
 76
0
 77
1
 78
8
 79
3
170
0
171
3
172
1
173
0
174
0
175
0
176
3
177
3
178
3
179
2
271
1
272
2
273
2
274
3
275
0
276
0
277
2
278
44
279
0
280
0
281
0
282
0
283
0
284
8
285
0
286
0
288
0
289
3
290
0
340
3E
342
3F
343
3F
344
3F
371
18
372
18
  0
ENDTAB
  0
TABLE
  2
BLOCK_RECORD
  5
9
330
0
100
AcDbSymbolTable
 70
7
  0
BLOCK_RECORD
  5
17
330
9
100
AcDbSymbolTableRecord
100
AcDbBlockTableRecord
  2
*Model_Space
340
1A
 70
0
280
1
281
0
  0
BLOCK_RECORD
  5
3F
330
9
100
AcDbSymbolTableRecord
100
AcDbBlockTableRecord
  2
IRAM_FLECHA
340
0
 70
0
280
1
281
0
  0
BLOCK_RECORD
  5
1EB
330
9
100
AcDbSymbolTableRecord
100
AcDbBlockTableRecord
  2
*D1
340
0
 70
0
280
1
281
0
  0
BLOCK_RECORD
  5
1FA
330
9
100
AcDbSymbolTableRecord
100
AcDbBlockTableRecord
  2
*D2
340
0
 70
0
280
1
281
0
  0
BLOCK_RECORD
  5
209
330
9
100
AcDbSymbolTableRecord
100
AcDbBlockTableRecord
  2
*D3
340
0
 70
0
280
1
281
0
  0
BLOCK_RECORD
  5
218
330
9
100
AcDbSymbolTableRecord
100
AcDbBlockTableRecord
  2
*D4
340
0
 70
0
280
1
281
0
  0
BLOCK_RECORD
  5
24E
330
9
100
AcDbSymbolTableRecord
100
AcDbBlockTableRecord
  2
*Paper_Space
340
251
 70
0
280
1
281
0
  0
ENDTAB
  0
ENDSEC
  0
SECTION
  2
BLOCKS
  0
BLOCK
  5
18
330
17
100
AcDbEntity
  8
0
100
AcDbBlockBegin
  2
*Model_Space
 70
0
 10
0.0
 20
0.0
 30
0.0
  3
*Model_Space
  1

  0
ENDBLK
  5
19
330
17
100
AcDbEntity
  8
0
100
AcDbBlockEnd
  0
BLOCK
  5
40
330
3F
100
AcDbEntity
  8
0
100
AcDbBlockBegin
  2
IRAM_FLECHA
 70
0
 10
0.0
 20
0.0
 30
0.0
  3
IRAM_FLECHA
  1

  0
SOLID
  5
42
330
3F
100
AcDbEntity
  8
0
100
AcDbTrace
 10
0.0
 20
0.0
 30
0.0
 11
-1.0
 21
0.125
 31
0.0
 12
-1.0
 22
-0.125
 32
0.0
 13
-1.0
 23
-0.125
 33
0.0
  0
ENDBLK
  5
41
330
3F
100
AcDbEntity
  8
0
100
AcDbBlockEnd
  0
BLOCK
  5
1EC
330
1EB
100
AcDbEntity
  8
0
100
AcDbBlockBegin
  2
*D1
 70
1
 10
0.0
 20
0.0
 30
0.0
  3
*D1
  1

  0
LINE
  5
1EE
330
1EB
100
AcDbEntity
  8
0
 62
3
370
18
100
AcDbLine
 10
97.8
 20
238.10000000000002
 30
0.0
 11
97.8
 21
246.60000000000002
 31
0.0
  0
LINE
  5
1EF
330
1EB
100
AcDbEntity
  8
0
 62
3
370
18
100
AcDbLine
 10
127.8
 20
238.10000000000002
 30
0.0
 11
127.8
 21
246.60000000000002
 31
0.0
  0
INSERT
  5
1F0
330
1EB
100
AcDbEntity
  8
04-COTA
 62
3
100
AcDbBlockReference
  2
IRAM_FLECHA
 10
97.8
 20
244.60000000000002
 30
0.0
 41
3.5
 42
3.5
 50
180.0
  0
INSERT
  5
1F2
330
1EB
100
AcDbEntity
  8
04-COTA
 62
3
100
AcDbBlockReference
  2
IRAM_FLECHA
 10
127.8
 20
244.60000000000002
 30
0.0
 41
3.5
 42
3.5
  0
LINE
  5
1F4
330
1EB
100
AcDbEntity
  8
0
 62
3
370
18
100
AcDbLine
 10
101.3
 20
244.60000000000002
 30
0.0
 11
124.3
 21
244.60000000000002
 31
0.0
  0
MTEXT
  5
1F5
330
1EB
100
AcDbEntity
  8
04-COTA
 62
3
100
AcDbMText
 10
112.8
 20
247.35000000000002
 30
0.0
 40
3.5
 71
5
  1
300
  7
ISO3098
  0
POINT
  5
1F6
330
1EB
100
AcDbEntity
  8
Defpoints
100
AcDbPoint
 10
97.8
 20
244.60000000000002
 30
0.0
  0
POINT
  5
1F7
330
1EB
100
AcDbEntity
  8
Defpoints
100
AcDbPoint
 10
97.8
 20
236.60000000000002
 30
0.0
  0
POINT
  5
1F8
330
1EB
100
AcDbEntity
  8
Defpoints
100
AcDbPoint
 10
127.8
 20
236.60000000000002
 30
0.0
  0
ENDBLK
  5
1ED
330
1EB
100
AcDbEntity
  8
0
100
AcDbBlockEnd
  0
BLOCK
  5
1FB
330
1FA
100
AcDbEntity
  8
0
100
AcDbBlockBegin
  2
*D2
 70
1
 10
0.0
 20
0.0
 30
0.0
  3
*D2
  1

  0
LINE
  5
1FD
330
1FA
100
AcDbEntity
  8
0
 62
3
370
18
100
AcDbLine
 10
95.5
 20
161.60000000000002
 30
0.0
 11
84.8
 21
161.60000000000002
 31
0.0
  0
LINE
  5
1FE
330
1FA
100
AcDbEntity
  8
0
 62
3
370
18
100
AcDbLine
 10
95.5
 20
236.60000000000002
 30
0.0
 11
84.8
 21
236.60000000000002
 31
0.0
  0
INSERT
  5
1FF
330
1FA
100
AcDbEntity
  8
04-COTA
 62
3
100
AcDbBlockReference
  2
IRAM_FLECHA
 10
86.8
 20
161.60000000000002
 30
0.0
 41
3.5
 42
3.5
 50
270.0
  0
INSERT
  5
201
330
1FA
100
AcDbEntity
  8
04-COTA
 62
3
100
AcDbBlockReference
  2
IRAM_FLECHA
 10
86.8
 20
236.60000000000002
 30
0.0
 41
3.5
 42
3.5
 50
90.0
  0
LINE
  5
203
330
1FA
100
AcDbEntity
  8
0
 62
3
370
18
100
AcDbLine
 10
86.8
 20
165.10000000000002
 30
0.0
 11
86.8
 21
233.10000000000002
 31
0.0
  0
MTEXT
  5
204
330
1FA
100
AcDbEntity
  8
04-COTA
 62
3
100
AcDbMText
 10
84.05
 20
199.10000000000002
 30
0.0
 40
3.5
 71
5
  1
750
  7
ISO3098
 50
90.0
  0
POINT
  5
205
330
1FA
100
AcDbEntity
  8
Defpoints
100
AcDbPoint
 10
86.8
 20
161.60000000000002
 30
0.0
  0
POINT
  5
206
330
1FA
100
AcDbEntity
  8
Defpoints
100
AcDbPoint
 10
97.0
 20
161.60000000000002
 30
0.0
  0
POINT
  5
207
330
1FA
100
AcDbEntity
  8
Defpoints
100
AcDbPoint
 10
97.0
 20
236.60000000000002
 30
0.0
  0
ENDBLK
  5
1FC
330
1FA
100
AcDbEntity
  8
0
100
AcDbBlockEnd
  0
BLOCK
  5
20A
330
209
100
AcDbEntity
  8
0
100
AcDbBlockBegin
  2
*D3
 70
1
 10
0.0
 20
0.0
 30
0.0
  3
*D3
  1

  0
LINE
  5
20C
330
209
100
AcDbEntity
  8
0
 62
3
370
18
100
AcDbLine
 10
152.8
 20
238.10000000000002
 30
0.0
 11
152.8
 21
246.60000000000002
 31
0.0
  0
LINE
  5
20D
330
209
100
AcDbEntity
  8
0
 62
3
370
18
100
AcDbLine
 10
178.0
 20
238.10000000000002
 30
0.0
 11
178.0
 21
246.60000000000002
 31
0.0
  0
INSERT
  5
20E
330
209
100
AcDbEntity
  8
04-COTA
 62
3
100
AcDbBlockReference
  2
IRAM_FLECHA
 10
152.8
 20
244.60000000000002
 30
0.0
 41
3.5
 42
3.5
 50
180.0
  0
INSERT
  5
210
330
209
100
AcDbEntity
  8
04-COTA
 62
3
100
AcDbBlockReference
  2
IRAM_FLECHA
 10
178.0
 20
244.60000000000002
 30
0.0
 41
3.5
 42
3.5
  0
LINE
  5
212
330
209
100
AcDbEntity
  8
0
 62
3
370
18
100
AcDbLine
 10
156.3
 20
244.60000000000002
 30
0.0
 11
174.5
 21
244.60000000000002
 31
0.0
  0
MTEXT
  5
213
330
209
100
AcDbEntity
  8
04-COTA
 62
3
100
AcDbMText
 10
165.4
 20
247.35000000000002
 30
0.0
 40
3.5
 71
5
  1
252
  7
ISO3098
  0
POINT
  5
214
330
209
100
AcDbEntity
  8
Defpoints
100
AcDbPoint
 10
152.8
 20
244.60000000000002
 30
0.0
  0
POINT
  5
215
330
209
100
AcDbEntity
  8
Defpoints
100
AcDbPoint
 10
152.8
 20
236.60000000000002
 30
0.0
  0
POINT
  5
216
330
209
100
AcDbEntity
  8
Defpoints
100
AcDbPoint
 10
178.0
 20
236.60000000000002
 30
0.0
  0
ENDBLK
  5
20B
330
209
100
AcDbEntity
  8
0
100
AcDbBlockEnd
  0
BLOCK
  5
219
330
218
100
AcDbEntity
  8
0
100
AcDbBlockBegin
  2
*D4
 70
1
 10
0.0
 20
0.0
 30
0.0
  3
*D4
  1

  0
LINE
  5
21B
330
218
100
AcDbEntity
  8
0
 62
3
370
18
100
AcDbLine
 10
124.3
 20
186.60000000000002
 30
0.0
 11
138.8
 21
186.60000000000002
 31
0.0
  0
LINE
  5
21C
330
218
100
AcDbEntity
  8
0
 62
3
370
18
100
AcDbLine
 10
124.3
 20
226.60000000000002
 30
0.0
 11
138.8
 21
226.60000000000002
 31
0.0
  0
INSERT
  5
21D
330
218
100
AcDbEntity
  8
04-COTA
 62
3
100
AcDbBlockReference
  2
IRAM_FLECHA
 10
136.8
 20
186.60000000000002
 30
0.0
 41
3.5
 42
3.5
 50
270.0
  0
INSERT
  5
21F
330
218
100
AcDbEntity
  8
04-COTA
 62
3
100
AcDbBlockReference
  2
IRAM_FLECHA
 10
136.8
 20
226.60000000000002
 30
0.0
 41
3.5
 42
3.5
 50
90.0
  0
LINE
  5
221
330
218
100
AcDbEntity
  8
0
 62
3
370
18
100
AcDbLine
 10
136.8
 20
190.10000000000002
 30
0.0
 11
136.8
 21
223.10000000000002
 31
0.0
  0
MTEXT
  5
222
330
218
100
AcDbEntity
  8
04-COTA
 62
3
100
AcDbMText
 10
134.05
 20
206.60000000000002
 30
0.0
 40
3.5
 71
5
  1
400
  7
ISO3098
 50
90.0
  0
POINT
  5
223
330
218
100
AcDbEntity
  8
Defpoints
100
AcDbPoint
 10
136.8
 20
186.60000000000002
 30
0.0
  0
POINT
  5
224
330
218
100
AcDbEntity
  8
Defpoints
100
AcDbPoint
 10
122.8
 20
186.60000000000002
 30
0.0
  0
POINT
  5
225
330
218
100
AcDbEntity
  8
Defpoints
100
AcDbPoint
 10
122.8
 20
226.60000000000002
 30
0.0
  0
ENDBLK
  5
21A
330
218
100
AcDbEntity
  8
0
100
AcDbBlockEnd
  0
BLOCK
  5
24F
330
24E
100
AcDbEntity
  8
0
100
AcDbBlockBegin
  2
*Paper_Space
 70
0
 10
0.0
 20
0.0
 30
0.0
  3
*Paper_Space
  1

  0
ENDBLK
  5
250
330
24E
100
AcDbEntity
  8
0
100
AcDbBlockEnd
  0
ENDSEC
  0
SECTION
  2
ENTITIES
  0
LWPOLYLINE
  5
44
330
17
100
AcDbEntity
  8
08-FINA
100
AcDbPolyline
 90
4
 70
1
 10
0.0
 20
0.0
 10
420.0
 20
0.0
 10
420.0
 20
297.0
 10
0.0
 20
297.0
  0
LWPOLYLINE
  5
45
330
17
100
AcDbEntity
  8
07-RECUADRO
100
AcDbPolyline
 90
4
 70
1
 10
25.0
 20
10.0
 10
410.0
 20
10.0
 10
410.0
 20
287.0
 10
25.0
 20
287.0
  0
LINE
  5
46
330
17
100
AcDbEntity
  8
07-RECUADRO
100
AcDbLine
 10
210.0
 20
0.0
 30
0.0
 11
210.0
 21
15.0
 31
0.0
  0
LINE
  5
47
330
17
100
AcDbEntity
  8
07-RECUADRO
100
AcDbLine
 10
210.0
 20
297.0
 30
0.0
 11
210.0
 21
282.0
 31
0.0
  0
LINE
  5
48
330
17
100
AcDbEntity
  8
07-RECUADRO
100
AcDbLine
 10
0.0
 20
148.5
 30
0.0
 11
30.0
 21
148.5
 31
0.0
  0
LINE
  5
49
330
17
100
AcDbEntity
  8
07-RECUADRO
100
AcDbLine
 10
420.0
 20
148.5
 30
0.0
 11
405.0
 21
148.5
 31
0.0
  0
LINE
  5
4A
330
17
100
AcDbEntity
  8
08-FINA
100
AcDbLine
 10
60.0
 20
10.0
 30
0.0
 11
60.0
 21
5.0
 31
0.0
  0
LINE
  5
4B
330
17
100
AcDbEntity
  8
08-FINA
100
AcDbLine
 10
60.0
 20
287.0
 30
0.0
 11
60.0
 21
292.0
 31
0.0
  0
LINE
  5
4C
330
17
100
AcDbEntity
  8
08-FINA
100
AcDbLine
 10
110.0
 20
10.0
 30
0.0
 11
110.0
 21
5.0
 31
0.0
  0
LINE
  5
4D
330
17
100
AcDbEntity
  8
08-FINA
100
AcDbLine
 10
110.0
 20
287.0
 30
0.0
 11
110.0
 21
292.0
 31
0.0
  0
LINE
  5
4E
330
17
100
AcDbEntity
  8
08-FINA
100
AcDbLine
 10
160.0
 20
10.0
 30
0.0
 11
160.0
 21
5.0
 31
0.0
  0
LINE
  5
4F
330
17
100
AcDbEntity
  8
08-FINA
100
AcDbLine
 10
160.0
 20
287.0
 30
0.0
 11
160.0
 21
292.0
 31
0.0
  0
LINE
  5
50
330
17
100
AcDbEntity
  8
08-FINA
100
AcDbLine
 10
260.0
 20
10.0
 30
0.0
 11
260.0
 21
5.0
 31
0.0
  0
LINE
  5
51
330
17
100
AcDbEntity
  8
08-FINA
100
AcDbLine
 10
260.0
 20
287.0
 30
0.0
 11
260.0
 21
292.0
 31
0.0
  0
LINE
  5
52
330
17
100
AcDbEntity
  8
08-FINA
100
AcDbLine
 10
310.0
 20
10.0
 30
0.0
 11
310.0
 21
5.0
 31
0.0
  0
LINE
  5
53
330
17
100
AcDbEntity
  8
08-FINA
100
AcDbLine
 10
310.0
 20
287.0
 30
0.0
 11
310.0
 21
292.0
 31
0.0
  0
LINE
  5
54
330
17
100
AcDbEntity
  8
08-FINA
100
AcDbLine
 10
360.0
 20
10.0
 30
0.0
 11
360.0
 21
5.0
 31
0.0
  0
LINE
  5
55
330
17
100
AcDbEntity
  8
08-FINA
100
AcDbLine
 10
360.0
 20
287.0
 30
0.0
 11
360.0
 21
292.0
 31
0.0
  0
LINE
  5
56
330
17
100
AcDbEntity
  8
08-FINA
100
AcDbLine
 10
25.0
 20
48.5
 30
0.0
 11
20.0
 21
48.5
 31
0.0
  0
LINE
  5
57
330
17
100
AcDbEntity
  8
08-FINA
100
AcDbLine
 10
410.0
 20
48.5
 30
0.0
 11
415.0
 21
48.5
 31
0.0
  0
LINE
  5
58
330
17
100
AcDbEntity
  8
08-FINA
100
AcDbLine
 10
25.0
 20
98.5
 30
0.0
 11
20.0
 21
98.5
 31
0.0
  0
LINE
  5
59
330
17
100
AcDbEntity
  8
08-FINA
100
AcDbLine
 10
410.0
 20
98.5
 30
0.0
 11
415.0
 21
98.5
 31
0.0
  0
LINE
  5
5A
330
17
100
AcDbEntity
  8
08-FINA
100
AcDbLine
 10
25.0
 20
198.5
 30
0.0
 11
20.0
 21
198.5
 31
0.0
  0
LINE
  5
5B
330
17
100
AcDbEntity
  8
08-FINA
100
AcDbLine
 10
410.0
 20
198.5
 30
0.0
 11
415.0
 21
198.5
 31
0.0
  0
LINE
  5
5C
330
17
100
AcDbEntity
  8
08-FINA
100
AcDbLine
 10
25.0
 20
248.5
 30
0.0
 11
20.0
 21
248.5
 31
0.0
  0
LINE
  5
5D
330
17
100
AcDbEntity
  8
08-FINA
100
AcDbLine
 10
410.0
 20
248.5
 30
0.0
 11
415.0
 21
248.5
 31
0.0
  0
TEXT
  5
5E
330
17
100
AcDbEntity
  8
06-TEXTO
100
AcDbText
 10
42.5
 20
5.0
 30
0.0
 40
3.5
  1
1
  7
ISO3098
 72
1
 11
42.5
 21
5.0
 31
0.0
100
AcDbText
 73
2
  0
TEXT
  5
5F
330
17
100
AcDbEntity
  8
06-TEXTO
100
AcDbText
 10
42.5
 20
292.0
 30
0.0
 40
3.5
  1
1
  7
ISO3098
 72
1
 11
42.5
 21
292.0
 31
0.0
100
AcDbText
 73
2
  0
TEXT
  5
60
330
17
100
AcDbEntity
  8
06-TEXTO
100
AcDbText
 10
85.0
 20
5.0
 30
0.0
 40
3.5
  1
2
  7
ISO3098
 72
1
 11
85.0
 21
5.0
 31
0.0
100
AcDbText
 73
2
  0
TEXT
  5
61
330
17
100
AcDbEntity
  8
06-TEXTO
100
AcDbText
 10
85.0
 20
292.0
 30
0.0
 40
3.5
  1
2
  7
ISO3098
 72
1
 11
85.0
 21
292.0
 31
0.0
100
AcDbText
 73
2
  0
TEXT
  5
62
330
17
100
AcDbEntity
  8
06-TEXTO
100
AcDbText
 10
135.0
 20
5.0
 30
0.0
 40
3.5
  1
3
  7
ISO3098
 72
1
 11
135.0
 21
5.0
 31
0.0
100
AcDbText
 73
2
  0
TEXT
  5
63
330
17
100
AcDbEntity
  8
06-TEXTO
100
AcDbText
 10
135.0
 20
292.0
 30
0.0
 40
3.5
  1
3
  7
ISO3098
 72
1
 11
135.0
 21
292.0
 31
0.0
100
AcDbText
 73
2
  0
TEXT
  5
64
330
17
100
AcDbEntity
  8
06-TEXTO
100
AcDbText
 10
185.0
 20
5.0
 30
0.0
 40
3.5
  1
4
  7
ISO3098
 72
1
 11
185.0
 21
5.0
 31
0.0
100
AcDbText
 73
2
  0
TEXT
  5
65
330
17
100
AcDbEntity
  8
06-TEXTO
100
AcDbText
 10
185.0
 20
292.0
 30
0.0
 40
3.5
  1
4
  7
ISO3098
 72
1
 11
185.0
 21
292.0
 31
0.0
100
AcDbText
 73
2
  0
TEXT
  5
66
330
17
100
AcDbEntity
  8
06-TEXTO
100
AcDbText
 10
235.0
 20
5.0
 30
0.0
 40
3.5
  1
5
  7
ISO3098
 72
1
 11
235.0
 21
5.0
 31
0.0
100
AcDbText
 73
2
  0
TEXT
  5
67
330
17
100
AcDbEntity
  8
06-TEXTO
100
AcDbText
 10
235.0
 20
292.0
 30
0.0
 40
3.5
  1
5
  7
ISO3098
 72
1
 11
235.0
 21
292.0
 31
0.0
100
AcDbText
 73
2
  0
TEXT
  5
68
330
17
100
AcDbEntity
  8
06-TEXTO
100
AcDbText
 10
285.0
 20
5.0
 30
0.0
 40
3.5
  1
6
  7
ISO3098
 72
1
 11
285.0
 21
5.0
 31
0.0
100
AcDbText
 73
2
  0
TEXT
  5
69
330
17
100
AcDbEntity
  8
06-TEXTO
100
AcDbText
 10
285.0
 20
292.0
 30
0.0
 40
3.5
  1
6
  7
ISO3098
 72
1
 11
285.0
 21
292.0
 31
0.0
100
AcDbText
 73
2
  0
TEXT
  5
6A
330
17
100
AcDbEntity
  8
06-TEXTO
100
AcDbText
 10
335.0
 20
5.0
 30
0.0
 40
3.5
  1
7
  7
ISO3098
 72
1
 11
335.0
 21
5.0
 31
0.0
100
AcDbText
 73
2
  0
TEXT
  5
6B
330
17
100
AcDbEntity
  8
06-TEXTO
100
AcDbText
 10
335.0
 20
292.0
 30
0.0
 40
3.5
  1
7
  7
ISO3098
 72
1
 11
335.0
 21
292.0
 31
0.0
100
AcDbText
 73
2
  0
TEXT
  5
6C
330
17
100
AcDbEntity
  8
06-TEXTO
100
AcDbText
 10
385.0
 20
5.0
 30
0.0
 40
3.5
  1
8
  7
ISO3098
 72
1
 11
385.0
 21
5.0
 31
0.0
100
AcDbText
 73
2
  0
TEXT
  5
6D
330
17
100
AcDbEntity
  8
06-TEXTO
100
AcDbText
 10
385.0
 20
292.0
 30
0.0
 40
3.5
  1
8
  7
ISO3098
 72
1
 11
385.0
 21
292.0
 31
0.0
100
AcDbText
 73
2
  0
TEXT
  5
6E
330
17
100
AcDbEntity
  8
06-TEXTO
100
AcDbText
 10
15.0
 20
29.25
 30
0.0
 40
3.5
  1
F
  7
ISO3098
 72
1
 11
15.0
 21
29.25
 31
0.0
100
AcDbText
 73
2
  0
TEXT
  5
6F
330
17
100
AcDbEntity
  8
06-TEXTO
100
AcDbText
 10
415.0
 20
29.25
 30
0.0
 40
3.5
  1
F
  7
ISO3098
 72
1
 11
415.0
 21
29.25
 31
0.0
100
AcDbText
 73
2
  0
TEXT
  5
70
330
17
100
AcDbEntity
  8
06-TEXTO
100
AcDbText
 10
15.0
 20
73.5
 30
0.0
 40
3.5
  1
E
  7
ISO3098
 72
1
 11
15.0
 21
73.5
 31
0.0
100
AcDbText
 73
2
  0
TEXT
  5
71
330
17
100
AcDbEntity
  8
06-TEXTO
100
AcDbText
 10
415.0
 20
73.5
 30
0.0
 40
3.5
  1
E
  7
ISO3098
 72
1
 11
415.0
 21
73.5
 31
0.0
100
AcDbText
 73
2
  0
TEXT
  5
72
330
17
100
AcDbEntity
  8
06-TEXTO
100
AcDbText
 10
15.0
 20
123.5
 30
0.0
 40
3.5
  1
D
  7
ISO3098
 72
1
 11
15.0
 21
123.5
 31
0.0
100
AcDbText
 73
2
  0
TEXT
  5
73
330
17
100
AcDbEntity
  8
06-TEXTO
100
AcDbText
 10
415.0
 20
123.5
 30
0.0
 40
3.5
  1
D
  7
ISO3098
 72
1
 11
415.0
 21
123.5
 31
0.0
100
AcDbText
 73
2
  0
TEXT
  5
74
330
17
100
AcDbEntity
  8
06-TEXTO
100
AcDbText
 10
15.0
 20
173.5
 30
0.0
 40
3.5
  1
C
  7
ISO3098
 72
1
 11
15.0
 21
173.5
 31
0.0
100
AcDbText
 73
2
  0
TEXT
  5
75
330
17
100
AcDbEntity
  8
06-TEXTO
100
AcDbText
 10
415.0
 20
173.5
 30
0.0
 40
3.5
  1
C
  7
ISO3098
 72
1
 11
415.0
 21
173.5
 31
0.0
100
AcDbText
 73
2
  0
TEXT
  5
76
330
17
100
AcDbEntity
  8
06-TEXTO
100
AcDbText
 10
15.0
 20
223.5
 30
0.0
 40
3.5
  1
B
  7
ISO3098
 72
1
 11
15.0
 21
223.5
 31
0.0
100
AcDbText
 73
2
  0
TEXT
  5
77
330
17
100
AcDbEntity
  8
06-TEXTO
100
AcDbText
 10
415.0
 20
223.5
 30
0.0
 40
3.5
  1
B
  7
ISO3098
 72
1
 11
415.0
 21
223.5
 31
0.0
100
AcDbText
 73
2
  0
TEXT
  5
78
330
17
100
AcDbEntity
  8
06-TEXTO
100
AcDbText
 10
15.0
 20
267.75
 30
0.0
 40
3.5
  1
A
  7
ISO3098
 72
1
 11
15.0
 21
267.75
 31
0.0
100
AcDbText
 73
2
  0
TEXT
  5
79
330
17
100
AcDbEntity
  8
06-TEXTO
100
AcDbText
 10
415.0
 20
267.75
 30
0.0
 40
3.5
  1
A
  7
ISO3098
 72
1
 11
415.0
 21
267.75
 31
0.0
100
AcDbText
 73
2
  0
LWPOLYLINE
  5
7A
330
17
100
AcDbEntity
  8
10-ROTULO
100
AcDbPolyline
 90
4
 70
1
 10
235.0
 20
56.0
 10
249.0
 20
56.0
 10
249.0
 20
61.0
 10
235.0
 20
61.0
  0
LWPOLYLINE
  5
7B
330
17
100
AcDbEntity
  8
10-ROTULO
100
AcDbPolyline
 90
4
 70
1
 10
249.0
 20
56.0
 10
265.0
 20
56.0
 10
265.0
 20
61.0
 10
249.0
 20
61.0
  0
TEXT
  5
7C
330
17
100
AcDbEntity
  8
11-TEXTO-ROTULO
100
AcDbText
 10
257.0
 20
58.5
 30
0.0
 40
2.5
  1
Fecha
  7
ISO3098
 72
1
 11
257.0
 21
58.5
 31
0.0
100
AcDbText
 73
2
  0
LWPOLYLINE
  5
7D
330
17
100
AcDbEntity
  8
10-ROTULO
100
AcDbPolyline
 90
4
 70
1
 10
265.0
 20
56.0
 10
290.0
 20
56.0
 10
290.0
 20
61.0
 10
265.0
 20
61.0
  0
TEXT
  5
7E
330
17
100
AcDbEntity
  8
11-TEXTO-ROTULO
100
AcDbText
 10
277.5
 20
58.5
 30
0.0
 40
2.5
  1
Nombre
  7
ISO3098
 72
1
 11
277.5
 21
58.5
 31
0.0
100
AcDbText
 73
2
  0
LWPOLYLINE
  5
7F
330
17
100
AcDbEntity
  8
10-ROTULO
100
AcDbPolyline
 90
4
 70
1
 10
235.0
 20
50.0
 10
249.0
 20
50.0
 10
249.0
 20
56.0
 10
235.0
 20
56.0
  0
TEXT
  5
80
330
17
100
AcDbEntity
  8
11-TEXTO-ROTULO
100
AcDbText
 10
236.5
 20
53.0
 30
0.0
 40
2.5
  1
Dibujó
  7
ISO3098
 11
236.5
 21
53.0
 31
0.0
100
AcDbText
 73
2
  0
LWPOLYLINE
  5
81
330
17
100
AcDbEntity
  8
10-ROTULO
100
AcDbPolyline
 90
4
 70
1
 10
249.0
 20
50.0
 10
265.0
 20
50.0
 10
265.0
 20
56.0
 10
249.0
 20
56.0
  0
TEXT
  5
82
330
17
100
AcDbEntity
  8
11-TEXTO-ROTULO
100
AcDbText
 10
257.0
 20
53.0
 30
0.0
 40
2.5
  1
28/09/26
  7
ISO3098
 72
1
 11
257.0
 21
53.0
 31
0.0
100
AcDbText
 73
2
  0
LWPOLYLINE
  5
83
330
17
100
AcDbEntity
  8
10-ROTULO
100
AcDbPolyline
 90
4
 70
1
 10
265.0
 20
50.0
 10
290.0
 20
50.0
 10
290.0
 20
56.0
 10
265.0
 20
56.0
  0
TEXT
  5
84
330
17
100
AcDbEntity
  8
11-TEXTO-ROTULO
100
AcDbText
 10
277.5
 20
53.0
 30
0.0
 40
2.5
  1
T. Sinay
  7
ISO3098
 72
1
 11
277.5
 21
53.0
 31
0.0
100
AcDbText
 73
2
  0
LWPOLYLINE
  5
85
330
17
100
AcDbEntity
  8
10-ROTULO
100
AcDbPolyline
 90
4
 70
1
 10
235.0
 20
44.0
 10
249.0
 20
44.0
 10
249.0
 20
50.0
 10
235.0
 20
50.0
  0
TEXT
  5
86
330
17
100
AcDbEntity
  8
11-TEXTO-ROTULO
100
AcDbText
 10
236.5
 20
47.0
 30
0.0
 40
2.5
  1
Revisó
  7
ISO3098
 11
236.5
 21
47.0
 31
0.0
100
AcDbText
 73
2
  0
LWPOLYLINE
  5
87
330
17
100
AcDbEntity
  8
10-ROTULO
100
AcDbPolyline
 90
4
 70
1
 10
249.0
 20
44.0
 10
265.0
 20
44.0
 10
265.0
 20
50.0
 10
249.0
 20
50.0
  0
LWPOLYLINE
  5
88
330
17
100
AcDbEntity
  8
10-ROTULO
100
AcDbPolyline
 90
4
 70
1
 10
265.0
 20
44.0
 10
290.0
 20
44.0
 10
290.0
 20
50.0
 10
265.0
 20
50.0
  0
LWPOLYLINE
  5
89
330
17
100
AcDbEntity
  8
10-ROTULO
100
AcDbPolyline
 90
4
 70
1
 10
235.0
 20
38.0
 10
249.0
 20
38.0
 10
249.0
 20
44.0
 10
235.0
 20
44.0
  0
TEXT
  5
8A
330
17
100
AcDbEntity
  8
11-TEXTO-ROTULO
100
AcDbText
 10
236.5
 20
41.0
 30
0.0
 40
2.5
  1
Aprobó
  7
ISO3098
 11
236.5
 21
41.0
 31
0.0
100
AcDbText
 73
2
  0
LWPOLYLINE
  5
8B
330
17
100
AcDbEntity
  8
10-ROTULO
100
AcDbPolyline
 90
4
 70
1
 10
249.0
 20
38.0
 10
265.0
 20
38.0
 10
265.0
 20
44.0
 10
249.0
 20
44.0
  0
LWPOLYLINE
  5
8C
330
17
100
AcDbEntity
  8
10-ROTULO
100
AcDbPolyline
 90
4
 70
1
 10
265.0
 20
38.0
 10
290.0
 20
38.0
 10
290.0
 20
44.0
 10
265.0
 20
44.0
  0
LWPOLYLINE
  5
8D
330
17
100
AcDbEntity
  8
10-ROTULO
100
AcDbPolyline
 90
4
 70
1
 10
235.0
 20
24.0
 10
255.0
 20
24.0
 10
255.0
 20
38.0
 10
235.0
 20
38.0
  0
TEXT
  5
8E
330
17
100
AcDbEntity
  8
11-TEXTO-ROTULO
100
AcDbText
 10
236.0
 20
37.0
 30
0.0
 40
1.8
  1
Escala
  7
ISO3098
 11
236.0
 21
37.0
 31
0.0
100
AcDbText
 73
3
  0
TEXT
  5
8F
330
17
100
AcDbEntity
  8
11-TEXTO-ROTULO
100
AcDbText
 10
245.0
 20
29.6
 30
0.0
 40
5.0
  1
1:10
  7
ISO3098
 72
1
 11
245.0
 21
29.6
 31
0.0
100
AcDbText
 73
2
  0
LWPOLYLINE
  5
90
330
17
100
AcDbEntity
  8
10-ROTULO
100
AcDbPolyline
 90
4
 70
1
 10
255.0
 20
24.0
 10
290.0
 20
24.0
 10
290.0
 20
38.0
 10
255.0
 20
38.0
  0
TEXT
  5
91
330
17
100
AcDbEntity
  8
11-TEXTO-ROTULO
100
AcDbText
 10
256.0
 20
37.0
 30
0.0
 40
1.8
  1
Método de proyección
  7
ISO3098
 11
256.0
 21
37.0
 31
0.0
100
AcDbText
 73
3
  0
CIRCLE
  5
92
330
17
100
AcDbEntity
  8
01-VISIBLE
100
AcDbCircle
 10
265.0
 20
29.5
 30
0.0
 40
2.5
  0
CIRCLE
  5
93
330
17
100
AcDbEntity
  8
01-VISIBLE
100
AcDbCircle
 10
265.0
 20
29.5
 30
0.0
 40
1.25
  0
LWPOLYLINE
  5
94
330
17
100
AcDbEntity
  8
01-VISIBLE
100
AcDbPolyline
 90
4
 70
1
 10
270.0
 20
27.0
 10
275.0
 20
28.25
 10
275.0
 20
30.75
 10
270.0
 20
32.0
  0
LINE
  5
95
330
17
100
AcDbEntity
  8
03-EJE
100
AcDbLine
 10
261.0
 20
29.5
 30
0.0
 11
276.5
 21
29.5
 31
0.0
  0
LINE
  5
96
330
17
100
AcDbEntity
  8
03-EJE
100
AcDbLine
 10
265.0
 20
25.5
 30
0.0
 11
265.0
 21
33.5
 31
0.0
  0
TEXT
  5
97
330
17
100
AcDbEntity
  8
11-TEXTO-ROTULO
100
AcDbText
 10
286.5
 20
29.5
 30
0.0
 40
2.5
  1
ISO E
  7
ISO3098
 72
2
 11
286.5
 21
29.5
 31
0.0
100
AcDbText
 73
2
  0
LWPOLYLINE
  5
98
330
17
100
AcDbEntity
  8
10-ROTULO
100
AcDbPolyline
 90
4
 70
1
 10
235.0
 20
10.0
 10
268.0
 20
10.0
 10
268.0
 20
24.0
 10
235.0
 20
24.0
  0
TEXT
  5
99
330
17
100
AcDbEntity
  8
11-TEXTO-ROTULO
100
AcDbText
 10
236.0
 20
23.0
 30
0.0
 40
1.8
  1
Tolerancias generales
  7
ISO3098
 11
236.0
 21
23.0
 31
0.0
100
AcDbText
 73
3
  0
TEXT
  5
9A
330
17
100
AcDbEntity
  8
11-TEXTO-ROTULO
100
AcDbText
 10
251.5
 20
15.6
 30
0.0
 40
3.5
  1
ISO 2768-m
  7
ISO3098
 72
1
 11
251.5
 21
15.6
 31
0.0
100
AcDbText
 73
2
  0
LWPOLYLINE
  5
9B
330
17
100
AcDbEntity
  8
10-ROTULO
100
AcDbPolyline
 90
4
 70
1
 10
268.0
 20
10.0
 10
290.0
 20
10.0
 10
290.0
 20
24.0
 10
268.0
 20
24.0
  0
TEXT
  5
9C
330
17
100
AcDbEntity
  8
11-TEXTO-ROTULO
100
AcDbText
 10
269.0
 20
23.0
 30
0.0
 40
1.8
  1
Formato
  7
ISO3098
 11
269.0
 21
23.0
 31
0.0
100
AcDbText
 73
3
  0
TEXT
  5
9D
330
17
100
AcDbEntity
  8
11-TEXTO-ROTULO
100
AcDbText
 10
279.0
 20
15.6
 30
0.0
 40
3.5
  1
A3
  7
ISO3098
 72
1
 11
279.0
 21
15.6
 31
0.0
100
AcDbText
 73
2
  0
LWPOLYLINE
  5
9E
330
17
100
AcDbEntity
  8
10-ROTULO
100
AcDbPolyline
 90
4
 70
1
 10
290.0
 20
49.0
 10
360.0
 20
49.0
 10
360.0
 20
61.0
 10
290.0
 20
61.0
  0
TEXT
  5
9F
330
17
100
AcDbEntity
  8
11-TEXTO-ROTULO
100
AcDbText
 10
291.0
 20
60.0
 30
0.0
 40
1.8
  1
Propietario
  7
ISO3098
 11
291.0
 21
60.0
 31
0.0
100
AcDbText
 73
3
  0
TEXT
  5
A0
330
17
100
AcDbEntity
  8
11-TEXTO-ROTULO
100
AcDbText
 10
325.0
 20
53.6
 30
0.0
 40
5.0
  1
FLAMA S.A.
  7
ISO3098
 72
1
 11
325.0
 21
53.6
 31
0.0
100
AcDbText
 73
2
  0
LWPOLYLINE
  5
A1
330
17
100
AcDbEntity
  8
10-ROTULO
100
AcDbPolyline
 90
4
 70
1
 10
290.0
 20
22.0
 10
360.0
 20
22.0
 10
360.0
 20
49.0
 10
290.0
 20
49.0
  0
TEXT
  5
A2
330
17
100
AcDbEntity
  8
11-TEXTO-ROTULO
100
AcDbText
 10
291.0
 20
48.0
 30
0.0
 40
1.8
  1
Denominación
  7
ISO3098
 11
291.0
 21
48.0
 31
0.0
100
AcDbText
 73
3
  0
TEXT
  5
A3
330
17
100
AcDbEntity
  8
11-TEXTO-ROTULO
100
AcDbText
 10
325.0
 20
35.0
 30
0.0
 40
5.0
  1
Gabinete metálico
  7
ISO3098
 72
1
 11
325.0
 21
35.0
 31
0.0
100
AcDbText
 73
2
  0
TEXT
  5
A4
330
17
100
AcDbEntity
  8
11-TEXTO-ROTULO
100
AcDbText
 10
325.0
 20
25.5
 30
0.0
 40
1.8
  1
Chapa plegada con puerta y visor - 5 kg / 10 kg
  7
ISO3098
 72
1
 11
325.0
 21
25.5
 31
0.0
100
AcDbText
 73
2
  0
LWPOLYLINE
  5
A5
330
17
100
AcDbEntity
  8
10-ROTULO
100
AcDbPolyline
 90
4
 70
1
 10
290.0
 20
10.0
 10
360.0
 20
10.0
 10
360.0
 20
22.0
 10
290.0
 20
22.0
  0
TEXT
  5
A6
330
17
100
AcDbEntity
  8
11-TEXTO-ROTULO
100
AcDbText
 10
291.0
 20
21.0
 30
0.0
 40
1.8
  1
Tipo de documento
  7
ISO3098
 11
291.0
 21
21.0
 31
0.0
100
AcDbText
 73
3
  0
TEXT
  5
A7
330
17
100
AcDbEntity
  8
11-TEXTO-ROTULO
100
AcDbText
 10
325.0
 20
14.6
 30
0.0
 40
3.5
  1
Plano de fabricación
  7
ISO3098
 72
1
 11
325.0
 21
14.6
 31
0.0
100
AcDbText
 73
2
  0
LWPOLYLINE
  5
A8
330
17
100
AcDbEntity
  8
10-ROTULO
100
AcDbPolyline
 90
4
 70
1
 10
360.0
 20
53.0
 10
410.0
 20
53.0
 10
410.0
 20
61.0
 10
360.0
 20
61.0
  0
TEXT
  5
A9
330
17
100
AcDbEntity
  8
11-TEXTO-ROTULO
100
AcDbText
 10
361.0
 20
60.0
 30
0.0
 40
1.8
  1
Reemplaza a / Reemplazado por
  7
ISO3098
 11
361.0
 21
60.0
 31
0.0
100
AcDbText
 73
3
  0
TEXT
  5
AA
330
17
100
AcDbEntity
  8
11-TEXTO-ROTULO
100
AcDbText
 10
385.0
 20
55.6
 30
0.0
 40
1.8
  1
-
  7
ISO3098
 72
1
 11
385.0
 21
55.6
 31
0.0
100
AcDbText
 73
2
  0
LWPOLYLINE
  5
AB
330
17
100
AcDbEntity
  8
10-ROTULO
100
AcDbPolyline
 90
4
 70
1
 10
360.0
 20
43.0
 10
410.0
 20
43.0
 10
410.0
 20
53.0
 10
360.0
 20
53.0
  0
TEXT
  5
AC
330
17
100
AcDbEntity
  8
11-TEXTO-ROTULO
100
AcDbText
 10
361.0
 20
52.0
 30
0.0
 40
1.8
  1
Material
  7
ISO3098
 11
361.0
 21
52.0
 31
0.0
100
AcDbText
 73
3
  0
TEXT
  5
AD
330
17
100
AcDbEntity
  8
11-TEXTO-ROTULO
100
AcDbText
 10
385.0
 20
46.6
 30
0.0
 40
2.5
  1
SAE 1010 e=0,9
  7
ISO3098
 72
1
 11
385.0
 21
46.6
 31
0.0
100
AcDbText
 73
2
  0
LWPOLYLINE
  5
AE
330
17
100
AcDbEntity
  8
10-ROTULO
100
AcDbPolyline
 90
4
 70
1
 10
360.0
 20
33.0
 10
382.0
 20
33.0
 10
382.0
 20
43.0
 10
360.0
 20
43.0
  0
TEXT
  5
AF
330
17
100
AcDbEntity
  8
11-TEXTO-ROTULO
100
AcDbText
 10
361.0
 20
42.0
 30
0.0
 40
1.8
  1
Edición
  7
ISO3098
 11
361.0
 21
42.0
 31
0.0
100
AcDbText
 73
3
  0
TEXT
  5
B0
330
17
100
AcDbEntity
  8
11-TEXTO-ROTULO
100
AcDbText
 10
371.0
 20
36.6
 30
0.0
 40
3.5
  1
0
  7
ISO3098
 72
1
 11
371.0
 21
36.6
 31
0.0
100
AcDbText
 73
2
  0
LWPOLYLINE
  5
B1
330
17
100
AcDbEntity
  8
10-ROTULO
100
AcDbPolyline
 90
4
 70
1
 10
382.0
 20
33.0
 10
410.0
 20
33.0
 10
410.0
 20
43.0
 10
382.0
 20
43.0
  0
TEXT
  5
B2
330
17
100
AcDbEntity
  8
11-TEXTO-ROTULO
100
AcDbText
 10
383.0
 20
42.0
 30
0.0
 40
1.8
  1
Fecha de emisión
  7
ISO3098
 11
383.0
 21
42.0
 31
0.0
100
AcDbText
 73
3
  0
TEXT
  5
B3
330
17
100
AcDbEntity
  8
11-TEXTO-ROTULO
100
AcDbText
 10
396.0
 20
36.6
 30
0.0
 40
2.5
  1
28/09/2026
  7
ISO3098
 72
1
 11
396.0
 21
36.6
 31
0.0
100
AcDbText
 73
2
  0
LWPOLYLINE
  5
B4
330
17
100
AcDbEntity
  8
10-ROTULO
100
AcDbPolyline
 90
4
 70
1
 10
360.0
 20
23.0
 10
382.0
 20
23.0
 10
382.0
 20
33.0
 10
360.0
 20
33.0
  0
TEXT
  5
B5
330
17
100
AcDbEntity
  8
11-TEXTO-ROTULO
100
AcDbText
 10
361.0
 20
32.0
 30
0.0
 40
1.8
  1
Hoja
  7
ISO3098
 11
361.0
 21
32.0
 31
0.0
100
AcDbText
 73
3
  0
TEXT
  5
B6
330
17
100
AcDbEntity
  8
11-TEXTO-ROTULO
100
AcDbText
 10
371.0
 20
26.6
 30
0.0
 40
3.5
  1
1 / 1
  7
ISO3098
 72
1
 11
371.0
 21
26.6
 31
0.0
100
AcDbText
 73
2
  0
LWPOLYLINE
  5
B7
330
17
100
AcDbEntity
  8
10-ROTULO
100
AcDbPolyline
 90
4
 70
1
 10
382.0
 20
23.0
 10
410.0
 20
23.0
 10
410.0
 20
33.0
 10
382.0
 20
33.0
  0
TEXT
  5
B8
330
17
100
AcDbEntity
  8
11-TEXTO-ROTULO
100
AcDbText
 10
383.0
 20
32.0
 30
0.0
 40
1.8
  1
Idioma
  7
ISO3098
 11
383.0
 21
32.0
 31
0.0
100
AcDbText
 73
3
  0
TEXT
  5
B9
330
17
100
AcDbEntity
  8
11-TEXTO-ROTULO
100
AcDbText
 10
396.0
 20
26.6
 30
0.0
 40
3.5
  1
es
  7
ISO3098
 72
1
 11
396.0
 21
26.6
 31
0.0
100
AcDbText
 73
2
  0
LWPOLYLINE
  5
BA
330
17
100
AcDbEntity
  8
10-ROTULO
100
AcDbPolyline
 90
4
 70
1
 10
360.0
 20
10.0
 10
410.0
 20
10.0
 10
410.0
 20
23.0
 10
360.0
 20
23.0
  0
TEXT
  5
BB
330
17
100
AcDbEntity
  8
11-TEXTO-ROTULO
100
AcDbText
 10
361.0
 20
22.0
 30
0.0
 40
1.8
  1
N° de plano
  7
ISO3098
 11
361.0
 21
22.0
 31
0.0
100
AcDbText
 73
3
  0
TEXT
  5
BC
330
17
100
AcDbEntity
  8
11-TEXTO-ROTULO
100
AcDbText
 10
385.0
 20
15.1
 30
0.0
 40
5.0
  1
FL_ACC_03
  7
ISO3098
 72
1
 11
385.0
 21
15.1
 31
0.0
100
AcDbText
 73
2
  0
LWPOLYLINE
  5
BD
330
17
100
AcDbEntity
  8
07-RECUADRO
100
AcDbPolyline
 90
4
 70
1
 10
235.0
 20
10.0
 10
410.0
 20
10.0
 10
410.0
 20
61.0
 10
235.0
 20
61.0
  0
LINE
  5
BE
330
17
100
AcDbEntity
  8
02-OCULTA
100
AcDbLine
 10
97.8
 20
161.60000000000002
 30
0.0
 11
97.8
 21
236.60000000000002
 31
0.0
  0
LINE
  5
BF
330
17
100
AcDbEntity
  8
02-OCULTA
100
AcDbLine
 10
97.8
 20
162.60000000000002
 30
0.0
 11
97.8
 21
235.60000000000002
 31
0.0
  0
LINE
  5
C0
330
17
100
AcDbEntity
  8
02-OCULTA
100
AcDbLine
 10
97.8
 20
161.60000000000002
 30
0.0
 11
127.8
 21
161.60000000000002
 31
0.0
  0
LINE
  5
C1
330
17
100
AcDbEntity
  8
02-OCULTA
100
AcDbLine
 10
127.8
 20
161.60000000000002
 30
0.0
 11
127.8
 21
236.60000000000002
 31
0.0
  0
LINE
  5
C2
330
17
100
AcDbEntity
  8
02-OCULTA
100
AcDbLine
 10
97.8
 20
236.60000000000002
 30
0.0
 11
127.8
 21
236.60000000000002
 31
0.0
  0
LINE
  5
C3
330
17
100
AcDbEntity
  8
02-OCULTA
100
AcDbLine
 10
97.89
 20
236.51000000000005
 30
0.0
 11
127.71
 21
236.51000000000005
 31
0.0
  0
LINE
  5
C4
330
17
100
AcDbEntity
  8
02-OCULTA
100
AcDbLine
 10
127.71000000000001
 20
236.51000000000005
 30
0.0
 11
127.71000000000001
 21
161.69000000000003
 31
0.0
  0
LINE
  5
C5
330
17
100
AcDbEntity
  8
02-OCULTA
100
AcDbLine
 10
97.89
 20
161.69000000000003
 30
0.0
 11
127.71
 21
161.69000000000003
 31
0.0
  0
LINE
  5
C6
330
17
100
AcDbEntity
  8
02-OCULTA
100
AcDbLine
 10
97.89
 20
236.51000000000005
 30
0.0
 11
97.89
 21
161.69000000000003
 31
0.0
  0
LINE
  5
C7
330
17
100
AcDbEntity
  8
02-OCULTA
100
AcDbLine
 10
97.89
 20
161.69000000000003
 30
0.0
 11
97.89
 21
236.51000000000005
 31
0.0
  0
LINE
  5
C8
330
17
100
AcDbEntity
  8
02-OCULTA
100
AcDbLine
 10
97.89
 20
161.69000000000003
 30
0.0
 11
127.71
 21
161.69000000000003
 31
0.0
  0
LINE
  5
C9
330
17
100
AcDbEntity
  8
02-OCULTA
100
AcDbLine
 10
127.71
 20
161.69000000000003
 30
0.0
 11
127.71
 21
236.51000000000005
 31
0.0
  0
LINE
  5
CA
330
17
100
AcDbEntity
  8
02-OCULTA
100
AcDbLine
 10
97.89
 20
236.51000000000005
 30
0.0
 11
127.71
 21
236.51000000000005
 31
0.0
  0
LINE
  5
CB
330
17
100
AcDbEntity
  8
02-OCULTA
100
AcDbLine
 10
110.8
 20
161.69000000000003
 30
0.0
 11
106.8
 21
161.69000000000003
 31
0.0
  0
LINE
  5
CC
330
17
100
AcDbEntity
  8
02-OCULTA
100
AcDbLine
 10
110.8
 20
161.69000000000003
 30
0.0
 11
106.8
 21
161.69000000000003
 31
0.0
  0
LINE
  5
CD
330
17
100
AcDbEntity
  8
02-OCULTA
100
AcDbLine
 10
118.8
 20
161.69000000000003
 30
0.0
 11
114.8
 21
161.69000000000003
 31
0.0
  0
LINE
  5
CE
330
17
100
AcDbEntity
  8
02-OCULTA
100
AcDbLine
 10
118.8
 20
161.69000000000003
 30
0.0
 11
114.8
 21
161.69000000000003
 31
0.0
  0
LINE
  5
CF
330
17
100
AcDbEntity
  8
02-OCULTA
100
AcDbLine
 10
114.8
 20
161.60000000000002
 30
0.0
 11
114.8
 21
161.69000000000003
 31
0.0
  0
LINE
  5
D0
330
17
100
AcDbEntity
  8
02-OCULTA
100
AcDbLine
 10
114.8
 20
161.60000000000002
 30
0.0
 11
114.8
 21
161.69000000000003
 31
0.0
  0
LINE
  5
D1
330
17
100
AcDbEntity
  8
02-OCULTA
100
AcDbLine
 10
118.8
 20
161.60000000000002
 30
0.0
 11
118.8
 21
161.69000000000003
 31
0.0
  0
LINE
  5
D2
330
17
100
AcDbEntity
  8
02-OCULTA
100
AcDbLine
 10
118.8
 20
161.60000000000002
 30
0.0
 11
114.8
 21
161.60000000000002
 31
0.0
  0
LINE
  5
D3
330
17
100
AcDbEntity
  8
02-OCULTA
100
AcDbLine
 10
118.8
 20
161.60000000000002
 30
0.0
 11
118.8
 21
161.69000000000003
 31
0.0
  0
LINE
  5
D4
330
17
100
AcDbEntity
  8
02-OCULTA
100
AcDbLine
 10
118.8
 20
161.60000000000002
 30
0.0
 11
114.8
 21
161.60000000000002
 31
0.0
  0
LINE
  5
D5
330
17
100
AcDbEntity
  8
02-OCULTA
100
AcDbLine
 10
110.8
 20
161.60000000000002
 30
0.0
 11
110.8
 21
161.69000000000003
 31
0.0
  0
LINE
  5
D6
330
17
100
AcDbEntity
  8
02-OCULTA
100
AcDbLine
 10
106.8
 20
161.60000000000002
 30
0.0
 11
106.8
 21
161.69000000000003
 31
0.0
  0
LINE
  5
D7
330
17
100
AcDbEntity
  8
02-OCULTA
100
AcDbLine
 10
110.8
 20
161.60000000000002
 30
0.0
 11
106.8
 21
161.60000000000002
 31
0.0
  0
LINE
  5
D8
330
17
100
AcDbEntity
  8
02-OCULTA
100
AcDbLine
 10
106.8
 20
161.60000000000002
 30
0.0
 11
106.8
 21
161.69000000000003
 31
0.0
  0
LINE
  5
D9
330
17
100
AcDbEntity
  8
02-OCULTA
100
AcDbLine
 10
110.8
 20
161.60000000000002
 30
0.0
 11
110.8
 21
161.69000000000003
 31
0.0
  0
LINE
  5
DA
330
17
100
AcDbEntity
  8
02-OCULTA
100
AcDbLine
 10
110.8
 20
161.60000000000002
 30
0.0
 11
106.8
 21
161.60000000000002
 31
0.0
  0
LINE
  5
DB
330
17
100
AcDbEntity
  8
02-OCULTA
100
AcDbLine
 10
110.8
 20
236.51000000000005
 30
0.0
 11
106.8
 21
236.51000000000005
 31
0.0
  0
LINE
  5
DC
330
17
100
AcDbEntity
  8
02-OCULTA
100
AcDbLine
 10
110.8
 20
236.51000000000005
 30
0.0
 11
106.8
 21
236.51000000000005
 31
0.0
  0
LINE
  5
DD
330
17
100
AcDbEntity
  8
02-OCULTA
100
AcDbLine
 10
118.8
 20
236.51000000000005
 30
0.0
 11
114.8
 21
236.51000000000005
 31
0.0
  0
LINE
  5
DE
330
17
100
AcDbEntity
  8
02-OCULTA
100
AcDbLine
 10
118.8
 20
236.51000000000005
 30
0.0
 11
114.8
 21
236.51000000000005
 31
0.0
  0
LINE
  5
DF
330
17
100
AcDbEntity
  8
02-OCULTA
100
AcDbLine
 10
114.8
 20
236.51000000000005
 30
0.0
 11
114.8
 21
236.60000000000002
 31
0.0
  0
LINE
  5
E0
330
17
100
AcDbEntity
  8
02-OCULTA
100
AcDbLine
 10
114.8
 20
236.51000000000005
 30
0.0
 11
114.8
 21
236.60000000000002
 31
0.0
  0
LINE
  5
E1
330
17
100
AcDbEntity
  8
02-OCULTA
100
AcDbLine
 10
118.8
 20
236.51000000000005
 30
0.0
 11
118.8
 21
236.60000000000002
 31
0.0
  0
LINE
  5
E2
330
17
100
AcDbEntity
  8
02-OCULTA
100
AcDbLine
 10
118.8
 20
236.60000000000002
 30
0.0
 11
114.8
 21
236.60000000000002
 31
0.0
  0
LINE
  5
E3
330
17
100
AcDbEntity
  8
02-OCULTA
100
AcDbLine
 10
118.8
 20
236.51000000000005
 30
0.0
 11
118.8
 21
236.60000000000002
 31
0.0
  0
LINE
  5
E4
330
17
100
AcDbEntity
  8
02-OCULTA
100
AcDbLine
 10
118.8
 20
236.60000000000002
 30
0.0
 11
114.8
 21
236.60000000000002
 31
0.0
  0
LINE
  5
E5
330
17
100
AcDbEntity
  8
02-OCULTA
100
AcDbLine
 10
110.8
 20
236.51000000000005
 30
0.0
 11
110.8
 21
236.60000000000002
 31
0.0
  0
LINE
  5
E6
330
17
100
AcDbEntity
  8
02-OCULTA
100
AcDbLine
 10
110.8
 20
236.60000000000002
 30
0.0
 11
106.8
 21
236.60000000000002
 31
0.0
  0
LINE
  5
E7
330
17
100
AcDbEntity
  8
02-OCULTA
100
AcDbLine
 10
106.8
 20
236.51000000000005
 30
0.0
 11
106.8
 21
236.60000000000002
 31
0.0
  0
LINE
  5
E8
330
17
100
AcDbEntity
  8
02-OCULTA
100
AcDbLine
 10
106.8
 20
236.51000000000005
 30
0.0
 11
106.8
 21
236.60000000000002
 31
0.0
  0
LINE
  5
E9
330
17
100
AcDbEntity
  8
02-OCULTA
100
AcDbLine
 10
110.8
 20
236.51000000000005
 30
0.0
 11
110.8
 21
236.60000000000002
 31
0.0
  0
LINE
  5
EA
330
17
100
AcDbEntity
  8
02-OCULTA
100
AcDbLine
 10
110.8
 20
236.60000000000002
 30
0.0
 11
106.8
 21
236.60000000000002
 31
0.0
  0
LINE
  5
EB
330
17
100
AcDbEntity
  8
02-OCULTA
100
AcDbLine
 10
124.8
 20
203.10000000000002
 30
0.0
 11
125.8
 21
203.10000000000002
 31
0.0
  0
LINE
  5
EC
330
17
100
AcDbEntity
  8
02-OCULTA
100
AcDbLine
 10
125.8
 20
195.10000000000002
 30
0.0
 11
125.8
 21
203.10000000000002
 31
0.0
  0
LINE
  5
ED
330
17
100
AcDbEntity
  8
02-OCULTA
100
AcDbLine
 10
124.8
 20
195.10000000000002
 30
0.0
 11
125.8
 21
195.10000000000002
 31
0.0
  0
LINE
  5
EE
330
17
100
AcDbEntity
  8
02-OCULTA
100
AcDbLine
 10
124.8
 20
195.10000000000002
 30
0.0
 11
124.8
 21
203.10000000000002
 31
0.0
  0
LINE
  5
EF
330
17
100
AcDbEntity
  8
02-OCULTA
100
AcDbLine
 10
102.8
 20
186.60000000000002
 30
0.0
 11
122.8
 21
186.60000000000002
 31
0.0
  0
LINE
  5
F0
330
17
100
AcDbEntity
  8
02-OCULTA
100
AcDbLine
 10
97.89
 20
161.69000000000003
 30
0.0
 11
127.71
 21
161.69000000000003
 31
0.0
  0
LINE
  5
F1
330
17
100
AcDbEntity
  8
02-OCULTA
100
AcDbLine
 10
127.71
 20
161.69000000000003
 30
0.0
 11
127.71
 21
236.51000000000005
 31
0.0
  0
LINE
  5
F2
330
17
100
AcDbEntity
  8
02-OCULTA
100
AcDbLine
 10
97.89
 20
161.69000000000003
 30
0.0
 11
97.89
 21
236.51000000000005
 31
0.0
  0
LINE
  5
F3
330
17
100
AcDbEntity
  8
02-OCULTA
100
AcDbLine
 10
97.89
 20
236.51000000000005
 30
0.0
 11
127.71
 21
236.51000000000005
 31
0.0
  0
LINE
  5
F4
330
17
100
AcDbEntity
  8
02-OCULTA
100
AcDbLine
 10
102.8
 20
226.60000000000002
 30
0.0
 11
122.8
 21
226.60000000000002
 31
0.0
  0
LINE
  5
F5
330
17
100
AcDbEntity
  8
02-OCULTA
100
AcDbLine
 10
122.8
 20
226.60000000000002
 30
0.0
 11
122.8
 21
186.60000000000002
 31
0.0
  0
LINE
  5
F6
330
17
100
AcDbEntity
  8
02-OCULTA
100
AcDbLine
 10
102.8
 20
226.60000000000002
 30
0.0
 11
102.8
 21
186.60000000000002
 31
0.0
  0
LINE
  5
F7
330
17
100
AcDbEntity
  8
02-OCULTA
100
AcDbLine
 10
97.89
 20
236.51000000000005
 30
0.0
 11
127.71
 21
236.51000000000005
 31
0.0
  0
LINE
  5
F8
330
17
100
AcDbEntity
  8
02-OCULTA
100
AcDbLine
 10
97.89
 20
236.51000000000005
 30
0.0
 11
97.89
 21
161.69000000000003
 31
0.0
  0
LINE
  5
F9
330
17
100
AcDbEntity
  8
02-OCULTA
100
AcDbLine
 10
97.89
 20
161.69000000000003
 30
0.0
 11
127.71
 21
161.69000000000003
 31
0.0
  0
LINE
  5
FA
330
17
100
AcDbEntity
  8
02-OCULTA
100
AcDbLine
 10
127.71000000000001
 20
236.51000000000005
 30
0.0
 11
127.71000000000001
 21
161.69000000000003
 31
0.0
  0
LINE
  5
FB
330
17
100
AcDbEntity
  8
02-OCULTA
100
AcDbLine
 10
102.3
 20
186.10000000000002
 30
0.0
 11
102.3
 21
227.10000000000002
 31
0.0
  0
LINE
  5
FC
330
17
100
AcDbEntity
  8
02-OCULTA
100
AcDbLine
 10
102.3
 20
186.10000000000002
 30
0.0
 11
102.3
 21
227.10000000000002
 31
0.0
  0
LINE
  5
FD
330
17
100
AcDbEntity
  8
02-OCULTA
100
AcDbLine
 10
102.3
 20
186.10000000000002
 30
0.0
 11
123.3
 21
186.10000000000002
 31
0.0
  0
LINE
  5
FE
330
17
100
AcDbEntity
  8
02-OCULTA
100
AcDbLine
 10
102.3
 20
186.10000000000002
 30
0.0
 11
123.3
 21
186.10000000000002
 31
0.0
  0
LINE
  5
FF
330
17
100
AcDbEntity
  8
02-OCULTA
100
AcDbLine
 10
123.3
 20
186.10000000000002
 30
0.0
 11
123.3
 21
227.10000000000002
 31
0.0
  0
LINE
  5
100
330
17
100
AcDbEntity
  8
02-OCULTA
100
AcDbLine
 10
123.3
 20
186.10000000000002
 30
0.0
 11
123.3
 21
227.10000000000002
 31
0.0
  0
LINE
  5
101
330
17
100
AcDbEntity
  8
02-OCULTA
100
AcDbLine
 10
102.3
 20
227.10000000000002
 30
0.0
 11
123.3
 21
227.10000000000002
 31
0.0
  0
LINE
  5
102
330
17
100
AcDbEntity
  8
02-OCULTA
100
AcDbLine
 10
102.3
 20
227.10000000000002
 30
0.0
 11
123.3
 21
227.10000000000002
 31
0.0
  0
LWPOLYLINE
  5
103
330
17
100
AcDbEntity
  8
02-OCULTA
100
AcDbPolyline
 90
21
 70
0
 10
97.8
 20
235.60000000000002
 10
97.75999999999999
 20
235.60000000000002
 10
97.72
 20
235.60000000000002
 10
97.67999999999999
 20
235.60000000000002
 10
97.64
 20
235.60000000000002
 10
97.6
 20
235.60000000000002
 10
97.56
 20
235.60000000000002
 10
97.52
 20
235.60000000000002
 10
97.47999999999999
 20
235.60000000000002
 10
97.44
 20
235.60000000000002
 10
97.39999999999999
 20
235.60000000000002
 10
97.36
 20
235.60000000000002
 10
97.32
 20
235.60000000000002
 10
97.28
 20
235.60000000000002
 10
97.24
 20
235.60000000000002
 10
97.19999999999999
 20
235.60000000000002
 10
97.16
 20
235.60000000000002
 10
97.11999999999999
 20
235.60000000000002
 10
97.08
 20
235.60000000000002
 10
97.03999999999999
 20
235.60000000000002
 10
97.0
 20
235.60000000000002
  0
LWPOLYLINE
  5
104
330
17
100
AcDbEntity
  8
02-OCULTA
100
AcDbPolyline
 90
21
 70
0
 10
97.8
 20
162.60000000000002
 10
97.75999999999999
 20
162.60000000000002
 10
97.72
 20
162.60000000000002
 10
97.67999999999999
 20
162.60000000000002
 10
97.64
 20
162.60000000000002
 10
97.6
 20
162.60000000000002
 10
97.56
 20
162.60000000000002
 10
97.52
 20
162.60000000000002
 10
97.47999999999999
 20
162.60000000000002
 10
97.44
 20
162.60000000000002
 10
97.39999999999999
 20
162.60000000000002
 10
97.36
 20
162.60000000000002
 10
97.32
 20
162.60000000000002
 10
97.28
 20
162.60000000000002
 10
97.24
 20
162.60000000000002
 10
97.19999999999999
 20
162.60000000000002
 10
97.16
 20
162.60000000000002
 10
97.11999999999999
 20
162.60000000000002
 10
97.08
 20
162.60000000000002
 10
97.03999999999999
 20
162.60000000000002
 10
97.0
 20
162.60000000000002
  0
LINE
  5
105
330
17
100
AcDbEntity
  8
01-VISIBLE
100
AcDbLine
 10
97.8
 20
161.60000000000002
 30
0.0
 11
97.8
 21
236.60000000000002
 31
0.0
  0
LINE
  5
106
330
17
100
AcDbEntity
  8
01-VISIBLE
100
AcDbLine
 10
127.8
 20
161.60000000000002
 30
0.0
 11
127.8
 21
236.60000000000002
 31
0.0
  0
LINE
  5
107
330
17
100
AcDbEntity
  8
01-VISIBLE
100
AcDbLine
 10
97.8
 20
161.60000000000002
 30
0.0
 11
127.8
 21
161.60000000000002
 31
0.0
  0
LINE
  5
108
330
17
100
AcDbEntity
  8
01-VISIBLE
100
AcDbLine
 10
97.8
 20
236.60000000000002
 30
0.0
 11
127.8
 21
236.60000000000002
 31
0.0
  0
LINE
  5
109
330
17
100
AcDbEntity
  8
01-VISIBLE
100
AcDbLine
 10
102.8
 20
226.60000000000002
 30
0.0
 11
122.8
 21
226.60000000000002
 31
0.0
  0
LINE
  5
10A
330
17
100
AcDbEntity
  8
01-VISIBLE
100
AcDbLine
 10
102.8
 20
226.60000000000002
 30
0.0
 11
102.8
 21
186.60000000000002
 31
0.0
  0
LINE
  5
10B
330
17
100
AcDbEntity
  8
01-VISIBLE
100
AcDbLine
 10
122.8
 20
226.60000000000002
 30
0.0
 11
122.8
 21
186.60000000000002
 31
0.0
  0
LINE
  5
10C
330
17
100
AcDbEntity
  8
01-VISIBLE
100
AcDbLine
 10
102.8
 20
186.60000000000002
 30
0.0
 11
122.8
 21
186.60000000000002
 31
0.0
  0
LINE
  5
10D
330
17
100
AcDbEntity
  8
01-VISIBLE
100
AcDbLine
 10
124.8
 20
195.10000000000002
 30
0.0
 11
124.8
 21
203.10000000000002
 31
0.0
  0
LINE
  5
10E
330
17
100
AcDbEntity
  8
01-VISIBLE
100
AcDbLine
 10
124.8
 20
195.10000000000002
 30
0.0
 11
125.8
 21
195.10000000000002
 31
0.0
  0
LINE
  5
10F
330
17
100
AcDbEntity
  8
01-VISIBLE
100
AcDbLine
 10
125.8
 20
195.10000000000002
 30
0.0
 11
125.8
 21
203.10000000000002
 31
0.0
  0
LINE
  5
110
330
17
100
AcDbEntity
  8
01-VISIBLE
100
AcDbLine
 10
124.8
 20
203.10000000000002
 30
0.0
 11
125.8
 21
203.10000000000002
 31
0.0
  0
LWPOLYLINE
  5
111
330
17
100
AcDbEntity
  8
01-VISIBLE
100
AcDbPolyline
 90
21
 70
0
 10
97.0
 20
235.60000000000002
 10
97.03999999999999
 20
235.60000000000002
 10
97.08
 20
235.60000000000002
 10
97.11999999999999
 20
235.60000000000002
 10
97.16
 20
235.60000000000002
 10
97.19999999999999
 20
235.60000000000002
 10
97.24
 20
235.60000000000002
 10
97.28
 20
235.60000000000002
 10
97.32
 20
235.60000000000002
 10
97.36
 20
235.60000000000002
 10
97.39999999999999
 20
235.60000000000002
 10
97.44
 20
235.60000000000002
 10
97.47999999999999
 20
235.60000000000002
 10
97.52
 20
235.60000000000002
 10
97.56
 20
235.60000000000002
 10
97.6
 20
235.60000000000002
 10
97.64
 20
235.60000000000002
 10
97.67999999999999
 20
235.60000000000002
 10
97.72
 20
235.60000000000002
 10
97.75999999999999
 20
235.60000000000002
 10
97.8
 20
235.60000000000002
  0
LWPOLYLINE
  5
112
330
17
100
AcDbEntity
  8
01-VISIBLE
100
AcDbPolyline
 90
21
 70
0
 10
97.0
 20
162.60000000000002
 10
97.03999999999999
 20
162.60000000000002
 10
97.08
 20
162.60000000000002
 10
97.11999999999999
 20
162.60000000000002
 10
97.16
 20
162.60000000000002
 10
97.19999999999999
 20
162.60000000000002
 10
97.24
 20
162.60000000000002
 10
97.28
 20
162.60000000000002
 10
97.32
 20
162.60000000000002
 10
97.36
 20
162.60000000000002
 10
97.39999999999999
 20
162.60000000000002
 10
97.44
 20
162.60000000000002
 10
97.47999999999999
 20
162.60000000000002
 10
97.52
 20
162.60000000000002
 10
97.56
 20
162.60000000000002
 10
97.6
 20
162.60000000000002
 10
97.64
 20
162.60000000000002
 10
97.67999999999999
 20
162.60000000000002
 10
97.72
 20
162.60000000000002
 10
97.75999999999999
 20
162.60000000000002
 10
97.8
 20
162.60000000000002
  0
LINE
  5
113
330
17
100
AcDbEntity
  8
01-VISIBLE
100
AcDbLine
 10
97.0
 20
162.60000000000002
 30
0.0
 11
97.0
 21
235.60000000000002
 31
0.0
  0
LINE
  5
114
330
17
100
AcDbEntity
  8
02-OCULTA
100
AcDbLine
 10
97.8
 20
136.60000000000002
 30
0.0
 11
97.8
 21
112.60000000000002
 31
0.0
  0
LINE
  5
115
330
17
100
AcDbEntity
  8
02-OCULTA
100
AcDbLine
 10
97.8
 20
136.60000000000002
 30
0.0
 11
127.8
 21
136.60000000000002
 31
0.0
  0
LINE
  5
116
330
17
100
AcDbEntity
  8
02-OCULTA
100
AcDbLine
 10
97.89
 20
136.60000000000002
 30
0.0
 11
127.71
 21
136.60000000000002
 31
0.0
  0
LINE
  5
117
330
17
100
AcDbEntity
  8
02-OCULTA
100
AcDbLine
 10
97.89
 20
136.60000000000002
 30
0.0
 11
127.71
 21
136.60000000000002
 31
0.0
  0
LINE
  5
118
330
17
100
AcDbEntity
  8
02-OCULTA
100
AcDbLine
 10
97.89
 20
114.69000000000003
 30
0.0
 11
97.89
 21
136.60000000000002
 31
0.0
  0
LINE
  5
119
330
17
100
AcDbEntity
  8
02-OCULTA
100
AcDbLine
 10
97.89
 20
114.69000000000003
 30
0.0
 11
97.89
 21
136.60000000000002
 31
0.0
  0
LINE
  5
11A
330
17
100
AcDbEntity
  8
02-OCULTA
100
AcDbLine
 10
97.89
 20
114.69000000000003
 30
0.0
 11
127.71
 21
114.69000000000003
 31
0.0
  0
LINE
  5
11B
330
17
100
AcDbEntity
  8
02-OCULTA
100
AcDbLine
 10
97.89
 20
114.69000000000003
 30
0.0
 11
127.71
 21
114.69000000000003
 31
0.0
  0
LINE
  5
11C
330
17
100
AcDbEntity
  8
02-OCULTA
100
AcDbLine
 10
127.71
 20
114.69000000000003
 30
0.0
 11
127.71
 21
136.60000000000002
 31
0.0
  0
LINE
  5
11D
330
17
100
AcDbEntity
  8
02-OCULTA
100
AcDbLine
 10
114.8
 20
125.35000000000002
 30
0.0
 11
114.8
 21
125.85000000000002
 31
0.0
  0
LINE
  5
11E
330
17
100
AcDbEntity
  8
02-OCULTA
100
AcDbLine
 10
118.8
 20
125.85000000000002
 30
0.0
 11
114.8
 21
125.85000000000002
 31
0.0
  0
LINE
  5
11F
330
17
100
AcDbEntity
  8
02-OCULTA
100
AcDbLine
 10
118.8
 20
125.35000000000002
 30
0.0
 11
118.8
 21
125.85000000000002
 31
0.0
  0
LINE
  5
120
330
17
100
AcDbEntity
  8
02-OCULTA
100
AcDbLine
 10
118.8
 20
125.35000000000002
 30
0.0
 11
114.8
 21
125.35000000000002
 31
0.0
  0
LINE
  5
121
330
17
100
AcDbEntity
  8
02-OCULTA
100
AcDbLine
 10
110.8
 20
125.85000000000002
 30
0.0
 11
106.8
 21
125.85000000000002
 31
0.0
  0
LINE
  5
122
330
17
100
AcDbEntity
  8
02-OCULTA
100
AcDbLine
 10
106.8
 20
125.35000000000002
 30
0.0
 11
106.8
 21
125.85000000000002
 31
0.0
  0
LINE
  5
123
330
17
100
AcDbEntity
  8
02-OCULTA
100
AcDbLine
 10
110.8
 20
125.35000000000002
 30
0.0
 11
110.8
 21
125.85000000000002
 31
0.0
  0
LINE
  5
124
330
17
100
AcDbEntity
  8
02-OCULTA
100
AcDbLine
 10
110.8
 20
125.35000000000002
 30
0.0
 11
106.8
 21
125.35000000000002
 31
0.0
  0
LINE
  5
125
330
17
100
AcDbEntity
  8
02-OCULTA
100
AcDbLine
 10
127.71
 20
114.69000000000003
 30
0.0
 11
127.71
 21
136.60000000000002
 31
0.0
  0
LINE
  5
126
330
17
100
AcDbEntity
  8
02-OCULTA
100
AcDbLine
 10
110.8
 20
125.35000000000002
 30
0.0
 11
106.8
 21
125.35000000000002
 31
0.0
  0
LINE
  5
127
330
17
100
AcDbEntity
  8
02-OCULTA
100
AcDbLine
 10
110.8
 20
125.35000000000002
 30
0.0
 11
110.8
 21
125.85000000000002
 31
0.0
  0
LINE
  5
128
330
17
100
AcDbEntity
  8
02-OCULTA
100
AcDbLine
 10
106.8
 20
125.35000000000002
 30
0.0
 11
106.8
 21
125.85000000000002
 31
0.0
  0
LINE
  5
129
330
17
100
AcDbEntity
  8
02-OCULTA
100
AcDbLine
 10
110.8
 20
125.85000000000002
 30
0.0
 11
106.8
 21
125.85000000000002
 31
0.0
  0
LINE
  5
12A
330
17
100
AcDbEntity
  8
02-OCULTA
100
AcDbLine
 10
118.8
 20
125.35000000000002
 30
0.0
 11
114.8
 21
125.35000000000002
 31
0.0
  0
LINE
  5
12B
330
17
100
AcDbEntity
  8
02-OCULTA
100
AcDbLine
 10
118.8
 20
125.35000000000002
 30
0.0
 11
118.8
 21
125.85000000000002
 31
0.0
  0
LINE
  5
12C
330
17
100
AcDbEntity
  8
02-OCULTA
100
AcDbLine
 10
118.8
 20
125.85000000000002
 30
0.0
 11
114.8
 21
125.85000000000002
 31
0.0
  0
LINE
  5
12D
330
17
100
AcDbEntity
  8
02-OCULTA
100
AcDbLine
 10
114.8
 20
125.35000000000002
 30
0.0
 11
114.8
 21
125.85000000000002
 31
0.0
  0
LINE
  5
12E
330
17
100
AcDbEntity
  8
02-OCULTA
100
AcDbLine
 10
127.8
 20
136.60000000000002
 30
0.0
 11
127.8
 21
112.60000000000002
 31
0.0
  0
LINE
  5
12F
330
17
100
AcDbEntity
  8
02-OCULTA
100
AcDbLine
 10
97.8
 20
112.60000000000002
 30
0.0
 11
127.8
 21
112.60000000000002
 31
0.0
  0
LINE
  5
130
330
17
100
AcDbEntity
  8
02-OCULTA
100
AcDbLine
 10
102.8
 20
112.60000000000002
 30
0.0
 11
122.8
 21
112.60000000000002
 31
0.0
  0
LINE
  5
131
330
17
100
AcDbEntity
  8
02-OCULTA
100
AcDbLine
 10
102.8
 20
112.60000000000002
 30
0.0
 11
122.8
 21
112.60000000000002
 31
0.0
  0
LINE
  5
132
330
17
100
AcDbEntity
  8
02-OCULTA
100
AcDbLine
 10
124.8
 20
112.60000000000002
 30
0.0
 11
125.8
 21
112.60000000000002
 31
0.0
  0
LINE
  5
133
330
17
100
AcDbEntity
  8
02-OCULTA
100
AcDbLine
 10
124.8
 20
112.60000000000002
 30
0.0
 11
125.8
 21
112.60000000000002
 31
0.0
  0
LINE
  5
134
330
17
100
AcDbEntity
  8
02-OCULTA
100
AcDbLine
 10
124.8
 20
111.40000000000002
 30
0.0
 11
124.8
 21
112.60000000000002
 31
0.0
  0
LINE
  5
135
330
17
100
AcDbEntity
  8
02-OCULTA
100
AcDbLine
 10
124.8
 20
111.40000000000002
 30
0.0
 11
125.8
 21
111.40000000000002
 31
0.0
  0
LINE
  5
136
330
17
100
AcDbEntity
  8
02-OCULTA
100
AcDbLine
 10
125.8
 20
111.40000000000002
 30
0.0
 11
125.8
 21
112.60000000000002
 31
0.0
  0
LINE
  5
137
330
17
100
AcDbEntity
  8
02-OCULTA
100
AcDbLine
 10
102.8
 20
112.60000000000002
 30
0.0
 11
102.8
 21
112.69000000000003
 31
0.0
  0
LINE
  5
138
330
17
100
AcDbEntity
  8
02-OCULTA
100
AcDbLine
 10
102.8
 20
112.69000000000003
 30
0.0
 11
122.8
 21
112.69000000000003
 31
0.0
  0
LINE
  5
139
330
17
100
AcDbEntity
  8
02-OCULTA
100
AcDbLine
 10
122.8
 20
112.60000000000002
 30
0.0
 11
122.8
 21
112.69000000000003
 31
0.0
  0
LINE
  5
13A
330
17
100
AcDbEntity
  8
02-OCULTA
100
AcDbLine
 10
97.89
 20
112.69000000000003
 30
0.0
 11
127.71
 21
112.69000000000003
 31
0.0
  0
LINE
  5
13B
330
17
100
AcDbEntity
  8
02-OCULTA
100
AcDbLine
 10
97.89
 20
112.69000000000003
 30
0.0
 11
127.71
 21
112.69000000000003
 31
0.0
  0
LINE
  5
13C
330
17
100
AcDbEntity
  8
02-OCULTA
100
AcDbLine
 10
102.8
 20
112.69000000000003
 30
0.0
 11
122.8
 21
112.69000000000003
 31
0.0
  0
LINE
  5
13D
330
17
100
AcDbEntity
  8
02-OCULTA
100
AcDbLine
 10
97.89
 20
112.69000000000003
 30
0.0
 11
97.89
 21
114.60000000000002
 31
0.0
  0
LINE
  5
13E
330
17
100
AcDbEntity
  8
02-OCULTA
100
AcDbLine
 10
97.89
 20
114.60000000000002
 30
0.0
 11
127.71
 21
114.60000000000002
 31
0.0
  0
LINE
  5
13F
330
17
100
AcDbEntity
  8
02-OCULTA
100
AcDbLine
 10
127.71
 20
112.69000000000003
 30
0.0
 11
127.71
 21
114.60000000000002
 31
0.0
  0
LINE
  5
140
330
17
100
AcDbEntity
  8
02-OCULTA
100
AcDbLine
 10
97.89
 20
114.60000000000002
 30
0.0
 11
127.71
 21
114.60000000000002
 31
0.0
  0
LINE
  5
141
330
17
100
AcDbEntity
  8
02-OCULTA
100
AcDbLine
 10
97.89
 20
112.69000000000003
 30
0.0
 11
97.89
 21
114.60000000000002
 31
0.0
  0
LINE
  5
142
330
17
100
AcDbEntity
  8
02-OCULTA
100
AcDbLine
 10
127.71
 20
112.69000000000003
 30
0.0
 11
127.71
 21
114.60000000000002
 31
0.0
  0
LINE
  5
143
330
17
100
AcDbEntity
  8
02-OCULTA
100
AcDbLine
 10
122.8
 20
112.60000000000002
 30
0.0
 11
122.8
 21
112.69000000000003
 31
0.0
  0
LINE
  5
144
330
17
100
AcDbEntity
  8
02-OCULTA
100
AcDbLine
 10
102.8
 20
112.60000000000002
 30
0.0
 11
102.8
 21
112.69000000000003
 31
0.0
  0
LINE
  5
145
330
17
100
AcDbEntity
  8
02-OCULTA
100
AcDbLine
 10
102.3
 20
114.20000000000002
 30
0.0
 11
102.3
 21
114.50000000000003
 31
0.0
  0
LINE
  5
146
330
17
100
AcDbEntity
  8
02-OCULTA
100
AcDbLine
 10
102.3
 20
114.20000000000002
 30
0.0
 11
102.3
 21
114.50000000000003
 31
0.0
  0
LINE
  5
147
330
17
100
AcDbEntity
  8
02-OCULTA
100
AcDbLine
 10
102.3
 20
114.50000000000003
 30
0.0
 11
123.3
 21
114.50000000000003
 31
0.0
  0
LINE
  5
148
330
17
100
AcDbEntity
  8
02-OCULTA
100
AcDbLine
 10
123.3
 20
114.20000000000002
 30
0.0
 11
123.3
 21
114.50000000000003
 31
0.0
  0
LINE
  5
149
330
17
100
AcDbEntity
  8
02-OCULTA
100
AcDbLine
 10
102.3
 20
114.20000000000002
 30
0.0
 11
123.3
 21
114.20000000000002
 31
0.0
  0
LINE
  5
14A
330
17
100
AcDbEntity
  8
02-OCULTA
100
AcDbLine
 10
123.3
 20
114.20000000000002
 30
0.0
 11
123.3
 21
114.50000000000003
 31
0.0
  0
LINE
  5
14B
330
17
100
AcDbEntity
  8
02-OCULTA
100
AcDbLine
 10
102.3
 20
114.50000000000003
 30
0.0
 11
123.3
 21
114.50000000000003
 31
0.0
  0
LINE
  5
14C
330
17
100
AcDbEntity
  8
02-OCULTA
100
AcDbLine
 10
102.3
 20
114.20000000000002
 30
0.0
 11
123.3
 21
114.20000000000002
 31
0.0
  0
CIRCLE
  5
14D
330
17
100
AcDbEntity
  8
02-OCULTA
100
AcDbCircle
 10
97.39999999999999
 20
114.20000000000002
 30
0.0
 40
0.4
  0
LINE
  5
14E
330
17
100
AcDbEntity
  8
01-VISIBLE
100
AcDbLine
 10
97.8
 20
112.60000000000002
 30
0.0
 11
97.8
 21
136.60000000000002
 31
0.0
  0
LINE
  5
14F
330
17
100
AcDbEntity
  8
01-VISIBLE
100
AcDbLine
 10
97.8
 20
136.60000000000002
 30
0.0
 11
127.8
 21
136.60000000000002
 31
0.0
  0
LINE
  5
150
330
17
100
AcDbEntity
  8
01-VISIBLE
100
AcDbLine
 10
110.8
 20
125.35000000000002
 30
0.0
 11
106.8
 21
125.35000000000002
 31
0.0
  0
LINE
  5
151
330
17
100
AcDbEntity
  8
01-VISIBLE
100
AcDbLine
 10
110.8
 20
125.35000000000002
 30
0.0
 11
110.8
 21
125.85000000000002
 31
0.0
  0
LINE
  5
152
330
17
100
AcDbEntity
  8
01-VISIBLE
100
AcDbLine
 10
106.8
 20
125.35000000000002
 30
0.0
 11
106.8
 21
125.85000000000002
 31
0.0
  0
LINE
  5
153
330
17
100
AcDbEntity
  8
01-VISIBLE
100
AcDbLine
 10
110.8
 20
125.85000000000002
 30
0.0
 11
106.8
 21
125.85000000000002
 31
0.0
  0
LINE
  5
154
330
17
100
AcDbEntity
  8
01-VISIBLE
100
AcDbLine
 10
118.8
 20
125.35000000000002
 30
0.0
 11
114.8
 21
125.35000000000002
 31
0.0
  0
LINE
  5
155
330
17
100
AcDbEntity
  8
01-VISIBLE
100
AcDbLine
 10
118.8
 20
125.35000000000002
 30
0.0
 11
118.8
 21
125.85000000000002
 31
0.0
  0
LINE
  5
156
330
17
100
AcDbEntity
  8
01-VISIBLE
100
AcDbLine
 10
118.8
 20
125.85000000000002
 30
0.0
 11
114.8
 21
125.85000000000002
 31
0.0
  0
LINE
  5
157
330
17
100
AcDbEntity
  8
01-VISIBLE
100
AcDbLine
 10
114.8
 20
125.35000000000002
 30
0.0
 11
114.8
 21
125.85000000000002
 31
0.0
  0
LINE
  5
158
330
17
100
AcDbEntity
  8
01-VISIBLE
100
AcDbLine
 10
114.8
 20
125.35000000000002
 30
0.0
 11
114.8
 21
125.85000000000002
 31
0.0
  0
LINE
  5
159
330
17
100
AcDbEntity
  8
01-VISIBLE
100
AcDbLine
 10
118.8
 20
125.85000000000002
 30
0.0
 11
114.8
 21
125.85000000000002
 31
0.0
  0
LINE
  5
15A
330
17
100
AcDbEntity
  8
01-VISIBLE
100
AcDbLine
 10
118.8
 20
125.35000000000002
 30
0.0
 11
118.8
 21
125.85000000000002
 31
0.0
  0
LINE
  5
15B
330
17
100
AcDbEntity
  8
01-VISIBLE
100
AcDbLine
 10
118.8
 20
125.35000000000002
 30
0.0
 11
114.8
 21
125.35000000000002
 31
0.0
  0
LINE
  5
15C
330
17
100
AcDbEntity
  8
01-VISIBLE
100
AcDbLine
 10
110.8
 20
125.85000000000002
 30
0.0
 11
106.8
 21
125.85000000000002
 31
0.0
  0
LINE
  5
15D
330
17
100
AcDbEntity
  8
01-VISIBLE
100
AcDbLine
 10
106.8
 20
125.35000000000002
 30
0.0
 11
106.8
 21
125.85000000000002
 31
0.0
  0
LINE
  5
15E
330
17
100
AcDbEntity
  8
01-VISIBLE
100
AcDbLine
 10
110.8
 20
125.35000000000002
 30
0.0
 11
110.8
 21
125.85000000000002
 31
0.0
  0
LINE
  5
15F
330
17
100
AcDbEntity
  8
01-VISIBLE
100
AcDbLine
 10
110.8
 20
125.35000000000002
 30
0.0
 11
106.8
 21
125.35000000000002
 31
0.0
  0
LINE
  5
160
330
17
100
AcDbEntity
  8
01-VISIBLE
100
AcDbLine
 10
127.8
 20
112.60000000000002
 30
0.0
 11
127.8
 21
136.60000000000002
 31
0.0
  0
LINE
  5
161
330
17
100
AcDbEntity
  8
01-VISIBLE
100
AcDbLine
 10
97.8
 20
112.60000000000002
 30
0.0
 11
127.8
 21
112.60000000000002
 31
0.0
  0
LINE
  5
162
330
17
100
AcDbEntity
  8
01-VISIBLE
100
AcDbLine
 10
124.8
 20
111.40000000000002
 30
0.0
 11
124.8
 21
112.60000000000002
 31
0.0
  0
LINE
  5
163
330
17
100
AcDbEntity
  8
01-VISIBLE
100
AcDbLine
 10
124.8
 20
111.40000000000002
 30
0.0
 11
125.8
 21
111.40000000000002
 31
0.0
  0
LINE
  5
164
330
17
100
AcDbEntity
  8
01-VISIBLE
100
AcDbLine
 10
125.8
 20
111.40000000000002
 30
0.0
 11
125.8
 21
112.60000000000002
 31
0.0
  0
CIRCLE
  5
165
330
17
100
AcDbEntity
  8
01-VISIBLE
100
AcDbCircle
 10
97.39999999999999
 20
114.20000000000002
 30
0.0
 40
0.4
  0
LINE
  5
166
330
17
100
AcDbEntity
  8
02-OCULTA
100
AcDbLine
 10
175.20000000000002
 20
162.60000000000002
 30
0.0
 11
175.20000000000002
 21
235.60000000000002
 31
0.0
  0
LINE
  5
167
330
17
100
AcDbEntity
  8
02-OCULTA
100
AcDbLine
 10
152.8
 20
161.60000000000002
 30
0.0
 11
152.8
 21
236.60000000000002
 31
0.0
  0
LINE
  5
168
330
17
100
AcDbEntity
  8
02-OCULTA
100
AcDbLine
 10
152.8
 20
236.51000000000005
 30
0.0
 11
152.8
 21
161.69000000000003
 31
0.0
  0
LINE
  5
169
330
17
100
AcDbEntity
  8
02-OCULTA
100
AcDbLine
 10
152.8
 20
236.51000000000005
 30
0.0
 11
152.8
 21
161.69000000000003
 31
0.0
  0
LINE
  5
16A
330
17
100
AcDbEntity
  8
02-OCULTA
100
AcDbLine
 10
174.71
 20
236.51000000000005
 30
0.0
 11
152.8
 21
236.51000000000005
 31
0.0
  0
LINE
  5
16B
330
17
100
AcDbEntity
  8
02-OCULTA
100
AcDbLine
 10
174.71
 20
161.69000000000003
 30
0.0
 11
152.8
 21
161.69000000000003
 31
0.0
  0
LINE
  5
16C
330
17
100
AcDbEntity
  8
02-OCULTA
100
AcDbLine
 10
174.71
 20
161.69000000000003
 30
0.0
 11
174.71
 21
236.51000000000005
 31
0.0
  0
LINE
  5
16D
330
17
100
AcDbEntity
  8
02-OCULTA
100
AcDbLine
 10
174.71
 20
161.69000000000003
 30
0.0
 11
174.71
 21
236.51000000000005
 31
0.0
  0
LINE
  5
16E
330
17
100
AcDbEntity
  8
02-OCULTA
100
AcDbLine
 10
174.71
 20
161.69000000000003
 30
0.0
 11
152.8
 21
161.69000000000003
 31
0.0
  0
LINE
  5
16F
330
17
100
AcDbEntity
  8
02-OCULTA
100
AcDbLine
 10
164.05
 20
161.69000000000003
 30
0.0
 11
163.55
 21
161.69000000000003
 31
0.0
  0
LINE
  5
170
330
17
100
AcDbEntity
  8
02-OCULTA
100
AcDbLine
 10
164.05
 20
161.69000000000003
 30
0.0
 11
163.55
 21
161.69000000000003
 31
0.0
  0
LINE
  5
171
330
17
100
AcDbEntity
  8
02-OCULTA
100
AcDbLine
 10
164.05
 20
161.69000000000003
 30
0.0
 11
163.55
 21
161.69000000000003
 31
0.0
  0
LINE
  5
172
330
17
100
AcDbEntity
  8
02-OCULTA
100
AcDbLine
 10
164.05
 20
161.69000000000003
 30
0.0
 11
163.55
 21
161.69000000000003
 31
0.0
  0
LINE
  5
173
330
17
100
AcDbEntity
  8
02-OCULTA
100
AcDbLine
 10
164.05
 20
161.60000000000002
 30
0.0
 11
164.05
 21
161.69000000000003
 31
0.0
  0
LINE
  5
174
330
17
100
AcDbEntity
  8
02-OCULTA
100
AcDbLine
 10
163.55
 20
161.60000000000002
 30
0.0
 11
163.55
 21
161.69000000000003
 31
0.0
  0
LINE
  5
175
330
17
100
AcDbEntity
  8
02-OCULTA
100
AcDbLine
 10
164.05
 20
161.60000000000002
 30
0.0
 11
163.55
 21
161.60000000000002
 31
0.0
  0
LINE
  5
176
330
17
100
AcDbEntity
  8
02-OCULTA
100
AcDbLine
 10
163.55
 20
161.60000000000002
 30
0.0
 11
163.55
 21
161.69000000000003
 31
0.0
  0
LINE
  5
177
330
17
100
AcDbEntity
  8
02-OCULTA
100
AcDbLine
 10
164.05
 20
161.60000000000002
 30
0.0
 11
164.05
 21
161.69000000000003
 31
0.0
  0
LINE
  5
178
330
17
100
AcDbEntity
  8
02-OCULTA
100
AcDbLine
 10
164.05
 20
161.60000000000002
 30
0.0
 11
163.55
 21
161.60000000000002
 31
0.0
  0
LINE
  5
179
330
17
100
AcDbEntity
  8
02-OCULTA
100
AcDbLine
 10
163.55
 20
161.60000000000002
 30
0.0
 11
163.55
 21
161.69000000000003
 31
0.0
  0
LINE
  5
17A
330
17
100
AcDbEntity
  8
02-OCULTA
100
AcDbLine
 10
163.55
 20
161.60000000000002
 30
0.0
 11
163.55
 21
161.69000000000003
 31
0.0
  0
LINE
  5
17B
330
17
100
AcDbEntity
  8
02-OCULTA
100
AcDbLine
 10
164.05
 20
161.60000000000002
 30
0.0
 11
164.05
 21
161.69000000000003
 31
0.0
  0
LINE
  5
17C
330
17
100
AcDbEntity
  8
02-OCULTA
100
AcDbLine
 10
164.05
 20
161.60000000000002
 30
0.0
 11
163.55
 21
161.60000000000002
 31
0.0
  0
LINE
  5
17D
330
17
100
AcDbEntity
  8
02-OCULTA
100
AcDbLine
 10
164.05
 20
161.60000000000002
 30
0.0
 11
164.05
 21
161.69000000000003
 31
0.0
  0
LINE
  5
17E
330
17
100
AcDbEntity
  8
02-OCULTA
100
AcDbLine
 10
164.05
 20
161.60000000000002
 30
0.0
 11
163.55
 21
161.60000000000002
 31
0.0
  0
LINE
  5
17F
330
17
100
AcDbEntity
  8
02-OCULTA
100
AcDbLine
 10
174.71
 20
236.51000000000005
 30
0.0
 11
152.8
 21
236.51000000000005
 31
0.0
  0
LINE
  5
180
330
17
100
AcDbEntity
  8
02-OCULTA
100
AcDbLine
 10
164.05
 20
236.51000000000005
 30
0.0
 11
163.55
 21
236.51000000000005
 31
0.0
  0
LINE
  5
181
330
17
100
AcDbEntity
  8
02-OCULTA
100
AcDbLine
 10
164.05
 20
236.51000000000005
 30
0.0
 11
163.55
 21
236.51000000000005
 31
0.0
  0
LINE
  5
182
330
17
100
AcDbEntity
  8
02-OCULTA
100
AcDbLine
 10
164.05
 20
236.51000000000005
 30
0.0
 11
163.55
 21
236.51000000000005
 31
0.0
  0
LINE
  5
183
330
17
100
AcDbEntity
  8
02-OCULTA
100
AcDbLine
 10
164.05
 20
236.51000000000005
 30
0.0
 11
163.55
 21
236.51000000000005
 31
0.0
  0
LINE
  5
184
330
17
100
AcDbEntity
  8
02-OCULTA
100
AcDbLine
 10
164.05
 20
236.51000000000005
 30
0.0
 11
164.05
 21
236.60000000000002
 31
0.0
  0
LINE
  5
185
330
17
100
AcDbEntity
  8
02-OCULTA
100
AcDbLine
 10
164.05
 20
236.60000000000002
 30
0.0
 11
163.55
 21
236.60000000000002
 31
0.0
  0
LINE
  5
186
330
17
100
AcDbEntity
  8
02-OCULTA
100
AcDbLine
 10
163.55
 20
236.51000000000005
 30
0.0
 11
163.55
 21
236.60000000000002
 31
0.0
  0
LINE
  5
187
330
17
100
AcDbEntity
  8
02-OCULTA
100
AcDbLine
 10
163.55
 20
236.51000000000005
 30
0.0
 11
163.55
 21
236.60000000000002
 31
0.0
  0
LINE
  5
188
330
17
100
AcDbEntity
  8
02-OCULTA
100
AcDbLine
 10
164.05
 20
236.51000000000005
 30
0.0
 11
164.05
 21
236.60000000000002
 31
0.0
  0
LINE
  5
189
330
17
100
AcDbEntity
  8
02-OCULTA
100
AcDbLine
 10
164.05
 20
236.60000000000002
 30
0.0
 11
163.55
 21
236.60000000000002
 31
0.0
  0
LINE
  5
18A
330
17
100
AcDbEntity
  8
02-OCULTA
100
AcDbLine
 10
163.55
 20
236.51000000000005
 30
0.0
 11
163.55
 21
236.60000000000002
 31
0.0
  0
LINE
  5
18B
330
17
100
AcDbEntity
  8
02-OCULTA
100
AcDbLine
 10
163.55
 20
236.51000000000005
 30
0.0
 11
163.55
 21
236.60000000000002
 31
0.0
  0
LINE
  5
18C
330
17
100
AcDbEntity
  8
02-OCULTA
100
AcDbLine
 10
164.05
 20
236.51000000000005
 30
0.0
 11
164.05
 21
236.60000000000002
 31
0.0
  0
LINE
  5
18D
330
17
100
AcDbEntity
  8
02-OCULTA
100
AcDbLine
 10
164.05
 20
236.60000000000002
 30
0.0
 11
163.55
 21
236.60000000000002
 31
0.0
  0
LINE
  5
18E
330
17
100
AcDbEntity
  8
02-OCULTA
100
AcDbLine
 10
164.05
 20
236.51000000000005
 30
0.0
 11
164.05
 21
236.60000000000002
 31
0.0
  0
LINE
  5
18F
330
17
100
AcDbEntity
  8
02-OCULTA
100
AcDbLine
 10
164.05
 20
236.60000000000002
 30
0.0
 11
163.55
 21
236.60000000000002
 31
0.0
  0
LINE
  5
190
330
17
100
AcDbEntity
  8
02-OCULTA
100
AcDbLine
 10
176.8
 20
236.60000000000002
 30
0.0
 11
152.8
 21
236.60000000000002
 31
0.0
  0
LINE
  5
191
330
17
100
AcDbEntity
  8
02-OCULTA
100
AcDbLine
 10
176.8
 20
161.60000000000002
 30
0.0
 11
176.8
 21
236.60000000000002
 31
0.0
  0
LINE
  5
192
330
17
100
AcDbEntity
  8
02-OCULTA
100
AcDbLine
 10
152.8
 20
161.60000000000002
 30
0.0
 11
176.8
 21
161.60000000000002
 31
0.0
  0
LINE
  5
193
330
17
100
AcDbEntity
  8
02-OCULTA
100
AcDbLine
 10
176.8
 20
226.60000000000002
 30
0.0
 11
176.8
 21
186.60000000000002
 31
0.0
  0
LINE
  5
194
330
17
100
AcDbEntity
  8
02-OCULTA
100
AcDbLine
 10
176.8
 20
226.60000000000002
 30
0.0
 11
176.8
 21
186.60000000000002
 31
0.0
  0
LINE
  5
195
330
17
100
AcDbEntity
  8
02-OCULTA
100
AcDbLine
 10
176.8
 20
195.10000000000002
 30
0.0
 11
176.8
 21
203.10000000000002
 31
0.0
  0
LINE
  5
196
330
17
100
AcDbEntity
  8
02-OCULTA
100
AcDbLine
 10
176.8
 20
195.10000000000002
 30
0.0
 11
176.8
 21
203.10000000000002
 31
0.0
  0
LINE
  5
197
330
17
100
AcDbEntity
  8
02-OCULTA
100
AcDbLine
 10
178.0
 20
195.10000000000002
 30
0.0
 11
178.0
 21
203.10000000000002
 31
0.0
  0
LINE
  5
198
330
17
100
AcDbEntity
  8
02-OCULTA
100
AcDbLine
 10
178.0
 20
195.10000000000002
 30
0.0
 11
176.8
 21
195.10000000000002
 31
0.0
  0
LINE
  5
199
330
17
100
AcDbEntity
  8
02-OCULTA
100
AcDbLine
 10
178.0
 20
203.10000000000002
 30
0.0
 11
176.8
 21
203.10000000000002
 31
0.0
  0
LINE
  5
19A
330
17
100
AcDbEntity
  8
02-OCULTA
100
AcDbLine
 10
176.8
 20
186.60000000000002
 30
0.0
 11
176.71
 21
186.60000000000002
 31
0.0
  0
LINE
  5
19B
330
17
100
AcDbEntity
  8
02-OCULTA
100
AcDbLine
 10
176.8
 20
186.60000000000002
 30
0.0
 11
176.71
 21
186.60000000000002
 31
0.0
  0
LINE
  5
19C
330
17
100
AcDbEntity
  8
02-OCULTA
100
AcDbLine
 10
176.71
 20
161.69000000000003
 30
0.0
 11
176.71
 21
236.51000000000005
 31
0.0
  0
LINE
  5
19D
330
17
100
AcDbEntity
  8
02-OCULTA
100
AcDbLine
 10
176.71
 20
161.69000000000003
 30
0.0
 11
176.71
 21
236.51000000000005
 31
0.0
  0
LINE
  5
19E
330
17
100
AcDbEntity
  8
02-OCULTA
100
AcDbLine
 10
176.71
 20
226.60000000000002
 30
0.0
 11
176.71
 21
186.60000000000002
 31
0.0
  0
LINE
  5
19F
330
17
100
AcDbEntity
  8
02-OCULTA
100
AcDbLine
 10
176.71
 20
226.60000000000002
 30
0.0
 11
176.71
 21
186.60000000000002
 31
0.0
  0
LINE
  5
1A0
330
17
100
AcDbEntity
  8
02-OCULTA
100
AcDbLine
 10
176.71
 20
236.51000000000005
 30
0.0
 11
174.8
 21
236.51000000000005
 31
0.0
  0
LINE
  5
1A1
330
17
100
AcDbEntity
  8
02-OCULTA
100
AcDbLine
 10
176.71
 20
236.51000000000005
 30
0.0
 11
174.8
 21
236.51000000000005
 31
0.0
  0
LINE
  5
1A2
330
17
100
AcDbEntity
  8
02-OCULTA
100
AcDbLine
 10
174.8
 20
236.51000000000005
 30
0.0
 11
174.8
 21
161.69000000000003
 31
0.0
  0
LINE
  5
1A3
330
17
100
AcDbEntity
  8
02-OCULTA
100
AcDbLine
 10
174.8
 20
236.51000000000005
 30
0.0
 11
174.8
 21
161.69000000000003
 31
0.0
  0
LINE
  5
1A4
330
17
100
AcDbEntity
  8
02-OCULTA
100
AcDbLine
 10
176.71
 20
161.69000000000003
 30
0.0
 11
174.8
 21
161.69000000000003
 31
0.0
  0
LINE
  5
1A5
330
17
100
AcDbEntity
  8
02-OCULTA
100
AcDbLine
 10
176.71
 20
161.69000000000003
 30
0.0
 11
174.8
 21
161.69000000000003
 31
0.0
  0
LINE
  5
1A6
330
17
100
AcDbEntity
  8
02-OCULTA
100
AcDbLine
 10
176.8
 20
226.60000000000002
 30
0.0
 11
176.71
 21
226.60000000000002
 31
0.0
  0
LINE
  5
1A7
330
17
100
AcDbEntity
  8
02-OCULTA
100
AcDbLine
 10
176.8
 20
226.60000000000002
 30
0.0
 11
176.71
 21
226.60000000000002
 31
0.0
  0
LINE
  5
1A8
330
17
100
AcDbEntity
  8
02-OCULTA
100
AcDbLine
 10
175.20000000000002
 20
186.10000000000002
 30
0.0
 11
175.20000000000002
 21
227.10000000000002
 31
0.0
  0
LINE
  5
1A9
330
17
100
AcDbEntity
  8
02-OCULTA
100
AcDbLine
 10
175.20000000000002
 20
227.10000000000002
 30
0.0
 11
174.9
 21
227.10000000000002
 31
0.0
  0
LINE
  5
1AA
330
17
100
AcDbEntity
  8
02-OCULTA
100
AcDbLine
 10
174.9
 20
186.10000000000002
 30
0.0
 11
174.9
 21
227.10000000000002
 31
0.0
  0
LINE
  5
1AB
330
17
100
AcDbEntity
  8
02-OCULTA
100
AcDbLine
 10
175.20000000000002
 20
186.10000000000002
 30
0.0
 11
174.9
 21
186.10000000000002
 31
0.0
  0
LINE
  5
1AC
330
17
100
AcDbEntity
  8
02-OCULTA
100
AcDbLine
 10
175.20000000000002
 20
186.10000000000002
 30
0.0
 11
174.9
 21
186.10000000000002
 31
0.0
  0
LINE
  5
1AD
330
17
100
AcDbEntity
  8
02-OCULTA
100
AcDbLine
 10
175.20000000000002
 20
186.10000000000002
 30
0.0
 11
175.20000000000002
 21
227.10000000000002
 31
0.0
  0
LINE
  5
1AE
330
17
100
AcDbEntity
  8
02-OCULTA
100
AcDbLine
 10
175.20000000000002
 20
227.10000000000002
 30
0.0
 11
174.9
 21
227.10000000000002
 31
0.0
  0
LINE
  5
1AF
330
17
100
AcDbEntity
  8
02-OCULTA
100
AcDbLine
 10
174.9
 20
186.10000000000002
 30
0.0
 11
174.9
 21
227.10000000000002
 31
0.0
  0
LWPOLYLINE
  5
1B0
330
17
100
AcDbEntity
  8
02-OCULTA
100
AcDbPolyline
 90
11
 70
0
 10
175.20000000000002
 20
235.60000000000002
 10
175.16000000000003
 20
235.60000000000002
 10
175.12
 20
235.60000000000002
 10
175.08
 20
235.60000000000002
 10
175.04000000000002
 20
235.60000000000002
 10
175.0
 20
235.60000000000002
 10
174.96
 20
235.60000000000002
 10
174.92000000000002
 20
235.60000000000002
 10
174.88000000000002
 20
235.60000000000002
 10
174.84
 20
235.60000000000002
 10
174.8
 20
235.60000000000002
  0
LWPOLYLINE
  5
1B1
330
17
100
AcDbEntity
  8
02-OCULTA
100
AcDbPolyline
 90
11
 70
0
 10
175.60000000000002
 20
235.60000000000002
 10
175.56
 20
235.60000000000002
 10
175.52
 20
235.60000000000002
 10
175.48000000000002
 20
235.60000000000002
 10
175.44
 20
235.60000000000002
 10
175.4
 20
235.60000000000002
 10
175.36
 20
235.60000000000002
 10
175.32000000000002
 20
235.60000000000002
 10
175.28000000000003
 20
235.60000000000002
 10
175.24
 20
235.60000000000002
 10
175.20000000000002
 20
235.60000000000002
  0
LWPOLYLINE
  5
1B2
330
17
100
AcDbEntity
  8
02-OCULTA
100
AcDbPolyline
 90
11
 70
0
 10
175.20000000000002
 20
162.60000000000002
 10
175.16000000000003
 20
162.60000000000002
 10
175.12
 20
162.60000000000002
 10
175.08
 20
162.60000000000002
 10
175.04000000000002
 20
162.60000000000002
 10
175.0
 20
162.60000000000002
 10
174.96
 20
162.60000000000002
 10
174.92000000000002
 20
162.60000000000002
 10
174.88000000000002
 20
162.60000000000002
 10
174.84
 20
162.60000000000002
 10
174.8
 20
162.60000000000002
  0
LWPOLYLINE
  5
1B3
330
17
100
AcDbEntity
  8
02-OCULTA
100
AcDbPolyline
 90
11
 70
0
 10
175.60000000000002
 20
162.60000000000002
 10
175.56
 20
162.60000000000002
 10
175.52
 20
162.60000000000002
 10
175.48000000000002
 20
162.60000000000002
 10
175.44
 20
162.60000000000002
 10
175.4
 20
162.60000000000002
 10
175.36
 20
162.60000000000002
 10
175.32000000000002
 20
162.60000000000002
 10
175.28000000000003
 20
162.60000000000002
 10
175.24
 20
162.60000000000002
 10
175.20000000000002
 20
162.60000000000002
  0
LINE
  5
1B4
330
17
100
AcDbEntity
  8
01-VISIBLE
100
AcDbLine
 10
176.8
 20
236.60000000000002
 30
0.0
 11
152.8
 21
236.60000000000002
 31
0.0
  0
LINE
  5
1B5
330
17
100
AcDbEntity
  8
01-VISIBLE
100
AcDbLine
 10
176.8
 20
161.60000000000002
 30
0.0
 11
176.8
 21
236.60000000000002
 31
0.0
  0
LINE
  5
1B6
330
17
100
AcDbEntity
  8
01-VISIBLE
100
AcDbLine
 10
152.8
 20
161.60000000000002
 30
0.0
 11
176.8
 21
161.60000000000002
 31
0.0
  0
LINE
  5
1B7
330
17
100
AcDbEntity
  8
01-VISIBLE
100
AcDbLine
 10
152.8
 20
161.60000000000002
 30
0.0
 11
152.8
 21
236.60000000000002
 31
0.0
  0
LINE
  5
1B8
330
17
100
AcDbEntity
  8
01-VISIBLE
100
AcDbLine
 10
178.0
 20
195.10000000000002
 30
0.0
 11
178.0
 21
203.10000000000002
 31
0.0
  0
LINE
  5
1B9
330
17
100
AcDbEntity
  8
01-VISIBLE
100
AcDbLine
 10
178.0
 20
203.10000000000002
 30
0.0
 11
176.8
 21
203.10000000000002
 31
0.0
  0
LINE
  5
1BA
330
17
100
AcDbEntity
  8
01-VISIBLE
100
AcDbLine
 10
178.0
 20
195.10000000000002
 30
0.0
 11
176.8
 21
195.10000000000002
 31
0.0
  0
LWPOLYLINE
  5
1BB
330
17
100
AcDbEntity
  8
01-VISIBLE
100
AcDbPolyline
 90
21
 70
0
 10
174.8
 20
235.60000000000002
 10
174.84
 20
235.60000000000002
 10
174.88000000000002
 20
235.60000000000002
 10
174.92000000000002
 20
235.60000000000002
 10
174.96
 20
235.60000000000002
 10
175.0
 20
235.60000000000002
 10
175.04000000000002
 20
235.60000000000002
 10
175.08
 20
235.60000000000002
 10
175.12
 20
235.60000000000002
 10
175.16000000000003
 20
235.60000000000002
 10
175.20000000000002
 20
235.60000000000002
 10
175.24
 20
235.60000000000002
 10
175.28000000000003
 20
235.60000000000002
 10
175.32000000000002
 20
235.60000000000002
 10
175.36
 20
235.60000000000002
 10
175.4
 20
235.60000000000002
 10
175.44
 20
235.60000000000002
 10
175.48000000000002
 20
235.60000000000002
 10
175.52
 20
235.60000000000002
 10
175.56
 20
235.60000000000002
 10
175.60000000000002
 20
235.60000000000002
  0
LWPOLYLINE
  5
1BC
330
17
100
AcDbEntity
  8
01-VISIBLE
100
AcDbPolyline
 90
21
 70
0
 10
174.8
 20
162.60000000000002
 10
174.84
 20
162.60000000000002
 10
174.88000000000002
 20
162.60000000000002
 10
174.92000000000002
 20
162.60000000000002
 10
174.96
 20
162.60000000000002
 10
175.0
 20
162.60000000000002
 10
175.04000000000002
 20
162.60000000000002
 10
175.08
 20
162.60000000000002
 10
175.12
 20
162.60000000000002
 10
175.16000000000003
 20
162.60000000000002
 10
175.20000000000002
 20
162.60000000000002
 10
175.24
 20
162.60000000000002
 10
175.28000000000003
 20
162.60000000000002
 10
175.32000000000002
 20
162.60000000000002
 10
175.36
 20
162.60000000000002
 10
175.4
 20
162.60000000000002
 10
175.44
 20
162.60000000000002
 10
175.48000000000002
 20
162.60000000000002
 10
175.52
 20
162.60000000000002
 10
175.56
 20
162.60000000000002
 10
175.60000000000002
 20
162.60000000000002
  0
LINE
  5
1BD
330
17
100
AcDbEntity
  8
01-VISIBLE
100
AcDbLine
 10
175.60000000000002
 20
162.60000000000002
 30
0.0
 11
175.60000000000002
 21
235.60000000000002
 31
0.0
  0
LINE
  5
1BE
330
17
100
AcDbEntity
  8
01-VISIBLE
100
AcDbLine
 10
174.8
 20
162.60000000000002
 30
0.0
 11
174.8
 21
235.60000000000002
 31
0.0
  0
LINE
  5
1BF
330
17
100
AcDbEntity
  8
01-VISIBLE
100
AcDbLine
 10
305.90811690796323
 20
182.3433666561813
 30
0.0
 11
322.87867965644034
 21
192.14132562731402
 31
0.0
  0
LINE
  5
1C0
330
17
100
AcDbEntity
  8
01-VISIBLE
100
AcDbLine
 10
305.90811690796323
 20
121.10612308660185
 30
0.0
 11
305.90811690796323
 21
182.3433666561813
 31
0.0
  0
LINE
  5
1C1
330
17
100
AcDbEntity
  8
01-VISIBLE
100
AcDbLine
 10
344.0918830920368
 20
118.65663334381867
 30
0.0
 11
344.0918830920368
 21
179.89387691339812
 31
0.0
  0
LINE
  5
1C2
330
17
100
AcDbEntity
  8
01-VISIBLE
100
AcDbLine
 10
322.87867965644034
 20
192.14132562731402
 30
0.0
 11
344.0918830920368
 21
179.89387691339815
 31
0.0
  0
LINE
  5
1C3
330
17
100
AcDbEntity
  8
01-VISIBLE
100
AcDbLine
 10
322.9423192667472
 20
183.25376034391573
 30
0.0
 11
322.9423192667472
 21
182.91899674573537
 31
0.0
  0
LINE
  5
1C4
330
17
100
AcDbEntity
  8
01-VISIBLE
100
AcDbLine
 10
321.3513290090774
 20
183.83755539927904
 30
0.0
 11
321.6412427893639
 21
184.00493719836925
 31
0.0
  0
LINE
  5
1C5
330
17
100
AcDbEntity
  8
01-VISIBLE
100
AcDbLine
 10
324.40603030380333
 20
182.40868638265553
 30
0.0
 11
321.6412427893639
 21
184.00493719836925
 31
0.0
  0
LINE
  5
1C6
330
17
100
AcDbEntity
  8
01-VISIBLE
100
AcDbLine
 10
330.0628845532957
 20
179.14270005894463
 30
0.0
 11
327.29809703885627
 21
180.73895087465834
 31
0.0
  0
LINE
  5
1C7
330
17
100
AcDbEntity
  8
01-VISIBLE
100
AcDbLine
 10
327.0081832585698
 20
180.57156907556816
 30
0.0
 11
327.29809703885627
 21
180.73895087465834
 31
0.0
  0
LINE
  5
1C8
330
17
100
AcDbEntity
  8
01-VISIBLE
100
AcDbLine
 10
326.944543648263
 20
180.60831142170989
 30
0.0
 11
327.29809703885627
 21
180.81243556694182
 31
0.0
  0
LINE
  5
1C9
330
17
100
AcDbEntity
  8
01-VISIBLE
100
AcDbLine
 10
327.29809703885627
 20
180.73895087465831
 30
0.0
 11
327.29809703885627
 21
180.81243556694182
 31
0.0
  0
LINE
  5
1CA
330
17
100
AcDbEntity
  8
01-VISIBLE
100
AcDbLine
 10
330.1265241636025
 20
179.17944240508638
 30
0.0
 11
327.29809703885627
 21
180.81243556694182
 31
0.0
  0
LINE
  5
1CB
330
17
100
AcDbEntity
  8
01-VISIBLE
100
AcDbLine
 10
329.7729707730092
 20
178.97531825985445
 30
0.0
 11
330.1265241636025
 21
179.17944240508638
 31
0.0
  0
LINE
  5
1CC
330
17
100
AcDbEntity
  8
01-VISIBLE
100
AcDbLine
 10
329.7729707730092
 20
178.97531825985445
 30
0.0
 11
326.944543648263
 21
180.60831142170989
 31
0.0
  0
LINE
  5
1CD
330
17
100
AcDbEntity
  8
01-VISIBLE
100
AcDbLine
 10
324.4696699141101
 20
182.44542872879728
 30
0.0
 11
321.6412427893639
 21
184.07842189065272
 31
0.0
  0
LINE
  5
1CE
330
17
100
AcDbEntity
  8
01-VISIBLE
100
AcDbLine
 10
321.6412427893639
 20
184.00493719836922
 30
0.0
 11
321.6412427893639
 21
184.07842189065272
 31
0.0
  0
LINE
  5
1CF
330
17
100
AcDbEntity
  8
01-VISIBLE
100
AcDbLine
 10
321.2876893987706
 20
183.8742977454208
 30
0.0
 11
321.6412427893639
 21
184.07842189065272
 31
0.0
  0
LINE
  5
1D0
330
17
100
AcDbEntity
  8
01-VISIBLE
100
AcDbLine
 10
324.11611652351684
 20
182.24130458356535
 30
0.0
 11
324.4696699141101
 21
182.44542872879728
 31
0.0
  0
LINE
  5
1D1
330
17
100
AcDbEntity
  8
01-VISIBLE
100
AcDbLine
 10
324.11611652351684
 20
182.24130458356535
 30
0.0
 11
321.2876893987706
 21
183.8742977454208
 31
0.0
  0
LINE
  5
1D2
330
17
100
AcDbEntity
  8
01-VISIBLE
100
AcDbLine
 10
327.12132034355966
 20
170.09591794226543
 30
0.0
 11
344.0918830920368
 21
179.89387691339812
 31
0.0
  0
LINE
  5
1D3
330
17
100
AcDbEntity
  8
01-VISIBLE
100
AcDbLine
 10
327.12132034355966
 20
108.85867437268595
 30
0.0
 11
327.12132034355966
 21
170.09591794226543
 31
0.0
  0
LINE
  5
1D4
330
17
100
AcDbEntity
  8
01-VISIBLE
100
AcDbLine
 10
344.0918830920368
 20
118.65663334381867
 30
0.0
 11
327.12132034355966
 21
108.85867437268595
 31
0.0
  0
LINE
  5
1D5
330
17
100
AcDbEntity
  8
01-VISIBLE
100
AcDbLine
 10
305.90811690796323
 20
121.10612308660185
 30
0.0
 11
327.12132034355966
 21
108.85867437268595
 31
0.0
  0
LINE
  5
1D6
330
17
100
AcDbEntity
  8
01-VISIBLE
100
AcDbLine
 10
305.90811690796323
 20
182.3433666561813
 30
0.0
 11
327.12132034355966
 21
170.09591794226543
 31
0.0
  0
LINE
  5
1D7
330
17
100
AcDbEntity
  8
01-VISIBLE
100
AcDbLine
 10
309.44365081389594
 20
172.13715939458473
 30
0.0
 11
323.5857864376269
 21
163.97219358530748
 31
0.0
  0
LINE
  5
1D8
330
17
100
AcDbEntity
  8
01-VISIBLE
100
AcDbLine
 10
309.44365081389594
 20
172.13715939458473
 30
0.0
 11
309.44365081389594
 21
139.47729615747568
 31
0.0
  0
LINE
  5
1D9
330
17
100
AcDbEntity
  8
01-VISIBLE
100
AcDbLine
 10
323.5857864376269
 20
163.97219358530748
 30
0.0
 11
323.5857864376269
 21
131.31233034819843
 31
0.0
  0
LINE
  5
1DA
330
17
100
AcDbEntity
  8
01-VISIBLE
100
AcDbLine
 10
309.44365081389594
 20
139.47729615747568
 30
0.0
 11
323.5857864376269
 21
131.31233034819843
 31
0.0
  0
LINE
  5
1DB
330
17
100
AcDbEntity
  8
01-VISIBLE
100
AcDbLine
 10
325.0
 20
143.9680273525782
 30
0.0
 11
325.70710678118655
 21
143.55977906211433
 31
0.0
  0
LINE
  5
1DC
330
17
100
AcDbEntity
  8
01-VISIBLE
100
AcDbLine
 10
325.70710678118655
 20
137.02780641469252
 30
0.0
 11
325.70710678118655
 21
143.55977906211433
 31
0.0
  0
LINE
  5
1DD
330
17
100
AcDbEntity
  8
01-VISIBLE
100
AcDbLine
 10
324.15147186257616
 20
136.94615675659975
 30
0.0
 11
324.15147186257616
 21
143.47812940402156
 31
0.0
  0
LINE
  5
1DE
330
17
100
AcDbEntity
  8
01-VISIBLE
100
AcDbLine
 10
324.15147186257616
 20
143.47812940402156
 30
0.0
 11
325.0
 21
143.9680273525782
 31
0.0
  0
LINE
  5
1DF
330
17
100
AcDbEntity
  8
01-VISIBLE
100
AcDbLine
 10
324.15147186257616
 20
136.94615675659975
 30
0.0
 11
324.8585786437627
 21
136.5379084661359
 31
0.0
  0
LINE
  5
1E0
330
17
100
AcDbEntity
  8
01-VISIBLE
100
AcDbLine
 10
324.8585786437627
 20
136.5379084661359
 30
0.0
 11
324.8585786437627
 21
143.06988111355767
 31
0.0
  0
LINE
  5
1E1
330
17
100
AcDbEntity
  8
01-VISIBLE
100
AcDbLine
 10
324.15147186257616
 20
143.47812940402156
 30
0.0
 11
324.8585786437627
 21
143.0698811135577
 31
0.0
  0
LINE
  5
1E2
330
17
100
AcDbEntity
  8
01-VISIBLE
100
AcDbLine
 10
324.8585786437627
 20
136.5379084661359
 30
0.0
 11
325.70710678118655
 21
137.02780641469252
 31
0.0
  0
LINE
  5
1E3
330
17
100
AcDbEntity
  8
01-VISIBLE
100
AcDbLine
 10
324.8585786437627
 20
143.0698811135577
 30
0.0
 11
325.70710678118655
 21
143.55977906211433
 31
0.0
  0
LINE
  5
1E4
330
17
100
AcDbEntity
  8
01-VISIBLE
100
AcDbLine
 10
309.44365081389594
 20
139.47729615747568
 30
0.0
 11
309.5072904242028
 21
139.51403850361743
 31
0.0
  0
LINE
  5
1E5
330
17
100
AcDbEntity
  8
01-VISIBLE
100
AcDbLine
 10
309.5072904242028
 20
139.51403850361743
 30
0.0
 11
323.5857864376269
 21
131.38581504048193
 31
0.0
  0
LINE
  5
1E6
330
17
100
AcDbEntity
  8
01-VISIBLE
100
AcDbLine
 10
309.5072904242028
 20
172.10041704844298
 30
0.0
 11
309.5072904242028
 21
139.51403850361743
 31
0.0
  0
LINE
  5
1E7
330
17
100
AcDbEntity
  8
01-VISIBLE
100
AcDbLine
 10
310.22146827320114
 20
139.92636927698595
 30
0.0
 11
310.22146827320114
 21
171.68808627507448
 31
0.0
  0
LINE
  5
1E8
330
17
100
AcDbEntity
  8
01-VISIBLE
100
AcDbLine
 10
310.22146827320114
 20
139.92636927698595
 30
0.0
 11
323.5857864376269
 21
132.21047658721892
 31
0.0
  0
TEXT
  5
1E9
330
17
100
AcDbEntity
  8
06-TEXTO
100
AcDbText
 10
325.0
 20
102.85867437268595
 30
0.0
 40
3.5
  1
ISOMETRÍA
  7
ISO3098
 72
1
 11
325.0
 21
102.85867437268595
 31
0.0
100
AcDbText
 73
2
  0
DIMENSION
  5
1EA
330
17
100
AcDbEntity
  8
04-COTA
100
AcDbDimension
280
0
  2
*D1
  3
FLAMA-IRAM
 10
97.8
 20
244.60000000000002
 30
0.0
 11
112.8
 21
247.35000000000002
 31
0.0
 70
32
 71
5
  1
<>
100
AcDbAlignedDimension
 13
97.8
 23
236.60000000000002
 33
0.0
 14
127.8
 24
236.60000000000002
 34
0.0
 50
0.0
100
AcDbRotatedDimension
1001
ACAD
1000
DSTYLE
1002
{
1070
144
1040
10.0
1002
}
  0
DIMENSION
  5
1F9
330
17
100
AcDbEntity
  8
04-COTA
100
AcDbDimension
280
0
  2
*D2
  3
FLAMA-IRAM
 10
86.8
 20
161.60000000000002
 30
0.0
 11
84.05
 21
199.10000000000002
 31
0.0
 70
32
 71
5
  1
<>
100
AcDbAlignedDimension
 13
97.0
 23
161.60000000000002
 33
0.0
 14
97.0
 24
236.60000000000002
 34
0.0
 50
90.0
100
AcDbRotatedDimension
1001
ACAD
1000
DSTYLE
1002
{
1070
144
1040
10.0
1002
}
  0
DIMENSION
  5
208
330
17
100
AcDbEntity
  8
04-COTA
100
AcDbDimension
280
0
  2
*D3
  3
FLAMA-IRAM
 10
152.8
 20
244.60000000000002
 30
0.0
 11
165.4
 21
247.35000000000002
 31
0.0
 70
32
 71
5
  1
<>
100
AcDbAlignedDimension
 13
152.8
 23
236.60000000000002
 33
0.0
 14
178.0
 24
236.60000000000002
 34
0.0
 50
0.0
100
AcDbRotatedDimension
1001
ACAD
1000
DSTYLE
1002
{
1070
144
1040
10.0
1002
}
  0
DIMENSION
  5
217
330
17
100
AcDbEntity
  8
04-COTA
100
AcDbDimension
280
0
  2
*D4
  3
FLAMA-IRAM
 10
136.8
 20
186.60000000000002
 30
0.0
 11
134.05
 21
206.60000000000002
 31
0.0
 70
32
 71
5
  1
<>
100
AcDbAlignedDimension
 13
122.8
 23
186.60000000000002
 33
0.0
 14
122.8
 24
226.60000000000002
 34
0.0
 50
90.0
100
AcDbRotatedDimension
1001
ACAD
1000
DSTYLE
1002
{
1070
144
1040
10.0
1002
}
  0
LINE
  5
226
330
17
100
AcDbEntity
  8
08-FINA
100
AcDbLine
 10
112.8
 20
206.60000000000002
 30
0.0
 11
137.8
 21
217.60000000000002
 31
0.0
  0
HATCH
  5
227
330
17
100
AcDbEntity
  8
08-FINA
 62
7
100
AcDbHatch
 10
0.0
 20
0.0
 30
0.0
210
0.0
220
0.0
230
1.0
  2
SOLID
 70
1
 71
0
 91
1
 92
3
 72
0
 73
1
 93
3
 10
112.8
 20
206.60000000000002
 10
115.24938302676333
 20
207.24072052269594
 10
114.92719213535051
 20
207.97297254863417
 97
0
 75
1
 76
1
 98
0
  0
LINE
  5
228
330
17
100
AcDbEntity
  8
08-FINA
100
AcDbLine
 10
137.8
 20
217.60000000000002
 30
0.0
 11
172.0
 21
217.60000000000002
 31
0.0
  0
TEXT
  5
229
330
17
100
AcDbEntity
  8
06-TEXTO
100
AcDbText
 10
154.9
 20
218.40000000000003
 30
0.0
 40
2.5
  1
visor acrílico 3 mm
  7
ISO3098
 72
1
 11
154.9
 21
218.40000000000003
 31
0.0
100
AcDbText
 73
1
  0
LINE
  5
22A
330
17
100
AcDbEntity
  8
03-EJE
100
AcDbLine
 10
112.8
 20
158.60000000000002
 30
0.0
 11
112.8
 21
239.60000000000002
 31
0.0
  0
LWPOLYLINE
  5
22B
330
17
100
AcDbEntity
  8
10-ROTULO
100
AcDbPolyline
 90
4
 70
1
 10
260.0
 20
270.0
 10
410.0
 20
270.0
 10
410.0
 20
275.0
 10
260.0
 20
275.0
  0
TEXT
  5
22C
330
17
100
AcDbEntity
  8
06-TEXTO
100
AcDbText
 10
335.0
 20
272.5
 30
0.0
 40
3.5
  1
ESPECIFICACIÓN
  7
ISO3098
 72
1
 11
335.0
 21
272.5
 31
0.0
100
AcDbText
 73
2
  0
LWPOLYLINE
  5
22D
330
17
100
AcDbEntity
  8
10-ROTULO
100
AcDbPolyline
 90
4
 70
1
 10
260.0
 20
265.0
 10
290.0
 20
265.0
 10
290.0
 20
270.0
 10
260.0
 20
270.0
  0
TEXT
  5
22E
330
17
100
AcDbEntity
  8
06-TEXTO
100
AcDbText
 10
261.5
 20
267.5
 30
0.0
 40
2.5
  1
Cuerpo
  7
ISO3098
 11
261.5
 21
267.5
 31
0.0
100
AcDbText
 73
2
  0
LWPOLYLINE
  5
22F
330
17
100
AcDbEntity
  8
10-ROTULO
100
AcDbPolyline
 90
4
 70
1
 10
290.0
 20
265.0
 10
410.0
 20
265.0
 10
410.0
 20
270.0
 10
290.0
 20
270.0
  0
TEXT
  5
230
330
17
100
AcDbEntity
  8
06-TEXTO
100
AcDbText
 10
350.0
 20
267.5
 30
0.0
 40
1.8
  1
chapa acero SAE 1010 e = 0,9 mm, plegada y soldada por puntos
  7
ISO3098
 72
1
 11
350.0
 21
267.5
 31
0.0
100
AcDbText
 73
2
  0
LWPOLYLINE
  5
231
330
17
100
AcDbEntity
  8
10-ROTULO
100
AcDbPolyline
 90
4
 70
1
 10
260.0
 20
260.0
 10
290.0
 20
260.0
 10
290.0
 20
265.0
 10
260.0
 20
265.0
  0
TEXT
  5
232
330
17
100
AcDbEntity
  8
06-TEXTO
100
AcDbText
 10
261.5
 20
262.5
 30
0.0
 40
2.5
  1
Puerta
  7
ISO3098
 11
261.5
 21
262.5
 31
0.0
100
AcDbText
 73
2
  0
LWPOLYLINE
  5
233
330
17
100
AcDbEntity
  8
10-ROTULO
100
AcDbPolyline
 90
4
 70
1
 10
290.0
 20
260.0
 10
410.0
 20
260.0
 10
410.0
 20
265.0
 10
290.0
 20
265.0
  0
TEXT
  5
234
330
17
100
AcDbEntity
  8
06-TEXTO
100
AcDbText
 10
350.0
 20
262.5
 30
0.0
 40
1.8
  1
bandeja de chapa e = 0,9, bisagra piano, cierre magnético sin llave
  7
ISO3098
 72
1
 11
350.0
 21
262.5
 31
0.0
100
AcDbText
 73
2
  0
LWPOLYLINE
  5
235
330
17
100
AcDbEntity
  8
10-ROTULO
100
AcDbPolyline
 90
4
 70
1
 10
260.0
 20
255.0
 10
290.0
 20
255.0
 10
290.0
 20
260.0
 10
260.0
 20
260.0
  0
TEXT
  5
236
330
17
100
AcDbEntity
  8
06-TEXTO
100
AcDbText
 10
261.5
 20
257.5
 30
0.0
 40
2.5
  1
Visor
  7
ISO3098
 11
261.5
 21
257.5
 31
0.0
100
AcDbText
 73
2
  0
LWPOLYLINE
  5
237
330
17
100
AcDbEntity
  8
10-ROTULO
100
AcDbPolyline
 90
4
 70
1
 10
290.0
 20
255.0
 10
410.0
 20
255.0
 10
410.0
 20
260.0
 10
290.0
 20
260.0
  0
TEXT
  5
238
330
17
100
AcDbEntity
  8
06-TEXTO
100
AcDbText
 10
350.0
 20
257.5
 30
0.0
 40
1.8
  1
acrílico 3 mm (o vidrio de rotura con martillo)
  7
ISO3098
 72
1
 11
350.0
 21
257.5
 31
0.0
100
AcDbText
 73
2
  0
LWPOLYLINE
  5
239
330
17
100
AcDbEntity
  8
10-ROTULO
100
AcDbPolyline
 90
4
 70
1
 10
260.0
 20
250.0
 10
290.0
 20
250.0
 10
290.0
 20
255.0
 10
260.0
 20
255.0
  0
TEXT
  5
23A
330
17
100
AcDbEntity
  8
06-TEXTO
100
AcDbText
 10
261.5
 20
252.5
 30
0.0
 40
2.5
  1
Terminación
  7
ISO3098
 11
261.5
 21
252.5
 31
0.0
100
AcDbText
 73
2
  0
LWPOLYLINE
  5
23B
330
17
100
AcDbEntity
  8
10-ROTULO
100
AcDbPolyline
 90
4
 70
1
 10
290.0
 20
250.0
 10
410.0
 20
250.0
 10
410.0
 20
255.0
 10
290.0
 20
255.0
  0
TEXT
  5
23C
330
17
100
AcDbEntity
  8
06-TEXTO
100
AcDbText
 10
350.0
 20
252.5
 30
0.0
 40
1.8
  1
granallado/fosfatizado + polvo poliéster rojo (DOC-01)
  7
ISO3098
 72
1
 11
350.0
 21
252.5
 31
0.0
100
AcDbText
 73
2
  0
LWPOLYLINE
  5
23D
330
17
100
AcDbEntity
  8
10-ROTULO
100
AcDbPolyline
 90
4
 70
1
 10
260.0
 20
245.0
 10
290.0
 20
245.0
 10
290.0
 20
250.0
 10
260.0
 20
250.0
  0
TEXT
  5
23E
330
17
100
AcDbEntity
  8
06-TEXTO
100
AcDbText
 10
261.5
 20
247.5
 30
0.0
 40
2.5
  1
Interior
  7
ISO3098
 11
261.5
 21
247.5
 31
0.0
100
AcDbText
 73
2
  0
LWPOLYLINE
  5
23F
330
17
100
AcDbEntity
  8
10-ROTULO
100
AcDbPolyline
 90
4
 70
1
 10
290.0
 20
245.0
 10
410.0
 20
245.0
 10
410.0
 20
250.0
 10
290.0
 20
250.0
  0
TEXT
  5
240
330
17
100
AcDbEntity
  8
06-TEXTO
100
AcDbText
 10
350.0
 20
247.5
 30
0.0
 40
1.8
  1
soporte FL_ACC_01 para 10 kg; apto 5 kg
  7
ISO3098
 72
1
 11
350.0
 21
247.5
 31
0.0
100
AcDbText
 73
2
  0
LWPOLYLINE
  5
241
330
17
100
AcDbEntity
  8
10-ROTULO
100
AcDbPolyline
 90
4
 70
1
 10
260.0
 20
240.0
 10
290.0
 20
240.0
 10
290.0
 20
245.0
 10
260.0
 20
245.0
  0
TEXT
  5
242
330
17
100
AcDbEntity
  8
06-TEXTO
100
AcDbText
 10
261.5
 20
242.5
 30
0.0
 40
2.5
  1
Ventilación
  7
ISO3098
 11
261.5
 21
242.5
 31
0.0
100
AcDbText
 73
2
  0
LWPOLYLINE
  5
243
330
17
100
AcDbEntity
  8
10-ROTULO
100
AcDbPolyline
 90
4
 70
1
 10
290.0
 20
240.0
 10
410.0
 20
240.0
 10
410.0
 20
245.0
 10
290.0
 20
245.0
  0
TEXT
  5
244
330
17
100
AcDbEntity
  8
06-TEXTO
100
AcDbText
 10
350.0
 20
242.5
 30
0.0
 40
1.8
  1
4 ranuras 40 × 5 en base y techo
  7
ISO3098
 72
1
 11
350.0
 21
242.5
 31
0.0
100
AcDbText
 73
2
  0
LWPOLYLINE
  5
245
330
17
100
AcDbEntity
  8
10-ROTULO
100
AcDbPolyline
 90
4
 70
1
 10
260.0
 20
235.0
 10
290.0
 20
235.0
 10
290.0
 20
240.0
 10
260.0
 20
240.0
  0
TEXT
  5
246
330
17
100
AcDbEntity
  8
06-TEXTO
100
AcDbText
 10
261.5
 20
237.5
 30
0.0
 40
2.5
  1
Leyenda
  7
ISO3098
 11
261.5
 21
237.5
 31
0.0
100
AcDbText
 73
2
  0
LWPOLYLINE
  5
247
330
17
100
AcDbEntity
  8
10-ROTULO
100
AcDbPolyline
 90
4
 70
1
 10
290.0
 20
235.0
 10
410.0
 20
235.0
 10
410.0
 20
240.0
 10
290.0
 20
240.0
  0
TEXT
  5
248
330
17
100
AcDbEntity
  8
06-TEXTO
100
AcDbText
 10
350.0
 20
237.5
 30
0.0
 40
1.8
  1
"MATAFUEGO" en vinilo blanco sobre la puerta (FL_SEN_02)
  7
ISO3098
 72
1
 11
350.0
 21
237.5
 31
0.0
100
AcDbText
 73
2
  0
TEXT
  5
249
330
17
100
AcDbEntity
  8
06-TEXTO
100
AcDbText
 10
30.0
 20
65.0
 30
0.0
 40
3.5
  1
NOTAS
  7
ISO3098
 11
30.0
 21
65.0
 31
0.0
100
AcDbText
 73
1
  0
TEXT
  5
24A
330
17
100
AcDbEntity
  8
06-TEXTO
100
AcDbText
 10
30.0
 20
60.0
 30
0.0
 40
2.5
  1
1) Tolerancias generales ISO 2768-m.
  7
ISO3098
 11
30.0
 21
60.0
 31
0.0
100
AcDbText
 73
1
  0
TEXT
  5
24B
330
17
100
AcDbEntity
  8
06-TEXTO
100
AcDbText
 10
30.0
 20
55.0
 30
0.0
 40
2.5
  1
2) Medidas interiores útiles 298 × 218 × 748 mm: admite matafuego de 10 kg (Ø181,5 × 562,5 + válvula).
  7
ISO3098
 11
30.0
 21
55.0
 31
0.0
100
AcDbText
 73
1
  0
TEXT
  5
24C
330
17
100
AcDbEntity
  8
06-TEXTO
100
AcDbText
 10
30.0
 20
50.0
 30
0.0
 40
2.5
  1
3) La puerta abre sin llave; si se usa vidrio, colocar martillo de rotura encadenado.
  7
ISO3098
 11
30.0
 21
50.0
 31
0.0
100
AcDbText
 73
1
  0
TEXT
  5
24D
330
17
100
AcDbEntity
  8
06-TEXTO
100
AcDbText
 10
30.0
 20
45.0
 30
0.0
 40
2.5
  1
4) Altura de montaje: parte superior del matafuego ≤ 1,50 m (FL_SEN_01).
  7
ISO3098
 11
30.0
 21
45.0
 31
0.0
100
AcDbText
 73
1
  0
VIEWPORT
  5
252
330
24E
100
AcDbEntity
 67
1
  8
VIEWPORTS
100
AcDbViewport
 10
322560.0
 20
228096.0
 30
0.0
 40
709632.0
 41
501811.2
 68
1
 69
1
 12
322560.0
 22
228096.0
 13
0.0
 23
0.0
 14
10.0
 24
10.0
 15
10.0
 25
10.0
 16
0.0
 26
0.0
 36
1.0
 17
0.0
 27
0.0
 37
0.0
 42
50.0
 43
0.0
 44
0.0
 45
501811.2
 50
0.0
 51
0.0
 72
100
 90
557088
  1

281
0
 71
0
 74
0
110
0.0
120
0.0
130
0.0
111
1.0
121
0.0
131
0.0
112
0.0
122
1.0
132
0.0
 79
0
146
0.0
282
0
  0
VIEWPORT
  5
253
330
24E
100
AcDbEntity
 67
1
  8
VIEWPORTS
100
AcDbViewport
 10
210.0
 20
148.5
 30
0.0
 40
420.0
 41
297.0
 68
2
 69
3
 12
210.0
 22
148.5
 13
0.0
 23
0.0
 14
10.0
 24
10.0
 15
10.0
 25
10.0
 16
0.0
 26
0.0
 36
1.0
 17
0.0
 27
0.0
 37
0.0
 42
50.0
 43
0.0
 44
0.0
 45
297.0
 50
0.0
 51
0.0
 72
100
 90
0
  1

281
0
 71
0
 74
0
110
0.0
120
0.0
130
0.0
111
1.0
121
0.0
131
0.0
112
0.0
122
1.0
132
0.0
 79
0
146
0.0
282
0
  0
ENDSEC
  0
SECTION
  2
OBJECTS
  0
DICTIONARY
  5
A
330
0
100
AcDbDictionary
281
1
  3
ACAD_COLOR
350
B
  3
ACAD_GROUP
350
C
  3
ACAD_LAYOUT
350
D
  3
ACAD_MATERIAL
350
E
  3
ACAD_MLEADERSTYLE
350
F
  3
ACAD_MLINESTYLE
350
10
  3
ACAD_PLOTSETTINGS
350
11
  3
ACAD_PLOTSTYLENAME
350
12
  3
ACAD_SCALELIST
350
14
  3
ACAD_TABLESTYLE
350
15
  3
ACAD_VISUALSTYLE
350
16
  3
EZDXF_META
350
2D
  0
DICTIONARY
  5
B
330
A
100
AcDbDictionary
281
1
  0
DICTIONARY
  5
C
330
A
100
AcDbDictionary
281
1
  0
DICTIONARY
  5
D
330
A
100
AcDbDictionary
281
1
  3
Model
350
1A
  3
Lamina
350
251
  0
DICTIONARY
  5
E
330
A
100
AcDbDictionary
281
1
  3
ByBlock
350
1F
  3
ByLayer
350
20
  3
Global
350
21
  0
DICTIONARY
  5
F
330
A
100
AcDbDictionary
281
1
  3
Standard
350
2C
  0
DICTIONARY
  5
10
330
A
100
AcDbDictionary
281
1
  3
Standard
350
22
  0
DICTIONARY
  5
11
330
A
100
AcDbDictionary
281
1
  0
ACDBDICTIONARYWDFLT
  5
12
330
A
100
AcDbDictionary
281
1
  3
Normal
350
13
100
AcDbDictionaryWithDefault
340
13
  0
ACDBPLACEHOLDER
  5
13
330
12
  0
DICTIONARY
  5
14
330
A
100
AcDbDictionary
281
1
  0
DICTIONARY
  5
15
330
A
100
AcDbDictionary
281
1
  0
DICTIONARY
  5
16
330
A
100
AcDbDictionary
281
1
  0
LAYOUT
  5
1A
330
D
100
AcDbPlotSettings
  1

  4
A3
  6

 40
7.5
 41
20.0
 42
7.5
 43
20.0
 44
420.0
 45
297.0
 46
0.0
 47
0.0
 48
0.0
 49
0.0
140
0.0
141
0.0
142
1.0
143
1.0
 70
1024
 72
1
 73
0
 74
5
  7

 75
16
 76
0
 77
2
 78
300
147
1.0
148
0.0
149
0.0
100
AcDbLayout
  1
Model
 70
1
 71
0
 10
0.0
 20
0.0
 11
420.0
 21
297.0
 12
0.0
 22
0.0
 32
0.0
 14
1e+20
 24
1e+20
 34
1e+20
 15
-1e+20
 25
-1e+20
 35
-1e+20
146
0.0
 13
0.0
 23
0.0
 33
0.0
 16
1.0
 26
0.0
 36
0.0
 17
0.0
 27
1.0
 37
0.0
 76
1
330
17
  0
MATERIAL
  5
1F
102
{ACAD_REACTORS
330
E
102
}
330
E
100
AcDbMaterial
  1
ByBlock
  2

 70
0
 40
1.0
 71
1
 41
1.0
 91
-1023410177
 42
1.0
 72
1
  3

 73
1
 74
1
 75
1
 44
0.5
 73
0
 45
1.0
 46
1.0
 77
1
  4

 78
1
 79
1
170
1
 48
1.0
171
1
  6

172
1
173
1
174
1
140
1.0
141
1.0
175
1
  7

176
1
177
1
178
1
143
1.0
179
1
  8

270
1
271
1
272
1
145
1.0
146
1.0
273
1
  9

274
1
275
1
276
1
 42
1.0
 72
1
  3

 73
1
 74
1
 75
1
 94
63
  0
MATERIAL
  5
20
102
{ACAD_REACTORS
330
E
102
}
330
E
100
AcDbMaterial
  1
ByLayer
  2

 70
0
 40
1.0
 71
1
 41
1.0
 91
-1023410177
 42
1.0
 72
1
  3

 73
1
 74
1
 75
1
 44
0.5
 73
0
 45
1.0
 46
1.0
 77
1
  4

 78
1
 79
1
170
1
 48
1.0
171
1
  6

172
1
173
1
174
1
140
1.0
141
1.0
175
1
  7

176
1
177
1
178
1
143
1.0
179
1
  8

270
1
271
1
272
1
145
1.0
146
1.0
273
1
  9

274
1
275
1
276
1
 42
1.0
 72
1
  3

 73
1
 74
1
 75
1
 94
63
  0
MATERIAL
  5
21
102
{ACAD_REACTORS
330
E
102
}
330
E
100
AcDbMaterial
  1
Global
  2

 70
0
 40
1.0
 71
1
 41
1.0
 91
-1023410177
 42
1.0
 72
1
  3

 73
1
 74
1
 75
1
 44
0.5
 73
0
 45
1.0
 46
1.0
 77
1
  4

 78
1
 79
1
170
1
 48
1.0
171
1
  6

172
1
173
1
174
1
140
1.0
141
1.0
175
1
  7

176
1
177
1
178
1
143
1.0
179
1
  8

270
1
271
1
272
1
145
1.0
146
1.0
273
1
  9

274
1
275
1
276
1
 42
1.0
 72
1
  3

 73
1
 74
1
 75
1
 94
63
  0
MLINESTYLE
  5
22
102
{ACAD_REACTORS
330
10
102
}
330
10
100
AcDbMlineStyle
  2
Standard
 70
0
  3

 62
256
 51
90.0
 52
90.0
 71
2
 49
0.5
 62
256
  6
BYLAYER
 49
-0.5
 62
256
  6
BYLAYER
  0
MLEADERSTYLE
  5
2C
102
{ACAD_REACTORS
330
F
102
}
330
F
100
AcDbMLeaderStyle
179
2
170
2
171
1
172
0
 90
2
 40
0.0
 41
0.0
173
1
 91
-1056964608
 92
-2
290
1
 42
2.0
291
1
 43
8.0
  3
Standard
 44
4.0
300

342
29
174
1
175
1
176
0
178
1
 93
-1056964608
 45
4.0
292
0
297
0
 46
4.0
 94
-1056964608
 47
1.0
 49
1.0
140
1.0
294
1
141
0.0
177
0
142
1.0
295
0
296
0
143
3.75
271
0
272
9
273
9
  0
DICTIONARY
  5
2D
330
A
100
AcDbDictionary
280
1
281
1
  3
CREATED_BY_EZDXF
350
2E
  3
WRITTEN_BY_EZDXF
350
256
  0
DICTIONARYVAR
  5
2E
330
2D
100
DictionaryVariables
280
0
  1
1.4.4 @ 2026-09-29T04:41:32.486633+00:00
  0
LAYOUT
  5
251
330
D
100
AcDbPlotSettings
  1

  2
DWG To PDF.pc3
  4
ISO_full_bleed_A3_(420.00_x_297.00_MM)_(420.00_x_297.00_MM)
  6

 40
0.0
 41
0.0
 42
0.0
 43
0.0
 44
420.0
 45
297.0
 46
0.0
 47
0.0
 48
0.0
 49
0.0
140
0.0
141
0.0
142
0.0078125
143
12.0
 70
672
 72
1
 73
0
 74
5
  7

 75
1
 76
0
 77
2
 78
300
147
1.0
148
0.0
149
0.0
100
AcDbLayout
  1
Lamina
 70
1
 71
3
 10
-0.0
 20
-0.0
 11
420.0
 21
297.0
 12
0.0
 22
0.0
 32
0.0
 14
1e+20
 24
1e+20
 34
1e+20
 15
-1e+20
 25
-1e+20
 35
-1e+20
146
0.0
 13
0.0
 23
0.0
 33
0.0
 16
1.0
 26
0.0
 36
0.0
 17
0.0
 27
1.0
 37
0.0
 76
1
330
24E
331
252
  0
DICTIONARYVAR
  5
256
330
2D
100
DictionaryVariables
280
0
  1
1.4.4 @ 2026-09-29T04:41:32.556741+00:00
  0
ENDSEC
  0
EOF
