  0
SECTION
  2
HEADER
  9
$ACADVER
  1
AC1032
  9
$ACADMAINTVER
 90
4
  9
$DWGCODEPAGE
  3
ANSI_1252
  9
$LASTSAVEDBY
  1
ezdxf
  9
$REQUIREDVERSIONS
160
0
  9
$INSBASE
 10
0.0
 20
0.0
 30
0.0
  9
$EXTMIN
 10
1e+20
 20
1e+20
 30
1e+20
  9
$EXTMAX
 10
-1e+20
 20
-1e+20
 30
-1e+20
  9
$LIMMIN
 10
0.0
 20
0.0
  9
$LIMMAX
 10
420.0
 20
297.0
  9
$ORTHOMODE
 70
0
  9
$REGENMODE
 70
1
  9
$FILLMODE
 70
1
  9
$QTEXTMODE
 70
0
  9
$MIRRTEXT
 70
1
  9
$LTSCALE
 40
1.0
  9
$ATTMODE
 70
1
  9
$TEXTSIZE
 40
2.5
  9
$TRACEWID
 40
1.0
  9
$TEXTSTYLE
  7
Standard
  9
$CLAYER
  8
0
  9
$CELTYPE
  6
ByLayer
  9
$CECOLOR
 62
256
  9
$CELTSCALE
 40
1.0
  9
$DISPSILH
 70
0
  9
$DIMSCALE
 40
1.0
  9
$DIMASZ
 40
2.5
  9
$DIMEXO
 40
0.625
  9
$DIMDLI
 40
3.75
  9
$DIMRND
 40
0.0
  9
$DIMDLE
 40
0.0
  9
$DIMEXE
 40
1.25
  9
$DIMTP
 40
0.0
  9
$DIMTM
 40
0.0
  9
$DIMTXT
 40
2.5
  9
$DIMCEN
 40
2.5
  9
$DIMTSZ
 40
0.0
  9
$DIMTOL
 70
0
  9
$DIMLIM
 70
0
  9
$DIMTIH
 70
0
  9
$DIMTOH
 70
0
  9
$DIMSE1
 70
0
  9
$DIMSE2
 70
0
  9
$DIMTAD
 70
1
  9
$DIMZIN
 70
8
  9
$DIMBLK
  1

  9
$DIMASO
 70
1
  9
$DIMSHO
 70
1
  9
$DIMPOST
  1

  9
$DIMAPOST
  1

  9
$DIMALT
 70
0
  9
$DIMALTD
 70
3
  9
$DIMALTF
 40
0.03937007874
  9
$DIMLFAC
 40
1.0
  9
$DIMTOFL
 70
1
  9
$DIMTVP
 40
0.0
  9
$DIMTIX
 70
0
  9
$DIMSOXD
 70
0
  9
$DIMSAH
 70
0
  9
$DIMBLK1
  1

  9
$DIMBLK2
  1

  9
$DIMSTYLE
  2
ISO-25
  9
$DIMCLRD
 70
0
  9
$DIMCLRE
 70
0
  9
$DIMCLRT
 70
0
  9
$DIMTFAC
 40
1.0
  9
$DIMGAP
 40
0.625
  9
$DIMJUST
 70
0
  9
$DIMSD1
 70
0
  9
$DIMSD2
 70
0
  9
$DIMTOLJ
 70
0
  9
$DIMTZIN
 70
8
  9
$DIMALTZ
 70
0
  9
$DIMALTTZ
 70
0
  9
$DIMUPT
 70
0
  9
$DIMDEC
 70
2
  9
$DIMTDEC
 70
2
  9
$DIMALTU
 70
2
  9
$DIMALTTD
 70
3
  9
$DIMTXSTY
  7
Standard
  9
$DIMAUNIT
 70
0
  9
$DIMADEC
 70
0
  9
$DIMALTRND
 40
0.0
  9
$DIMAZIN
 70
0
  9
$DIMDSEP
 70
44
  9
$DIMATFIT
 70
3
  9
$DIMFRAC
 70
0
  9
$DIMLDRBLK
  1

  9
$DIMLUNIT
 70
2
  9
$DIMLWD
 70
-2
  9
$DIMLWE
 70
-2
  9
$DIMTMOVE
 70
0
  9
$DIMFXL
 40
1.0
  9
$DIMFXLON
 70
0
  9
$DIMJOGANG
 40
0.785398163397
  9
$DIMTFILL
 70
0
  9
$DIMTFILLCLR
 70
0
  9
$DIMARCSYM
 70
0
  9
$DIMLTYPE
  6

  9
$DIMLTEX1
  6

  9
$DIMLTEX2
  6

  9
$DIMTXTDIRECTION
 70
0
  9
$LUNITS
 70
2
  9
$LUPREC
 70
4
  9
$SKETCHINC
 40
1.0
  9
$FILLETRAD
 40
10.0
  9
$AUNITS
 70
0
  9
$AUPREC
 70
2
  9
$MENU
  1
.
  9
$ELEVATION
 40
0.0
  9
$PELEVATION
 40
0.0
  9
$THICKNESS
 40
0.0
  9
$LIMCHECK
 70
0
  9
$CHAMFERA
 40
0.0
  9
$CHAMFERB
 40
0.0
  9
$CHAMFERC
 40
0.0
  9
$CHAMFERD
 40
0.0
  9
$SKPOLY
 70
0
  9
$TDCREATE
 40
2461313.2042939817
  9
$TDUCREATE
 40
2458532.153996898
  9
$TDUPDATE
 40
2461313.2043055557
  9
$TDUUPDATE
 40
2458532.1544311
  9
$TDINDWG
 40
0.0
  9
$TDUSRTIMER
 40
0.0
  9
$USRTIMER
 70
1
  9
$ANGBASE
 50
0.0
  9
$ANGDIR
 70
0
  9
$PDMODE
 70
0
  9
$PDSIZE
 40
0.0
  9
$PLINEWID
 40
0.0
  9
$SPLFRAME
 70
0
  9
$SPLINETYPE
 70
6
  9
$SPLINESEGS
 70
8
  9
$HANDSEED
  5
117
  9
$SURFTAB1
 70
6
  9
$SURFTAB2
 70
6
  9
$SURFTYPE
 70
6
  9
$SURFU
 70
6
  9
$SURFV
 70
6
  9
$UCSBASE
  2

  9
$UCSNAME
  2

  9
$UCSORG
 10
0.0
 20
0.0
 30
0.0
  9
$UCSXDIR
 10
1.0
 20
0.0
 30
0.0
  9
$UCSYDIR
 10
0.0
 20
1.0
 30
0.0
  9
$UCSORTHOREF
  2

  9
$UCSORTHOVIEW
 70
0
  9
$UCSORGTOP
 10
0.0
 20
0.0
 30
0.0
  9
$UCSORGBOTTOM
 10
0.0
 20
0.0
 30
0.0
  9
$UCSORGLEFT
 10
0.0
 20
0.0
 30
0.0
  9
$UCSORGRIGHT
 10
0.0
 20
0.0
 30
0.0
  9
$UCSORGFRONT
 10
0.0
 20
0.0
 30
0.0
  9
$UCSORGBACK
 10
0.0
 20
0.0
 30
0.0
  9
$PUCSBASE
  2

  9
$PUCSNAME
  2

  9
$PUCSORG
 10
0.0
 20
0.0
 30
0.0
  9
$PUCSXDIR
 10
1.0
 20
0.0
 30
0.0
  9
$PUCSYDIR
 10
0.0
 20
1.0
 30
0.0
  9
$PUCSORTHOREF
  2

  9
$PUCSORTHOVIEW
 70
0
  9
$PUCSORGTOP
 10
0.0
 20
0.0
 30
0.0
  9
$PUCSORGBOTTOM
 10
0.0
 20
0.0
 30
0.0
  9
$PUCSORGLEFT
 10
0.0
 20
0.0
 30
0.0
  9
$PUCSORGRIGHT
 10
0.0
 20
0.0
 30
0.0
  9
$PUCSORGFRONT
 10
0.0
 20
0.0
 30
0.0
  9
$PUCSORGBACK
 10
0.0
 20
0.0
 30
0.0
  9
$USERI1
 70
0
  9
$USERI2
 70
0
  9
$USERI3
 70
0
  9
$USERI4
 70
0
  9
$USERI5
 70
0
  9
$USERR1
 40
0.0
  9
$USERR2
 40
0.0
  9
$USERR3
 40
0.0
  9
$USERR4
 40
0.0
  9
$USERR5
 40
0.0
  9
$WORLDVIEW
 70
1
  9
$SHADEDGE
 70
3
  9
$SHADEDIF
 70
70
  9
$TILEMODE
 70
1
  9
$MAXACTVP
 70
64
  9
$PINSBASE
 10
0.0
 20
0.0
 30
0.0
  9
$PLIMCHECK
 70
0
  9
$PEXTMIN
 10
1e+20
 20
1e+20
 30
1e+20
  9
$PEXTMAX
 10
-1e+20
 20
-1e+20
 30
-1e+20
  9
$PLIMMIN
 10
-0.0
 20
-0.0
  9
$PLIMMAX
 10
420.0
 20
297.0
  9
$UNITMODE
 70
0
  9
$VISRETAIN
 70
1
  9
$PLINEGEN
 70
0
  9
$PSLTSCALE
 70
0
  9
$TREEDEPTH
 70
3020
  9
$CMLSTYLE
  2
Standard
  9
$CMLJUST
 70
0
  9
$CMLSCALE
 40
20.0
  9
$PROXYGRAPHICS
 70
1
  9
$MEASUREMENT
 70
1
  9
$CELWEIGHT
370
-1
  9
$ENDCAPS
280
0
  9
$JOINSTYLE
280
0
  9
$LWDISPLAY
290
1
  9
$INSUNITS
 70
4
  9
$HYPERLINKBASE
  1

  9
$STYLESHEET
  1

  9
$XEDIT
290
1
  9
$CEPSNTYPE
380
0
  9
$PSTYLEMODE
290
1
  9
$FINGERPRINTGUID
  2
{AE010555-8E3A-43C9-8D38-9AABEEC43417}
  9
$VERSIONGUID
  2
{035A4D26-AA52-46FD-A646-48DED0EDF25F}
  9
$EXTNAMES
290
1
  9
$PSVPSCALE
 40
0.0
  9
$OLESTARTUP
290
0
  9
$SORTENTS
280
127
  9
$INDEXCTL
280
0
  9
$HIDETEXT
280
1
  9
$XCLIPFRAME
280
1
  9
$HALOGAP
280
0
  9
$OBSCOLOR
 70
257
  9
$OBSLTYPE
280
0
  9
$INTERSECTIONDISPLAY
280
0
  9
$INTERSECTIONCOLOR
 70
257
  9
$DIMASSOC
280
2
  9
$PROJECTNAME
  1

  9
$CAMERADISPLAY
290
0
  9
$LENSLENGTH
 40
50.0
  9
$CAMERAHEIGHT
 40
0.0
  9
$STEPSPERSEC
 40
24.0
  9
$STEPSIZE
 40
100.0
  9
$3DDWFPREC
 40
2.0
  9
$PSOLWIDTH
 40
0.005
  9
$PSOLHEIGHT
 40
0.08
  9
$LOFTANG1
 40
1.570796326795
  9
$LOFTANG2
 40
1.570796326795
  9
$LOFTMAG1
 40
0.0
  9
$LOFTMAG2
 40
0.0
  9
$LOFTPARAM
 70
7
  9
$LOFTNORMALS
280
1
  9
$LATITUDE
 40
37.795
  9
$LONGITUDE
 40
-122.394
  9
$NORTHDIRECTION
 40
0.0
  9
$TIMEZONE
 70
-8000
  9
$LIGHTGLYPHDISPLAY
280
1
  9
$TILEMODELIGHTSYNCH
280
1
  9
$CMATERIAL
347
20
  9
$SOLIDHIST
280
0
  9
$SHOWHIST
280
1
  9
$DWFFRAME
280
2
  9
$DGNFRAME
280
2
  9
$REALWORLDSCALE
290
1
  9
$INTERFERECOLOR
 62
256
  9
$CSHADOW
280
0
  9
$SHADOWPLANELOCATION
 40
0.0
  0
ENDSEC
  0
SECTION
  2
CLASSES
  0
CLASS
  1
ACDBDICTIONARYWDFLT
  2
AcDbDictionaryWithDefault
  3
ObjectDBX Classes
 90
0
 91
0
280
0
281
0
  0
CLASS
  1
SUN
  2
AcDbSun
  3
SCENEOE
 90
1153
 91
0
280
0
281
0
  0
CLASS
  1
VISUALSTYLE
  2
AcDbVisualStyle
  3
ObjectDBX Classes
 90
4095
 91
0
280
0
281
0
  0
CLASS
  1
MATERIAL
  2
AcDbMaterial
  3
ObjectDBX Classes
 90
1153
 91
0
280
0
281
0
  0
CLASS
  1
SCALE
  2
AcDbScale
  3
ObjectDBX Classes
 90
1153
 91
0
280
0
281
0
  0
CLASS
  1
TABLESTYLE
  2
AcDbTableStyle
  3
ObjectDBX Classes
 90
4095
 91
0
280
0
281
0
  0
CLASS
  1
MLEADERSTYLE
  2
AcDbMLeaderStyle
  3
ACDB_MLEADERSTYLE_CLASS
 90
4095
 91
0
280
0
281
0
  0
CLASS
  1
DICTIONARYVAR
  2
AcDbDictionaryVar
  3
ObjectDBX Classes
 90
0
 91
0
280
0
281
0
  0
CLASS
  1
CELLSTYLEMAP
  2
AcDbCellStyleMap
  3
ObjectDBX Classes
 90
1152
 91
0
280
0
281
0
  0
CLASS
  1
MENTALRAYRENDERSETTINGS
  2
AcDbMentalRayRenderSettings
  3
SCENEOE
 90
1024
 91
0
280
0
281
0
  0
CLASS
  1
ACDBDETAILVIEWSTYLE
  2
AcDbDetailViewStyle
  3
ObjectDBX Classes
 90
1025
 91
0
280
0
281
0
  0
CLASS
  1
ACDBSECTIONVIEWSTYLE
  2
AcDbSectionViewStyle
  3
ObjectDBX Classes
 90
1025
 91
0
280
0
281
0
  0
CLASS
  1
RASTERVARIABLES
  2
AcDbRasterVariables
  3
ISM
 90
0
 91
0
280
0
281
0
  0
CLASS
  1
LAYOUT
  2
AcDbLayout
  3
ObjectDBX Classes
 90
0
 91
0
280
0
281
0
  0
CLASS
  1
ACDBPLACEHOLDER
  2
AcDbPlaceHolder
  3
ObjectDBX Classes
 90
0
 91
0
280
0
281
0
  0
ENDSEC
  0
SECTION
  2
TABLES
  0
TABLE
  2
VPORT
  5
8
330
0
100
AcDbSymbolTable
 70
1
  0
VPORT
  5
23
330
8
100
AcDbSymbolTableRecord
100
AcDbViewportTableRecord
  2
*Active
 70
0
 10
0.0
 20
0.0
 11
1.0
 21
1.0
 12
0.0
 22
0.0
 13
0.0
 23
0.0
 14
0.5
 24
0.5
 15
0.5
 25
0.5
 16
0.0
 26
0.0
 36
1.0
 17
0.0
 27
0.0
 37
0.0
 40
1000.0
 41
1.34
 42
50.0
 43
0.0
 44
0.0
 50
0.0
 51
0.0
 71
0
 72
1000
 73
1
 74
3
 75
0
 76
0
 77
0
 78
0
281
0
 65
0
146
0.0
  0
ENDTAB
  0
TABLE
  2
LTYPE
  5
2
330
0
100
AcDbSymbolTable
 70
5
  0
LTYPE
  5
24
330
2
100
AcDbSymbolTableRecord
100
AcDbLinetypeTableRecord
  2
ByBlock
 70
0
  3

 72
65
 73
0
 40
0.0
  0
LTYPE
  5
25
330
2
100
AcDbSymbolTableRecord
100
AcDbLinetypeTableRecord
  2
ByLayer
 70
0
  3

 72
65
 73
0
 40
0.0
  0
LTYPE
  5
26
330
2
100
AcDbSymbolTableRecord
100
AcDbLinetypeTableRecord
  2
Continuous
 70
0
  3

 72
65
 73
0
 40
0.0
  0
LTYPE
  5
2F
330
2
100
AcDbSymbolTableRecord
100
AcDbLinetypeTableRecord
  2
IRAM-E-TRAZOS
 70
0
  3
IRAM 4502 E - trazos __ __ __
 72
65
 73
2
 40
5.0
 49
4.0
 74
0
 49
-1.0
 74
0
  0
LTYPE
  5
30
330
2
100
AcDbSymbolTableRecord
100
AcDbLinetypeTableRecord
  2
IRAM-F-TRAZO-PUNTO
 70
0
  3
IRAM 4502 F - trazo largo y trazo corto ____ _ ____
 72
65
 73
4
 40
20.0
 49
15.0
 74
0
 49
-2.0
 74
0
 49
1.0
 74
0
 49
-2.0
 74
0
  0
ENDTAB
  0
TABLE
  2
LAYER
  5
1
330
0
100
AcDbSymbolTable
 70
14
  0
LAYER
  5
27
330
1
100
AcDbSymbolTableRecord
100
AcDbLayerTableRecord
  2
0
 70
0
 62
7
  6
Continuous
370
-3
390
13
347
21
  0
LAYER
  5
28
330
1
100
AcDbSymbolTableRecord
100
AcDbLayerTableRecord
  2
Defpoints
 70
0
 62
7
  6
Continuous
290
0
370
-3
390
13
347
21
  0
LAYER
  5
31
330
1
100
AcDbSymbolTableRecord
100
AcDbLayerTableRecord
  2
01-VISIBLE
 70
0
 62
7
  6
CONTINUOUS
370
70
390
13
347
21
1001
AcAecLayerStandard
1000

1000
A continua gruesa: contornos y aristas visibles
  0
LAYER
  5
33
330
1
100
AcDbSymbolTableRecord
100
AcDbLayerTableRecord
  2
02-OCULTA
 70
0
 62
4
  6
IRAM-E-TRAZOS
370
35
390
13
347
21
1001
AcAecLayerStandard
1000

1000
E de trazos media: contornos y aristas ocultos
  0
LAYER
  5
34
330
1
100
AcDbSymbolTableRecord
100
AcDbLayerTableRecord
  2
03-EJE
 70
0
 62
1
  6
IRAM-F-TRAZO-PUNTO
370
18
390
13
347
21
1001
AcAecLayerStandard
1000

1000
F trazo largo y corto fina: ejes, simetrías, trayectorias
  0
LAYER
  5
35
330
1
100
AcDbSymbolTableRecord
100
AcDbLayerTableRecord
  2
04-COTA
 70
0
 62
3
  6
CONTINUOUS
370
18
390
13
347
21
1001
AcAecLayerStandard
1000

1000
B continua fina: líneas de cota y auxiliares
  0
LAYER
  5
36
330
1
100
AcDbSymbolTableRecord
100
AcDbLayerTableRecord
  2
05-RAYADO
 70
0
 62
8
  6
CONTINUOUS
370
18
390
13
347
21
1001
AcAecLayerStandard
1000

1000
B continua fina: rayados IRAM 4509
  0
LAYER
  5
37
330
1
100
AcDbSymbolTableRecord
100
AcDbLayerTableRecord
  2
06-TEXTO
 70
0
 62
7
  6
CONTINUOUS
370
25
390
13
347
21
1001
AcAecLayerStandard
1000

1000
Escritura IRAM 4503 tipo B (trazo h/10)
  0
LAYER
  5
38
330
1
100
AcDbSymbolTableRecord
100
AcDbLayerTableRecord
  2
07-RECUADRO
 70
0
 62
7
  6
CONTINUOUS
370
70
390
13
347
21
1001
AcAecLayerStandard
1000

1000
Recuadro IRAM 4504
  0
LAYER
  5
39
330
1
100
AcDbSymbolTableRecord
100
AcDbLayerTableRecord
  2
08-FINA
 70
0
 62
5
  6
CONTINUOUS
370
18
390
13
347
21
1001
AcAecLayerStandard
1000

1000
B continua fina: referencias, fondos de rosca, contornos de detalle
  0
LAYER
  5
3A
330
1
100
AcDbSymbolTableRecord
100
AcDbLayerTableRecord
  2
09-PLANO-CORTE
 70
0
 62
1
  6
IRAM-F-TRAZO-PUNTO
370
18
390
13
347
21
1001
AcAecLayerStandard
1000

1000
G trazo largo y corto fina con extremos gruesos: planos de corte
  0
LAYER
  5
3B
330
1
100
AcDbSymbolTableRecord
100
AcDbLayerTableRecord
  2
10-ROTULO
 70
0
 62
7
  6
CONTINUOUS
370
35
390
13
347
21
1001
AcAecLayerStandard
1000

1000
Rótulo y lista de materiales IRAM 4508
  0
LAYER
  5
3C
330
1
100
AcDbSymbolTableRecord
100
AcDbLayerTableRecord
  2
11-TEXTO-ROTULO
 70
0
 62
7
  6
CONTINUOUS
370
25
390
13
347
21
1001
AcAecLayerStandard
1000

1000
Escritura del rótulo
  0
LAYER
  5
3D
330
1
100
AcDbSymbolTableRecord
100
AcDbLayerTableRecord
  2
12-SOLDADURA
 70
0
 62
6
  6
CONTINUOUS
370
18
390
13
347
21
1001
AcAecLayerStandard
1000

1000
Símbolos de soldadura
  0
ENDTAB
  0
TABLE
  2
STYLE
  5
5
330
0
100
AcDbSymbolTable
 70
2
  0
STYLE
  5
29
330
5
100
AcDbSymbolTableRecord
100
AcDbTextStyleTableRecord
  2
Standard
 70
0
 40
0.0
 41
1.0
 50
0.0
 71
0
 42
2.5
  3
txt
  4

  0
STYLE
  5
3E
330
5
100
AcDbSymbolTableRecord
100
AcDbTextStyleTableRecord
  2
ISO3098
 70
0
 40
0.0
 41
1.0
 50
0.0
 71
0
 42
2.5
  3
isocpeur.ttf
  4

  0
ENDTAB
  0
TABLE
  2
VIEW
  5
7
330
0
100
AcDbSymbolTable
 70
0
  0
ENDTAB
  0
TABLE
  2
UCS
  5
6
330
0
100
AcDbSymbolTable
 70
0
  0
ENDTAB
  0
TABLE
  2
APPID
  5
3
330
0
100
AcDbSymbolTable
 70
4
  0
APPID
  5
2A
330
3
100
AcDbSymbolTableRecord
100
AcDbRegAppTableRecord
  2
ACAD
 70
0
  0
APPID
  5
32
330
3
100
AcDbSymbolTableRecord
100
AcDbRegAppTableRecord
  2
AcAecLayerStandard
 70
0
  0
APPID
  5
114
330
3
100
AcDbSymbolTableRecord
100
AcDbRegAppTableRecord
  2
HATCHBACKGROUNDCOLOR
 70
0
  0
APPID
  5
115
330
3
100
AcDbSymbolTableRecord
100
AcDbRegAppTableRecord
  2
EZDXF
 70
0
  0
ENDTAB
  0
TABLE
  2
DIMSTYLE
  5
4
330
0
100
AcDbSymbolTable
 70
2
100
AcDbDimStyleTable
  0
DIMSTYLE
105
2B
330
4
100
AcDbSymbolTableRecord
100
AcDbDimStyleTableRecord
  2
Standard
 70
0
 40
1.0
 41
2.5
 42
0.625
 43
3.75
 44
1.25
 45
0.0
 46
0.0
 47
0.0
 48
0.0
 49
2.5
140
2.5
141
2.5
142
0.0
143
0.03937007874
144
1.0
145
0.0
146
1.0
147
0.625
148
0.0
 69
0
 70
0
 71
0
 72
0
 73
0
 74
0
 75
0
 76
0
 77
1
 78
8
 79
3
170
0
171
3
172
1
173
0
174
0
175
0
176
0
177
0
178
0
179
2
271
2
272
2
273
2
274
3
275
0
276
0
277
2
278
44
279
0
280
0
281
0
282
0
283
0
284
8
285
0
286
0
288
0
289
3
290
0
371
-2
372
-2
  0
DIMSTYLE
105
43
330
4
100
AcDbSymbolTableRecord
100
AcDbDimStyleTableRecord
  2
FLAMA-IRAM
 70
0
 40
1.0
 41
3.5
 42
1.5
 43
3.75
 44
2.0
 45
0.0
 46
0.0
 47
0.0
 48
0.0
 49
2.5
140
3.5
141
2.5
142
0.0
143
0.03937007874
144
1.0
145
0.0
146
1.0
147
1.0
148
0.0
 69
0
 70
0
 71
0
 72
0
 73
0
 74
0
 75
0
 76
0
 77
1
 78
8
 79
3
170
0
171
3
172
1
173
0
174
0
175
0
176
7
177
7
178
7
179
2
271
1
272
2
273
2
274
3
275
0
276
0
277
2
278
44
279
0
280
0
281
0
282
0
283
0
284
8
285
0
286
0
288
0
289
3
290
0
340
3E
342
3F
343
3F
344
3F
371
18
372
18
  0
ENDTAB
  0
TABLE
  2
BLOCK_RECORD
  5
9
330
0
100
AcDbSymbolTable
 70
5
  0
BLOCK_RECORD
  5
17
330
9
100
AcDbSymbolTableRecord
100
AcDbBlockTableRecord
  2
*Model_Space
340
1A
 70
0
280
1
281
0
  0
BLOCK_RECORD
  5
3F
330
9
100
AcDbSymbolTableRecord
100
AcDbBlockTableRecord
  2
IRAM_FLECHA
340
0
 70
0
280
1
281
0
  0
BLOCK_RECORD
  5
C4
330
9
100
AcDbSymbolTableRecord
100
AcDbBlockTableRecord
  2
*D1
340
0
 70
0
280
1
281
0
  0
BLOCK_RECORD
  5
DA
330
9
100
AcDbSymbolTableRecord
100
AcDbBlockTableRecord
  2
*D2
340
0
 70
0
280
1
281
0
  0
BLOCK_RECORD
  5
10E
330
9
100
AcDbSymbolTableRecord
100
AcDbBlockTableRecord
  2
*Paper_Space
340
111
 70
0
280
1
281
0
  0
ENDTAB
  0
ENDSEC
  0
SECTION
  2
BLOCKS
  0
BLOCK
  5
18
330
17
100
AcDbEntity
  8
0
100
AcDbBlockBegin
  2
*Model_Space
 70
0
 10
0.0
 20
0.0
 30
0.0
  3
*Model_Space
  1

  0
ENDBLK
  5
19
330
17
100
AcDbEntity
  8
0
100
AcDbBlockEnd
  0
BLOCK
  5
40
330
3F
100
AcDbEntity
  8
0
100
AcDbBlockBegin
  2
IRAM_FLECHA
 70
0
 10
0.0
 20
0.0
 30
0.0
  3
IRAM_FLECHA
  1

  0
SOLID
  5
42
330
3F
100
AcDbEntity
  8
0
100
AcDbTrace
 10
0.0
 20
0.0
 30
0.0
 11
-1.0
 21
0.125
 31
0.0
 12
-1.0
 22
-0.125
 32
0.0
 13
-1.0
 23
-0.125
 33
0.0
  0
ENDBLK
  5
41
330
3F
100
AcDbEntity
  8
0
100
AcDbBlockEnd
  0
BLOCK
  5
C5
330
C4
100
AcDbEntity
  8
0
100
AcDbBlockBegin
  2
*D1
 70
1
 10
0.0
 20
0.0
 30
0.0
  3
*D1
  1

  0
LINE
  5
C7
330
C4
100
AcDbEntity
  8
0
 62
7
370
18
100
AcDbLine
 10
89.65
 20
110.0
 30
0.0
 11
98.15
 21
110.0
 31
0.0
  0
LINE
  5
C8
330
C4
100
AcDbEntity
  8
0
 62
7
370
18
100
AcDbLine
 10
89.65
 20
118.0
 30
0.0
 11
98.15
 21
118.0
 31
0.0
  0
INSERT
  5
C9
330
C4
100
AcDbEntity
  8
04-COTA
 62
7
100
AcDbBlockReference
  2
IRAM_FLECHA
 10
96.15
 20
110.0
 30
0.0
 41
3.5
 42
3.5
 50
270.0
  0
INSERT
  5
CB
330
C4
100
AcDbEntity
  8
04-COTA
 62
7
100
AcDbBlockReference
  2
IRAM_FLECHA
 10
96.15
 20
118.0
 30
0.0
 41
3.5
 42
3.5
 50
90.0
  0
LINE
  5
CD
330
C4
100
AcDbEntity
  8
0
 62
7
370
18
100
AcDbLine
 10
96.15
 20
113.5
 30
0.0
 11
96.15
 21
114.5
 31
0.0
  0
MTEXT
  5
CE
330
C4
100
AcDbEntity
  8
04-COTA
 62
7
100
AcDbMText
 10
93.4
 20
114.0
 30
0.0
 40
3.5
 71
5
  1
40
  7
ISO3098
 50
90.0
  0
POINT
  5
CF
330
C4
100
AcDbEntity
  8
Defpoints
100
AcDbPoint
 10
96.15
 20
110.0
 30
0.0
  0
POINT
  5
D0
330
C4
100
AcDbEntity
  8
Defpoints
100
AcDbPoint
 10
88.15
 20
110.0
 30
0.0
  0
POINT
  5
D1
330
C4
100
AcDbEntity
  8
Defpoints
100
AcDbPoint
 10
88.15
 20
118.0
 30
0.0
  0
ENDBLK
  5
C6
330
C4
100
AcDbEntity
  8
0
100
AcDbBlockEnd
  0
BLOCK
  5
DB
330
DA
100
AcDbEntity
  8
0
100
AcDbBlockBegin
  2
*D2
 70
1
 10
0.0
 20
0.0
 30
0.0
  3
*D2
  1

  0
LINE
  5
DD
330
DA
100
AcDbEntity
  8
0
 62
7
370
18
100
AcDbLine
 10
179.65
 20
110.0
 30
0.0
 11
188.15
 21
110.0
 31
0.0
  0
LINE
  5
DE
330
DA
100
AcDbEntity
  8
0
 62
7
370
18
100
AcDbLine
 10
179.65
 20
118.0
 30
0.0
 11
188.15
 21
118.0
 31
0.0
  0
INSERT
  5
DF
330
DA
100
AcDbEntity
  8
04-COTA
 62
7
100
AcDbBlockReference
  2
IRAM_FLECHA
 10
186.15
 20
110.0
 30
0.0
 41
3.5
 42
3.5
 50
270.0
  0
INSERT
  5
E1
330
DA
100
AcDbEntity
  8
04-COTA
 62
7
100
AcDbBlockReference
  2
IRAM_FLECHA
 10
186.15
 20
118.0
 30
0.0
 41
3.5
 42
3.5
 50
90.0
  0
LINE
  5
E3
330
DA
100
AcDbEntity
  8
0
 62
7
370
18
100
AcDbLine
 10
186.15
 20
113.5
 30
0.0
 11
186.15
 21
114.5
 31
0.0
  0
MTEXT
  5
E4
330
DA
100
AcDbEntity
  8
04-COTA
 62
7
100
AcDbMText
 10
183.4
 20
114.0
 30
0.0
 40
3.5
 71
5
  1
40
  7
ISO3098
 50
90.0
  0
POINT
  5
E5
330
DA
100
AcDbEntity
  8
Defpoints
100
AcDbPoint
 10
186.15
 20
110.0
 30
0.0
  0
POINT
  5
E6
330
DA
100
AcDbEntity
  8
Defpoints
100
AcDbPoint
 10
178.15
 20
110.0
 30
0.0
  0
POINT
  5
E7
330
DA
100
AcDbEntity
  8
Defpoints
100
AcDbPoint
 10
178.15
 20
118.0
 30
0.0
  0
ENDBLK
  5
DC
330
DA
100
AcDbEntity
  8
0
100
AcDbBlockEnd
  0
BLOCK
  5
10F
330
10E
100
AcDbEntity
  8
0
100
AcDbBlockBegin
  2
*Paper_Space
 70
0
 10
0.0
 20
0.0
 30
0.0
  3
*Paper_Space
  1

  0
ENDBLK
  5
110
330
10E
100
AcDbEntity
  8
0
100
AcDbBlockEnd
  0
ENDSEC
  0
SECTION
  2
ENTITIES
  0
LWPOLYLINE
  5
44
330
17
100
AcDbEntity
  8
08-FINA
100
AcDbPolyline
 90
4
 70
1
 10
0.0
 20
0.0
 10
420.0
 20
0.0
 10
420.0
 20
297.0
 10
0.0
 20
297.0
  0
LWPOLYLINE
  5
45
330
17
100
AcDbEntity
  8
07-RECUADRO
100
AcDbPolyline
 90
4
 70
1
 10
25.0
 20
10.0
 10
410.0
 20
10.0
 10
410.0
 20
287.0
 10
25.0
 20
287.0
  0
LINE
  5
46
330
17
100
AcDbEntity
  8
07-RECUADRO
100
AcDbLine
 10
210.0
 20
0.0
 30
0.0
 11
210.0
 21
15.0
 31
0.0
  0
LINE
  5
47
330
17
100
AcDbEntity
  8
07-RECUADRO
100
AcDbLine
 10
210.0
 20
297.0
 30
0.0
 11
210.0
 21
282.0
 31
0.0
  0
LINE
  5
48
330
17
100
AcDbEntity
  8
07-RECUADRO
100
AcDbLine
 10
0.0
 20
148.5
 30
0.0
 11
30.0
 21
148.5
 31
0.0
  0
LINE
  5
49
330
17
100
AcDbEntity
  8
07-RECUADRO
100
AcDbLine
 10
420.0
 20
148.5
 30
0.0
 11
405.0
 21
148.5
 31
0.0
  0
LINE
  5
4A
330
17
100
AcDbEntity
  8
08-FINA
100
AcDbLine
 10
60.0
 20
10.0
 30
0.0
 11
60.0
 21
5.0
 31
0.0
  0
LINE
  5
4B
330
17
100
AcDbEntity
  8
08-FINA
100
AcDbLine
 10
60.0
 20
287.0
 30
0.0
 11
60.0
 21
292.0
 31
0.0
  0
LINE
  5
4C
330
17
100
AcDbEntity
  8
08-FINA
100
AcDbLine
 10
110.0
 20
10.0
 30
0.0
 11
110.0
 21
5.0
 31
0.0
  0
LINE
  5
4D
330
17
100
AcDbEntity
  8
08-FINA
100
AcDbLine
 10
110.0
 20
287.0
 30
0.0
 11
110.0
 21
292.0
 31
0.0
  0
LINE
  5
4E
330
17
100
AcDbEntity
  8
08-FINA
100
AcDbLine
 10
160.0
 20
10.0
 30
0.0
 11
160.0
 21
5.0
 31
0.0
  0
LINE
  5
4F
330
17
100
AcDbEntity
  8
08-FINA
100
AcDbLine
 10
160.0
 20
287.0
 30
0.0
 11
160.0
 21
292.0
 31
0.0
  0
LINE
  5
50
330
17
100
AcDbEntity
  8
08-FINA
100
AcDbLine
 10
260.0
 20
10.0
 30
0.0
 11
260.0
 21
5.0
 31
0.0
  0
LINE
  5
51
330
17
100
AcDbEntity
  8
08-FINA
100
AcDbLine
 10
260.0
 20
287.0
 30
0.0
 11
260.0
 21
292.0
 31
0.0
  0
LINE
  5
52
330
17
100
AcDbEntity
  8
08-FINA
100
AcDbLine
 10
310.0
 20
10.0
 30
0.0
 11
310.0
 21
5.0
 31
0.0
  0
LINE
  5
53
330
17
100
AcDbEntity
  8
08-FINA
100
AcDbLine
 10
310.0
 20
287.0
 30
0.0
 11
310.0
 21
292.0
 31
0.0
  0
LINE
  5
54
330
17
100
AcDbEntity
  8
08-FINA
100
AcDbLine
 10
360.0
 20
10.0
 30
0.0
 11
360.0
 21
5.0
 31
0.0
  0
LINE
  5
55
330
17
100
AcDbEntity
  8
08-FINA
100
AcDbLine
 10
360.0
 20
287.0
 30
0.0
 11
360.0
 21
292.0
 31
0.0
  0
LINE
  5
56
330
17
100
AcDbEntity
  8
08-FINA
100
AcDbLine
 10
25.0
 20
48.5
 30
0.0
 11
20.0
 21
48.5
 31
0.0
  0
LINE
  5
57
330
17
100
AcDbEntity
  8
08-FINA
100
AcDbLine
 10
410.0
 20
48.5
 30
0.0
 11
415.0
 21
48.5
 31
0.0
  0
LINE
  5
58
330
17
100
AcDbEntity
  8
08-FINA
100
AcDbLine
 10
25.0
 20
98.5
 30
0.0
 11
20.0
 21
98.5
 31
0.0
  0
LINE
  5
59
330
17
100
AcDbEntity
  8
08-FINA
100
AcDbLine
 10
410.0
 20
98.5
 30
0.0
 11
415.0
 21
98.5
 31
0.0
  0
LINE
  5
5A
330
17
100
AcDbEntity
  8
08-FINA
100
AcDbLine
 10
25.0
 20
198.5
 30
0.0
 11
20.0
 21
198.5
 31
0.0
  0
LINE
  5
5B
330
17
100
AcDbEntity
  8
08-FINA
100
AcDbLine
 10
410.0
 20
198.5
 30
0.0
 11
415.0
 21
198.5
 31
0.0
  0
LINE
  5
5C
330
17
100
AcDbEntity
  8
08-FINA
100
AcDbLine
 10
25.0
 20
248.5
 30
0.0
 11
20.0
 21
248.5
 31
0.0
  0
LINE
  5
5D
330
17
100
AcDbEntity
  8
08-FINA
100
AcDbLine
 10
410.0
 20
248.5
 30
0.0
 11
415.0
 21
248.5
 31
0.0
  0
TEXT
  5
5E
330
17
100
AcDbEntity
  8
06-TEXTO
100
AcDbText
 10
42.5
 20
5.0
 30
0.0
 40
3.5
  1
1
  7
ISO3098
 72
1
 11
42.5
 21
5.0
 31
0.0
100
AcDbText
 73
2
  0
TEXT
  5
5F
330
17
100
AcDbEntity
  8
06-TEXTO
100
AcDbText
 10
42.5
 20
292.0
 30
0.0
 40
3.5
  1
1
  7
ISO3098
 72
1
 11
42.5
 21
292.0
 31
0.0
100
AcDbText
 73
2
  0
TEXT
  5
60
330
17
100
AcDbEntity
  8
06-TEXTO
100
AcDbText
 10
85.0
 20
5.0
 30
0.0
 40
3.5
  1
2
  7
ISO3098
 72
1
 11
85.0
 21
5.0
 31
0.0
100
AcDbText
 73
2
  0
TEXT
  5
61
330
17
100
AcDbEntity
  8
06-TEXTO
100
AcDbText
 10
85.0
 20
292.0
 30
0.0
 40
3.5
  1
2
  7
ISO3098
 72
1
 11
85.0
 21
292.0
 31
0.0
100
AcDbText
 73
2
  0
TEXT
  5
62
330
17
100
AcDbEntity
  8
06-TEXTO
100
AcDbText
 10
135.0
 20
5.0
 30
0.0
 40
3.5
  1
3
  7
ISO3098
 72
1
 11
135.0
 21
5.0
 31
0.0
100
AcDbText
 73
2
  0
TEXT
  5
63
330
17
100
AcDbEntity
  8
06-TEXTO
100
AcDbText
 10
135.0
 20
292.0
 30
0.0
 40
3.5
  1
3
  7
ISO3098
 72
1
 11
135.0
 21
292.0
 31
0.0
100
AcDbText
 73
2
  0
TEXT
  5
64
330
17
100
AcDbEntity
  8
06-TEXTO
100
AcDbText
 10
185.0
 20
5.0
 30
0.0
 40
3.5
  1
4
  7
ISO3098
 72
1
 11
185.0
 21
5.0
 31
0.0
100
AcDbText
 73
2
  0
TEXT
  5
65
330
17
100
AcDbEntity
  8
06-TEXTO
100
AcDbText
 10
185.0
 20
292.0
 30
0.0
 40
3.5
  1
4
  7
ISO3098
 72
1
 11
185.0
 21
292.0
 31
0.0
100
AcDbText
 73
2
  0
TEXT
  5
66
330
17
100
AcDbEntity
  8
06-TEXTO
100
AcDbText
 10
235.0
 20
5.0
 30
0.0
 40
3.5
  1
5
  7
ISO3098
 72
1
 11
235.0
 21
5.0
 31
0.0
100
AcDbText
 73
2
  0
TEXT
  5
67
330
17
100
AcDbEntity
  8
06-TEXTO
100
AcDbText
 10
235.0
 20
292.0
 30
0.0
 40
3.5
  1
5
  7
ISO3098
 72
1
 11
235.0
 21
292.0
 31
0.0
100
AcDbText
 73
2
  0
TEXT
  5
68
330
17
100
AcDbEntity
  8
06-TEXTO
100
AcDbText
 10
285.0
 20
5.0
 30
0.0
 40
3.5
  1
6
  7
ISO3098
 72
1
 11
285.0
 21
5.0
 31
0.0
100
AcDbText
 73
2
  0
TEXT
  5
69
330
17
100
AcDbEntity
  8
06-TEXTO
100
AcDbText
 10
285.0
 20
292.0
 30
0.0
 40
3.5
  1
6
  7
ISO3098
 72
1
 11
285.0
 21
292.0
 31
0.0
100
AcDbText
 73
2
  0
TEXT
  5
6A
330
17
100
AcDbEntity
  8
06-TEXTO
100
AcDbText
 10
335.0
 20
5.0
 30
0.0
 40
3.5
  1
7
  7
ISO3098
 72
1
 11
335.0
 21
5.0
 31
0.0
100
AcDbText
 73
2
  0
TEXT
  5
6B
330
17
100
AcDbEntity
  8
06-TEXTO
100
AcDbText
 10
335.0
 20
292.0
 30
0.0
 40
3.5
  1
7
  7
ISO3098
 72
1
 11
335.0
 21
292.0
 31
0.0
100
AcDbText
 73
2
  0
TEXT
  5
6C
330
17
100
AcDbEntity
  8
06-TEXTO
100
AcDbText
 10
385.0
 20
5.0
 30
0.0
 40
3.5
  1
8
  7
ISO3098
 72
1
 11
385.0
 21
5.0
 31
0.0
100
AcDbText
 73
2
  0
TEXT
  5
6D
330
17
100
AcDbEntity
  8
06-TEXTO
100
AcDbText
 10
385.0
 20
292.0
 30
0.0
 40
3.5
  1
8
  7
ISO3098
 72
1
 11
385.0
 21
292.0
 31
0.0
100
AcDbText
 73
2
  0
TEXT
  5
6E
330
17
100
AcDbEntity
  8
06-TEXTO
100
AcDbText
 10
15.0
 20
29.25
 30
0.0
 40
3.5
  1
F
  7
ISO3098
 72
1
 11
15.0
 21
29.25
 31
0.0
100
AcDbText
 73
2
  0
TEXT
  5
6F
330
17
100
AcDbEntity
  8
06-TEXTO
100
AcDbText
 10
415.0
 20
29.25
 30
0.0
 40
3.5
  1
F
  7
ISO3098
 72
1
 11
415.0
 21
29.25
 31
0.0
100
AcDbText
 73
2
  0
TEXT
  5
70
330
17
100
AcDbEntity
  8
06-TEXTO
100
AcDbText
 10
15.0
 20
73.5
 30
0.0
 40
3.5
  1
E
  7
ISO3098
 72
1
 11
15.0
 21
73.5
 31
0.0
100
AcDbText
 73
2
  0
TEXT
  5
71
330
17
100
AcDbEntity
  8
06-TEXTO
100
AcDbText
 10
415.0
 20
73.5
 30
0.0
 40
3.5
  1
E
  7
ISO3098
 72
1
 11
415.0
 21
73.5
 31
0.0
100
AcDbText
 73
2
  0
TEXT
  5
72
330
17
100
AcDbEntity
  8
06-TEXTO
100
AcDbText
 10
15.0
 20
123.5
 30
0.0
 40
3.5
  1
D
  7
ISO3098
 72
1
 11
15.0
 21
123.5
 31
0.0
100
AcDbText
 73
2
  0
TEXT
  5
73
330
17
100
AcDbEntity
  8
06-TEXTO
100
AcDbText
 10
415.0
 20
123.5
 30
0.0
 40
3.5
  1
D
  7
ISO3098
 72
1
 11
415.0
 21
123.5
 31
0.0
100
AcDbText
 73
2
  0
TEXT
  5
74
330
17
100
AcDbEntity
  8
06-TEXTO
100
AcDbText
 10
15.0
 20
173.5
 30
0.0
 40
3.5
  1
C
  7
ISO3098
 72
1
 11
15.0
 21
173.5
 31
0.0
100
AcDbText
 73
2
  0
TEXT
  5
75
330
17
100
AcDbEntity
  8
06-TEXTO
100
AcDbText
 10
415.0
 20
173.5
 30
0.0
 40
3.5
  1
C
  7
ISO3098
 72
1
 11
415.0
 21
173.5
 31
0.0
100
AcDbText
 73
2
  0
TEXT
  5
76
330
17
100
AcDbEntity
  8
06-TEXTO
100
AcDbText
 10
15.0
 20
223.5
 30
0.0
 40
3.5
  1
B
  7
ISO3098
 72
1
 11
15.0
 21
223.5
 31
0.0
100
AcDbText
 73
2
  0
TEXT
  5
77
330
17
100
AcDbEntity
  8
06-TEXTO
100
AcDbText
 10
415.0
 20
223.5
 30
0.0
 40
3.5
  1
B
  7
ISO3098
 72
1
 11
415.0
 21
223.5
 31
0.0
100
AcDbText
 73
2
  0
TEXT
  5
78
330
17
100
AcDbEntity
  8
06-TEXTO
100
AcDbText
 10
15.0
 20
267.75
 30
0.0
 40
3.5
  1
A
  7
ISO3098
 72
1
 11
15.0
 21
267.75
 31
0.0
100
AcDbText
 73
2
  0
TEXT
  5
79
330
17
100
AcDbEntity
  8
06-TEXTO
100
AcDbText
 10
415.0
 20
267.75
 30
0.0
 40
3.5
  1
A
  7
ISO3098
 72
1
 11
415.0
 21
267.75
 31
0.0
100
AcDbText
 73
2
  0
LWPOLYLINE
  5
7A
330
17
100
AcDbEntity
  8
10-ROTULO
100
AcDbPolyline
 90
4
 70
1
 10
235.0
 20
56.0
 10
249.0
 20
56.0
 10
249.0
 20
61.0
 10
235.0
 20
61.0
  0
LWPOLYLINE
  5
7B
330
17
100
AcDbEntity
  8
10-ROTULO
100
AcDbPolyline
 90
4
 70
1
 10
249.0
 20
56.0
 10
265.0
 20
56.0
 10
265.0
 20
61.0
 10
249.0
 20
61.0
  0
TEXT
  5
7C
330
17
100
AcDbEntity
  8
11-TEXTO-ROTULO
100
AcDbText
 10
257.0
 20
58.5
 30
0.0
 40
2.5
  1
Fecha
  7
ISO3098
 72
1
 11
257.0
 21
58.5
 31
0.0
100
AcDbText
 73
2
  0
LWPOLYLINE
  5
7D
330
17
100
AcDbEntity
  8
10-ROTULO
100
AcDbPolyline
 90
4
 70
1
 10
265.0
 20
56.0
 10
290.0
 20
56.0
 10
290.0
 20
61.0
 10
265.0
 20
61.0
  0
TEXT
  5
7E
330
17
100
AcDbEntity
  8
11-TEXTO-ROTULO
100
AcDbText
 10
277.5
 20
58.5
 30
0.0
 40
2.5
  1
Nombre
  7
ISO3098
 72
1
 11
277.5
 21
58.5
 31
0.0
100
AcDbText
 73
2
  0
LWPOLYLINE
  5
7F
330
17
100
AcDbEntity
  8
10-ROTULO
100
AcDbPolyline
 90
4
 70
1
 10
235.0
 20
50.0
 10
249.0
 20
50.0
 10
249.0
 20
56.0
 10
235.0
 20
56.0
  0
TEXT
  5
80
330
17
100
AcDbEntity
  8
11-TEXTO-ROTULO
100
AcDbText
 10
236.5
 20
53.0
 30
0.0
 40
2.5
  1
Dibujó
  7
ISO3098
 11
236.5
 21
53.0
 31
0.0
100
AcDbText
 73
2
  0
LWPOLYLINE
  5
81
330
17
100
AcDbEntity
  8
10-ROTULO
100
AcDbPolyline
 90
4
 70
1
 10
249.0
 20
50.0
 10
265.0
 20
50.0
 10
265.0
 20
56.0
 10
249.0
 20
56.0
  0
TEXT
  5
82
330
17
100
AcDbEntity
  8
11-TEXTO-ROTULO
100
AcDbText
 10
257.0
 20
53.0
 30
0.0
 40
2.5
  1
28/09/26
  7
ISO3098
 72
1
 11
257.0
 21
53.0
 31
0.0
100
AcDbText
 73
2
  0
LWPOLYLINE
  5
83
330
17
100
AcDbEntity
  8
10-ROTULO
100
AcDbPolyline
 90
4
 70
1
 10
265.0
 20
50.0
 10
290.0
 20
50.0
 10
290.0
 20
56.0
 10
265.0
 20
56.0
  0
TEXT
  5
84
330
17
100
AcDbEntity
  8
11-TEXTO-ROTULO
100
AcDbText
 10
277.5
 20
53.0
 30
0.0
 40
2.5
  1
T. Sinay
  7
ISO3098
 72
1
 11
277.5
 21
53.0
 31
0.0
100
AcDbText
 73
2
  0
LWPOLYLINE
  5
85
330
17
100
AcDbEntity
  8
10-ROTULO
100
AcDbPolyline
 90
4
 70
1
 10
235.0
 20
44.0
 10
249.0
 20
44.0
 10
249.0
 20
50.0
 10
235.0
 20
50.0
  0
TEXT
  5
86
330
17
100
AcDbEntity
  8
11-TEXTO-ROTULO
100
AcDbText
 10
236.5
 20
47.0
 30
0.0
 40
2.5
  1
Revisó
  7
ISO3098
 11
236.5
 21
47.0
 31
0.0
100
AcDbText
 73
2
  0
LWPOLYLINE
  5
87
330
17
100
AcDbEntity
  8
10-ROTULO
100
AcDbPolyline
 90
4
 70
1
 10
249.0
 20
44.0
 10
265.0
 20
44.0
 10
265.0
 20
50.0
 10
249.0
 20
50.0
  0
LWPOLYLINE
  5
88
330
17
100
AcDbEntity
  8
10-ROTULO
100
AcDbPolyline
 90
4
 70
1
 10
265.0
 20
44.0
 10
290.0
 20
44.0
 10
290.0
 20
50.0
 10
265.0
 20
50.0
  0
LWPOLYLINE
  5
89
330
17
100
AcDbEntity
  8
10-ROTULO
100
AcDbPolyline
 90
4
 70
1
 10
235.0
 20
38.0
 10
249.0
 20
38.0
 10
249.0
 20
44.0
 10
235.0
 20
44.0
  0
TEXT
  5
8A
330
17
100
AcDbEntity
  8
11-TEXTO-ROTULO
100
AcDbText
 10
236.5
 20
41.0
 30
0.0
 40
2.5
  1
Aprobó
  7
ISO3098
 11
236.5
 21
41.0
 31
0.0
100
AcDbText
 73
2
  0
LWPOLYLINE
  5
8B
330
17
100
AcDbEntity
  8
10-ROTULO
100
AcDbPolyline
 90
4
 70
1
 10
249.0
 20
38.0
 10
265.0
 20
38.0
 10
265.0
 20
44.0
 10
249.0
 20
44.0
  0
LWPOLYLINE
  5
8C
330
17
100
AcDbEntity
  8
10-ROTULO
100
AcDbPolyline
 90
4
 70
1
 10
265.0
 20
38.0
 10
290.0
 20
38.0
 10
290.0
 20
44.0
 10
265.0
 20
44.0
  0
LWPOLYLINE
  5
8D
330
17
100
AcDbEntity
  8
10-ROTULO
100
AcDbPolyline
 90
4
 70
1
 10
235.0
 20
24.0
 10
255.0
 20
24.0
 10
255.0
 20
38.0
 10
235.0
 20
38.0
  0
TEXT
  5
8E
330
17
100
AcDbEntity
  8
11-TEXTO-ROTULO
100
AcDbText
 10
236.0
 20
37.0
 30
0.0
 40
1.8
  1
Escala
  7
ISO3098
 11
236.0
 21
37.0
 31
0.0
100
AcDbText
 73
3
  0
TEXT
  5
8F
330
17
100
AcDbEntity
  8
11-TEXTO-ROTULO
100
AcDbText
 10
245.0
 20
29.6
 30
0.0
 40
5.0
  1
1:5
  7
ISO3098
 72
1
 11
245.0
 21
29.6
 31
0.0
100
AcDbText
 73
2
  0
LWPOLYLINE
  5
90
330
17
100
AcDbEntity
  8
10-ROTULO
100
AcDbPolyline
 90
4
 70
1
 10
255.0
 20
24.0
 10
290.0
 20
24.0
 10
290.0
 20
38.0
 10
255.0
 20
38.0
  0
TEXT
  5
91
330
17
100
AcDbEntity
  8
11-TEXTO-ROTULO
100
AcDbText
 10
256.0
 20
37.0
 30
0.0
 40
1.8
  1
Método de proyección
  7
ISO3098
 11
256.0
 21
37.0
 31
0.0
100
AcDbText
 73
3
  0
CIRCLE
  5
92
330
17
100
AcDbEntity
  8
01-VISIBLE
100
AcDbCircle
 10
265.0
 20
29.5
 30
0.0
 40
2.5
  0
CIRCLE
  5
93
330
17
100
AcDbEntity
  8
01-VISIBLE
100
AcDbCircle
 10
265.0
 20
29.5
 30
0.0
 40
1.25
  0
LWPOLYLINE
  5
94
330
17
100
AcDbEntity
  8
01-VISIBLE
100
AcDbPolyline
 90
4
 70
1
 10
270.0
 20
27.0
 10
275.0
 20
28.25
 10
275.0
 20
30.75
 10
270.0
 20
32.0
  0
LINE
  5
95
330
17
100
AcDbEntity
  8
03-EJE
100
AcDbLine
 10
261.0
 20
29.5
 30
0.0
 11
276.5
 21
29.5
 31
0.0
  0
LINE
  5
96
330
17
100
AcDbEntity
  8
03-EJE
100
AcDbLine
 10
265.0
 20
25.5
 30
0.0
 11
265.0
 21
33.5
 31
0.0
  0
TEXT
  5
97
330
17
100
AcDbEntity
  8
11-TEXTO-ROTULO
100
AcDbText
 10
286.5
 20
29.5
 30
0.0
 40
2.5
  1
ISO E
  7
ISO3098
 72
2
 11
286.5
 21
29.5
 31
0.0
100
AcDbText
 73
2
  0
LWPOLYLINE
  5
98
330
17
100
AcDbEntity
  8
10-ROTULO
100
AcDbPolyline
 90
4
 70
1
 10
235.0
 20
10.0
 10
268.0
 20
10.0
 10
268.0
 20
24.0
 10
235.0
 20
24.0
  0
TEXT
  5
99
330
17
100
AcDbEntity
  8
11-TEXTO-ROTULO
100
AcDbText
 10
236.0
 20
23.0
 30
0.0
 40
1.8
  1
Tolerancias generales
  7
ISO3098
 11
236.0
 21
23.0
 31
0.0
100
AcDbText
 73
3
  0
TEXT
  5
9A
330
17
100
AcDbEntity
  8
11-TEXTO-ROTULO
100
AcDbText
 10
251.5
 20
15.6
 30
0.0
 40
3.5
  1
ISO 2768-m
  7
ISO3098
 72
1
 11
251.5
 21
15.6
 31
0.0
100
AcDbText
 73
2
  0
LWPOLYLINE
  5
9B
330
17
100
AcDbEntity
  8
10-ROTULO
100
AcDbPolyline
 90
4
 70
1
 10
268.0
 20
10.0
 10
290.0
 20
10.0
 10
290.0
 20
24.0
 10
268.0
 20
24.0
  0
TEXT
  5
9C
330
17
100
AcDbEntity
  8
11-TEXTO-ROTULO
100
AcDbText
 10
269.0
 20
23.0
 30
0.0
 40
1.8
  1
Formato
  7
ISO3098
 11
269.0
 21
23.0
 31
0.0
100
AcDbText
 73
3
  0
TEXT
  5
9D
330
17
100
AcDbEntity
  8
11-TEXTO-ROTULO
100
AcDbText
 10
279.0
 20
15.6
 30
0.0
 40
3.5
  1
A3
  7
ISO3098
 72
1
 11
279.0
 21
15.6
 31
0.0
100
AcDbText
 73
2
  0
LWPOLYLINE
  5
9E
330
17
100
AcDbEntity
  8
10-ROTULO
100
AcDbPolyline
 90
4
 70
1
 10
290.0
 20
49.0
 10
360.0
 20
49.0
 10
360.0
 20
61.0
 10
290.0
 20
61.0
  0
TEXT
  5
9F
330
17
100
AcDbEntity
  8
11-TEXTO-ROTULO
100
AcDbText
 10
291.0
 20
60.0
 30
0.0
 40
1.8
  1
Propietario
  7
ISO3098
 11
291.0
 21
60.0
 31
0.0
100
AcDbText
 73
3
  0
TEXT
  5
A0
330
17
100
AcDbEntity
  8
11-TEXTO-ROTULO
100
AcDbText
 10
325.0
 20
53.6
 30
0.0
 40
5.0
  1
FLAMA S.A.
  7
ISO3098
 72
1
 11
325.0
 21
53.6
 31
0.0
100
AcDbText
 73
2
  0
LWPOLYLINE
  5
A1
330
17
100
AcDbEntity
  8
10-ROTULO
100
AcDbPolyline
 90
4
 70
1
 10
290.0
 20
22.0
 10
360.0
 20
22.0
 10
360.0
 20
49.0
 10
290.0
 20
49.0
  0
TEXT
  5
A2
330
17
100
AcDbEntity
  8
11-TEXTO-ROTULO
100
AcDbText
 10
291.0
 20
48.0
 30
0.0
 40
1.8
  1
Denominación
  7
ISO3098
 11
291.0
 21
48.0
 31
0.0
100
AcDbText
 73
3
  0
TEXT
  5
A3
330
17
100
AcDbEntity
  8
11-TEXTO-ROTULO
100
AcDbText
 10
325.0
 20
35.0
 30
0.0
 40
5.0
  1
Reserva y sustituto
  7
ISO3098
 72
1
 11
325.0
 21
35.0
 31
0.0
100
AcDbText
 73
2
  0
TEXT
  5
A4
330
17
100
AcDbEntity
  8
11-TEXTO-ROTULO
100
AcDbText
 10
325.0
 20
25.5
 30
0.0
 40
1.8
  1
Franja 40 mm (rev. 2020) y etiqueta de instrucciones
  7
ISO3098
 72
1
 11
325.0
 21
25.5
 31
0.0
100
AcDbText
 73
2
  0
LWPOLYLINE
  5
A5
330
17
100
AcDbEntity
  8
10-ROTULO
100
AcDbPolyline
 90
4
 70
1
 10
290.0
 20
10.0
 10
360.0
 20
10.0
 10
360.0
 20
22.0
 10
290.0
 20
22.0
  0
TEXT
  5
A6
330
17
100
AcDbEntity
  8
11-TEXTO-ROTULO
100
AcDbText
 10
291.0
 20
21.0
 30
0.0
 40
1.8
  1
Tipo de documento
  7
ISO3098
 11
291.0
 21
21.0
 31
0.0
100
AcDbText
 73
3
  0
TEXT
  5
A7
330
17
100
AcDbEntity
  8
11-TEXTO-ROTULO
100
AcDbText
 10
325.0
 20
14.6
 30
0.0
 40
3.5
  1
Plano de señalética
  7
ISO3098
 72
1
 11
325.0
 21
14.6
 31
0.0
100
AcDbText
 73
2
  0
LWPOLYLINE
  5
A8
330
17
100
AcDbEntity
  8
10-ROTULO
100
AcDbPolyline
 90
4
 70
1
 10
360.0
 20
53.0
 10
410.0
 20
53.0
 10
410.0
 20
61.0
 10
360.0
 20
61.0
  0
TEXT
  5
A9
330
17
100
AcDbEntity
  8
11-TEXTO-ROTULO
100
AcDbText
 10
361.0
 20
60.0
 30
0.0
 40
1.8
  1
Reemplaza a / Reemplazado por
  7
ISO3098
 11
361.0
 21
60.0
 31
0.0
100
AcDbText
 73
3
  0
TEXT
  5
AA
330
17
100
AcDbEntity
  8
11-TEXTO-ROTULO
100
AcDbText
 10
385.0
 20
55.6
 30
0.0
 40
1.8
  1
-
  7
ISO3098
 72
1
 11
385.0
 21
55.6
 31
0.0
100
AcDbText
 73
2
  0
LWPOLYLINE
  5
AB
330
17
100
AcDbEntity
  8
10-ROTULO
100
AcDbPolyline
 90
4
 70
1
 10
360.0
 20
43.0
 10
410.0
 20
43.0
 10
410.0
 20
53.0
 10
360.0
 20
53.0
  0
TEXT
  5
AC
330
17
100
AcDbEntity
  8
11-TEXTO-ROTULO
100
AcDbText
 10
361.0
 20
52.0
 30
0.0
 40
1.8
  1
Material
  7
ISO3098
 11
361.0
 21
52.0
 31
0.0
100
AcDbText
 73
3
  0
TEXT
  5
AD
330
17
100
AcDbEntity
  8
11-TEXTO-ROTULO
100
AcDbText
 10
385.0
 20
46.6
 30
0.0
 40
2.5
  1
Ver notas
  7
ISO3098
 72
1
 11
385.0
 21
46.6
 31
0.0
100
AcDbText
 73
2
  0
LWPOLYLINE
  5
AE
330
17
100
AcDbEntity
  8
10-ROTULO
100
AcDbPolyline
 90
4
 70
1
 10
360.0
 20
33.0
 10
382.0
 20
33.0
 10
382.0
 20
43.0
 10
360.0
 20
43.0
  0
TEXT
  5
AF
330
17
100
AcDbEntity
  8
11-TEXTO-ROTULO
100
AcDbText
 10
361.0
 20
42.0
 30
0.0
 40
1.8
  1
Edición
  7
ISO3098
 11
361.0
 21
42.0
 31
0.0
100
AcDbText
 73
3
  0
TEXT
  5
B0
330
17
100
AcDbEntity
  8
11-TEXTO-ROTULO
100
AcDbText
 10
371.0
 20
36.6
 30
0.0
 40
3.5
  1
0
  7
ISO3098
 72
1
 11
371.0
 21
36.6
 31
0.0
100
AcDbText
 73
2
  0
LWPOLYLINE
  5
B1
330
17
100
AcDbEntity
  8
10-ROTULO
100
AcDbPolyline
 90
4
 70
1
 10
382.0
 20
33.0
 10
410.0
 20
33.0
 10
410.0
 20
43.0
 10
382.0
 20
43.0
  0
TEXT
  5
B2
330
17
100
AcDbEntity
  8
11-TEXTO-ROTULO
100
AcDbText
 10
383.0
 20
42.0
 30
0.0
 40
1.8
  1
Fecha de emisión
  7
ISO3098
 11
383.0
 21
42.0
 31
0.0
100
AcDbText
 73
3
  0
TEXT
  5
B3
330
17
100
AcDbEntity
  8
11-TEXTO-ROTULO
100
AcDbText
 10
396.0
 20
36.6
 30
0.0
 40
2.5
  1
28/09/2026
  7
ISO3098
 72
1
 11
396.0
 21
36.6
 31
0.0
100
AcDbText
 73
2
  0
LWPOLYLINE
  5
B4
330
17
100
AcDbEntity
  8
10-ROTULO
100
AcDbPolyline
 90
4
 70
1
 10
360.0
 20
23.0
 10
382.0
 20
23.0
 10
382.0
 20
33.0
 10
360.0
 20
33.0
  0
TEXT
  5
B5
330
17
100
AcDbEntity
  8
11-TEXTO-ROTULO
100
AcDbText
 10
361.0
 20
32.0
 30
0.0
 40
1.8
  1
Hoja
  7
ISO3098
 11
361.0
 21
32.0
 31
0.0
100
AcDbText
 73
3
  0
TEXT
  5
B6
330
17
100
AcDbEntity
  8
11-TEXTO-ROTULO
100
AcDbText
 10
371.0
 20
26.6
 30
0.0
 40
3.5
  1
1 / 1
  7
ISO3098
 72
1
 11
371.0
 21
26.6
 31
0.0
100
AcDbText
 73
2
  0
LWPOLYLINE
  5
B7
330
17
100
AcDbEntity
  8
10-ROTULO
100
AcDbPolyline
 90
4
 70
1
 10
382.0
 20
23.0
 10
410.0
 20
23.0
 10
410.0
 20
33.0
 10
382.0
 20
33.0
  0
TEXT
  5
B8
330
17
100
AcDbEntity
  8
11-TEXTO-ROTULO
100
AcDbText
 10
383.0
 20
32.0
 30
0.0
 40
1.8
  1
Idioma
  7
ISO3098
 11
383.0
 21
32.0
 31
0.0
100
AcDbText
 73
3
  0
TEXT
  5
B9
330
17
100
AcDbEntity
  8
11-TEXTO-ROTULO
100
AcDbText
 10
396.0
 20
26.6
 30
0.0
 40
3.5
  1
es
  7
ISO3098
 72
1
 11
396.0
 21
26.6
 31
0.0
100
AcDbText
 73
2
  0
LWPOLYLINE
  5
BA
330
17
100
AcDbEntity
  8
10-ROTULO
100
AcDbPolyline
 90
4
 70
1
 10
360.0
 20
10.0
 10
410.0
 20
10.0
 10
410.0
 20
23.0
 10
360.0
 20
23.0
  0
TEXT
  5
BB
330
17
100
AcDbEntity
  8
11-TEXTO-ROTULO
100
AcDbText
 10
361.0
 20
22.0
 30
0.0
 40
1.8
  1
N° de plano
  7
ISO3098
 11
361.0
 21
22.0
 31
0.0
100
AcDbText
 73
3
  0
TEXT
  5
BC
330
17
100
AcDbEntity
  8
11-TEXTO-ROTULO
100
AcDbText
 10
385.0
 20
15.1
 30
0.0
 40
5.0
  1
FL_SEN_06
  7
ISO3098
 72
1
 11
385.0
 21
15.1
 31
0.0
100
AcDbText
 73
2
  0
LWPOLYLINE
  5
BD
330
17
100
AcDbEntity
  8
07-RECUADRO
100
AcDbPolyline
 90
4
 70
1
 10
235.0
 20
10.0
 10
410.0
 20
10.0
 10
410.0
 20
61.0
 10
235.0
 20
61.0
  0
HATCH
  5
BE
330
17
100
AcDbEntity
  8
05-RAYADO
 62
7
420
11479838
100
AcDbHatch
 10
0.0
 20
0.0
 30
0.0
210
0.0
220
0.0
230
1.0
  2
SOLID
 70
1
 71
0
 91
1
 92
3
 72
0
 73
1
 93
99
 10
88.15
 20
110.0
 10
51.849999999999994
 20
110.0
 10
51.849999999999994
 20
204.35000000000002
 10
51.85971773730396
 20
204.94385135321525
 10
51.888860543219344
 20
205.53706679552712
 10
51.93739721089962
 20
206.12901109698154
 10
52.00527576606534
 20
206.71905038879396
 10
52.092423522659445
 20
207.30655284211178
 10
52.198747160681364
 20
207.89088934459275
 10
52.3241328261164
 20
208.4714341740739
 10
52.46844625285341
 20
209.04756566861076
 10
52.63153290646041
 20
209.6186668921685
 10
52.813218149663825
 20
210.18412629525238
 10
53.01330742935453
 20
210.7433383697704
 10
53.23158648492014
 20
211.2957042974264
 10
53.46782157768065
 20
211.84063259094978
 10
53.7217597411817
 20
212.3775397274749
 10
53.99312905207735
 20
212.90585077339188
 10
54.281638921312435
 20
213.425
 10
54.586980405292586
 20
213.9344314893042
 10
54.9088265367088
 20
214.4335997293058
 10
55.24683267466217
 20
214.92197019815063
 10
55.60063687371408
 20
215.3990199365083
 10
55.96986027146632
 20
215.86423810757017
 10
56.35410749425655
 20
216.31712654406627
 10
56.752967080534276
 20
216.75720028171514
 10
57.166011921464154
 20
217.18398807853586
 10
57.59279971828488
 20
217.59703291946573
 10
58.032873455933746
 20
217.99589250574346
 10
58.48576189242982
 20
218.3801397285337
 10
58.95098006349171
 20
218.74936312628594
 10
59.42802980184939
 20
219.10316732533784
 10
59.916400270694204
 20
219.44117346329122
 10
60.415568510695806
 20
219.76301959470743
 10
60.92499999999999
 20
220.0683610786876
 10
61.44414922660814
 20
220.35687094792266
 10
61.972460272525126
 20
220.62824025881832
 10
62.50936740905022
 20
220.88217842231936
 10
63.05429570257361
 20
221.11841351507988
 10
63.6066616302296
 20
221.33669257064548
 10
64.16587370474761
 20
221.53678185033618
 10
64.7313331078315
 20
221.71846709353963
 10
65.30243433138924
 20
221.8815537471466
 10
65.87856582592612
 20
222.02586717388363
 10
66.45911065540726
 20
222.15125283931866
 10
67.04344715788821
 20
222.2575764773406
 10
67.63094961120605
 20
222.34472423393467
 10
68.22098890301847
 20
222.4126027891004
 10
68.8129332044729
 20
222.46113945678067
 10
69.40614864678476
 20
222.49028226269607
 10
70.0
 20
222.50000000000003
 10
70.59385135321521
 20
222.49028226269607
 10
71.18706679552709
 20
222.46113945678067
 10
71.77901109698152
 20
222.4126027891004
 10
72.36905038879394
 20
222.3447242339347
 10
72.95655284211179
 20
222.2575764773406
 10
73.54088934459271
 20
222.15125283931866
 10
74.12143417407387
 20
222.02586717388363
 10
74.69756566861075
 20
221.88155374714663
 10
75.26866689216848
 20
221.71846709353963
 10
75.83412629525237
 20
221.53678185033618
 10
76.39333836977038
 20
221.33669257064548
 10
76.94570429742637
 20
221.11841351507988
 10
77.49063259094976
 20
220.88217842231938
 10
78.02753972747487
 20
220.62824025881832
 10
78.55585077339184
 20
220.3568709479227
 10
79.07499999999999
 20
220.0683610786876
 10
79.58443148930417
 20
219.76301959470743
 10
80.08359972930577
 20
219.44117346329122
 10
80.57197019815061
 20
219.10316732533784
 10
81.04901993650827
 20
218.74936312628594
 10
81.51423810757015
 20
218.38013972853372
 10
81.96712654406625
 20
217.99589250574348
 10
82.4072002817151
 20
217.59703291946573
 10
82.83398807853584
 20
217.18398807853586
 10
83.24703291946571
 20
216.75720028171514
 10
83.64589250574343
 20
216.3171265440663
 10
84.03013972853367
 20
215.8642381075702
 10
84.39936312628592
 20
215.3990199365083
 10
84.75316732533781
 20
214.92197019815063
 10
85.09117346329118
 20
214.43359972930583
 10
85.41301959470741
 20
213.93443148930422
 10
85.71836107868756
 20
213.42500000000004
 10
86.00687094792264
 20
212.90585077339188
 10
86.27824025881829
 20
212.37753972747493
 10
86.53217842231933
 20
211.8406325909498
 10
86.76841351507986
 20
211.29570429742643
 10
86.98669257064546
 20
210.7433383697704
 10
87.18678185033616
 20
210.1841262952524
 10
87.36846709353959
 20
209.61866689216853
 10
87.53155374714659
 20
209.0475656686108
 10
87.6758671738836
 20
208.47143417407392
 10
87.80125283931864
 20
207.89088934459275
 10
87.90757647734056
 20
207.3065528421118
 10
87.99472423393466
 20
206.719050388794
 10
88.06260278910037
 20
206.12901109698157
 10
88.11113945678065
 20
205.53706679552712
 10
88.14028226269605
 20
204.94385135321528
 10
88.15
 20
204.35000000000002
 97
0
 75
1
 76
1
 98
0
  0
HATCH
  5
BF
330
17
100
AcDbEntity
  8
05-RAYADO
 62
7
420
34641
100
AcDbHatch
 10
0.0
 20
0.0
 30
0.0
210
0.0
220
0.0
230
1.0
  2
SOLID
 70
1
 71
0
 91
1
 92
3
 72
0
 73
1
 93
4
 10
88.15
 20
110.0
 10
88.15
 20
118.0
 10
51.849999999999994
 20
118.0
 10
51.849999999999994
 20
110.0
 97
0
 75
1
 76
1
 98
0
  0
LWPOLYLINE
  5
C0
330
17
100
AcDbEntity
  8
01-VISIBLE
100
AcDbPolyline
 90
100
 70
1
 10
88.15
 20
110.0
 10
51.849999999999994
 20
110.0
 10
51.849999999999994
 20
204.35000000000002
 10
51.85971773730396
 20
204.94385135321525
 10
51.888860543219344
 20
205.53706679552712
 10
51.93739721089962
 20
206.12901109698154
 10
52.00527576606534
 20
206.71905038879396
 10
52.092423522659445
 20
207.30655284211178
 10
52.198747160681364
 20
207.89088934459275
 10
52.3241328261164
 20
208.4714341740739
 10
52.46844625285341
 20
209.04756566861076
 10
52.63153290646041
 20
209.6186668921685
 10
52.813218149663825
 20
210.18412629525238
 10
53.01330742935453
 20
210.7433383697704
 10
53.23158648492014
 20
211.2957042974264
 10
53.46782157768065
 20
211.84063259094978
 10
53.7217597411817
 20
212.3775397274749
 10
53.99312905207735
 20
212.90585077339188
 10
54.281638921312435
 20
213.425
 10
54.586980405292586
 20
213.9344314893042
 10
54.9088265367088
 20
214.4335997293058
 10
55.24683267466217
 20
214.92197019815063
 10
55.60063687371408
 20
215.3990199365083
 10
55.96986027146632
 20
215.86423810757017
 10
56.35410749425655
 20
216.31712654406627
 10
56.752967080534276
 20
216.75720028171514
 10
57.166011921464154
 20
217.18398807853586
 10
57.59279971828488
 20
217.59703291946573
 10
58.032873455933746
 20
217.99589250574346
 10
58.48576189242982
 20
218.3801397285337
 10
58.95098006349171
 20
218.74936312628594
 10
59.42802980184939
 20
219.10316732533784
 10
59.916400270694204
 20
219.44117346329122
 10
60.415568510695806
 20
219.76301959470743
 10
60.92499999999999
 20
220.0683610786876
 10
61.44414922660814
 20
220.35687094792266
 10
61.972460272525126
 20
220.62824025881832
 10
62.50936740905022
 20
220.88217842231936
 10
63.05429570257361
 20
221.11841351507988
 10
63.6066616302296
 20
221.33669257064548
 10
64.16587370474761
 20
221.53678185033618
 10
64.7313331078315
 20
221.71846709353963
 10
65.30243433138924
 20
221.8815537471466
 10
65.87856582592612
 20
222.02586717388363
 10
66.45911065540726
 20
222.15125283931866
 10
67.04344715788821
 20
222.2575764773406
 10
67.63094961120605
 20
222.34472423393467
 10
68.22098890301847
 20
222.4126027891004
 10
68.8129332044729
 20
222.46113945678067
 10
69.40614864678476
 20
222.49028226269607
 10
70.0
 20
222.50000000000003
 10
70.59385135321521
 20
222.49028226269607
 10
71.18706679552709
 20
222.46113945678067
 10
71.77901109698152
 20
222.4126027891004
 10
72.36905038879394
 20
222.3447242339347
 10
72.95655284211179
 20
222.2575764773406
 10
73.54088934459271
 20
222.15125283931866
 10
74.12143417407387
 20
222.02586717388363
 10
74.69756566861075
 20
221.88155374714663
 10
75.26866689216848
 20
221.71846709353963
 10
75.83412629525237
 20
221.53678185033618
 10
76.39333836977038
 20
221.33669257064548
 10
76.94570429742637
 20
221.11841351507988
 10
77.49063259094976
 20
220.88217842231938
 10
78.02753972747487
 20
220.62824025881832
 10
78.55585077339184
 20
220.3568709479227
 10
79.07499999999999
 20
220.0683610786876
 10
79.58443148930417
 20
219.76301959470743
 10
80.08359972930577
 20
219.44117346329122
 10
80.57197019815061
 20
219.10316732533784
 10
81.04901993650827
 20
218.74936312628594
 10
81.51423810757015
 20
218.38013972853372
 10
81.96712654406625
 20
217.99589250574348
 10
82.4072002817151
 20
217.59703291946573
 10
82.83398807853584
 20
217.18398807853586
 10
83.24703291946571
 20
216.75720028171514
 10
83.64589250574343
 20
216.3171265440663
 10
84.03013972853367
 20
215.8642381075702
 10
84.39936312628592
 20
215.3990199365083
 10
84.75316732533781
 20
214.92197019815063
 10
85.09117346329118
 20
214.43359972930583
 10
85.41301959470741
 20
213.93443148930422
 10
85.71836107868756
 20
213.42500000000004
 10
86.00687094792264
 20
212.90585077339188
 10
86.27824025881829
 20
212.37753972747493
 10
86.53217842231933
 20
211.8406325909498
 10
86.76841351507986
 20
211.29570429742643
 10
86.98669257064546
 20
210.7433383697704
 10
87.18678185033616
 20
210.1841262952524
 10
87.36846709353959
 20
209.61866689216853
 10
87.53155374714659
 20
209.0475656686108
 10
87.6758671738836
 20
208.47143417407392
 10
87.80125283931864
 20
207.89088934459275
 10
87.90757647734056
 20
207.3065528421118
 10
87.99472423393466
 20
206.719050388794
 10
88.06260278910037
 20
206.12901109698157
 10
88.11113945678065
 20
205.53706679552712
 10
88.14028226269605
 20
204.94385135321528
 10
88.15
 20
204.35000000000002
 10
88.15
 20
110.0
  0
LWPOLYLINE
  5
C1
330
17
100
AcDbEntity
  8
08-FINA
100
AcDbPolyline
 90
5
 70
1
 10
88.15
 20
110.0
 10
88.15
 20
118.0
 10
51.849999999999994
 20
118.0
 10
51.849999999999994
 20
110.0
 10
88.15
 20
110.0
  0
LWPOLYLINE
  5
C2
330
17
100
AcDbEntity
  8
01-VISIBLE
100
AcDbPolyline
 90
4
 70
1
 10
68.4
 20
222.5
 10
71.6
 20
222.5
 10
71.6
 20
227.5
 10
68.4
 20
227.5
  0
DIMENSION
  5
C3
330
17
100
AcDbEntity
  8
04-COTA
100
AcDbDimension
280
0
  2
*D1
  3
FLAMA-IRAM
 10
96.15
 20
110.0
 30
0.0
 11
93.4
 21
114.0
 31
0.0
 70
32
 71
5
  1
<>
100
AcDbAlignedDimension
 13
88.15
 23
110.0
 33
0.0
 14
88.15
 24
118.0
 34
0.0
 50
90.0
100
AcDbRotatedDimension
1001
ACAD
1000
DSTYLE
1002
{
1070
144
1040
5.0
1002
}
  0
TEXT
  5
D2
330
17
100
AcDbEntity
  8
06-TEXTO
420
16777215
100
AcDbText
 10
70.0
 20
166.25
 30
0.0
 40
2.5
  1
EXTINTOR
  7
ISO3098
 72
1
 11
70.0
 21
166.25
 31
0.0
100
AcDbText
 73
2
  0
TEXT
  5
D3
330
17
100
AcDbEntity
  8
06-TEXTO
420
16777215
100
AcDbText
 10
70.0
 20
162.25
 30
0.0
 40
2.5
  1
DE RESERVA
  7
ISO3098
 72
1
 11
70.0
 21
162.25
 31
0.0
100
AcDbText
 73
2
  0
HATCH
  5
D4
330
17
100
AcDbEntity
  8
05-RAYADO
 62
7
420
11479838
100
AcDbHatch
 10
0.0
 20
0.0
 30
0.0
210
0.0
220
0.0
230
1.0
  2
SOLID
 70
1
 71
0
 91
1
 92
3
 72
0
 73
1
 93
99
 10
178.15
 20
110.0
 10
141.85
 20
110.0
 10
141.85
 20
204.35000000000002
 10
141.85971773730395
 20
204.94385135321525
 10
141.88886054321935
 20
205.53706679552712
 10
141.93739721089963
 20
206.12901109698154
 10
142.00527576606532
 20
206.71905038879396
 10
142.09242352265943
 20
207.30655284211178
 10
142.19874716068136
 20
207.89088934459275
 10
142.3241328261164
 20
208.4714341740739
 10
142.4684462528534
 20
209.04756566861076
 10
142.6315329064604
 20
209.6186668921685
 10
142.81321814966384
 20
210.18412629525238
 10
143.01330742935454
 20
210.7433383697704
 10
143.23158648492014
 20
211.2957042974264
 10
143.46782157768064
 20
211.84063259094978
 10
143.7217597411817
 20
212.3775397274749
 10
143.99312905207734
 20
212.90585077339188
 10
144.28163892131244
 20
213.425
 10
144.5869804052926
 20
213.9344314893042
 10
144.9088265367088
 20
214.4335997293058
 10
145.2468326746622
 20
214.92197019815063
 10
145.60063687371408
 20
215.3990199365083
 10
145.96986027146633
 20
215.86423810757017
 10
146.35410749425654
 20
216.31712654406627
 10
146.7529670805343
 20
216.75720028171514
 10
147.16601192146416
 20
217.18398807853586
 10
147.59279971828488
 20
217.59703291946573
 10
148.03287345593375
 20
217.99589250574346
 10
148.48576189242982
 20
218.3801397285337
 10
148.95098006349173
 20
218.74936312628594
 10
149.4280298018494
 20
219.10316732533784
 10
149.9164002706942
 20
219.44117346329122
 10
150.4155685106958
 20
219.76301959470743
 10
150.92499999999998
 20
220.0683610786876
 10
151.44414922660815
 20
220.35687094792266
 10
151.97246027252513
 20
220.62824025881832
 10
152.5093674090502
 20
220.88217842231936
 10
153.0542957025736
 20
221.11841351507988
 10
153.6066616302296
 20
221.33669257064548
 10
154.1658737047476
 20
221.53678185033618
 10
154.73133310783152
 20
221.71846709353963
 10
155.30243433138924
 20
221.8815537471466
 10
155.8785658259261
 20
222.02586717388363
 10
156.45911065540727
 20
222.15125283931866
 10
157.0434471578882
 20
222.2575764773406
 10
157.63094961120603
 20
222.34472423393467
 10
158.22098890301845
 20
222.4126027891004
 10
158.8129332044729
 20
222.46113945678067
 10
159.40614864678474
 20
222.49028226269607
 10
160.0
 20
222.50000000000003
 10
160.59385135321523
 20
222.49028226269607
 10
161.18706679552707
 20
222.46113945678067
 10
161.77901109698152
 20
222.4126027891004
 10
162.36905038879394
 20
222.3447242339347
 10
162.9565528421118
 20
222.2575764773406
 10
163.5408893445927
 20
222.15125283931866
 10
164.12143417407387
 20
222.02586717388363
 10
164.69756566861074
 20
221.88155374714663
 10
165.26866689216848
 20
221.71846709353963
 10
165.8341262952524
 20
221.53678185033618
 10
166.39333836977036
 20
221.33669257064548
 10
166.94570429742637
 20
221.11841351507988
 10
167.49063259094976
 20
220.88217842231938
 10
168.02753972747487
 20
220.62824025881832
 10
168.55585077339185
 20
220.3568709479227
 10
169.075
 20
220.0683610786876
 10
169.58443148930417
 20
219.76301959470743
 10
170.08359972930577
 20
219.44117346329122
 10
170.5719701981506
 20
219.10316732533784
 10
171.04901993650827
 20
218.74936312628594
 10
171.51423810757015
 20
218.38013972853372
 10
171.96712654406625
 20
217.99589250574348
 10
172.40720028171512
 20
217.59703291946573
 10
172.83398807853584
 20
217.18398807853586
 10
173.2470329194657
 20
216.75720028171514
 10
173.64589250574343
 20
216.3171265440663
 10
174.03013972853367
 20
215.8642381075702
 10
174.39936312628592
 20
215.3990199365083
 10
174.7531673253378
 20
214.92197019815063
 10
175.0911734632912
 20
214.43359972930583
 10
175.4130195947074
 20
213.93443148930422
 10
175.71836107868756
 20
213.42500000000004
 10
176.00687094792264
 20
212.90585077339188
 10
176.2782402588183
 20
212.37753972747493
 10
176.53217842231933
 20
211.8406325909498
 10
176.76841351507986
 20
211.29570429742643
 10
176.98669257064546
 20
210.7433383697704
 10
177.18678185033616
 20
210.1841262952524
 10
177.36846709353958
 20
209.61866689216853
 10
177.53155374714657
 20
209.0475656686108
 10
177.6758671738836
 20
208.47143417407392
 10
177.80125283931864
 20
207.89088934459275
 10
177.90757647734057
 20
207.3065528421118
 10
177.99472423393465
 20
206.719050388794
 10
178.06260278910037
 20
206.12901109698157
 10
178.11113945678065
 20
205.53706679552712
 10
178.14028226269605
 20
204.94385135321528
 10
178.15
 20
204.35000000000002
 97
0
 75
1
 76
1
 98
0
  0
HATCH
  5
D5
330
17
100
AcDbEntity
  8
05-RAYADO
 62
7
420
16361472
100
AcDbHatch
 10
0.0
 20
0.0
 30
0.0
210
0.0
220
0.0
230
1.0
  2
SOLID
 70
1
 71
0
 91
1
 92
3
 72
0
 73
1
 93
4
 10
178.15
 20
110.0
 10
178.15
 20
118.0
 10
141.85
 20
118.0
 10
141.85
 20
110.0
 97
0
 75
1
 76
1
 98
0
  0
LWPOLYLINE
  5
D6
330
17
100
AcDbEntity
  8
01-VISIBLE
100
AcDbPolyline
 90
100
 70
1
 10
178.15
 20
110.0
 10
141.85
 20
110.0
 10
141.85
 20
204.35000000000002
 10
141.85971773730395
 20
204.94385135321525
 10
141.88886054321935
 20
205.53706679552712
 10
141.93739721089963
 20
206.12901109698154
 10
142.00527576606532
 20
206.71905038879396
 10
142.09242352265943
 20
207.30655284211178
 10
142.19874716068136
 20
207.89088934459275
 10
142.3241328261164
 20
208.4714341740739
 10
142.4684462528534
 20
209.04756566861076
 10
142.6315329064604
 20
209.6186668921685
 10
142.81321814966384
 20
210.18412629525238
 10
143.01330742935454
 20
210.7433383697704
 10
143.23158648492014
 20
211.2957042974264
 10
143.46782157768064
 20
211.84063259094978
 10
143.7217597411817
 20
212.3775397274749
 10
143.99312905207734
 20
212.90585077339188
 10
144.28163892131244
 20
213.425
 10
144.5869804052926
 20
213.9344314893042
 10
144.9088265367088
 20
214.4335997293058
 10
145.2468326746622
 20
214.92197019815063
 10
145.60063687371408
 20
215.3990199365083
 10
145.96986027146633
 20
215.86423810757017
 10
146.35410749425654
 20
216.31712654406627
 10
146.7529670805343
 20
216.75720028171514
 10
147.16601192146416
 20
217.18398807853586
 10
147.59279971828488
 20
217.59703291946573
 10
148.03287345593375
 20
217.99589250574346
 10
148.48576189242982
 20
218.3801397285337
 10
148.95098006349173
 20
218.74936312628594
 10
149.4280298018494
 20
219.10316732533784
 10
149.9164002706942
 20
219.44117346329122
 10
150.4155685106958
 20
219.76301959470743
 10
150.92499999999998
 20
220.0683610786876
 10
151.44414922660815
 20
220.35687094792266
 10
151.97246027252513
 20
220.62824025881832
 10
152.5093674090502
 20
220.88217842231936
 10
153.0542957025736
 20
221.11841351507988
 10
153.6066616302296
 20
221.33669257064548
 10
154.1658737047476
 20
221.53678185033618
 10
154.73133310783152
 20
221.71846709353963
 10
155.30243433138924
 20
221.8815537471466
 10
155.8785658259261
 20
222.02586717388363
 10
156.45911065540727
 20
222.15125283931866
 10
157.0434471578882
 20
222.2575764773406
 10
157.63094961120603
 20
222.34472423393467
 10
158.22098890301845
 20
222.4126027891004
 10
158.8129332044729
 20
222.46113945678067
 10
159.40614864678474
 20
222.49028226269607
 10
160.0
 20
222.50000000000003
 10
160.59385135321523
 20
222.49028226269607
 10
161.18706679552707
 20
222.46113945678067
 10
161.77901109698152
 20
222.4126027891004
 10
162.36905038879394
 20
222.3447242339347
 10
162.9565528421118
 20
222.2575764773406
 10
163.5408893445927
 20
222.15125283931866
 10
164.12143417407387
 20
222.02586717388363
 10
164.69756566861074
 20
221.88155374714663
 10
165.26866689216848
 20
221.71846709353963
 10
165.8341262952524
 20
221.53678185033618
 10
166.39333836977036
 20
221.33669257064548
 10
166.94570429742637
 20
221.11841351507988
 10
167.49063259094976
 20
220.88217842231938
 10
168.02753972747487
 20
220.62824025881832
 10
168.55585077339185
 20
220.3568709479227
 10
169.075
 20
220.0683610786876
 10
169.58443148930417
 20
219.76301959470743
 10
170.08359972930577
 20
219.44117346329122
 10
170.5719701981506
 20
219.10316732533784
 10
171.04901993650827
 20
218.74936312628594
 10
171.51423810757015
 20
218.38013972853372
 10
171.96712654406625
 20
217.99589250574348
 10
172.40720028171512
 20
217.59703291946573
 10
172.83398807853584
 20
217.18398807853586
 10
173.2470329194657
 20
216.75720028171514
 10
173.64589250574343
 20
216.3171265440663
 10
174.03013972853367
 20
215.8642381075702
 10
174.39936312628592
 20
215.3990199365083
 10
174.7531673253378
 20
214.92197019815063
 10
175.0911734632912
 20
214.43359972930583
 10
175.4130195947074
 20
213.93443148930422
 10
175.71836107868756
 20
213.42500000000004
 10
176.00687094792264
 20
212.90585077339188
 10
176.2782402588183
 20
212.37753972747493
 10
176.53217842231933
 20
211.8406325909498
 10
176.76841351507986
 20
211.29570429742643
 10
176.98669257064546
 20
210.7433383697704
 10
177.18678185033616
 20
210.1841262952524
 10
177.36846709353958
 20
209.61866689216853
 10
177.53155374714657
 20
209.0475656686108
 10
177.6758671738836
 20
208.47143417407392
 10
177.80125283931864
 20
207.89088934459275
 10
177.90757647734057
 20
207.3065528421118
 10
177.99472423393465
 20
206.719050388794
 10
178.06260278910037
 20
206.12901109698157
 10
178.11113945678065
 20
205.53706679552712
 10
178.14028226269605
 20
204.94385135321528
 10
178.15
 20
204.35000000000002
 10
178.15
 20
110.0
  0
LWPOLYLINE
  5
D7
330
17
100
AcDbEntity
  8
08-FINA
100
AcDbPolyline
 90
5
 70
1
 10
178.15
 20
110.0
 10
178.15
 20
118.0
 10
141.85
 20
118.0
 10
141.85
 20
110.0
 10
178.15
 20
110.0
  0
LWPOLYLINE
  5
D8
330
17
100
AcDbEntity
  8
01-VISIBLE
100
AcDbPolyline
 90
4
 70
1
 10
158.4
 20
222.5
 10
161.6
 20
222.5
 10
161.6
 20
227.5
 10
158.4
 20
227.5
  0
DIMENSION
  5
D9
330
17
100
AcDbEntity
  8
04-COTA
100
AcDbDimension
280
0
  2
*D2
  3
FLAMA-IRAM
 10
186.15
 20
110.0
 30
0.0
 11
183.4
 21
114.0
 31
0.0
 70
32
 71
5
  1
<>
100
AcDbAlignedDimension
 13
178.15
 23
110.0
 33
0.0
 14
178.15
 24
118.0
 34
0.0
 50
90.0
100
AcDbRotatedDimension
1001
ACAD
1000
DSTYLE
1002
{
1070
144
1040
5.0
1002
}
  0
TEXT
  5
E8
330
17
100
AcDbEntity
  8
06-TEXTO
420
16777215
100
AcDbText
 10
160.0
 20
166.25
 30
0.0
 40
2.5
  1
EXTINTOR
  7
ISO3098
 72
1
 11
160.0
 21
166.25
 31
0.0
100
AcDbText
 73
2
  0
TEXT
  5
E9
330
17
100
AcDbEntity
  8
06-TEXTO
420
16777215
100
AcDbText
 10
160.0
 20
162.25
 30
0.0
 40
2.5
  1
SUSTITUTO
  7
ISO3098
 72
1
 11
160.0
 21
162.25
 31
0.0
100
AcDbText
 73
2
  0
TEXT
  5
EA
330
17
100
AcDbEntity
  8
06-TEXTO
100
AcDbText
 10
70.0
 20
100.0
 30
0.0
 40
3.5
  1
EXTINTOR DE RESERVA
  7
ISO3098
 72
1
 11
70.0
 21
100.0
 31
0.0
100
AcDbText
 73
2
  0
TEXT
  5
EB
330
17
100
AcDbEntity
  8
06-TEXTO
100
AcDbText
 10
70.0
 20
94.0
 30
0.0
 40
2.5
  1
40 mm inferiores VERDES
  7
ISO3098
 72
1
 11
70.0
 21
94.0
 31
0.0
100
AcDbText
 73
2
  0
TEXT
  5
EC
330
17
100
AcDbEntity
  8
06-TEXTO
100
AcDbText
 10
160.0
 20
100.0
 30
0.0
 40
3.5
  1
EXTINTOR SUSTITUTO
  7
ISO3098
 72
1
 11
160.0
 21
100.0
 31
0.0
100
AcDbText
 73
2
  0
TEXT
  5
ED
330
17
100
AcDbEntity
  8
06-TEXTO
100
AcDbText
 10
160.0
 20
94.0
 30
0.0
 40
2.5
  1
40 mm inferiores AMARILLOS
  7
ISO3098
 72
1
 11
160.0
 21
94.0
 31
0.0
100
AcDbText
 73
2
  0
TEXT
  5
EE
330
17
100
AcDbEntity
  8
06-TEXTO
100
AcDbText
 10
30.0
 20
72.0
 30
0.0
 40
3.5
  1
NOTAS
  7
ISO3098
 11
30.0
 21
72.0
 31
0.0
100
AcDbText
 73
1
  0
TEXT
  5
EF
330
17
100
AcDbEntity
  8
06-TEXTO
100
AcDbText
 10
30.0
 20
67.0
 30
0.0
 40
2.5
  1
1) Reserva: se mantiene en condiciones un 10 % de la dotación para reemplazar equipos
  7
ISO3098
 11
30.0
 21
67.0
 31
0.0
100
AcDbText
 73
1
  0
TEXT
  5
F0
330
17
100
AcDbEntity
  8
06-TEXTO
100
AcDbText
 10
30.0
 20
62.0
 30
0.0
 40
2.5
  1
    despresurizados, usados o con anomalías (IRAM 3517 rev. 2020, según resumen publicado).
  7
ISO3098
 11
30.0
 21
62.0
 31
0.0
100
AcDbText
 73
1
  0
TEXT
  5
F1
330
17
100
AcDbEntity
  8
06-TEXTO
100
AcDbText
 10
30.0
 20
57.0
 30
0.0
 40
2.5
  1
2) Sustituto: el que deja el prestador mientras retira equipos para mantenimiento; misma
  7
ISO3098
 11
30.0
 21
57.0
 31
0.0
100
AcDbText
 73
1
  0
TEXT
  5
F2
330
17
100
AcDbEntity
  8
06-TEXTO
100
AcDbText
 10
30.0
 20
52.0
 30
0.0
 40
2.5
  1
    clasificación y potencial que el retirado (IRAM 3517-2:2005 3.4.3; franja: rev. 2020).
  7
ISO3098
 11
30.0
 21
52.0
 31
0.0
100
AcDbText
 73
1
  0
TEXT
  5
F3
330
17
100
AcDbEntity
  8
06-TEXTO
100
AcDbText
 10
30.0
 20
47.0
 30
0.0
 40
2.5
  1
3) Franja: pintura en polvo verde RAL 6032 / amarillo RAL 1003 (DOC-01); leyenda en vinilo.
  7
ISO3098
 11
30.0
 21
47.0
 31
0.0
100
AcDbText
 73
1
  0
TEXT
  5
F4
330
17
100
AcDbEntity
  8
06-TEXTO
100
AcDbText
 10
30.0
 20
42.0
 30
0.0
 40
2.5
  1
4) Confirmar colores y leyendas con el texto de la revisión 2020 (fuente secundaria).
  7
ISO3098
 11
30.0
 21
42.0
 31
0.0
100
AcDbText
 73
1
  0
LWPOLYLINE
  5
F5
330
17
100
AcDbEntity
  8
01-VISIBLE
100
AcDbPolyline
 90
4
 70
1
 10
240.0
 20
105.0
 10
350.0
 20
105.0
 10
350.0
 20
265.0
 10
240.0
 20
265.0
  0
HATCH
  5
F6
330
17
100
AcDbEntity
  8
05-RAYADO
 62
7
420
11479838
100
AcDbHatch
 10
0.0
 20
0.0
 30
0.0
210
0.0
220
0.0
230
1.0
  2
SOLID
 70
1
 71
0
 91
1
 92
3
 72
0
 73
1
 93
4
 10
350.0
 20
250.0
 10
350.0
 20
265.0
 10
240.0
 20
265.0
 10
240.0
 20
250.0
 97
0
 75
1
 76
1
 98
0
  0
TEXT
  5
F7
330
17
100
AcDbEntity
  8
06-TEXTO
420
16777215
100
AcDbText
 10
295.0
 20
259.0
 30
0.0
 40
4.0
  1
MATAFUEGO ABC 10 kg
  7
ISO3098
 72
1
 11
295.0
 21
259.0
 31
0.0
100
AcDbText
 73
2
  0
TEXT
  5
F8
330
17
100
AcDbEntity
  8
06-TEXTO
420
16777215
100
AcDbText
 10
295.0
 20
253.0
 30
0.0
 40
2.0
  1
FLAMA S.A.
  7
ISO3098
 72
1
 11
295.0
 21
253.0
 31
0.0
100
AcDbText
 73
2
  0
HATCH
  5
F9
330
17
100
AcDbEntity
  8
05-RAYADO
 62
7
420
34641
100
AcDbHatch
 10
0.0
 20
0.0
 30
0.0
210
0.0
220
0.0
230
1.0
  2
SOLID
 70
1
 71
0
 91
1
 92
3
 72
0
 73
1
 93
3
 10
250.0
 20
231.2
 10
266.0
 20
231.2
 10
258.0
 20
245.6
 97
0
 75
1
 76
1
 98
0
  0
LWPOLYLINE
  5
FA
330
17
100
AcDbEntity
  8
01-VISIBLE
100
AcDbPolyline
 90
4
 70
1
 10
250.0
 20
231.2
 10
266.0
 20
231.2
 10
258.0
 20
245.6
 10
250.0
 20
231.2
  0
TEXT
  5
FB
330
17
100
AcDbEntity
  8
06-TEXTO
420
16777215
100
AcDbText
 10
258.0
 20
237.04
 30
0.0
 40
6.72
  1
A
  7
ISO3098
 72
1
 11
258.0
 21
237.04
 31
0.0
100
AcDbText
 73
2
  0
HATCH
  5
FC
330
17
100
AcDbEntity
  8
05-RAYADO
 62
7
420
11479838
100
AcDbHatch
 10
0.0
 20
0.0
 30
0.0
210
0.0
220
0.0
230
1.0
  2
SOLID
 70
1
 71
0
 91
1
 92
3
 72
0
 73
1
 93
4
 10
292.0
 20
230.0
 10
292.0
 20
246.0
 10
276.0
 20
246.0
 10
276.0
 20
230.0
 97
0
 75
1
 76
1
 98
0
  0
LWPOLYLINE
  5
FD
330
17
100
AcDbEntity
  8
01-VISIBLE
100
AcDbPolyline
 90
5
 70
1
 10
292.0
 20
230.0
 10
292.0
 20
246.0
 10
276.0
 20
246.0
 10
276.0
 20
230.0
 10
292.0
 20
230.0
  0
TEXT
  5
FE
330
17
100
AcDbEntity
  8
06-TEXTO
420
16777215
100
AcDbText
 10
284.0
 20
238.0
 30
0.0
 40
8.8
  1
B
  7
ISO3098
 72
1
 11
284.0
 21
238.0
 31
0.0
100
AcDbText
 73
2
  0
HATCH
  5
FF
330
17
100
AcDbEntity
  8
05-RAYADO
 62
7
420
21383
100
AcDbHatch
 10
0.0
 20
0.0
 30
0.0
210
0.0
220
0.0
230
1.0
  2
SOLID
 70
1
 71
0
 91
1
 92
3
 72
0
 73
1
 93
256
 10
318.0
 20
238.0
 10
317.9975905495696
 20
237.8036701718167
 10
317.9903636496414
 20
237.60745860538066
 10
317.9783236534295
 20
237.41148349120266
 10
317.9614778133776
 20
237.21586287736352
 10
317.93983627678966
 20
237.02071459840627
 10
317.9134120797182
 20
236.82615620435712
 10
317.88222113911155
 20
236.63230488991758
 10
317.84628224322586
 20
236.43927742387098
 10
317.8056170403082
 20
236.24719007874504
 10
317.76025002555633
 20
236.0561585607739
 10
317.71020852636354
 20
235.8662979402008
 10
317.65552268585765
 20
235.6777225819643
 10
317.5962254447443
 20
235.49054607680887
 10
317.5323525214642
 20
235.30488117286225
 10
317.4639423906779
 20
235.1208397077201
 10
317.3910362600903
 20
234.93853254107927
 10
317.31367804562825
 20
234.75806948796009
 10
317.23191434498756
 20
234.57955925255774
 10
317.14579440956413
 20
234.40310936276316
 10
317.05537011478685
 20
234.22882610539202
 10
316.9606959288697
 20
234.05681446216173
 10
316.8618288800022
 20
233.88717804645424
 10
316.75882852199766
 20
233.72001904090322
 10
316.6517568984204
 20
233.5554381358432
 10
316.54067850521267
 20
233.39353446865724
 10
316.42566025184516
 20
233.23440556406052
 10
316.30677142101285
 20
233.07814727535498
 10
316.1840836269019
 20
232.92485372669083
 10
316.0576707720519
 20
232.7746172563698
 10
315.9276090028397
 20
232.62752836122385
 10
315.7939766636117
 20
232.48367564210346
 10
315.65685424949237
 20
232.34314575050763
 10
315.5163243578965
 20
232.20602333638826
 10
315.3724716387761
 20
232.07239099716034
 10
315.22538274363023
 20
231.94232922794814
 10
315.07514627330914
 20
231.8159163730981
 10
314.921852724645
 20
231.69322857898715
 10
314.7655944359395
 20
231.57433974815484
 10
314.60646553134274
 20
231.45932149478733
 10
314.4445618641568
 20
231.34824310157964
 10
314.2799809590968
 20
231.24117147800234
 10
314.1128219535458
 20
231.13817111999782
 10
313.94318553783825
 20
231.03930407113032
 10
313.77117389460795
 20
230.94462988521315
 10
313.59689063723687
 20
230.85420559043587
 10
313.4204407474423
 20
230.76808565501244
 10
313.2419305120399
 20
230.68632195437175
 10
313.06146745892073
 20
230.6089637399097
 10
312.8791602922799
 20
230.53605760932209
 10
312.6951188271378
 20
230.46764747853584
 10
312.50945392319113
 20
230.4037745552557
 10
312.3222774180357
 20
230.34447731414232
 10
312.1337020597992
 20
230.28979147363648
 10
311.9438414392261
 20
230.23974997444364
 10
311.75280992125494
 20
230.19438295969178
 10
311.560722576129
 20
230.15371775677414
 10
311.3676951100824
 20
230.11777886088848
 10
311.1738437956429
 20
230.08658792028174
 10
310.97928540159376
 20
230.0601637232103
 10
310.7841371226365
 20
230.03852218662243
 10
310.58851650879734
 20
230.02167634657047
 10
310.39254139461934
 20
230.00963635035862
 10
310.1963298281833
 20
230.00240945043038
 10
310.0
 20
230.0
 10
309.8036701718167
 20
230.00240945043038
 10
309.60745860538066
 20
230.00963635035862
 10
309.41148349120266
 20
230.02167634657047
 10
309.2158628773635
 20
230.03852218662243
 10
309.02071459840624
 20
230.0601637232103
 10
308.8261562043571
 20
230.08658792028174
 10
308.6323048899176
 20
230.11777886088848
 10
308.439277423871
 20
230.15371775677414
 10
308.24719007874506
 20
230.19438295969178
 10
308.0561585607739
 20
230.23974997444364
 10
307.8662979402008
 20
230.28979147363648
 10
307.6777225819643
 20
230.34447731414232
 10
307.49054607680887
 20
230.4037745552557
 10
307.3048811728622
 20
230.46764747853584
 10
307.1208397077201
 20
230.53605760932209
 10
306.93853254107927
 20
230.6089637399097
 10
306.7580694879601
 20
230.68632195437175
 10
306.5795592525578
 20
230.76808565501244
 10
306.40310936276313
 20
230.85420559043587
 10
306.22882610539205
 20
230.94462988521315
 10
306.05681446216175
 20
231.03930407113032
 10
305.8871780464542
 20
231.13817111999782
 10
305.7200190409032
 20
231.24117147800234
 10
305.5554381358432
 20
231.34824310157964
 10
305.39353446865726
 20
231.45932149478733
 10
305.2344055640605
 20
231.57433974815484
 10
305.078147275355
 20
231.69322857898715
 10
304.92485372669086
 20
231.8159163730981
 10
304.77461725636977
 20
231.94232922794814
 10
304.6275283612239
 20
232.07239099716034
 10
304.4836756421035
 20
232.20602333638826
 10
304.34314575050763
 20
232.34314575050763
 10
304.2060233363883
 20
232.48367564210346
 10
304.0723909971603
 20
232.62752836122385
 10
303.9423292279481
 20
232.7746172563698
 10
303.8159163730981
 20
232.92485372669083
 10
303.69322857898715
 20
233.07814727535498
 10
303.57433974815484
 20
233.23440556406052
 10
303.45932149478733
 20
233.39353446865724
 10
303.3482431015796
 20
233.5554381358432
 10
303.24117147800234
 20
233.72001904090322
 10
303.1381711199978
 20
233.88717804645424
 10
303.0393040711303
 20
234.05681446216173
 10
302.94462988521315
 20
234.22882610539202
 10
302.85420559043587
 20
234.40310936276313
 10
302.76808565501244
 20
234.57955925255774
 10
302.68632195437175
 20
234.75806948796009
 10
302.6089637399097
 20
234.93853254107927
 10
302.5360576093221
 20
235.12083970772008
 10
302.4676474785358
 20
235.30488117286222
 10
302.4037745552557
 20
235.49054607680887
 10
302.34447731414235
 20
235.6777225819643
 10
302.28979147363646
 20
235.8662979402008
 10
302.23974997444367
 20
236.0561585607739
 10
302.1943829596918
 20
236.24719007874504
 10
302.15371775677414
 20
236.43927742387098
 10
302.11777886088845
 20
236.63230488991758
 10
302.0865879202818
 20
236.82615620435712
 10
302.06016372321034
 20
237.02071459840627
 10
302.0385221866224
 20
237.21586287736352
 10
302.0216763465705
 20
237.41148349120266
 10
302.0096363503586
 20
237.60745860538066
 10
302.0024094504304
 20
237.8036701718167
 10
302.0
 20
238.0
 10
302.0024094504304
 20
238.1963298281833
 10
302.0096363503586
 20
238.39254139461934
 10
302.0216763465705
 20
238.58851650879734
 10
302.0385221866224
 20
238.78413712263648
 10
302.06016372321034
 20
238.97928540159373
 10
302.0865879202818
 20
239.17384379564288
 10
302.11777886088845
 20
239.3676951100824
 10
302.15371775677414
 20
239.56072257612902
 10
302.1943829596918
 20
239.75280992125496
 10
302.23974997444367
 20
239.9438414392261
 10
302.28979147363646
 20
240.1337020597992
 10
302.34447731414235
 20
240.3222774180357
 10
302.4037745552557
 20
240.50945392319113
 10
302.4676474785358
 20
240.69511882713775
 10
302.5360576093221
 20
240.8791602922799
 10
302.6089637399097
 20
241.06146745892073
 10
302.68632195437175
 20
241.24193051203991
 10
302.76808565501244
 20
241.42044074744226
 10
302.85420559043587
 20
241.59689063723684
 10
302.94462988521315
 20
241.77117389460798
 10
303.0393040711303
 20
241.94318553783827
 10
303.1381711199978
 20
242.11282195354576
 10
303.24117147800234
 20
242.27998095909678
 10
303.3482431015796
 20
242.4445618641568
 10
303.45932149478733
 20
242.60646553134276
 10
303.57433974815484
 20
242.76559443593948
 10
303.69322857898715
 20
242.92185272464502
 10
303.8159163730981
 20
243.07514627330917
 10
303.9423292279481
 20
243.2253827436302
 10
304.0723909971603
 20
243.37247163877615
 10
304.2060233363883
 20
243.51632435789654
 10
304.34314575050763
 20
243.65685424949237
 10
304.48367564210344
 20
243.79397666361174
 10
304.6275283612238
 20
243.92760900283966
 10
304.77461725636977
 20
244.05767077205186
 10
304.92485372669086
 20
244.1840836269019
 10
305.078147275355
 20
244.30677142101285
 10
305.2344055640605
 20
244.42566025184516
 10
305.39353446865726
 20
244.54067850521267
 10
305.5554381358432
 20
244.65175689842036
 10
305.7200190409032
 20
244.75882852199766
 10
305.8871780464542
 20
244.86182888000218
 10
306.05681446216175
 20
244.96069592886968
 10
306.22882610539205
 20
245.05537011478685
 10
306.40310936276313
 20
245.14579440956413
 10
306.5795592525577
 20
245.23191434498756
 10
306.7580694879601
 20
245.31367804562825
 10
306.93853254107927
 20
245.3910362600903
 10
307.1208397077201
 20
245.46394239067791
 10
307.3048811728622
 20
245.53235252146416
 10
307.49054607680887
 20
245.5962254447443
 10
307.6777225819643
 20
245.65552268585768
 10
307.8662979402008
 20
245.71020852636352
 10
308.0561585607739
 20
245.76025002555636
 10
308.24719007874506
 20
245.80561704030822
 10
308.439277423871
 20
245.84628224322583
 10
308.6323048899176
 20
245.88222113911152
 10
308.8261562043571
 20
245.91341207971826
 10
309.0207145984063
 20
245.9398362767897
 10
309.2158628773635
 20
245.96147781337757
 10
309.41148349120266
 20
245.97832365342953
 10
309.60745860538066
 20
245.99036364964138
 10
309.8036701718167
 20
245.99759054956962
 10
310.0
 20
246.0
 10
310.1963298281833
 20
245.99759054956962
 10
310.39254139461934
 20
245.99036364964138
 10
310.58851650879734
 20
245.97832365342953
 10
310.7841371226365
 20
245.96147781337757
 10
310.9792854015937
 20
245.9398362767897
 10
311.1738437956429
 20
245.91341207971826
 10
311.3676951100824
 20
245.88222113911152
 10
311.560722576129
 20
245.84628224322586
 10
311.75280992125494
 20
245.80561704030822
 10
311.9438414392261
 20
245.76025002555636
 10
312.1337020597992
 20
245.71020852636352
 10
312.3222774180357
 20
245.65552268585768
 10
312.50945392319113
 20
245.5962254447443
 10
312.6951188271378
 20
245.53235252146416
 10
312.8791602922799
 20
245.46394239067791
 10
313.06146745892073
 20
245.3910362600903
 10
313.2419305120399
 20
245.31367804562825
 10
313.4204407474423
 20
245.23191434498756
 10
313.59689063723687
 20
245.14579440956413
 10
313.77117389460795
 20
245.05537011478685
 10
313.94318553783825
 20
244.96069592886968
 10
314.1128219535458
 20
244.86182888000218
 10
314.27998095909675
 20
244.75882852199766
 10
314.4445618641568
 20
244.65175689842036
 10
314.60646553134274
 20
244.54067850521267
 10
314.7655944359395
 20
244.42566025184516
 10
314.921852724645
 20
244.30677142101285
 10
315.07514627330914
 20
244.1840836269019
 10
315.22538274363023
 20
244.05767077205186
 10
315.3724716387761
 20
243.92760900283966
 10
315.5163243578965
 20
243.79397666361174
 10
315.65685424949237
 20
243.65685424949237
 10
315.7939766636117
 20
243.51632435789654
 10
315.9276090028397
 20
243.37247163877615
 10
316.0576707720519
 20
243.2253827436302
 10
316.1840836269019
 20
243.07514627330917
 10
316.30677142101285
 20
242.92185272464502
 10
316.42566025184516
 20
242.76559443593948
 10
316.54067850521267
 20
242.60646553134276
 10
316.6517568984204
 20
242.4445618641568
 10
316.75882852199766
 20
242.27998095909678
 10
316.8618288800022
 20
242.11282195354576
 10
316.9606959288697
 20
241.94318553783827
 10
317.05537011478685
 20
241.77117389460798
 10
317.14579440956413
 20
241.59689063723687
 10
317.23191434498756
 20
241.42044074744226
 10
317.31367804562825
 20
241.24193051203991
 10
317.3910362600903
 20
241.06146745892073
 10
317.4639423906779
 20
240.8791602922799
 10
317.5323525214642
 20
240.69511882713775
 10
317.5962254447443
 20
240.50945392319113
 10
317.65552268585765
 20
240.3222774180357
 10
317.71020852636354
 20
240.1337020597992
 10
317.76025002555633
 20
239.9438414392261
 10
317.8056170403082
 20
239.75280992125496
 10
317.84628224322586
 20
239.56072257612902
 10
317.88222113911155
 20
239.36769511008242
 10
317.9134120797182
 20
239.1738437956429
 10
317.93983627678966
 20
238.97928540159373
 10
317.9614778133776
 20
238.78413712263648
 10
317.9783236534295
 20
238.58851650879734
 10
317.9903636496414
 20
238.39254139461934
 10
317.9975905495696
 20
238.1963298281833
 97
0
 75
1
 76
1
 98
0
  0
LWPOLYLINE
  5
100
330
17
100
AcDbEntity
  8
01-VISIBLE
100
AcDbPolyline
 90
257
 70
1
 10
318.0
 20
238.0
 10
317.9975905495696
 20
237.8036701718167
 10
317.9903636496414
 20
237.60745860538066
 10
317.9783236534295
 20
237.41148349120266
 10
317.9614778133776
 20
237.21586287736352
 10
317.93983627678966
 20
237.02071459840627
 10
317.9134120797182
 20
236.82615620435712
 10
317.88222113911155
 20
236.63230488991758
 10
317.84628224322586
 20
236.43927742387098
 10
317.8056170403082
 20
236.24719007874504
 10
317.76025002555633
 20
236.0561585607739
 10
317.71020852636354
 20
235.8662979402008
 10
317.65552268585765
 20
235.6777225819643
 10
317.5962254447443
 20
235.49054607680887
 10
317.5323525214642
 20
235.30488117286225
 10
317.4639423906779
 20
235.1208397077201
 10
317.3910362600903
 20
234.93853254107927
 10
317.31367804562825
 20
234.75806948796009
 10
317.23191434498756
 20
234.57955925255774
 10
317.14579440956413
 20
234.40310936276316
 10
317.05537011478685
 20
234.22882610539202
 10
316.9606959288697
 20
234.05681446216173
 10
316.8618288800022
 20
233.88717804645424
 10
316.75882852199766
 20
233.72001904090322
 10
316.6517568984204
 20
233.5554381358432
 10
316.54067850521267
 20
233.39353446865724
 10
316.42566025184516
 20
233.23440556406052
 10
316.30677142101285
 20
233.07814727535498
 10
316.1840836269019
 20
232.92485372669083
 10
316.0576707720519
 20
232.7746172563698
 10
315.9276090028397
 20
232.62752836122385
 10
315.7939766636117
 20
232.48367564210346
 10
315.65685424949237
 20
232.34314575050763
 10
315.5163243578965
 20
232.20602333638826
 10
315.3724716387761
 20
232.07239099716034
 10
315.22538274363023
 20
231.94232922794814
 10
315.07514627330914
 20
231.8159163730981
 10
314.921852724645
 20
231.69322857898715
 10
314.7655944359395
 20
231.57433974815484
 10
314.60646553134274
 20
231.45932149478733
 10
314.4445618641568
 20
231.34824310157964
 10
314.2799809590968
 20
231.24117147800234
 10
314.1128219535458
 20
231.13817111999782
 10
313.94318553783825
 20
231.03930407113032
 10
313.77117389460795
 20
230.94462988521315
 10
313.59689063723687
 20
230.85420559043587
 10
313.4204407474423
 20
230.76808565501244
 10
313.2419305120399
 20
230.68632195437175
 10
313.06146745892073
 20
230.6089637399097
 10
312.8791602922799
 20
230.53605760932209
 10
312.6951188271378
 20
230.46764747853584
 10
312.50945392319113
 20
230.4037745552557
 10
312.3222774180357
 20
230.34447731414232
 10
312.1337020597992
 20
230.28979147363648
 10
311.9438414392261
 20
230.23974997444364
 10
311.75280992125494
 20
230.19438295969178
 10
311.560722576129
 20
230.15371775677414
 10
311.3676951100824
 20
230.11777886088848
 10
311.1738437956429
 20
230.08658792028174
 10
310.97928540159376
 20
230.0601637232103
 10
310.7841371226365
 20
230.03852218662243
 10
310.58851650879734
 20
230.02167634657047
 10
310.39254139461934
 20
230.00963635035862
 10
310.1963298281833
 20
230.00240945043038
 10
310.0
 20
230.0
 10
309.8036701718167
 20
230.00240945043038
 10
309.60745860538066
 20
230.00963635035862
 10
309.41148349120266
 20
230.02167634657047
 10
309.2158628773635
 20
230.03852218662243
 10
309.02071459840624
 20
230.0601637232103
 10
308.8261562043571
 20
230.08658792028174
 10
308.6323048899176
 20
230.11777886088848
 10
308.439277423871
 20
230.15371775677414
 10
308.24719007874506
 20
230.19438295969178
 10
308.0561585607739
 20
230.23974997444364
 10
307.8662979402008
 20
230.28979147363648
 10
307.6777225819643
 20
230.34447731414232
 10
307.49054607680887
 20
230.4037745552557
 10
307.3048811728622
 20
230.46764747853584
 10
307.1208397077201
 20
230.53605760932209
 10
306.93853254107927
 20
230.6089637399097
 10
306.7580694879601
 20
230.68632195437175
 10
306.5795592525578
 20
230.76808565501244
 10
306.40310936276313
 20
230.85420559043587
 10
306.22882610539205
 20
230.94462988521315
 10
306.05681446216175
 20
231.03930407113032
 10
305.8871780464542
 20
231.13817111999782
 10
305.7200190409032
 20
231.24117147800234
 10
305.5554381358432
 20
231.34824310157964
 10
305.39353446865726
 20
231.45932149478733
 10
305.2344055640605
 20
231.57433974815484
 10
305.078147275355
 20
231.69322857898715
 10
304.92485372669086
 20
231.8159163730981
 10
304.77461725636977
 20
231.94232922794814
 10
304.6275283612239
 20
232.07239099716034
 10
304.4836756421035
 20
232.20602333638826
 10
304.34314575050763
 20
232.34314575050763
 10
304.2060233363883
 20
232.48367564210346
 10
304.0723909971603
 20
232.62752836122385
 10
303.9423292279481
 20
232.7746172563698
 10
303.8159163730981
 20
232.92485372669083
 10
303.69322857898715
 20
233.07814727535498
 10
303.57433974815484
 20
233.23440556406052
 10
303.45932149478733
 20
233.39353446865724
 10
303.3482431015796
 20
233.5554381358432
 10
303.24117147800234
 20
233.72001904090322
 10
303.1381711199978
 20
233.88717804645424
 10
303.0393040711303
 20
234.05681446216173
 10
302.94462988521315
 20
234.22882610539202
 10
302.85420559043587
 20
234.40310936276313
 10
302.76808565501244
 20
234.57955925255774
 10
302.68632195437175
 20
234.75806948796009
 10
302.6089637399097
 20
234.93853254107927
 10
302.5360576093221
 20
235.12083970772008
 10
302.4676474785358
 20
235.30488117286222
 10
302.4037745552557
 20
235.49054607680887
 10
302.34447731414235
 20
235.6777225819643
 10
302.28979147363646
 20
235.8662979402008
 10
302.23974997444367
 20
236.0561585607739
 10
302.1943829596918
 20
236.24719007874504
 10
302.15371775677414
 20
236.43927742387098
 10
302.11777886088845
 20
236.63230488991758
 10
302.0865879202818
 20
236.82615620435712
 10
302.06016372321034
 20
237.02071459840627
 10
302.0385221866224
 20
237.21586287736352
 10
302.0216763465705
 20
237.41148349120266
 10
302.0096363503586
 20
237.60745860538066
 10
302.0024094504304
 20
237.8036701718167
 10
302.0
 20
238.0
 10
302.0024094504304
 20
238.1963298281833
 10
302.0096363503586
 20
238.39254139461934
 10
302.0216763465705
 20
238.58851650879734
 10
302.0385221866224
 20
238.78413712263648
 10
302.06016372321034
 20
238.97928540159373
 10
302.0865879202818
 20
239.17384379564288
 10
302.11777886088845
 20
239.3676951100824
 10
302.15371775677414
 20
239.56072257612902
 10
302.1943829596918
 20
239.75280992125496
 10
302.23974997444367
 20
239.9438414392261
 10
302.28979147363646
 20
240.1337020597992
 10
302.34447731414235
 20
240.3222774180357
 10
302.4037745552557
 20
240.50945392319113
 10
302.4676474785358
 20
240.69511882713775
 10
302.5360576093221
 20
240.8791602922799
 10
302.6089637399097
 20
241.06146745892073
 10
302.68632195437175
 20
241.24193051203991
 10
302.76808565501244
 20
241.42044074744226
 10
302.85420559043587
 20
241.59689063723684
 10
302.94462988521315
 20
241.77117389460798
 10
303.0393040711303
 20
241.94318553783827
 10
303.1381711199978
 20
242.11282195354576
 10
303.24117147800234
 20
242.27998095909678
 10
303.3482431015796
 20
242.4445618641568
 10
303.45932149478733
 20
242.60646553134276
 10
303.57433974815484
 20
242.76559443593948
 10
303.69322857898715
 20
242.92185272464502
 10
303.8159163730981
 20
243.07514627330917
 10
303.9423292279481
 20
243.2253827436302
 10
304.0723909971603
 20
243.37247163877615
 10
304.2060233363883
 20
243.51632435789654
 10
304.34314575050763
 20
243.65685424949237
 10
304.48367564210344
 20
243.79397666361174
 10
304.6275283612238
 20
243.92760900283966
 10
304.77461725636977
 20
244.05767077205186
 10
304.92485372669086
 20
244.1840836269019
 10
305.078147275355
 20
244.30677142101285
 10
305.2344055640605
 20
244.42566025184516
 10
305.39353446865726
 20
244.54067850521267
 10
305.5554381358432
 20
244.65175689842036
 10
305.7200190409032
 20
244.75882852199766
 10
305.8871780464542
 20
244.86182888000218
 10
306.05681446216175
 20
244.96069592886968
 10
306.22882610539205
 20
245.05537011478685
 10
306.40310936276313
 20
245.14579440956413
 10
306.5795592525577
 20
245.23191434498756
 10
306.7580694879601
 20
245.31367804562825
 10
306.93853254107927
 20
245.3910362600903
 10
307.1208397077201
 20
245.46394239067791
 10
307.3048811728622
 20
245.53235252146416
 10
307.49054607680887
 20
245.5962254447443
 10
307.6777225819643
 20
245.65552268585768
 10
307.8662979402008
 20
245.71020852636352
 10
308.0561585607739
 20
245.76025002555636
 10
308.24719007874506
 20
245.80561704030822
 10
308.439277423871
 20
245.84628224322583
 10
308.6323048899176
 20
245.88222113911152
 10
308.8261562043571
 20
245.91341207971826
 10
309.0207145984063
 20
245.9398362767897
 10
309.2158628773635
 20
245.96147781337757
 10
309.41148349120266
 20
245.97832365342953
 10
309.60745860538066
 20
245.99036364964138
 10
309.8036701718167
 20
245.99759054956962
 10
310.0
 20
246.0
 10
310.1963298281833
 20
245.99759054956962
 10
310.39254139461934
 20
245.99036364964138
 10
310.58851650879734
 20
245.97832365342953
 10
310.7841371226365
 20
245.96147781337757
 10
310.9792854015937
 20
245.9398362767897
 10
311.1738437956429
 20
245.91341207971826
 10
311.3676951100824
 20
245.88222113911152
 10
311.560722576129
 20
245.84628224322586
 10
311.75280992125494
 20
245.80561704030822
 10
311.9438414392261
 20
245.76025002555636
 10
312.1337020597992
 20
245.71020852636352
 10
312.3222774180357
 20
245.65552268585768
 10
312.50945392319113
 20
245.5962254447443
 10
312.6951188271378
 20
245.53235252146416
 10
312.8791602922799
 20
245.46394239067791
 10
313.06146745892073
 20
245.3910362600903
 10
313.2419305120399
 20
245.31367804562825
 10
313.4204407474423
 20
245.23191434498756
 10
313.59689063723687
 20
245.14579440956413
 10
313.77117389460795
 20
245.05537011478685
 10
313.94318553783825
 20
244.96069592886968
 10
314.1128219535458
 20
244.86182888000218
 10
314.27998095909675
 20
244.75882852199766
 10
314.4445618641568
 20
244.65175689842036
 10
314.60646553134274
 20
244.54067850521267
 10
314.7655944359395
 20
244.42566025184516
 10
314.921852724645
 20
244.30677142101285
 10
315.07514627330914
 20
244.1840836269019
 10
315.22538274363023
 20
244.05767077205186
 10
315.3724716387761
 20
243.92760900283966
 10
315.5163243578965
 20
243.79397666361174
 10
315.65685424949237
 20
243.65685424949237
 10
315.7939766636117
 20
243.51632435789654
 10
315.9276090028397
 20
243.37247163877615
 10
316.0576707720519
 20
243.2253827436302
 10
316.1840836269019
 20
243.07514627330917
 10
316.30677142101285
 20
242.92185272464502
 10
316.42566025184516
 20
242.76559443593948
 10
316.54067850521267
 20
242.60646553134276
 10
316.6517568984204
 20
242.4445618641568
 10
316.75882852199766
 20
242.27998095909678
 10
316.8618288800022
 20
242.11282195354576
 10
316.9606959288697
 20
241.94318553783827
 10
317.05537011478685
 20
241.77117389460798
 10
317.14579440956413
 20
241.59689063723687
 10
317.23191434498756
 20
241.42044074744226
 10
317.31367804562825
 20
241.24193051203991
 10
317.3910362600903
 20
241.06146745892073
 10
317.4639423906779
 20
240.8791602922799
 10
317.5323525214642
 20
240.69511882713775
 10
317.5962254447443
 20
240.50945392319113
 10
317.65552268585765
 20
240.3222774180357
 10
317.71020852636354
 20
240.1337020597992
 10
317.76025002555633
 20
239.9438414392261
 10
317.8056170403082
 20
239.75280992125496
 10
317.84628224322586
 20
239.56072257612902
 10
317.88222113911155
 20
239.36769511008242
 10
317.9134120797182
 20
239.1738437956429
 10
317.93983627678966
 20
238.97928540159373
 10
317.9614778133776
 20
238.78413712263648
 10
317.9783236534295
 20
238.58851650879734
 10
317.9903636496414
 20
238.39254139461934
 10
317.9975905495696
 20
238.1963298281833
 10
318.0
 20
238.0
  0
TEXT
  5
101
330
17
100
AcDbEntity
  8
06-TEXTO
420
16777215
100
AcDbText
 10
310.0
 20
238.0
 30
0.0
 40
8.8
  1
C
  7
ISO3098
 72
1
 11
310.0
 21
238.0
 31
0.0
100
AcDbText
 73
2
  0
TEXT
  5
102
330
17
100
AcDbEntity
  8
06-TEXTO
100
AcDbText
 10
244.0
 20
223.0
 30
0.0
 40
2.5
  1
MODO DE USO
  7
ISO3098
 11
244.0
 21
223.0
 31
0.0
100
AcDbText
 73
1
  0
TEXT
  5
103
330
17
100
AcDbEntity
  8
06-TEXTO
100
AcDbText
 10
244.0
 20
218.0
 30
0.0
 40
2.0
  1
1. Retirar el matafuego del soporte.
  7
ISO3098
 11
244.0
 21
218.0
 31
0.0
100
AcDbText
 73
1
  0
TEXT
  5
104
330
17
100
AcDbEntity
  8
06-TEXTO
100
AcDbText
 10
244.0
 20
213.0
 30
0.0
 40
2.0
  1
2. Quitar el precinto y el seguro.
  7
ISO3098
 11
244.0
 21
213.0
 31
0.0
100
AcDbText
 73
1
  0
TEXT
  5
105
330
17
100
AcDbEntity
  8
06-TEXTO
100
AcDbText
 10
244.0
 20
208.0
 30
0.0
 40
2.0
  1
3. Apuntar a la base del fuego.
  7
ISO3098
 11
244.0
 21
208.0
 31
0.0
100
AcDbText
 73
1
  0
TEXT
  5
106
330
17
100
AcDbEntity
  8
06-TEXTO
100
AcDbText
 10
244.0
 20
203.0
 30
0.0
 40
2.0
  1
4. Apretar la palanca, barrer en zig-zag.
  7
ISO3098
 11
244.0
 21
203.0
 31
0.0
100
AcDbText
 73
1
  0
TEXT
  5
107
330
17
100
AcDbEntity
  8
06-TEXTO
100
AcDbText
 10
244.0
 20
198.0
 30
0.0
 40
2.0
  1
5. Recargar después de cada uso.
  7
ISO3098
 11
244.0
 21
198.0
 31
0.0
100
AcDbText
 73
1
  0
TEXT
  5
108
330
17
100
AcDbEntity
  8
06-TEXTO
100
AcDbText
 10
244.0
 20
143.0
 30
0.0
 40
2.0
  1
Agente: polvo ABC (IRAM 3569)  Carga: 10 kg
  7
ISO3098
 11
244.0
 21
143.0
 31
0.0
100
AcDbText
 73
1
  0
TEXT
  5
109
330
17
100
AcDbEntity
  8
06-TEXTO
100
AcDbText
 10
244.0
 20
137.0
 30
0.0
 40
2.0
  1
Propelente: N2  Ps: 1,4 MPa  Pe: 3,5 MPa
  7
ISO3098
 11
244.0
 21
137.0
 31
0.0
100
AcDbText
 73
1
  0
TEXT
  5
10A
330
17
100
AcDbEntity
  8
06-TEXTO
100
AcDbText
 10
244.0
 20
131.0
 30
0.0
 40
2.0
  1
Temperatura: -20 °C a +50 °C
  7
ISO3098
 11
244.0
 21
131.0
 31
0.0
100
AcDbText
 73
1
  0
TEXT
  5
10B
330
17
100
AcDbEntity
  8
06-TEXTO
100
AcDbText
 10
244.0
 20
125.0
 30
0.0
 40
2.0
  1
Norma IRAM 3523 - placa según IRAM 3534
  7
ISO3098
 11
244.0
 21
125.0
 31
0.0
100
AcDbText
 73
1
  0
TEXT
  5
10C
330
17
100
AcDbEntity
  8
06-TEXTO
100
AcDbText
 10
244.0
 20
119.0
 30
0.0
 40
2.0
  1
No apto para metales (clase D).
  7
ISO3098
 11
244.0
 21
119.0
 31
0.0
100
AcDbText
 73
1
  0
TEXT
  5
10D
330
17
100
AcDbEntity
  8
06-TEXTO
100
AcDbText
 10
240.0
 20
269.0
 30
0.0
 40
3.5
  1
ETIQUETA DE INSTRUCCIONES (ej. ABC 10 kg, 1:1)
  7
ISO3098
 11
240.0
 21
269.0
 31
0.0
100
AcDbText
 73
1
  0
VIEWPORT
  5
112
330
10E
100
AcDbEntity
 67
1
  8
VIEWPORTS
100
AcDbViewport
 10
322560.0
 20
228096.0
 30
0.0
 40
709632.0
 41
501811.2
 68
1
 69
1
 12
322560.0
 22
228096.0
 13
0.0
 23
0.0
 14
10.0
 24
10.0
 15
10.0
 25
10.0
 16
0.0
 26
0.0
 36
1.0
 17
0.0
 27
0.0
 37
0.0
 42
50.0
 43
0.0
 44
0.0
 45
501811.2
 50
0.0
 51
0.0
 72
100
 90
557088
  1

281
0
 71
0
 74
0
110
0.0
120
0.0
130
0.0
111
1.0
121
0.0
131
0.0
112
0.0
122
1.0
132
0.0
 79
0
146
0.0
282
0
  0
VIEWPORT
  5
113
330
10E
100
AcDbEntity
 67
1
  8
VIEWPORTS
100
AcDbViewport
 10
210.0
 20
148.5
 30
0.0
 40
420.0
 41
297.0
 68
2
 69
3
 12
210.0
 22
148.5
 13
0.0
 23
0.0
 14
10.0
 24
10.0
 15
10.0
 25
10.0
 16
0.0
 26
0.0
 36
1.0
 17
0.0
 27
0.0
 37
0.0
 42
50.0
 43
0.0
 44
0.0
 45
297.0
 50
0.0
 51
0.0
 72
100
 90
0
  1

281
0
 71
0
 74
0
110
0.0
120
0.0
130
0.0
111
1.0
121
0.0
131
0.0
112
0.0
122
1.0
132
0.0
 79
0
146
0.0
282
0
  0
ENDSEC
  0
SECTION
  2
OBJECTS
  0
DICTIONARY
  5
A
330
0
100
AcDbDictionary
281
1
  3
ACAD_COLOR
350
B
  3
ACAD_GROUP
350
C
  3
ACAD_LAYOUT
350
D
  3
ACAD_MATERIAL
350
E
  3
ACAD_MLEADERSTYLE
350
F
  3
ACAD_MLINESTYLE
350
10
  3
ACAD_PLOTSETTINGS
350
11
  3
ACAD_PLOTSTYLENAME
350
12
  3
ACAD_SCALELIST
350
14
  3
ACAD_TABLESTYLE
350
15
  3
ACAD_VISUALSTYLE
350
16
  3
EZDXF_META
350
2D
  0
DICTIONARY
  5
B
330
A
100
AcDbDictionary
281
1
  0
DICTIONARY
  5
C
330
A
100
AcDbDictionary
281
1
  0
DICTIONARY
  5
D
330
A
100
AcDbDictionary
281
1
  3
Model
350
1A
  3
Lamina
350
111
  0
DICTIONARY
  5
E
330
A
100
AcDbDictionary
281
1
  3
ByBlock
350
1F
  3
ByLayer
350
20
  3
Global
350
21
  0
DICTIONARY
  5
F
330
A
100
AcDbDictionary
281
1
  3
Standard
350
2C
  0
DICTIONARY
  5
10
330
A
100
AcDbDictionary
281
1
  3
Standard
350
22
  0
DICTIONARY
  5
11
330
A
100
AcDbDictionary
281
1
  0
ACDBDICTIONARYWDFLT
  5
12
330
A
100
AcDbDictionary
281
1
  3
Normal
350
13
100
AcDbDictionaryWithDefault
340
13
  0
ACDBPLACEHOLDER
  5
13
330
12
  0
DICTIONARY
  5
14
330
A
100
AcDbDictionary
281
1
  0
DICTIONARY
  5
15
330
A
100
AcDbDictionary
281
1
  0
DICTIONARY
  5
16
330
A
100
AcDbDictionary
281
1
  0
LAYOUT
  5
1A
330
D
100
AcDbPlotSettings
  1

  4
A3
  6

 40
7.5
 41
20.0
 42
7.5
 43
20.0
 44
420.0
 45
297.0
 46
0.0
 47
0.0
 48
0.0
 49
0.0
140
0.0
141
0.0
142
1.0
143
1.0
 70
1024
 72
1
 73
0
 74
5
  7

 75
16
 76
0
 77
2
 78
300
147
1.0
148
0.0
149
0.0
100
AcDbLayout
  1
Model
 70
1
 71
0
 10
0.0
 20
0.0
 11
420.0
 21
297.0
 12
0.0
 22
0.0
 32
0.0
 14
1e+20
 24
1e+20
 34
1e+20
 15
-1e+20
 25
-1e+20
 35
-1e+20
146
0.0
 13
0.0
 23
0.0
 33
0.0
 16
1.0
 26
0.0
 36
0.0
 17
0.0
 27
1.0
 37
0.0
 76
1
330
17
  0
MATERIAL
  5
1F
102
{ACAD_REACTORS
330
E
102
}
330
E
100
AcDbMaterial
  1
ByBlock
  2

 70
0
 40
1.0
 71
1
 41
1.0
 91
-1023410177
 42
1.0
 72
1
  3

 73
1
 74
1
 75
1
 44
0.5
 73
0
 45
1.0
 46
1.0
 77
1
  4

 78
1
 79
1
170
1
 48
1.0
171
1
  6

172
1
173
1
174
1
140
1.0
141
1.0
175
1
  7

176
1
177
1
178
1
143
1.0
179
1
  8

270
1
271
1
272
1
145
1.0
146
1.0
273
1
  9

274
1
275
1
276
1
 42
1.0
 72
1
  3

 73
1
 74
1
 75
1
 94
63
  0
MATERIAL
  5
20
102
{ACAD_REACTORS
330
E
102
}
330
E
100
AcDbMaterial
  1
ByLayer
  2

 70
0
 40
1.0
 71
1
 41
1.0
 91
-1023410177
 42
1.0
 72
1
  3

 73
1
 74
1
 75
1
 44
0.5
 73
0
 45
1.0
 46
1.0
 77
1
  4

 78
1
 79
1
170
1
 48
1.0
171
1
  6

172
1
173
1
174
1
140
1.0
141
1.0
175
1
  7

176
1
177
1
178
1
143
1.0
179
1
  8

270
1
271
1
272
1
145
1.0
146
1.0
273
1
  9

274
1
275
1
276
1
 42
1.0
 72
1
  3

 73
1
 74
1
 75
1
 94
63
  0
MATERIAL
  5
21
102
{ACAD_REACTORS
330
E
102
}
330
E
100
AcDbMaterial
  1
Global
  2

 70
0
 40
1.0
 71
1
 41
1.0
 91
-1023410177
 42
1.0
 72
1
  3

 73
1
 74
1
 75
1
 44
0.5
 73
0
 45
1.0
 46
1.0
 77
1
  4

 78
1
 79
1
170
1
 48
1.0
171
1
  6

172
1
173
1
174
1
140
1.0
141
1.0
175
1
  7

176
1
177
1
178
1
143
1.0
179
1
  8

270
1
271
1
272
1
145
1.0
146
1.0
273
1
  9

274
1
275
1
276
1
 42
1.0
 72
1
  3

 73
1
 74
1
 75
1
 94
63
  0
MLINESTYLE
  5
22
102
{ACAD_REACTORS
330
10
102
}
330
10
100
AcDbMlineStyle
  2
Standard
 70
0
  3

 62
256
 51
90.0
 52
90.0
 71
2
 49
0.5
 62
256
  6
BYLAYER
 49
-0.5
 62
256
  6
BYLAYER
  0
MLEADERSTYLE
  5
2C
102
{ACAD_REACTORS
330
F
102
}
330
F
100
AcDbMLeaderStyle
179
2
170
2
171
1
172
0
 90
2
 40
0.0
 41
0.0
173
1
 91
-1056964608
 92
-2
290
1
 42
2.0
291
1
 43
8.0
  3
Standard
 44
4.0
300

342
29
174
1
175
1
176
0
178
1
 93
-1056964608
 45
4.0
292
0
297
0
 46
4.0
 94
-1056964608
 47
1.0
 49
1.0
140
1.0
294
1
141
0.0
177
0
142
1.0
295
0
296
0
143
3.75
271
0
272
9
273
9
  0
DICTIONARY
  5
2D
330
A
100
AcDbDictionary
280
1
281
1
  3
CREATED_BY_EZDXF
350
2E
  3
WRITTEN_BY_EZDXF
350
116
  0
DICTIONARYVAR
  5
2E
330
2D
100
DictionaryVariables
280
0
  1
1.4.4 @ 2026-09-29T04:54:11.990997+00:00
  0
LAYOUT
  5
111
330
D
100
AcDbPlotSettings
  1

  2
DWG To PDF.pc3
  4
ISO_full_bleed_A3_(420.00_x_297.00_MM)_(420.00_x_297.00_MM)
  6

 40
0.0
 41
0.0
 42
0.0
 43
0.0
 44
420.0
 45
297.0
 46
0.0
 47
0.0
 48
0.0
 49
0.0
140
0.0
141
0.0
142
0.0078125
143
12.0
 70
672
 72
1
 73
0
 74
5
  7

 75
1
 76
0
 77
2
 78
300
147
1.0
148
0.0
149
0.0
100
AcDbLayout
  1
Lamina
 70
1
 71
3
 10
-0.0
 20
-0.0
 11
420.0
 21
297.0
 12
0.0
 22
0.0
 32
0.0
 14
1e+20
 24
1e+20
 34
1e+20
 15
-1e+20
 25
-1e+20
 35
-1e+20
146
0.0
 13
0.0
 23
0.0
 33
0.0
 16
1.0
 26
0.0
 36
0.0
 17
0.0
 27
1.0
 37
0.0
 76
1
330
10E
331
112
  0
DICTIONARYVAR
  5
116
330
2D
100
DictionaryVariables
280
0
  1
1.4.4 @ 2026-09-29T04:54:12.002703+00:00
  0
ENDSEC
  0
EOF
