  0
SECTION
  2
HEADER
  9
$ACADVER
  1
AC1032
  9
$ACADMAINTVER
 90
4
  9
$DWGCODEPAGE
  3
ANSI_1252
  9
$LASTSAVEDBY
  1
ezdxf
  9
$REQUIREDVERSIONS
160
0
  9
$INSBASE
 10
0.0
 20
0.0
 30
0.0
  9
$EXTMIN
 10
1e+20
 20
1e+20
 30
1e+20
  9
$EXTMAX
 10
-1e+20
 20
-1e+20
 30
-1e+20
  9
$LIMMIN
 10
0.0
 20
0.0
  9
$LIMMAX
 10
420.0
 20
297.0
  9
$ORTHOMODE
 70
0
  9
$REGENMODE
 70
1
  9
$FILLMODE
 70
1
  9
$QTEXTMODE
 70
0
  9
$MIRRTEXT
 70
1
  9
$LTSCALE
 40
1.0
  9
$ATTMODE
 70
1
  9
$TEXTSIZE
 40
2.5
  9
$TRACEWID
 40
1.0
  9
$TEXTSTYLE
  7
Standard
  9
$CLAYER
  8
0
  9
$CELTYPE
  6
ByLayer
  9
$CECOLOR
 62
256
  9
$CELTSCALE
 40
1.0
  9
$DISPSILH
 70
0
  9
$DIMSCALE
 40
1.0
  9
$DIMASZ
 40
2.5
  9
$DIMEXO
 40
0.625
  9
$DIMDLI
 40
3.75
  9
$DIMRND
 40
0.0
  9
$DIMDLE
 40
0.0
  9
$DIMEXE
 40
1.25
  9
$DIMTP
 40
0.0
  9
$DIMTM
 40
0.0
  9
$DIMTXT
 40
2.5
  9
$DIMCEN
 40
2.5
  9
$DIMTSZ
 40
0.0
  9
$DIMTOL
 70
0
  9
$DIMLIM
 70
0
  9
$DIMTIH
 70
0
  9
$DIMTOH
 70
0
  9
$DIMSE1
 70
0
  9
$DIMSE2
 70
0
  9
$DIMTAD
 70
1
  9
$DIMZIN
 70
8
  9
$DIMBLK
  1

  9
$DIMASO
 70
1
  9
$DIMSHO
 70
1
  9
$DIMPOST
  1

  9
$DIMAPOST
  1

  9
$DIMALT
 70
0
  9
$DIMALTD
 70
3
  9
$DIMALTF
 40
0.03937007874
  9
$DIMLFAC
 40
1.0
  9
$DIMTOFL
 70
1
  9
$DIMTVP
 40
0.0
  9
$DIMTIX
 70
0
  9
$DIMSOXD
 70
0
  9
$DIMSAH
 70
0
  9
$DIMBLK1
  1

  9
$DIMBLK2
  1

  9
$DIMSTYLE
  2
ISO-25
  9
$DIMCLRD
 70
0
  9
$DIMCLRE
 70
0
  9
$DIMCLRT
 70
0
  9
$DIMTFAC
 40
1.0
  9
$DIMGAP
 40
0.625
  9
$DIMJUST
 70
0
  9
$DIMSD1
 70
0
  9
$DIMSD2
 70
0
  9
$DIMTOLJ
 70
0
  9
$DIMTZIN
 70
8
  9
$DIMALTZ
 70
0
  9
$DIMALTTZ
 70
0
  9
$DIMUPT
 70
0
  9
$DIMDEC
 70
2
  9
$DIMTDEC
 70
2
  9
$DIMALTU
 70
2
  9
$DIMALTTD
 70
3
  9
$DIMTXSTY
  7
Standard
  9
$DIMAUNIT
 70
0
  9
$DIMADEC
 70
0
  9
$DIMALTRND
 40
0.0
  9
$DIMAZIN
 70
0
  9
$DIMDSEP
 70
44
  9
$DIMATFIT
 70
3
  9
$DIMFRAC
 70
0
  9
$DIMLDRBLK
  1

  9
$DIMLUNIT
 70
2
  9
$DIMLWD
 70
-2
  9
$DIMLWE
 70
-2
  9
$DIMTMOVE
 70
0
  9
$DIMFXL
 40
1.0
  9
$DIMFXLON
 70
0
  9
$DIMJOGANG
 40
0.785398163397
  9
$DIMTFILL
 70
0
  9
$DIMTFILLCLR
 70
0
  9
$DIMARCSYM
 70
0
  9
$DIMLTYPE
  6

  9
$DIMLTEX1
  6

  9
$DIMLTEX2
  6

  9
$DIMTXTDIRECTION
 70
0
  9
$LUNITS
 70
2
  9
$LUPREC
 70
4
  9
$SKETCHINC
 40
1.0
  9
$FILLETRAD
 40
10.0
  9
$AUNITS
 70
0
  9
$AUPREC
 70
2
  9
$MENU
  1
.
  9
$ELEVATION
 40
0.0
  9
$PELEVATION
 40
0.0
  9
$THICKNESS
 40
0.0
  9
$LIMCHECK
 70
0
  9
$CHAMFERA
 40
0.0
  9
$CHAMFERB
 40
0.0
  9
$CHAMFERC
 40
0.0
  9
$CHAMFERD
 40
0.0
  9
$SKPOLY
 70
0
  9
$TDCREATE
 40
2461320.088414352
  9
$TDUCREATE
 40
2458532.153996898
  9
$TDUPDATE
 40
2461320.088414352
  9
$TDUUPDATE
 40
2458532.1544311
  9
$TDINDWG
 40
0.0
  9
$TDUSRTIMER
 40
0.0
  9
$USRTIMER
 70
1
  9
$ANGBASE
 50
0.0
  9
$ANGDIR
 70
0
  9
$PDMODE
 70
0
  9
$PDSIZE
 40
0.0
  9
$PLINEWID
 40
0.0
  9
$SPLFRAME
 70
0
  9
$SPLINETYPE
 70
6
  9
$SPLINESEGS
 70
8
  9
$HANDSEED
  5
15F
  9
$SURFTAB1
 70
6
  9
$SURFTAB2
 70
6
  9
$SURFTYPE
 70
6
  9
$SURFU
 70
6
  9
$SURFV
 70
6
  9
$UCSBASE
  2

  9
$UCSNAME
  2

  9
$UCSORG
 10
0.0
 20
0.0
 30
0.0
  9
$UCSXDIR
 10
1.0
 20
0.0
 30
0.0
  9
$UCSYDIR
 10
0.0
 20
1.0
 30
0.0
  9
$UCSORTHOREF
  2

  9
$UCSORTHOVIEW
 70
0
  9
$UCSORGTOP
 10
0.0
 20
0.0
 30
0.0
  9
$UCSORGBOTTOM
 10
0.0
 20
0.0
 30
0.0
  9
$UCSORGLEFT
 10
0.0
 20
0.0
 30
0.0
  9
$UCSORGRIGHT
 10
0.0
 20
0.0
 30
0.0
  9
$UCSORGFRONT
 10
0.0
 20
0.0
 30
0.0
  9
$UCSORGBACK
 10
0.0
 20
0.0
 30
0.0
  9
$PUCSBASE
  2

  9
$PUCSNAME
  2

  9
$PUCSORG
 10
0.0
 20
0.0
 30
0.0
  9
$PUCSXDIR
 10
1.0
 20
0.0
 30
0.0
  9
$PUCSYDIR
 10
0.0
 20
1.0
 30
0.0
  9
$PUCSORTHOREF
  2

  9
$PUCSORTHOVIEW
 70
0
  9
$PUCSORGTOP
 10
0.0
 20
0.0
 30
0.0
  9
$PUCSORGBOTTOM
 10
0.0
 20
0.0
 30
0.0
  9
$PUCSORGLEFT
 10
0.0
 20
0.0
 30
0.0
  9
$PUCSORGRIGHT
 10
0.0
 20
0.0
 30
0.0
  9
$PUCSORGFRONT
 10
0.0
 20
0.0
 30
0.0
  9
$PUCSORGBACK
 10
0.0
 20
0.0
 30
0.0
  9
$USERI1
 70
0
  9
$USERI2
 70
0
  9
$USERI3
 70
0
  9
$USERI4
 70
0
  9
$USERI5
 70
0
  9
$USERR1
 40
0.0
  9
$USERR2
 40
0.0
  9
$USERR3
 40
0.0
  9
$USERR4
 40
0.0
  9
$USERR5
 40
0.0
  9
$WORLDVIEW
 70
1
  9
$SHADEDGE
 70
3
  9
$SHADEDIF
 70
70
  9
$TILEMODE
 70
1
  9
$MAXACTVP
 70
64
  9
$PINSBASE
 10
0.0
 20
0.0
 30
0.0
  9
$PLIMCHECK
 70
0
  9
$PEXTMIN
 10
1e+20
 20
1e+20
 30
1e+20
  9
$PEXTMAX
 10
-1e+20
 20
-1e+20
 30
-1e+20
  9
$PLIMMIN
 10
-0.0
 20
-0.0
  9
$PLIMMAX
 10
420.0
 20
297.0
  9
$UNITMODE
 70
0
  9
$VISRETAIN
 70
1
  9
$PLINEGEN
 70
0
  9
$PSLTSCALE
 70
0
  9
$TREEDEPTH
 70
3020
  9
$CMLSTYLE
  2
Standard
  9
$CMLJUST
 70
0
  9
$CMLSCALE
 40
20.0
  9
$PROXYGRAPHICS
 70
1
  9
$MEASUREMENT
 70
1
  9
$CELWEIGHT
370
-1
  9
$ENDCAPS
280
0
  9
$JOINSTYLE
280
0
  9
$LWDISPLAY
290
1
  9
$INSUNITS
 70
4
  9
$HYPERLINKBASE
  1

  9
$STYLESHEET
  1

  9
$XEDIT
290
1
  9
$CEPSNTYPE
380
0
  9
$PSTYLEMODE
290
1
  9
$FINGERPRINTGUID
  2
{E89B60EB-3C16-4098-8553-5F6992FC8990}
  9
$VERSIONGUID
  2
{00372EAA-442D-4277-8C85-D784A3A5A531}
  9
$EXTNAMES
290
1
  9
$PSVPSCALE
 40
0.0
  9
$OLESTARTUP
290
0
  9
$SORTENTS
280
127
  9
$INDEXCTL
280
0
  9
$HIDETEXT
280
1
  9
$XCLIPFRAME
280
1
  9
$HALOGAP
280
0
  9
$OBSCOLOR
 70
257
  9
$OBSLTYPE
280
0
  9
$INTERSECTIONDISPLAY
280
0
  9
$INTERSECTIONCOLOR
 70
257
  9
$DIMASSOC
280
2
  9
$PROJECTNAME
  1

  9
$CAMERADISPLAY
290
0
  9
$LENSLENGTH
 40
50.0
  9
$CAMERAHEIGHT
 40
0.0
  9
$STEPSPERSEC
 40
24.0
  9
$STEPSIZE
 40
100.0
  9
$3DDWFPREC
 40
2.0
  9
$PSOLWIDTH
 40
0.005
  9
$PSOLHEIGHT
 40
0.08
  9
$LOFTANG1
 40
1.570796326795
  9
$LOFTANG2
 40
1.570796326795
  9
$LOFTMAG1
 40
0.0
  9
$LOFTMAG2
 40
0.0
  9
$LOFTPARAM
 70
7
  9
$LOFTNORMALS
280
1
  9
$LATITUDE
 40
37.795
  9
$LONGITUDE
 40
-122.394
  9
$NORTHDIRECTION
 40
0.0
  9
$TIMEZONE
 70
-8000
  9
$LIGHTGLYPHDISPLAY
280
1
  9
$TILEMODELIGHTSYNCH
280
1
  9
$CMATERIAL
347
20
  9
$SOLIDHIST
280
0
  9
$SHOWHIST
280
1
  9
$DWFFRAME
280
2
  9
$DGNFRAME
280
2
  9
$REALWORLDSCALE
290
1
  9
$INTERFERECOLOR
 62
256
  9
$CSHADOW
280
0
  9
$SHADOWPLANELOCATION
 40
0.0
  0
ENDSEC
  0
SECTION
  2
CLASSES
  0
CLASS
  1
ACDBDICTIONARYWDFLT
  2
AcDbDictionaryWithDefault
  3
ObjectDBX Classes
 90
0
 91
0
280
0
281
0
  0
CLASS
  1
SUN
  2
AcDbSun
  3
SCENEOE
 90
1153
 91
0
280
0
281
0
  0
CLASS
  1
VISUALSTYLE
  2
AcDbVisualStyle
  3
ObjectDBX Classes
 90
4095
 91
0
280
0
281
0
  0
CLASS
  1
MATERIAL
  2
AcDbMaterial
  3
ObjectDBX Classes
 90
1153
 91
0
280
0
281
0
  0
CLASS
  1
SCALE
  2
AcDbScale
  3
ObjectDBX Classes
 90
1153
 91
0
280
0
281
0
  0
CLASS
  1
TABLESTYLE
  2
AcDbTableStyle
  3
ObjectDBX Classes
 90
4095
 91
0
280
0
281
0
  0
CLASS
  1
MLEADERSTYLE
  2
AcDbMLeaderStyle
  3
ACDB_MLEADERSTYLE_CLASS
 90
4095
 91
0
280
0
281
0
  0
CLASS
  1
DICTIONARYVAR
  2
AcDbDictionaryVar
  3
ObjectDBX Classes
 90
0
 91
0
280
0
281
0
  0
CLASS
  1
CELLSTYLEMAP
  2
AcDbCellStyleMap
  3
ObjectDBX Classes
 90
1152
 91
0
280
0
281
0
  0
CLASS
  1
MENTALRAYRENDERSETTINGS
  2
AcDbMentalRayRenderSettings
  3
SCENEOE
 90
1024
 91
0
280
0
281
0
  0
CLASS
  1
ACDBDETAILVIEWSTYLE
  2
AcDbDetailViewStyle
  3
ObjectDBX Classes
 90
1025
 91
0
280
0
281
0
  0
CLASS
  1
ACDBSECTIONVIEWSTYLE
  2
AcDbSectionViewStyle
  3
ObjectDBX Classes
 90
1025
 91
0
280
0
281
0
  0
CLASS
  1
RASTERVARIABLES
  2
AcDbRasterVariables
  3
ISM
 90
0
 91
0
280
0
281
0
  0
CLASS
  1
LAYOUT
  2
AcDbLayout
  3
ObjectDBX Classes
 90
0
 91
0
280
0
281
0
  0
CLASS
  1
ACDBPLACEHOLDER
  2
AcDbPlaceHolder
  3
ObjectDBX Classes
 90
0
 91
0
280
0
281
0
  0
ENDSEC
  0
SECTION
  2
TABLES
  0
TABLE
  2
VPORT
  5
8
330
0
100
AcDbSymbolTable
 70
1
  0
VPORT
  5
23
330
8
100
AcDbSymbolTableRecord
100
AcDbViewportTableRecord
  2
*Active
 70
0
 10
0.0
 20
0.0
 11
1.0
 21
1.0
 12
0.0
 22
0.0
 13
0.0
 23
0.0
 14
0.5
 24
0.5
 15
0.5
 25
0.5
 16
0.0
 26
0.0
 36
1.0
 17
0.0
 27
0.0
 37
0.0
 40
1000.0
 41
1.34
 42
50.0
 43
0.0
 44
0.0
 50
0.0
 51
0.0
 71
0
 72
1000
 73
1
 74
3
 75
0
 76
0
 77
0
 78
0
281
0
 65
0
146
0.0
  0
ENDTAB
  0
TABLE
  2
LTYPE
  5
2
330
0
100
AcDbSymbolTable
 70
5
  0
LTYPE
  5
24
330
2
100
AcDbSymbolTableRecord
100
AcDbLinetypeTableRecord
  2
ByBlock
 70
0
  3

 72
65
 73
0
 40
0.0
  0
LTYPE
  5
25
330
2
100
AcDbSymbolTableRecord
100
AcDbLinetypeTableRecord
  2
ByLayer
 70
0
  3

 72
65
 73
0
 40
0.0
  0
LTYPE
  5
26
330
2
100
AcDbSymbolTableRecord
100
AcDbLinetypeTableRecord
  2
Continuous
 70
0
  3

 72
65
 73
0
 40
0.0
  0
LTYPE
  5
2F
330
2
100
AcDbSymbolTableRecord
100
AcDbLinetypeTableRecord
  2
IRAM-E-TRAZOS
 70
0
  3
IRAM 4502 E - trazos __ __ __
 72
65
 73
2
 40
5.0
 49
4.0
 74
0
 49
-1.0
 74
0
  0
LTYPE
  5
30
330
2
100
AcDbSymbolTableRecord
100
AcDbLinetypeTableRecord
  2
IRAM-F-TRAZO-PUNTO
 70
0
  3
IRAM 4502 F - trazo largo y trazo corto ____ _ ____
 72
65
 73
4
 40
20.0
 49
15.0
 74
0
 49
-2.0
 74
0
 49
1.0
 74
0
 49
-2.0
 74
0
  0
ENDTAB
  0
TABLE
  2
LAYER
  5
1
330
0
100
AcDbSymbolTable
 70
14
  0
LAYER
  5
27
330
1
100
AcDbSymbolTableRecord
100
AcDbLayerTableRecord
  2
0
 70
0
 62
7
  6
Continuous
370
-3
390
13
347
21
  0
LAYER
  5
28
330
1
100
AcDbSymbolTableRecord
100
AcDbLayerTableRecord
  2
Defpoints
 70
0
 62
7
  6
Continuous
290
0
370
-3
390
13
347
21
  0
LAYER
  5
31
330
1
100
AcDbSymbolTableRecord
100
AcDbLayerTableRecord
  2
01-VISIBLE
 70
0
 62
7
  6
CONTINUOUS
370
70
390
13
347
21
1001
AcAecLayerStandard
1000

1000
A continua gruesa: contornos y aristas visibles
  0
LAYER
  5
33
330
1
100
AcDbSymbolTableRecord
100
AcDbLayerTableRecord
  2
02-OCULTA
 70
0
 62
4
  6
IRAM-E-TRAZOS
370
35
390
13
347
21
1001
AcAecLayerStandard
1000

1000
E de trazos media: contornos y aristas ocultos
  0
LAYER
  5
34
330
1
100
AcDbSymbolTableRecord
100
AcDbLayerTableRecord
  2
03-EJE
 70
0
 62
1
  6
IRAM-F-TRAZO-PUNTO
370
18
390
13
347
21
1001
AcAecLayerStandard
1000

1000
F trazo largo y corto fina: ejes, simetrías, trayectorias
  0
LAYER
  5
35
330
1
100
AcDbSymbolTableRecord
100
AcDbLayerTableRecord
  2
04-COTA
 70
0
 62
3
  6
CONTINUOUS
370
18
390
13
347
21
1001
AcAecLayerStandard
1000

1000
B continua fina: líneas de cota y auxiliares
  0
LAYER
  5
36
330
1
100
AcDbSymbolTableRecord
100
AcDbLayerTableRecord
  2
05-RAYADO
 70
0
 62
8
  6
CONTINUOUS
370
18
390
13
347
21
1001
AcAecLayerStandard
1000

1000
B continua fina: rayados IRAM 4509
  0
LAYER
  5
37
330
1
100
AcDbSymbolTableRecord
100
AcDbLayerTableRecord
  2
06-TEXTO
 70
0
 62
7
  6
CONTINUOUS
370
25
390
13
347
21
1001
AcAecLayerStandard
1000

1000
Escritura IRAM 4503 tipo B (trazo h/10)
  0
LAYER
  5
38
330
1
100
AcDbSymbolTableRecord
100
AcDbLayerTableRecord
  2
07-RECUADRO
 70
0
 62
7
  6
CONTINUOUS
370
70
390
13
347
21
1001
AcAecLayerStandard
1000

1000
Recuadro IRAM 4504
  0
LAYER
  5
39
330
1
100
AcDbSymbolTableRecord
100
AcDbLayerTableRecord
  2
08-FINA
 70
0
 62
5
  6
CONTINUOUS
370
18
390
13
347
21
1001
AcAecLayerStandard
1000

1000
B continua fina: referencias, fondos de rosca, contornos de detalle
  0
LAYER
  5
3A
330
1
100
AcDbSymbolTableRecord
100
AcDbLayerTableRecord
  2
09-PLANO-CORTE
 70
0
 62
1
  6
IRAM-F-TRAZO-PUNTO
370
18
390
13
347
21
1001
AcAecLayerStandard
1000

1000
G trazo largo y corto fina con extremos gruesos: planos de corte
  0
LAYER
  5
3B
330
1
100
AcDbSymbolTableRecord
100
AcDbLayerTableRecord
  2
10-ROTULO
 70
0
 62
7
  6
CONTINUOUS
370
35
390
13
347
21
1001
AcAecLayerStandard
1000

1000
Rótulo y lista de materiales IRAM 4508
  0
LAYER
  5
3C
330
1
100
AcDbSymbolTableRecord
100
AcDbLayerTableRecord
  2
11-TEXTO-ROTULO
 70
0
 62
7
  6
CONTINUOUS
370
25
390
13
347
21
1001
AcAecLayerStandard
1000

1000
Escritura del rótulo
  0
LAYER
  5
3D
330
1
100
AcDbSymbolTableRecord
100
AcDbLayerTableRecord
  2
12-SOLDADURA
 70
0
 62
6
  6
CONTINUOUS
370
18
390
13
347
21
1001
AcAecLayerStandard
1000

1000
Símbolos de soldadura
  0
ENDTAB
  0
TABLE
  2
STYLE
  5
5
330
0
100
AcDbSymbolTable
 70
2
  0
STYLE
  5
29
330
5
100
AcDbSymbolTableRecord
100
AcDbTextStyleTableRecord
  2
Standard
 70
0
 40
0.0
 41
1.0
 50
0.0
 71
0
 42
2.5
  3
txt
  4

  0
STYLE
  5
3E
330
5
100
AcDbSymbolTableRecord
100
AcDbTextStyleTableRecord
  2
ISO3098
 70
0
 40
0.0
 41
1.0
 50
0.0
 71
0
 42
2.5
  3
isocpeur.ttf
  4

  0
ENDTAB
  0
TABLE
  2
VIEW
  5
7
330
0
100
AcDbSymbolTable
 70
0
  0
ENDTAB
  0
TABLE
  2
UCS
  5
6
330
0
100
AcDbSymbolTable
 70
0
  0
ENDTAB
  0
TABLE
  2
APPID
  5
3
330
0
100
AcDbSymbolTable
 70
4
  0
APPID
  5
2A
330
3
100
AcDbSymbolTableRecord
100
AcDbRegAppTableRecord
  2
ACAD
 70
0
  0
APPID
  5
32
330
3
100
AcDbSymbolTableRecord
100
AcDbRegAppTableRecord
  2
AcAecLayerStandard
 70
0
  0
APPID
  5
15C
330
3
100
AcDbSymbolTableRecord
100
AcDbRegAppTableRecord
  2
HATCHBACKGROUNDCOLOR
 70
0
  0
APPID
  5
15D
330
3
100
AcDbSymbolTableRecord
100
AcDbRegAppTableRecord
  2
EZDXF
 70
0
  0
ENDTAB
  0
TABLE
  2
DIMSTYLE
  5
4
330
0
100
AcDbSymbolTable
 70
2
100
AcDbDimStyleTable
  0
DIMSTYLE
105
2B
330
4
100
AcDbSymbolTableRecord
100
AcDbDimStyleTableRecord
  2
Standard
 70
0
 40
1.0
 41
2.5
 42
0.625
 43
3.75
 44
1.25
 45
0.0
 46
0.0
 47
0.0
 48
0.0
 49
2.5
140
2.5
141
2.5
142
0.0
143
0.03937007874
144
1.0
145
0.0
146
1.0
147
0.625
148
0.0
 69
0
 70
0
 71
0
 72
0
 73
0
 74
0
 75
0
 76
0
 77
1
 78
8
 79
3
170
0
171
3
172
1
173
0
174
0
175
0
176
0
177
0
178
0
179
2
271
2
272
2
273
2
274
3
275
0
276
0
277
2
278
44
279
0
280
0
281
0
282
0
283
0
284
8
285
0
286
0
288
0
289
3
290
0
371
-2
372
-2
  0
DIMSTYLE
105
43
330
4
100
AcDbSymbolTableRecord
100
AcDbDimStyleTableRecord
  2
FLAMA-IRAM
 70
0
 40
1.0
 41
3.5
 42
1.5
 43
3.75
 44
2.0
 45
0.0
 46
0.0
 47
0.0
 48
0.0
 49
2.5
140
3.5
141
2.5
142
0.0
143
0.03937007874
144
1.0
145
0.0
146
1.0
147
1.0
148
0.0
 69
0
 70
0
 71
0
 72
0
 73
0
 74
0
 75
0
 76
0
 77
1
 78
8
 79
3
170
0
171
3
172
1
173
0
174
0
175
0
176
7
177
7
178
7
179
2
271
1
272
2
273
2
274
3
275
0
276
0
277
2
278
44
279
0
280
0
281
0
282
0
283
0
284
8
285
0
286
0
288
0
289
3
290
0
340
3E
342
3F
343
3F
344
3F
371
18
372
18
  0
ENDTAB
  0
TABLE
  2
BLOCK_RECORD
  5
9
330
0
100
AcDbSymbolTable
 70
10
  0
BLOCK_RECORD
  5
17
330
9
100
AcDbSymbolTableRecord
100
AcDbBlockTableRecord
  2
*Model_Space
340
1A
 70
0
280
1
281
0
  0
BLOCK_RECORD
  5
3F
330
9
100
AcDbSymbolTableRecord
100
AcDbBlockTableRecord
  2
IRAM_FLECHA
340
0
 70
0
280
1
281
0
  0
BLOCK_RECORD
  5
C7
330
9
100
AcDbSymbolTableRecord
100
AcDbBlockTableRecord
  2
*D1
340
0
 70
0
280
1
281
0
  0
BLOCK_RECORD
  5
D6
330
9
100
AcDbSymbolTableRecord
100
AcDbBlockTableRecord
  2
*D2
340
0
 70
0
280
1
281
0
  0
BLOCK_RECORD
  5
FB
330
9
100
AcDbSymbolTableRecord
100
AcDbBlockTableRecord
  2
*D3
340
0
 70
0
280
1
281
0
  0
BLOCK_RECORD
  5
10A
330
9
100
AcDbSymbolTableRecord
100
AcDbBlockTableRecord
  2
*D4
340
0
 70
0
280
1
281
0
  0
BLOCK_RECORD
  5
119
330
9
100
AcDbSymbolTableRecord
100
AcDbBlockTableRecord
  2
*D5
340
0
 70
0
280
1
281
0
  0
BLOCK_RECORD
  5
12E
330
9
100
AcDbSymbolTableRecord
100
AcDbBlockTableRecord
  2
*D6
340
0
 70
0
280
1
281
0
  0
BLOCK_RECORD
  5
13D
330
9
100
AcDbSymbolTableRecord
100
AcDbBlockTableRecord
  2
*D7
340
0
 70
0
280
1
281
0
  0
BLOCK_RECORD
  5
156
330
9
100
AcDbSymbolTableRecord
100
AcDbBlockTableRecord
  2
*Paper_Space
340
159
 70
0
280
1
281
0
  0
ENDTAB
  0
ENDSEC
  0
SECTION
  2
BLOCKS
  0
BLOCK
  5
18
330
17
100
AcDbEntity
  8
0
100
AcDbBlockBegin
  2
*Model_Space
 70
0
 10
0.0
 20
0.0
 30
0.0
  3
*Model_Space
  1

  0
ENDBLK
  5
19
330
17
100
AcDbEntity
  8
0
100
AcDbBlockEnd
  0
BLOCK
  5
40
330
3F
100
AcDbEntity
  8
0
100
AcDbBlockBegin
  2
IRAM_FLECHA
 70
0
 10
0.0
 20
0.0
 30
0.0
  3
IRAM_FLECHA
  1

  0
SOLID
  5
42
330
3F
100
AcDbEntity
  8
0
100
AcDbTrace
 10
0.0
 20
0.0
 30
0.0
 11
-1.0
 21
0.125
 31
0.0
 12
-1.0
 22
-0.125
 32
0.0
 13
-1.0
 23
-0.125
 33
0.0
  0
ENDBLK
  5
41
330
3F
100
AcDbEntity
  8
0
100
AcDbBlockEnd
  0
BLOCK
  5
C8
330
C7
100
AcDbEntity
  8
0
100
AcDbBlockBegin
  2
*D1
 70
1
 10
0.0
 20
0.0
 30
0.0
  3
*D1
  1

  0
LINE
  5
CA
330
C7
100
AcDbEntity
  8
0
 62
7
370
18
100
AcDbLine
 10
37.0
 20
266.5
 30
0.0
 11
37.0
 21
274.0
 31
0.0
  0
LINE
  5
CB
330
C7
100
AcDbEntity
  8
0
 62
7
370
18
100
AcDbLine
 10
137.0
 20
266.5
 30
0.0
 11
137.0
 21
274.0
 31
0.0
  0
INSERT
  5
CC
330
C7
100
AcDbEntity
  8
04-COTA
 62
7
100
AcDbBlockReference
  2
IRAM_FLECHA
 10
37.0
 20
272.0
 30
0.0
 41
3.5
 42
3.5
 50
180.0
  0
INSERT
  5
CE
330
C7
100
AcDbEntity
  8
04-COTA
 62
7
100
AcDbBlockReference
  2
IRAM_FLECHA
 10
137.0
 20
272.0
 30
0.0
 41
3.5
 42
3.5
  0
LINE
  5
D0
330
C7
100
AcDbEntity
  8
0
 62
7
370
18
100
AcDbLine
 10
40.5
 20
272.0
 30
0.0
 11
133.5
 21
272.0
 31
0.0
  0
MTEXT
  5
D1
330
C7
100
AcDbEntity
  8
04-COTA
 62
7
100
AcDbMText
 10
87.0
 20
274.75
 30
0.0
 40
3.5
 71
5
  1
50
  7
ISO3098
  0
POINT
  5
D2
330
C7
100
AcDbEntity
  8
Defpoints
100
AcDbPoint
 10
37.0
 20
272.0
 30
0.0
  0
POINT
  5
D3
330
C7
100
AcDbEntity
  8
Defpoints
100
AcDbPoint
 10
37.0
 20
265.0
 30
0.0
  0
POINT
  5
D4
330
C7
100
AcDbEntity
  8
Defpoints
100
AcDbPoint
 10
137.0
 20
265.0
 30
0.0
  0
ENDBLK
  5
C9
330
C7
100
AcDbEntity
  8
0
100
AcDbBlockEnd
  0
BLOCK
  5
D7
330
D6
100
AcDbEntity
  8
0
100
AcDbBlockBegin
  2
*D2
 70
1
 10
0.0
 20
0.0
 30
0.0
  3
*D2
  1

  0
LINE
  5
D9
330
D6
100
AcDbEntity
  8
0
 62
7
370
18
100
AcDbLine
 10
138.5
 20
195.0
 30
0.0
 11
146.0
 21
195.0
 31
0.0
  0
LINE
  5
DA
330
D6
100
AcDbEntity
  8
0
 62
7
370
18
100
AcDbLine
 10
138.5
 20
265.0
 30
0.0
 11
146.0
 21
265.0
 31
0.0
  0
INSERT
  5
DB
330
D6
100
AcDbEntity
  8
04-COTA
 62
7
100
AcDbBlockReference
  2
IRAM_FLECHA
 10
144.0
 20
195.0
 30
0.0
 41
3.5
 42
3.5
 50
270.0
  0
INSERT
  5
DD
330
D6
100
AcDbEntity
  8
04-COTA
 62
7
100
AcDbBlockReference
  2
IRAM_FLECHA
 10
144.0
 20
265.0
 30
0.0
 41
3.5
 42
3.5
 50
90.0
  0
LINE
  5
DF
330
D6
100
AcDbEntity
  8
0
 62
7
370
18
100
AcDbLine
 10
144.0
 20
198.5
 30
0.0
 11
144.0
 21
261.5
 31
0.0
  0
MTEXT
  5
E0
330
D6
100
AcDbEntity
  8
04-COTA
 62
7
100
AcDbMText
 10
141.25
 20
230.0
 30
0.0
 40
3.5
 71
5
  1
35
  7
ISO3098
 50
90.0
  0
POINT
  5
E1
330
D6
100
AcDbEntity
  8
Defpoints
100
AcDbPoint
 10
144.0
 20
195.0
 30
0.0
  0
POINT
  5
E2
330
D6
100
AcDbEntity
  8
Defpoints
100
AcDbPoint
 10
137.0
 20
195.0
 30
0.0
  0
POINT
  5
E3
330
D6
100
AcDbEntity
  8
Defpoints
100
AcDbPoint
 10
137.0
 20
265.0
 30
0.0
  0
ENDBLK
  5
D8
330
D6
100
AcDbEntity
  8
0
100
AcDbBlockEnd
  0
BLOCK
  5
FC
330
FB
100
AcDbEntity
  8
0
100
AcDbBlockBegin
  2
*D3
 70
1
 10
0.0
 20
0.0
 30
0.0
  3
*D3
  1

  0
LINE
  5
FE
330
FB
100
AcDbEntity
  8
0
 62
7
370
18
100
AcDbLine
 10
37.0
 20
156.5
 30
0.0
 11
37.0
 21
164.0
 31
0.0
  0
LINE
  5
FF
330
FB
100
AcDbEntity
  8
0
 62
7
370
18
100
AcDbLine
 10
92.0
 20
156.5
 30
0.0
 11
92.0
 21
164.0
 31
0.0
  0
INSERT
  5
100
330
FB
100
AcDbEntity
  8
04-COTA
 62
7
100
AcDbBlockReference
  2
IRAM_FLECHA
 10
37.0
 20
162.0
 30
0.0
 41
3.5
 42
3.5
 50
180.0
  0
INSERT
  5
102
330
FB
100
AcDbEntity
  8
04-COTA
 62
7
100
AcDbBlockReference
  2
IRAM_FLECHA
 10
92.0
 20
162.0
 30
0.0
 41
3.5
 42
3.5
  0
LINE
  5
104
330
FB
100
AcDbEntity
  8
0
 62
7
370
18
100
AcDbLine
 10
40.5
 20
162.0
 30
0.0
 11
88.5
 21
162.0
 31
0.0
  0
MTEXT
  5
105
330
FB
100
AcDbEntity
  8
04-COTA
 62
7
100
AcDbMText
 10
64.5
 20
164.75
 30
0.0
 40
3.5
 71
5
  1
110
  7
ISO3098
  0
POINT
  5
106
330
FB
100
AcDbEntity
  8
Defpoints
100
AcDbPoint
 10
37.0
 20
162.0
 30
0.0
  0
POINT
  5
107
330
FB
100
AcDbEntity
  8
Defpoints
100
AcDbPoint
 10
37.0
 20
155.0
 30
0.0
  0
POINT
  5
108
330
FB
100
AcDbEntity
  8
Defpoints
100
AcDbPoint
 10
92.0
 20
155.0
 30
0.0
  0
ENDBLK
  5
FD
330
FB
100
AcDbEntity
  8
0
100
AcDbBlockEnd
  0
BLOCK
  5
10B
330
10A
100
AcDbEntity
  8
0
100
AcDbBlockBegin
  2
*D4
 70
1
 10
0.0
 20
0.0
 30
0.0
  3
*D4
  1

  0
LINE
  5
10D
330
10A
100
AcDbEntity
  8
0
 62
7
370
18
100
AcDbLine
 10
93.5
 20
80.0
 30
0.0
 11
101.0
 21
80.0
 31
0.0
  0
LINE
  5
10E
330
10A
100
AcDbEntity
  8
0
 62
7
370
18
100
AcDbLine
 10
93.5
 20
95.0
 30
0.0
 11
101.0
 21
95.0
 31
0.0
  0
INSERT
  5
10F
330
10A
100
AcDbEntity
  8
04-COTA
 62
7
100
AcDbBlockReference
  2
IRAM_FLECHA
 10
99.0
 20
80.0
 30
0.0
 41
3.5
 42
3.5
 50
270.0
  0
INSERT
  5
111
330
10A
100
AcDbEntity
  8
04-COTA
 62
7
100
AcDbBlockReference
  2
IRAM_FLECHA
 10
99.0
 20
95.0
 30
0.0
 41
3.5
 42
3.5
 50
90.0
  0
LINE
  5
113
330
10A
100
AcDbEntity
  8
0
 62
7
370
18
100
AcDbLine
 10
99.0
 20
83.5
 30
0.0
 11
99.0
 21
91.5
 31
0.0
  0
MTEXT
  5
114
330
10A
100
AcDbEntity
  8
04-COTA
 62
7
100
AcDbMText
 10
96.25
 20
87.5
 30
0.0
 40
3.5
 71
5
  1
30
  7
ISO3098
 50
90.0
  0
POINT
  5
115
330
10A
100
AcDbEntity
  8
Defpoints
100
AcDbPoint
 10
99.0
 20
80.0
 30
0.0
  0
POINT
  5
116
330
10A
100
AcDbEntity
  8
Defpoints
100
AcDbPoint
 10
92.0
 20
80.0
 30
0.0
  0
POINT
  5
117
330
10A
100
AcDbEntity
  8
Defpoints
100
AcDbPoint
 10
92.0
 20
95.0
 30
0.0
  0
ENDBLK
  5
10C
330
10A
100
AcDbEntity
  8
0
100
AcDbBlockEnd
  0
BLOCK
  5
11A
330
119
100
AcDbEntity
  8
0
100
AcDbBlockBegin
  2
*D5
 70
1
 10
0.0
 20
0.0
 30
0.0
  3
*D5
  1

  0
LINE
  5
11C
330
119
100
AcDbEntity
  8
0
 62
7
370
18
100
AcDbLine
 10
93.5
 20
95.0
 30
0.0
 11
101.0
 21
95.0
 31
0.0
  0
LINE
  5
11D
330
119
100
AcDbEntity
  8
0
 62
7
370
18
100
AcDbLine
 10
93.5
 20
155.0
 30
0.0
 11
101.0
 21
155.0
 31
0.0
  0
INSERT
  5
11E
330
119
100
AcDbEntity
  8
04-COTA
 62
7
100
AcDbBlockReference
  2
IRAM_FLECHA
 10
99.0
 20
95.0
 30
0.0
 41
3.5
 42
3.5
 50
270.0
  0
INSERT
  5
120
330
119
100
AcDbEntity
  8
04-COTA
 62
7
100
AcDbBlockReference
  2
IRAM_FLECHA
 10
99.0
 20
155.0
 30
0.0
 41
3.5
 42
3.5
 50
90.0
  0
LINE
  5
122
330
119
100
AcDbEntity
  8
0
 62
7
370
18
100
AcDbLine
 10
99.0
 20
98.5
 30
0.0
 11
99.0
 21
151.5
 31
0.0
  0
MTEXT
  5
123
330
119
100
AcDbEntity
  8
04-COTA
 62
7
100
AcDbMText
 10
96.25
 20
125.0
 30
0.0
 40
3.5
 71
5
  1
120
  7
ISO3098
 50
90.0
  0
POINT
  5
124
330
119
100
AcDbEntity
  8
Defpoints
100
AcDbPoint
 10
99.0
 20
95.0
 30
0.0
  0
POINT
  5
125
330
119
100
AcDbEntity
  8
Defpoints
100
AcDbPoint
 10
92.0
 20
95.0
 30
0.0
  0
POINT
  5
126
330
119
100
AcDbEntity
  8
Defpoints
100
AcDbPoint
 10
92.0
 20
155.0
 30
0.0
  0
ENDBLK
  5
11B
330
119
100
AcDbEntity
  8
0
100
AcDbBlockEnd
  0
BLOCK
  5
12F
330
12E
100
AcDbEntity
  8
0
100
AcDbBlockBegin
  2
*D6
 70
1
 10
0.0
 20
0.0
 30
0.0
  3
*D6
  1

  0
LINE
  5
131
330
12E
100
AcDbEntity
  8
0
 62
7
370
18
100
AcDbLine
 10
127.0
 20
141.5
 30
0.0
 11
127.0
 21
149.0
 31
0.0
  0
LINE
  5
132
330
12E
100
AcDbEntity
  8
0
 62
7
370
18
100
AcDbLine
 10
187.0
 20
141.5
 30
0.0
 11
187.0
 21
149.0
 31
0.0
  0
INSERT
  5
133
330
12E
100
AcDbEntity
  8
04-COTA
 62
7
100
AcDbBlockReference
  2
IRAM_FLECHA
 10
127.0
 20
147.0
 30
0.0
 41
3.5
 42
3.5
 50
180.0
  0
INSERT
  5
135
330
12E
100
AcDbEntity
  8
04-COTA
 62
7
100
AcDbBlockReference
  2
IRAM_FLECHA
 10
187.0
 20
147.0
 30
0.0
 41
3.5
 42
3.5
  0
LINE
  5
137
330
12E
100
AcDbEntity
  8
0
 62
7
370
18
100
AcDbLine
 10
130.5
 20
147.0
 30
0.0
 11
183.5
 21
147.0
 31
0.0
  0
MTEXT
  5
138
330
12E
100
AcDbEntity
  8
04-COTA
 62
7
100
AcDbMText
 10
157.0
 20
149.75
 30
0.0
 40
3.5
 71
5
  1
≥ 30
  7
ISO3098
  0
POINT
  5
139
330
12E
100
AcDbEntity
  8
Defpoints
100
AcDbPoint
 10
127.0
 20
147.0
 30
0.0
  0
POINT
  5
13A
330
12E
100
AcDbEntity
  8
Defpoints
100
AcDbPoint
 10
127.0
 20
140.0
 30
0.0
  0
POINT
  5
13B
330
12E
100
AcDbEntity
  8
Defpoints
100
AcDbPoint
 10
187.0
 20
140.0
 30
0.0
  0
ENDBLK
  5
130
330
12E
100
AcDbEntity
  8
0
100
AcDbBlockEnd
  0
BLOCK
  5
13E
330
13D
100
AcDbEntity
  8
0
100
AcDbBlockBegin
  2
*D7
 70
1
 10
0.0
 20
0.0
 30
0.0
  3
*D7
  1

  0
LINE
  5
140
330
13D
100
AcDbEntity
  8
0
 62
7
370
18
100
AcDbLine
 10
188.5
 20
100.0
 30
0.0
 11
196.0
 21
100.0
 31
0.0
  0
LINE
  5
141
330
13D
100
AcDbEntity
  8
0
 62
7
370
18
100
AcDbLine
 10
188.5
 20
140.0
 30
0.0
 11
196.0
 21
140.0
 31
0.0
  0
INSERT
  5
142
330
13D
100
AcDbEntity
  8
04-COTA
 62
7
100
AcDbBlockReference
  2
IRAM_FLECHA
 10
194.0
 20
100.0
 30
0.0
 41
3.5
 42
3.5
 50
270.0
  0
INSERT
  5
144
330
13D
100
AcDbEntity
  8
04-COTA
 62
7
100
AcDbBlockReference
  2
IRAM_FLECHA
 10
194.0
 20
140.0
 30
0.0
 41
3.5
 42
3.5
 50
90.0
  0
LINE
  5
146
330
13D
100
AcDbEntity
  8
0
 62
7
370
18
100
AcDbLine
 10
194.0
 20
103.5
 30
0.0
 11
194.0
 21
136.5
 31
0.0
  0
MTEXT
  5
147
330
13D
100
AcDbEntity
  8
04-COTA
 62
7
100
AcDbMText
 10
191.25
 20
120.0
 30
0.0
 40
3.5
 71
5
  1
≥ 20
  7
ISO3098
 50
90.0
  0
POINT
  5
148
330
13D
100
AcDbEntity
  8
Defpoints
100
AcDbPoint
 10
194.0
 20
100.0
 30
0.0
  0
POINT
  5
149
330
13D
100
AcDbEntity
  8
Defpoints
100
AcDbPoint
 10
187.0
 20
100.0
 30
0.0
  0
POINT
  5
14A
330
13D
100
AcDbEntity
  8
Defpoints
100
AcDbPoint
 10
187.0
 20
140.0
 30
0.0
  0
ENDBLK
  5
13F
330
13D
100
AcDbEntity
  8
0
100
AcDbBlockEnd
  0
BLOCK
  5
157
330
156
100
AcDbEntity
  8
0
100
AcDbBlockBegin
  2
*Paper_Space
 70
0
 10
0.0
 20
0.0
 30
0.0
  3
*Paper_Space
  1

  0
ENDBLK
  5
158
330
156
100
AcDbEntity
  8
0
100
AcDbBlockEnd
  0
ENDSEC
  0
SECTION
  2
ENTITIES
  0
LWPOLYLINE
  5
44
330
17
100
AcDbEntity
  8
08-FINA
100
AcDbPolyline
 90
4
 70
1
 10
0.0
 20
0.0
 10
420.0
 20
0.0
 10
420.0
 20
297.0
 10
0.0
 20
297.0
  0
LWPOLYLINE
  5
45
330
17
100
AcDbEntity
  8
07-RECUADRO
100
AcDbPolyline
 90
4
 70
1
 10
25.0
 20
10.0
 10
410.0
 20
10.0
 10
410.0
 20
287.0
 10
25.0
 20
287.0
  0
LINE
  5
46
330
17
100
AcDbEntity
  8
07-RECUADRO
100
AcDbLine
 10
210.0
 20
0.0
 30
0.0
 11
210.0
 21
15.0
 31
0.0
  0
LINE
  5
47
330
17
100
AcDbEntity
  8
07-RECUADRO
100
AcDbLine
 10
210.0
 20
297.0
 30
0.0
 11
210.0
 21
282.0
 31
0.0
  0
LINE
  5
48
330
17
100
AcDbEntity
  8
07-RECUADRO
100
AcDbLine
 10
0.0
 20
148.5
 30
0.0
 11
30.0
 21
148.5
 31
0.0
  0
LINE
  5
49
330
17
100
AcDbEntity
  8
07-RECUADRO
100
AcDbLine
 10
420.0
 20
148.5
 30
0.0
 11
405.0
 21
148.5
 31
0.0
  0
LINE
  5
4A
330
17
100
AcDbEntity
  8
08-FINA
100
AcDbLine
 10
60.0
 20
10.0
 30
0.0
 11
60.0
 21
5.0
 31
0.0
  0
LINE
  5
4B
330
17
100
AcDbEntity
  8
08-FINA
100
AcDbLine
 10
60.0
 20
287.0
 30
0.0
 11
60.0
 21
292.0
 31
0.0
  0
LINE
  5
4C
330
17
100
AcDbEntity
  8
08-FINA
100
AcDbLine
 10
110.0
 20
10.0
 30
0.0
 11
110.0
 21
5.0
 31
0.0
  0
LINE
  5
4D
330
17
100
AcDbEntity
  8
08-FINA
100
AcDbLine
 10
110.0
 20
287.0
 30
0.0
 11
110.0
 21
292.0
 31
0.0
  0
LINE
  5
4E
330
17
100
AcDbEntity
  8
08-FINA
100
AcDbLine
 10
160.0
 20
10.0
 30
0.0
 11
160.0
 21
5.0
 31
0.0
  0
LINE
  5
4F
330
17
100
AcDbEntity
  8
08-FINA
100
AcDbLine
 10
160.0
 20
287.0
 30
0.0
 11
160.0
 21
292.0
 31
0.0
  0
LINE
  5
50
330
17
100
AcDbEntity
  8
08-FINA
100
AcDbLine
 10
260.0
 20
10.0
 30
0.0
 11
260.0
 21
5.0
 31
0.0
  0
LINE
  5
51
330
17
100
AcDbEntity
  8
08-FINA
100
AcDbLine
 10
260.0
 20
287.0
 30
0.0
 11
260.0
 21
292.0
 31
0.0
  0
LINE
  5
52
330
17
100
AcDbEntity
  8
08-FINA
100
AcDbLine
 10
310.0
 20
10.0
 30
0.0
 11
310.0
 21
5.0
 31
0.0
  0
LINE
  5
53
330
17
100
AcDbEntity
  8
08-FINA
100
AcDbLine
 10
310.0
 20
287.0
 30
0.0
 11
310.0
 21
292.0
 31
0.0
  0
LINE
  5
54
330
17
100
AcDbEntity
  8
08-FINA
100
AcDbLine
 10
360.0
 20
10.0
 30
0.0
 11
360.0
 21
5.0
 31
0.0
  0
LINE
  5
55
330
17
100
AcDbEntity
  8
08-FINA
100
AcDbLine
 10
360.0
 20
287.0
 30
0.0
 11
360.0
 21
292.0
 31
0.0
  0
LINE
  5
56
330
17
100
AcDbEntity
  8
08-FINA
100
AcDbLine
 10
25.0
 20
48.5
 30
0.0
 11
20.0
 21
48.5
 31
0.0
  0
LINE
  5
57
330
17
100
AcDbEntity
  8
08-FINA
100
AcDbLine
 10
410.0
 20
48.5
 30
0.0
 11
415.0
 21
48.5
 31
0.0
  0
LINE
  5
58
330
17
100
AcDbEntity
  8
08-FINA
100
AcDbLine
 10
25.0
 20
98.5
 30
0.0
 11
20.0
 21
98.5
 31
0.0
  0
LINE
  5
59
330
17
100
AcDbEntity
  8
08-FINA
100
AcDbLine
 10
410.0
 20
98.5
 30
0.0
 11
415.0
 21
98.5
 31
0.0
  0
LINE
  5
5A
330
17
100
AcDbEntity
  8
08-FINA
100
AcDbLine
 10
25.0
 20
198.5
 30
0.0
 11
20.0
 21
198.5
 31
0.0
  0
LINE
  5
5B
330
17
100
AcDbEntity
  8
08-FINA
100
AcDbLine
 10
410.0
 20
198.5
 30
0.0
 11
415.0
 21
198.5
 31
0.0
  0
LINE
  5
5C
330
17
100
AcDbEntity
  8
08-FINA
100
AcDbLine
 10
25.0
 20
248.5
 30
0.0
 11
20.0
 21
248.5
 31
0.0
  0
LINE
  5
5D
330
17
100
AcDbEntity
  8
08-FINA
100
AcDbLine
 10
410.0
 20
248.5
 30
0.0
 11
415.0
 21
248.5
 31
0.0
  0
TEXT
  5
5E
330
17
100
AcDbEntity
  8
06-TEXTO
100
AcDbText
 10
42.5
 20
5.0
 30
0.0
 40
3.5
  1
1
  7
ISO3098
 72
1
 11
42.5
 21
5.0
 31
0.0
100
AcDbText
 73
2
  0
TEXT
  5
5F
330
17
100
AcDbEntity
  8
06-TEXTO
100
AcDbText
 10
42.5
 20
292.0
 30
0.0
 40
3.5
  1
1
  7
ISO3098
 72
1
 11
42.5
 21
292.0
 31
0.0
100
AcDbText
 73
2
  0
TEXT
  5
60
330
17
100
AcDbEntity
  8
06-TEXTO
100
AcDbText
 10
85.0
 20
5.0
 30
0.0
 40
3.5
  1
2
  7
ISO3098
 72
1
 11
85.0
 21
5.0
 31
0.0
100
AcDbText
 73
2
  0
TEXT
  5
61
330
17
100
AcDbEntity
  8
06-TEXTO
100
AcDbText
 10
85.0
 20
292.0
 30
0.0
 40
3.5
  1
2
  7
ISO3098
 72
1
 11
85.0
 21
292.0
 31
0.0
100
AcDbText
 73
2
  0
TEXT
  5
62
330
17
100
AcDbEntity
  8
06-TEXTO
100
AcDbText
 10
135.0
 20
5.0
 30
0.0
 40
3.5
  1
3
  7
ISO3098
 72
1
 11
135.0
 21
5.0
 31
0.0
100
AcDbText
 73
2
  0
TEXT
  5
63
330
17
100
AcDbEntity
  8
06-TEXTO
100
AcDbText
 10
135.0
 20
292.0
 30
0.0
 40
3.5
  1
3
  7
ISO3098
 72
1
 11
135.0
 21
292.0
 31
0.0
100
AcDbText
 73
2
  0
TEXT
  5
64
330
17
100
AcDbEntity
  8
06-TEXTO
100
AcDbText
 10
185.0
 20
5.0
 30
0.0
 40
3.5
  1
4
  7
ISO3098
 72
1
 11
185.0
 21
5.0
 31
0.0
100
AcDbText
 73
2
  0
TEXT
  5
65
330
17
100
AcDbEntity
  8
06-TEXTO
100
AcDbText
 10
185.0
 20
292.0
 30
0.0
 40
3.5
  1
4
  7
ISO3098
 72
1
 11
185.0
 21
292.0
 31
0.0
100
AcDbText
 73
2
  0
TEXT
  5
66
330
17
100
AcDbEntity
  8
06-TEXTO
100
AcDbText
 10
235.0
 20
5.0
 30
0.0
 40
3.5
  1
5
  7
ISO3098
 72
1
 11
235.0
 21
5.0
 31
0.0
100
AcDbText
 73
2
  0
TEXT
  5
67
330
17
100
AcDbEntity
  8
06-TEXTO
100
AcDbText
 10
235.0
 20
292.0
 30
0.0
 40
3.5
  1
5
  7
ISO3098
 72
1
 11
235.0
 21
292.0
 31
0.0
100
AcDbText
 73
2
  0
TEXT
  5
68
330
17
100
AcDbEntity
  8
06-TEXTO
100
AcDbText
 10
285.0
 20
5.0
 30
0.0
 40
3.5
  1
6
  7
ISO3098
 72
1
 11
285.0
 21
5.0
 31
0.0
100
AcDbText
 73
2
  0
TEXT
  5
69
330
17
100
AcDbEntity
  8
06-TEXTO
100
AcDbText
 10
285.0
 20
292.0
 30
0.0
 40
3.5
  1
6
  7
ISO3098
 72
1
 11
285.0
 21
292.0
 31
0.0
100
AcDbText
 73
2
  0
TEXT
  5
6A
330
17
100
AcDbEntity
  8
06-TEXTO
100
AcDbText
 10
335.0
 20
5.0
 30
0.0
 40
3.5
  1
7
  7
ISO3098
 72
1
 11
335.0
 21
5.0
 31
0.0
100
AcDbText
 73
2
  0
TEXT
  5
6B
330
17
100
AcDbEntity
  8
06-TEXTO
100
AcDbText
 10
335.0
 20
292.0
 30
0.0
 40
3.5
  1
7
  7
ISO3098
 72
1
 11
335.0
 21
292.0
 31
0.0
100
AcDbText
 73
2
  0
TEXT
  5
6C
330
17
100
AcDbEntity
  8
06-TEXTO
100
AcDbText
 10
385.0
 20
5.0
 30
0.0
 40
3.5
  1
8
  7
ISO3098
 72
1
 11
385.0
 21
5.0
 31
0.0
100
AcDbText
 73
2
  0
TEXT
  5
6D
330
17
100
AcDbEntity
  8
06-TEXTO
100
AcDbText
 10
385.0
 20
292.0
 30
0.0
 40
3.5
  1
8
  7
ISO3098
 72
1
 11
385.0
 21
292.0
 31
0.0
100
AcDbText
 73
2
  0
TEXT
  5
6E
330
17
100
AcDbEntity
  8
06-TEXTO
100
AcDbText
 10
15.0
 20
29.25
 30
0.0
 40
3.5
  1
F
  7
ISO3098
 72
1
 11
15.0
 21
29.25
 31
0.0
100
AcDbText
 73
2
  0
TEXT
  5
6F
330
17
100
AcDbEntity
  8
06-TEXTO
100
AcDbText
 10
415.0
 20
29.25
 30
0.0
 40
3.5
  1
F
  7
ISO3098
 72
1
 11
415.0
 21
29.25
 31
0.0
100
AcDbText
 73
2
  0
TEXT
  5
70
330
17
100
AcDbEntity
  8
06-TEXTO
100
AcDbText
 10
15.0
 20
73.5
 30
0.0
 40
3.5
  1
E
  7
ISO3098
 72
1
 11
15.0
 21
73.5
 31
0.0
100
AcDbText
 73
2
  0
TEXT
  5
71
330
17
100
AcDbEntity
  8
06-TEXTO
100
AcDbText
 10
415.0
 20
73.5
 30
0.0
 40
3.5
  1
E
  7
ISO3098
 72
1
 11
415.0
 21
73.5
 31
0.0
100
AcDbText
 73
2
  0
TEXT
  5
72
330
17
100
AcDbEntity
  8
06-TEXTO
100
AcDbText
 10
15.0
 20
123.5
 30
0.0
 40
3.5
  1
D
  7
ISO3098
 72
1
 11
15.0
 21
123.5
 31
0.0
100
AcDbText
 73
2
  0
TEXT
  5
73
330
17
100
AcDbEntity
  8
06-TEXTO
100
AcDbText
 10
415.0
 20
123.5
 30
0.0
 40
3.5
  1
D
  7
ISO3098
 72
1
 11
415.0
 21
123.5
 31
0.0
100
AcDbText
 73
2
  0
TEXT
  5
74
330
17
100
AcDbEntity
  8
06-TEXTO
100
AcDbText
 10
15.0
 20
173.5
 30
0.0
 40
3.5
  1
C
  7
ISO3098
 72
1
 11
15.0
 21
173.5
 31
0.0
100
AcDbText
 73
2
  0
TEXT
  5
75
330
17
100
AcDbEntity
  8
06-TEXTO
100
AcDbText
 10
415.0
 20
173.5
 30
0.0
 40
3.5
  1
C
  7
ISO3098
 72
1
 11
415.0
 21
173.5
 31
0.0
100
AcDbText
 73
2
  0
TEXT
  5
76
330
17
100
AcDbEntity
  8
06-TEXTO
100
AcDbText
 10
15.0
 20
223.5
 30
0.0
 40
3.5
  1
B
  7
ISO3098
 72
1
 11
15.0
 21
223.5
 31
0.0
100
AcDbText
 73
2
  0
TEXT
  5
77
330
17
100
AcDbEntity
  8
06-TEXTO
100
AcDbText
 10
415.0
 20
223.5
 30
0.0
 40
3.5
  1
B
  7
ISO3098
 72
1
 11
415.0
 21
223.5
 31
0.0
100
AcDbText
 73
2
  0
TEXT
  5
78
330
17
100
AcDbEntity
  8
06-TEXTO
100
AcDbText
 10
15.0
 20
267.75
 30
0.0
 40
3.5
  1
A
  7
ISO3098
 72
1
 11
15.0
 21
267.75
 31
0.0
100
AcDbText
 73
2
  0
TEXT
  5
79
330
17
100
AcDbEntity
  8
06-TEXTO
100
AcDbText
 10
415.0
 20
267.75
 30
0.0
 40
3.5
  1
A
  7
ISO3098
 72
1
 11
415.0
 21
267.75
 31
0.0
100
AcDbText
 73
2
  0
LWPOLYLINE
  5
7A
330
17
100
AcDbEntity
  8
10-ROTULO
100
AcDbPolyline
 90
4
 70
1
 10
235.0
 20
56.0
 10
249.0
 20
56.0
 10
249.0
 20
61.0
 10
235.0
 20
61.0
  0
LWPOLYLINE
  5
7B
330
17
100
AcDbEntity
  8
10-ROTULO
100
AcDbPolyline
 90
4
 70
1
 10
249.0
 20
56.0
 10
265.0
 20
56.0
 10
265.0
 20
61.0
 10
249.0
 20
61.0
  0
TEXT
  5
7C
330
17
100
AcDbEntity
  8
11-TEXTO-ROTULO
100
AcDbText
 10
257.0
 20
58.5
 30
0.0
 40
2.5
  1
Fecha
  7
ISO3098
 72
1
 11
257.0
 21
58.5
 31
0.0
100
AcDbText
 73
2
  0
LWPOLYLINE
  5
7D
330
17
100
AcDbEntity
  8
10-ROTULO
100
AcDbPolyline
 90
4
 70
1
 10
265.0
 20
56.0
 10
290.0
 20
56.0
 10
290.0
 20
61.0
 10
265.0
 20
61.0
  0
TEXT
  5
7E
330
17
100
AcDbEntity
  8
11-TEXTO-ROTULO
100
AcDbText
 10
277.5
 20
58.5
 30
0.0
 40
2.5
  1
Nombre
  7
ISO3098
 72
1
 11
277.5
 21
58.5
 31
0.0
100
AcDbText
 73
2
  0
LWPOLYLINE
  5
7F
330
17
100
AcDbEntity
  8
10-ROTULO
100
AcDbPolyline
 90
4
 70
1
 10
235.0
 20
50.0
 10
249.0
 20
50.0
 10
249.0
 20
56.0
 10
235.0
 20
56.0
  0
TEXT
  5
80
330
17
100
AcDbEntity
  8
11-TEXTO-ROTULO
100
AcDbText
 10
236.5
 20
53.0
 30
0.0
 40
2.5
  1
Dibujó
  7
ISO3098
 11
236.5
 21
53.0
 31
0.0
100
AcDbText
 73
2
  0
LWPOLYLINE
  5
81
330
17
100
AcDbEntity
  8
10-ROTULO
100
AcDbPolyline
 90
4
 70
1
 10
249.0
 20
50.0
 10
265.0
 20
50.0
 10
265.0
 20
56.0
 10
249.0
 20
56.0
  0
TEXT
  5
82
330
17
100
AcDbEntity
  8
11-TEXTO-ROTULO
100
AcDbText
 10
257.0
 20
53.0
 30
0.0
 40
2.5
  1
28/09/26
  7
ISO3098
 72
1
 11
257.0
 21
53.0
 31
0.0
100
AcDbText
 73
2
  0
LWPOLYLINE
  5
83
330
17
100
AcDbEntity
  8
10-ROTULO
100
AcDbPolyline
 90
4
 70
1
 10
265.0
 20
50.0
 10
290.0
 20
50.0
 10
290.0
 20
56.0
 10
265.0
 20
56.0
  0
TEXT
  5
84
330
17
100
AcDbEntity
  8
11-TEXTO-ROTULO
100
AcDbText
 10
277.5
 20
53.0
 30
0.0
 40
2.5
  1
T. Sinay
  7
ISO3098
 72
1
 11
277.5
 21
53.0
 31
0.0
100
AcDbText
 73
2
  0
LWPOLYLINE
  5
85
330
17
100
AcDbEntity
  8
10-ROTULO
100
AcDbPolyline
 90
4
 70
1
 10
235.0
 20
44.0
 10
249.0
 20
44.0
 10
249.0
 20
50.0
 10
235.0
 20
50.0
  0
TEXT
  5
86
330
17
100
AcDbEntity
  8
11-TEXTO-ROTULO
100
AcDbText
 10
236.5
 20
47.0
 30
0.0
 40
2.5
  1
Revisó
  7
ISO3098
 11
236.5
 21
47.0
 31
0.0
100
AcDbText
 73
2
  0
LWPOLYLINE
  5
87
330
17
100
AcDbEntity
  8
10-ROTULO
100
AcDbPolyline
 90
4
 70
1
 10
249.0
 20
44.0
 10
265.0
 20
44.0
 10
265.0
 20
50.0
 10
249.0
 20
50.0
  0
LWPOLYLINE
  5
88
330
17
100
AcDbEntity
  8
10-ROTULO
100
AcDbPolyline
 90
4
 70
1
 10
265.0
 20
44.0
 10
290.0
 20
44.0
 10
290.0
 20
50.0
 10
265.0
 20
50.0
  0
LWPOLYLINE
  5
89
330
17
100
AcDbEntity
  8
10-ROTULO
100
AcDbPolyline
 90
4
 70
1
 10
235.0
 20
38.0
 10
249.0
 20
38.0
 10
249.0
 20
44.0
 10
235.0
 20
44.0
  0
TEXT
  5
8A
330
17
100
AcDbEntity
  8
11-TEXTO-ROTULO
100
AcDbText
 10
236.5
 20
41.0
 30
0.0
 40
2.5
  1
Aprobó
  7
ISO3098
 11
236.5
 21
41.0
 31
0.0
100
AcDbText
 73
2
  0
LWPOLYLINE
  5
8B
330
17
100
AcDbEntity
  8
10-ROTULO
100
AcDbPolyline
 90
4
 70
1
 10
249.0
 20
38.0
 10
265.0
 20
38.0
 10
265.0
 20
44.0
 10
249.0
 20
44.0
  0
LWPOLYLINE
  5
8C
330
17
100
AcDbEntity
  8
10-ROTULO
100
AcDbPolyline
 90
4
 70
1
 10
265.0
 20
38.0
 10
290.0
 20
38.0
 10
290.0
 20
44.0
 10
265.0
 20
44.0
  0
LWPOLYLINE
  5
8D
330
17
100
AcDbEntity
  8
10-ROTULO
100
AcDbPolyline
 90
4
 70
1
 10
235.0
 20
24.0
 10
255.0
 20
24.0
 10
255.0
 20
38.0
 10
235.0
 20
38.0
  0
TEXT
  5
8E
330
17
100
AcDbEntity
  8
11-TEXTO-ROTULO
100
AcDbText
 10
236.0
 20
37.0
 30
0.0
 40
1.8
  1
Escala
  7
ISO3098
 11
236.0
 21
37.0
 31
0.0
100
AcDbText
 73
3
  0
TEXT
  5
8F
330
17
100
AcDbEntity
  8
11-TEXTO-ROTULO
100
AcDbText
 10
245.0
 20
29.6
 30
0.0
 40
5.0
  1
2:1
  7
ISO3098
 72
1
 11
245.0
 21
29.6
 31
0.0
100
AcDbText
 73
2
  0
LWPOLYLINE
  5
90
330
17
100
AcDbEntity
  8
10-ROTULO
100
AcDbPolyline
 90
4
 70
1
 10
255.0
 20
24.0
 10
290.0
 20
24.0
 10
290.0
 20
38.0
 10
255.0
 20
38.0
  0
TEXT
  5
91
330
17
100
AcDbEntity
  8
11-TEXTO-ROTULO
100
AcDbText
 10
256.0
 20
37.0
 30
0.0
 40
1.8
  1
Método de proyección
  7
ISO3098
 11
256.0
 21
37.0
 31
0.0
100
AcDbText
 73
3
  0
CIRCLE
  5
92
330
17
100
AcDbEntity
  8
01-VISIBLE
100
AcDbCircle
 10
265.0
 20
29.5
 30
0.0
 40
2.5
  0
CIRCLE
  5
93
330
17
100
AcDbEntity
  8
01-VISIBLE
100
AcDbCircle
 10
265.0
 20
29.5
 30
0.0
 40
1.25
  0
LWPOLYLINE
  5
94
330
17
100
AcDbEntity
  8
01-VISIBLE
100
AcDbPolyline
 90
4
 70
1
 10
270.0
 20
27.0
 10
275.0
 20
28.25
 10
275.0
 20
30.75
 10
270.0
 20
32.0
  0
LINE
  5
95
330
17
100
AcDbEntity
  8
03-EJE
100
AcDbLine
 10
261.0
 20
29.5
 30
0.0
 11
276.5
 21
29.5
 31
0.0
  0
LINE
  5
96
330
17
100
AcDbEntity
  8
03-EJE
100
AcDbLine
 10
265.0
 20
25.5
 30
0.0
 11
265.0
 21
33.5
 31
0.0
  0
TEXT
  5
97
330
17
100
AcDbEntity
  8
11-TEXTO-ROTULO
100
AcDbText
 10
286.5
 20
29.5
 30
0.0
 40
2.5
  1
ISO E
  7
ISO3098
 72
2
 11
286.5
 21
29.5
 31
0.0
100
AcDbText
 73
2
  0
LWPOLYLINE
  5
98
330
17
100
AcDbEntity
  8
10-ROTULO
100
AcDbPolyline
 90
4
 70
1
 10
235.0
 20
10.0
 10
268.0
 20
10.0
 10
268.0
 20
24.0
 10
235.0
 20
24.0
  0
TEXT
  5
99
330
17
100
AcDbEntity
  8
11-TEXTO-ROTULO
100
AcDbText
 10
236.0
 20
23.0
 30
0.0
 40
1.8
  1
Tolerancias generales
  7
ISO3098
 11
236.0
 21
23.0
 31
0.0
100
AcDbText
 73
3
  0
TEXT
  5
9A
330
17
100
AcDbEntity
  8
11-TEXTO-ROTULO
100
AcDbText
 10
251.5
 20
15.6
 30
0.0
 40
3.5
  1
ISO 2768-m
  7
ISO3098
 72
1
 11
251.5
 21
15.6
 31
0.0
100
AcDbText
 73
2
  0
LWPOLYLINE
  5
9B
330
17
100
AcDbEntity
  8
10-ROTULO
100
AcDbPolyline
 90
4
 70
1
 10
268.0
 20
10.0
 10
290.0
 20
10.0
 10
290.0
 20
24.0
 10
268.0
 20
24.0
  0
TEXT
  5
9C
330
17
100
AcDbEntity
  8
11-TEXTO-ROTULO
100
AcDbText
 10
269.0
 20
23.0
 30
0.0
 40
1.8
  1
Formato
  7
ISO3098
 11
269.0
 21
23.0
 31
0.0
100
AcDbText
 73
3
  0
TEXT
  5
9D
330
17
100
AcDbEntity
  8
11-TEXTO-ROTULO
100
AcDbText
 10
279.0
 20
15.6
 30
0.0
 40
3.5
  1
A3
  7
ISO3098
 72
1
 11
279.0
 21
15.6
 31
0.0
100
AcDbText
 73
2
  0
LWPOLYLINE
  5
9E
330
17
100
AcDbEntity
  8
10-ROTULO
100
AcDbPolyline
 90
4
 70
1
 10
290.0
 20
49.0
 10
360.0
 20
49.0
 10
360.0
 20
61.0
 10
290.0
 20
61.0
  0
TEXT
  5
9F
330
17
100
AcDbEntity
  8
11-TEXTO-ROTULO
100
AcDbText
 10
291.0
 20
60.0
 30
0.0
 40
1.8
  1
Propietario
  7
ISO3098
 11
291.0
 21
60.0
 31
0.0
100
AcDbText
 73
3
  0
TEXT
  5
A0
330
17
100
AcDbEntity
  8
11-TEXTO-ROTULO
100
AcDbText
 10
325.0
 20
53.6
 30
0.0
 40
5.0
  1
FLAMA S.A.
  7
ISO3098
 72
1
 11
325.0
 21
53.6
 31
0.0
100
AcDbText
 73
2
  0
LWPOLYLINE
  5
A1
330
17
100
AcDbEntity
  8
10-ROTULO
100
AcDbPolyline
 90
4
 70
1
 10
290.0
 20
22.0
 10
360.0
 20
22.0
 10
360.0
 20
49.0
 10
290.0
 20
49.0
  0
TEXT
  5
A2
330
17
100
AcDbEntity
  8
11-TEXTO-ROTULO
100
AcDbText
 10
291.0
 20
48.0
 30
0.0
 40
1.8
  1
Denominación
  7
ISO3098
 11
291.0
 21
48.0
 31
0.0
100
AcDbText
 73
3
  0
TEXT
  5
A3
330
17
100
AcDbEntity
  8
11-TEXTO-ROTULO
100
AcDbText
 10
325.0
 20
35.0
 30
0.0
 40
3.5
  1
Etiquetas de servicio
  7
ISO3098
 72
1
 11
325.0
 21
35.0
 31
0.0
100
AcDbText
 73
2
  0
TEXT
  5
A4
330
17
100
AcDbEntity
  8
11-TEXTO-ROTULO
100
AcDbText
 10
325.0
 20
25.5
 30
0.0
 40
1.8
  1
IRAM 3517-2:2020 - 7.2.3, 8.3.3, 9.4.14, 9.7.1.4
  7
ISO3098
 72
1
 11
325.0
 21
25.5
 31
0.0
100
AcDbText
 73
2
  0
LWPOLYLINE
  5
A5
330
17
100
AcDbEntity
  8
10-ROTULO
100
AcDbPolyline
 90
4
 70
1
 10
290.0
 20
10.0
 10
360.0
 20
10.0
 10
360.0
 20
22.0
 10
290.0
 20
22.0
  0
TEXT
  5
A6
330
17
100
AcDbEntity
  8
11-TEXTO-ROTULO
100
AcDbText
 10
291.0
 20
21.0
 30
0.0
 40
1.8
  1
Tipo de documento
  7
ISO3098
 11
291.0
 21
21.0
 31
0.0
100
AcDbText
 73
3
  0
TEXT
  5
A7
330
17
100
AcDbEntity
  8
11-TEXTO-ROTULO
100
AcDbText
 10
325.0
 20
14.6
 30
0.0
 40
3.5
  1
Plano de señalética
  7
ISO3098
 72
1
 11
325.0
 21
14.6
 31
0.0
100
AcDbText
 73
2
  0
LWPOLYLINE
  5
A8
330
17
100
AcDbEntity
  8
10-ROTULO
100
AcDbPolyline
 90
4
 70
1
 10
360.0
 20
53.0
 10
410.0
 20
53.0
 10
410.0
 20
61.0
 10
360.0
 20
61.0
  0
TEXT
  5
A9
330
17
100
AcDbEntity
  8
11-TEXTO-ROTULO
100
AcDbText
 10
361.0
 20
60.0
 30
0.0
 40
1.8
  1
Reemplaza a / Reemplazado por
  7
ISO3098
 11
361.0
 21
60.0
 31
0.0
100
AcDbText
 73
3
  0
TEXT
  5
AA
330
17
100
AcDbEntity
  8
11-TEXTO-ROTULO
100
AcDbText
 10
385.0
 20
55.6
 30
0.0
 40
1.8
  1
-
  7
ISO3098
 72
1
 11
385.0
 21
55.6
 31
0.0
100
AcDbText
 73
2
  0
LWPOLYLINE
  5
AB
330
17
100
AcDbEntity
  8
10-ROTULO
100
AcDbPolyline
 90
4
 70
1
 10
360.0
 20
43.0
 10
410.0
 20
43.0
 10
410.0
 20
53.0
 10
360.0
 20
53.0
  0
TEXT
  5
AC
330
17
100
AcDbEntity
  8
11-TEXTO-ROTULO
100
AcDbText
 10
361.0
 20
52.0
 30
0.0
 40
1.8
  1
Material
  7
ISO3098
 11
361.0
 21
52.0
 31
0.0
100
AcDbText
 73
3
  0
TEXT
  5
AD
330
17
100
AcDbEntity
  8
11-TEXTO-ROTULO
100
AcDbText
 10
385.0
 20
46.6
 30
0.0
 40
2.5
  1
Ver notas
  7
ISO3098
 72
1
 11
385.0
 21
46.6
 31
0.0
100
AcDbText
 73
2
  0
LWPOLYLINE
  5
AE
330
17
100
AcDbEntity
  8
10-ROTULO
100
AcDbPolyline
 90
4
 70
1
 10
360.0
 20
33.0
 10
382.0
 20
33.0
 10
382.0
 20
43.0
 10
360.0
 20
43.0
  0
TEXT
  5
AF
330
17
100
AcDbEntity
  8
11-TEXTO-ROTULO
100
AcDbText
 10
361.0
 20
42.0
 30
0.0
 40
1.8
  1
Edición
  7
ISO3098
 11
361.0
 21
42.0
 31
0.0
100
AcDbText
 73
3
  0
TEXT
  5
B0
330
17
100
AcDbEntity
  8
11-TEXTO-ROTULO
100
AcDbText
 10
371.0
 20
36.6
 30
0.0
 40
3.5
  1
1
  7
ISO3098
 72
1
 11
371.0
 21
36.6
 31
0.0
100
AcDbText
 73
2
  0
LWPOLYLINE
  5
B1
330
17
100
AcDbEntity
  8
10-ROTULO
100
AcDbPolyline
 90
4
 70
1
 10
382.0
 20
33.0
 10
410.0
 20
33.0
 10
410.0
 20
43.0
 10
382.0
 20
43.0
  0
TEXT
  5
B2
330
17
100
AcDbEntity
  8
11-TEXTO-ROTULO
100
AcDbText
 10
383.0
 20
42.0
 30
0.0
 40
1.8
  1
Fecha de emisión
  7
ISO3098
 11
383.0
 21
42.0
 31
0.0
100
AcDbText
 73
3
  0
TEXT
  5
B3
330
17
100
AcDbEntity
  8
11-TEXTO-ROTULO
100
AcDbText
 10
396.0
 20
36.6
 30
0.0
 40
2.5
  1
28/09/2026
  7
ISO3098
 72
1
 11
396.0
 21
36.6
 31
0.0
100
AcDbText
 73
2
  0
LWPOLYLINE
  5
B4
330
17
100
AcDbEntity
  8
10-ROTULO
100
AcDbPolyline
 90
4
 70
1
 10
360.0
 20
23.0
 10
382.0
 20
23.0
 10
382.0
 20
33.0
 10
360.0
 20
33.0
  0
TEXT
  5
B5
330
17
100
AcDbEntity
  8
11-TEXTO-ROTULO
100
AcDbText
 10
361.0
 20
32.0
 30
0.0
 40
1.8
  1
Hoja
  7
ISO3098
 11
361.0
 21
32.0
 31
0.0
100
AcDbText
 73
3
  0
TEXT
  5
B6
330
17
100
AcDbEntity
  8
11-TEXTO-ROTULO
100
AcDbText
 10
371.0
 20
26.6
 30
0.0
 40
3.5
  1
1 / 1
  7
ISO3098
 72
1
 11
371.0
 21
26.6
 31
0.0
100
AcDbText
 73
2
  0
LWPOLYLINE
  5
B7
330
17
100
AcDbEntity
  8
10-ROTULO
100
AcDbPolyline
 90
4
 70
1
 10
382.0
 20
23.0
 10
410.0
 20
23.0
 10
410.0
 20
33.0
 10
382.0
 20
33.0
  0
TEXT
  5
B8
330
17
100
AcDbEntity
  8
11-TEXTO-ROTULO
100
AcDbText
 10
383.0
 20
32.0
 30
0.0
 40
1.8
  1
Idioma
  7
ISO3098
 11
383.0
 21
32.0
 31
0.0
100
AcDbText
 73
3
  0
TEXT
  5
B9
330
17
100
AcDbEntity
  8
11-TEXTO-ROTULO
100
AcDbText
 10
396.0
 20
26.6
 30
0.0
 40
3.5
  1
es
  7
ISO3098
 72
1
 11
396.0
 21
26.6
 31
0.0
100
AcDbText
 73
2
  0
LWPOLYLINE
  5
BA
330
17
100
AcDbEntity
  8
10-ROTULO
100
AcDbPolyline
 90
4
 70
1
 10
360.0
 20
10.0
 10
410.0
 20
10.0
 10
410.0
 20
23.0
 10
360.0
 20
23.0
  0
TEXT
  5
BB
330
17
100
AcDbEntity
  8
11-TEXTO-ROTULO
100
AcDbText
 10
361.0
 20
22.0
 30
0.0
 40
1.8
  1
N° de plano
  7
ISO3098
 11
361.0
 21
22.0
 31
0.0
100
AcDbText
 73
3
  0
TEXT
  5
BC
330
17
100
AcDbEntity
  8
11-TEXTO-ROTULO
100
AcDbText
 10
385.0
 20
15.1
 30
0.0
 40
5.0
  1
FL_SEN_04
  7
ISO3098
 72
1
 11
385.0
 21
15.1
 31
0.0
100
AcDbText
 73
2
  0
LWPOLYLINE
  5
BD
330
17
100
AcDbEntity
  8
07-RECUADRO
100
AcDbPolyline
 90
4
 70
1
 10
235.0
 20
10.0
 10
410.0
 20
10.0
 10
410.0
 20
61.0
 10
235.0
 20
61.0
  0
HATCH
  5
BE
330
17
100
AcDbEntity
  8
05-RAYADO
 62
7
420
7914475
100
AcDbHatch
 10
0.0
 20
0.0
 30
0.0
210
0.0
220
0.0
230
1.0
  2
SOLID
 70
1
 71
0
 91
1
 92
3
 72
0
 73
1
 93
4
 10
137.0
 20
195.0
 10
137.0
 20
265.0
 10
37.0
 20
265.0
 10
37.0
 20
195.0
 97
0
 75
1
 76
1
 98
0
  0
LWPOLYLINE
  5
BF
330
17
100
AcDbEntity
  8
01-VISIBLE
100
AcDbPolyline
 90
5
 70
1
 10
137.0
 20
195.0
 10
137.0
 20
265.0
 10
37.0
 20
265.0
 10
37.0
 20
195.0
 10
137.0
 20
195.0
  0
TEXT
  5
C0
330
17
100
AcDbEntity
  8
06-TEXTO
100
AcDbText
 10
87.0
 20
256.0
 30
0.0
 40
2.5
  1
EQUIPO CONTROLADO POR:
  7
ISO3098
 72
1
 11
87.0
 21
256.0
 31
0.0
100
AcDbText
 73
2
  0
TEXT
  5
C1
330
17
100
AcDbEntity
  8
06-TEXTO
100
AcDbText
 10
87.0
 20
245.6
 30
0.0
 40
2.5
  1
..................................
  7
ISO3098
 72
1
 11
87.0
 21
245.6
 31
0.0
100
AcDbText
 73
2
  0
TEXT
  5
C2
330
17
100
AcDbEntity
  8
06-TEXTO
100
AcDbText
 10
87.0
 20
235.2
 30
0.0
 40
2.2
  1
FRECUENCIA: [ ] Trimestral [ ] Mensual [ ] Otra
  7
ISO3098
 72
1
 11
87.0
 21
235.2
 31
0.0
100
AcDbText
 73
2
  0
TEXT
  5
C3
330
17
100
AcDbEntity
  8
06-TEXTO
100
AcDbText
 10
87.0
 20
224.8
 30
0.0
 40
2.5
  1
FECHA: ...... / ......
  7
ISO3098
 72
1
 11
87.0
 21
224.8
 31
0.0
100
AcDbText
 73
2
  0
TEXT
  5
C4
330
17
100
AcDbEntity
  8
06-TEXTO
100
AcDbText
 10
87.0
 20
214.4
 30
0.0
 40
2.5
  1
EL PRÓXIMO CONTROL SE DEBE REALIZAR
  7
ISO3098
 72
1
 11
87.0
 21
214.4
 31
0.0
100
AcDbText
 73
2
  0
TEXT
  5
C5
330
17
100
AcDbEntity
  8
06-TEXTO
100
AcDbText
 10
87.0
 20
204.0
 30
0.0
 40
2.5
  1
CONFORME A LA FRECUENCIA INDICADA
  7
ISO3098
 72
1
 11
87.0
 21
204.0
 31
0.0
100
AcDbText
 73
2
  0
DIMENSION
  5
C6
330
17
100
AcDbEntity
  8
04-COTA
100
AcDbDimension
280
0
  2
*D1
  3
FLAMA-IRAM
 10
37.0
 20
272.0
 30
0.0
 11
87.0
 21
274.75
 31
0.0
 70
32
 71
5
  1
<>
100
AcDbAlignedDimension
 13
37.0
 23
265.0
 33
0.0
 14
137.0
 24
265.0
 34
0.0
 50
0.0
100
AcDbRotatedDimension
1001
ACAD
1000
DSTYLE
1002
{
1070
144
1040
0.5
1002
}
  0
DIMENSION
  5
D5
330
17
100
AcDbEntity
  8
04-COTA
100
AcDbDimension
280
0
  2
*D2
  3
FLAMA-IRAM
 10
144.0
 20
195.0
 30
0.0
 11
141.25
 21
230.0
 31
0.0
 70
32
 71
5
  1
<>
100
AcDbAlignedDimension
 13
137.0
 23
195.0
 33
0.0
 14
137.0
 24
265.0
 34
0.0
 50
90.0
100
AcDbRotatedDimension
1001
ACAD
1000
DSTYLE
1002
{
1070
144
1040
0.5
1002
}
  0
TEXT
  5
E4
330
17
100
AcDbEntity
  8
06-TEXTO
100
AcDbText
 10
37.0
 20
188.0
 30
0.0
 40
3.5
  1
1  ETIQUETA DE CONTROL - 8.3.3 (2:1)
  7
ISO3098
 11
37.0
 21
188.0
 31
0.0
100
AcDbText
 73
1
  0
HATCH
  5
E5
330
17
100
AcDbEntity
  8
05-RAYADO
 62
7
420
16777215
100
AcDbHatch
 10
0.0
 20
0.0
 30
0.0
210
0.0
220
0.0
230
1.0
  2
SOLID
 70
1
 71
0
 91
1
 92
3
 72
0
 73
1
 93
288
 10
219.0
 20
230.0
 10
218.99286081239728
 20
229.34555344896316
 10
218.97144664745574
 20
228.69141837903993
 10
218.9357676971581
 20
228.0379061230957
 10
218.88584094275237
 20
227.38532771757025
 10
218.8216901466696
 20
226.73399375444106
 10
218.7433458412143
 20
226.08421423339846
 10
218.65084531403284
 20
225.43629841430248
 10
218.54423259036625
 20
224.7905546699921
 10
218.42355841209692
 20
224.14729033951616
 10
218.288880213598
 20
223.5068115818569
 10
218.14026209439785
 20
222.8694232302148
 10
217.97777478867204
 20
222.2354286469244
 10
217.80149563157786
 20
221.60512957907025
 10
217.6115085224468
 20
220.9788260148718
 10
217.40790388485317
 20
220.35681604090516
 10
217.19077862357724
 20
219.73939570022995
 10
216.96023607848394
 20
219.12685885148895
 10
216.7163859753386
 20
218.5194970290473
 10
216.4593443735834
 20
217.91759930423788
 10
216.1892336110995
 20
217.321452147779
 10
215.90618224598066
 20
216.73133929342995
 10
215.61032499534664
 20
216.147541602949
 10
215.30180267122523
 20
215.57033693241837
 10
214.98076211353316
 20
215.0
 10
214.6473561201884
 20
214.43680225518438
 10
214.30174337438658
 20
213.88101174959527
 10
213.94408836907635
 20
213.33289300941192
 10
213.57456132866974
 20
212.79270690946862
 10
213.1933381280245
 20
212.26071054909252
 10
212.80060020873705
 20
211.7371571297384
 10
212.39653449278646
 20
211.22229583447822
 10
211.98133329356935
 20
210.71637170940383
 10
211.55519422436933
 20
210.21962554699795
 10
211.11832010430373
 20
209.73229377153018
 10
210.67091886179267
 20
209.25460832653192
 10
210.21320343559643
 20
208.78679656440357
 10
209.74539167346808
 20
208.32908113820733
 10
209.26770622846982
 20
207.88167989569627
 10
208.78037445300205
 20
207.44480577563067
 10
208.28362829059617
 20
207.01866670643065
 10
207.77770416552178
 20
206.60346550721354
 10
207.2628428702616
 20
206.19939979126295
 10
206.73928945090748
 20
205.80666187197554
 10
206.20729309053138
 20
205.42543867133026
 10
205.66710699058808
 20
205.05591163092365
 10
205.11898825040473
 20
204.69825662561342
 10
204.56319774481565
 20
204.3526438798116
 10
204.0
 20
204.01923788646684
 10
203.42966306758163
 20
203.69819732877477
 10
202.852458397051
 20
203.38967500465336
 10
202.26866070657005
 20
203.09381775401934
 10
201.678547852221
 20
202.8107663889005
 10
201.08240069576212
 20
202.5406556264166
 10
200.4805029709527
 20
202.2836140246614
 10
199.87314114851105
 20
202.03976392151606
 10
199.26060429977008
 20
201.80922137642276
 10
198.64318395909484
 20
201.59209611514683
 10
198.0211739851282
 20
201.3884914775532
 10
197.39487042092978
 20
201.19850436842214
 10
196.7645713530756
 20
201.02222521132796
 10
196.1305767697852
 20
200.85973790560215
 10
195.4931884181431
 20
200.711119786402
 10
194.85270966048384
 20
200.57644158790308
 10
194.20944533000792
 20
200.45576740963375
 10
193.56370158569752
 20
200.34915468596716
 10
192.91578576660154
 20
200.2566541587857
 10
192.26600624555894
 20
200.1783098533304
 10
191.61467228242975
 20
200.11415905724763
 10
190.9620938769043
 20
200.0642323028419
 10
190.30858162096007
 20
200.02855335254426
 10
189.65444655103684
 20
200.00713918760272
 10
189.0
 20
200.0
 10
188.34555344896316
 20
200.00713918760272
 10
187.69141837903993
 20
200.02855335254426
 10
187.03790612309572
 20
200.0642323028419
 10
186.38532771757025
 20
200.11415905724763
 10
185.73399375444106
 20
200.1783098533304
 10
185.08421423339846
 20
200.2566541587857
 10
184.43629841430248
 20
200.34915468596716
 10
183.7905546699921
 20
200.45576740963375
 10
183.14729033951616
 20
200.57644158790308
 10
182.5068115818569
 20
200.711119786402
 10
181.8694232302148
 20
200.85973790560215
 10
181.2354286469244
 20
201.02222521132796
 10
180.60512957907025
 20
201.19850436842214
 10
179.9788260148718
 20
201.3884914775532
 10
179.35681604090516
 20
201.59209611514683
 10
178.73939570022995
 20
201.80922137642276
 10
178.12685885148895
 20
202.03976392151606
 10
177.5194970290473
 20
202.2836140246614
 10
176.91759930423788
 20
202.5406556264166
 10
176.321452147779
 20
202.8107663889005
 10
175.73133929342995
 20
203.09381775401934
 10
175.147541602949
 20
203.38967500465336
 10
174.57033693241837
 20
203.69819732877477
 10
174.0
 20
204.01923788646684
 10
173.43680225518438
 20
204.3526438798116
 10
172.8810117495953
 20
204.69825662561342
 10
172.33289300941195
 20
205.05591163092365
 10
171.79270690946862
 20
205.42543867133026
 10
171.26071054909252
 20
205.80666187197554
 10
170.7371571297384
 20
206.19939979126295
 10
170.22229583447822
 20
206.60346550721354
 10
169.71637170940383
 20
207.01866670643065
 10
169.21962554699795
 20
207.44480577563067
 10
168.73229377153018
 20
207.88167989569627
 10
168.25460832653192
 20
208.32908113820733
 10
167.78679656440357
 20
208.78679656440357
 10
167.32908113820733
 20
209.25460832653192
 10
166.88167989569627
 20
209.73229377153018
 10
166.44480577563067
 20
210.21962554699792
 10
166.01866670643068
 20
210.7163717094038
 10
165.60346550721354
 20
211.22229583447822
 10
165.19939979126295
 20
211.73715712973836
 10
164.80666187197554
 20
212.26071054909252
 10
164.42543867133026
 20
212.79270690946862
 10
164.05591163092365
 20
213.33289300941192
 10
163.69825662561342
 20
213.88101174959527
 10
163.3526438798116
 20
214.43680225518438
 10
163.01923788646684
 20
215.0
 10
162.69819732877477
 20
215.57033693241837
 10
162.38967500465336
 20
216.147541602949
 10
162.09381775401934
 20
216.73133929342995
 10
161.8107663889005
 20
217.321452147779
 10
161.5406556264166
 20
217.91759930423788
 10
161.2836140246614
 20
218.5194970290473
 10
161.03976392151606
 20
219.12685885148895
 10
160.80922137642276
 20
219.73939570022992
 10
160.59209611514683
 20
220.35681604090516
 10
160.3884914775532
 20
220.9788260148718
 10
160.19850436842214
 20
221.60512957907022
 10
160.02222521132796
 20
222.23542864692436
 10
159.85973790560217
 20
222.8694232302148
 10
159.711119786402
 20
223.5068115818569
 10
159.57644158790308
 20
224.14729033951613
 10
159.45576740963375
 20
224.79055466999208
 10
159.34915468596716
 20
225.43629841430248
 10
159.2566541587857
 20
226.08421423339846
 10
159.1783098533304
 20
226.73399375444106
 10
159.11415905724763
 20
227.38532771757025
 10
159.0642323028419
 20
228.0379061230957
 10
159.02855335254426
 20
228.69141837903993
 10
159.00713918760272
 20
229.34555344896316
 10
159.0
 20
230.0
 10
159.00713918760272
 20
230.65444655103684
 10
159.02855335254426
 20
231.30858162096007
 10
159.0642323028419
 20
231.96209387690428
 10
159.11415905724763
 20
232.61467228242975
 10
159.1783098533304
 20
233.26600624555894
 10
159.2566541587857
 20
233.91578576660154
 10
159.34915468596716
 20
234.5637015856975
 10
159.45576740963375
 20
235.2094453300079
 10
159.57644158790308
 20
235.85270966048384
 10
159.71111978640198
 20
236.49318841814306
 10
159.85973790560215
 20
237.1305767697852
 10
160.02222521132796
 20
237.7645713530756
 10
160.19850436842214
 20
238.39487042092975
 10
160.3884914775532
 20
239.0211739851282
 10
160.59209611514683
 20
239.64318395909484
 10
160.80922137642276
 20
240.26060429977005
 10
161.03976392151606
 20
240.87314114851105
 10
161.2836140246614
 20
241.4805029709527
 10
161.5406556264166
 20
242.08240069576212
 10
161.8107663889005
 20
242.678547852221
 10
162.09381775401934
 20
243.26866070657002
 10
162.38967500465336
 20
243.852458397051
 10
162.69819732877477
 20
244.42966306758163
 10
163.01923788646684
 20
245.0
 10
163.3526438798116
 20
245.56319774481562
 10
163.69825662561342
 20
246.1189882504047
 10
164.05591163092365
 20
246.66710699058805
 10
164.42543867133026
 20
247.20729309053138
 10
164.8066618719755
 20
247.73928945090745
 10
165.19939979126295
 20
248.2628428702616
 10
165.60346550721354
 20
248.77770416552178
 10
166.01866670643065
 20
249.28362829059617
 10
166.44480577563067
 20
249.78037445300205
 10
166.88167989569627
 20
250.26770622846982
 10
167.32908113820733
 20
250.74539167346808
 10
167.78679656440357
 20
251.21320343559643
 10
168.25460832653192
 20
251.67091886179267
 10
168.73229377153018
 20
252.1183201043037
 10
169.21962554699792
 20
252.55519422436933
 10
169.7163717094038
 20
252.98133329356932
 10
170.22229583447825
 20
253.39653449278646
 10
170.73715712973836
 20
253.80060020873705
 10
171.26071054909252
 20
254.1933381280245
 10
171.79270690946862
 20
254.57456132866974
 10
172.33289300941192
 20
254.94408836907635
 10
172.88101174959527
 20
255.30174337438658
 10
173.43680225518435
 20
255.6473561201884
 10
174.0
 20
255.98076211353316
 10
174.57033693241837
 20
256.30180267122523
 10
175.14754160294896
 20
256.6103249953467
 10
175.73133929342995
 20
256.90618224598063
 10
176.321452147779
 20
257.1892336110995
 10
176.91759930423788
 20
257.4593443735834
 10
177.5194970290473
 20
257.7163859753386
 10
178.12685885148895
 20
257.96023607848394
 10
178.73939570022992
 20
258.1907786235772
 10
179.35681604090516
 20
258.40790388485317
 10
179.9788260148718
 20
258.6115085224468
 10
180.60512957907022
 20
258.80149563157784
 10
181.2354286469244
 20
258.97777478867204
 10
181.8694232302148
 20
259.1402620943978
 10
182.5068115818569
 20
259.288880213598
 10
183.14729033951613
 20
259.4235584120969
 10
183.7905546699921
 20
259.5442325903662
 10
184.43629841430248
 20
259.65084531403284
 10
185.08421423339846
 20
259.7433458412143
 10
185.73399375444106
 20
259.8216901466696
 10
186.38532771757025
 20
259.88584094275234
 10
187.0379061230957
 20
259.9357676971581
 10
187.6914183790399
 20
259.97144664745576
 10
188.34555344896316
 20
259.9928608123973
 10
189.0
 20
260.0
 10
189.6544465510368
 20
259.9928608123973
 10
190.30858162096007
 20
259.97144664745576
 10
190.96209387690428
 20
259.9357676971581
 10
191.61467228242972
 20
259.88584094275234
 10
192.26600624555894
 20
259.8216901466696
 10
192.91578576660154
 20
259.7433458412143
 10
193.56370158569752
 20
259.65084531403284
 10
194.2094453300079
 20
259.5442325903662
 10
194.85270966048384
 20
259.4235584120969
 10
195.49318841814306
 20
259.288880213598
 10
196.1305767697852
 20
259.1402620943978
 10
196.7645713530756
 20
258.97777478867204
 10
197.39487042092975
 20
258.80149563157784
 10
198.02117398512817
 20
258.6115085224468
 10
198.64318395909484
 20
258.40790388485317
 10
199.26060429977005
 20
258.1907786235773
 10
199.87314114851105
 20
257.96023607848394
 10
200.48050297095267
 20
257.7163859753386
 10
201.08240069576212
 20
257.4593443735834
 10
201.67854785222096
 20
257.1892336110995
 10
202.26866070657002
 20
256.90618224598063
 10
202.852458397051
 20
256.6103249953467
 10
203.42966306758163
 20
256.30180267122523
 10
204.0
 20
255.98076211353316
 10
204.56319774481562
 20
255.64735612018842
 10
205.11898825040473
 20
255.30174337438658
 10
205.66710699058805
 20
254.94408836907635
 10
206.20729309053138
 20
254.57456132866974
 10
206.73928945090745
 20
254.1933381280245
 10
207.2628428702616
 20
253.80060020873705
 10
207.77770416552175
 20
253.39653449278646
 10
208.28362829059617
 20
252.98133329356935
 10
208.78037445300205
 20
252.55519422436933
 10
209.26770622846982
 20
252.11832010430373
 10
209.74539167346808
 20
251.67091886179267
 10
210.21320343559643
 20
251.21320343559643
 10
210.67091886179264
 20
250.7453916734681
 10
211.1183201043037
 20
250.26770622846982
 10
211.5551942243693
 20
249.78037445300208
 10
211.98133329356932
 20
249.2836282905962
 10
212.39653449278646
 20
248.77770416552175
 10
212.80060020873705
 20
248.26284287026164
 10
213.19333812802446
 20
247.73928945090748
 10
213.57456132866974
 20
247.20729309053138
 10
213.94408836907635
 20
246.66710699058808
 10
214.30174337438658
 20
246.11898825040473
 10
214.6473561201884
 20
245.56319774481565
 10
214.98076211353316
 20
245.0
 10
215.30180267122523
 20
244.42966306758163
 10
215.61032499534664
 20
243.85245839705104
 10
215.90618224598066
 20
243.26866070657005
 10
216.1892336110995
 20
242.678547852221
 10
216.4593443735834
 20
242.08240069576212
 10
216.7163859753386
 20
241.4805029709527
 10
216.96023607848394
 20
240.87314114851105
 10
217.19077862357724
 20
240.26060429977008
 10
217.40790388485317
 20
239.64318395909487
 10
217.6115085224468
 20
239.0211739851282
 10
217.80149563157786
 20
238.39487042092978
 10
217.97777478867204
 20
237.7645713530756
 10
218.14026209439783
 20
237.1305767697852
 10
218.288880213598
 20
236.4931884181431
 10
218.4235584120969
 20
235.85270966048387
 10
218.54423259036625
 20
235.20944533000792
 10
218.65084531403284
 20
234.56370158569752
 10
218.7433458412143
 20
233.91578576660154
 10
218.8216901466696
 20
233.26600624555894
 10
218.88584094275237
 20
232.61467228242975
 10
218.9357676971581
 20
231.9620938769043
 10
218.97144664745574
 20
231.3085816209601
 10
218.99286081239728
 20
230.65444655103684
 97
0
 75
1
 76
1
 98
0
  0
LWPOLYLINE
  5
E6
330
17
100
AcDbEntity
  8
01-VISIBLE
100
AcDbPolyline
 90
289
 70
1
 10
219.0
 20
230.0
 10
218.99286081239728
 20
229.34555344896316
 10
218.97144664745574
 20
228.69141837903993
 10
218.9357676971581
 20
228.0379061230957
 10
218.88584094275237
 20
227.38532771757025
 10
218.8216901466696
 20
226.73399375444106
 10
218.7433458412143
 20
226.08421423339846
 10
218.65084531403284
 20
225.43629841430248
 10
218.54423259036625
 20
224.7905546699921
 10
218.42355841209692
 20
224.14729033951616
 10
218.288880213598
 20
223.5068115818569
 10
218.14026209439785
 20
222.8694232302148
 10
217.97777478867204
 20
222.2354286469244
 10
217.80149563157786
 20
221.60512957907025
 10
217.6115085224468
 20
220.9788260148718
 10
217.40790388485317
 20
220.35681604090516
 10
217.19077862357724
 20
219.73939570022995
 10
216.96023607848394
 20
219.12685885148895
 10
216.7163859753386
 20
218.5194970290473
 10
216.4593443735834
 20
217.91759930423788
 10
216.1892336110995
 20
217.321452147779
 10
215.90618224598066
 20
216.73133929342995
 10
215.61032499534664
 20
216.147541602949
 10
215.30180267122523
 20
215.57033693241837
 10
214.98076211353316
 20
215.0
 10
214.6473561201884
 20
214.43680225518438
 10
214.30174337438658
 20
213.88101174959527
 10
213.94408836907635
 20
213.33289300941192
 10
213.57456132866974
 20
212.79270690946862
 10
213.1933381280245
 20
212.26071054909252
 10
212.80060020873705
 20
211.7371571297384
 10
212.39653449278646
 20
211.22229583447822
 10
211.98133329356935
 20
210.71637170940383
 10
211.55519422436933
 20
210.21962554699795
 10
211.11832010430373
 20
209.73229377153018
 10
210.67091886179267
 20
209.25460832653192
 10
210.21320343559643
 20
208.78679656440357
 10
209.74539167346808
 20
208.32908113820733
 10
209.26770622846982
 20
207.88167989569627
 10
208.78037445300205
 20
207.44480577563067
 10
208.28362829059617
 20
207.01866670643065
 10
207.77770416552178
 20
206.60346550721354
 10
207.2628428702616
 20
206.19939979126295
 10
206.73928945090748
 20
205.80666187197554
 10
206.20729309053138
 20
205.42543867133026
 10
205.66710699058808
 20
205.05591163092365
 10
205.11898825040473
 20
204.69825662561342
 10
204.56319774481565
 20
204.3526438798116
 10
204.0
 20
204.01923788646684
 10
203.42966306758163
 20
203.69819732877477
 10
202.852458397051
 20
203.38967500465336
 10
202.26866070657005
 20
203.09381775401934
 10
201.678547852221
 20
202.8107663889005
 10
201.08240069576212
 20
202.5406556264166
 10
200.4805029709527
 20
202.2836140246614
 10
199.87314114851105
 20
202.03976392151606
 10
199.26060429977008
 20
201.80922137642276
 10
198.64318395909484
 20
201.59209611514683
 10
198.0211739851282
 20
201.3884914775532
 10
197.39487042092978
 20
201.19850436842214
 10
196.7645713530756
 20
201.02222521132796
 10
196.1305767697852
 20
200.85973790560215
 10
195.4931884181431
 20
200.711119786402
 10
194.85270966048384
 20
200.57644158790308
 10
194.20944533000792
 20
200.45576740963375
 10
193.56370158569752
 20
200.34915468596716
 10
192.91578576660154
 20
200.2566541587857
 10
192.26600624555894
 20
200.1783098533304
 10
191.61467228242975
 20
200.11415905724763
 10
190.9620938769043
 20
200.0642323028419
 10
190.30858162096007
 20
200.02855335254426
 10
189.65444655103684
 20
200.00713918760272
 10
189.0
 20
200.0
 10
188.34555344896316
 20
200.00713918760272
 10
187.69141837903993
 20
200.02855335254426
 10
187.03790612309572
 20
200.0642323028419
 10
186.38532771757025
 20
200.11415905724763
 10
185.73399375444106
 20
200.1783098533304
 10
185.08421423339846
 20
200.2566541587857
 10
184.43629841430248
 20
200.34915468596716
 10
183.7905546699921
 20
200.45576740963375
 10
183.14729033951616
 20
200.57644158790308
 10
182.5068115818569
 20
200.711119786402
 10
181.8694232302148
 20
200.85973790560215
 10
181.2354286469244
 20
201.02222521132796
 10
180.60512957907025
 20
201.19850436842214
 10
179.9788260148718
 20
201.3884914775532
 10
179.35681604090516
 20
201.59209611514683
 10
178.73939570022995
 20
201.80922137642276
 10
178.12685885148895
 20
202.03976392151606
 10
177.5194970290473
 20
202.2836140246614
 10
176.91759930423788
 20
202.5406556264166
 10
176.321452147779
 20
202.8107663889005
 10
175.73133929342995
 20
203.09381775401934
 10
175.147541602949
 20
203.38967500465336
 10
174.57033693241837
 20
203.69819732877477
 10
174.0
 20
204.01923788646684
 10
173.43680225518438
 20
204.3526438798116
 10
172.8810117495953
 20
204.69825662561342
 10
172.33289300941195
 20
205.05591163092365
 10
171.79270690946862
 20
205.42543867133026
 10
171.26071054909252
 20
205.80666187197554
 10
170.7371571297384
 20
206.19939979126295
 10
170.22229583447822
 20
206.60346550721354
 10
169.71637170940383
 20
207.01866670643065
 10
169.21962554699795
 20
207.44480577563067
 10
168.73229377153018
 20
207.88167989569627
 10
168.25460832653192
 20
208.32908113820733
 10
167.78679656440357
 20
208.78679656440357
 10
167.32908113820733
 20
209.25460832653192
 10
166.88167989569627
 20
209.73229377153018
 10
166.44480577563067
 20
210.21962554699792
 10
166.01866670643068
 20
210.7163717094038
 10
165.60346550721354
 20
211.22229583447822
 10
165.19939979126295
 20
211.73715712973836
 10
164.80666187197554
 20
212.26071054909252
 10
164.42543867133026
 20
212.79270690946862
 10
164.05591163092365
 20
213.33289300941192
 10
163.69825662561342
 20
213.88101174959527
 10
163.3526438798116
 20
214.43680225518438
 10
163.01923788646684
 20
215.0
 10
162.69819732877477
 20
215.57033693241837
 10
162.38967500465336
 20
216.147541602949
 10
162.09381775401934
 20
216.73133929342995
 10
161.8107663889005
 20
217.321452147779
 10
161.5406556264166
 20
217.91759930423788
 10
161.2836140246614
 20
218.5194970290473
 10
161.03976392151606
 20
219.12685885148895
 10
160.80922137642276
 20
219.73939570022992
 10
160.59209611514683
 20
220.35681604090516
 10
160.3884914775532
 20
220.9788260148718
 10
160.19850436842214
 20
221.60512957907022
 10
160.02222521132796
 20
222.23542864692436
 10
159.85973790560217
 20
222.8694232302148
 10
159.711119786402
 20
223.5068115818569
 10
159.57644158790308
 20
224.14729033951613
 10
159.45576740963375
 20
224.79055466999208
 10
159.34915468596716
 20
225.43629841430248
 10
159.2566541587857
 20
226.08421423339846
 10
159.1783098533304
 20
226.73399375444106
 10
159.11415905724763
 20
227.38532771757025
 10
159.0642323028419
 20
228.0379061230957
 10
159.02855335254426
 20
228.69141837903993
 10
159.00713918760272
 20
229.34555344896316
 10
159.0
 20
230.0
 10
159.00713918760272
 20
230.65444655103684
 10
159.02855335254426
 20
231.30858162096007
 10
159.0642323028419
 20
231.96209387690428
 10
159.11415905724763
 20
232.61467228242975
 10
159.1783098533304
 20
233.26600624555894
 10
159.2566541587857
 20
233.91578576660154
 10
159.34915468596716
 20
234.5637015856975
 10
159.45576740963375
 20
235.2094453300079
 10
159.57644158790308
 20
235.85270966048384
 10
159.71111978640198
 20
236.49318841814306
 10
159.85973790560215
 20
237.1305767697852
 10
160.02222521132796
 20
237.7645713530756
 10
160.19850436842214
 20
238.39487042092975
 10
160.3884914775532
 20
239.0211739851282
 10
160.59209611514683
 20
239.64318395909484
 10
160.80922137642276
 20
240.26060429977005
 10
161.03976392151606
 20
240.87314114851105
 10
161.2836140246614
 20
241.4805029709527
 10
161.5406556264166
 20
242.08240069576212
 10
161.8107663889005
 20
242.678547852221
 10
162.09381775401934
 20
243.26866070657002
 10
162.38967500465336
 20
243.852458397051
 10
162.69819732877477
 20
244.42966306758163
 10
163.01923788646684
 20
245.0
 10
163.3526438798116
 20
245.56319774481562
 10
163.69825662561342
 20
246.1189882504047
 10
164.05591163092365
 20
246.66710699058805
 10
164.42543867133026
 20
247.20729309053138
 10
164.8066618719755
 20
247.73928945090745
 10
165.19939979126295
 20
248.2628428702616
 10
165.60346550721354
 20
248.77770416552178
 10
166.01866670643065
 20
249.28362829059617
 10
166.44480577563067
 20
249.78037445300205
 10
166.88167989569627
 20
250.26770622846982
 10
167.32908113820733
 20
250.74539167346808
 10
167.78679656440357
 20
251.21320343559643
 10
168.25460832653192
 20
251.67091886179267
 10
168.73229377153018
 20
252.1183201043037
 10
169.21962554699792
 20
252.55519422436933
 10
169.7163717094038
 20
252.98133329356932
 10
170.22229583447825
 20
253.39653449278646
 10
170.73715712973836
 20
253.80060020873705
 10
171.26071054909252
 20
254.1933381280245
 10
171.79270690946862
 20
254.57456132866974
 10
172.33289300941192
 20
254.94408836907635
 10
172.88101174959527
 20
255.30174337438658
 10
173.43680225518435
 20
255.6473561201884
 10
174.0
 20
255.98076211353316
 10
174.57033693241837
 20
256.30180267122523
 10
175.14754160294896
 20
256.6103249953467
 10
175.73133929342995
 20
256.90618224598063
 10
176.321452147779
 20
257.1892336110995
 10
176.91759930423788
 20
257.4593443735834
 10
177.5194970290473
 20
257.7163859753386
 10
178.12685885148895
 20
257.96023607848394
 10
178.73939570022992
 20
258.1907786235772
 10
179.35681604090516
 20
258.40790388485317
 10
179.9788260148718
 20
258.6115085224468
 10
180.60512957907022
 20
258.80149563157784
 10
181.2354286469244
 20
258.97777478867204
 10
181.8694232302148
 20
259.1402620943978
 10
182.5068115818569
 20
259.288880213598
 10
183.14729033951613
 20
259.4235584120969
 10
183.7905546699921
 20
259.5442325903662
 10
184.43629841430248
 20
259.65084531403284
 10
185.08421423339846
 20
259.7433458412143
 10
185.73399375444106
 20
259.8216901466696
 10
186.38532771757025
 20
259.88584094275234
 10
187.0379061230957
 20
259.9357676971581
 10
187.6914183790399
 20
259.97144664745576
 10
188.34555344896316
 20
259.9928608123973
 10
189.0
 20
260.0
 10
189.6544465510368
 20
259.9928608123973
 10
190.30858162096007
 20
259.97144664745576
 10
190.96209387690428
 20
259.9357676971581
 10
191.61467228242972
 20
259.88584094275234
 10
192.26600624555894
 20
259.8216901466696
 10
192.91578576660154
 20
259.7433458412143
 10
193.56370158569752
 20
259.65084531403284
 10
194.2094453300079
 20
259.5442325903662
 10
194.85270966048384
 20
259.4235584120969
 10
195.49318841814306
 20
259.288880213598
 10
196.1305767697852
 20
259.1402620943978
 10
196.7645713530756
 20
258.97777478867204
 10
197.39487042092975
 20
258.80149563157784
 10
198.02117398512817
 20
258.6115085224468
 10
198.64318395909484
 20
258.40790388485317
 10
199.26060429977005
 20
258.1907786235773
 10
199.87314114851105
 20
257.96023607848394
 10
200.48050297095267
 20
257.7163859753386
 10
201.08240069576212
 20
257.4593443735834
 10
201.67854785222096
 20
257.1892336110995
 10
202.26866070657002
 20
256.90618224598063
 10
202.852458397051
 20
256.6103249953467
 10
203.42966306758163
 20
256.30180267122523
 10
204.0
 20
255.98076211353316
 10
204.56319774481562
 20
255.64735612018842
 10
205.11898825040473
 20
255.30174337438658
 10
205.66710699058805
 20
254.94408836907635
 10
206.20729309053138
 20
254.57456132866974
 10
206.73928945090745
 20
254.1933381280245
 10
207.2628428702616
 20
253.80060020873705
 10
207.77770416552175
 20
253.39653449278646
 10
208.28362829059617
 20
252.98133329356935
 10
208.78037445300205
 20
252.55519422436933
 10
209.26770622846982
 20
252.11832010430373
 10
209.74539167346808
 20
251.67091886179267
 10
210.21320343559643
 20
251.21320343559643
 10
210.67091886179264
 20
250.7453916734681
 10
211.1183201043037
 20
250.26770622846982
 10
211.5551942243693
 20
249.78037445300208
 10
211.98133329356932
 20
249.2836282905962
 10
212.39653449278646
 20
248.77770416552175
 10
212.80060020873705
 20
248.26284287026164
 10
213.19333812802446
 20
247.73928945090748
 10
213.57456132866974
 20
247.20729309053138
 10
213.94408836907635
 20
246.66710699058808
 10
214.30174337438658
 20
246.11898825040473
 10
214.6473561201884
 20
245.56319774481565
 10
214.98076211353316
 20
245.0
 10
215.30180267122523
 20
244.42966306758163
 10
215.61032499534664
 20
243.85245839705104
 10
215.90618224598066
 20
243.26866070657005
 10
216.1892336110995
 20
242.678547852221
 10
216.4593443735834
 20
242.08240069576212
 10
216.7163859753386
 20
241.4805029709527
 10
216.96023607848394
 20
240.87314114851105
 10
217.19077862357724
 20
240.26060429977008
 10
217.40790388485317
 20
239.64318395909487
 10
217.6115085224468
 20
239.0211739851282
 10
217.80149563157786
 20
238.39487042092978
 10
217.97777478867204
 20
237.7645713530756
 10
218.14026209439783
 20
237.1305767697852
 10
218.288880213598
 20
236.4931884181431
 10
218.4235584120969
 20
235.85270966048387
 10
218.54423259036625
 20
235.20944533000792
 10
218.65084531403284
 20
234.56370158569752
 10
218.7433458412143
 20
233.91578576660154
 10
218.8216901466696
 20
233.26600624555894
 10
218.88584094275237
 20
232.61467228242975
 10
218.9357676971581
 20
231.9620938769043
 10
218.97144664745574
 20
231.3085816209601
 10
218.99286081239728
 20
230.65444655103684
 10
219.0
 20
230.0
  0
TEXT
  5
E7
330
17
100
AcDbEntity
  8
06-TEXTO
100
AcDbText
 10
189.0
 20
245.0
 30
0.0
 40
2.5
  1
PRESTADOR: ..........
  7
ISO3098
 72
1
 11
189.0
 21
245.0
 31
0.0
100
AcDbText
 73
2
  0
TEXT
  5
E8
330
17
100
AcDbEntity
  8
06-TEXTO
100
AcDbText
 10
189.0
 20
235.0
 30
0.0
 40
2.5
  1
PRÓX. MANTENIMIENTO: ../..
  7
ISO3098
 72
1
 11
189.0
 21
235.0
 31
0.0
100
AcDbText
 73
2
  0
TEXT
  5
E9
330
17
100
AcDbEntity
  8
06-TEXTO
100
AcDbText
 10
189.0
 20
225.0
 30
0.0
 40
2.5
  1
N° SERIE RECIPIENTE: ......
  7
ISO3098
 72
1
 11
189.0
 21
225.0
 31
0.0
100
AcDbText
 73
2
  0
TEXT
  5
EA
330
17
100
AcDbEntity
  8
06-TEXTO
100
AcDbText
 10
189.0
 20
215.0
 30
0.0
 40
2.5
  1
VENC. P. HIDROSTÁTICA: ../..
  7
ISO3098
 72
1
 11
189.0
 21
215.0
 31
0.0
100
AcDbText
 73
2
  0
TEXT
  5
EB
330
17
100
AcDbEntity
  8
06-TEXTO
100
AcDbText
 10
159.0
 20
188.0
 30
0.0
 40
3.5
  1
2  OBLEA - 9.4.14 (2:1)
  7
ISO3098
 11
159.0
 21
188.0
 31
0.0
100
AcDbText
 73
1
  0
HATCH
  5
EC
330
17
100
AcDbEntity
  8
05-RAYADO
 62
7
420
1644825
100
AcDbHatch
 10
0.0
 20
0.0
 30
0.0
210
0.0
220
0.0
230
1.0
  2
SOLID
 70
1
 71
0
 91
1
 92
3
 72
0
 73
1
 93
4
 10
279.0
 20
215.0
 10
279.0
 20
245.0
 10
239.0
 20
245.0
 10
239.0
 20
215.0
 97
0
 75
1
 76
1
 98
0
  0
TEXT
  5
ED
330
17
100
AcDbEntity
  8
06-TEXTO
420
16777215
100
AcDbText
 10
259.0
 20
230.0
 30
0.0
 40
18.0
  1
12
  7
ISO3098
 72
1
 11
259.0
 21
230.0
 31
0.0
100
AcDbText
 73
2
  0
TEXT
  5
EE
330
17
100
AcDbEntity
  8
06-TEXTO
100
AcDbText
 10
234.0
 20
188.0
 30
0.0
 40
3.5
  1
3  NUMERACIÓN - 7.2.3
  7
ISO3098
 11
234.0
 21
188.0
 31
0.0
100
AcDbText
 73
1
  0
TEXT
  5
EF
330
17
100
AcDbEntity
  8
06-TEXTO
100
AcDbText
 10
234.0
 20
207.0
 30
0.0
 40
2.5
  1
2 dígitos hasta 99; 3 hasta 999; 4 más
  7
ISO3098
 11
234.0
 21
207.0
 31
0.0
100
AcDbText
 73
1
  0
HATCH
  5
F0
330
17
100
AcDbEntity
  8
05-RAYADO
 62
7
420
16768512
100
AcDbHatch
 10
0.0
 20
0.0
 30
0.0
210
0.0
220
0.0
230
1.0
  2
SOLID
 70
1
 71
0
 91
1
 92
3
 72
0
 73
1
 93
4
 10
92.0
 20
95.0
 10
92.0
 20
155.0
 10
37.0
 20
155.0
 10
37.0
 20
95.0
 97
0
 75
1
 76
1
 98
0
  0
LWPOLYLINE
  5
F1
330
17
100
AcDbEntity
  8
01-VISIBLE
100
AcDbPolyline
 90
5
 70
1
 10
92.0
 20
95.0
 10
92.0
 20
155.0
 10
37.0
 20
155.0
 10
37.0
 20
95.0
 10
92.0
 20
95.0
  0
HATCH
  5
F2
330
17
100
AcDbEntity
  8
05-RAYADO
 62
7
420
16777215
100
AcDbHatch
 10
0.0
 20
0.0
 30
0.0
210
0.0
220
0.0
230
1.0
  2
SOLID
 70
1
 71
0
 91
1
 92
3
 72
0
 73
1
 93
4
 10
92.0
 20
80.0
 10
92.0
 20
95.0
 10
37.0
 20
95.0
 10
37.0
 20
80.0
 97
0
 75
1
 76
1
 98
0
  0
LWPOLYLINE
  5
F3
330
17
100
AcDbEntity
  8
08-FINA
100
AcDbPolyline
 90
5
 70
1
 10
92.0
 20
80.0
 10
92.0
 20
95.0
 10
37.0
 20
95.0
 10
37.0
 20
80.0
 10
92.0
 20
80.0
  0
TEXT
  5
F4
330
17
100
AcDbEntity
  8
06-TEXTO
100
AcDbText
 10
64.5
 20
87.5
 30
0.0
 40
2.5
  1
datos del PRS
  7
ISO3098
 72
1
 11
64.5
 21
87.5
 31
0.0
100
AcDbText
 73
2
  0
TEXT
  5
F5
330
17
100
AcDbEntity
  8
06-TEXTO
100
AcDbText
 10
64.5
 20
147.5
 30
0.0
 40
5.0
  1
ATENCIÓN
  7
ISO3098
 72
1
 11
64.5
 21
147.5
 31
0.0
100
AcDbText
 73
2
  0
TEXT
  5
F6
330
17
100
AcDbEntity
  8
06-TEXTO
100
AcDbText
 10
64.5
 20
137.5
 30
0.0
 40
5.0
  1
NO USAR
  7
ISO3098
 72
1
 11
64.5
 21
137.5
 31
0.0
100
AcDbText
 73
2
  0
TEXT
  5
F7
330
17
100
AcDbEntity
  8
06-TEXTO
100
AcDbText
 10
64.5
 20
127.5
 30
0.0
 40
3.5
  1
EXTINTOR
  7
ISO3098
 72
1
 11
64.5
 21
127.5
 31
0.0
100
AcDbText
 73
2
  0
TEXT
  5
F8
330
17
100
AcDbEntity
  8
06-TEXTO
100
AcDbText
 10
64.5
 20
117.5
 30
0.0
 40
3.5
  1
FUERA DE
  7
ISO3098
 72
1
 11
64.5
 21
117.5
 31
0.0
100
AcDbText
 73
2
  0
TEXT
  5
F9
330
17
100
AcDbEntity
  8
06-TEXTO
100
AcDbText
 10
64.5
 20
107.5
 30
0.0
 40
3.5
  1
SERVICIO
  7
ISO3098
 72
1
 11
64.5
 21
107.5
 31
0.0
100
AcDbText
 73
2
  0
DIMENSION
  5
FA
330
17
100
AcDbEntity
  8
04-COTA
100
AcDbDimension
280
0
  2
*D3
  3
FLAMA-IRAM
 10
37.0
 20
162.0
 30
0.0
 11
64.5
 21
164.75
 31
0.0
 70
32
 71
5
  1
<>
100
AcDbAlignedDimension
 13
37.0
 23
155.0
 33
0.0
 14
92.0
 24
155.0
 34
0.0
 50
0.0
100
AcDbRotatedDimension
1001
ACAD
1000
DSTYLE
1002
{
1070
144
1040
2.0
1002
}
  0
DIMENSION
  5
109
330
17
100
AcDbEntity
  8
04-COTA
100
AcDbDimension
280
0
  2
*D4
  3
FLAMA-IRAM
 10
99.0
 20
80.0
 30
0.0
 11
96.25
 21
87.5
 31
0.0
 70
32
 71
5
  1
<>
100
AcDbAlignedDimension
 13
92.0
 23
80.0
 33
0.0
 14
92.0
 24
95.0
 34
0.0
 50
90.0
100
AcDbRotatedDimension
1001
ACAD
1000
DSTYLE
1002
{
1070
144
1040
2.0
1002
}
  0
DIMENSION
  5
118
330
17
100
AcDbEntity
  8
04-COTA
100
AcDbDimension
280
0
  2
*D5
  3
FLAMA-IRAM
 10
99.0
 20
95.0
 30
0.0
 11
96.25
 21
125.0
 31
0.0
 70
32
 71
5
  1
<>
100
AcDbAlignedDimension
 13
92.0
 23
95.0
 33
0.0
 14
92.0
 24
155.0
 34
0.0
 50
90.0
100
AcDbRotatedDimension
1001
ACAD
1000
DSTYLE
1002
{
1070
144
1040
2.0
1002
}
  0
TEXT
  5
127
330
17
100
AcDbEntity
  8
06-TEXTO
100
AcDbText
 10
37.0
 20
73.0
 30
0.0
 40
3.5
  1
4  FUERA DE SERVICIO - figura 8 (1:2)
  7
ISO3098
 11
37.0
 21
73.0
 31
0.0
100
AcDbText
 73
1
  0
HATCH
  5
128
330
17
100
AcDbEntity
  8
05-RAYADO
 62
7
420
16777215
100
AcDbHatch
 10
0.0
 20
0.0
 30
0.0
210
0.0
220
0.0
230
1.0
  2
SOLID
 70
1
 71
0
 91
1
 92
3
 72
0
 73
1
 93
4
 10
187.0
 20
100.0
 10
187.0
 20
140.0
 10
127.0
 20
140.0
 10
127.0
 20
100.0
 97
0
 75
1
 76
1
 98
0
  0
LWPOLYLINE
  5
129
330
17
100
AcDbEntity
  8
01-VISIBLE
100
AcDbPolyline
 90
5
 70
1
 10
187.0
 20
100.0
 10
187.0
 20
140.0
 10
127.0
 20
140.0
 10
127.0
 20
100.0
 10
187.0
 20
100.0
  0
TEXT
  5
12A
330
17
100
AcDbEntity
  8
06-TEXTO
100
AcDbText
 10
157.0
 20
130.0
 30
0.0
 40
2.2
  1
EXTINTOR N° ....
  7
ISO3098
 72
1
 11
157.0
 21
130.0
 31
0.0
100
AcDbText
 73
2
  0
TEXT
  5
12B
330
17
100
AcDbEntity
  8
06-TEXTO
100
AcDbText
 10
157.0
 20
120.0
 30
0.0
 40
2.2
  1
PH: mes/año (punzonado)
  7
ISO3098
 72
1
 11
157.0
 21
120.0
 31
0.0
100
AcDbText
 73
2
  0
TEXT
  5
12C
330
17
100
AcDbEntity
  8
06-TEXTO
100
AcDbText
 10
157.0
 20
110.0
 30
0.0
 40
2.2
  1
PRS: ........
  7
ISO3098
 72
1
 11
157.0
 21
110.0
 31
0.0
100
AcDbText
 73
2
  0
DIMENSION
  5
12D
330
17
100
AcDbEntity
  8
04-COTA
100
AcDbDimension
280
0
  2
*D6
  3
FLAMA-IRAM
 10
127.0
 20
147.0
 30
0.0
 11
157.0
 21
149.75
 31
0.0
 70
32
 71
5
  1
≥ 30
100
AcDbAlignedDimension
 13
127.0
 23
140.0
 33
0.0
 14
187.0
 24
140.0
 34
0.0
 50
0.0
100
AcDbRotatedDimension
1001
ACAD
1000
DSTYLE
1002
{
1070
144
1040
0.5
1002
}
  0
DIMENSION
  5
13C
330
17
100
AcDbEntity
  8
04-COTA
100
AcDbDimension
280
0
  2
*D7
  3
FLAMA-IRAM
 10
194.0
 20
100.0
 30
0.0
 11
191.25
 21
120.0
 31
0.0
 70
32
 71
5
  1
≥ 20
100
AcDbAlignedDimension
 13
187.0
 23
100.0
 33
0.0
 14
187.0
 24
140.0
 34
0.0
 50
90.0
100
AcDbRotatedDimension
1001
ACAD
1000
DSTYLE
1002
{
1070
144
1040
0.5
1002
}
  0
TEXT
  5
14B
330
17
100
AcDbEntity
  8
06-TEXTO
100
AcDbText
 10
127.0
 20
93.0
 30
0.0
 40
3.5
  1
5  RÓTULO DE MANGUERA - 9.7.1.4 (2:1)
  7
ISO3098
 11
127.0
 21
93.0
 31
0.0
100
AcDbText
 73
1
  0
TEXT
  5
14C
330
17
100
AcDbEntity
  8
06-TEXTO
100
AcDbText
 10
127.0
 20
88.0
 30
0.0
 40
2.5
  1
plástico, fijado sin calor
  7
ISO3098
 11
127.0
 21
88.0
 31
0.0
100
AcDbText
 73
1
  0
TEXT
  5
14D
330
17
100
AcDbEntity
  8
06-TEXTO
100
AcDbText
 10
232.0
 20
160.0
 30
0.0
 40
3.5
  1
NOTAS (IRAM 3517-2:2020)
  7
ISO3098
 11
232.0
 21
160.0
 31
0.0
100
AcDbText
 73
1
  0
TEXT
  5
14E
330
17
100
AcDbEntity
  8
06-TEXTO
100
AcDbText
 10
232.0
 20
155.6
 30
0.0
 40
2.5
  1
1) Etiqueta celeste 35 × 50 en cada control, en zona visible del extintor, sin superponer;
  7
ISO3098
 11
232.0
 21
155.6
 31
0.0
100
AcDbText
 73
1
  0
TEXT
  5
14F
330
17
100
AcDbEntity
  8
06-TEXTO
100
AcDbText
 10
232.0
 20
151.2
 30
0.0
 40
2.5
  1
    se retiran en el próximo mantenimiento; nunca en el vidrio ni en el gabinete (8.3.3.1).
  7
ISO3098
 11
232.0
 21
151.2
 31
0.0
100
AcDbText
 73
1
  0
TEXT
  5
150
330
17
100
AcDbEntity
  8
06-TEXTO
100
AcDbText
 10
232.0
 20
146.8
 30
0.0
 40
2.5
  1
2) Si el control detecta anomalías: etiqueta de la figura 8 tapando las instrucciones, y se
  7
ISO3098
 11
232.0
 21
146.8
 31
0.0
100
AcDbText
 73
1
  0
TEXT
  5
151
330
17
100
AcDbEntity
  8
06-TEXTO
100
AcDbText
 10
232.0
 20
142.4
 30
0.0
 40
2.5
  1
    reemplaza por un extintor de reserva (8.3.3.2). Falta de precinto = retirar de servicio.
  7
ISO3098
 11
232.0
 21
142.4
 31
0.0
100
AcDbText
 73
1
  0
TEXT
  5
152
330
17
100
AcDbEntity
  8
06-TEXTO
100
AcDbText
 10
232.0
 20
138.0
 30
0.0
 40
2.5
  1
3) Oblea con: próximo mantenimiento, n° de serie del recipiente, vencimiento de la PH y PRS (9.4.14).
  7
ISO3098
 11
232.0
 21
138.0
 31
0.0
100
AcDbText
 73
1
  0
TEXT
  5
153
330
17
100
AcDbEntity
  8
06-TEXTO
100
AcDbText
 10
232.0
 20
133.6
 30
0.0
 40
2.5
  1
4) Extintor y puesto numerados con etiquetas autoadhesivas; número también en la chapa (7.2.3).
  7
ISO3098
 11
232.0
 21
133.6
 31
0.0
100
AcDbText
 73
1
  0
TEXT
  5
154
330
17
100
AcDbEntity
  8
06-TEXTO
100
AcDbText
 10
232.0
 20
129.2
 30
0.0
 40
2.5
  1
5) Mangueras con cierre controlado y de CO2: PH anual y rótulo 20 × 30 mm mínimo (9.7.1.4).
  7
ISO3098
 11
232.0
 21
129.2
 31
0.0
100
AcDbText
 73
1
  0
TEXT
  5
155
330
17
100
AcDbEntity
  8
06-TEXTO
100
AcDbText
 10
232.0
 20
124.8
 30
0.0
 40
2.5
  1
6) Diseños de oblea y rótulo: ilustrativos; su contenido mínimo es el indicado por la norma.
  7
ISO3098
 11
232.0
 21
124.8
 31
0.0
100
AcDbText
 73
1
  0
VIEWPORT
  5
15A
330
156
100
AcDbEntity
 67
1
  8
VIEWPORTS
100
AcDbViewport
 10
322560.0
 20
228096.0
 30
0.0
 40
709632.0
 41
501811.2
 68
1
 69
1
 12
322560.0
 22
228096.0
 13
0.0
 23
0.0
 14
10.0
 24
10.0
 15
10.0
 25
10.0
 16
0.0
 26
0.0
 36
1.0
 17
0.0
 27
0.0
 37
0.0
 42
50.0
 43
0.0
 44
0.0
 45
501811.2
 50
0.0
 51
0.0
 72
100
 90
557088
  1

281
0
 71
0
 74
0
110
0.0
120
0.0
130
0.0
111
1.0
121
0.0
131
0.0
112
0.0
122
1.0
132
0.0
 79
0
146
0.0
282
0
  0
VIEWPORT
  5
15B
330
156
100
AcDbEntity
 67
1
  8
VIEWPORTS
100
AcDbViewport
 10
210.0
 20
148.5
 30
0.0
 40
420.0
 41
297.0
 68
2
 69
3
 12
210.0
 22
148.5
 13
0.0
 23
0.0
 14
10.0
 24
10.0
 15
10.0
 25
10.0
 16
0.0
 26
0.0
 36
1.0
 17
0.0
 27
0.0
 37
0.0
 42
50.0
 43
0.0
 44
0.0
 45
297.0
 50
0.0
 51
0.0
 72
100
 90
0
  1

281
0
 71
0
 74
0
110
0.0
120
0.0
130
0.0
111
1.0
121
0.0
131
0.0
112
0.0
122
1.0
132
0.0
 79
0
146
0.0
282
0
  0
ENDSEC
  0
SECTION
  2
OBJECTS
  0
DICTIONARY
  5
A
330
0
100
AcDbDictionary
281
1
  3
ACAD_COLOR
350
B
  3
ACAD_GROUP
350
C
  3
ACAD_LAYOUT
350
D
  3
ACAD_MATERIAL
350
E
  3
ACAD_MLEADERSTYLE
350
F
  3
ACAD_MLINESTYLE
350
10
  3
ACAD_PLOTSETTINGS
350
11
  3
ACAD_PLOTSTYLENAME
350
12
  3
ACAD_SCALELIST
350
14
  3
ACAD_TABLESTYLE
350
15
  3
ACAD_VISUALSTYLE
350
16
  3
EZDXF_META
350
2D
  0
DICTIONARY
  5
B
330
A
100
AcDbDictionary
281
1
  0
DICTIONARY
  5
C
330
A
100
AcDbDictionary
281
1
  0
DICTIONARY
  5
D
330
A
100
AcDbDictionary
281
1
  3
Model
350
1A
  3
Lamina
350
159
  0
DICTIONARY
  5
E
330
A
100
AcDbDictionary
281
1
  3
ByBlock
350
1F
  3
ByLayer
350
20
  3
Global
350
21
  0
DICTIONARY
  5
F
330
A
100
AcDbDictionary
281
1
  3
Standard
350
2C
  0
DICTIONARY
  5
10
330
A
100
AcDbDictionary
281
1
  3
Standard
350
22
  0
DICTIONARY
  5
11
330
A
100
AcDbDictionary
281
1
  0
ACDBDICTIONARYWDFLT
  5
12
330
A
100
AcDbDictionary
281
1
  3
Normal
350
13
100
AcDbDictionaryWithDefault
340
13
  0
ACDBPLACEHOLDER
  5
13
330
12
  0
DICTIONARY
  5
14
330
A
100
AcDbDictionary
281
1
  0
DICTIONARY
  5
15
330
A
100
AcDbDictionary
281
1
  0
DICTIONARY
  5
16
330
A
100
AcDbDictionary
281
1
  0
LAYOUT
  5
1A
330
D
100
AcDbPlotSettings
  1

  4
A3
  6

 40
7.5
 41
20.0
 42
7.5
 43
20.0
 44
420.0
 45
297.0
 46
0.0
 47
0.0
 48
0.0
 49
0.0
140
0.0
141
0.0
142
1.0
143
1.0
 70
1024
 72
1
 73
0
 74
5
  7

 75
16
 76
0
 77
2
 78
300
147
1.0
148
0.0
149
0.0
100
AcDbLayout
  1
Model
 70
1
 71
0
 10
0.0
 20
0.0
 11
420.0
 21
297.0
 12
0.0
 22
0.0
 32
0.0
 14
1e+20
 24
1e+20
 34
1e+20
 15
-1e+20
 25
-1e+20
 35
-1e+20
146
0.0
 13
0.0
 23
0.0
 33
0.0
 16
1.0
 26
0.0
 36
0.0
 17
0.0
 27
1.0
 37
0.0
 76
1
330
17
  0
MATERIAL
  5
1F
102
{ACAD_REACTORS
330
E
102
}
330
E
100
AcDbMaterial
  1
ByBlock
  2

 70
0
 40
1.0
 71
1
 41
1.0
 91
-1023410177
 42
1.0
 72
1
  3

 73
1
 74
1
 75
1
 44
0.5
 73
0
 45
1.0
 46
1.0
 77
1
  4

 78
1
 79
1
170
1
 48
1.0
171
1
  6

172
1
173
1
174
1
140
1.0
141
1.0
175
1
  7

176
1
177
1
178
1
143
1.0
179
1
  8

270
1
271
1
272
1
145
1.0
146
1.0
273
1
  9

274
1
275
1
276
1
 42
1.0
 72
1
  3

 73
1
 74
1
 75
1
 94
63
  0
MATERIAL
  5
20
102
{ACAD_REACTORS
330
E
102
}
330
E
100
AcDbMaterial
  1
ByLayer
  2

 70
0
 40
1.0
 71
1
 41
1.0
 91
-1023410177
 42
1.0
 72
1
  3

 73
1
 74
1
 75
1
 44
0.5
 73
0
 45
1.0
 46
1.0
 77
1
  4

 78
1
 79
1
170
1
 48
1.0
171
1
  6

172
1
173
1
174
1
140
1.0
141
1.0
175
1
  7

176
1
177
1
178
1
143
1.0
179
1
  8

270
1
271
1
272
1
145
1.0
146
1.0
273
1
  9

274
1
275
1
276
1
 42
1.0
 72
1
  3

 73
1
 74
1
 75
1
 94
63
  0
MATERIAL
  5
21
102
{ACAD_REACTORS
330
E
102
}
330
E
100
AcDbMaterial
  1
Global
  2

 70
0
 40
1.0
 71
1
 41
1.0
 91
-1023410177
 42
1.0
 72
1
  3

 73
1
 74
1
 75
1
 44
0.5
 73
0
 45
1.0
 46
1.0
 77
1
  4

 78
1
 79
1
170
1
 48
1.0
171
1
  6

172
1
173
1
174
1
140
1.0
141
1.0
175
1
  7

176
1
177
1
178
1
143
1.0
179
1
  8

270
1
271
1
272
1
145
1.0
146
1.0
273
1
  9

274
1
275
1
276
1
 42
1.0
 72
1
  3

 73
1
 74
1
 75
1
 94
63
  0
MLINESTYLE
  5
22
102
{ACAD_REACTORS
330
10
102
}
330
10
100
AcDbMlineStyle
  2
Standard
 70
0
  3

 62
256
 51
90.0
 52
90.0
 71
2
 49
0.5
 62
256
  6
BYLAYER
 49
-0.5
 62
256
  6
BYLAYER
  0
MLEADERSTYLE
  5
2C
102
{ACAD_REACTORS
330
F
102
}
330
F
100
AcDbMLeaderStyle
179
2
170
2
171
1
172
0
 90
2
 40
0.0
 41
0.0
173
1
 91
-1056964608
 92
-2
290
1
 42
2.0
291
1
 43
8.0
  3
Standard
 44
4.0
300

342
29
174
1
175
1
176
0
178
1
 93
-1056964608
 45
4.0
292
0
297
0
 46
4.0
 94
-1056964608
 47
1.0
 49
1.0
140
1.0
294
1
141
0.0
177
0
142
1.0
295
0
296
0
143
3.75
271
0
272
9
273
9
  0
DICTIONARY
  5
2D
330
A
100
AcDbDictionary
280
1
281
1
  3
CREATED_BY_EZDXF
350
2E
  3
WRITTEN_BY_EZDXF
350
15E
  0
DICTIONARYVAR
  5
2E
330
2D
100
DictionaryVariables
280
0
  1
1.4.4 @ 2026-10-06T02:07:19.264209+00:00
  0
LAYOUT
  5
159
330
D
100
AcDbPlotSettings
  1

  2
DWG To PDF.pc3
  4
ISO_full_bleed_A3_(420.00_x_297.00_MM)_(420.00_x_297.00_MM)
  6

 40
0.0
 41
0.0
 42
0.0
 43
0.0
 44
420.0
 45
297.0
 46
0.0
 47
0.0
 48
0.0
 49
0.0
140
0.0
141
0.0
142
0.0078125
143
12.0
 70
672
 72
1
 73
0
 74
5
  7

 75
1
 76
0
 77
2
 78
300
147
1.0
148
0.0
149
0.0
100
AcDbLayout
  1
Lamina
 70
1
 71
3
 10
-0.0
 20
-0.0
 11
420.0
 21
297.0
 12
0.0
 22
0.0
 32
0.0
 14
1e+20
 24
1e+20
 34
1e+20
 15
-1e+20
 25
-1e+20
 35
-1e+20
146
0.0
 13
0.0
 23
0.0
 33
0.0
 16
1.0
 26
0.0
 36
0.0
 17
0.0
 27
1.0
 37
0.0
 76
1
330
156
331
15A
  0
DICTIONARYVAR
  5
15E
330
2D
100
DictionaryVariables
280
0
  1
1.4.4 @ 2026-10-06T02:07:19.284833+00:00
  0
ENDSEC
  0
EOF
