  0
SECTION
  2
HEADER
  9
$ACADVER
  1
AC1032
  9
$ACADMAINTVER
 90
4
  9
$DWGCODEPAGE
  3
ANSI_1252
  9
$LASTSAVEDBY
  1
ezdxf
  9
$REQUIREDVERSIONS
160
0
  9
$INSBASE
 10
0.0
 20
0.0
 30
0.0
  9
$EXTMIN
 10
1e+20
 20
1e+20
 30
1e+20
  9
$EXTMAX
 10
-1e+20
 20
-1e+20
 30
-1e+20
  9
$LIMMIN
 10
0.0
 20
0.0
  9
$LIMMAX
 10
420.0
 20
297.0
  9
$ORTHOMODE
 70
0
  9
$REGENMODE
 70
1
  9
$FILLMODE
 70
1
  9
$QTEXTMODE
 70
0
  9
$MIRRTEXT
 70
1
  9
$LTSCALE
 40
1.0
  9
$ATTMODE
 70
1
  9
$TEXTSIZE
 40
2.5
  9
$TRACEWID
 40
1.0
  9
$TEXTSTYLE
  7
Standard
  9
$CLAYER
  8
0
  9
$CELTYPE
  6
ByLayer
  9
$CECOLOR
 62
256
  9
$CELTSCALE
 40
1.0
  9
$DISPSILH
 70
0
  9
$DIMSCALE
 40
1.0
  9
$DIMASZ
 40
2.5
  9
$DIMEXO
 40
0.625
  9
$DIMDLI
 40
3.75
  9
$DIMRND
 40
0.0
  9
$DIMDLE
 40
0.0
  9
$DIMEXE
 40
1.25
  9
$DIMTP
 40
0.0
  9
$DIMTM
 40
0.0
  9
$DIMTXT
 40
2.5
  9
$DIMCEN
 40
2.5
  9
$DIMTSZ
 40
0.0
  9
$DIMTOL
 70
0
  9
$DIMLIM
 70
0
  9
$DIMTIH
 70
0
  9
$DIMTOH
 70
0
  9
$DIMSE1
 70
0
  9
$DIMSE2
 70
0
  9
$DIMTAD
 70
1
  9
$DIMZIN
 70
8
  9
$DIMBLK
  1

  9
$DIMASO
 70
1
  9
$DIMSHO
 70
1
  9
$DIMPOST
  1

  9
$DIMAPOST
  1

  9
$DIMALT
 70
0
  9
$DIMALTD
 70
3
  9
$DIMALTF
 40
0.03937007874
  9
$DIMLFAC
 40
1.0
  9
$DIMTOFL
 70
1
  9
$DIMTVP
 40
0.0
  9
$DIMTIX
 70
0
  9
$DIMSOXD
 70
0
  9
$DIMSAH
 70
0
  9
$DIMBLK1
  1

  9
$DIMBLK2
  1

  9
$DIMSTYLE
  2
ISO-25
  9
$DIMCLRD
 70
0
  9
$DIMCLRE
 70
0
  9
$DIMCLRT
 70
0
  9
$DIMTFAC
 40
1.0
  9
$DIMGAP
 40
0.625
  9
$DIMJUST
 70
0
  9
$DIMSD1
 70
0
  9
$DIMSD2
 70
0
  9
$DIMTOLJ
 70
0
  9
$DIMTZIN
 70
8
  9
$DIMALTZ
 70
0
  9
$DIMALTTZ
 70
0
  9
$DIMUPT
 70
0
  9
$DIMDEC
 70
2
  9
$DIMTDEC
 70
2
  9
$DIMALTU
 70
2
  9
$DIMALTTD
 70
3
  9
$DIMTXSTY
  7
Standard
  9
$DIMAUNIT
 70
0
  9
$DIMADEC
 70
0
  9
$DIMALTRND
 40
0.0
  9
$DIMAZIN
 70
0
  9
$DIMDSEP
 70
44
  9
$DIMATFIT
 70
3
  9
$DIMFRAC
 70
0
  9
$DIMLDRBLK
  1

  9
$DIMLUNIT
 70
2
  9
$DIMLWD
 70
-2
  9
$DIMLWE
 70
-2
  9
$DIMTMOVE
 70
0
  9
$DIMFXL
 40
1.0
  9
$DIMFXLON
 70
0
  9
$DIMJOGANG
 40
0.785398163397
  9
$DIMTFILL
 70
0
  9
$DIMTFILLCLR
 70
0
  9
$DIMARCSYM
 70
0
  9
$DIMLTYPE
  6

  9
$DIMLTEX1
  6

  9
$DIMLTEX2
  6

  9
$DIMTXTDIRECTION
 70
0
  9
$LUNITS
 70
2
  9
$LUPREC
 70
4
  9
$SKETCHINC
 40
1.0
  9
$FILLETRAD
 40
10.0
  9
$AUNITS
 70
0
  9
$AUPREC
 70
2
  9
$MENU
  1
.
  9
$ELEVATION
 40
0.0
  9
$PELEVATION
 40
0.0
  9
$THICKNESS
 40
0.0
  9
$LIMCHECK
 70
0
  9
$CHAMFERA
 40
0.0
  9
$CHAMFERB
 40
0.0
  9
$CHAMFERC
 40
0.0
  9
$CHAMFERD
 40
0.0
  9
$SKPOLY
 70
0
  9
$TDCREATE
 40
2461323.9816319444
  9
$TDUCREATE
 40
2458532.153996898
  9
$TDUPDATE
 40
2461323.9816319444
  9
$TDUUPDATE
 40
2458532.1544311
  9
$TDINDWG
 40
0.0
  9
$TDUSRTIMER
 40
0.0
  9
$USRTIMER
 70
1
  9
$ANGBASE
 50
0.0
  9
$ANGDIR
 70
0
  9
$PDMODE
 70
0
  9
$PDSIZE
 40
0.0
  9
$PLINEWID
 40
0.0
  9
$SPLFRAME
 70
0
  9
$SPLINETYPE
 70
6
  9
$SPLINESEGS
 70
8
  9
$HANDSEED
  5
1C3
  9
$SURFTAB1
 70
6
  9
$SURFTAB2
 70
6
  9
$SURFTYPE
 70
6
  9
$SURFU
 70
6
  9
$SURFV
 70
6
  9
$UCSBASE
  2

  9
$UCSNAME
  2

  9
$UCSORG
 10
0.0
 20
0.0
 30
0.0
  9
$UCSXDIR
 10
1.0
 20
0.0
 30
0.0
  9
$UCSYDIR
 10
0.0
 20
1.0
 30
0.0
  9
$UCSORTHOREF
  2

  9
$UCSORTHOVIEW
 70
0
  9
$UCSORGTOP
 10
0.0
 20
0.0
 30
0.0
  9
$UCSORGBOTTOM
 10
0.0
 20
0.0
 30
0.0
  9
$UCSORGLEFT
 10
0.0
 20
0.0
 30
0.0
  9
$UCSORGRIGHT
 10
0.0
 20
0.0
 30
0.0
  9
$UCSORGFRONT
 10
0.0
 20
0.0
 30
0.0
  9
$UCSORGBACK
 10
0.0
 20
0.0
 30
0.0
  9
$PUCSBASE
  2

  9
$PUCSNAME
  2

  9
$PUCSORG
 10
0.0
 20
0.0
 30
0.0
  9
$PUCSXDIR
 10
1.0
 20
0.0
 30
0.0
  9
$PUCSYDIR
 10
0.0
 20
1.0
 30
0.0
  9
$PUCSORTHOREF
  2

  9
$PUCSORTHOVIEW
 70
0
  9
$PUCSORGTOP
 10
0.0
 20
0.0
 30
0.0
  9
$PUCSORGBOTTOM
 10
0.0
 20
0.0
 30
0.0
  9
$PUCSORGLEFT
 10
0.0
 20
0.0
 30
0.0
  9
$PUCSORGRIGHT
 10
0.0
 20
0.0
 30
0.0
  9
$PUCSORGFRONT
 10
0.0
 20
0.0
 30
0.0
  9
$PUCSORGBACK
 10
0.0
 20
0.0
 30
0.0
  9
$USERI1
 70
0
  9
$USERI2
 70
0
  9
$USERI3
 70
0
  9
$USERI4
 70
0
  9
$USERI5
 70
0
  9
$USERR1
 40
0.0
  9
$USERR2
 40
0.0
  9
$USERR3
 40
0.0
  9
$USERR4
 40
0.0
  9
$USERR5
 40
0.0
  9
$WORLDVIEW
 70
1
  9
$SHADEDGE
 70
3
  9
$SHADEDIF
 70
70
  9
$TILEMODE
 70
1
  9
$MAXACTVP
 70
64
  9
$PINSBASE
 10
0.0
 20
0.0
 30
0.0
  9
$PLIMCHECK
 70
0
  9
$PEXTMIN
 10
1e+20
 20
1e+20
 30
1e+20
  9
$PEXTMAX
 10
-1e+20
 20
-1e+20
 30
-1e+20
  9
$PLIMMIN
 10
-0.0
 20
-0.0
  9
$PLIMMAX
 10
420.0
 20
297.0
  9
$UNITMODE
 70
0
  9
$VISRETAIN
 70
1
  9
$PLINEGEN
 70
0
  9
$PSLTSCALE
 70
0
  9
$TREEDEPTH
 70
3020
  9
$CMLSTYLE
  2
Standard
  9
$CMLJUST
 70
0
  9
$CMLSCALE
 40
20.0
  9
$PROXYGRAPHICS
 70
1
  9
$MEASUREMENT
 70
1
  9
$CELWEIGHT
370
-1
  9
$ENDCAPS
280
0
  9
$JOINSTYLE
280
0
  9
$LWDISPLAY
290
1
  9
$INSUNITS
 70
4
  9
$HYPERLINKBASE
  1

  9
$STYLESHEET
  1

  9
$XEDIT
290
1
  9
$CEPSNTYPE
380
0
  9
$PSTYLEMODE
290
1
  9
$FINGERPRINTGUID
  2
{2A451154-0AF9-4410-AD6B-B66A595AC0E7}
  9
$VERSIONGUID
  2
{193152BE-F220-44CF-AFEB-5DCB0C7ABF32}
  9
$EXTNAMES
290
1
  9
$PSVPSCALE
 40
0.0
  9
$OLESTARTUP
290
0
  9
$SORTENTS
280
127
  9
$INDEXCTL
280
0
  9
$HIDETEXT
280
1
  9
$XCLIPFRAME
280
1
  9
$HALOGAP
280
0
  9
$OBSCOLOR
 70
257
  9
$OBSLTYPE
280
0
  9
$INTERSECTIONDISPLAY
280
0
  9
$INTERSECTIONCOLOR
 70
257
  9
$DIMASSOC
280
2
  9
$PROJECTNAME
  1

  9
$CAMERADISPLAY
290
0
  9
$LENSLENGTH
 40
50.0
  9
$CAMERAHEIGHT
 40
0.0
  9
$STEPSPERSEC
 40
24.0
  9
$STEPSIZE
 40
100.0
  9
$3DDWFPREC
 40
2.0
  9
$PSOLWIDTH
 40
0.005
  9
$PSOLHEIGHT
 40
0.08
  9
$LOFTANG1
 40
1.570796326795
  9
$LOFTANG2
 40
1.570796326795
  9
$LOFTMAG1
 40
0.0
  9
$LOFTMAG2
 40
0.0
  9
$LOFTPARAM
 70
7
  9
$LOFTNORMALS
280
1
  9
$LATITUDE
 40
37.795
  9
$LONGITUDE
 40
-122.394
  9
$NORTHDIRECTION
 40
0.0
  9
$TIMEZONE
 70
-8000
  9
$LIGHTGLYPHDISPLAY
280
1
  9
$TILEMODELIGHTSYNCH
280
1
  9
$CMATERIAL
347
20
  9
$SOLIDHIST
280
0
  9
$SHOWHIST
280
1
  9
$DWFFRAME
280
2
  9
$DGNFRAME
280
2
  9
$REALWORLDSCALE
290
1
  9
$INTERFERECOLOR
 62
256
  9
$CSHADOW
280
0
  9
$SHADOWPLANELOCATION
 40
0.0
  0
ENDSEC
  0
SECTION
  2
CLASSES
  0
CLASS
  1
ACDBDICTIONARYWDFLT
  2
AcDbDictionaryWithDefault
  3
ObjectDBX Classes
 90
0
 91
0
280
0
281
0
  0
CLASS
  1
SUN
  2
AcDbSun
  3
SCENEOE
 90
1153
 91
0
280
0
281
0
  0
CLASS
  1
VISUALSTYLE
  2
AcDbVisualStyle
  3
ObjectDBX Classes
 90
4095
 91
0
280
0
281
0
  0
CLASS
  1
MATERIAL
  2
AcDbMaterial
  3
ObjectDBX Classes
 90
1153
 91
0
280
0
281
0
  0
CLASS
  1
SCALE
  2
AcDbScale
  3
ObjectDBX Classes
 90
1153
 91
0
280
0
281
0
  0
CLASS
  1
TABLESTYLE
  2
AcDbTableStyle
  3
ObjectDBX Classes
 90
4095
 91
0
280
0
281
0
  0
CLASS
  1
MLEADERSTYLE
  2
AcDbMLeaderStyle
  3
ACDB_MLEADERSTYLE_CLASS
 90
4095
 91
0
280
0
281
0
  0
CLASS
  1
DICTIONARYVAR
  2
AcDbDictionaryVar
  3
ObjectDBX Classes
 90
0
 91
0
280
0
281
0
  0
CLASS
  1
CELLSTYLEMAP
  2
AcDbCellStyleMap
  3
ObjectDBX Classes
 90
1152
 91
0
280
0
281
0
  0
CLASS
  1
MENTALRAYRENDERSETTINGS
  2
AcDbMentalRayRenderSettings
  3
SCENEOE
 90
1024
 91
0
280
0
281
0
  0
CLASS
  1
ACDBDETAILVIEWSTYLE
  2
AcDbDetailViewStyle
  3
ObjectDBX Classes
 90
1025
 91
0
280
0
281
0
  0
CLASS
  1
ACDBSECTIONVIEWSTYLE
  2
AcDbSectionViewStyle
  3
ObjectDBX Classes
 90
1025
 91
0
280
0
281
0
  0
CLASS
  1
RASTERVARIABLES
  2
AcDbRasterVariables
  3
ISM
 90
0
 91
0
280
0
281
0
  0
CLASS
  1
ACDBPLACEHOLDER
  2
AcDbPlaceHolder
  3
ObjectDBX Classes
 90
0
 91
0
280
0
281
0
  0
CLASS
  1
LAYOUT
  2
AcDbLayout
  3
ObjectDBX Classes
 90
0
 91
0
280
0
281
0
  0
ENDSEC
  0
SECTION
  2
TABLES
  0
TABLE
  2
VPORT
  5
8
330
0
100
AcDbSymbolTable
 70
1
  0
VPORT
  5
23
330
8
100
AcDbSymbolTableRecord
100
AcDbViewportTableRecord
  2
*Active
 70
0
 10
0.0
 20
0.0
 11
1.0
 21
1.0
 12
0.0
 22
0.0
 13
0.0
 23
0.0
 14
0.5
 24
0.5
 15
0.5
 25
0.5
 16
0.0
 26
0.0
 36
1.0
 17
0.0
 27
0.0
 37
0.0
 40
1000.0
 41
1.34
 42
50.0
 43
0.0
 44
0.0
 50
0.0
 51
0.0
 71
0
 72
1000
 73
1
 74
3
 75
0
 76
0
 77
0
 78
0
281
0
 65
0
146
0.0
  0
ENDTAB
  0
TABLE
  2
LTYPE
  5
2
330
0
100
AcDbSymbolTable
 70
6
  0
LTYPE
  5
24
330
2
100
AcDbSymbolTableRecord
100
AcDbLinetypeTableRecord
  2
ByBlock
 70
0
  3

 72
65
 73
0
 40
0.0
  0
LTYPE
  5
25
330
2
100
AcDbSymbolTableRecord
100
AcDbLinetypeTableRecord
  2
ByLayer
 70
0
  3

 72
65
 73
0
 40
0.0
  0
LTYPE
  5
26
330
2
100
AcDbSymbolTableRecord
100
AcDbLinetypeTableRecord
  2
Continuous
 70
0
  3

 72
65
 73
0
 40
0.0
  0
LTYPE
  5
2F
330
2
100
AcDbSymbolTableRecord
100
AcDbLinetypeTableRecord
  2
IRAM-E-TRAZOS
 70
0
  3
IRAM 4502 E - trazos __ __ __
 72
65
 73
2
 40
5.0
 49
4.0
 74
0
 49
-1.0
 74
0
  0
LTYPE
  5
30
330
2
100
AcDbSymbolTableRecord
100
AcDbLinetypeTableRecord
  2
IRAM-F-TRAZO-PUNTO
 70
0
  3
IRAM 4502 F - trazo largo y trazo corto ____ _ ____
 72
65
 73
4
 40
20.0
 49
15.0
 74
0
 49
-2.0
 74
0
 49
1.0
 74
0
 49
-2.0
 74
0
  0
LTYPE
  5
31
330
2
100
AcDbSymbolTableRecord
100
AcDbLinetypeTableRecord
  2
ISO02-TRAZOS
 70
0
  3
ISO 2553 / ISO 128 tipo 02 - línea de identificación de trazos
 72
65
 73
2
 40
4.5
 49
3.0
 74
0
 49
-1.5
 74
0
  0
ENDTAB
  0
TABLE
  2
LAYER
  5
1
330
0
100
AcDbSymbolTable
 70
15
  0
LAYER
  5
27
330
1
100
AcDbSymbolTableRecord
100
AcDbLayerTableRecord
  2
0
 70
0
 62
7
  6
Continuous
370
-3
390
13
347
21
  0
LAYER
  5
28
330
1
100
AcDbSymbolTableRecord
100
AcDbLayerTableRecord
  2
Defpoints
 70
0
 62
7
  6
Continuous
290
0
370
-3
390
13
347
21
  0
LAYER
  5
32
330
1
100
AcDbSymbolTableRecord
100
AcDbLayerTableRecord
  2
01-VISIBLE
 70
0
 62
7
  6
CONTINUOUS
370
70
390
13
347
21
1001
AcAecLayerStandard
1000

1000
A continua gruesa: contornos y aristas visibles
  0
LAYER
  5
34
330
1
100
AcDbSymbolTableRecord
100
AcDbLayerTableRecord
  2
02-OCULTA
 70
0
 62
4
  6
IRAM-E-TRAZOS
370
35
390
13
347
21
1001
AcAecLayerStandard
1000

1000
E de trazos media: contornos y aristas ocultos
  0
LAYER
  5
35
330
1
100
AcDbSymbolTableRecord
100
AcDbLayerTableRecord
  2
03-EJE
 70
0
 62
1
  6
IRAM-F-TRAZO-PUNTO
370
18
390
13
347
21
1001
AcAecLayerStandard
1000

1000
F trazo largo y corto fina: ejes, simetrías, trayectorias
  0
LAYER
  5
36
330
1
100
AcDbSymbolTableRecord
100
AcDbLayerTableRecord
  2
04-COTA
 70
0
 62
3
  6
CONTINUOUS
370
18
390
13
347
21
1001
AcAecLayerStandard
1000

1000
B continua fina: líneas de cota y auxiliares
  0
LAYER
  5
37
330
1
100
AcDbSymbolTableRecord
100
AcDbLayerTableRecord
  2
05-RAYADO
 70
0
 62
8
  6
CONTINUOUS
370
18
390
13
347
21
1001
AcAecLayerStandard
1000

1000
B continua fina: rayados IRAM 4509
  0
LAYER
  5
38
330
1
100
AcDbSymbolTableRecord
100
AcDbLayerTableRecord
  2
06-TEXTO
 70
0
 62
7
  6
CONTINUOUS
370
25
390
13
347
21
1001
AcAecLayerStandard
1000

1000
Escritura IRAM 4503 tipo B (trazo h/10)
  0
LAYER
  5
39
330
1
100
AcDbSymbolTableRecord
100
AcDbLayerTableRecord
  2
07-RECUADRO
 70
0
 62
7
  6
CONTINUOUS
370
70
390
13
347
21
1001
AcAecLayerStandard
1000

1000
Recuadro IRAM 4504
  0
LAYER
  5
3A
330
1
100
AcDbSymbolTableRecord
100
AcDbLayerTableRecord
  2
08-FINA
 70
0
 62
5
  6
CONTINUOUS
370
18
390
13
347
21
1001
AcAecLayerStandard
1000

1000
B continua fina: referencias, fondos de rosca, contornos de detalle
  0
LAYER
  5
3B
330
1
100
AcDbSymbolTableRecord
100
AcDbLayerTableRecord
  2
09-PLANO-CORTE
 70
0
 62
1
  6
IRAM-F-TRAZO-PUNTO
370
18
390
13
347
21
1001
AcAecLayerStandard
1000

1000
G trazo largo y corto fina con extremos gruesos: planos de corte
  0
LAYER
  5
3C
330
1
100
AcDbSymbolTableRecord
100
AcDbLayerTableRecord
  2
10-ROTULO
 70
0
 62
7
  6
CONTINUOUS
370
35
390
13
347
21
1001
AcAecLayerStandard
1000

1000
Rótulo y lista de materiales IRAM 4508
  0
LAYER
  5
3D
330
1
100
AcDbSymbolTableRecord
100
AcDbLayerTableRecord
  2
11-TEXTO-ROTULO
 70
0
 62
7
  6
CONTINUOUS
370
25
390
13
347
21
1001
AcAecLayerStandard
1000

1000
Escritura del rótulo
  0
LAYER
  5
3E
330
1
100
AcDbSymbolTableRecord
100
AcDbLayerTableRecord
  2
12-SOLDADURA
 70
0
 62
6
  6
CONTINUOUS
370
18
390
13
347
21
1001
AcAecLayerStandard
1000

1000
Símbolos de soldadura
  0
LAYER
  5
3F
330
1
100
AcDbSymbolTableRecord
100
AcDbLayerTableRecord
  2
13-GRAFICA
 70
0
 62
30
  6
CONTINUOUS
370
18
390
13
347
21
1001
AcAecLayerStandard
1000

1000
Gráfica impresa representada a escala (etiqueta, sellos, señales): textos del objeto, no anotación del plano
  0
ENDTAB
  0
TABLE
  2
STYLE
  5
5
330
0
100
AcDbSymbolTable
 70
2
  0
STYLE
  5
29
330
5
100
AcDbSymbolTableRecord
100
AcDbTextStyleTableRecord
  2
Standard
 70
0
 40
0.0
 41
1.0
 50
0.0
 71
0
 42
2.5
  3
txt
  4

  0
STYLE
  5
40
330
5
100
AcDbSymbolTableRecord
100
AcDbTextStyleTableRecord
  2
ISO3098
 70
0
 40
0.0
 41
1.0
 50
0.0
 71
0
 42
2.5
  3
isocpeur.ttf
  4

  0
ENDTAB
  0
TABLE
  2
VIEW
  5
7
330
0
100
AcDbSymbolTable
 70
0
  0
ENDTAB
  0
TABLE
  2
UCS
  5
6
330
0
100
AcDbSymbolTable
 70
0
  0
ENDTAB
  0
TABLE
  2
APPID
  5
3
330
0
100
AcDbSymbolTable
 70
4
  0
APPID
  5
2A
330
3
100
AcDbSymbolTableRecord
100
AcDbRegAppTableRecord
  2
ACAD
 70
0
  0
APPID
  5
33
330
3
100
AcDbSymbolTableRecord
100
AcDbRegAppTableRecord
  2
AcAecLayerStandard
 70
0
  0
APPID
  5
1C0
330
3
100
AcDbSymbolTableRecord
100
AcDbRegAppTableRecord
  2
HATCHBACKGROUNDCOLOR
 70
0
  0
APPID
  5
1C1
330
3
100
AcDbSymbolTableRecord
100
AcDbRegAppTableRecord
  2
EZDXF
 70
0
  0
ENDTAB
  0
TABLE
  2
DIMSTYLE
  5
4
330
0
100
AcDbSymbolTable
 70
2
100
AcDbDimStyleTable
  0
DIMSTYLE
105
2B
330
4
100
AcDbSymbolTableRecord
100
AcDbDimStyleTableRecord
  2
Standard
 70
0
 40
1.0
 41
2.5
 42
0.625
 43
3.75
 44
1.25
 45
0.0
 46
0.0
 47
0.0
 48
0.0
 49
2.5
140
2.5
141
2.5
142
0.0
143
0.03937007874
144
1.0
145
0.0
146
1.0
147
0.625
148
0.0
 69
0
 70
0
 71
0
 72
0
 73
0
 74
0
 75
0
 76
0
 77
1
 78
8
 79
3
170
0
171
3
172
1
173
0
174
0
175
0
176
0
177
0
178
0
179
2
271
2
272
2
273
2
274
3
275
0
276
0
277
2
278
44
279
0
280
0
281
0
282
0
283
0
284
8
285
0
286
0
288
0
289
3
290
0
371
-2
372
-2
  0
DIMSTYLE
105
45
330
4
100
AcDbSymbolTableRecord
100
AcDbDimStyleTableRecord
  2
FLAMA-IRAM
 70
0
 40
1.0
 41
3.5
 42
1.5
 43
3.75
 44
2.0
 45
0.0
 46
0.0
 47
0.0
 48
0.0
 49
2.5
140
3.5
141
2.5
142
0.0
143
0.03937007874
144
1.0
145
0.0
146
1.0
147
1.0
148
0.0
 69
0
 70
0
 71
0
 72
0
 73
0
 74
0
 75
0
 76
0
 77
1
 78
8
 79
3
170
0
171
3
172
1
173
0
174
0
175
0
176
7
177
7
178
7
179
2
271
1
272
2
273
2
274
3
275
0
276
0
277
2
278
44
279
0
280
0
281
0
282
0
283
0
284
8
285
0
286
0
288
0
289
3
290
0
340
40
342
41
343
41
344
41
371
18
372
18
  0
ENDTAB
  0
TABLE
  2
BLOCK_RECORD
  5
9
330
0
100
AcDbSymbolTable
 70
8
  0
BLOCK_RECORD
  5
17
330
9
100
AcDbSymbolTableRecord
100
AcDbBlockTableRecord
  2
*Model_Space
340
1A
 70
0
280
1
281
0
  0
BLOCK_RECORD
  5
41
330
9
100
AcDbSymbolTableRecord
100
AcDbBlockTableRecord
  2
IRAM_FLECHA
340
0
 70
0
280
1
281
0
  0
BLOCK_RECORD
  5
C8
330
9
100
AcDbSymbolTableRecord
100
AcDbBlockTableRecord
  2
*D1
340
0
 70
0
280
1
281
0
  0
BLOCK_RECORD
  5
E1
330
9
100
AcDbSymbolTableRecord
100
AcDbBlockTableRecord
  2
*D2
340
0
 70
0
280
1
281
0
  0
BLOCK_RECORD
  5
FA
330
9
100
AcDbSymbolTableRecord
100
AcDbBlockTableRecord
  2
*D3
340
0
 70
0
280
1
281
0
  0
BLOCK_RECORD
  5
113
330
9
100
AcDbSymbolTableRecord
100
AcDbBlockTableRecord
  2
*D4
340
0
 70
0
280
1
281
0
  0
BLOCK_RECORD
  5
12B
330
9
100
AcDbSymbolTableRecord
100
AcDbBlockTableRecord
  2
*D5
340
0
 70
0
280
1
281
0
  0
BLOCK_RECORD
  5
1BA
330
9
100
AcDbSymbolTableRecord
100
AcDbBlockTableRecord
  2
*Paper_Space
340
1BD
 70
0
280
1
281
0
  0
ENDTAB
  0
ENDSEC
  0
SECTION
  2
BLOCKS
  0
BLOCK
  5
18
330
17
100
AcDbEntity
  8
0
100
AcDbBlockBegin
  2
*Model_Space
 70
0
 10
0.0
 20
0.0
 30
0.0
  3
*Model_Space
  1

  0
ENDBLK
  5
19
330
17
100
AcDbEntity
  8
0
100
AcDbBlockEnd
  0
BLOCK
  5
42
330
41
100
AcDbEntity
  8
0
100
AcDbBlockBegin
  2
IRAM_FLECHA
 70
0
 10
0.0
 20
0.0
 30
0.0
  3
IRAM_FLECHA
  1

  0
SOLID
  5
44
330
41
100
AcDbEntity
  8
0
100
AcDbTrace
 10
0.0
 20
0.0
 30
0.0
 11
-1.0
 21
0.125
 31
0.0
 12
-1.0
 22
-0.125
 32
0.0
 13
-1.0
 23
-0.125
 33
0.0
  0
ENDBLK
  5
43
330
41
100
AcDbEntity
  8
0
100
AcDbBlockEnd
  0
BLOCK
  5
C9
330
C8
100
AcDbEntity
  8
0
100
AcDbBlockBegin
  2
*D1
 70
1
 10
0.0
 20
0.0
 30
0.0
  3
*D1
  1

  0
LINE
  5
CB
330
C8
100
AcDbEntity
  8
0
 62
7
370
18
100
AcDbLine
 10
74.5
 20
232.0
 30
0.0
 11
81.0
 21
232.0
 31
0.0
  0
LINE
  5
CC
330
C8
100
AcDbEntity
  8
0
 62
7
370
18
100
AcDbLine
 10
74.5
 20
262.0
 30
0.0
 11
81.0
 21
262.0
 31
0.0
  0
INSERT
  5
CD
330
C8
100
AcDbEntity
  8
04-COTA
 62
7
100
AcDbBlockReference
  2
IRAM_FLECHA
 10
79.0
 20
232.0
 30
0.0
 41
3.5
 42
3.5
 50
270.0
  0
INSERT
  5
CF
330
C8
100
AcDbEntity
  8
04-COTA
 62
7
100
AcDbBlockReference
  2
IRAM_FLECHA
 10
79.0
 20
262.0
 30
0.0
 41
3.5
 42
3.5
 50
90.0
  0
LINE
  5
D1
330
C8
100
AcDbEntity
  8
0
 62
7
370
18
100
AcDbLine
 10
79.0
 20
235.5
 30
0.0
 11
79.0
 21
258.5
 31
0.0
  0
MTEXT
  5
D2
330
C8
100
AcDbEntity
  8
04-COTA
 62
7
100
AcDbMText
 10
76.25
 20
247.0
 30
0.0
 40
3.5
 71
5
  1
≥ 12
  7
ISO3098
 50
90.0
  0
POINT
  5
D3
330
C8
100
AcDbEntity
  8
Defpoints
100
AcDbPoint
 10
79.0
 20
232.0
 30
0.0
  0
POINT
  5
D4
330
C8
100
AcDbEntity
  8
Defpoints
100
AcDbPoint
 10
73.0
 20
232.0
 30
0.0
  0
POINT
  5
D5
330
C8
100
AcDbEntity
  8
Defpoints
100
AcDbPoint
 10
73.0
 20
262.0
 30
0.0
  0
ENDBLK
  5
CA
330
C8
100
AcDbEntity
  8
0
100
AcDbBlockEnd
  0
BLOCK
  5
E2
330
E1
100
AcDbEntity
  8
0
100
AcDbBlockBegin
  2
*D2
 70
1
 10
0.0
 20
0.0
 30
0.0
  3
*D2
  1

  0
LINE
  5
E4
330
E1
100
AcDbEntity
  8
0
 62
7
370
18
100
AcDbLine
 10
144.5
 20
232.0
 30
0.0
 11
151.0
 21
232.0
 31
0.0
  0
LINE
  5
E5
330
E1
100
AcDbEntity
  8
0
 62
7
370
18
100
AcDbLine
 10
144.5
 20
262.0
 30
0.0
 11
151.0
 21
262.0
 31
0.0
  0
INSERT
  5
E6
330
E1
100
AcDbEntity
  8
04-COTA
 62
7
100
AcDbBlockReference
  2
IRAM_FLECHA
 10
149.0
 20
232.0
 30
0.0
 41
3.5
 42
3.5
 50
270.0
  0
INSERT
  5
E8
330
E1
100
AcDbEntity
  8
04-COTA
 62
7
100
AcDbBlockReference
  2
IRAM_FLECHA
 10
149.0
 20
262.0
 30
0.0
 41
3.5
 42
3.5
 50
90.0
  0
LINE
  5
EA
330
E1
100
AcDbEntity
  8
0
 62
7
370
18
100
AcDbLine
 10
149.0
 20
235.5
 30
0.0
 11
149.0
 21
258.5
 31
0.0
  0
MTEXT
  5
EB
330
E1
100
AcDbEntity
  8
04-COTA
 62
7
100
AcDbMText
 10
146.25
 20
247.0
 30
0.0
 40
3.5
 71
5
  1
≥ 12
  7
ISO3098
 50
90.0
  0
POINT
  5
EC
330
E1
100
AcDbEntity
  8
Defpoints
100
AcDbPoint
 10
149.0
 20
232.0
 30
0.0
  0
POINT
  5
ED
330
E1
100
AcDbEntity
  8
Defpoints
100
AcDbPoint
 10
143.0
 20
232.0
 30
0.0
  0
POINT
  5
EE
330
E1
100
AcDbEntity
  8
Defpoints
100
AcDbPoint
 10
143.0
 20
262.0
 30
0.0
  0
ENDBLK
  5
E3
330
E1
100
AcDbEntity
  8
0
100
AcDbBlockEnd
  0
BLOCK
  5
FB
330
FA
100
AcDbEntity
  8
0
100
AcDbBlockBegin
  2
*D3
 70
1
 10
0.0
 20
0.0
 30
0.0
  3
*D3
  1

  0
LINE
  5
FD
330
FA
100
AcDbEntity
  8
0
 62
7
370
18
100
AcDbLine
 10
214.5
 20
232.0
 30
0.0
 11
221.0
 21
232.0
 31
0.0
  0
LINE
  5
FE
330
FA
100
AcDbEntity
  8
0
 62
7
370
18
100
AcDbLine
 10
214.5
 20
262.0
 30
0.0
 11
221.0
 21
262.0
 31
0.0
  0
INSERT
  5
FF
330
FA
100
AcDbEntity
  8
04-COTA
 62
7
100
AcDbBlockReference
  2
IRAM_FLECHA
 10
219.0
 20
232.0
 30
0.0
 41
3.5
 42
3.5
 50
270.0
  0
INSERT
  5
101
330
FA
100
AcDbEntity
  8
04-COTA
 62
7
100
AcDbBlockReference
  2
IRAM_FLECHA
 10
219.0
 20
262.0
 30
0.0
 41
3.5
 42
3.5
 50
90.0
  0
LINE
  5
103
330
FA
100
AcDbEntity
  8
0
 62
7
370
18
100
AcDbLine
 10
219.0
 20
235.5
 30
0.0
 11
219.0
 21
258.5
 31
0.0
  0
MTEXT
  5
104
330
FA
100
AcDbEntity
  8
04-COTA
 62
7
100
AcDbMText
 10
216.25
 20
247.0
 30
0.0
 40
3.5
 71
5
  1
≥ 12
  7
ISO3098
 50
90.0
  0
POINT
  5
105
330
FA
100
AcDbEntity
  8
Defpoints
100
AcDbPoint
 10
219.0
 20
232.0
 30
0.0
  0
POINT
  5
106
330
FA
100
AcDbEntity
  8
Defpoints
100
AcDbPoint
 10
213.0
 20
232.0
 30
0.0
  0
POINT
  5
107
330
FA
100
AcDbEntity
  8
Defpoints
100
AcDbPoint
 10
213.0
 20
262.0
 30
0.0
  0
ENDBLK
  5
FC
330
FA
100
AcDbEntity
  8
0
100
AcDbBlockEnd
  0
BLOCK
  5
114
330
113
100
AcDbEntity
  8
0
100
AcDbBlockBegin
  2
*D4
 70
1
 10
0.0
 20
0.0
 30
0.0
  3
*D4
  1

  0
LINE
  5
116
330
113
100
AcDbEntity
  8
0
 62
7
370
18
100
AcDbLine
 10
284.5
 20
232.0
 30
0.0
 11
291.0
 21
232.0
 31
0.0
  0
LINE
  5
117
330
113
100
AcDbEntity
  8
0
 62
7
370
18
100
AcDbLine
 10
284.5
 20
262.0
 30
0.0
 11
291.0
 21
262.0
 31
0.0
  0
INSERT
  5
118
330
113
100
AcDbEntity
  8
04-COTA
 62
7
100
AcDbBlockReference
  2
IRAM_FLECHA
 10
289.0
 20
232.0
 30
0.0
 41
3.5
 42
3.5
 50
270.0
  0
INSERT
  5
11A
330
113
100
AcDbEntity
  8
04-COTA
 62
7
100
AcDbBlockReference
  2
IRAM_FLECHA
 10
289.0
 20
262.0
 30
0.0
 41
3.5
 42
3.5
 50
90.0
  0
LINE
  5
11C
330
113
100
AcDbEntity
  8
0
 62
7
370
18
100
AcDbLine
 10
289.0
 20
235.5
 30
0.0
 11
289.0
 21
258.5
 31
0.0
  0
MTEXT
  5
11D
330
113
100
AcDbEntity
  8
04-COTA
 62
7
100
AcDbMText
 10
286.25
 20
247.0
 30
0.0
 40
3.5
 71
5
  1
≥ 12
  7
ISO3098
 50
90.0
  0
POINT
  5
11E
330
113
100
AcDbEntity
  8
Defpoints
100
AcDbPoint
 10
289.0
 20
232.0
 30
0.0
  0
POINT
  5
11F
330
113
100
AcDbEntity
  8
Defpoints
100
AcDbPoint
 10
283.0
 20
232.0
 30
0.0
  0
POINT
  5
120
330
113
100
AcDbEntity
  8
Defpoints
100
AcDbPoint
 10
283.0
 20
262.0
 30
0.0
  0
ENDBLK
  5
115
330
113
100
AcDbEntity
  8
0
100
AcDbBlockEnd
  0
BLOCK
  5
12C
330
12B
100
AcDbEntity
  8
0
100
AcDbBlockBegin
  2
*D5
 70
1
 10
0.0
 20
0.0
 30
0.0
  3
*D5
  1

  0
LINE
  5
12E
330
12B
100
AcDbEntity
  8
0
 62
7
370
18
100
AcDbLine
 10
354.5
 20
232.0
 30
0.0
 11
361.0
 21
232.0
 31
0.0
  0
LINE
  5
12F
330
12B
100
AcDbEntity
  8
0
 62
7
370
18
100
AcDbLine
 10
354.5
 20
262.0
 30
0.0
 11
361.0
 21
262.0
 31
0.0
  0
INSERT
  5
130
330
12B
100
AcDbEntity
  8
04-COTA
 62
7
100
AcDbBlockReference
  2
IRAM_FLECHA
 10
359.0
 20
232.0
 30
0.0
 41
3.5
 42
3.5
 50
270.0
  0
INSERT
  5
132
330
12B
100
AcDbEntity
  8
04-COTA
 62
7
100
AcDbBlockReference
  2
IRAM_FLECHA
 10
359.0
 20
262.0
 30
0.0
 41
3.5
 42
3.5
 50
90.0
  0
LINE
  5
134
330
12B
100
AcDbEntity
  8
0
 62
7
370
18
100
AcDbLine
 10
359.0
 20
235.5
 30
0.0
 11
359.0
 21
258.5
 31
0.0
  0
MTEXT
  5
135
330
12B
100
AcDbEntity
  8
04-COTA
 62
7
100
AcDbMText
 10
356.25
 20
247.0
 30
0.0
 40
3.5
 71
5
  1
≥ 12
  7
ISO3098
 50
90.0
  0
POINT
  5
136
330
12B
100
AcDbEntity
  8
Defpoints
100
AcDbPoint
 10
359.0
 20
232.0
 30
0.0
  0
POINT
  5
137
330
12B
100
AcDbEntity
  8
Defpoints
100
AcDbPoint
 10
353.0
 20
232.0
 30
0.0
  0
POINT
  5
138
330
12B
100
AcDbEntity
  8
Defpoints
100
AcDbPoint
 10
353.0
 20
262.0
 30
0.0
  0
ENDBLK
  5
12D
330
12B
100
AcDbEntity
  8
0
100
AcDbBlockEnd
  0
BLOCK
  5
1BB
330
1BA
100
AcDbEntity
  8
0
100
AcDbBlockBegin
  2
*Paper_Space
 70
0
 10
0.0
 20
0.0
 30
0.0
  3
*Paper_Space
  1

  0
ENDBLK
  5
1BC
330
1BA
100
AcDbEntity
  8
0
100
AcDbBlockEnd
  0
ENDSEC
  0
SECTION
  2
ENTITIES
  0
LWPOLYLINE
  5
46
330
17
100
AcDbEntity
  8
08-FINA
100
AcDbPolyline
 90
4
 70
1
 10
0.0
 20
0.0
 10
420.0
 20
0.0
 10
420.0
 20
297.0
 10
0.0
 20
297.0
  0
LWPOLYLINE
  5
47
330
17
100
AcDbEntity
  8
07-RECUADRO
100
AcDbPolyline
 90
4
 70
1
 10
25.0
 20
10.0
 10
410.0
 20
10.0
 10
410.0
 20
287.0
 10
25.0
 20
287.0
  0
LINE
  5
48
330
17
100
AcDbEntity
  8
07-RECUADRO
100
AcDbLine
 10
210.0
 20
0.0
 30
0.0
 11
210.0
 21
15.0
 31
0.0
  0
LINE
  5
49
330
17
100
AcDbEntity
  8
07-RECUADRO
100
AcDbLine
 10
210.0
 20
297.0
 30
0.0
 11
210.0
 21
282.0
 31
0.0
  0
LINE
  5
4A
330
17
100
AcDbEntity
  8
07-RECUADRO
100
AcDbLine
 10
0.0
 20
148.5
 30
0.0
 11
30.0
 21
148.5
 31
0.0
  0
LINE
  5
4B
330
17
100
AcDbEntity
  8
07-RECUADRO
100
AcDbLine
 10
420.0
 20
148.5
 30
0.0
 11
405.0
 21
148.5
 31
0.0
  0
LINE
  5
4C
330
17
100
AcDbEntity
  8
08-FINA
100
AcDbLine
 10
60.0
 20
10.0
 30
0.0
 11
60.0
 21
5.0
 31
0.0
  0
LINE
  5
4D
330
17
100
AcDbEntity
  8
08-FINA
100
AcDbLine
 10
60.0
 20
287.0
 30
0.0
 11
60.0
 21
292.0
 31
0.0
  0
LINE
  5
4E
330
17
100
AcDbEntity
  8
08-FINA
100
AcDbLine
 10
110.0
 20
10.0
 30
0.0
 11
110.0
 21
5.0
 31
0.0
  0
LINE
  5
4F
330
17
100
AcDbEntity
  8
08-FINA
100
AcDbLine
 10
110.0
 20
287.0
 30
0.0
 11
110.0
 21
292.0
 31
0.0
  0
LINE
  5
50
330
17
100
AcDbEntity
  8
08-FINA
100
AcDbLine
 10
160.0
 20
10.0
 30
0.0
 11
160.0
 21
5.0
 31
0.0
  0
LINE
  5
51
330
17
100
AcDbEntity
  8
08-FINA
100
AcDbLine
 10
160.0
 20
287.0
 30
0.0
 11
160.0
 21
292.0
 31
0.0
  0
LINE
  5
52
330
17
100
AcDbEntity
  8
08-FINA
100
AcDbLine
 10
260.0
 20
10.0
 30
0.0
 11
260.0
 21
5.0
 31
0.0
  0
LINE
  5
53
330
17
100
AcDbEntity
  8
08-FINA
100
AcDbLine
 10
260.0
 20
287.0
 30
0.0
 11
260.0
 21
292.0
 31
0.0
  0
LINE
  5
54
330
17
100
AcDbEntity
  8
08-FINA
100
AcDbLine
 10
310.0
 20
10.0
 30
0.0
 11
310.0
 21
5.0
 31
0.0
  0
LINE
  5
55
330
17
100
AcDbEntity
  8
08-FINA
100
AcDbLine
 10
310.0
 20
287.0
 30
0.0
 11
310.0
 21
292.0
 31
0.0
  0
LINE
  5
56
330
17
100
AcDbEntity
  8
08-FINA
100
AcDbLine
 10
360.0
 20
10.0
 30
0.0
 11
360.0
 21
5.0
 31
0.0
  0
LINE
  5
57
330
17
100
AcDbEntity
  8
08-FINA
100
AcDbLine
 10
360.0
 20
287.0
 30
0.0
 11
360.0
 21
292.0
 31
0.0
  0
LINE
  5
58
330
17
100
AcDbEntity
  8
08-FINA
100
AcDbLine
 10
25.0
 20
48.5
 30
0.0
 11
20.0
 21
48.5
 31
0.0
  0
LINE
  5
59
330
17
100
AcDbEntity
  8
08-FINA
100
AcDbLine
 10
410.0
 20
48.5
 30
0.0
 11
415.0
 21
48.5
 31
0.0
  0
LINE
  5
5A
330
17
100
AcDbEntity
  8
08-FINA
100
AcDbLine
 10
25.0
 20
98.5
 30
0.0
 11
20.0
 21
98.5
 31
0.0
  0
LINE
  5
5B
330
17
100
AcDbEntity
  8
08-FINA
100
AcDbLine
 10
410.0
 20
98.5
 30
0.0
 11
415.0
 21
98.5
 31
0.0
  0
LINE
  5
5C
330
17
100
AcDbEntity
  8
08-FINA
100
AcDbLine
 10
25.0
 20
198.5
 30
0.0
 11
20.0
 21
198.5
 31
0.0
  0
LINE
  5
5D
330
17
100
AcDbEntity
  8
08-FINA
100
AcDbLine
 10
410.0
 20
198.5
 30
0.0
 11
415.0
 21
198.5
 31
0.0
  0
LINE
  5
5E
330
17
100
AcDbEntity
  8
08-FINA
100
AcDbLine
 10
25.0
 20
248.5
 30
0.0
 11
20.0
 21
248.5
 31
0.0
  0
LINE
  5
5F
330
17
100
AcDbEntity
  8
08-FINA
100
AcDbLine
 10
410.0
 20
248.5
 30
0.0
 11
415.0
 21
248.5
 31
0.0
  0
TEXT
  5
60
330
17
100
AcDbEntity
  8
06-TEXTO
100
AcDbText
 10
42.5
 20
5.0
 30
0.0
 40
3.5
  1
1
  7
ISO3098
 72
1
 11
42.5
 21
5.0
 31
0.0
100
AcDbText
 73
2
  0
TEXT
  5
61
330
17
100
AcDbEntity
  8
06-TEXTO
100
AcDbText
 10
42.5
 20
292.0
 30
0.0
 40
3.5
  1
1
  7
ISO3098
 72
1
 11
42.5
 21
292.0
 31
0.0
100
AcDbText
 73
2
  0
TEXT
  5
62
330
17
100
AcDbEntity
  8
06-TEXTO
100
AcDbText
 10
85.0
 20
5.0
 30
0.0
 40
3.5
  1
2
  7
ISO3098
 72
1
 11
85.0
 21
5.0
 31
0.0
100
AcDbText
 73
2
  0
TEXT
  5
63
330
17
100
AcDbEntity
  8
06-TEXTO
100
AcDbText
 10
85.0
 20
292.0
 30
0.0
 40
3.5
  1
2
  7
ISO3098
 72
1
 11
85.0
 21
292.0
 31
0.0
100
AcDbText
 73
2
  0
TEXT
  5
64
330
17
100
AcDbEntity
  8
06-TEXTO
100
AcDbText
 10
135.0
 20
5.0
 30
0.0
 40
3.5
  1
3
  7
ISO3098
 72
1
 11
135.0
 21
5.0
 31
0.0
100
AcDbText
 73
2
  0
TEXT
  5
65
330
17
100
AcDbEntity
  8
06-TEXTO
100
AcDbText
 10
135.0
 20
292.0
 30
0.0
 40
3.5
  1
3
  7
ISO3098
 72
1
 11
135.0
 21
292.0
 31
0.0
100
AcDbText
 73
2
  0
TEXT
  5
66
330
17
100
AcDbEntity
  8
06-TEXTO
100
AcDbText
 10
185.0
 20
5.0
 30
0.0
 40
3.5
  1
4
  7
ISO3098
 72
1
 11
185.0
 21
5.0
 31
0.0
100
AcDbText
 73
2
  0
TEXT
  5
67
330
17
100
AcDbEntity
  8
06-TEXTO
100
AcDbText
 10
185.0
 20
292.0
 30
0.0
 40
3.5
  1
4
  7
ISO3098
 72
1
 11
185.0
 21
292.0
 31
0.0
100
AcDbText
 73
2
  0
TEXT
  5
68
330
17
100
AcDbEntity
  8
06-TEXTO
100
AcDbText
 10
235.0
 20
5.0
 30
0.0
 40
3.5
  1
5
  7
ISO3098
 72
1
 11
235.0
 21
5.0
 31
0.0
100
AcDbText
 73
2
  0
TEXT
  5
69
330
17
100
AcDbEntity
  8
06-TEXTO
100
AcDbText
 10
235.0
 20
292.0
 30
0.0
 40
3.5
  1
5
  7
ISO3098
 72
1
 11
235.0
 21
292.0
 31
0.0
100
AcDbText
 73
2
  0
TEXT
  5
6A
330
17
100
AcDbEntity
  8
06-TEXTO
100
AcDbText
 10
285.0
 20
5.0
 30
0.0
 40
3.5
  1
6
  7
ISO3098
 72
1
 11
285.0
 21
5.0
 31
0.0
100
AcDbText
 73
2
  0
TEXT
  5
6B
330
17
100
AcDbEntity
  8
06-TEXTO
100
AcDbText
 10
285.0
 20
292.0
 30
0.0
 40
3.5
  1
6
  7
ISO3098
 72
1
 11
285.0
 21
292.0
 31
0.0
100
AcDbText
 73
2
  0
TEXT
  5
6C
330
17
100
AcDbEntity
  8
06-TEXTO
100
AcDbText
 10
335.0
 20
5.0
 30
0.0
 40
3.5
  1
7
  7
ISO3098
 72
1
 11
335.0
 21
5.0
 31
0.0
100
AcDbText
 73
2
  0
TEXT
  5
6D
330
17
100
AcDbEntity
  8
06-TEXTO
100
AcDbText
 10
335.0
 20
292.0
 30
0.0
 40
3.5
  1
7
  7
ISO3098
 72
1
 11
335.0
 21
292.0
 31
0.0
100
AcDbText
 73
2
  0
TEXT
  5
6E
330
17
100
AcDbEntity
  8
06-TEXTO
100
AcDbText
 10
385.0
 20
5.0
 30
0.0
 40
3.5
  1
8
  7
ISO3098
 72
1
 11
385.0
 21
5.0
 31
0.0
100
AcDbText
 73
2
  0
TEXT
  5
6F
330
17
100
AcDbEntity
  8
06-TEXTO
100
AcDbText
 10
385.0
 20
292.0
 30
0.0
 40
3.5
  1
8
  7
ISO3098
 72
1
 11
385.0
 21
292.0
 31
0.0
100
AcDbText
 73
2
  0
TEXT
  5
70
330
17
100
AcDbEntity
  8
06-TEXTO
100
AcDbText
 10
15.0
 20
29.25
 30
0.0
 40
3.5
  1
F
  7
ISO3098
 72
1
 11
15.0
 21
29.25
 31
0.0
100
AcDbText
 73
2
  0
TEXT
  5
71
330
17
100
AcDbEntity
  8
06-TEXTO
100
AcDbText
 10
415.0
 20
29.25
 30
0.0
 40
3.5
  1
F
  7
ISO3098
 72
1
 11
415.0
 21
29.25
 31
0.0
100
AcDbText
 73
2
  0
TEXT
  5
72
330
17
100
AcDbEntity
  8
06-TEXTO
100
AcDbText
 10
15.0
 20
73.5
 30
0.0
 40
3.5
  1
E
  7
ISO3098
 72
1
 11
15.0
 21
73.5
 31
0.0
100
AcDbText
 73
2
  0
TEXT
  5
73
330
17
100
AcDbEntity
  8
06-TEXTO
100
AcDbText
 10
415.0
 20
73.5
 30
0.0
 40
3.5
  1
E
  7
ISO3098
 72
1
 11
415.0
 21
73.5
 31
0.0
100
AcDbText
 73
2
  0
TEXT
  5
74
330
17
100
AcDbEntity
  8
06-TEXTO
100
AcDbText
 10
15.0
 20
123.5
 30
0.0
 40
3.5
  1
D
  7
ISO3098
 72
1
 11
15.0
 21
123.5
 31
0.0
100
AcDbText
 73
2
  0
TEXT
  5
75
330
17
100
AcDbEntity
  8
06-TEXTO
100
AcDbText
 10
415.0
 20
123.5
 30
0.0
 40
3.5
  1
D
  7
ISO3098
 72
1
 11
415.0
 21
123.5
 31
0.0
100
AcDbText
 73
2
  0
TEXT
  5
76
330
17
100
AcDbEntity
  8
06-TEXTO
100
AcDbText
 10
15.0
 20
173.5
 30
0.0
 40
3.5
  1
C
  7
ISO3098
 72
1
 11
15.0
 21
173.5
 31
0.0
100
AcDbText
 73
2
  0
TEXT
  5
77
330
17
100
AcDbEntity
  8
06-TEXTO
100
AcDbText
 10
415.0
 20
173.5
 30
0.0
 40
3.5
  1
C
  7
ISO3098
 72
1
 11
415.0
 21
173.5
 31
0.0
100
AcDbText
 73
2
  0
TEXT
  5
78
330
17
100
AcDbEntity
  8
06-TEXTO
100
AcDbText
 10
15.0
 20
223.5
 30
0.0
 40
3.5
  1
B
  7
ISO3098
 72
1
 11
15.0
 21
223.5
 31
0.0
100
AcDbText
 73
2
  0
TEXT
  5
79
330
17
100
AcDbEntity
  8
06-TEXTO
100
AcDbText
 10
415.0
 20
223.5
 30
0.0
 40
3.5
  1
B
  7
ISO3098
 72
1
 11
415.0
 21
223.5
 31
0.0
100
AcDbText
 73
2
  0
TEXT
  5
7A
330
17
100
AcDbEntity
  8
06-TEXTO
100
AcDbText
 10
15.0
 20
267.75
 30
0.0
 40
3.5
  1
A
  7
ISO3098
 72
1
 11
15.0
 21
267.75
 31
0.0
100
AcDbText
 73
2
  0
TEXT
  5
7B
330
17
100
AcDbEntity
  8
06-TEXTO
100
AcDbText
 10
415.0
 20
267.75
 30
0.0
 40
3.5
  1
A
  7
ISO3098
 72
1
 11
415.0
 21
267.75
 31
0.0
100
AcDbText
 73
2
  0
LWPOLYLINE
  5
7C
330
17
100
AcDbEntity
  8
10-ROTULO
100
AcDbPolyline
 90
4
 70
1
 10
235.0
 20
56.0
 10
249.0
 20
56.0
 10
249.0
 20
61.0
 10
235.0
 20
61.0
  0
LWPOLYLINE
  5
7D
330
17
100
AcDbEntity
  8
10-ROTULO
100
AcDbPolyline
 90
4
 70
1
 10
249.0
 20
56.0
 10
265.0
 20
56.0
 10
265.0
 20
61.0
 10
249.0
 20
61.0
  0
TEXT
  5
7E
330
17
100
AcDbEntity
  8
11-TEXTO-ROTULO
100
AcDbText
 10
257.0
 20
58.5
 30
0.0
 40
2.5
  1
Fecha
  7
ISO3098
 72
1
 11
257.0
 21
58.5
 31
0.0
100
AcDbText
 73
2
  0
LWPOLYLINE
  5
7F
330
17
100
AcDbEntity
  8
10-ROTULO
100
AcDbPolyline
 90
4
 70
1
 10
265.0
 20
56.0
 10
290.0
 20
56.0
 10
290.0
 20
61.0
 10
265.0
 20
61.0
  0
TEXT
  5
80
330
17
100
AcDbEntity
  8
11-TEXTO-ROTULO
100
AcDbText
 10
277.5
 20
58.5
 30
0.0
 40
2.5
  1
Nombre
  7
ISO3098
 72
1
 11
277.5
 21
58.5
 31
0.0
100
AcDbText
 73
2
  0
LWPOLYLINE
  5
81
330
17
100
AcDbEntity
  8
10-ROTULO
100
AcDbPolyline
 90
4
 70
1
 10
235.0
 20
50.0
 10
249.0
 20
50.0
 10
249.0
 20
56.0
 10
235.0
 20
56.0
  0
TEXT
  5
82
330
17
100
AcDbEntity
  8
11-TEXTO-ROTULO
100
AcDbText
 10
236.5
 20
53.0
 30
0.0
 40
2.5
  1
Dibujó
  7
ISO3098
 11
236.5
 21
53.0
 31
0.0
100
AcDbText
 73
2
  0
LWPOLYLINE
  5
83
330
17
100
AcDbEntity
  8
10-ROTULO
100
AcDbPolyline
 90
4
 70
1
 10
249.0
 20
50.0
 10
265.0
 20
50.0
 10
265.0
 20
56.0
 10
249.0
 20
56.0
  0
TEXT
  5
84
330
17
100
AcDbEntity
  8
11-TEXTO-ROTULO
100
AcDbText
 10
257.0
 20
53.0
 30
0.0
 40
2.5
  1
28/09/26
  7
ISO3098
 72
1
 11
257.0
 21
53.0
 31
0.0
100
AcDbText
 73
2
  0
LWPOLYLINE
  5
85
330
17
100
AcDbEntity
  8
10-ROTULO
100
AcDbPolyline
 90
4
 70
1
 10
265.0
 20
50.0
 10
290.0
 20
50.0
 10
290.0
 20
56.0
 10
265.0
 20
56.0
  0
TEXT
  5
86
330
17
100
AcDbEntity
  8
11-TEXTO-ROTULO
100
AcDbText
 10
277.5
 20
53.0
 30
0.0
 40
2.5
  1
T. Sinay
  7
ISO3098
 72
1
 11
277.5
 21
53.0
 31
0.0
100
AcDbText
 73
2
  0
LWPOLYLINE
  5
87
330
17
100
AcDbEntity
  8
10-ROTULO
100
AcDbPolyline
 90
4
 70
1
 10
235.0
 20
44.0
 10
249.0
 20
44.0
 10
249.0
 20
50.0
 10
235.0
 20
50.0
  0
TEXT
  5
88
330
17
100
AcDbEntity
  8
11-TEXTO-ROTULO
100
AcDbText
 10
236.5
 20
47.0
 30
0.0
 40
2.5
  1
Revisó
  7
ISO3098
 11
236.5
 21
47.0
 31
0.0
100
AcDbText
 73
2
  0
LWPOLYLINE
  5
89
330
17
100
AcDbEntity
  8
10-ROTULO
100
AcDbPolyline
 90
4
 70
1
 10
249.0
 20
44.0
 10
265.0
 20
44.0
 10
265.0
 20
50.0
 10
249.0
 20
50.0
  0
LWPOLYLINE
  5
8A
330
17
100
AcDbEntity
  8
10-ROTULO
100
AcDbPolyline
 90
4
 70
1
 10
265.0
 20
44.0
 10
290.0
 20
44.0
 10
290.0
 20
50.0
 10
265.0
 20
50.0
  0
LWPOLYLINE
  5
8B
330
17
100
AcDbEntity
  8
10-ROTULO
100
AcDbPolyline
 90
4
 70
1
 10
235.0
 20
38.0
 10
249.0
 20
38.0
 10
249.0
 20
44.0
 10
235.0
 20
44.0
  0
TEXT
  5
8C
330
17
100
AcDbEntity
  8
11-TEXTO-ROTULO
100
AcDbText
 10
236.5
 20
41.0
 30
0.0
 40
2.5
  1
Aprobó
  7
ISO3098
 11
236.5
 21
41.0
 31
0.0
100
AcDbText
 73
2
  0
LWPOLYLINE
  5
8D
330
17
100
AcDbEntity
  8
10-ROTULO
100
AcDbPolyline
 90
4
 70
1
 10
249.0
 20
38.0
 10
265.0
 20
38.0
 10
265.0
 20
44.0
 10
249.0
 20
44.0
  0
LWPOLYLINE
  5
8E
330
17
100
AcDbEntity
  8
10-ROTULO
100
AcDbPolyline
 90
4
 70
1
 10
265.0
 20
38.0
 10
290.0
 20
38.0
 10
290.0
 20
44.0
 10
265.0
 20
44.0
  0
LWPOLYLINE
  5
8F
330
17
100
AcDbEntity
  8
10-ROTULO
100
AcDbPolyline
 90
4
 70
1
 10
235.0
 20
24.0
 10
255.0
 20
24.0
 10
255.0
 20
38.0
 10
235.0
 20
38.0
  0
TEXT
  5
90
330
17
100
AcDbEntity
  8
11-TEXTO-ROTULO
100
AcDbText
 10
236.0
 20
37.0
 30
0.0
 40
1.8
  1
Escala
  7
ISO3098
 11
236.0
 21
37.0
 31
0.0
100
AcDbText
 73
3
  0
TEXT
  5
91
330
17
100
AcDbEntity
  8
11-TEXTO-ROTULO
100
AcDbText
 10
245.0
 20
29.6
 30
0.0
 40
5.0
  1
2:1
  7
ISO3098
 72
1
 11
245.0
 21
29.6
 31
0.0
100
AcDbText
 73
2
  0
LWPOLYLINE
  5
92
330
17
100
AcDbEntity
  8
10-ROTULO
100
AcDbPolyline
 90
4
 70
1
 10
255.0
 20
24.0
 10
290.0
 20
24.0
 10
290.0
 20
38.0
 10
255.0
 20
38.0
  0
TEXT
  5
93
330
17
100
AcDbEntity
  8
11-TEXTO-ROTULO
100
AcDbText
 10
256.0
 20
37.0
 30
0.0
 40
1.8
  1
Método de proyección
  7
ISO3098
 11
256.0
 21
37.0
 31
0.0
100
AcDbText
 73
3
  0
CIRCLE
  5
94
330
17
100
AcDbEntity
  8
01-VISIBLE
100
AcDbCircle
 10
265.0
 20
29.5
 30
0.0
 40
2.5
  0
CIRCLE
  5
95
330
17
100
AcDbEntity
  8
01-VISIBLE
100
AcDbCircle
 10
265.0
 20
29.5
 30
0.0
 40
1.25
  0
LWPOLYLINE
  5
96
330
17
100
AcDbEntity
  8
01-VISIBLE
100
AcDbPolyline
 90
4
 70
1
 10
270.0
 20
27.0
 10
275.0
 20
28.25
 10
275.0
 20
30.75
 10
270.0
 20
32.0
  0
LINE
  5
97
330
17
100
AcDbEntity
  8
03-EJE
100
AcDbLine
 10
261.0
 20
29.5
 30
0.0
 11
276.5
 21
29.5
 31
0.0
  0
LINE
  5
98
330
17
100
AcDbEntity
  8
03-EJE
100
AcDbLine
 10
265.0
 20
25.5
 30
0.0
 11
265.0
 21
33.5
 31
0.0
  0
TEXT
  5
99
330
17
100
AcDbEntity
  8
11-TEXTO-ROTULO
100
AcDbText
 10
286.5
 20
29.5
 30
0.0
 40
2.5
  1
ISO E
  7
ISO3098
 72
2
 11
286.5
 21
29.5
 31
0.0
100
AcDbText
 73
2
  0
LWPOLYLINE
  5
9A
330
17
100
AcDbEntity
  8
10-ROTULO
100
AcDbPolyline
 90
4
 70
1
 10
235.0
 20
10.0
 10
268.0
 20
10.0
 10
268.0
 20
24.0
 10
235.0
 20
24.0
  0
TEXT
  5
9B
330
17
100
AcDbEntity
  8
11-TEXTO-ROTULO
100
AcDbText
 10
236.0
 20
23.0
 30
0.0
 40
1.8
  1
Tolerancias generales
  7
ISO3098
 11
236.0
 21
23.0
 31
0.0
100
AcDbText
 73
3
  0
TEXT
  5
9C
330
17
100
AcDbEntity
  8
11-TEXTO-ROTULO
100
AcDbText
 10
251.5
 20
15.6
 30
0.0
 40
3.5
  1
ISO 2768-m
  7
ISO3098
 72
1
 11
251.5
 21
15.6
 31
0.0
100
AcDbText
 73
2
  0
LWPOLYLINE
  5
9D
330
17
100
AcDbEntity
  8
10-ROTULO
100
AcDbPolyline
 90
4
 70
1
 10
268.0
 20
10.0
 10
290.0
 20
10.0
 10
290.0
 20
24.0
 10
268.0
 20
24.0
  0
TEXT
  5
9E
330
17
100
AcDbEntity
  8
11-TEXTO-ROTULO
100
AcDbText
 10
269.0
 20
23.0
 30
0.0
 40
1.8
  1
Formato
  7
ISO3098
 11
269.0
 21
23.0
 31
0.0
100
AcDbText
 73
3
  0
TEXT
  5
9F
330
17
100
AcDbEntity
  8
11-TEXTO-ROTULO
100
AcDbText
 10
279.0
 20
15.6
 30
0.0
 40
3.5
  1
A3
  7
ISO3098
 72
1
 11
279.0
 21
15.6
 31
0.0
100
AcDbText
 73
2
  0
LWPOLYLINE
  5
A0
330
17
100
AcDbEntity
  8
10-ROTULO
100
AcDbPolyline
 90
4
 70
1
 10
290.0
 20
49.0
 10
360.0
 20
49.0
 10
360.0
 20
61.0
 10
290.0
 20
61.0
  0
TEXT
  5
A1
330
17
100
AcDbEntity
  8
11-TEXTO-ROTULO
100
AcDbText
 10
291.0
 20
60.0
 30
0.0
 40
1.8
  1
Propietario
  7
ISO3098
 11
291.0
 21
60.0
 31
0.0
100
AcDbText
 73
3
  0
TEXT
  5
A2
330
17
100
AcDbEntity
  8
11-TEXTO-ROTULO
100
AcDbText
 10
325.0
 20
53.6
 30
0.0
 40
5.0
  1
FLAMA S.A.
  7
ISO3098
 72
1
 11
325.0
 21
53.6
 31
0.0
100
AcDbText
 73
2
  0
LWPOLYLINE
  5
A3
330
17
100
AcDbEntity
  8
10-ROTULO
100
AcDbPolyline
 90
4
 70
1
 10
290.0
 20
22.0
 10
360.0
 20
22.0
 10
360.0
 20
49.0
 10
290.0
 20
49.0
  0
TEXT
  5
A4
330
17
100
AcDbEntity
  8
11-TEXTO-ROTULO
100
AcDbText
 10
291.0
 20
48.0
 30
0.0
 40
1.8
  1
Denominación
  7
ISO3098
 11
291.0
 21
48.0
 31
0.0
100
AcDbText
 73
3
  0
TEXT
  5
A5
330
17
100
AcDbEntity
  8
11-TEXTO-ROTULO
100
AcDbText
 10
325.0
 20
35.0
 30
0.0
 40
5.0
  1
Tipos de fuego
  7
ISO3098
 72
1
 11
325.0
 21
35.0
 31
0.0
100
AcDbText
 73
2
  0
TEXT
  5
A6
330
17
100
AcDbEntity
  8
11-TEXTO-ROTULO
100
AcDbText
 10
325.0
 20
25.5
 30
0.0
 40
1.8
  1
IRAM 3517-2:2020 - 7.2.2 y figura 1
  7
ISO3098
 72
1
 11
325.0
 21
25.5
 31
0.0
100
AcDbText
 73
2
  0
LWPOLYLINE
  5
A7
330
17
100
AcDbEntity
  8
10-ROTULO
100
AcDbPolyline
 90
4
 70
1
 10
290.0
 20
10.0
 10
360.0
 20
10.0
 10
360.0
 20
22.0
 10
290.0
 20
22.0
  0
TEXT
  5
A8
330
17
100
AcDbEntity
  8
11-TEXTO-ROTULO
100
AcDbText
 10
291.0
 20
21.0
 30
0.0
 40
1.8
  1
Tipo de documento
  7
ISO3098
 11
291.0
 21
21.0
 31
0.0
100
AcDbText
 73
3
  0
TEXT
  5
A9
330
17
100
AcDbEntity
  8
11-TEXTO-ROTULO
100
AcDbText
 10
325.0
 20
14.6
 30
0.0
 40
3.5
  1
Plano de señalética
  7
ISO3098
 72
1
 11
325.0
 21
14.6
 31
0.0
100
AcDbText
 73
2
  0
LWPOLYLINE
  5
AA
330
17
100
AcDbEntity
  8
10-ROTULO
100
AcDbPolyline
 90
4
 70
1
 10
360.0
 20
53.0
 10
410.0
 20
53.0
 10
410.0
 20
61.0
 10
360.0
 20
61.0
  0
TEXT
  5
AB
330
17
100
AcDbEntity
  8
11-TEXTO-ROTULO
100
AcDbText
 10
361.0
 20
60.0
 30
0.0
 40
1.8
  1
Reemplaza a / Reemplazado por
  7
ISO3098
 11
361.0
 21
60.0
 31
0.0
100
AcDbText
 73
3
  0
TEXT
  5
AC
330
17
100
AcDbEntity
  8
11-TEXTO-ROTULO
100
AcDbText
 10
385.0
 20
55.6
 30
0.0
 40
1.8
  1
-
  7
ISO3098
 72
1
 11
385.0
 21
55.6
 31
0.0
100
AcDbText
 73
2
  0
LWPOLYLINE
  5
AD
330
17
100
AcDbEntity
  8
10-ROTULO
100
AcDbPolyline
 90
4
 70
1
 10
360.0
 20
43.0
 10
410.0
 20
43.0
 10
410.0
 20
53.0
 10
360.0
 20
53.0
  0
TEXT
  5
AE
330
17
100
AcDbEntity
  8
11-TEXTO-ROTULO
100
AcDbText
 10
361.0
 20
52.0
 30
0.0
 40
1.8
  1
Material
  7
ISO3098
 11
361.0
 21
52.0
 31
0.0
100
AcDbText
 73
3
  0
TEXT
  5
AF
330
17
100
AcDbEntity
  8
11-TEXTO-ROTULO
100
AcDbText
 10
385.0
 20
46.6
 30
0.0
 40
2.5
  1
Ver notas
  7
ISO3098
 72
1
 11
385.0
 21
46.6
 31
0.0
100
AcDbText
 73
2
  0
LWPOLYLINE
  5
B0
330
17
100
AcDbEntity
  8
10-ROTULO
100
AcDbPolyline
 90
4
 70
1
 10
360.0
 20
33.0
 10
382.0
 20
33.0
 10
382.0
 20
43.0
 10
360.0
 20
43.0
  0
TEXT
  5
B1
330
17
100
AcDbEntity
  8
11-TEXTO-ROTULO
100
AcDbText
 10
361.0
 20
42.0
 30
0.0
 40
1.8
  1
Edición
  7
ISO3098
 11
361.0
 21
42.0
 31
0.0
100
AcDbText
 73
3
  0
TEXT
  5
B2
330
17
100
AcDbEntity
  8
11-TEXTO-ROTULO
100
AcDbText
 10
371.0
 20
36.6
 30
0.0
 40
3.5
  1
1
  7
ISO3098
 72
1
 11
371.0
 21
36.6
 31
0.0
100
AcDbText
 73
2
  0
LWPOLYLINE
  5
B3
330
17
100
AcDbEntity
  8
10-ROTULO
100
AcDbPolyline
 90
4
 70
1
 10
382.0
 20
33.0
 10
410.0
 20
33.0
 10
410.0
 20
43.0
 10
382.0
 20
43.0
  0
TEXT
  5
B4
330
17
100
AcDbEntity
  8
11-TEXTO-ROTULO
100
AcDbText
 10
383.0
 20
42.0
 30
0.0
 40
1.8
  1
Fecha de emisión
  7
ISO3098
 11
383.0
 21
42.0
 31
0.0
100
AcDbText
 73
3
  0
TEXT
  5
B5
330
17
100
AcDbEntity
  8
11-TEXTO-ROTULO
100
AcDbText
 10
396.0
 20
36.6
 30
0.0
 40
2.5
  1
28/09/2026
  7
ISO3098
 72
1
 11
396.0
 21
36.6
 31
0.0
100
AcDbText
 73
2
  0
LWPOLYLINE
  5
B6
330
17
100
AcDbEntity
  8
10-ROTULO
100
AcDbPolyline
 90
4
 70
1
 10
360.0
 20
23.0
 10
382.0
 20
23.0
 10
382.0
 20
33.0
 10
360.0
 20
33.0
  0
TEXT
  5
B7
330
17
100
AcDbEntity
  8
11-TEXTO-ROTULO
100
AcDbText
 10
361.0
 20
32.0
 30
0.0
 40
1.8
  1
Hoja
  7
ISO3098
 11
361.0
 21
32.0
 31
0.0
100
AcDbText
 73
3
  0
TEXT
  5
B8
330
17
100
AcDbEntity
  8
11-TEXTO-ROTULO
100
AcDbText
 10
371.0
 20
26.6
 30
0.0
 40
3.5
  1
1 / 1
  7
ISO3098
 72
1
 11
371.0
 21
26.6
 31
0.0
100
AcDbText
 73
2
  0
LWPOLYLINE
  5
B9
330
17
100
AcDbEntity
  8
10-ROTULO
100
AcDbPolyline
 90
4
 70
1
 10
382.0
 20
23.0
 10
410.0
 20
23.0
 10
410.0
 20
33.0
 10
382.0
 20
33.0
  0
TEXT
  5
BA
330
17
100
AcDbEntity
  8
11-TEXTO-ROTULO
100
AcDbText
 10
383.0
 20
32.0
 30
0.0
 40
1.8
  1
Idioma
  7
ISO3098
 11
383.0
 21
32.0
 31
0.0
100
AcDbText
 73
3
  0
TEXT
  5
BB
330
17
100
AcDbEntity
  8
11-TEXTO-ROTULO
100
AcDbText
 10
396.0
 20
26.6
 30
0.0
 40
3.5
  1
es
  7
ISO3098
 72
1
 11
396.0
 21
26.6
 31
0.0
100
AcDbText
 73
2
  0
LWPOLYLINE
  5
BC
330
17
100
AcDbEntity
  8
10-ROTULO
100
AcDbPolyline
 90
4
 70
1
 10
360.0
 20
10.0
 10
410.0
 20
10.0
 10
410.0
 20
23.0
 10
360.0
 20
23.0
  0
TEXT
  5
BD
330
17
100
AcDbEntity
  8
11-TEXTO-ROTULO
100
AcDbText
 10
361.0
 20
22.0
 30
0.0
 40
1.8
  1
N° de plano
  7
ISO3098
 11
361.0
 21
22.0
 31
0.0
100
AcDbText
 73
3
  0
TEXT
  5
BE
330
17
100
AcDbEntity
  8
11-TEXTO-ROTULO
100
AcDbText
 10
385.0
 20
15.1
 30
0.0
 40
5.0
  1
FL_SEN_03
  7
ISO3098
 72
1
 11
385.0
 21
15.1
 31
0.0
100
AcDbText
 73
2
  0
LWPOLYLINE
  5
BF
330
17
100
AcDbEntity
  8
07-RECUADRO
100
AcDbPolyline
 90
4
 70
1
 10
235.0
 20
10.0
 10
410.0
 20
10.0
 10
410.0
 20
61.0
 10
235.0
 20
61.0
  0
TEXT
  5
C0
330
17
100
AcDbEntity
  8
06-TEXTO
100
AcDbText
 10
35.0
 20
275.0
 30
0.0
 40
3.5
  1
SÍMBOLO (letra en forma de contorno, espesor e)
  7
ISO3098
 11
35.0
 21
275.0
 31
0.0
100
AcDbText
 73
1
  0
TEXT
  5
C1
330
17
100
AcDbEntity
  8
06-TEXTO
100
AcDbText
 10
35.0
 20
202.0
 30
0.0
 40
3.5
  1
PICTOGRAMA
  7
ISO3098
 11
35.0
 21
202.0
 31
0.0
100
AcDbText
 73
1
  0
HATCH
  5
C2
330
17
100
AcDbEntity
  8
05-RAYADO
 62
7
420
37190
100
AcDbHatch
 10
0.0
 20
0.0
 30
0.0
210
0.0
220
0.0
230
1.0
  2
SOLID
 70
1
 71
0
 91
1
 92
3
 72
0
 73
1
 93
4
 10
37.67949192431122
 20
232.0
 10
42.403266854044524
 20
240.1818181818182
 10
42.403266854044524
 20
234.72727272727272
 10
42.403266854044524
 20
232.0
 97
0
 75
1
 76
1
 98
0
  0
HATCH
  5
C3
330
17
100
AcDbEntity
  8
05-RAYADO
 62
7
420
37190
100
AcDbHatch
 10
0.0
 20
0.0
 30
0.0
210
0.0
220
0.0
230
1.0
  2
SOLID
 70
1
 71
0
 91
1
 92
3
 72
0
 73
1
 93
6
 10
67.59673314595547
 20
240.1818181818182
 10
67.59673314595547
 20
234.72727272727272
 10
55.0
 20
256.54545454545456
 10
42.403266854044524
 20
234.72727272727272
 10
42.403266854044524
 20
240.1818181818182
 10
55.0
 20
262.0
 97
0
 75
1
 76
1
 98
0
  0
HATCH
  5
C4
330
17
100
AcDbEntity
  8
05-RAYADO
 62
7
420
37190
100
AcDbHatch
 10
0.0
 20
0.0
 30
0.0
210
0.0
220
0.0
230
1.0
  2
SOLID
 70
1
 71
0
 91
1
 92
3
 72
0
 73
1
 93
4
 10
42.403266854044524
 20
232.0
 10
42.403266854044524
 20
234.72727272727272
 10
67.59673314595547
 20
234.72727272727272
 10
67.59673314595547
 20
232.0
 97
0
 75
1
 76
1
 98
0
  0
HATCH
  5
C5
330
17
100
AcDbEntity
  8
05-RAYADO
 62
7
420
37190
100
AcDbHatch
 10
0.0
 20
0.0
 30
0.0
210
0.0
220
0.0
230
1.0
  2
SOLID
 70
1
 71
0
 91
1
 92
3
 72
0
 73
1
 93
4
 10
72.32050807568878
 20
232.0
 10
67.59673314595547
 20
232.0
 10
67.59673314595547
 20
234.72727272727272
 10
67.59673314595547
 20
240.1818181818182
 97
0
 75
1
 76
1
 98
0
  0
TEXT
  5
C6
330
17
100
AcDbEntity
  8
13-GRAFICA
420
37190
100
AcDbText
 10
55.0
 20
241.9
 30
0.0
 40
13.090909090909092
  1
A
  7
ISO3098
 72
1
 11
55.0
 21
241.9
 31
0.0
100
AcDbText
 73
2
  0
DIMENSION
  5
C7
330
17
100
AcDbEntity
  8
04-COTA
100
AcDbDimension
280
0
  2
*D1
  3
FLAMA-IRAM
 10
79.0
 20
232.0
 30
0.0
 11
76.25
 21
247.0
 31
0.0
 70
32
 71
5
  1
≥ 12
100
AcDbAlignedDimension
 13
73.0
 23
232.0
 33
0.0
 14
73.0
 24
262.0
 34
0.0
 50
90.0
100
AcDbRotatedDimension
1001
ACAD
1000
DSTYLE
1002
{
1070
144
1040
0.5
1002
}
  0
HATCH
  5
D6
330
17
100
AcDbEntity
  8
05-RAYADO
 62
7
420
37190
100
AcDbHatch
 10
0.0
 20
0.0
 30
0.0
210
0.0
220
0.0
230
1.0
  2
SOLID
 70
1
 71
0
 91
1
 92
3
 72
0
 73
1
 93
68
 10
73.0
 20
159.16
 10
72.98959900961195
 20
158.94828297688815
 10
72.95849620567098
 20
158.73860490444517
 10
72.90699112518158
 20
158.53298509713036
 10
72.83557979022439
 20
158.3334037860914
 10
72.74494993099245
 20
158.14178304845584
 10
72.6359743625735
 20
157.95996829667766
 10
72.50970257926352
 20
157.78971050620652
 10
72.36735064736294
 20
157.63264935263706
 10
72.21028949379348
 20
157.49029742073648
 10
72.04003170332234
 20
157.3640256374265
 10
71.85821695154416
 20
157.25505006900755
 10
71.66659621390859
 20
157.1644202097756
 10
71.46701490286964
 20
157.09300887481842
 10
71.26139509555485
 20
157.04150379432903
 10
71.05171702311185
 20
157.01040099038806
 10
70.84
 20
157.0
 10
39.16
 20
157.0
 10
38.948282976888144
 20
157.01040099038806
 10
38.73860490444516
 20
157.04150379432903
 10
38.53298509713036
 20
157.09300887481842
 10
38.3334037860914
 20
157.1644202097756
 10
38.14178304845584
 20
157.25505006900755
 10
37.95996829667766
 20
157.3640256374265
 10
37.78971050620652
 20
157.49029742073648
 10
37.63264935263705
 20
157.63264935263706
 10
37.49029742073648
 20
157.78971050620652
 10
37.3640256374265
 20
157.95996829667766
 10
37.25505006900755
 20
158.14178304845584
 10
37.164420209775614
 20
158.3334037860914
 10
37.09300887481842
 20
158.53298509713036
 10
37.04150379432902
 20
158.73860490444517
 10
37.01040099038805
 20
158.94828297688815
 10
37.0
 20
159.16
 10
37.0
 20
190.84
 10
37.01040099038805
 20
191.05171702311185
 10
37.04150379432902
 20
191.26139509555483
 10
37.09300887481842
 20
191.46701490286964
 10
37.164420209775614
 20
191.6665962139086
 10
37.25505006900755
 20
191.85821695154416
 10
37.3640256374265
 20
192.04003170332234
 10
37.49029742073648
 20
192.21028949379348
 10
37.63264935263705
 20
192.36735064736294
 10
37.789710506206525
 20
192.50970257926352
 10
37.95996829667766
 20
192.6359743625735
 10
38.14178304845584
 20
192.74494993099245
 10
38.3334037860914
 20
192.8355797902244
 10
38.53298509713036
 20
192.90699112518158
 10
38.73860490444516
 20
192.95849620567097
 10
38.948282976888144
 20
192.98959900961194
 10
39.16
 20
193.0
 10
70.84
 20
193.0
 10
71.05171702311185
 20
192.98959900961194
 10
71.26139509555485
 20
192.95849620567097
 10
71.46701490286964
 20
192.90699112518158
 10
71.66659621390859
 20
192.8355797902244
 10
71.85821695154416
 20
192.74494993099245
 10
72.04003170332234
 20
192.6359743625735
 10
72.21028949379348
 20
192.50970257926352
 10
72.36735064736294
 20
192.36735064736294
 10
72.50970257926352
 20
192.21028949379348
 10
72.6359743625735
 20
192.04003170332234
 10
72.74494993099245
 20
191.85821695154416
 10
72.83557979022439
 20
191.6665962139086
 10
72.90699112518158
 20
191.46701490286964
 10
72.95849620567098
 20
191.26139509555483
 10
72.98959900961195
 20
191.05171702311185
 10
73.0
 20
190.84
 97
0
 75
1
 76
1
 98
0
  0
HATCH
  5
D7
330
17
100
AcDbEntity
  8
05-RAYADO
 62
7
420
16777215
100
AcDbHatch
 10
0.0
 20
0.0
 30
0.0
210
0.0
220
0.0
230
1.0
  2
SOLID
 70
1
 71
0
 91
1
 92
3
 72
0
 73
1
 93
17
 10
39.519999999999996
 20
177.88
 10
39.519999999999996
 20
179.68
 10
43.263999999999996
 20
179.68
 10
42.688
 20
183.71200000000002
 10
44.416
 20
187.168
 10
45.28
 20
185.44
 10
46.72
 20
190.048
 10
48.16
 20
184.864
 10
48.736
 20
188.32
 10
50.751999999999995
 20
184.288
 10
50.176
 20
179.68
 10
53.92
 20
179.68
 10
53.92
 20
177.88
 10
53.2
 20
177.88
 10
52.12
 20
162.76
 10
41.32
 20
162.76
 10
40.24
 20
177.88
 97
0
 75
1
 76
1
 98
0
  0
HATCH
  5
D8
330
17
100
AcDbEntity
  8
05-RAYADO
 62
7
420
16777215
100
AcDbHatch
 10
0.0
 20
0.0
 30
0.0
210
0.0
220
0.0
230
1.0
  2
SOLID
 70
1
 71
0
 91
1
 92
3
 72
0
 73
1
 93
75
 10
69.09800993524644
 20
165.57799408345437
 10
69.23106414260573
 20
165.53038652681624
 10
69.35881130102945
 20
165.4699666206616
 10
69.48002113554823
 20
165.39731624171566
 10
69.59352632919565
 20
165.31313505284234
 10
69.69823376490864
 20
165.2182337649086
 10
69.79313505284235
 20
165.11352632919565
 10
69.87731624171568
 20
165.00002113554822
 10
69.94996662066164
 20
164.87881130102943
 10
70.01038652681626
 20
164.7510641426057
 10
70.05799408345439
 20
164.61800993524642
 10
70.09233080378065
 20
164.48093006370323
 10
70.11306600640798
 20
164.34114468207454
 10
70.12
 20
164.2
 10
70.11306600640798
 20
164.05885531792543
 10
70.09233080378065
 20
163.91906993629675
 10
70.05799408345439
 20
163.78199006475356
 10
70.01038652681626
 20
163.64893585739426
 10
69.94996662066164
 20
163.52118869897055
 10
69.87731624171568
 20
163.39997886445175
 10
69.79313505284235
 20
163.28647367080433
 10
69.69823376490864
 20
163.18176623509137
 10
69.59352632919565
 20
163.08686494715764
 10
69.48002113554823
 20
163.00268375828432
 10
69.35881130102945
 20
162.93003337933837
 10
69.23106414260573
 20
162.86961347318373
 10
69.09800993524644
 20
162.8220059165456
 10
68.96093006370323
 20
162.78766919621933
 10
68.82114468207457
 20
162.76693399359203
 10
68.68
 20
162.76
 10
54.28
 20
162.76
 10
54.13885531792543
 20
162.76693399359203
 10
53.99906993629678
 20
162.78766919621933
 10
53.86199006475358
 20
162.8220059165456
 10
53.72893585739427
 20
162.86961347318373
 10
53.60118869897057
 20
162.93003337933837
 10
53.47997886445177
 20
163.00268375828432
 10
53.36647367080435
 20
163.08686494715764
 10
53.26176623509137
 20
163.18176623509137
 10
53.16686494715766
 20
163.28647367080433
 10
53.08268375828433
 20
163.39997886445175
 10
53.01003337933837
 20
163.52118869897055
 10
52.949613473183746
 20
163.64893585739426
 10
52.90200591654562
 20
163.78199006475356
 10
52.867669196219346
 20
163.91906993629675
 10
52.84693399359204
 20
164.05885531792543
 10
52.84
 20
164.2
 10
52.84693399359204
 20
164.34114468207454
 10
52.867669196219346
 20
164.48093006370323
 10
52.90200591654562
 20
164.61800993524642
 10
52.949613473183746
 20
164.7510641426057
 10
53.01003337933837
 20
164.87881130102943
 10
53.08268375828433
 20
165.00002113554822
 10
53.16686494715766
 20
165.11352632919565
 10
53.26176623509137
 20
165.2182337649086
 10
53.36647367080435
 20
165.31313505284234
 10
53.47997886445177
 20
165.39731624171566
 10
53.60118869897057
 20
165.4699666206616
 10
53.72893585739427
 20
165.53038652681624
 10
53.86199006475358
 20
165.57799408345437
 10
53.99906993629678
 20
165.61233080378065
 10
54.13885531792543
 20
165.63306600640794
 10
54.28
 20
165.64
 10
56.29600000000001
 20
165.64
 10
55.432
 20
171.688
 10
58.024
 20
176.87199999999999
 10
59.32000000000001
 20
174.27999999999997
 10
61.480000000000004
 20
181.19199999999998
 10
63.64
 20
173.416
 10
64.504
 20
178.6
 10
67.528
 20
172.552
 10
66.664
 20
165.64
 10
68.68
 20
165.64
 10
68.82114468207457
 20
165.63306600640794
 10
68.96093006370323
 20
165.61233080378065
 97
0
 75
1
 76
1
 98
0
  0
TEXT
  5
D9
330
17
100
AcDbEntity
  8
06-TEXTO
100
AcDbText
 10
55.0
 20
151.0
 30
0.0
 40
3.5
  1
Clase A
  7
ISO3098
 72
1
 11
55.0
 21
151.0
 31
0.0
100
AcDbText
 73
2
  0
TEXT
  5
DA
330
17
100
AcDbEntity
  8
06-TEXTO
100
AcDbText
 10
55.0
 20
146.0
 30
0.0
 40
2.5
  1
verde 01-1-150
  7
ISO3098
 72
1
 11
55.0
 21
146.0
 31
0.0
100
AcDbText
 73
2
  0
HATCH
  5
DB
330
17
100
AcDbEntity
  8
05-RAYADO
 62
7
420
13114925
100
AcDbHatch
 10
0.0
 20
0.0
 30
0.0
210
0.0
220
0.0
230
1.0
  2
SOLID
 70
1
 71
0
 91
1
 92
3
 72
0
 73
1
 93
6
 10
110.0
 20
262.0
 10
113.0
 20
262.0
 10
113.0
 20
259.0
 10
113.0
 20
235.0
 10
113.0
 20
232.0
 10
110.0
 20
232.0
 97
0
 75
1
 76
1
 98
0
  0
HATCH
  5
DC
330
17
100
AcDbEntity
  8
05-RAYADO
 62
7
420
13114925
100
AcDbHatch
 10
0.0
 20
0.0
 30
0.0
210
0.0
220
0.0
230
1.0
  2
SOLID
 70
1
 71
0
 91
1
 92
3
 72
0
 73
1
 93
4
 10
137.0
 20
262.0
 10
137.0
 20
259.0
 10
113.0
 20
259.0
 10
113.0
 20
262.0
 97
0
 75
1
 76
1
 98
0
  0
HATCH
  5
DD
330
17
100
AcDbEntity
  8
05-RAYADO
 62
7
420
13114925
100
AcDbHatch
 10
0.0
 20
0.0
 30
0.0
210
0.0
220
0.0
230
1.0
  2
SOLID
 70
1
 71
0
 91
1
 92
3
 72
0
 73
1
 93
4
 10
113.0
 20
232.0
 10
113.0
 20
235.0
 10
137.0
 20
235.0
 10
137.0
 20
232.0
 97
0
 75
1
 76
1
 98
0
  0
HATCH
  5
DE
330
17
100
AcDbEntity
  8
05-RAYADO
 62
7
420
13114925
100
AcDbHatch
 10
0.0
 20
0.0
 30
0.0
210
0.0
220
0.0
230
1.0
  2
SOLID
 70
1
 71
0
 91
1
 92
3
 72
0
 73
1
 93
6
 10
140.0
 20
262.0
 10
140.0
 20
232.0
 10
137.0
 20
232.0
 10
137.0
 20
235.0
 10
137.0
 20
259.0
 10
137.0
 20
262.0
 97
0
 75
1
 76
1
 98
0
  0
TEXT
  5
DF
330
17
100
AcDbEntity
  8
13-GRAFICA
420
13114925
100
AcDbText
 10
125.0
 20
247.0
 30
0.0
 40
18.0
  1
B
  7
ISO3098
 72
1
 11
125.0
 21
247.0
 31
0.0
100
AcDbText
 73
2
  0
DIMENSION
  5
E0
330
17
100
AcDbEntity
  8
04-COTA
100
AcDbDimension
280
0
  2
*D2
  3
FLAMA-IRAM
 10
149.0
 20
232.0
 30
0.0
 11
146.25
 21
247.0
 31
0.0
 70
32
 71
5
  1
≥ 12
100
AcDbAlignedDimension
 13
143.0
 23
232.0
 33
0.0
 14
143.0
 24
262.0
 34
0.0
 50
90.0
100
AcDbRotatedDimension
1001
ACAD
1000
DSTYLE
1002
{
1070
144
1040
0.5
1002
}
  0
HATCH
  5
EF
330
17
100
AcDbEntity
  8
05-RAYADO
 62
7
420
13114925
100
AcDbHatch
 10
0.0
 20
0.0
 30
0.0
210
0.0
220
0.0
230
1.0
  2
SOLID
 70
1
 71
0
 91
1
 92
3
 72
0
 73
1
 93
68
 10
143.0
 20
159.16
 10
142.98959900961194
 20
158.94828297688815
 10
142.95849620567097
 20
158.73860490444517
 10
142.90699112518158
 20
158.53298509713036
 10
142.8355797902244
 20
158.3334037860914
 10
142.74494993099245
 20
158.14178304845584
 10
142.6359743625735
 20
157.95996829667766
 10
142.50970257926352
 20
157.78971050620652
 10
142.36735064736294
 20
157.63264935263706
 10
142.21028949379348
 20
157.49029742073648
 10
142.04003170332234
 20
157.3640256374265
 10
141.85821695154416
 20
157.25505006900755
 10
141.6665962139086
 20
157.1644202097756
 10
141.46701490286964
 20
157.09300887481842
 10
141.26139509555483
 20
157.04150379432903
 10
141.05171702311185
 20
157.01040099038806
 10
140.84
 20
157.0
 10
109.16
 20
157.0
 10
108.94828297688815
 20
157.01040099038806
 10
108.73860490444515
 20
157.04150379432903
 10
108.53298509713036
 20
157.09300887481842
 10
108.3334037860914
 20
157.1644202097756
 10
108.14178304845584
 20
157.25505006900755
 10
107.95996829667766
 20
157.3640256374265
 10
107.78971050620652
 20
157.49029742073648
 10
107.63264935263706
 20
157.63264935263706
 10
107.49029742073648
 20
157.78971050620652
 10
107.3640256374265
 20
157.95996829667766
 10
107.25505006900755
 20
158.14178304845584
 10
107.16442020977561
 20
158.3334037860914
 10
107.09300887481842
 20
158.53298509713036
 10
107.04150379432902
 20
158.73860490444517
 10
107.01040099038805
 20
158.94828297688815
 10
107.0
 20
159.16
 10
107.0
 20
190.84
 10
107.01040099038805
 20
191.05171702311185
 10
107.04150379432902
 20
191.26139509555483
 10
107.09300887481842
 20
191.46701490286964
 10
107.16442020977561
 20
191.6665962139086
 10
107.25505006900755
 20
191.85821695154416
 10
107.3640256374265
 20
192.04003170332234
 10
107.49029742073648
 20
192.21028949379348
 10
107.63264935263706
 20
192.36735064736294
 10
107.78971050620652
 20
192.50970257926352
 10
107.95996829667766
 20
192.6359743625735
 10
108.14178304845584
 20
192.74494993099245
 10
108.33340378609141
 20
192.8355797902244
 10
108.53298509713036
 20
192.90699112518158
 10
108.73860490444515
 20
192.95849620567097
 10
108.94828297688815
 20
192.98959900961194
 10
109.16
 20
193.0
 10
140.84
 20
193.0
 10
141.05171702311185
 20
192.98959900961194
 10
141.26139509555483
 20
192.95849620567097
 10
141.46701490286964
 20
192.90699112518158
 10
141.6665962139086
 20
192.8355797902244
 10
141.85821695154416
 20
192.74494993099245
 10
142.04003170332234
 20
192.6359743625735
 10
142.21028949379348
 20
192.50970257926352
 10
142.36735064736294
 20
192.36735064736294
 10
142.50970257926352
 20
192.21028949379348
 10
142.6359743625735
 20
192.04003170332234
 10
142.74494993099245
 20
191.85821695154416
 10
142.8355797902244
 20
191.6665962139086
 10
142.90699112518158
 20
191.46701490286964
 10
142.95849620567097
 20
191.26139509555483
 10
142.98959900961194
 20
191.05171702311185
 10
143.0
 20
190.84
 97
0
 75
1
 76
1
 98
0
  0
HATCH
  5
F0
330
17
100
AcDbEntity
  8
05-RAYADO
 62
7
420
16777215
100
AcDbHatch
 10
0.0
 20
0.0
 30
0.0
210
0.0
220
0.0
230
1.0
  2
SOLID
 70
1
 71
0
 91
1
 92
3
 72
0
 73
1
 93
5
 10
113.4287894345351
 20
184.16755468006366
 10
123.21691353453096
 20
179.6032774532641
 10
117.1312105654649
 20
166.55244531993634
 10
108.44
 20
170.60522336525025
 10
108.44
 20
173.46906121273813
 97
0
 75
1
 76
1
 98
0
  0
HATCH
  5
F1
330
17
100
AcDbEntity
  8
05-RAYADO
 62
7
420
16777215
100
AcDbHatch
 10
0.0
 20
0.0
 30
0.0
210
0.0
220
0.0
230
1.0
  2
SOLID
 70
1
 71
0
 91
1
 92
3
 72
0
 73
1
 93
13
 10
138.68
 20
162.76
 10
117.8
 20
162.76
 10
117.8
 20
164.56
 10
125.86399999999999
 20
164.56
 10
124.92799999999998
 20
171.112
 10
127.73599999999999
 20
176.728
 10
129.14
 20
173.92000000000002
 10
131.48
 20
181.40800000000002
 10
133.82
 20
172.984
 10
134.756
 20
178.6
 10
138.03199999999998
 20
172.048
 10
137.096
 20
164.56
 10
138.68
 20
164.56
 97
0
 75
1
 76
1
 98
0
  0
TEXT
  5
F2
330
17
100
AcDbEntity
  8
06-TEXTO
100
AcDbText
 10
125.0
 20
151.0
 30
0.0
 40
3.5
  1
Clase B
  7
ISO3098
 72
1
 11
125.0
 21
151.0
 31
0.0
100
AcDbText
 73
2
  0
TEXT
  5
F3
330
17
100
AcDbEntity
  8
06-TEXTO
100
AcDbText
 10
125.0
 20
146.0
 30
0.0
 40
2.5
  1
rojo 03-1-050
  7
ISO3098
 72
1
 11
125.0
 21
146.0
 31
0.0
100
AcDbText
 73
2
  0
HATCH
  5
F4
330
17
100
AcDbEntity
  8
05-RAYADO
 62
7
420
38615
100
AcDbHatch
 10
0.0
 20
0.0
 30
0.0
210
0.0
220
0.0
230
1.0
  2
SOLID
 70
1
 71
0
 91
1
 92
3
 72
0
 73
1
 93
52
 10
182.00961894323342
 20
239.5
 10
181.84909866438738
 20
239.7851684662092
 10
181.69483750232666
 20
240.0737708014745
 10
181.54690887700968
 20
240.365669646715
 10
181.40538319445025
 20
240.66072607388952
 10
181.2703278132083
 20
240.95879965211896
 10
181.1418070123307
 20
241.25974851452366
 10
181.01988196075803
 20
241.56342942574446
 10
180.90461068821136
 20
241.86969785011496
 10
180.79604805757342
 20
242.17840802045257
 10
180.6942457387766
 20
242.4894130074359
 10
180.59925218421108
 20
242.80256478953513
 10
180.51111260566398
 20
243.1177143234622
 10
180.4298689528011
 20
243.4347116151074
 10
180.355559893201
 20
243.75340579092844
 10
180.28822079395155
 20
244.07364516975807
 10
180.2278837048169
 20
244.39527733499605
 10
180.17457734298358
 20
244.71814920715124
 10
180.12832707939285
 20
245.0421071166992
 10
180.0891549266652
 20
245.36699687722054
 10
180.05707952862383
 20
245.69266385878512
 10
180.03211615142095
 20
246.01895306154785
 10
180.01427667627212
 20
246.34570918951997
 10
180.00356959380136
 20
246.6727767244816
 10
180.0
 20
247.0
 10
180.00356959380136
 20
247.3272232755184
 10
180.01427667627212
 20
247.65429081048003
 10
180.03211615142095
 20
247.98104693845215
 10
180.05707952862383
 20
248.30733614121488
 10
180.0891549266652
 20
248.63300312277946
 10
180.12832707939285
 20
248.95789288330076
 10
180.17457734298358
 20
249.28185079284876
 10
180.2278837048169
 20
249.60472266500395
 10
180.28822079395155
 20
249.9263548302419
 10
180.355559893201
 20
250.24659420907153
 10
180.4298689528011
 20
250.5652883848926
 10
180.51111260566398
 20
250.8822856765378
 10
180.59925218421108
 20
251.19743521046487
 10
180.6942457387766
 20
251.5105869925641
 10
180.79604805757342
 20
251.82159197954743
 10
180.90461068821136
 20
252.13030214988504
 10
181.01988196075803
 20
252.4365705742555
 10
181.1418070123307
 20
252.74025148547634
 10
181.2703278132083
 20
253.04120034788104
 10
181.40538319445025
 20
253.33927392611048
 10
181.54690887700968
 20
253.634330353285
 10
181.69483750232666
 20
253.9262291985255
 10
181.84909866438738
 20
254.2148315337908
 10
182.00961894323342
 20
254.5
 10
182.14298463972798
 20
254.72528467094423
 10
182.14298463972798
 20
247.0
 10
182.14298463972798
 20
239.27471532905577
 97
0
 75
1
 76
1
 98
0
  0
HATCH
  5
F5
330
17
100
AcDbEntity
  8
05-RAYADO
 62
7
420
38615
100
AcDbHatch
 10
0.0
 20
0.0
 30
0.0
210
0.0
220
0.0
230
1.0
  2
SOLID
 70
1
 71
0
 91
1
 92
3
 72
0
 73
1
 93
242
 10
207.8236780600942
 20
239.2184011275922
 10
207.65087168719327
 20
238.94050587479765
 10
207.4720441845382
 20
238.66644650470596
 10
207.28728066433487
 20
238.3963534547343
 10
207.09666906401225
 20
238.13035527454628
 10
206.90030010436854
 20
237.86857856486918
 10
206.69826724639321
 20
237.61114791723912
 10
206.49066664678466
 20
237.3581858547019
 10
206.27759711218465
 20
237.10981277349896
 10
206.05916005215187
 20
236.8661468857651
 10
205.83545943089632
 20
236.62730416326596
 10
205.6066017177982
 20
236.3933982822018
 10
205.37269583673404
 20
236.16454056910368
 10
205.1338531142349
 20
235.94083994784813
 10
204.89018722650104
 20
235.72240288781535
 10
204.6418141452981
 20
235.50933335321534
 10
204.38885208276088
 20
235.30173275360679
 10
204.13142143513082
 20
235.09969989563146
 10
203.86964472545372
 20
234.90333093598775
 10
203.6036465452657
 20
234.71271933566513
 10
203.33355349529404
 20
234.5279558154618
 10
203.05949412520235
 20
234.34912831280673
 10
202.7815988724078
 20
234.1763219399058
 10
202.5
 20
234.00961894323342
 10
202.21483153379083
 20
233.84909866438738
 10
201.9262291985255
 20
233.69483750232666
 10
201.634330353285
 20
233.54690887700968
 10
201.33927392611048
 20
233.40538319445025
 10
201.04120034788104
 20
233.2703278132083
 10
200.74025148547634
 20
233.1418070123307
 10
200.4365705742555
 20
233.01988196075803
 10
200.13030214988504
 20
232.90461068821136
 10
199.82159197954743
 20
232.79604805757342
 10
199.5105869925641
 20
232.6942457387766
 10
199.19743521046487
 20
232.59925218421108
 10
198.8822856765378
 20
232.51111260566398
 10
198.5652883848926
 20
232.4298689528011
 10
198.24659420907153
 20
232.355559893201
 10
197.92635483024193
 20
232.28822079395155
 10
197.60472266500395
 20
232.2278837048169
 10
197.28185079284876
 20
232.17457734298358
 10
196.9578928833008
 20
232.12832707939285
 10
196.63300312277948
 20
232.0891549266652
 10
196.30733614121488
 20
232.05707952862383
 10
195.98104693845215
 20
232.03211615142095
 10
195.65429081048003
 20
232.01427667627212
 10
195.3272232755184
 20
232.00356959380136
 10
195.0
 20
232.0
 10
194.6727767244816
 20
232.00356959380136
 10
194.34570918951997
 20
232.01427667627212
 10
194.01895306154785
 20
232.03211615142095
 10
193.69266385878512
 20
232.05707952862383
 10
193.36699687722054
 20
232.0891549266652
 10
193.0421071166992
 20
232.12832707939285
 10
192.71814920715124
 20
232.17457734298358
 10
192.39527733499605
 20
232.2278837048169
 10
192.07364516975807
 20
232.28822079395155
 10
191.75340579092847
 20
232.355559893201
 10
191.4347116151074
 20
232.4298689528011
 10
191.1177143234622
 20
232.51111260566398
 10
190.80256478953513
 20
232.59925218421108
 10
190.4894130074359
 20
232.6942457387766
 10
190.17840802045257
 20
232.79604805757342
 10
189.86969785011496
 20
232.90461068821136
 10
189.5634294257445
 20
233.01988196075803
 10
189.25974851452366
 20
233.1418070123307
 10
188.95879965211896
 20
233.2703278132083
 10
188.66072607388952
 20
233.40538319445025
 10
188.365669646715
 20
233.54690887700968
 10
188.0737708014745
 20
233.69483750232666
 10
187.7851684662092
 20
233.84909866438738
 10
187.5
 20
234.00961894323342
 10
187.2184011275922
 20
234.1763219399058
 10
186.94050587479765
 20
234.34912831280673
 10
186.66644650470596
 20
234.5279558154618
 10
186.3963534547343
 20
234.71271933566513
 10
186.13035527454628
 20
234.90333093598775
 10
185.86857856486918
 20
235.09969989563146
 10
185.61114791723912
 20
235.30173275360679
 10
185.3581858547019
 20
235.50933335321534
 10
185.10981277349896
 20
235.72240288781535
 10
184.8661468857651
 20
235.94083994784813
 10
184.62730416326596
 20
236.16454056910368
 10
184.3933982822018
 20
236.3933982822018
 10
184.16454056910368
 20
236.62730416326596
 10
183.94083994784813
 20
236.8661468857651
 10
183.72240288781535
 20
237.10981277349896
 10
183.50933335321534
 20
237.3581858547019
 10
183.30173275360679
 20
237.61114791723912
 10
183.0996998956315
 20
237.86857856486918
 10
182.90333093598775
 20
238.13035527454628
 10
182.71271933566513
 20
238.3963534547343
 10
182.52795581546184
 20
238.66644650470596
 10
182.34912831280673
 20
238.94050587479765
 10
182.1763219399058
 20
239.2184011275922
 10
182.14298463972798
 20
239.27471532905577
 10
182.14298463972798
 20
247.0
 10
182.14604426121693
 20
246.71952568802723
 10
182.15522166946957
 20
246.4391848666385
 10
182.17051249653676
 20
246.1591109628785
 10
182.19190946481294
 20
245.8794372767567
 10
182.21940239049977
 20
245.60029691780437
 10
182.25297818845414
 20
245.32182274170904
 10
182.2926208784144
 20
245.04414728709915
 10
182.33831159260697
 20
244.7674027124535
 10
182.390028584727
 20
244.49172073319815
 10
182.44774724028684
 20
244.21723255902597
 10
182.51144008833234
 20
243.94406883144296
 10
182.581076814518
 20
243.67235956158592
 10
182.65662427553343
 20
243.40223406835298
 10
182.73804651487808
 20
243.13382091685116
 10
182.82530477997727
 20
242.8672478571989
 10
182.9183575406212
 20
242.60264176373957
 10
183.01716050873648
 20
242.34012857463998
 10
183.1216666594614
 20
242.07983323196055
 10
183.23182625352803
 20
241.82187962218737
 10
183.34758686093556
 20
241.5663905172685
 10
183.46889338590483
 20
241.31348751617995
 10
183.5956880931003
 20
241.06329098705206
 10
183.72791063510687
 20
240.81592000988553
 10
183.8654980811577
 20
240.57149231986395
 10
184.00838494707872
 20
240.3301242513323
 10
184.15650322646198
 20
240.09193068241635
 10
184.30978242302635
 20
239.8570249803577
 10
184.46814958417872
 20
239.62551894754375
 10
184.63152933572468
 20
239.3975227683121
 10
184.79984391775218
 20
239.1731449564941
 10
184.973013221637
 20
238.95249230377476
 10
185.15095482816784
 20
238.7356698288681
 10
185.3335840467789
 20
238.52278072752725
 10
185.52081395585225
 20
238.31392632343557
 10
185.71255544409036
 20
238.10920601997913
 10
185.90871725293204
 20
237.90871725293204
 10
186.10920601997913
 20
237.71255544409036
 10
186.31392632343557
 20
237.52081395585225
 10
186.52278072752725
 20
237.3335840467789
 10
186.7356698288681
 20
237.15095482816784
 10
186.95249230377473
 20
236.97301322163705
 10
187.1731449564942
 20
236.79984391775207
 10
187.39752276831203
 20
236.6315293357247
 10
187.62551894754492
 20
236.4681495841779
 10
187.8570249803562
 20
236.3097824230273
 10
188.09193068241663
 20
236.15650322646178
 10
188.3301242513323
 20
236.00838494707872
 10
188.57149231986395
 20
235.8654980811577
 10
188.81592000988553
 20
235.72791063510687
 10
189.06329098705206
 20
235.5956880931003
 10
189.31348751617995
 20
235.46889338590483
 10
189.5663905172685
 20
235.34758686093556
 10
189.82187962218737
 20
235.23182625352803
 10
190.07983323196032
 20
235.12166665946148
 10
190.34012857463938
 20
235.01716050873674
 10
190.60264176374048
 20
234.9183575406209
 10
190.8672478571989
 20
234.82530477997727
 10
191.13382091685116
 20
234.73804651487808
 10
191.40223406835298
 20
234.65662427553343
 10
191.67235956158592
 20
234.581076814518
 10
191.94406883144353
 20
234.5114400883322
 10
192.2172325590264
 20
234.44774724028676
 10
192.49172073319718
 20
234.39002858472716
 10
192.7674027124535
 20
234.33831159260697
 10
193.04414728709915
 20
234.2926208784144
 10
193.32182274170904
 20
234.25297818845414
 10
193.60029691780437
 20
234.21940239049977
 10
193.8794372767567
 20
234.19190946481294
 10
194.1591109628785
 20
234.17051249653676
 10
194.4391848666385
 20
234.15522166946957
 10
194.71952568802723
 20
234.14604426121693
 10
195.0
 20
234.14298463972798
 10
195.28047431197277
 20
234.14604426121693
 10
195.5608151333615
 20
234.15522166946957
 10
195.8408890371215
 20
234.17051249653676
 10
196.12056272324344
 20
234.19190946481294
 10
196.39970308219665
 20
234.21940239049985
 10
196.67817725828982
 20
234.252978188454
 10
196.95585271290085
 20
234.2926208784144
 10
197.2325972875465
 20
234.33831159260697
 10
197.50827926680282
 20
234.39002858472716
 10
197.7827674409736
 20
234.44774724028676
 10
198.05593116855647
 20
234.5114400883322
 10
198.32764043841408
 20
234.581076814518
 10
198.59776593164702
 20
234.65662427553343
 10
198.86617908314884
 20
234.73804651487808
 10
199.1327521428011
 20
234.82530477997727
 10
199.39735823625952
 20
234.9183575406209
 10
199.65987142536062
 20
235.01716050873674
 10
199.92016676803968
 20
235.12166665946148
 10
200.17812037781263
 20
235.23182625352803
 10
200.4336094827315
 20
235.34758686093556
 10
200.68651248382005
 20
235.46889338590483
 10
200.93670901294757
 20
235.59568809310014
 10
201.1840799901152
 20
235.72791063510724
 10
201.4285076801357
 20
235.8654980811575
 10
201.6698757486677
 20
236.00838494707872
 10
201.90806931758337
 20
236.15650322646178
 10
202.1429750196438
 20
236.3097824230273
 10
202.37448105245508
 20
236.4681495841779
 10
202.60247723168797
 20
236.6315293357247
 10
202.8268550435058
 20
236.79984391775207
 10
203.04750769622527
 20
236.97301322163705
 10
203.2643301711319
 20
237.15095482816784
 10
203.47721927247275
 20
237.3335840467789
 10
203.68607367656443
 20
237.52081395585225
 10
203.89079398002087
 20
237.71255544409036
 10
204.09128274706796
 20
237.90871725293204
 10
204.28744455590964
 20
238.10920601997913
 10
204.47918604414775
 20
238.31392632343557
 10
204.6664159532211
 20
238.52278072752725
 10
204.84904517183216
 20
238.7356698288681
 10
205.02698677836295
 20
238.95249230377473
 10
205.20015608224793
 20
239.1731449564942
 10
205.3684706642753
 20
239.39752276831203
 10
205.5318504158221
 20
239.62551894754492
 10
205.6902175769727
 20
239.8570249803562
 10
205.84349677353822
 20
240.09193068241663
 10
205.99161505292128
 20
240.3301242513323
 10
206.1345019188423
 20
240.57149231986395
 10
206.27208936489313
 20
240.81592000988553
 10
206.4043119068997
 20
241.06329098705206
 10
206.53110661409517
 20
241.31348751617995
 10
206.65241313906444
 20
241.5663905172685
 10
206.76817374647197
 20
241.82187962218737
 10
206.87833334053852
 20
242.07983323196032
 10
206.98283949126326
 20
242.34012857463938
 10
207.0816424593791
 20
242.60264176374048
 10
207.17469522002273
 20
242.8672478571989
 10
207.26195348512192
 20
243.13382091685116
 10
207.34337572446657
 20
243.40223406835298
 10
207.418923185482
 20
243.67235956158592
 10
207.4885599116678
 20
243.94406883144353
 10
207.55225275971324
 20
244.2172325590264
 10
207.60997141527284
 20
244.49172073319718
 10
207.66168840739303
 20
244.7674027124535
 10
207.7073791215856
 20
245.04414728709915
 10
207.74702181154586
 20
245.32182274170904
 10
207.78059760950023
 20
245.60029691780437
 10
207.80809053518706
 20
245.8794372767567
 10
207.82948750346324
 20
246.1591109628785
 10
207.84477833053043
 20
246.4391848666385
 10
207.85395573878307
 20
246.71952568802723
 10
207.85701536027202
 20
247.00000000000003
 10
207.85701536027202
 20
239.27471532905577
 97
0
 75
1
 76
1
 98
0
  0
HATCH
  5
F6
330
17
100
AcDbEntity
  8
05-RAYADO
 62
7
420
38615
100
AcDbHatch
 10
0.0
 20
0.0
 30
0.0
210
0.0
220
0.0
230
1.0
  2
SOLID
 70
1
 71
0
 91
1
 92
3
 72
0
 73
1
 93
242
 10
182.1763219399058
 20
254.7815988724078
 10
182.34912831280673
 20
255.05949412520235
 10
182.5279558154618
 20
255.33355349529404
 10
182.71271933566513
 20
255.6036465452657
 10
182.90333093598775
 20
255.86964472545372
 10
183.09969989563146
 20
256.1314214351308
 10
183.30173275360679
 20
256.3888520827609
 10
183.50933335321534
 20
256.6418141452981
 10
183.72240288781535
 20
256.89018722650104
 10
183.94083994784813
 20
257.1338531142349
 10
184.16454056910368
 20
257.372695836734
 10
184.3933982822018
 20
257.6066017177982
 10
184.62730416326596
 20
257.8354594308963
 10
184.8661468857651
 20
258.05916005215187
 10
185.10981277349896
 20
258.27759711218465
 10
185.3581858547019
 20
258.4906666467847
 10
185.61114791723912
 20
258.69826724639324
 10
185.86857856486918
 20
258.9003001043685
 10
186.13035527454628
 20
259.09666906401225
 10
186.3963534547343
 20
259.2872806643349
 10
186.66644650470596
 20
259.47204418453816
 10
186.94050587479762
 20
259.6508716871933
 10
187.2184011275922
 20
259.8236780600942
 10
187.5
 20
259.9903810567666
 10
187.78516846620917
 20
260.1509013356126
 10
188.0737708014745
 20
260.30516249767334
 10
188.365669646715
 20
260.4530911229903
 10
188.6607260738895
 20
260.5946168055497
 10
188.95879965211893
 20
260.72967218679173
 10
189.25974851452364
 20
260.8581929876693
 10
189.56342942574446
 20
260.980118039242
 10
189.86969785011496
 20
261.0953893117886
 10
190.17840802045257
 20
261.20395194242656
 10
190.4894130074359
 20
261.3057542612234
 10
190.80256478953513
 20
261.4007478157889
 10
191.1177143234622
 20
261.488887394336
 10
191.4347116151074
 20
261.5701310471989
 10
191.75340579092847
 20
261.644440106799
 10
192.07364516975807
 20
261.71177920604845
 10
192.39527733499605
 20
261.77211629518314
 10
192.71814920715124
 20
261.8254226570164
 10
193.0421071166992
 20
261.8716729206072
 10
193.36699687722052
 20
261.91084507333477
 10
193.69266385878512
 20
261.94292047137617
 10
194.01895306154785
 20
261.96788384857905
 10
194.34570918951997
 20
261.9857233237279
 10
194.67277672448157
 20
261.9964304061986
 10
195.0
 20
262.0
 10
195.3272232755184
 20
261.9964304061986
 10
195.65429081048003
 20
261.9857233237279
 10
195.98104693845212
 20
261.96788384857905
 10
196.30733614121488
 20
261.94292047137617
 10
196.63300312277948
 20
261.91084507333477
 10
196.95789288330076
 20
261.8716729206072
 10
197.28185079284876
 20
261.8254226570164
 10
197.60472266500395
 20
261.77211629518314
 10
197.92635483024193
 20
261.71177920604845
 10
198.24659420907153
 20
261.644440106799
 10
198.5652883848926
 20
261.5701310471989
 10
198.8822856765378
 20
261.488887394336
 10
199.19743521046487
 20
261.4007478157889
 10
199.5105869925641
 20
261.3057542612234
 10
199.82159197954743
 20
261.20395194242656
 10
200.130302149885
 20
261.0953893117886
 10
200.4365705742555
 20
260.980118039242
 10
200.74025148547634
 20
260.8581929876693
 10
201.04120034788104
 20
260.72967218679173
 10
201.33927392611048
 20
260.5946168055498
 10
201.634330353285
 20
260.4530911229903
 10
201.9262291985255
 20
260.30516249767334
 10
202.2148315337908
 20
260.1509013356126
 10
202.5
 20
259.9903810567666
 10
202.7815988724078
 20
259.8236780600942
 10
203.05949412520235
 20
259.6508716871933
 10
203.33355349529404
 20
259.47204418453816
 10
203.6036465452657
 20
259.2872806643349
 10
203.86964472545372
 20
259.09666906401225
 10
204.13142143513082
 20
258.9003001043685
 10
204.38885208276088
 20
258.69826724639324
 10
204.6418141452981
 20
258.4906666467847
 10
204.89018722650104
 20
258.27759711218465
 10
205.1338531142349
 20
258.05916005215187
 10
205.37269583673404
 20
257.8354594308963
 10
205.6066017177982
 20
257.60660171779824
 10
205.83545943089632
 20
257.37269583673407
 10
206.05916005215187
 20
257.1338531142349
 10
206.27759711218465
 20
256.89018722650104
 10
206.49066664678466
 20
256.6418141452981
 10
206.69826724639321
 20
256.3888520827609
 10
206.9003001043685
 20
256.1314214351308
 10
207.09666906401225
 20
255.86964472545372
 10
207.28728066433487
 20
255.6036465452657
 10
207.4720441845382
 20
255.33355349529404
 10
207.65087168719327
 20
255.05949412520238
 10
207.8236780600942
 20
254.7815988724078
 10
207.85701536027202
 20
254.72528467094423
 10
207.85701536027202
 20
247.00000000000003
 10
207.85395573878307
 20
247.28047431197277
 10
207.84477833053043
 20
247.5608151333615
 10
207.82948750346324
 20
247.8408890371215
 10
207.80809053518706
 20
248.12056272324344
 10
207.78059760950015
 20
248.39970308219665
 10
207.747021811546
 20
248.67817725828982
 10
207.7073791215856
 20
248.95585271290085
 10
207.66168840739303
 20
249.2325972875465
 10
207.60997141527284
 20
249.50827926680282
 10
207.55225275971324
 20
249.7827674409736
 10
207.4885599116678
 20
250.05593116855647
 10
207.418923185482
 20
250.32764043841408
 10
207.34337572446657
 20
250.59776593164702
 10
207.26195348512192
 20
250.86617908314884
 10
207.17469522002278
 20
251.13275214280088
 10
207.0816424593786
 20
251.39735823626086
 10
206.98283949126366
 20
251.65987142535963
 10
206.87833334053852
 20
251.9201667680397
 10
206.76817374647197
 20
252.17812037781266
 10
206.65241313906444
 20
252.43360948273153
 10
206.5311066140952
 20
252.68651248382
 10
206.40431190689986
 20
252.93670901294757
 10
206.27208936489276
 20
253.1840799901152
 10
206.1345019188425
 20
253.4285076801357
 10
205.99161505292133
 20
253.6698757486676
 10
205.8434967735381
 20
253.90806931758357
 10
205.69021757697277
 20
254.14297501964373
 10
205.5318504158221
 20
254.37448105245508
 10
205.36847066427552
 20
254.60247723168766
 10
205.20015608224756
 20
254.8268550435062
 10
205.02698677836307
 20
255.04750769622515
 10
204.84904517183216
 20
255.2643301711319
 10
204.6664159532211
 20
255.47721927247275
 10
204.47918604414784
 20
255.68607367656435
 10
204.28744455590947
 20
255.89079398002107
 10
204.0912827470674
 20
256.09128274706853
 10
203.89079398002087
 20
256.28744455590964
 10
203.68607367656443
 20
256.4791860441478
 10
203.47721927247238
 20
256.6664159532215
 10
203.26433017113214
 20
256.84904517183196
 10
203.04750769622535
 20
257.026986778363
 10
202.82685504350755
 20
257.20015608224656
 10
202.60247723168774
 20
257.36847066427543
 10
202.3744810524551
 20
257.5318504158221
 10
202.14297501964276
 20
257.6902175769734
 10
201.90806931758365
 20
257.84349677353805
 10
201.6698757486677
 20
257.9916150529213
 10
201.42850768013605
 20
258.1345019188423
 10
201.18407999011447
 20
258.27208936489313
 10
200.93670901294794
 20
258.4043119068997
 10
200.6865124838204
 20
258.531106614095
 10
200.43360948273207
 20
258.65241313906415
 10
200.17812037781044
 20
258.768173746473
 10
199.92016676804153
 20
258.8783333405378
 10
199.659871425359
 20
258.98283949126386
 10
199.3973582362604
 20
259.08164245937877
 10
199.13275214280011
 20
259.17469522002307
 10
198.86617908315
 20
259.2619534851216
 10
198.59776593164702
 20
259.34337572446657
 10
198.32764043841286
 20
259.4189231854823
 10
198.0559311685573
 20
259.4885599116676
 10
197.7827674409759
 20
259.5522527597127
 10
197.50827926680097
 20
259.6099714152732
 10
197.2325972875476
 20
259.66168840739283
 10
196.95585271289812
 20
259.70737912158603
 10
196.6781772582908
 20
259.74702181154595
 10
196.3997030821969
 20
259.7805976095001
 10
196.12056272324247
 20
259.80809053518715
 10
195.84088903712149
 20
259.82948750346327
 10
195.56081513336392
 20
259.84477833053035
 10
195.2804743119705
 20
259.8539557387831
 10
195.0
 20
259.85701536027204
 10
194.71952568802948
 20
259.8539557387831
 10
194.43918486663605
 20
259.84477833053035
 10
194.1591109628785
 20
259.82948750346327
 10
193.87943727675756
 20
259.80809053518715
 10
193.6002969178055
 20
259.7805976095003
 10
193.32182274170697
 20
259.7470218115456
 10
193.0441472871017
 20
259.707379121586
 10
192.7674027124524
 20
259.66168840739283
 10
192.49172073319903
 20
259.6099714152732
 10
192.2172325590241
 20
259.5522527597127
 10
191.9440688314427
 20
259.4885599116676
 10
191.67235956158714
 20
259.4189231854823
 10
191.40223406835298
 20
259.34337572446657
 10
191.13382091685
 20
259.2619534851216
 10
190.86724785720136
 20
259.1746952200235
 10
190.60264176373803
 20
259.0816424593782
 10
190.34012857464097
 20
258.98283949126386
 10
190.07983323195845
 20
258.8783333405378
 10
189.82187962218808
 20
258.76817374647237
 10
189.5663905172697
 20
258.65241313906495
 10
189.31348751617932
 20
258.5311066140948
 10
189.06329098705243
 20
258.40431190689986
 10
188.8159200098848
 20
258.27208936489274
 10
188.5714923198643
 20
258.1345019188425
 10
188.3301242513324
 20
257.99161505292136
 10
188.09193068241615
 20
257.84349677353794
 10
187.85702498035732
 20
257.69021757697345
 10
187.6255189475449
 20
257.5318504158221
 10
187.39752276831226
 20
257.36847066427543
 10
187.17314495649245
 20
257.20015608224656
 10
186.95249230377465
 20
257.026986778363
 10
186.73566982886786
 20
256.84904517183196
 10
186.52278072752762
 20
256.6664159532215
 10
186.31392632343557
 20
256.4791860441478
 10
186.10920601997913
 20
256.28744455590964
 10
185.90871725293277
 20
256.0912827470687
 10
185.7125554440908
 20
255.8907939800213
 10
185.52081395585174
 20
255.68607367656386
 10
185.3335840467789
 20
255.47721927247275
 10
185.15095482816784
 20
255.2643301711319
 10
184.973013221637
 20
255.0475076962252
 10
184.79984391775233
 20
254.8268550435061
 10
184.63152933572454
 20
254.60247723168771
 10
184.4681495841779
 20
254.37448105245508
 10
184.3097824230273
 20
254.1429750196438
 10
184.15650322646178
 20
253.90806931758337
 10
184.00838494707872
 20
253.6698757486677
 10
183.8654980811577
 20
253.42850768013605
 10
183.72791063510687
 20
253.18407999011447
 10
183.5956880931003
 20
252.93670901294794
 10
183.46889338590483
 20
252.68651248382005
 10
183.34758686093556
 20
252.4336094827315
 10
183.23182625352803
 20
252.17812037781263
 10
183.12166665946148
 20
251.92016676803968
 10
183.01716050873674
 20
251.65987142536062
 10
182.9183575406209
 20
251.39735823625952
 10
182.82530477997727
 20
251.1327521428011
 10
182.73804651487808
 20
250.86617908314884
 10
182.65662427553343
 20
250.59776593164702
 10
182.581076814518
 20
250.32764043841408
 10
182.5114400883322
 20
250.05593116855647
 10
182.447747240287
 20
249.7827674409746
 10
182.39002858472676
 20
249.5082792668008
 10
182.33831159260714
 20
249.2325972875475
 10
182.29262087841437
 20
248.95585271290068
 10
182.252978188454
 20
248.67817725829
 10
182.21940239049988
 20
248.39970308219674
 10
182.19190946481294
 20
248.1205627232433
 10
182.17051249653676
 20
247.8408890371215
 10
182.15522166946957
 20
247.5608151333615
 10
182.14604426121693
 20
247.28047431197277
 10
182.14298463972798
 20
247.0
 10
182.14298463972798
 20
254.72528467094423
 97
0
 75
1
 76
1
 98
0
  0
HATCH
  5
F7
330
17
100
AcDbEntity
  8
05-RAYADO
 62
7
420
38615
100
AcDbHatch
 10
0.0
 20
0.0
 30
0.0
210
0.0
220
0.0
230
1.0
  2
SOLID
 70
1
 71
0
 91
1
 92
3
 72
0
 73
1
 93
52
 10
209.98572332372788
 20
246.34570918951997
 10
209.96788384857905
 20
246.01895306154785
 10
209.94292047137617
 20
245.69266385878512
 10
209.9108450733348
 20
245.36699687722054
 10
209.87167292060715
 20
245.0421071166992
 10
209.82542265701642
 20
244.71814920715124
 10
209.7721162951831
 20
244.39527733499605
 10
209.71177920604845
 20
244.07364516975807
 10
209.644440106799
 20
243.75340579092847
 10
209.5701310471989
 20
243.4347116151074
 10
209.48888739433602
 20
243.1177143234622
 10
209.40074781578892
 20
242.80256478953513
 10
209.3057542612234
 20
242.4894130074359
 10
209.20395194242658
 20
242.17840802045257
 10
209.09538931178864
 20
241.86969785011496
 10
208.98011803924197
 20
241.5634294257445
 10
208.8581929876693
 20
241.25974851452366
 10
208.7296721867917
 20
240.95879965211896
 10
208.59461680554975
 20
240.66072607388952
 10
208.45309112299032
 20
240.365669646715
 10
208.30516249767334
 20
240.0737708014745
 10
208.15090133561262
 20
239.7851684662092
 10
207.99038105676658
 20
239.5
 10
207.85701536027202
 20
239.27471532905577
 10
207.85701536027202
 20
247.00000000000003
 10
207.85701536027202
 20
254.72528467094423
 10
207.99038105676658
 20
254.5
 10
208.15090133561262
 20
254.21483153379083
 10
208.30516249767334
 20
253.9262291985255
 10
208.45309112299032
 20
253.634330353285
 10
208.59461680554975
 20
253.3392739261105
 10
208.7296721867917
 20
253.04120034788107
 10
208.8581929876693
 20
252.74025148547636
 10
208.98011803924197
 20
252.43657057425554
 10
209.0953893117886
 20
252.13030214988504
 10
209.20395194242658
 20
251.82159197954743
 10
209.3057542612234
 20
251.5105869925641
 10
209.40074781578892
 20
251.19743521046487
 10
209.48888739433602
 20
250.8822856765378
 10
209.5701310471989
 20
250.5652883848926
 10
209.644440106799
 20
250.24659420907153
 10
209.71177920604845
 20
249.92635483024193
 10
209.7721162951831
 20
249.60472266500395
 10
209.82542265701642
 20
249.28185079284876
 10
209.87167292060715
 20
248.9578928833008
 10
209.9108450733348
 20
248.63300312277948
 10
209.94292047137617
 20
248.30733614121488
 10
209.96788384857905
 20
247.98104693845215
 10
209.98572332372788
 20
247.65429081048003
 10
209.99643040619864
 20
247.32722327551843
 10
210.0
 20
247.0
 10
209.99643040619864
 20
246.6727767244816
 97
0
 75
1
 76
1
 98
0
  0
TEXT
  5
F8
330
17
100
AcDbEntity
  8
13-GRAFICA
420
38615
100
AcDbText
 10
195.0
 20
247.0
 30
0.0
 40
12.857142857142858
  1
C
  7
ISO3098
 72
1
 11
195.0
 21
247.0
 31
0.0
100
AcDbText
 73
2
  0
DIMENSION
  5
F9
330
17
100
AcDbEntity
  8
04-COTA
100
AcDbDimension
280
0
  2
*D3
  3
FLAMA-IRAM
 10
219.0
 20
232.0
 30
0.0
 11
216.25
 21
247.0
 31
0.0
 70
32
 71
5
  1
≥ 12
100
AcDbAlignedDimension
 13
213.0
 23
232.0
 33
0.0
 14
213.0
 24
262.0
 34
0.0
 50
90.0
100
AcDbRotatedDimension
1001
ACAD
1000
DSTYLE
1002
{
1070
144
1040
0.5
1002
}
  0
HATCH
  5
108
330
17
100
AcDbEntity
  8
05-RAYADO
 62
7
420
38615
100
AcDbHatch
 10
0.0
 20
0.0
 30
0.0
210
0.0
220
0.0
230
1.0
  2
SOLID
 70
1
 71
0
 91
1
 92
3
 72
0
 73
1
 93
68
 10
213.0
 20
159.16
 10
212.98959900961194
 20
158.94828297688815
 10
212.95849620567097
 20
158.73860490444517
 10
212.90699112518158
 20
158.53298509713036
 10
212.8355797902244
 20
158.3334037860914
 10
212.74494993099245
 20
158.14178304845584
 10
212.6359743625735
 20
157.95996829667766
 10
212.50970257926352
 20
157.78971050620652
 10
212.36735064736294
 20
157.63264935263706
 10
212.21028949379348
 20
157.49029742073648
 10
212.04003170332234
 20
157.3640256374265
 10
211.85821695154416
 20
157.25505006900755
 10
211.6665962139086
 20
157.1644202097756
 10
211.46701490286964
 20
157.09300887481842
 10
211.26139509555483
 20
157.04150379432903
 10
211.05171702311185
 20
157.01040099038806
 10
210.84
 20
157.0
 10
179.16
 20
157.0
 10
178.94828297688815
 20
157.01040099038806
 10
178.73860490444517
 20
157.04150379432903
 10
178.53298509713036
 20
157.09300887481842
 10
178.3334037860914
 20
157.1644202097756
 10
178.14178304845584
 20
157.25505006900755
 10
177.95996829667766
 20
157.3640256374265
 10
177.78971050620652
 20
157.49029742073648
 10
177.63264935263706
 20
157.63264935263706
 10
177.49029742073648
 20
157.78971050620652
 10
177.3640256374265
 20
157.95996829667766
 10
177.25505006900755
 20
158.14178304845584
 10
177.1644202097756
 20
158.3334037860914
 10
177.09300887481842
 20
158.53298509713036
 10
177.04150379432903
 20
158.73860490444517
 10
177.01040099038806
 20
158.94828297688815
 10
177.0
 20
159.16
 10
177.0
 20
190.84
 10
177.01040099038806
 20
191.05171702311185
 10
177.04150379432903
 20
191.26139509555483
 10
177.09300887481842
 20
191.46701490286964
 10
177.1644202097756
 20
191.6665962139086
 10
177.25505006900755
 20
191.85821695154416
 10
177.3640256374265
 20
192.04003170332234
 10
177.49029742073648
 20
192.21028949379348
 10
177.63264935263706
 20
192.36735064736294
 10
177.78971050620652
 20
192.50970257926352
 10
177.95996829667766
 20
192.6359743625735
 10
178.14178304845584
 20
192.74494993099245
 10
178.3334037860914
 20
192.8355797902244
 10
178.53298509713036
 20
192.90699112518158
 10
178.73860490444517
 20
192.95849620567097
 10
178.94828297688815
 20
192.98959900961194
 10
179.16
 20
193.0
 10
210.84
 20
193.0
 10
211.05171702311185
 20
192.98959900961194
 10
211.26139509555483
 20
192.95849620567097
 10
211.46701490286964
 20
192.90699112518158
 10
211.6665962139086
 20
192.8355797902244
 10
211.85821695154416
 20
192.74494993099245
 10
212.04003170332234
 20
192.6359743625735
 10
212.21028949379348
 20
192.50970257926352
 10
212.36735064736294
 20
192.36735064736294
 10
212.50970257926352
 20
192.21028949379348
 10
212.6359743625735
 20
192.04003170332234
 10
212.74494993099245
 20
191.85821695154416
 10
212.8355797902244
 20
191.6665962139086
 10
212.90699112518158
 20
191.46701490286964
 10
212.95849620567097
 20
191.26139509555483
 10
212.98959900961194
 20
191.05171702311185
 10
213.0
 20
190.84
 97
0
 75
1
 76
1
 98
0
  0
HATCH
  5
109
330
17
100
AcDbEntity
  8
05-RAYADO
 62
7
420
16777215
100
AcDbHatch
 10
0.0
 20
0.0
 30
0.0
210
0.0
220
0.0
230
1.0
  2
SOLID
 70
1
 71
0
 91
1
 92
3
 72
0
 73
1
 93
49
 10
182.04
 20
173.92
 10
180.24
 20
173.92
 10
180.24
 20
162.76
 10
180.23479950480598
 20
162.65414148844405
 10
180.21924810283548
 20
162.54930245222258
 10
180.19349556259078
 20
162.44649254856517
 10
180.1577898951122
 20
162.3467018930457
 10
180.11247496549623
 20
162.2508915242279
 10
180.05798718128673
 20
162.15998414833882
 10
179.99485128963175
 20
162.07485525310327
 10
179.92367532368146
 20
161.99632467631852
 10
179.84514474689672
 20
161.92514871036823
 10
179.76001585166117
 20
161.86201281871325
 10
179.66910847577208
 20
161.80752503450375
 10
179.5732981069543
 20
161.7622101048878
 10
179.4735074514348
 20
161.7265044374092
 10
179.3706975477774
 20
161.7007518971645
 10
179.26585851155593
 20
161.685200495194
 10
179.16
 20
161.67999999999998
 10
179.05414148844406
 20
161.685200495194
 10
178.94930245222258
 20
161.7007518971645
 10
178.84649254856518
 20
161.7265044374092
 10
178.7467018930457
 20
161.7622101048878
 10
178.65089152422792
 20
161.80752503450375
 10
178.55998414833883
 20
161.86201281871325
 10
178.47485525310327
 20
161.92514871036823
 10
178.44
 20
161.95673967034384
 10
178.44
 20
175.80326032965615
 10
178.47485525310327
 20
175.83485128963176
 10
178.55998414833883
 20
175.89798718128674
 10
178.65089152422792
 20
175.95247496549624
 10
178.7467018930457
 20
175.9977898951122
 10
178.84649254856518
 20
176.0334955625908
 10
178.94930245222258
 20
176.05924810283548
 10
179.05414148844406
 20
176.07479950480598
 10
179.16
 20
176.08
 10
182.04
 20
176.08
 10
182.04
 20
178.6
 10
191.4
 20
178.6
 10
191.4
 20
177.16
 10
195.72
 20
177.16
 10
195.72
 20
176.07999999999998
 10
191.4
 20
176.07999999999998
 10
191.4
 20
173.92
 10
195.72
 20
173.92
 10
195.72
 20
172.84
 10
191.4
 20
172.84
 10
191.4
 20
171.39999999999998
 10
182.04
 20
171.39999999999998
 97
0
 75
1
 76
1
 98
0
  0
HATCH
  5
10A
330
17
100
AcDbEntity
  8
05-RAYADO
 62
7
420
16777215
100
AcDbHatch
 10
0.0
 20
0.0
 30
0.0
210
0.0
220
0.0
230
1.0
  2
SOLID
 70
1
 71
0
 91
1
 92
3
 72
0
 73
1
 93
9
 10
196.368
 20
169.31199999999998
 10
199.176
 20
174.928
 10
200.57999999999998
 20
172.12
 10
202.92
 20
179.608
 10
205.26
 20
171.184
 10
206.196
 20
176.79999999999998
 10
209.47199999999998
 20
170.248
 10
208.536
 20
162.76
 10
197.30399999999997
 20
162.76
 97
0
 75
1
 76
1
 98
0
  0
TEXT
  5
10B
330
17
100
AcDbEntity
  8
06-TEXTO
100
AcDbText
 10
195.0
 20
151.0
 30
0.0
 40
3.5
  1
Clase C
  7
ISO3098
 72
1
 11
195.0
 21
151.0
 31
0.0
100
AcDbText
 73
2
  0
TEXT
  5
10C
330
17
100
AcDbEntity
  8
06-TEXTO
100
AcDbText
 10
195.0
 20
146.0
 30
0.0
 40
2.5
  1
azul 08-1-070
  7
ISO3098
 72
1
 11
195.0
 21
146.0
 31
0.0
100
AcDbText
 73
2
  0
HATCH
  5
10D
330
17
100
AcDbEntity
  8
05-RAYADO
 62
7
420
16768512
100
AcDbHatch
 10
0.0
 20
0.0
 30
0.0
210
0.0
220
0.0
230
1.0
  2
SOLID
 70
1
 71
0
 91
1
 92
3
 72
0
 73
1
 93
4
 10
250.7341522555727
 20
250.13525491562422
 10
255.45825933094073
 20
251.158243423391
 10
255.45825933094073
 20
248.6002994797239
 10
255.45825933094073
 20
244.84818619196759
 97
0
 75
1
 76
1
 98
0
  0
HATCH
  5
10E
330
17
100
AcDbEntity
  8
05-RAYADO
 62
7
420
16768512
100
AcDbHatch
 10
0.0
 20
0.0
 30
0.0
210
0.0
220
0.0
230
1.0
  2
SOLID
 70
1
 71
0
 91
1
 92
3
 72
0
 73
1
 93
10
 10
274.54174066905927
 20
251.158243423391
 10
274.54174066905927
 20
248.60029947972387
 10
268.2434160249237
 20
249.9641791772714
 10
265.0
 20
255.53277986699376
 10
261.7565839750763
 20
249.9641791772714
 10
255.45825933094073
 20
248.6002994797239
 10
255.45825933094073
 20
251.158243423391
 10
260.1507716685871
 20
252.1743902035933
 10
265.0
 20
260.5
 10
269.8492283314129
 20
252.1743902035933
 97
0
 75
1
 76
1
 98
0
  0
HATCH
  5
10F
330
17
100
AcDbEntity
  8
05-RAYADO
 62
7
420
16768512
100
AcDbHatch
 10
0.0
 20
0.0
 30
0.0
210
0.0
220
0.0
230
1.0
  2
SOLID
 70
1
 71
0
 91
1
 92
3
 72
0
 73
1
 93
14
 10
272.84621625943504
 20
242.9506097964067
 10
273.8167787843871
 20
233.36474508437578
 10
265.0
 20
237.25
 10
256.1832212156129
 20
233.36474508437578
 10
257.15378374056496
 20
242.9506097964067
 10
255.45825933094073
 20
244.84818619196759
 10
255.45825933094073
 20
248.6002994797239
 10
259.7520426320174
 20
243.79483528615185
 10
259.10287995468417
 20
237.3833105867792
 10
265.0
 20
239.9819710731534
 10
270.89712004531583
 20
237.3833105867792
 10
270.2479573679826
 20
243.79483528615185
 10
274.54174066905927
 20
248.60029947972387
 10
274.54174066905927
 20
244.84818619196759
 97
0
 75
1
 76
1
 98
0
  0
HATCH
  5
110
330
17
100
AcDbEntity
  8
05-RAYADO
 62
7
420
16768512
100
AcDbHatch
 10
0.0
 20
0.0
 30
0.0
210
0.0
220
0.0
230
1.0
  2
SOLID
 70
1
 71
0
 91
1
 92
3
 72
0
 73
1
 93
4
 10
279.26584774442733
 20
250.13525491562422
 10
274.54174066905927
 20
244.84818619196759
 10
274.54174066905927
 20
248.60029947972387
 10
274.54174066905927
 20
251.158243423391
 97
0
 75
1
 76
1
 98
0
  0
TEXT
  5
111
330
17
100
AcDbEntity
  8
13-GRAFICA
420
16768512
100
AcDbText
 10
265.0
 20
245.2
 30
0.0
 40
12.0
  1
D
  7
ISO3098
 72
1
 11
265.0
 21
245.2
 31
0.0
100
AcDbText
 73
2
  0
DIMENSION
  5
112
330
17
100
AcDbEntity
  8
04-COTA
100
AcDbDimension
280
0
  2
*D4
  3
FLAMA-IRAM
 10
289.0
 20
232.0
 30
0.0
 11
286.25
 21
247.0
 31
0.0
 70
32
 71
5
  1
≥ 12
100
AcDbAlignedDimension
 13
283.0
 23
232.0
 33
0.0
 14
283.0
 24
262.0
 34
0.0
 50
90.0
100
AcDbRotatedDimension
1001
ACAD
1000
DSTYLE
1002
{
1070
144
1040
0.5
1002
}
  0
HATCH
  5
121
330
17
100
AcDbEntity
  8
05-RAYADO
 62
7
420
16768512
100
AcDbHatch
 10
0.0
 20
0.0
 30
0.0
210
0.0
220
0.0
230
1.0
  2
SOLID
 70
1
 71
0
 91
1
 92
3
 72
0
 73
1
 93
68
 10
283.0
 20
159.16
 10
282.98959900961194
 20
158.94828297688815
 10
282.95849620567094
 20
158.73860490444517
 10
282.90699112518155
 20
158.53298509713036
 10
282.83557979022436
 20
158.3334037860914
 10
282.74494993099245
 20
158.14178304845584
 10
282.63597436257345
 20
157.95996829667766
 10
282.5097025792635
 20
157.78971050620652
 10
282.3673506473629
 20
157.63264935263706
 10
282.2102894937934
 20
157.49029742073648
 10
282.0400317033223
 20
157.3640256374265
 10
281.85821695154414
 20
157.25505006900755
 10
281.6665962139086
 20
157.1644202097756
 10
281.4670149028696
 20
157.09300887481842
 10
281.2613950955548
 20
157.04150379432903
 10
281.05171702311185
 20
157.01040099038806
 10
280.84
 20
157.0
 10
249.16
 20
157.0
 10
248.94828297688815
 20
157.01040099038806
 10
248.73860490444517
 20
157.04150379432903
 10
248.53298509713036
 20
157.09300887481842
 10
248.3334037860914
 20
157.1644202097756
 10
248.14178304845584
 20
157.25505006900755
 10
247.95996829667766
 20
157.3640256374265
 10
247.78971050620652
 20
157.49029742073648
 10
247.63264935263706
 20
157.63264935263706
 10
247.49029742073648
 20
157.78971050620652
 10
247.3640256374265
 20
157.95996829667766
 10
247.25505006900755
 20
158.14178304845584
 10
247.1644202097756
 20
158.3334037860914
 10
247.09300887481842
 20
158.53298509713036
 10
247.04150379432903
 20
158.73860490444517
 10
247.01040099038806
 20
158.94828297688815
 10
247.0
 20
159.16
 10
247.0
 20
190.84
 10
247.01040099038806
 20
191.05171702311185
 10
247.04150379432903
 20
191.26139509555483
 10
247.09300887481842
 20
191.46701490286964
 10
247.1644202097756
 20
191.6665962139086
 10
247.25505006900755
 20
191.85821695154416
 10
247.3640256374265
 20
192.04003170332234
 10
247.49029742073648
 20
192.21028949379348
 10
247.63264935263706
 20
192.36735064736294
 10
247.78971050620652
 20
192.50970257926352
 10
247.95996829667766
 20
192.6359743625735
 10
248.14178304845584
 20
192.74494993099245
 10
248.3334037860914
 20
192.8355797902244
 10
248.53298509713036
 20
192.90699112518158
 10
248.73860490444517
 20
192.95849620567097
 10
248.94828297688815
 20
192.98959900961194
 10
249.16
 20
193.0
 10
280.84
 20
193.0
 10
281.05171702311185
 20
192.98959900961194
 10
281.2613950955548
 20
192.95849620567097
 10
281.4670149028696
 20
192.90699112518158
 10
281.6665962139086
 20
192.8355797902244
 10
281.85821695154414
 20
192.74494993099245
 10
282.0400317033223
 20
192.6359743625735
 10
282.2102894937934
 20
192.50970257926352
 10
282.3673506473629
 20
192.36735064736294
 10
282.5097025792635
 20
192.21028949379348
 10
282.63597436257345
 20
192.04003170332234
 10
282.74494993099245
 20
191.85821695154416
 10
282.83557979022436
 20
191.6665962139086
 10
282.90699112518155
 20
191.46701490286964
 10
282.95849620567094
 20
191.26139509555483
 10
282.98959900961194
 20
191.05171702311185
 10
283.0
 20
190.84
 97
0
 75
1
 76
1
 98
0
  0
HATCH
  5
122
330
17
100
AcDbEntity
  8
05-RAYADO
 62
7
420
16777215
100
AcDbHatch
 10
0.0
 20
0.0
 30
0.0
210
0.0
220
0.0
230
1.0
  2
SOLID
 70
1
 71
0
 91
1
 92
3
 72
0
 73
1
 93
21
 10
250.6
 20
164.92
 10
263.56
 20
164.92
 10
263.56
 20
172.12
 10
250.6
 20
172.12
 10
250.6
 20
174.28
 10
259.816
 20
174.28
 10
258.952
 20
180.328
 10
261.544
 20
185.512
 10
262.84
 20
182.92000000000002
 10
265.0
 20
189.832
 10
267.16
 20
182.056
 10
268.024
 20
187.24
 10
271.048
 20
181.192
 10
270.184
 20
174.28
 10
279.4
 20
174.28
 10
279.4
 20
172.12
 10
266.44
 20
172.12
 10
266.44
 20
164.92
 10
279.4
 20
164.92
 10
279.4
 20
162.76
 10
250.6
 20
162.76
 97
0
 75
1
 76
1
 98
0
  0
TEXT
  5
123
330
17
100
AcDbEntity
  8
06-TEXTO
100
AcDbText
 10
265.0
 20
151.0
 30
0.0
 40
3.5
  1
Clase D
  7
ISO3098
 72
1
 11
265.0
 21
151.0
 31
0.0
100
AcDbText
 73
2
  0
TEXT
  5
124
330
17
100
AcDbEntity
  8
06-TEXTO
100
AcDbText
 10
265.0
 20
146.0
 30
0.0
 40
2.5
  1
amarillo 05-1-040
  7
ISO3098
 72
1
 11
265.0
 21
146.0
 31
0.0
100
AcDbText
 73
2
  0
HATCH
  5
125
330
17
100
AcDbEntity
  8
05-RAYADO
 62
7
420
1644825
100
AcDbHatch
 10
0.0
 20
0.0
 30
0.0
210
0.0
220
0.0
230
1.0
  2
SOLID
 70
1
 71
0
 91
1
 92
3
 72
0
 73
1
 93
4
 10
320.0
 20
247.0
 10
323.14918328648884
 20
252.4545454545454
 10
323.14918328648884
 20
247.0
 10
323.14918328648884
 20
241.5454545454546
 97
0
 75
1
 76
1
 98
0
  0
HATCH
  5
126
330
17
100
AcDbEntity
  8
05-RAYADO
 62
7
420
1644825
100
AcDbHatch
 10
0.0
 20
0.0
 30
0.0
210
0.0
220
0.0
230
1.0
  2
SOLID
 70
1
 71
0
 91
1
 92
3
 72
0
 73
1
 93
8
 10
327.5
 20
234.00961894323342
 10
323.14918328648884
 20
241.5454545454546
 10
323.14918328648884
 20
247.0
 10
329.07459164324445
 20
236.73689167050614
 10
340.92540835675555
 20
236.73689167050614
 10
346.85081671351116
 20
247.0
 10
346.85081671351116
 20
241.5454545454546
 10
342.5
 20
234.00961894323342
 97
0
 75
1
 76
1
 98
0
  0
HATCH
  5
127
330
17
100
AcDbEntity
  8
05-RAYADO
 62
7
420
1644825
100
AcDbHatch
 10
0.0
 20
0.0
 30
0.0
210
0.0
220
0.0
230
1.0
  2
SOLID
 70
1
 71
0
 91
1
 92
3
 72
0
 73
1
 93
8
 10
327.5
 20
259.9903810567666
 10
342.5
 20
259.9903810567666
 10
346.85081671351116
 20
252.4545454545454
 10
346.85081671351116
 20
247.0
 10
340.92540835675555
 20
257.26310832949383
 10
329.07459164324445
 20
257.26310832949383
 10
323.14918328648884
 20
247.0
 10
323.14918328648884
 20
252.4545454545454
 97
0
 75
1
 76
1
 98
0
  0
HATCH
  5
128
330
17
100
AcDbEntity
  8
05-RAYADO
 62
7
420
1644825
100
AcDbHatch
 10
0.0
 20
0.0
 30
0.0
210
0.0
220
0.0
230
1.0
  2
SOLID
 70
1
 71
0
 91
1
 92
3
 72
0
 73
1
 93
4
 10
350.0
 20
247.0
 10
346.85081671351116
 20
241.5454545454546
 10
346.85081671351116
 20
247.0
 10
346.85081671351116
 20
252.4545454545454
 97
0
 75
1
 76
1
 98
0
  0
TEXT
  5
129
330
17
100
AcDbEntity
  8
13-GRAFICA
420
1644825
100
AcDbText
 10
335.0
 20
247.0
 30
0.0
 40
16.363636363636363
  1
K
  7
ISO3098
 72
1
 11
335.0
 21
247.0
 31
0.0
100
AcDbText
 73
2
  0
DIMENSION
  5
12A
330
17
100
AcDbEntity
  8
04-COTA
100
AcDbDimension
280
0
  2
*D5
  3
FLAMA-IRAM
 10
359.0
 20
232.0
 30
0.0
 11
356.25
 21
247.0
 31
0.0
 70
32
 71
5
  1
≥ 12
100
AcDbAlignedDimension
 13
353.0
 23
232.0
 33
0.0
 14
353.0
 24
262.0
 34
0.0
 50
90.0
100
AcDbRotatedDimension
1001
ACAD
1000
DSTYLE
1002
{
1070
144
1040
0.5
1002
}
  0
HATCH
  5
139
330
17
100
AcDbEntity
  8
05-RAYADO
 62
7
420
1644825
100
AcDbHatch
 10
0.0
 20
0.0
 30
0.0
210
0.0
220
0.0
230
1.0
  2
SOLID
 70
1
 71
0
 91
1
 92
3
 72
0
 73
1
 93
68
 10
353.0
 20
159.16
 10
352.98959900961194
 20
158.94828297688815
 10
352.95849620567094
 20
158.73860490444517
 10
352.90699112518155
 20
158.53298509713036
 10
352.83557979022436
 20
158.3334037860914
 10
352.74494993099245
 20
158.14178304845584
 10
352.63597436257345
 20
157.95996829667766
 10
352.5097025792635
 20
157.78971050620652
 10
352.3673506473629
 20
157.63264935263706
 10
352.2102894937934
 20
157.49029742073648
 10
352.0400317033223
 20
157.3640256374265
 10
351.85821695154414
 20
157.25505006900755
 10
351.6665962139086
 20
157.1644202097756
 10
351.4670149028696
 20
157.09300887481842
 10
351.2613950955548
 20
157.04150379432903
 10
351.05171702311185
 20
157.01040099038806
 10
350.84
 20
157.0
 10
319.16
 20
157.0
 10
318.94828297688815
 20
157.01040099038806
 10
318.7386049044452
 20
157.04150379432903
 10
318.5329850971304
 20
157.09300887481842
 10
318.3334037860914
 20
157.1644202097756
 10
318.14178304845586
 20
157.25505006900755
 10
317.9599682966777
 20
157.3640256374265
 10
317.7897105062066
 20
157.49029742073648
 10
317.6326493526371
 20
157.63264935263706
 10
317.4902974207365
 20
157.78971050620652
 10
317.36402563742655
 20
157.95996829667766
 10
317.25505006900755
 20
158.14178304845584
 10
317.16442020977564
 20
158.3334037860914
 10
317.09300887481845
 20
158.53298509713036
 10
317.04150379432906
 20
158.73860490444517
 10
317.01040099038806
 20
158.94828297688815
 10
317.0
 20
159.16
 10
317.0
 20
190.84
 10
317.01040099038806
 20
191.05171702311185
 10
317.04150379432906
 20
191.26139509555483
 10
317.09300887481845
 20
191.46701490286964
 10
317.16442020977564
 20
191.6665962139086
 10
317.25505006900755
 20
191.85821695154416
 10
317.36402563742655
 20
192.04003170332234
 10
317.4902974207365
 20
192.21028949379348
 10
317.6326493526371
 20
192.36735064736294
 10
317.7897105062066
 20
192.50970257926352
 10
317.9599682966777
 20
192.6359743625735
 10
318.14178304845586
 20
192.74494993099245
 10
318.3334037860914
 20
192.8355797902244
 10
318.5329850971304
 20
192.90699112518158
 10
318.7386049044452
 20
192.95849620567097
 10
318.94828297688815
 20
192.98959900961194
 10
319.16
 20
193.0
 10
350.84
 20
193.0
 10
351.05171702311185
 20
192.98959900961194
 10
351.2613950955548
 20
192.95849620567097
 10
351.4670149028696
 20
192.90699112518158
 10
351.6665962139086
 20
192.8355797902244
 10
351.85821695154414
 20
192.74494993099245
 10
352.0400317033223
 20
192.6359743625735
 10
352.2102894937934
 20
192.50970257926352
 10
352.3673506473629
 20
192.36735064736294
 10
352.5097025792635
 20
192.21028949379348
 10
352.63597436257345
 20
192.04003170332234
 10
352.74494993099245
 20
191.85821695154416
 10
352.83557979022436
 20
191.6665962139086
 10
352.90699112518155
 20
191.46701490286964
 10
352.95849620567094
 20
191.26139509555483
 10
352.98959900961194
 20
191.05171702311185
 10
353.0
 20
190.84
 97
0
 75
1
 76
1
 98
0
  0
HATCH
  5
13A
330
17
100
AcDbEntity
  8
05-RAYADO
 62
7
420
16777215
100
AcDbHatch
 10
0.0
 20
0.0
 30
0.0
210
0.0
220
0.0
230
1.0
  2
SOLID
 70
1
 71
0
 91
1
 92
3
 72
0
 73
1
 93
17
 10
324.2
 20
166.35999999999999
 10
327.152
 20
166.35999999999999
 10
326.144
 20
173.416
 10
329.168
 20
179.464
 10
330.68
 20
176.44
 10
333.2
 20
184.504
 10
335.71999999999997
 20
175.432
 10
336.728
 20
181.48
 10
340.256
 20
174.42399999999998
 10
339.248
 20
166.35999999999999
 10
342.2
 20
166.35999999999999
 10
342.2
 20
165.64
 10
351.56
 20
165.64
 10
351.56
 20
164.2
 10
342.2
 20
164.2
 10
342.2
 20
162.76
 10
324.2
 20
162.76
 97
0
 75
1
 76
1
 98
0
  0
TEXT
  5
13B
330
17
100
AcDbEntity
  8
06-TEXTO
100
AcDbText
 10
335.0
 20
151.0
 30
0.0
 40
3.5
  1
Clase K
  7
ISO3098
 72
1
 11
335.0
 21
151.0
 31
0.0
100
AcDbText
 73
2
  0
TEXT
  5
13C
330
17
100
AcDbEntity
  8
06-TEXTO
100
AcDbText
 10
335.0
 20
146.0
 30
0.0
 40
2.5
  1
negro
  7
ISO3098
 72
1
 11
335.0
 21
146.0
 31
0.0
100
AcDbText
 73
2
  0
LWPOLYLINE
  5
13D
330
17
100
AcDbEntity
  8
10-ROTULO
100
AcDbPolyline
 90
4
 70
1
 10
30.0
 20
132.6
 10
150.0
 20
132.6
 10
150.0
 20
137.0
 10
30.0
 20
137.0
  0
TEXT
  5
13E
330
17
100
AcDbEntity
  8
06-TEXTO
100
AcDbText
 10
90.0
 20
134.8
 30
0.0
 40
3.5
  1
TIPOS DE FUEGO POR MODELO
  7
ISO3098
 72
1
 11
90.0
 21
134.8
 31
0.0
100
AcDbText
 73
2
  0
LWPOLYLINE
  5
13F
330
17
100
AcDbEntity
  8
10-ROTULO
100
AcDbPolyline
 90
4
 70
1
 10
30.0
 20
128.2
 10
90.0
 20
128.2
 10
90.0
 20
132.6
 10
30.0
 20
132.6
  0
TEXT
  5
140
330
17
100
AcDbEntity
  8
06-TEXTO
100
AcDbText
 10
31.5
 20
130.4
 30
0.0
 40
2.5
  1
Modelo FLAMA
  7
ISO3098
 11
31.5
 21
130.4
 31
0.0
100
AcDbText
 73
2
  0
LWPOLYLINE
  5
141
330
17
100
AcDbEntity
  8
10-ROTULO
100
AcDbPolyline
 90
4
 70
1
 10
90.0
 20
128.2
 10
120.0
 20
128.2
 10
120.0
 20
132.6
 10
90.0
 20
132.6
  0
TEXT
  5
142
330
17
100
AcDbEntity
  8
06-TEXTO
100
AcDbText
 10
105.0
 20
130.4
 30
0.0
 40
2.5
  1
Tipos de fuego
  7
ISO3098
 72
1
 11
105.0
 21
130.4
 31
0.0
100
AcDbText
 73
2
  0
LWPOLYLINE
  5
143
330
17
100
AcDbEntity
  8
10-ROTULO
100
AcDbPolyline
 90
4
 70
1
 10
120.0
 20
128.2
 10
150.0
 20
128.2
 10
150.0
 20
132.6
 10
120.0
 20
132.6
  0
TEXT
  5
144
330
17
100
AcDbEntity
  8
06-TEXTO
100
AcDbText
 10
135.0
 20
130.4
 30
0.0
 40
2.5
  1
Norma
  7
ISO3098
 72
1
 11
135.0
 21
130.4
 31
0.0
100
AcDbText
 73
2
  0
LWPOLYLINE
  5
145
330
17
100
AcDbEntity
  8
10-ROTULO
100
AcDbPolyline
 90
4
 70
1
 10
30.0
 20
123.79999999999998
 10
90.0
 20
123.79999999999998
 10
90.0
 20
128.2
 10
30.0
 20
128.2
  0
TEXT
  5
146
330
17
100
AcDbEntity
  8
06-TEXTO
100
AcDbText
 10
31.5
 20
125.99999999999999
 30
0.0
 40
2.5
  1
ABC 1 kg
  7
ISO3098
 11
31.5
 21
125.99999999999999
 31
0.0
100
AcDbText
 73
2
  0
LWPOLYLINE
  5
147
330
17
100
AcDbEntity
  8
10-ROTULO
100
AcDbPolyline
 90
4
 70
1
 10
90.0
 20
123.79999999999998
 10
120.0
 20
123.79999999999998
 10
120.0
 20
128.2
 10
90.0
 20
128.2
  0
TEXT
  5
148
330
17
100
AcDbEntity
  8
06-TEXTO
100
AcDbText
 10
105.0
 20
125.99999999999999
 30
0.0
 40
2.5
  1
A B C
  7
ISO3098
 72
1
 11
105.0
 21
125.99999999999999
 31
0.0
100
AcDbText
 73
2
  0
LWPOLYLINE
  5
149
330
17
100
AcDbEntity
  8
10-ROTULO
100
AcDbPolyline
 90
4
 70
1
 10
120.0
 20
123.79999999999998
 10
150.0
 20
123.79999999999998
 10
150.0
 20
128.2
 10
120.0
 20
128.2
  0
TEXT
  5
14A
330
17
100
AcDbEntity
  8
06-TEXTO
100
AcDbText
 10
135.0
 20
125.99999999999999
 30
0.0
 40
2.5
  1
IRAM 3523
  7
ISO3098
 72
1
 11
135.0
 21
125.99999999999999
 31
0.0
100
AcDbText
 73
2
  0
LWPOLYLINE
  5
14B
330
17
100
AcDbEntity
  8
10-ROTULO
100
AcDbPolyline
 90
4
 70
1
 10
30.0
 20
119.39999999999998
 10
90.0
 20
119.39999999999998
 10
90.0
 20
123.79999999999998
 10
30.0
 20
123.79999999999998
  0
TEXT
  5
14C
330
17
100
AcDbEntity
  8
06-TEXTO
100
AcDbText
 10
31.5
 20
121.59999999999998
 30
0.0
 40
2.5
  1
ABC 2,5 kg
  7
ISO3098
 11
31.5
 21
121.59999999999998
 31
0.0
100
AcDbText
 73
2
  0
LWPOLYLINE
  5
14D
330
17
100
AcDbEntity
  8
10-ROTULO
100
AcDbPolyline
 90
4
 70
1
 10
90.0
 20
119.39999999999998
 10
120.0
 20
119.39999999999998
 10
120.0
 20
123.79999999999998
 10
90.0
 20
123.79999999999998
  0
TEXT
  5
14E
330
17
100
AcDbEntity
  8
06-TEXTO
100
AcDbText
 10
105.0
 20
121.59999999999998
 30
0.0
 40
2.5
  1
A B C
  7
ISO3098
 72
1
 11
105.0
 21
121.59999999999998
 31
0.0
100
AcDbText
 73
2
  0
LWPOLYLINE
  5
14F
330
17
100
AcDbEntity
  8
10-ROTULO
100
AcDbPolyline
 90
4
 70
1
 10
120.0
 20
119.39999999999998
 10
150.0
 20
119.39999999999998
 10
150.0
 20
123.79999999999998
 10
120.0
 20
123.79999999999998
  0
TEXT
  5
150
330
17
100
AcDbEntity
  8
06-TEXTO
100
AcDbText
 10
135.0
 20
121.59999999999998
 30
0.0
 40
2.5
  1
IRAM 3523
  7
ISO3098
 72
1
 11
135.0
 21
121.59999999999998
 31
0.0
100
AcDbText
 73
2
  0
LWPOLYLINE
  5
151
330
17
100
AcDbEntity
  8
10-ROTULO
100
AcDbPolyline
 90
4
 70
1
 10
30.0
 20
114.99999999999997
 10
90.0
 20
114.99999999999997
 10
90.0
 20
119.39999999999998
 10
30.0
 20
119.39999999999998
  0
TEXT
  5
152
330
17
100
AcDbEntity
  8
06-TEXTO
100
AcDbText
 10
31.5
 20
117.19999999999997
 30
0.0
 40
2.5
  1
ABC 5 kg
  7
ISO3098
 11
31.5
 21
117.19999999999997
 31
0.0
100
AcDbText
 73
2
  0
LWPOLYLINE
  5
153
330
17
100
AcDbEntity
  8
10-ROTULO
100
AcDbPolyline
 90
4
 70
1
 10
90.0
 20
114.99999999999997
 10
120.0
 20
114.99999999999997
 10
120.0
 20
119.39999999999998
 10
90.0
 20
119.39999999999998
  0
TEXT
  5
154
330
17
100
AcDbEntity
  8
06-TEXTO
100
AcDbText
 10
105.0
 20
117.19999999999997
 30
0.0
 40
2.5
  1
A B C
  7
ISO3098
 72
1
 11
105.0
 21
117.19999999999997
 31
0.0
100
AcDbText
 73
2
  0
LWPOLYLINE
  5
155
330
17
100
AcDbEntity
  8
10-ROTULO
100
AcDbPolyline
 90
4
 70
1
 10
120.0
 20
114.99999999999997
 10
150.0
 20
114.99999999999997
 10
150.0
 20
119.39999999999998
 10
120.0
 20
119.39999999999998
  0
TEXT
  5
156
330
17
100
AcDbEntity
  8
06-TEXTO
100
AcDbText
 10
135.0
 20
117.19999999999997
 30
0.0
 40
2.5
  1
IRAM 3523
  7
ISO3098
 72
1
 11
135.0
 21
117.19999999999997
 31
0.0
100
AcDbText
 73
2
  0
LWPOLYLINE
  5
157
330
17
100
AcDbEntity
  8
10-ROTULO
100
AcDbPolyline
 90
4
 70
1
 10
30.0
 20
110.59999999999997
 10
90.0
 20
110.59999999999997
 10
90.0
 20
114.99999999999997
 10
30.0
 20
114.99999999999997
  0
TEXT
  5
158
330
17
100
AcDbEntity
  8
06-TEXTO
100
AcDbText
 10
31.5
 20
112.79999999999997
 30
0.0
 40
2.5
  1
ABC 10 kg
  7
ISO3098
 11
31.5
 21
112.79999999999997
 31
0.0
100
AcDbText
 73
2
  0
LWPOLYLINE
  5
159
330
17
100
AcDbEntity
  8
10-ROTULO
100
AcDbPolyline
 90
4
 70
1
 10
90.0
 20
110.59999999999997
 10
120.0
 20
110.59999999999997
 10
120.0
 20
114.99999999999997
 10
90.0
 20
114.99999999999997
  0
TEXT
  5
15A
330
17
100
AcDbEntity
  8
06-TEXTO
100
AcDbText
 10
105.0
 20
112.79999999999997
 30
0.0
 40
2.5
  1
A B C
  7
ISO3098
 72
1
 11
105.0
 21
112.79999999999997
 31
0.0
100
AcDbText
 73
2
  0
LWPOLYLINE
  5
15B
330
17
100
AcDbEntity
  8
10-ROTULO
100
AcDbPolyline
 90
4
 70
1
 10
120.0
 20
110.59999999999997
 10
150.0
 20
110.59999999999997
 10
150.0
 20
114.99999999999997
 10
120.0
 20
114.99999999999997
  0
TEXT
  5
15C
330
17
100
AcDbEntity
  8
06-TEXTO
100
AcDbText
 10
135.0
 20
112.79999999999997
 30
0.0
 40
2.5
  1
IRAM 3523
  7
ISO3098
 72
1
 11
135.0
 21
112.79999999999997
 31
0.0
100
AcDbText
 73
2
  0
LWPOLYLINE
  5
15D
330
17
100
AcDbEntity
  8
10-ROTULO
100
AcDbPolyline
 90
4
 70
1
 10
30.0
 20
106.19999999999996
 10
90.0
 20
106.19999999999996
 10
90.0
 20
110.59999999999997
 10
30.0
 20
110.59999999999997
  0
TEXT
  5
15E
330
17
100
AcDbEntity
  8
06-TEXTO
100
AcDbText
 10
31.5
 20
108.39999999999996
 30
0.0
 40
2.5
  1
Agua 10 l
  7
ISO3098
 11
31.5
 21
108.39999999999996
 31
0.0
100
AcDbText
 73
2
  0
LWPOLYLINE
  5
15F
330
17
100
AcDbEntity
  8
10-ROTULO
100
AcDbPolyline
 90
4
 70
1
 10
90.0
 20
106.19999999999996
 10
120.0
 20
106.19999999999996
 10
120.0
 20
110.59999999999997
 10
90.0
 20
110.59999999999997
  0
TEXT
  5
160
330
17
100
AcDbEntity
  8
06-TEXTO
100
AcDbText
 10
105.0
 20
108.39999999999996
 30
0.0
 40
2.5
  1
A
  7
ISO3098
 72
1
 11
105.0
 21
108.39999999999996
 31
0.0
100
AcDbText
 73
2
  0
LWPOLYLINE
  5
161
330
17
100
AcDbEntity
  8
10-ROTULO
100
AcDbPolyline
 90
4
 70
1
 10
120.0
 20
106.19999999999996
 10
150.0
 20
106.19999999999996
 10
150.0
 20
110.59999999999997
 10
120.0
 20
110.59999999999997
  0
TEXT
  5
162
330
17
100
AcDbEntity
  8
06-TEXTO
100
AcDbText
 10
135.0
 20
108.39999999999996
 30
0.0
 40
2.5
  1
IRAM 3525
  7
ISO3098
 72
1
 11
135.0
 21
108.39999999999996
 31
0.0
100
AcDbText
 73
2
  0
LWPOLYLINE
  5
163
330
17
100
AcDbEntity
  8
10-ROTULO
100
AcDbPolyline
 90
4
 70
1
 10
30.0
 20
101.79999999999995
 10
90.0
 20
101.79999999999995
 10
90.0
 20
106.19999999999996
 10
30.0
 20
106.19999999999996
  0
TEXT
  5
164
330
17
100
AcDbEntity
  8
06-TEXTO
100
AcDbText
 10
31.5
 20
103.99999999999996
 30
0.0
 40
2.5
  1
AFFF 10 l
  7
ISO3098
 11
31.5
 21
103.99999999999996
 31
0.0
100
AcDbText
 73
2
  0
LWPOLYLINE
  5
165
330
17
100
AcDbEntity
  8
10-ROTULO
100
AcDbPolyline
 90
4
 70
1
 10
90.0
 20
101.79999999999995
 10
120.0
 20
101.79999999999995
 10
120.0
 20
106.19999999999996
 10
90.0
 20
106.19999999999996
  0
TEXT
  5
166
330
17
100
AcDbEntity
  8
06-TEXTO
100
AcDbText
 10
105.0
 20
103.99999999999996
 30
0.0
 40
2.5
  1
A B
  7
ISO3098
 72
1
 11
105.0
 21
103.99999999999996
 31
0.0
100
AcDbText
 73
2
  0
LWPOLYLINE
  5
167
330
17
100
AcDbEntity
  8
10-ROTULO
100
AcDbPolyline
 90
4
 70
1
 10
120.0
 20
101.79999999999995
 10
150.0
 20
101.79999999999995
 10
150.0
 20
106.19999999999996
 10
120.0
 20
106.19999999999996
  0
TEXT
  5
168
330
17
100
AcDbEntity
  8
06-TEXTO
100
AcDbText
 10
135.0
 20
103.99999999999996
 30
0.0
 40
2.5
  1
IRAM 3527
  7
ISO3098
 72
1
 11
135.0
 21
103.99999999999996
 31
0.0
100
AcDbText
 73
2
  0
LWPOLYLINE
  5
169
330
17
100
AcDbEntity
  8
10-ROTULO
100
AcDbPolyline
 90
4
 70
1
 10
30.0
 20
97.39999999999995
 10
90.0
 20
97.39999999999995
 10
90.0
 20
101.79999999999995
 10
30.0
 20
101.79999999999995
  0
TEXT
  5
16A
330
17
100
AcDbEntity
  8
06-TEXTO
100
AcDbText
 10
31.5
 20
99.59999999999995
 30
0.0
 40
2.5
  1
AFFF 50 l sobre ruedas
  7
ISO3098
 11
31.5
 21
99.59999999999995
 31
0.0
100
AcDbText
 73
2
  0
LWPOLYLINE
  5
16B
330
17
100
AcDbEntity
  8
10-ROTULO
100
AcDbPolyline
 90
4
 70
1
 10
90.0
 20
97.39999999999995
 10
120.0
 20
97.39999999999995
 10
120.0
 20
101.79999999999995
 10
90.0
 20
101.79999999999995
  0
TEXT
  5
16C
330
17
100
AcDbEntity
  8
06-TEXTO
100
AcDbText
 10
105.0
 20
99.59999999999995
 30
0.0
 40
2.5
  1
A B
  7
ISO3098
 72
1
 11
105.0
 21
99.59999999999995
 31
0.0
100
AcDbText
 73
2
  0
LWPOLYLINE
  5
16D
330
17
100
AcDbEntity
  8
10-ROTULO
100
AcDbPolyline
 90
4
 70
1
 10
120.0
 20
97.39999999999995
 10
150.0
 20
97.39999999999995
 10
150.0
 20
101.79999999999995
 10
120.0
 20
101.79999999999995
  0
TEXT
  5
16E
330
17
100
AcDbEntity
  8
06-TEXTO
100
AcDbText
 10
135.0
 20
99.59999999999995
 30
0.0
 40
2.5
  1
IRAM 3541
  7
ISO3098
 72
1
 11
135.0
 21
99.59999999999995
 31
0.0
100
AcDbText
 73
2
  0
LWPOLYLINE
  5
16F
330
17
100
AcDbEntity
  8
10-ROTULO
100
AcDbPolyline
 90
4
 70
1
 10
30.0
 20
92.99999999999994
 10
90.0
 20
92.99999999999994
 10
90.0
 20
97.39999999999995
 10
30.0
 20
97.39999999999995
  0
TEXT
  5
170
330
17
100
AcDbEntity
  8
06-TEXTO
100
AcDbText
 10
31.5
 20
95.19999999999995
 30
0.0
 40
2.5
  1
BC 5 kg
  7
ISO3098
 11
31.5
 21
95.19999999999995
 31
0.0
100
AcDbText
 73
2
  0
LWPOLYLINE
  5
171
330
17
100
AcDbEntity
  8
10-ROTULO
100
AcDbPolyline
 90
4
 70
1
 10
90.0
 20
92.99999999999994
 10
120.0
 20
92.99999999999994
 10
120.0
 20
97.39999999999995
 10
90.0
 20
97.39999999999995
  0
TEXT
  5
172
330
17
100
AcDbEntity
  8
06-TEXTO
100
AcDbText
 10
105.0
 20
95.19999999999995
 30
0.0
 40
2.5
  1
B C
  7
ISO3098
 72
1
 11
105.0
 21
95.19999999999995
 31
0.0
100
AcDbText
 73
2
  0
LWPOLYLINE
  5
173
330
17
100
AcDbEntity
  8
10-ROTULO
100
AcDbPolyline
 90
4
 70
1
 10
120.0
 20
92.99999999999994
 10
150.0
 20
92.99999999999994
 10
150.0
 20
97.39999999999995
 10
120.0
 20
97.39999999999995
  0
TEXT
  5
174
330
17
100
AcDbEntity
  8
06-TEXTO
100
AcDbText
 10
135.0
 20
95.19999999999995
 30
0.0
 40
2.5
  1
IRAM 3523
  7
ISO3098
 72
1
 11
135.0
 21
95.19999999999995
 31
0.0
100
AcDbText
 73
2
  0
LWPOLYLINE
  5
175
330
17
100
AcDbEntity
  8
10-ROTULO
100
AcDbPolyline
 90
4
 70
1
 10
30.0
 20
88.59999999999994
 10
90.0
 20
88.59999999999994
 10
90.0
 20
92.99999999999994
 10
30.0
 20
92.99999999999994
  0
TEXT
  5
176
330
17
100
AcDbEntity
  8
06-TEXTO
100
AcDbText
 10
31.5
 20
90.79999999999994
 30
0.0
 40
2.5
  1
Sales K 6 l
  7
ISO3098
 11
31.5
 21
90.79999999999994
 31
0.0
100
AcDbText
 73
2
  0
LWPOLYLINE
  5
177
330
17
100
AcDbEntity
  8
10-ROTULO
100
AcDbPolyline
 90
4
 70
1
 10
90.0
 20
88.59999999999994
 10
120.0
 20
88.59999999999994
 10
120.0
 20
92.99999999999994
 10
90.0
 20
92.99999999999994
  0
TEXT
  5
178
330
17
100
AcDbEntity
  8
06-TEXTO
100
AcDbText
 10
105.0
 20
90.79999999999994
 30
0.0
 40
2.5
  1
A K
  7
ISO3098
 72
1
 11
105.0
 21
90.79999999999994
 31
0.0
100
AcDbText
 73
2
  0
LWPOLYLINE
  5
179
330
17
100
AcDbEntity
  8
10-ROTULO
100
AcDbPolyline
 90
4
 70
1
 10
120.0
 20
88.59999999999994
 10
150.0
 20
88.59999999999994
 10
150.0
 20
92.99999999999994
 10
120.0
 20
92.99999999999994
  0
TEXT
  5
17A
330
17
100
AcDbEntity
  8
06-TEXTO
100
AcDbText
 10
135.0
 20
90.79999999999994
 30
0.0
 40
2.5
  1
IRAM 3694
  7
ISO3098
 72
1
 11
135.0
 21
90.79999999999994
 31
0.0
100
AcDbText
 73
2
  0
LWPOLYLINE
  5
17B
330
17
100
AcDbEntity
  8
10-ROTULO
100
AcDbPolyline
 90
4
 70
1
 10
155.0
 20
132.6
 10
275.0
 20
132.6
 10
275.0
 20
137.0
 10
155.0
 20
137.0
  0
TEXT
  5
17C
330
17
100
AcDbEntity
  8
06-TEXTO
100
AcDbText
 10
215.0
 20
134.8
 30
0.0
 40
3.5
  1
(continuación)
  7
ISO3098
 72
1
 11
215.0
 21
134.8
 31
0.0
100
AcDbText
 73
2
  0
LWPOLYLINE
  5
17D
330
17
100
AcDbEntity
  8
10-ROTULO
100
AcDbPolyline
 90
4
 70
1
 10
155.0
 20
128.2
 10
215.0
 20
128.2
 10
215.0
 20
132.6
 10
155.0
 20
132.6
  0
TEXT
  5
17E
330
17
100
AcDbEntity
  8
06-TEXTO
100
AcDbText
 10
156.5
 20
130.4
 30
0.0
 40
2.5
  1
Modelo FLAMA
  7
ISO3098
 11
156.5
 21
130.4
 31
0.0
100
AcDbText
 73
2
  0
LWPOLYLINE
  5
17F
330
17
100
AcDbEntity
  8
10-ROTULO
100
AcDbPolyline
 90
4
 70
1
 10
215.0
 20
128.2
 10
245.0
 20
128.2
 10
245.0
 20
132.6
 10
215.0
 20
132.6
  0
TEXT
  5
180
330
17
100
AcDbEntity
  8
06-TEXTO
100
AcDbText
 10
230.0
 20
130.4
 30
0.0
 40
2.5
  1
Tipos de fuego
  7
ISO3098
 72
1
 11
230.0
 21
130.4
 31
0.0
100
AcDbText
 73
2
  0
LWPOLYLINE
  5
181
330
17
100
AcDbEntity
  8
10-ROTULO
100
AcDbPolyline
 90
4
 70
1
 10
245.0
 20
128.2
 10
275.0
 20
128.2
 10
275.0
 20
132.6
 10
245.0
 20
132.6
  0
TEXT
  5
182
330
17
100
AcDbEntity
  8
06-TEXTO
100
AcDbText
 10
260.0
 20
130.4
 30
0.0
 40
2.5
  1
Norma
  7
ISO3098
 72
1
 11
260.0
 21
130.4
 31
0.0
100
AcDbText
 73
2
  0
LWPOLYLINE
  5
183
330
17
100
AcDbEntity
  8
10-ROTULO
100
AcDbPolyline
 90
4
 70
1
 10
155.0
 20
123.79999999999998
 10
215.0
 20
123.79999999999998
 10
215.0
 20
128.2
 10
155.0
 20
128.2
  0
TEXT
  5
184
330
17
100
AcDbEntity
  8
06-TEXTO
100
AcDbText
 10
156.5
 20
125.99999999999999
 30
0.0
 40
2.5
  1
CO₂ 2 kg
  7
ISO3098
 11
156.5
 21
125.99999999999999
 31
0.0
100
AcDbText
 73
2
  0
LWPOLYLINE
  5
185
330
17
100
AcDbEntity
  8
10-ROTULO
100
AcDbPolyline
 90
4
 70
1
 10
215.0
 20
123.79999999999998
 10
245.0
 20
123.79999999999998
 10
245.0
 20
128.2
 10
215.0
 20
128.2
  0
TEXT
  5
186
330
17
100
AcDbEntity
  8
06-TEXTO
100
AcDbText
 10
230.0
 20
125.99999999999999
 30
0.0
 40
2.5
  1
B C
  7
ISO3098
 72
1
 11
230.0
 21
125.99999999999999
 31
0.0
100
AcDbText
 73
2
  0
LWPOLYLINE
  5
187
330
17
100
AcDbEntity
  8
10-ROTULO
100
AcDbPolyline
 90
4
 70
1
 10
245.0
 20
123.79999999999998
 10
275.0
 20
123.79999999999998
 10
275.0
 20
128.2
 10
245.0
 20
128.2
  0
TEXT
  5
188
330
17
100
AcDbEntity
  8
06-TEXTO
100
AcDbText
 10
260.0
 20
125.99999999999999
 30
0.0
 40
2.5
  1
IRAM 3509
  7
ISO3098
 72
1
 11
260.0
 21
125.99999999999999
 31
0.0
100
AcDbText
 73
2
  0
LWPOLYLINE
  5
189
330
17
100
AcDbEntity
  8
10-ROTULO
100
AcDbPolyline
 90
4
 70
1
 10
155.0
 20
119.39999999999998
 10
215.0
 20
119.39999999999998
 10
215.0
 20
123.79999999999998
 10
155.0
 20
123.79999999999998
  0
TEXT
  5
18A
330
17
100
AcDbEntity
  8
06-TEXTO
100
AcDbText
 10
156.5
 20
121.59999999999998
 30
0.0
 40
2.5
  1
CO₂ 5 kg
  7
ISO3098
 11
156.5
 21
121.59999999999998
 31
0.0
100
AcDbText
 73
2
  0
LWPOLYLINE
  5
18B
330
17
100
AcDbEntity
  8
10-ROTULO
100
AcDbPolyline
 90
4
 70
1
 10
215.0
 20
119.39999999999998
 10
245.0
 20
119.39999999999998
 10
245.0
 20
123.79999999999998
 10
215.0
 20
123.79999999999998
  0
TEXT
  5
18C
330
17
100
AcDbEntity
  8
06-TEXTO
100
AcDbText
 10
230.0
 20
121.59999999999998
 30
0.0
 40
2.5
  1
B C
  7
ISO3098
 72
1
 11
230.0
 21
121.59999999999998
 31
0.0
100
AcDbText
 73
2
  0
LWPOLYLINE
  5
18D
330
17
100
AcDbEntity
  8
10-ROTULO
100
AcDbPolyline
 90
4
 70
1
 10
245.0
 20
119.39999999999998
 10
275.0
 20
119.39999999999998
 10
275.0
 20
123.79999999999998
 10
245.0
 20
123.79999999999998
  0
TEXT
  5
18E
330
17
100
AcDbEntity
  8
06-TEXTO
100
AcDbText
 10
260.0
 20
121.59999999999998
 30
0.0
 40
2.5
  1
IRAM 3509
  7
ISO3098
 72
1
 11
260.0
 21
121.59999999999998
 31
0.0
100
AcDbText
 73
2
  0
LWPOLYLINE
  5
18F
330
17
100
AcDbEntity
  8
10-ROTULO
100
AcDbPolyline
 90
4
 70
1
 10
155.0
 20
114.99999999999997
 10
215.0
 20
114.99999999999997
 10
215.0
 20
119.39999999999998
 10
155.0
 20
119.39999999999998
  0
TEXT
  5
190
330
17
100
AcDbEntity
  8
06-TEXTO
100
AcDbText
 10
156.5
 20
117.19999999999997
 30
0.0
 40
2.5
  1
HCFC/HFC 5 kg
  7
ISO3098
 11
156.5
 21
117.19999999999997
 31
0.0
100
AcDbText
 73
2
  0
LWPOLYLINE
  5
191
330
17
100
AcDbEntity
  8
10-ROTULO
100
AcDbPolyline
 90
4
 70
1
 10
215.0
 20
114.99999999999997
 10
245.0
 20
114.99999999999997
 10
245.0
 20
119.39999999999998
 10
215.0
 20
119.39999999999998
  0
TEXT
  5
192
330
17
100
AcDbEntity
  8
06-TEXTO
100
AcDbText
 10
230.0
 20
117.19999999999997
 30
0.0
 40
2.5
  1
A B C
  7
ISO3098
 72
1
 11
230.0
 21
117.19999999999997
 31
0.0
100
AcDbText
 73
2
  0
LWPOLYLINE
  5
193
330
17
100
AcDbEntity
  8
10-ROTULO
100
AcDbPolyline
 90
4
 70
1
 10
245.0
 20
114.99999999999997
 10
275.0
 20
114.99999999999997
 10
275.0
 20
119.39999999999998
 10
245.0
 20
119.39999999999998
  0
TEXT
  5
194
330
17
100
AcDbEntity
  8
06-TEXTO
100
AcDbText
 10
260.0
 20
117.19999999999997
 30
0.0
 40
2.5
  1
IRAM 3504
  7
ISO3098
 72
1
 11
260.0
 21
117.19999999999997
 31
0.0
100
AcDbText
 73
2
  0
LWPOLYLINE
  5
195
330
17
100
AcDbEntity
  8
10-ROTULO
100
AcDbPolyline
 90
4
 70
1
 10
155.0
 20
110.59999999999997
 10
215.0
 20
110.59999999999997
 10
215.0
 20
114.99999999999997
 10
155.0
 20
114.99999999999997
  0
TEXT
  5
196
330
17
100
AcDbEntity
  8
06-TEXTO
100
AcDbText
 10
156.5
 20
112.79999999999997
 30
0.0
 40
2.5
  1
Clase D 9 l
  7
ISO3098
 11
156.5
 21
112.79999999999997
 31
0.0
100
AcDbText
 73
2
  0
LWPOLYLINE
  5
197
330
17
100
AcDbEntity
  8
10-ROTULO
100
AcDbPolyline
 90
4
 70
1
 10
215.0
 20
110.59999999999997
 10
245.0
 20
110.59999999999997
 10
245.0
 20
114.99999999999997
 10
215.0
 20
114.99999999999997
  0
TEXT
  5
198
330
17
100
AcDbEntity
  8
06-TEXTO
100
AcDbText
 10
230.0
 20
112.79999999999997
 30
0.0
 40
2.5
  1
D
  7
ISO3098
 72
1
 11
230.0
 21
112.79999999999997
 31
0.0
100
AcDbText
 73
2
  0
LWPOLYLINE
  5
199
330
17
100
AcDbEntity
  8
10-ROTULO
100
AcDbPolyline
 90
4
 70
1
 10
245.0
 20
110.59999999999997
 10
275.0
 20
110.59999999999997
 10
275.0
 20
114.99999999999997
 10
245.0
 20
114.99999999999997
  0
TEXT
  5
19A
330
17
100
AcDbEntity
  8
06-TEXTO
100
AcDbText
 10
260.0
 20
112.79999999999997
 30
0.0
 40
2.5
  1
IRAM 3523
  7
ISO3098
 72
1
 11
260.0
 21
112.79999999999997
 31
0.0
100
AcDbText
 73
2
  0
LWPOLYLINE
  5
19B
330
17
100
AcDbEntity
  8
10-ROTULO
100
AcDbPolyline
 90
4
 70
1
 10
155.0
 20
106.19999999999996
 10
215.0
 20
106.19999999999996
 10
215.0
 20
110.59999999999997
 10
155.0
 20
110.59999999999997
  0
TEXT
  5
19C
330
17
100
AcDbEntity
  8
06-TEXTO
100
AcDbText
 10
156.5
 20
108.39999999999996
 30
0.0
 40
2.5
  1
ABC 25 kg sobre ruedas
  7
ISO3098
 11
156.5
 21
108.39999999999996
 31
0.0
100
AcDbText
 73
2
  0
LWPOLYLINE
  5
19D
330
17
100
AcDbEntity
  8
10-ROTULO
100
AcDbPolyline
 90
4
 70
1
 10
215.0
 20
106.19999999999996
 10
245.0
 20
106.19999999999996
 10
245.0
 20
110.59999999999997
 10
215.0
 20
110.59999999999997
  0
TEXT
  5
19E
330
17
100
AcDbEntity
  8
06-TEXTO
100
AcDbText
 10
230.0
 20
108.39999999999996
 30
0.0
 40
2.5
  1
A B C
  7
ISO3098
 72
1
 11
230.0
 21
108.39999999999996
 31
0.0
100
AcDbText
 73
2
  0
LWPOLYLINE
  5
19F
330
17
100
AcDbEntity
  8
10-ROTULO
100
AcDbPolyline
 90
4
 70
1
 10
245.0
 20
106.19999999999996
 10
275.0
 20
106.19999999999996
 10
275.0
 20
110.59999999999997
 10
245.0
 20
110.59999999999997
  0
TEXT
  5
1A0
330
17
100
AcDbEntity
  8
06-TEXTO
100
AcDbText
 10
260.0
 20
108.39999999999996
 30
0.0
 40
2.5
  1
IRAM 3550
  7
ISO3098
 72
1
 11
260.0
 21
108.39999999999996
 31
0.0
100
AcDbText
 73
2
  0
LWPOLYLINE
  5
1A1
330
17
100
AcDbEntity
  8
10-ROTULO
100
AcDbPolyline
 90
4
 70
1
 10
155.0
 20
101.79999999999995
 10
215.0
 20
101.79999999999995
 10
215.0
 20
106.19999999999996
 10
155.0
 20
106.19999999999996
  0
TEXT
  5
1A2
330
17
100
AcDbEntity
  8
06-TEXTO
100
AcDbText
 10
156.5
 20
103.99999999999996
 30
0.0
 40
2.5
  1
ABC 50 kg sobre ruedas
  7
ISO3098
 11
156.5
 21
103.99999999999996
 31
0.0
100
AcDbText
 73
2
  0
LWPOLYLINE
  5
1A3
330
17
100
AcDbEntity
  8
10-ROTULO
100
AcDbPolyline
 90
4
 70
1
 10
215.0
 20
101.79999999999995
 10
245.0
 20
101.79999999999995
 10
245.0
 20
106.19999999999996
 10
215.0
 20
106.19999999999996
  0
TEXT
  5
1A4
330
17
100
AcDbEntity
  8
06-TEXTO
100
AcDbText
 10
230.0
 20
103.99999999999996
 30
0.0
 40
2.5
  1
A B C
  7
ISO3098
 72
1
 11
230.0
 21
103.99999999999996
 31
0.0
100
AcDbText
 73
2
  0
LWPOLYLINE
  5
1A5
330
17
100
AcDbEntity
  8
10-ROTULO
100
AcDbPolyline
 90
4
 70
1
 10
245.0
 20
101.79999999999995
 10
275.0
 20
101.79999999999995
 10
275.0
 20
106.19999999999996
 10
245.0
 20
106.19999999999996
  0
TEXT
  5
1A6
330
17
100
AcDbEntity
  8
06-TEXTO
100
AcDbText
 10
260.0
 20
103.99999999999996
 30
0.0
 40
2.5
  1
IRAM 3550
  7
ISO3098
 72
1
 11
260.0
 21
103.99999999999996
 31
0.0
100
AcDbText
 73
2
  0
LWPOLYLINE
  5
1A7
330
17
100
AcDbEntity
  8
10-ROTULO
100
AcDbPolyline
 90
4
 70
1
 10
155.0
 20
97.39999999999995
 10
215.0
 20
97.39999999999995
 10
215.0
 20
101.79999999999995
 10
155.0
 20
101.79999999999995
  0
TEXT
  5
1A8
330
17
100
AcDbEntity
  8
06-TEXTO
100
AcDbText
 10
156.5
 20
99.59999999999995
 30
0.0
 40
2.5
  1
ABC 70 kg sobre ruedas
  7
ISO3098
 11
156.5
 21
99.59999999999995
 31
0.0
100
AcDbText
 73
2
  0
LWPOLYLINE
  5
1A9
330
17
100
AcDbEntity
  8
10-ROTULO
100
AcDbPolyline
 90
4
 70
1
 10
215.0
 20
97.39999999999995
 10
245.0
 20
97.39999999999995
 10
245.0
 20
101.79999999999995
 10
215.0
 20
101.79999999999995
  0
TEXT
  5
1AA
330
17
100
AcDbEntity
  8
06-TEXTO
100
AcDbText
 10
230.0
 20
99.59999999999995
 30
0.0
 40
2.5
  1
A B C
  7
ISO3098
 72
1
 11
230.0
 21
99.59999999999995
 31
0.0
100
AcDbText
 73
2
  0
LWPOLYLINE
  5
1AB
330
17
100
AcDbEntity
  8
10-ROTULO
100
AcDbPolyline
 90
4
 70
1
 10
245.0
 20
97.39999999999995
 10
275.0
 20
97.39999999999995
 10
275.0
 20
101.79999999999995
 10
245.0
 20
101.79999999999995
  0
TEXT
  5
1AC
330
17
100
AcDbEntity
  8
06-TEXTO
100
AcDbText
 10
260.0
 20
99.59999999999995
 30
0.0
 40
2.5
  1
IRAM 3550
  7
ISO3098
 72
1
 11
260.0
 21
99.59999999999995
 31
0.0
100
AcDbText
 73
2
  0
LWPOLYLINE
  5
1AD
330
17
100
AcDbEntity
  8
10-ROTULO
100
AcDbPolyline
 90
4
 70
1
 10
155.0
 20
92.99999999999994
 10
215.0
 20
92.99999999999994
 10
215.0
 20
97.39999999999995
 10
155.0
 20
97.39999999999995
  0
TEXT
  5
1AE
330
17
100
AcDbEntity
  8
06-TEXTO
100
AcDbText
 10
156.5
 20
95.19999999999995
 30
0.0
 40
2.5
  1
ABC 100 kg sobre ruedas
  7
ISO3098
 11
156.5
 21
95.19999999999995
 31
0.0
100
AcDbText
 73
2
  0
LWPOLYLINE
  5
1AF
330
17
100
AcDbEntity
  8
10-ROTULO
100
AcDbPolyline
 90
4
 70
1
 10
215.0
 20
92.99999999999994
 10
245.0
 20
92.99999999999994
 10
245.0
 20
97.39999999999995
 10
215.0
 20
97.39999999999995
  0
TEXT
  5
1B0
330
17
100
AcDbEntity
  8
06-TEXTO
100
AcDbText
 10
230.0
 20
95.19999999999995
 30
0.0
 40
2.5
  1
A B C
  7
ISO3098
 72
1
 11
230.0
 21
95.19999999999995
 31
0.0
100
AcDbText
 73
2
  0
LWPOLYLINE
  5
1B1
330
17
100
AcDbEntity
  8
10-ROTULO
100
AcDbPolyline
 90
4
 70
1
 10
245.0
 20
92.99999999999994
 10
275.0
 20
92.99999999999994
 10
275.0
 20
97.39999999999995
 10
245.0
 20
97.39999999999995
  0
TEXT
  5
1B2
330
17
100
AcDbEntity
  8
06-TEXTO
100
AcDbText
 10
260.0
 20
95.19999999999995
 30
0.0
 40
2.5
  1
IRAM 3550
  7
ISO3098
 72
1
 11
260.0
 21
95.19999999999995
 31
0.0
100
AcDbText
 73
2
  0
TEXT
  5
1B3
330
17
100
AcDbEntity
  8
06-TEXTO
100
AcDbText
 10
30.0
 20
85.0
 30
0.0
 40
3.5
  1
NOTAS (IRAM 3517-2:2020)
  7
ISO3098
 11
30.0
 21
85.0
 31
0.0
100
AcDbText
 73
1
  0
TEXT
  5
1B4
330
17
100
AcDbEntity
  8
06-TEXTO
100
AcDbText
 10
30.0
 20
80.6
 30
0.0
 40
2.5
  1
1) Cada tipo de fuego se indica con la letra y el pictograma simultáneamente (7.2.2).
  7
ISO3098
 11
30.0
 21
80.6
 31
0.0
100
AcDbText
 73
1
  0
TEXT
  5
1B5
330
17
100
AcDbEntity
  8
06-TEXTO
100
AcDbText
 10
30.0
 20
76.2
 30
0.0
 40
2.5
  1
2) A triángulo equilátero, B cuadrado, C círculo, D estrella, K hexágono, con la letra adentro;
  7
ISO3098
 11
30.0
 21
76.2
 31
0.0
100
AcDbText
 73
1
  0
TEXT
  5
1B6
330
17
100
AcDbEntity
  8
06-TEXTO
100
AcDbText
 10
30.0
 20
71.8
 30
0.0
 40
2.5
  1
    dimensiones en función de e según figura 1 y la norma de fabricación; altura mínima 12 mm.
  7
ISO3098
 11
30.0
 21
71.8
 31
0.0
100
AcDbText
 73
1
  0
TEXT
  5
1B7
330
17
100
AcDbEntity
  8
06-TEXTO
100
AcDbText
 10
30.0
 20
67.4
 30
0.0
 40
2.5
  1
3) Colores IRAM-DEF D 1054: A verde 01-1-150, B rojo 03-1-050, C azul 08-1-070, D amarillo 05-1-040,
  7
ISO3098
 11
30.0
 21
67.4
 31
0.0
100
AcDbText
 73
1
  0
TEXT
  5
1B8
330
17
100
AcDbEntity
  8
06-TEXTO
100
AcDbText
 10
30.0
 20
63.0
 30
0.0
 40
2.5
  1
    K negro. Los RGB de esta lámina son sólo de presentación.
  7
ISO3098
 11
30.0
 21
63.0
 31
0.0
100
AcDbText
 73
1
  0
TEXT
  5
1B9
330
17
100
AcDbEntity
  8
06-TEXTO
100
AcDbText
 10
30.0
 20
58.599999999999994
 30
0.0
 40
2.5
  1
4) Pictogramas esquemáticos: para producción reproducir la figura 1. NFPA 10: FL_SEN_05.
  7
ISO3098
 11
30.0
 21
58.599999999999994
 31
0.0
100
AcDbText
 73
1
  0
VIEWPORT
  5
1BE
330
1BA
100
AcDbEntity
 67
1
  8
VIEWPORTS
100
AcDbViewport
 10
322560.0
 20
228096.0
 30
0.0
 40
709632.0
 41
501811.2
 68
1
 69
1
 12
322560.0
 22
228096.0
 13
0.0
 23
0.0
 14
10.0
 24
10.0
 15
10.0
 25
10.0
 16
0.0
 26
0.0
 36
1.0
 17
0.0
 27
0.0
 37
0.0
 42
50.0
 43
0.0
 44
0.0
 45
501811.2
 50
0.0
 51
0.0
 72
100
 90
557088
  1

281
0
 71
0
 74
0
110
0.0
120
0.0
130
0.0
111
1.0
121
0.0
131
0.0
112
0.0
122
1.0
132
0.0
 79
0
146
0.0
282
0
  0
VIEWPORT
  5
1BF
330
1BA
100
AcDbEntity
 67
1
  8
VIEWPORTS
100
AcDbViewport
 10
210.0
 20
148.5
 30
0.0
 40
420.0
 41
297.0
 68
2
 69
3
 12
210.0
 22
148.5
 13
0.0
 23
0.0
 14
10.0
 24
10.0
 15
10.0
 25
10.0
 16
0.0
 26
0.0
 36
1.0
 17
0.0
 27
0.0
 37
0.0
 42
50.0
 43
0.0
 44
0.0
 45
297.0
 50
0.0
 51
0.0
 72
100
 90
0
  1

281
0
 71
0
 74
0
110
0.0
120
0.0
130
0.0
111
1.0
121
0.0
131
0.0
112
0.0
122
1.0
132
0.0
 79
0
146
0.0
282
0
  0
ENDSEC
  0
SECTION
  2
OBJECTS
  0
DICTIONARY
  5
A
330
0
100
AcDbDictionary
281
1
  3
ACAD_COLOR
350
B
  3
ACAD_GROUP
350
C
  3
ACAD_LAYOUT
350
D
  3
ACAD_MATERIAL
350
E
  3
ACAD_MLEADERSTYLE
350
F
  3
ACAD_MLINESTYLE
350
10
  3
ACAD_PLOTSETTINGS
350
11
  3
ACAD_PLOTSTYLENAME
350
12
  3
ACAD_SCALELIST
350
14
  3
ACAD_TABLESTYLE
350
15
  3
ACAD_VISUALSTYLE
350
16
  3
EZDXF_META
350
2D
  0
DICTIONARY
  5
B
330
A
100
AcDbDictionary
281
1
  0
DICTIONARY
  5
C
330
A
100
AcDbDictionary
281
1
  0
DICTIONARY
  5
D
330
A
100
AcDbDictionary
281
1
  3
Model
350
1A
  3
Lamina
350
1BD
  0
DICTIONARY
  5
E
330
A
100
AcDbDictionary
281
1
  3
ByBlock
350
1F
  3
ByLayer
350
20
  3
Global
350
21
  0
DICTIONARY
  5
F
330
A
100
AcDbDictionary
281
1
  3
Standard
350
2C
  0
DICTIONARY
  5
10
330
A
100
AcDbDictionary
281
1
  3
Standard
350
22
  0
DICTIONARY
  5
11
330
A
100
AcDbDictionary
281
1
  0
ACDBDICTIONARYWDFLT
  5
12
330
A
100
AcDbDictionary
281
1
  3
Normal
350
13
100
AcDbDictionaryWithDefault
340
13
  0
ACDBPLACEHOLDER
  5
13
330
12
  0
DICTIONARY
  5
14
330
A
100
AcDbDictionary
281
1
  0
DICTIONARY
  5
15
330
A
100
AcDbDictionary
281
1
  0
DICTIONARY
  5
16
330
A
100
AcDbDictionary
281
1
  0
LAYOUT
  5
1A
330
D
100
AcDbPlotSettings
  1

  4
A3
  6

 40
7.5
 41
20.0
 42
7.5
 43
20.0
 44
420.0
 45
297.0
 46
0.0
 47
0.0
 48
0.0
 49
0.0
140
0.0
141
0.0
142
1.0
143
1.0
 70
1024
 72
1
 73
0
 74
5
  7

 75
16
 76
0
 77
2
 78
300
147
1.0
148
0.0
149
0.0
100
AcDbLayout
  1
Model
 70
1
 71
0
 10
0.0
 20
0.0
 11
420.0
 21
297.0
 12
0.0
 22
0.0
 32
0.0
 14
1e+20
 24
1e+20
 34
1e+20
 15
-1e+20
 25
-1e+20
 35
-1e+20
146
0.0
 13
0.0
 23
0.0
 33
0.0
 16
1.0
 26
0.0
 36
0.0
 17
0.0
 27
1.0
 37
0.0
 76
1
330
17
  0
MATERIAL
  5
1F
102
{ACAD_REACTORS
330
E
102
}
330
E
100
AcDbMaterial
  1
ByBlock
  2

 70
0
 40
1.0
 71
1
 41
1.0
 91
-1023410177
 42
1.0
 72
1
  3

 73
1
 74
1
 75
1
 44
0.5
 73
0
 45
1.0
 46
1.0
 77
1
  4

 78
1
 79
1
170
1
 48
1.0
171
1
  6

172
1
173
1
174
1
140
1.0
141
1.0
175
1
  7

176
1
177
1
178
1
143
1.0
179
1
  8

270
1
271
1
272
1
145
1.0
146
1.0
273
1
  9

274
1
275
1
276
1
 42
1.0
 72
1
  3

 73
1
 74
1
 75
1
 94
63
  0
MATERIAL
  5
20
102
{ACAD_REACTORS
330
E
102
}
330
E
100
AcDbMaterial
  1
ByLayer
  2

 70
0
 40
1.0
 71
1
 41
1.0
 91
-1023410177
 42
1.0
 72
1
  3

 73
1
 74
1
 75
1
 44
0.5
 73
0
 45
1.0
 46
1.0
 77
1
  4

 78
1
 79
1
170
1
 48
1.0
171
1
  6

172
1
173
1
174
1
140
1.0
141
1.0
175
1
  7

176
1
177
1
178
1
143
1.0
179
1
  8

270
1
271
1
272
1
145
1.0
146
1.0
273
1
  9

274
1
275
1
276
1
 42
1.0
 72
1
  3

 73
1
 74
1
 75
1
 94
63
  0
MATERIAL
  5
21
102
{ACAD_REACTORS
330
E
102
}
330
E
100
AcDbMaterial
  1
Global
  2

 70
0
 40
1.0
 71
1
 41
1.0
 91
-1023410177
 42
1.0
 72
1
  3

 73
1
 74
1
 75
1
 44
0.5
 73
0
 45
1.0
 46
1.0
 77
1
  4

 78
1
 79
1
170
1
 48
1.0
171
1
  6

172
1
173
1
174
1
140
1.0
141
1.0
175
1
  7

176
1
177
1
178
1
143
1.0
179
1
  8

270
1
271
1
272
1
145
1.0
146
1.0
273
1
  9

274
1
275
1
276
1
 42
1.0
 72
1
  3

 73
1
 74
1
 75
1
 94
63
  0
MLINESTYLE
  5
22
102
{ACAD_REACTORS
330
10
102
}
330
10
100
AcDbMlineStyle
  2
Standard
 70
0
  3

 62
256
 51
90.0
 52
90.0
 71
2
 49
0.5
 62
256
  6
BYLAYER
 49
-0.5
 62
256
  6
BYLAYER
  0
MLEADERSTYLE
  5
2C
102
{ACAD_REACTORS
330
F
102
}
330
F
100
AcDbMLeaderStyle
179
2
170
2
171
1
172
0
 90
2
 40
0.0
 41
0.0
173
1
 91
-1056964608
 92
-2
290
1
 42
2.0
291
1
 43
8.0
  3
Standard
 44
4.0
300

342
29
174
1
175
1
176
0
178
1
 93
-1056964608
 45
4.0
292
0
297
0
 46
4.0
 94
-1056964608
 47
1.0
 49
1.0
140
1.0
294
1
141
0.0
177
0
142
1.0
295
0
296
0
143
3.75
271
0
272
9
273
9
  0
DICTIONARY
  5
2D
330
A
100
AcDbDictionary
280
1
281
1
  3
CREATED_BY_EZDXF
350
2E
  3
WRITTEN_BY_EZDXF
350
1C2
  0
DICTIONARYVAR
  5
2E
330
2D
100
DictionaryVariables
280
0
  1
1.4.4 @ 2026-10-09T23:33:33.186782+00:00
  0
LAYOUT
  5
1BD
330
D
100
AcDbPlotSettings
  1

  2
DWG To PDF.pc3
  4
ISO_full_bleed_A3_(420.00_x_297.00_MM)_(420.00_x_297.00_MM)
  6

 40
0.0
 41
0.0
 42
0.0
 43
0.0
 44
420.0
 45
297.0
 46
0.0
 47
0.0
 48
0.0
 49
0.0
140
0.0
141
0.0
142
0.0078125
143
12.0
 70
672
 72
1
 73
0
 74
5
  7

 75
1
 76
0
 77
2
 78
300
147
1.0
148
0.0
149
0.0
100
AcDbLayout
  1
Lamina
 70
1
 71
3
 10
-0.0
 20
-0.0
 11
420.0
 21
297.0
 12
0.0
 22
0.0
 32
0.0
 14
1e+20
 24
1e+20
 34
1e+20
 15
-1e+20
 25
-1e+20
 35
-1e+20
146
0.0
 13
0.0
 23
0.0
 33
0.0
 16
1.0
 26
0.0
 36
0.0
 17
0.0
 27
1.0
 37
0.0
 76
1
330
1BA
331
1BE
  0
DICTIONARYVAR
  5
1C2
330
2D
100
DictionaryVariables
280
0
  1
1.4.4 @ 2026-10-09T23:33:33.226823+00:00
  0
ENDSEC
  0
EOF
