  0
SECTION
  2
HEADER
  9
$ACADVER
  1
AC1032
  9
$ACADMAINTVER
 90
4
  9
$DWGCODEPAGE
  3
ANSI_1252
  9
$LASTSAVEDBY
  1
ezdxf
  9
$REQUIREDVERSIONS
160
0
  9
$INSBASE
 10
0.0
 20
0.0
 30
0.0
  9
$EXTMIN
 10
1e+20
 20
1e+20
 30
1e+20
  9
$EXTMAX
 10
-1e+20
 20
-1e+20
 30
-1e+20
  9
$LIMMIN
 10
0.0
 20
0.0
  9
$LIMMAX
 10
420.0
 20
297.0
  9
$ORTHOMODE
 70
0
  9
$REGENMODE
 70
1
  9
$FILLMODE
 70
1
  9
$QTEXTMODE
 70
0
  9
$MIRRTEXT
 70
1
  9
$LTSCALE
 40
1.0
  9
$ATTMODE
 70
1
  9
$TEXTSIZE
 40
2.5
  9
$TRACEWID
 40
1.0
  9
$TEXTSTYLE
  7
Standard
  9
$CLAYER
  8
0
  9
$CELTYPE
  6
ByLayer
  9
$CECOLOR
 62
256
  9
$CELTSCALE
 40
1.0
  9
$DISPSILH
 70
0
  9
$DIMSCALE
 40
1.0
  9
$DIMASZ
 40
2.5
  9
$DIMEXO
 40
0.625
  9
$DIMDLI
 40
3.75
  9
$DIMRND
 40
0.0
  9
$DIMDLE
 40
0.0
  9
$DIMEXE
 40
1.25
  9
$DIMTP
 40
0.0
  9
$DIMTM
 40
0.0
  9
$DIMTXT
 40
2.5
  9
$DIMCEN
 40
2.5
  9
$DIMTSZ
 40
0.0
  9
$DIMTOL
 70
0
  9
$DIMLIM
 70
0
  9
$DIMTIH
 70
0
  9
$DIMTOH
 70
0
  9
$DIMSE1
 70
0
  9
$DIMSE2
 70
0
  9
$DIMTAD
 70
1
  9
$DIMZIN
 70
8
  9
$DIMBLK
  1

  9
$DIMASO
 70
1
  9
$DIMSHO
 70
1
  9
$DIMPOST
  1

  9
$DIMAPOST
  1

  9
$DIMALT
 70
0
  9
$DIMALTD
 70
3
  9
$DIMALTF
 40
0.03937007874
  9
$DIMLFAC
 40
1.0
  9
$DIMTOFL
 70
1
  9
$DIMTVP
 40
0.0
  9
$DIMTIX
 70
0
  9
$DIMSOXD
 70
0
  9
$DIMSAH
 70
0
  9
$DIMBLK1
  1

  9
$DIMBLK2
  1

  9
$DIMSTYLE
  2
ISO-25
  9
$DIMCLRD
 70
0
  9
$DIMCLRE
 70
0
  9
$DIMCLRT
 70
0
  9
$DIMTFAC
 40
1.0
  9
$DIMGAP
 40
0.625
  9
$DIMJUST
 70
0
  9
$DIMSD1
 70
0
  9
$DIMSD2
 70
0
  9
$DIMTOLJ
 70
0
  9
$DIMTZIN
 70
8
  9
$DIMALTZ
 70
0
  9
$DIMALTTZ
 70
0
  9
$DIMUPT
 70
0
  9
$DIMDEC
 70
2
  9
$DIMTDEC
 70
2
  9
$DIMALTU
 70
2
  9
$DIMALTTD
 70
3
  9
$DIMTXSTY
  7
Standard
  9
$DIMAUNIT
 70
0
  9
$DIMADEC
 70
0
  9
$DIMALTRND
 40
0.0
  9
$DIMAZIN
 70
0
  9
$DIMDSEP
 70
44
  9
$DIMATFIT
 70
3
  9
$DIMFRAC
 70
0
  9
$DIMLDRBLK
  1

  9
$DIMLUNIT
 70
2
  9
$DIMLWD
 70
-2
  9
$DIMLWE
 70
-2
  9
$DIMTMOVE
 70
0
  9
$DIMFXL
 40
1.0
  9
$DIMFXLON
 70
0
  9
$DIMJOGANG
 40
0.785398163397
  9
$DIMTFILL
 70
0
  9
$DIMTFILLCLR
 70
0
  9
$DIMARCSYM
 70
0
  9
$DIMLTYPE
  6

  9
$DIMLTEX1
  6

  9
$DIMLTEX2
  6

  9
$DIMTXTDIRECTION
 70
0
  9
$LUNITS
 70
2
  9
$LUPREC
 70
4
  9
$SKETCHINC
 40
1.0
  9
$FILLETRAD
 40
10.0
  9
$AUNITS
 70
0
  9
$AUPREC
 70
2
  9
$MENU
  1
.
  9
$ELEVATION
 40
0.0
  9
$PELEVATION
 40
0.0
  9
$THICKNESS
 40
0.0
  9
$LIMCHECK
 70
0
  9
$CHAMFERA
 40
0.0
  9
$CHAMFERB
 40
0.0
  9
$CHAMFERC
 40
0.0
  9
$CHAMFERD
 40
0.0
  9
$SKPOLY
 70
0
  9
$TDCREATE
 40
2461313.1954282406
  9
$TDUCREATE
 40
2458532.153996898
  9
$TDUPDATE
 40
2461313.1954282406
  9
$TDUUPDATE
 40
2458532.1544311
  9
$TDINDWG
 40
0.0
  9
$TDUSRTIMER
 40
0.0
  9
$USRTIMER
 70
1
  9
$ANGBASE
 50
0.0
  9
$ANGDIR
 70
0
  9
$PDMODE
 70
0
  9
$PDSIZE
 40
0.0
  9
$PLINEWID
 40
0.0
  9
$SPLFRAME
 70
0
  9
$SPLINETYPE
 70
6
  9
$SPLINESEGS
 70
8
  9
$HANDSEED
  5
177
  9
$SURFTAB1
 70
6
  9
$SURFTAB2
 70
6
  9
$SURFTYPE
 70
6
  9
$SURFU
 70
6
  9
$SURFV
 70
6
  9
$UCSBASE
  2

  9
$UCSNAME
  2

  9
$UCSORG
 10
0.0
 20
0.0
 30
0.0
  9
$UCSXDIR
 10
1.0
 20
0.0
 30
0.0
  9
$UCSYDIR
 10
0.0
 20
1.0
 30
0.0
  9
$UCSORTHOREF
  2

  9
$UCSORTHOVIEW
 70
0
  9
$UCSORGTOP
 10
0.0
 20
0.0
 30
0.0
  9
$UCSORGBOTTOM
 10
0.0
 20
0.0
 30
0.0
  9
$UCSORGLEFT
 10
0.0
 20
0.0
 30
0.0
  9
$UCSORGRIGHT
 10
0.0
 20
0.0
 30
0.0
  9
$UCSORGFRONT
 10
0.0
 20
0.0
 30
0.0
  9
$UCSORGBACK
 10
0.0
 20
0.0
 30
0.0
  9
$PUCSBASE
  2

  9
$PUCSNAME
  2

  9
$PUCSORG
 10
0.0
 20
0.0
 30
0.0
  9
$PUCSXDIR
 10
1.0
 20
0.0
 30
0.0
  9
$PUCSYDIR
 10
0.0
 20
1.0
 30
0.0
  9
$PUCSORTHOREF
  2

  9
$PUCSORTHOVIEW
 70
0
  9
$PUCSORGTOP
 10
0.0
 20
0.0
 30
0.0
  9
$PUCSORGBOTTOM
 10
0.0
 20
0.0
 30
0.0
  9
$PUCSORGLEFT
 10
0.0
 20
0.0
 30
0.0
  9
$PUCSORGRIGHT
 10
0.0
 20
0.0
 30
0.0
  9
$PUCSORGFRONT
 10
0.0
 20
0.0
 30
0.0
  9
$PUCSORGBACK
 10
0.0
 20
0.0
 30
0.0
  9
$USERI1
 70
0
  9
$USERI2
 70
0
  9
$USERI3
 70
0
  9
$USERI4
 70
0
  9
$USERI5
 70
0
  9
$USERR1
 40
0.0
  9
$USERR2
 40
0.0
  9
$USERR3
 40
0.0
  9
$USERR4
 40
0.0
  9
$USERR5
 40
0.0
  9
$WORLDVIEW
 70
1
  9
$SHADEDGE
 70
3
  9
$SHADEDIF
 70
70
  9
$TILEMODE
 70
1
  9
$MAXACTVP
 70
64
  9
$PINSBASE
 10
0.0
 20
0.0
 30
0.0
  9
$PLIMCHECK
 70
0
  9
$PEXTMIN
 10
1e+20
 20
1e+20
 30
1e+20
  9
$PEXTMAX
 10
-1e+20
 20
-1e+20
 30
-1e+20
  9
$PLIMMIN
 10
-0.0
 20
-0.0
  9
$PLIMMAX
 10
420.0
 20
297.0
  9
$UNITMODE
 70
0
  9
$VISRETAIN
 70
1
  9
$PLINEGEN
 70
0
  9
$PSLTSCALE
 70
0
  9
$TREEDEPTH
 70
3020
  9
$CMLSTYLE
  2
Standard
  9
$CMLJUST
 70
0
  9
$CMLSCALE
 40
20.0
  9
$PROXYGRAPHICS
 70
1
  9
$MEASUREMENT
 70
1
  9
$CELWEIGHT
370
-1
  9
$ENDCAPS
280
0
  9
$JOINSTYLE
280
0
  9
$LWDISPLAY
290
1
  9
$INSUNITS
 70
4
  9
$HYPERLINKBASE
  1

  9
$STYLESHEET
  1

  9
$XEDIT
290
1
  9
$CEPSNTYPE
380
0
  9
$PSTYLEMODE
290
1
  9
$FINGERPRINTGUID
  2
{F96B19AA-4240-4B1A-A83B-EC4A7DE8AD86}
  9
$VERSIONGUID
  2
{9A1F7466-42D3-4180-8047-9E8ED3D0B404}
  9
$EXTNAMES
290
1
  9
$PSVPSCALE
 40
0.0
  9
$OLESTARTUP
290
0
  9
$SORTENTS
280
127
  9
$INDEXCTL
280
0
  9
$HIDETEXT
280
1
  9
$XCLIPFRAME
280
1
  9
$HALOGAP
280
0
  9
$OBSCOLOR
 70
257
  9
$OBSLTYPE
280
0
  9
$INTERSECTIONDISPLAY
280
0
  9
$INTERSECTIONCOLOR
 70
257
  9
$DIMASSOC
280
2
  9
$PROJECTNAME
  1

  9
$CAMERADISPLAY
290
0
  9
$LENSLENGTH
 40
50.0
  9
$CAMERAHEIGHT
 40
0.0
  9
$STEPSPERSEC
 40
24.0
  9
$STEPSIZE
 40
100.0
  9
$3DDWFPREC
 40
2.0
  9
$PSOLWIDTH
 40
0.005
  9
$PSOLHEIGHT
 40
0.08
  9
$LOFTANG1
 40
1.570796326795
  9
$LOFTANG2
 40
1.570796326795
  9
$LOFTMAG1
 40
0.0
  9
$LOFTMAG2
 40
0.0
  9
$LOFTPARAM
 70
7
  9
$LOFTNORMALS
280
1
  9
$LATITUDE
 40
37.795
  9
$LONGITUDE
 40
-122.394
  9
$NORTHDIRECTION
 40
0.0
  9
$TIMEZONE
 70
-8000
  9
$LIGHTGLYPHDISPLAY
280
1
  9
$TILEMODELIGHTSYNCH
280
1
  9
$CMATERIAL
347
20
  9
$SOLIDHIST
280
0
  9
$SHOWHIST
280
1
  9
$DWFFRAME
280
2
  9
$DGNFRAME
280
2
  9
$REALWORLDSCALE
290
1
  9
$INTERFERECOLOR
 62
256
  9
$CSHADOW
280
0
  9
$SHADOWPLANELOCATION
 40
0.0
  0
ENDSEC
  0
SECTION
  2
CLASSES
  0
CLASS
  1
ACDBDICTIONARYWDFLT
  2
AcDbDictionaryWithDefault
  3
ObjectDBX Classes
 90
0
 91
0
280
0
281
0
  0
CLASS
  1
SUN
  2
AcDbSun
  3
SCENEOE
 90
1153
 91
0
280
0
281
0
  0
CLASS
  1
VISUALSTYLE
  2
AcDbVisualStyle
  3
ObjectDBX Classes
 90
4095
 91
0
280
0
281
0
  0
CLASS
  1
MATERIAL
  2
AcDbMaterial
  3
ObjectDBX Classes
 90
1153
 91
0
280
0
281
0
  0
CLASS
  1
SCALE
  2
AcDbScale
  3
ObjectDBX Classes
 90
1153
 91
0
280
0
281
0
  0
CLASS
  1
TABLESTYLE
  2
AcDbTableStyle
  3
ObjectDBX Classes
 90
4095
 91
0
280
0
281
0
  0
CLASS
  1
MLEADERSTYLE
  2
AcDbMLeaderStyle
  3
ACDB_MLEADERSTYLE_CLASS
 90
4095
 91
0
280
0
281
0
  0
CLASS
  1
DICTIONARYVAR
  2
AcDbDictionaryVar
  3
ObjectDBX Classes
 90
0
 91
0
280
0
281
0
  0
CLASS
  1
CELLSTYLEMAP
  2
AcDbCellStyleMap
  3
ObjectDBX Classes
 90
1152
 91
0
280
0
281
0
  0
CLASS
  1
MENTALRAYRENDERSETTINGS
  2
AcDbMentalRayRenderSettings
  3
SCENEOE
 90
1024
 91
0
280
0
281
0
  0
CLASS
  1
ACDBDETAILVIEWSTYLE
  2
AcDbDetailViewStyle
  3
ObjectDBX Classes
 90
1025
 91
0
280
0
281
0
  0
CLASS
  1
ACDBSECTIONVIEWSTYLE
  2
AcDbSectionViewStyle
  3
ObjectDBX Classes
 90
1025
 91
0
280
0
281
0
  0
CLASS
  1
RASTERVARIABLES
  2
AcDbRasterVariables
  3
ISM
 90
0
 91
0
280
0
281
0
  0
CLASS
  1
LAYOUT
  2
AcDbLayout
  3
ObjectDBX Classes
 90
0
 91
0
280
0
281
0
  0
CLASS
  1
ACDBPLACEHOLDER
  2
AcDbPlaceHolder
  3
ObjectDBX Classes
 90
0
 91
0
280
0
281
0
  0
ENDSEC
  0
SECTION
  2
TABLES
  0
TABLE
  2
VPORT
  5
8
330
0
100
AcDbSymbolTable
 70
1
  0
VPORT
  5
23
330
8
100
AcDbSymbolTableRecord
100
AcDbViewportTableRecord
  2
*Active
 70
0
 10
0.0
 20
0.0
 11
1.0
 21
1.0
 12
0.0
 22
0.0
 13
0.0
 23
0.0
 14
0.5
 24
0.5
 15
0.5
 25
0.5
 16
0.0
 26
0.0
 36
1.0
 17
0.0
 27
0.0
 37
0.0
 40
1000.0
 41
1.34
 42
50.0
 43
0.0
 44
0.0
 50
0.0
 51
0.0
 71
0
 72
1000
 73
1
 74
3
 75
0
 76
0
 77
0
 78
0
281
0
 65
0
146
0.0
  0
ENDTAB
  0
TABLE
  2
LTYPE
  5
2
330
0
100
AcDbSymbolTable
 70
5
  0
LTYPE
  5
24
330
2
100
AcDbSymbolTableRecord
100
AcDbLinetypeTableRecord
  2
ByBlock
 70
0
  3

 72
65
 73
0
 40
0.0
  0
LTYPE
  5
25
330
2
100
AcDbSymbolTableRecord
100
AcDbLinetypeTableRecord
  2
ByLayer
 70
0
  3

 72
65
 73
0
 40
0.0
  0
LTYPE
  5
26
330
2
100
AcDbSymbolTableRecord
100
AcDbLinetypeTableRecord
  2
Continuous
 70
0
  3

 72
65
 73
0
 40
0.0
  0
LTYPE
  5
2F
330
2
100
AcDbSymbolTableRecord
100
AcDbLinetypeTableRecord
  2
IRAM-E-TRAZOS
 70
0
  3
IRAM 4502 E - trazos __ __ __
 72
65
 73
2
 40
5.0
 49
4.0
 74
0
 49
-1.0
 74
0
  0
LTYPE
  5
30
330
2
100
AcDbSymbolTableRecord
100
AcDbLinetypeTableRecord
  2
IRAM-F-TRAZO-PUNTO
 70
0
  3
IRAM 4502 F - trazo largo y trazo corto ____ _ ____
 72
65
 73
4
 40
20.0
 49
15.0
 74
0
 49
-2.0
 74
0
 49
1.0
 74
0
 49
-2.0
 74
0
  0
ENDTAB
  0
TABLE
  2
LAYER
  5
1
330
0
100
AcDbSymbolTable
 70
14
  0
LAYER
  5
27
330
1
100
AcDbSymbolTableRecord
100
AcDbLayerTableRecord
  2
0
 70
0
 62
7
  6
Continuous
370
-3
390
13
347
21
  0
LAYER
  5
28
330
1
100
AcDbSymbolTableRecord
100
AcDbLayerTableRecord
  2
Defpoints
 70
0
 62
7
  6
Continuous
290
0
370
-3
390
13
347
21
  0
LAYER
  5
31
330
1
100
AcDbSymbolTableRecord
100
AcDbLayerTableRecord
  2
01-VISIBLE
 70
0
 62
7
  6
CONTINUOUS
370
70
390
13
347
21
1001
AcAecLayerStandard
1000

1000
A continua gruesa: contornos y aristas visibles
  0
LAYER
  5
33
330
1
100
AcDbSymbolTableRecord
100
AcDbLayerTableRecord
  2
02-OCULTA
 70
0
 62
4
  6
IRAM-E-TRAZOS
370
35
390
13
347
21
1001
AcAecLayerStandard
1000

1000
E de trazos media: contornos y aristas ocultos
  0
LAYER
  5
34
330
1
100
AcDbSymbolTableRecord
100
AcDbLayerTableRecord
  2
03-EJE
 70
0
 62
1
  6
IRAM-F-TRAZO-PUNTO
370
18
390
13
347
21
1001
AcAecLayerStandard
1000

1000
F trazo largo y corto fina: ejes, simetrías, trayectorias
  0
LAYER
  5
35
330
1
100
AcDbSymbolTableRecord
100
AcDbLayerTableRecord
  2
04-COTA
 70
0
 62
3
  6
CONTINUOUS
370
18
390
13
347
21
1001
AcAecLayerStandard
1000

1000
B continua fina: líneas de cota y auxiliares
  0
LAYER
  5
36
330
1
100
AcDbSymbolTableRecord
100
AcDbLayerTableRecord
  2
05-RAYADO
 70
0
 62
8
  6
CONTINUOUS
370
18
390
13
347
21
1001
AcAecLayerStandard
1000

1000
B continua fina: rayados IRAM 4509
  0
LAYER
  5
37
330
1
100
AcDbSymbolTableRecord
100
AcDbLayerTableRecord
  2
06-TEXTO
 70
0
 62
7
  6
CONTINUOUS
370
25
390
13
347
21
1001
AcAecLayerStandard
1000

1000
Escritura IRAM 4503 tipo B (trazo h/10)
  0
LAYER
  5
38
330
1
100
AcDbSymbolTableRecord
100
AcDbLayerTableRecord
  2
07-RECUADRO
 70
0
 62
7
  6
CONTINUOUS
370
70
390
13
347
21
1001
AcAecLayerStandard
1000

1000
Recuadro IRAM 4504
  0
LAYER
  5
39
330
1
100
AcDbSymbolTableRecord
100
AcDbLayerTableRecord
  2
08-FINA
 70
0
 62
5
  6
CONTINUOUS
370
18
390
13
347
21
1001
AcAecLayerStandard
1000

1000
B continua fina: referencias, fondos de rosca, contornos de detalle
  0
LAYER
  5
3A
330
1
100
AcDbSymbolTableRecord
100
AcDbLayerTableRecord
  2
09-PLANO-CORTE
 70
0
 62
1
  6
IRAM-F-TRAZO-PUNTO
370
18
390
13
347
21
1001
AcAecLayerStandard
1000

1000
G trazo largo y corto fina con extremos gruesos: planos de corte
  0
LAYER
  5
3B
330
1
100
AcDbSymbolTableRecord
100
AcDbLayerTableRecord
  2
10-ROTULO
 70
0
 62
7
  6
CONTINUOUS
370
35
390
13
347
21
1001
AcAecLayerStandard
1000

1000
Rótulo y lista de materiales IRAM 4508
  0
LAYER
  5
3C
330
1
100
AcDbSymbolTableRecord
100
AcDbLayerTableRecord
  2
11-TEXTO-ROTULO
 70
0
 62
7
  6
CONTINUOUS
370
25
390
13
347
21
1001
AcAecLayerStandard
1000

1000
Escritura del rótulo
  0
LAYER
  5
3D
330
1
100
AcDbSymbolTableRecord
100
AcDbLayerTableRecord
  2
12-SOLDADURA
 70
0
 62
6
  6
CONTINUOUS
370
18
390
13
347
21
1001
AcAecLayerStandard
1000

1000
Símbolos de soldadura
  0
ENDTAB
  0
TABLE
  2
STYLE
  5
5
330
0
100
AcDbSymbolTable
 70
2
  0
STYLE
  5
29
330
5
100
AcDbSymbolTableRecord
100
AcDbTextStyleTableRecord
  2
Standard
 70
0
 40
0.0
 41
1.0
 50
0.0
 71
0
 42
2.5
  3
txt
  4

  0
STYLE
  5
3E
330
5
100
AcDbSymbolTableRecord
100
AcDbTextStyleTableRecord
  2
ISO3098
 70
0
 40
0.0
 41
1.0
 50
0.0
 71
0
 42
2.5
  3
isocpeur.ttf
  4

  0
ENDTAB
  0
TABLE
  2
VIEW
  5
7
330
0
100
AcDbSymbolTable
 70
0
  0
ENDTAB
  0
TABLE
  2
UCS
  5
6
330
0
100
AcDbSymbolTable
 70
0
  0
ENDTAB
  0
TABLE
  2
APPID
  5
3
330
0
100
AcDbSymbolTable
 70
4
  0
APPID
  5
2A
330
3
100
AcDbSymbolTableRecord
100
AcDbRegAppTableRecord
  2
ACAD
 70
0
  0
APPID
  5
32
330
3
100
AcDbSymbolTableRecord
100
AcDbRegAppTableRecord
  2
AcAecLayerStandard
 70
0
  0
APPID
  5
174
330
3
100
AcDbSymbolTableRecord
100
AcDbRegAppTableRecord
  2
HATCHBACKGROUNDCOLOR
 70
0
  0
APPID
  5
175
330
3
100
AcDbSymbolTableRecord
100
AcDbRegAppTableRecord
  2
EZDXF
 70
0
  0
ENDTAB
  0
TABLE
  2
DIMSTYLE
  5
4
330
0
100
AcDbSymbolTable
 70
2
100
AcDbDimStyleTable
  0
DIMSTYLE
105
2B
330
4
100
AcDbSymbolTableRecord
100
AcDbDimStyleTableRecord
  2
Standard
 70
0
 40
1.0
 41
2.5
 42
0.625
 43
3.75
 44
1.25
 45
0.0
 46
0.0
 47
0.0
 48
0.0
 49
2.5
140
2.5
141
2.5
142
0.0
143
0.03937007874
144
1.0
145
0.0
146
1.0
147
0.625
148
0.0
 69
0
 70
0
 71
0
 72
0
 73
0
 74
0
 75
0
 76
0
 77
1
 78
8
 79
3
170
0
171
3
172
1
173
0
174
0
175
0
176
0
177
0
178
0
179
2
271
2
272
2
273
2
274
3
275
0
276
0
277
2
278
44
279
0
280
0
281
0
282
0
283
0
284
8
285
0
286
0
288
0
289
3
290
0
371
-2
372
-2
  0
DIMSTYLE
105
43
330
4
100
AcDbSymbolTableRecord
100
AcDbDimStyleTableRecord
  2
FLAMA-IRAM
 70
0
 40
1.0
 41
3.5
 42
1.5
 43
3.75
 44
2.0
 45
0.0
 46
0.0
 47
0.0
 48
0.0
 49
2.5
140
3.5
141
2.5
142
0.0
143
0.03937007874
144
1.0
145
0.0
146
1.0
147
1.0
148
0.0
 69
0
 70
0
 71
0
 72
0
 73
0
 74
0
 75
0
 76
0
 77
1
 78
8
 79
3
170
0
171
3
172
1
173
0
174
0
175
0
176
7
177
7
178
7
179
2
271
1
272
2
273
2
274
3
275
0
276
0
277
2
278
44
279
0
280
0
281
0
282
0
283
0
284
8
285
0
286
0
288
0
289
3
290
0
340
3E
342
3F
343
3F
344
3F
371
18
372
18
  0
ENDTAB
  0
TABLE
  2
BLOCK_RECORD
  5
9
330
0
100
AcDbSymbolTable
 70
8
  0
BLOCK_RECORD
  5
17
330
9
100
AcDbSymbolTableRecord
100
AcDbBlockTableRecord
  2
*Model_Space
340
1A
 70
0
280
1
281
0
  0
BLOCK_RECORD
  5
3F
330
9
100
AcDbSymbolTableRecord
100
AcDbBlockTableRecord
  2
IRAM_FLECHA
340
0
 70
0
280
1
281
0
  0
BLOCK_RECORD
  5
C2
330
9
100
AcDbSymbolTableRecord
100
AcDbBlockTableRecord
  2
*D1
340
0
 70
0
280
1
281
0
  0
BLOCK_RECORD
  5
D5
330
9
100
AcDbSymbolTableRecord
100
AcDbBlockTableRecord
  2
*D2
340
0
 70
0
280
1
281
0
  0
BLOCK_RECORD
  5
E8
330
9
100
AcDbSymbolTableRecord
100
AcDbBlockTableRecord
  2
*D3
340
0
 70
0
280
1
281
0
  0
BLOCK_RECORD
  5
FB
330
9
100
AcDbSymbolTableRecord
100
AcDbBlockTableRecord
  2
*D4
340
0
 70
0
280
1
281
0
  0
BLOCK_RECORD
  5
10E
330
9
100
AcDbSymbolTableRecord
100
AcDbBlockTableRecord
  2
*D5
340
0
 70
0
280
1
281
0
  0
BLOCK_RECORD
  5
16E
330
9
100
AcDbSymbolTableRecord
100
AcDbBlockTableRecord
  2
*Paper_Space
340
171
 70
0
280
1
281
0
  0
ENDTAB
  0
ENDSEC
  0
SECTION
  2
BLOCKS
  0
BLOCK
  5
18
330
17
100
AcDbEntity
  8
0
100
AcDbBlockBegin
  2
*Model_Space
 70
0
 10
0.0
 20
0.0
 30
0.0
  3
*Model_Space
  1

  0
ENDBLK
  5
19
330
17
100
AcDbEntity
  8
0
100
AcDbBlockEnd
  0
BLOCK
  5
40
330
3F
100
AcDbEntity
  8
0
100
AcDbBlockBegin
  2
IRAM_FLECHA
 70
0
 10
0.0
 20
0.0
 30
0.0
  3
IRAM_FLECHA
  1

  0
SOLID
  5
42
330
3F
100
AcDbEntity
  8
0
100
AcDbTrace
 10
0.0
 20
0.0
 30
0.0
 11
-1.0
 21
0.125
 31
0.0
 12
-1.0
 22
-0.125
 32
0.0
 13
-1.0
 23
-0.125
 33
0.0
  0
ENDBLK
  5
41
330
3F
100
AcDbEntity
  8
0
100
AcDbBlockEnd
  0
BLOCK
  5
C3
330
C2
100
AcDbEntity
  8
0
100
AcDbBlockBegin
  2
*D1
 70
1
 10
0.0
 20
0.0
 30
0.0
  3
*D1
  1

  0
LINE
  5
C5
330
C2
100
AcDbEntity
  8
0
 62
7
370
18
100
AcDbLine
 10
45.0
 20
211.5
 30
0.0
 11
45.0
 21
203.0
 31
0.0
  0
LINE
  5
C6
330
C2
100
AcDbEntity
  8
0
 62
7
370
18
100
AcDbLine
 10
85.0
 20
211.5
 30
0.0
 11
85.0
 21
203.0
 31
0.0
  0
INSERT
  5
C7
330
C2
100
AcDbEntity
  8
04-COTA
 62
7
100
AcDbBlockReference
  2
IRAM_FLECHA
 10
45.0
 20
205.0
 30
0.0
 41
3.5
 42
3.5
 50
180.0
  0
INSERT
  5
C9
330
C2
100
AcDbEntity
  8
04-COTA
 62
7
100
AcDbBlockReference
  2
IRAM_FLECHA
 10
85.0
 20
205.0
 30
0.0
 41
3.5
 42
3.5
  0
LINE
  5
CB
330
C2
100
AcDbEntity
  8
0
 62
7
370
18
100
AcDbLine
 10
48.5
 20
205.0
 30
0.0
 11
81.5
 21
205.0
 31
0.0
  0
MTEXT
  5
CC
330
C2
100
AcDbEntity
  8
04-COTA
 62
7
100
AcDbMText
 10
65.0
 20
207.75
 30
0.0
 40
3.5
 71
5
  1
40
  7
ISO3098
  0
POINT
  5
CD
330
C2
100
AcDbEntity
  8
Defpoints
100
AcDbPoint
 10
45.0
 20
205.0
 30
0.0
  0
POINT
  5
CE
330
C2
100
AcDbEntity
  8
Defpoints
100
AcDbPoint
 10
45.0
 20
213.0
 30
0.0
  0
POINT
  5
CF
330
C2
100
AcDbEntity
  8
Defpoints
100
AcDbPoint
 10
85.0
 20
213.0
 30
0.0
  0
ENDBLK
  5
C4
330
C2
100
AcDbEntity
  8
0
100
AcDbBlockEnd
  0
BLOCK
  5
D6
330
D5
100
AcDbEntity
  8
0
100
AcDbBlockBegin
  2
*D2
 70
1
 10
0.0
 20
0.0
 30
0.0
  3
*D2
  1

  0
LINE
  5
D8
330
D5
100
AcDbEntity
  8
0
 62
7
370
18
100
AcDbLine
 10
110.0
 20
211.5
 30
0.0
 11
110.0
 21
203.0
 31
0.0
  0
LINE
  5
D9
330
D5
100
AcDbEntity
  8
0
 62
7
370
18
100
AcDbLine
 10
150.0
 20
211.5
 30
0.0
 11
150.0
 21
203.0
 31
0.0
  0
INSERT
  5
DA
330
D5
100
AcDbEntity
  8
04-COTA
 62
7
100
AcDbBlockReference
  2
IRAM_FLECHA
 10
110.0
 20
205.0
 30
0.0
 41
3.5
 42
3.5
 50
180.0
  0
INSERT
  5
DC
330
D5
100
AcDbEntity
  8
04-COTA
 62
7
100
AcDbBlockReference
  2
IRAM_FLECHA
 10
150.0
 20
205.0
 30
0.0
 41
3.5
 42
3.5
  0
LINE
  5
DE
330
D5
100
AcDbEntity
  8
0
 62
7
370
18
100
AcDbLine
 10
113.5
 20
205.0
 30
0.0
 11
146.5
 21
205.0
 31
0.0
  0
MTEXT
  5
DF
330
D5
100
AcDbEntity
  8
04-COTA
 62
7
100
AcDbMText
 10
130.0
 20
207.75
 30
0.0
 40
3.5
 71
5
  1
40
  7
ISO3098
  0
POINT
  5
E0
330
D5
100
AcDbEntity
  8
Defpoints
100
AcDbPoint
 10
110.0
 20
205.0
 30
0.0
  0
POINT
  5
E1
330
D5
100
AcDbEntity
  8
Defpoints
100
AcDbPoint
 10
110.0
 20
213.0
 30
0.0
  0
POINT
  5
E2
330
D5
100
AcDbEntity
  8
Defpoints
100
AcDbPoint
 10
150.0
 20
213.0
 30
0.0
  0
ENDBLK
  5
D7
330
D5
100
AcDbEntity
  8
0
100
AcDbBlockEnd
  0
BLOCK
  5
E9
330
E8
100
AcDbEntity
  8
0
100
AcDbBlockBegin
  2
*D3
 70
1
 10
0.0
 20
0.0
 30
0.0
  3
*D3
  1

  0
LINE
  5
EB
330
E8
100
AcDbEntity
  8
0
 62
7
370
18
100
AcDbLine
 10
175.0
 20
211.5
 30
0.0
 11
175.0
 21
203.0
 31
0.0
  0
LINE
  5
EC
330
E8
100
AcDbEntity
  8
0
 62
7
370
18
100
AcDbLine
 10
215.0
 20
211.5
 30
0.0
 11
215.0
 21
203.0
 31
0.0
  0
INSERT
  5
ED
330
E8
100
AcDbEntity
  8
04-COTA
 62
7
100
AcDbBlockReference
  2
IRAM_FLECHA
 10
175.0
 20
205.0
 30
0.0
 41
3.5
 42
3.5
 50
180.0
  0
INSERT
  5
EF
330
E8
100
AcDbEntity
  8
04-COTA
 62
7
100
AcDbBlockReference
  2
IRAM_FLECHA
 10
215.0
 20
205.0
 30
0.0
 41
3.5
 42
3.5
  0
LINE
  5
F1
330
E8
100
AcDbEntity
  8
0
 62
7
370
18
100
AcDbLine
 10
178.5
 20
205.0
 30
0.0
 11
211.5
 21
205.0
 31
0.0
  0
MTEXT
  5
F2
330
E8
100
AcDbEntity
  8
04-COTA
 62
7
100
AcDbMText
 10
195.0
 20
207.75
 30
0.0
 40
3.5
 71
5
  1
40
  7
ISO3098
  0
POINT
  5
F3
330
E8
100
AcDbEntity
  8
Defpoints
100
AcDbPoint
 10
175.0
 20
205.0
 30
0.0
  0
POINT
  5
F4
330
E8
100
AcDbEntity
  8
Defpoints
100
AcDbPoint
 10
175.0
 20
213.0
 30
0.0
  0
POINT
  5
F5
330
E8
100
AcDbEntity
  8
Defpoints
100
AcDbPoint
 10
215.0
 20
213.0
 30
0.0
  0
ENDBLK
  5
EA
330
E8
100
AcDbEntity
  8
0
100
AcDbBlockEnd
  0
BLOCK
  5
FC
330
FB
100
AcDbEntity
  8
0
100
AcDbBlockBegin
  2
*D4
 70
1
 10
0.0
 20
0.0
 30
0.0
  3
*D4
  1

  0
LINE
  5
FE
330
FB
100
AcDbEntity
  8
0
 62
7
370
18
100
AcDbLine
 10
240.0
 20
211.5
 30
0.0
 11
240.0
 21
203.0
 31
0.0
  0
LINE
  5
FF
330
FB
100
AcDbEntity
  8
0
 62
7
370
18
100
AcDbLine
 10
280.0
 20
211.5
 30
0.0
 11
280.0
 21
203.0
 31
0.0
  0
INSERT
  5
100
330
FB
100
AcDbEntity
  8
04-COTA
 62
7
100
AcDbBlockReference
  2
IRAM_FLECHA
 10
240.0
 20
205.0
 30
0.0
 41
3.5
 42
3.5
 50
180.0
  0
INSERT
  5
102
330
FB
100
AcDbEntity
  8
04-COTA
 62
7
100
AcDbBlockReference
  2
IRAM_FLECHA
 10
280.0
 20
205.0
 30
0.0
 41
3.5
 42
3.5
  0
LINE
  5
104
330
FB
100
AcDbEntity
  8
0
 62
7
370
18
100
AcDbLine
 10
243.5
 20
205.0
 30
0.0
 11
276.5
 21
205.0
 31
0.0
  0
MTEXT
  5
105
330
FB
100
AcDbEntity
  8
04-COTA
 62
7
100
AcDbMText
 10
260.0
 20
207.75
 30
0.0
 40
3.5
 71
5
  1
40
  7
ISO3098
  0
POINT
  5
106
330
FB
100
AcDbEntity
  8
Defpoints
100
AcDbPoint
 10
240.0
 20
205.0
 30
0.0
  0
POINT
  5
107
330
FB
100
AcDbEntity
  8
Defpoints
100
AcDbPoint
 10
240.0
 20
213.0
 30
0.0
  0
POINT
  5
108
330
FB
100
AcDbEntity
  8
Defpoints
100
AcDbPoint
 10
280.0
 20
213.0
 30
0.0
  0
ENDBLK
  5
FD
330
FB
100
AcDbEntity
  8
0
100
AcDbBlockEnd
  0
BLOCK
  5
10F
330
10E
100
AcDbEntity
  8
0
100
AcDbBlockBegin
  2
*D5
 70
1
 10
0.0
 20
0.0
 30
0.0
  3
*D5
  1

  0
LINE
  5
111
330
10E
100
AcDbEntity
  8
0
 62
7
370
18
100
AcDbLine
 10
305.0
 20
211.5
 30
0.0
 11
305.0
 21
203.0
 31
0.0
  0
LINE
  5
112
330
10E
100
AcDbEntity
  8
0
 62
7
370
18
100
AcDbLine
 10
345.0
 20
211.5
 30
0.0
 11
345.0
 21
203.0
 31
0.0
  0
INSERT
  5
113
330
10E
100
AcDbEntity
  8
04-COTA
 62
7
100
AcDbBlockReference
  2
IRAM_FLECHA
 10
305.0
 20
205.0
 30
0.0
 41
3.5
 42
3.5
 50
180.0
  0
INSERT
  5
115
330
10E
100
AcDbEntity
  8
04-COTA
 62
7
100
AcDbBlockReference
  2
IRAM_FLECHA
 10
345.0
 20
205.0
 30
0.0
 41
3.5
 42
3.5
  0
LINE
  5
117
330
10E
100
AcDbEntity
  8
0
 62
7
370
18
100
AcDbLine
 10
308.5
 20
205.0
 30
0.0
 11
341.5
 21
205.0
 31
0.0
  0
MTEXT
  5
118
330
10E
100
AcDbEntity
  8
04-COTA
 62
7
100
AcDbMText
 10
325.0
 20
207.75
 30
0.0
 40
3.5
 71
5
  1
40
  7
ISO3098
  0
POINT
  5
119
330
10E
100
AcDbEntity
  8
Defpoints
100
AcDbPoint
 10
305.0
 20
205.0
 30
0.0
  0
POINT
  5
11A
330
10E
100
AcDbEntity
  8
Defpoints
100
AcDbPoint
 10
305.0
 20
213.0
 30
0.0
  0
POINT
  5
11B
330
10E
100
AcDbEntity
  8
Defpoints
100
AcDbPoint
 10
345.0
 20
213.0
 30
0.0
  0
ENDBLK
  5
110
330
10E
100
AcDbEntity
  8
0
100
AcDbBlockEnd
  0
BLOCK
  5
16F
330
16E
100
AcDbEntity
  8
0
100
AcDbBlockBegin
  2
*Paper_Space
 70
0
 10
0.0
 20
0.0
 30
0.0
  3
*Paper_Space
  1

  0
ENDBLK
  5
170
330
16E
100
AcDbEntity
  8
0
100
AcDbBlockEnd
  0
ENDSEC
  0
SECTION
  2
ENTITIES
  0
LWPOLYLINE
  5
44
330
17
100
AcDbEntity
  8
08-FINA
100
AcDbPolyline
 90
4
 70
1
 10
0.0
 20
0.0
 10
420.0
 20
0.0
 10
420.0
 20
297.0
 10
0.0
 20
297.0
  0
LWPOLYLINE
  5
45
330
17
100
AcDbEntity
  8
07-RECUADRO
100
AcDbPolyline
 90
4
 70
1
 10
25.0
 20
10.0
 10
410.0
 20
10.0
 10
410.0
 20
287.0
 10
25.0
 20
287.0
  0
LINE
  5
46
330
17
100
AcDbEntity
  8
07-RECUADRO
100
AcDbLine
 10
210.0
 20
0.0
 30
0.0
 11
210.0
 21
15.0
 31
0.0
  0
LINE
  5
47
330
17
100
AcDbEntity
  8
07-RECUADRO
100
AcDbLine
 10
210.0
 20
297.0
 30
0.0
 11
210.0
 21
282.0
 31
0.0
  0
LINE
  5
48
330
17
100
AcDbEntity
  8
07-RECUADRO
100
AcDbLine
 10
0.0
 20
148.5
 30
0.0
 11
30.0
 21
148.5
 31
0.0
  0
LINE
  5
49
330
17
100
AcDbEntity
  8
07-RECUADRO
100
AcDbLine
 10
420.0
 20
148.5
 30
0.0
 11
405.0
 21
148.5
 31
0.0
  0
LINE
  5
4A
330
17
100
AcDbEntity
  8
08-FINA
100
AcDbLine
 10
60.0
 20
10.0
 30
0.0
 11
60.0
 21
5.0
 31
0.0
  0
LINE
  5
4B
330
17
100
AcDbEntity
  8
08-FINA
100
AcDbLine
 10
60.0
 20
287.0
 30
0.0
 11
60.0
 21
292.0
 31
0.0
  0
LINE
  5
4C
330
17
100
AcDbEntity
  8
08-FINA
100
AcDbLine
 10
110.0
 20
10.0
 30
0.0
 11
110.0
 21
5.0
 31
0.0
  0
LINE
  5
4D
330
17
100
AcDbEntity
  8
08-FINA
100
AcDbLine
 10
110.0
 20
287.0
 30
0.0
 11
110.0
 21
292.0
 31
0.0
  0
LINE
  5
4E
330
17
100
AcDbEntity
  8
08-FINA
100
AcDbLine
 10
160.0
 20
10.0
 30
0.0
 11
160.0
 21
5.0
 31
0.0
  0
LINE
  5
4F
330
17
100
AcDbEntity
  8
08-FINA
100
AcDbLine
 10
160.0
 20
287.0
 30
0.0
 11
160.0
 21
292.0
 31
0.0
  0
LINE
  5
50
330
17
100
AcDbEntity
  8
08-FINA
100
AcDbLine
 10
260.0
 20
10.0
 30
0.0
 11
260.0
 21
5.0
 31
0.0
  0
LINE
  5
51
330
17
100
AcDbEntity
  8
08-FINA
100
AcDbLine
 10
260.0
 20
287.0
 30
0.0
 11
260.0
 21
292.0
 31
0.0
  0
LINE
  5
52
330
17
100
AcDbEntity
  8
08-FINA
100
AcDbLine
 10
310.0
 20
10.0
 30
0.0
 11
310.0
 21
5.0
 31
0.0
  0
LINE
  5
53
330
17
100
AcDbEntity
  8
08-FINA
100
AcDbLine
 10
310.0
 20
287.0
 30
0.0
 11
310.0
 21
292.0
 31
0.0
  0
LINE
  5
54
330
17
100
AcDbEntity
  8
08-FINA
100
AcDbLine
 10
360.0
 20
10.0
 30
0.0
 11
360.0
 21
5.0
 31
0.0
  0
LINE
  5
55
330
17
100
AcDbEntity
  8
08-FINA
100
AcDbLine
 10
360.0
 20
287.0
 30
0.0
 11
360.0
 21
292.0
 31
0.0
  0
LINE
  5
56
330
17
100
AcDbEntity
  8
08-FINA
100
AcDbLine
 10
25.0
 20
48.5
 30
0.0
 11
20.0
 21
48.5
 31
0.0
  0
LINE
  5
57
330
17
100
AcDbEntity
  8
08-FINA
100
AcDbLine
 10
410.0
 20
48.5
 30
0.0
 11
415.0
 21
48.5
 31
0.0
  0
LINE
  5
58
330
17
100
AcDbEntity
  8
08-FINA
100
AcDbLine
 10
25.0
 20
98.5
 30
0.0
 11
20.0
 21
98.5
 31
0.0
  0
LINE
  5
59
330
17
100
AcDbEntity
  8
08-FINA
100
AcDbLine
 10
410.0
 20
98.5
 30
0.0
 11
415.0
 21
98.5
 31
0.0
  0
LINE
  5
5A
330
17
100
AcDbEntity
  8
08-FINA
100
AcDbLine
 10
25.0
 20
198.5
 30
0.0
 11
20.0
 21
198.5
 31
0.0
  0
LINE
  5
5B
330
17
100
AcDbEntity
  8
08-FINA
100
AcDbLine
 10
410.0
 20
198.5
 30
0.0
 11
415.0
 21
198.5
 31
0.0
  0
LINE
  5
5C
330
17
100
AcDbEntity
  8
08-FINA
100
AcDbLine
 10
25.0
 20
248.5
 30
0.0
 11
20.0
 21
248.5
 31
0.0
  0
LINE
  5
5D
330
17
100
AcDbEntity
  8
08-FINA
100
AcDbLine
 10
410.0
 20
248.5
 30
0.0
 11
415.0
 21
248.5
 31
0.0
  0
TEXT
  5
5E
330
17
100
AcDbEntity
  8
06-TEXTO
100
AcDbText
 10
42.5
 20
5.0
 30
0.0
 40
3.5
  1
1
  7
ISO3098
 72
1
 11
42.5
 21
5.0
 31
0.0
100
AcDbText
 73
2
  0
TEXT
  5
5F
330
17
100
AcDbEntity
  8
06-TEXTO
100
AcDbText
 10
42.5
 20
292.0
 30
0.0
 40
3.5
  1
1
  7
ISO3098
 72
1
 11
42.5
 21
292.0
 31
0.0
100
AcDbText
 73
2
  0
TEXT
  5
60
330
17
100
AcDbEntity
  8
06-TEXTO
100
AcDbText
 10
85.0
 20
5.0
 30
0.0
 40
3.5
  1
2
  7
ISO3098
 72
1
 11
85.0
 21
5.0
 31
0.0
100
AcDbText
 73
2
  0
TEXT
  5
61
330
17
100
AcDbEntity
  8
06-TEXTO
100
AcDbText
 10
85.0
 20
292.0
 30
0.0
 40
3.5
  1
2
  7
ISO3098
 72
1
 11
85.0
 21
292.0
 31
0.0
100
AcDbText
 73
2
  0
TEXT
  5
62
330
17
100
AcDbEntity
  8
06-TEXTO
100
AcDbText
 10
135.0
 20
5.0
 30
0.0
 40
3.5
  1
3
  7
ISO3098
 72
1
 11
135.0
 21
5.0
 31
0.0
100
AcDbText
 73
2
  0
TEXT
  5
63
330
17
100
AcDbEntity
  8
06-TEXTO
100
AcDbText
 10
135.0
 20
292.0
 30
0.0
 40
3.5
  1
3
  7
ISO3098
 72
1
 11
135.0
 21
292.0
 31
0.0
100
AcDbText
 73
2
  0
TEXT
  5
64
330
17
100
AcDbEntity
  8
06-TEXTO
100
AcDbText
 10
185.0
 20
5.0
 30
0.0
 40
3.5
  1
4
  7
ISO3098
 72
1
 11
185.0
 21
5.0
 31
0.0
100
AcDbText
 73
2
  0
TEXT
  5
65
330
17
100
AcDbEntity
  8
06-TEXTO
100
AcDbText
 10
185.0
 20
292.0
 30
0.0
 40
3.5
  1
4
  7
ISO3098
 72
1
 11
185.0
 21
292.0
 31
0.0
100
AcDbText
 73
2
  0
TEXT
  5
66
330
17
100
AcDbEntity
  8
06-TEXTO
100
AcDbText
 10
235.0
 20
5.0
 30
0.0
 40
3.5
  1
5
  7
ISO3098
 72
1
 11
235.0
 21
5.0
 31
0.0
100
AcDbText
 73
2
  0
TEXT
  5
67
330
17
100
AcDbEntity
  8
06-TEXTO
100
AcDbText
 10
235.0
 20
292.0
 30
0.0
 40
3.5
  1
5
  7
ISO3098
 72
1
 11
235.0
 21
292.0
 31
0.0
100
AcDbText
 73
2
  0
TEXT
  5
68
330
17
100
AcDbEntity
  8
06-TEXTO
100
AcDbText
 10
285.0
 20
5.0
 30
0.0
 40
3.5
  1
6
  7
ISO3098
 72
1
 11
285.0
 21
5.0
 31
0.0
100
AcDbText
 73
2
  0
TEXT
  5
69
330
17
100
AcDbEntity
  8
06-TEXTO
100
AcDbText
 10
285.0
 20
292.0
 30
0.0
 40
3.5
  1
6
  7
ISO3098
 72
1
 11
285.0
 21
292.0
 31
0.0
100
AcDbText
 73
2
  0
TEXT
  5
6A
330
17
100
AcDbEntity
  8
06-TEXTO
100
AcDbText
 10
335.0
 20
5.0
 30
0.0
 40
3.5
  1
7
  7
ISO3098
 72
1
 11
335.0
 21
5.0
 31
0.0
100
AcDbText
 73
2
  0
TEXT
  5
6B
330
17
100
AcDbEntity
  8
06-TEXTO
100
AcDbText
 10
335.0
 20
292.0
 30
0.0
 40
3.5
  1
7
  7
ISO3098
 72
1
 11
335.0
 21
292.0
 31
0.0
100
AcDbText
 73
2
  0
TEXT
  5
6C
330
17
100
AcDbEntity
  8
06-TEXTO
100
AcDbText
 10
385.0
 20
5.0
 30
0.0
 40
3.5
  1
8
  7
ISO3098
 72
1
 11
385.0
 21
5.0
 31
0.0
100
AcDbText
 73
2
  0
TEXT
  5
6D
330
17
100
AcDbEntity
  8
06-TEXTO
100
AcDbText
 10
385.0
 20
292.0
 30
0.0
 40
3.5
  1
8
  7
ISO3098
 72
1
 11
385.0
 21
292.0
 31
0.0
100
AcDbText
 73
2
  0
TEXT
  5
6E
330
17
100
AcDbEntity
  8
06-TEXTO
100
AcDbText
 10
15.0
 20
29.25
 30
0.0
 40
3.5
  1
F
  7
ISO3098
 72
1
 11
15.0
 21
29.25
 31
0.0
100
AcDbText
 73
2
  0
TEXT
  5
6F
330
17
100
AcDbEntity
  8
06-TEXTO
100
AcDbText
 10
415.0
 20
29.25
 30
0.0
 40
3.5
  1
F
  7
ISO3098
 72
1
 11
415.0
 21
29.25
 31
0.0
100
AcDbText
 73
2
  0
TEXT
  5
70
330
17
100
AcDbEntity
  8
06-TEXTO
100
AcDbText
 10
15.0
 20
73.5
 30
0.0
 40
3.5
  1
E
  7
ISO3098
 72
1
 11
15.0
 21
73.5
 31
0.0
100
AcDbText
 73
2
  0
TEXT
  5
71
330
17
100
AcDbEntity
  8
06-TEXTO
100
AcDbText
 10
415.0
 20
73.5
 30
0.0
 40
3.5
  1
E
  7
ISO3098
 72
1
 11
415.0
 21
73.5
 31
0.0
100
AcDbText
 73
2
  0
TEXT
  5
72
330
17
100
AcDbEntity
  8
06-TEXTO
100
AcDbText
 10
15.0
 20
123.5
 30
0.0
 40
3.5
  1
D
  7
ISO3098
 72
1
 11
15.0
 21
123.5
 31
0.0
100
AcDbText
 73
2
  0
TEXT
  5
73
330
17
100
AcDbEntity
  8
06-TEXTO
100
AcDbText
 10
415.0
 20
123.5
 30
0.0
 40
3.5
  1
D
  7
ISO3098
 72
1
 11
415.0
 21
123.5
 31
0.0
100
AcDbText
 73
2
  0
TEXT
  5
74
330
17
100
AcDbEntity
  8
06-TEXTO
100
AcDbText
 10
15.0
 20
173.5
 30
0.0
 40
3.5
  1
C
  7
ISO3098
 72
1
 11
15.0
 21
173.5
 31
0.0
100
AcDbText
 73
2
  0
TEXT
  5
75
330
17
100
AcDbEntity
  8
06-TEXTO
100
AcDbText
 10
415.0
 20
173.5
 30
0.0
 40
3.5
  1
C
  7
ISO3098
 72
1
 11
415.0
 21
173.5
 31
0.0
100
AcDbText
 73
2
  0
TEXT
  5
76
330
17
100
AcDbEntity
  8
06-TEXTO
100
AcDbText
 10
15.0
 20
223.5
 30
0.0
 40
3.5
  1
B
  7
ISO3098
 72
1
 11
15.0
 21
223.5
 31
0.0
100
AcDbText
 73
2
  0
TEXT
  5
77
330
17
100
AcDbEntity
  8
06-TEXTO
100
AcDbText
 10
415.0
 20
223.5
 30
0.0
 40
3.5
  1
B
  7
ISO3098
 72
1
 11
415.0
 21
223.5
 31
0.0
100
AcDbText
 73
2
  0
TEXT
  5
78
330
17
100
AcDbEntity
  8
06-TEXTO
100
AcDbText
 10
15.0
 20
267.75
 30
0.0
 40
3.5
  1
A
  7
ISO3098
 72
1
 11
15.0
 21
267.75
 31
0.0
100
AcDbText
 73
2
  0
TEXT
  5
79
330
17
100
AcDbEntity
  8
06-TEXTO
100
AcDbText
 10
415.0
 20
267.75
 30
0.0
 40
3.5
  1
A
  7
ISO3098
 72
1
 11
415.0
 21
267.75
 31
0.0
100
AcDbText
 73
2
  0
LWPOLYLINE
  5
7A
330
17
100
AcDbEntity
  8
10-ROTULO
100
AcDbPolyline
 90
4
 70
1
 10
235.0
 20
56.0
 10
249.0
 20
56.0
 10
249.0
 20
61.0
 10
235.0
 20
61.0
  0
LWPOLYLINE
  5
7B
330
17
100
AcDbEntity
  8
10-ROTULO
100
AcDbPolyline
 90
4
 70
1
 10
249.0
 20
56.0
 10
265.0
 20
56.0
 10
265.0
 20
61.0
 10
249.0
 20
61.0
  0
TEXT
  5
7C
330
17
100
AcDbEntity
  8
11-TEXTO-ROTULO
100
AcDbText
 10
257.0
 20
58.5
 30
0.0
 40
2.5
  1
Fecha
  7
ISO3098
 72
1
 11
257.0
 21
58.5
 31
0.0
100
AcDbText
 73
2
  0
LWPOLYLINE
  5
7D
330
17
100
AcDbEntity
  8
10-ROTULO
100
AcDbPolyline
 90
4
 70
1
 10
265.0
 20
56.0
 10
290.0
 20
56.0
 10
290.0
 20
61.0
 10
265.0
 20
61.0
  0
TEXT
  5
7E
330
17
100
AcDbEntity
  8
11-TEXTO-ROTULO
100
AcDbText
 10
277.5
 20
58.5
 30
0.0
 40
2.5
  1
Nombre
  7
ISO3098
 72
1
 11
277.5
 21
58.5
 31
0.0
100
AcDbText
 73
2
  0
LWPOLYLINE
  5
7F
330
17
100
AcDbEntity
  8
10-ROTULO
100
AcDbPolyline
 90
4
 70
1
 10
235.0
 20
50.0
 10
249.0
 20
50.0
 10
249.0
 20
56.0
 10
235.0
 20
56.0
  0
TEXT
  5
80
330
17
100
AcDbEntity
  8
11-TEXTO-ROTULO
100
AcDbText
 10
236.5
 20
53.0
 30
0.0
 40
2.5
  1
Dibujó
  7
ISO3098
 11
236.5
 21
53.0
 31
0.0
100
AcDbText
 73
2
  0
LWPOLYLINE
  5
81
330
17
100
AcDbEntity
  8
10-ROTULO
100
AcDbPolyline
 90
4
 70
1
 10
249.0
 20
50.0
 10
265.0
 20
50.0
 10
265.0
 20
56.0
 10
249.0
 20
56.0
  0
TEXT
  5
82
330
17
100
AcDbEntity
  8
11-TEXTO-ROTULO
100
AcDbText
 10
257.0
 20
53.0
 30
0.0
 40
2.5
  1
28/09/26
  7
ISO3098
 72
1
 11
257.0
 21
53.0
 31
0.0
100
AcDbText
 73
2
  0
LWPOLYLINE
  5
83
330
17
100
AcDbEntity
  8
10-ROTULO
100
AcDbPolyline
 90
4
 70
1
 10
265.0
 20
50.0
 10
290.0
 20
50.0
 10
290.0
 20
56.0
 10
265.0
 20
56.0
  0
TEXT
  5
84
330
17
100
AcDbEntity
  8
11-TEXTO-ROTULO
100
AcDbText
 10
277.5
 20
53.0
 30
0.0
 40
2.5
  1
T. Sinay
  7
ISO3098
 72
1
 11
277.5
 21
53.0
 31
0.0
100
AcDbText
 73
2
  0
LWPOLYLINE
  5
85
330
17
100
AcDbEntity
  8
10-ROTULO
100
AcDbPolyline
 90
4
 70
1
 10
235.0
 20
44.0
 10
249.0
 20
44.0
 10
249.0
 20
50.0
 10
235.0
 20
50.0
  0
TEXT
  5
86
330
17
100
AcDbEntity
  8
11-TEXTO-ROTULO
100
AcDbText
 10
236.5
 20
47.0
 30
0.0
 40
2.5
  1
Revisó
  7
ISO3098
 11
236.5
 21
47.0
 31
0.0
100
AcDbText
 73
2
  0
LWPOLYLINE
  5
87
330
17
100
AcDbEntity
  8
10-ROTULO
100
AcDbPolyline
 90
4
 70
1
 10
249.0
 20
44.0
 10
265.0
 20
44.0
 10
265.0
 20
50.0
 10
249.0
 20
50.0
  0
LWPOLYLINE
  5
88
330
17
100
AcDbEntity
  8
10-ROTULO
100
AcDbPolyline
 90
4
 70
1
 10
265.0
 20
44.0
 10
290.0
 20
44.0
 10
290.0
 20
50.0
 10
265.0
 20
50.0
  0
LWPOLYLINE
  5
89
330
17
100
AcDbEntity
  8
10-ROTULO
100
AcDbPolyline
 90
4
 70
1
 10
235.0
 20
38.0
 10
249.0
 20
38.0
 10
249.0
 20
44.0
 10
235.0
 20
44.0
  0
TEXT
  5
8A
330
17
100
AcDbEntity
  8
11-TEXTO-ROTULO
100
AcDbText
 10
236.5
 20
41.0
 30
0.0
 40
2.5
  1
Aprobó
  7
ISO3098
 11
236.5
 21
41.0
 31
0.0
100
AcDbText
 73
2
  0
LWPOLYLINE
  5
8B
330
17
100
AcDbEntity
  8
10-ROTULO
100
AcDbPolyline
 90
4
 70
1
 10
249.0
 20
38.0
 10
265.0
 20
38.0
 10
265.0
 20
44.0
 10
249.0
 20
44.0
  0
LWPOLYLINE
  5
8C
330
17
100
AcDbEntity
  8
10-ROTULO
100
AcDbPolyline
 90
4
 70
1
 10
265.0
 20
38.0
 10
290.0
 20
38.0
 10
290.0
 20
44.0
 10
265.0
 20
44.0
  0
LWPOLYLINE
  5
8D
330
17
100
AcDbEntity
  8
10-ROTULO
100
AcDbPolyline
 90
4
 70
1
 10
235.0
 20
24.0
 10
255.0
 20
24.0
 10
255.0
 20
38.0
 10
235.0
 20
38.0
  0
TEXT
  5
8E
330
17
100
AcDbEntity
  8
11-TEXTO-ROTULO
100
AcDbText
 10
236.0
 20
37.0
 30
0.0
 40
1.8
  1
Escala
  7
ISO3098
 11
236.0
 21
37.0
 31
0.0
100
AcDbText
 73
3
  0
TEXT
  5
8F
330
17
100
AcDbEntity
  8
11-TEXTO-ROTULO
100
AcDbText
 10
245.0
 20
29.6
 30
0.0
 40
5.0
  1
1:1
  7
ISO3098
 72
1
 11
245.0
 21
29.6
 31
0.0
100
AcDbText
 73
2
  0
LWPOLYLINE
  5
90
330
17
100
AcDbEntity
  8
10-ROTULO
100
AcDbPolyline
 90
4
 70
1
 10
255.0
 20
24.0
 10
290.0
 20
24.0
 10
290.0
 20
38.0
 10
255.0
 20
38.0
  0
TEXT
  5
91
330
17
100
AcDbEntity
  8
11-TEXTO-ROTULO
100
AcDbText
 10
256.0
 20
37.0
 30
0.0
 40
1.8
  1
Método de proyección
  7
ISO3098
 11
256.0
 21
37.0
 31
0.0
100
AcDbText
 73
3
  0
CIRCLE
  5
92
330
17
100
AcDbEntity
  8
01-VISIBLE
100
AcDbCircle
 10
265.0
 20
29.5
 30
0.0
 40
2.5
  0
CIRCLE
  5
93
330
17
100
AcDbEntity
  8
01-VISIBLE
100
AcDbCircle
 10
265.0
 20
29.5
 30
0.0
 40
1.25
  0
LWPOLYLINE
  5
94
330
17
100
AcDbEntity
  8
01-VISIBLE
100
AcDbPolyline
 90
4
 70
1
 10
270.0
 20
27.0
 10
275.0
 20
28.25
 10
275.0
 20
30.75
 10
270.0
 20
32.0
  0
LINE
  5
95
330
17
100
AcDbEntity
  8
03-EJE
100
AcDbLine
 10
261.0
 20
29.5
 30
0.0
 11
276.5
 21
29.5
 31
0.0
  0
LINE
  5
96
330
17
100
AcDbEntity
  8
03-EJE
100
AcDbLine
 10
265.0
 20
25.5
 30
0.0
 11
265.0
 21
33.5
 31
0.0
  0
TEXT
  5
97
330
17
100
AcDbEntity
  8
11-TEXTO-ROTULO
100
AcDbText
 10
286.5
 20
29.5
 30
0.0
 40
2.5
  1
ISO E
  7
ISO3098
 72
2
 11
286.5
 21
29.5
 31
0.0
100
AcDbText
 73
2
  0
LWPOLYLINE
  5
98
330
17
100
AcDbEntity
  8
10-ROTULO
100
AcDbPolyline
 90
4
 70
1
 10
235.0
 20
10.0
 10
268.0
 20
10.0
 10
268.0
 20
24.0
 10
235.0
 20
24.0
  0
TEXT
  5
99
330
17
100
AcDbEntity
  8
11-TEXTO-ROTULO
100
AcDbText
 10
236.0
 20
23.0
 30
0.0
 40
1.8
  1
Tolerancias generales
  7
ISO3098
 11
236.0
 21
23.0
 31
0.0
100
AcDbText
 73
3
  0
TEXT
  5
9A
330
17
100
AcDbEntity
  8
11-TEXTO-ROTULO
100
AcDbText
 10
251.5
 20
15.6
 30
0.0
 40
3.5
  1
ISO 2768-m
  7
ISO3098
 72
1
 11
251.5
 21
15.6
 31
0.0
100
AcDbText
 73
2
  0
LWPOLYLINE
  5
9B
330
17
100
AcDbEntity
  8
10-ROTULO
100
AcDbPolyline
 90
4
 70
1
 10
268.0
 20
10.0
 10
290.0
 20
10.0
 10
290.0
 20
24.0
 10
268.0
 20
24.0
  0
TEXT
  5
9C
330
17
100
AcDbEntity
  8
11-TEXTO-ROTULO
100
AcDbText
 10
269.0
 20
23.0
 30
0.0
 40
1.8
  1
Formato
  7
ISO3098
 11
269.0
 21
23.0
 31
0.0
100
AcDbText
 73
3
  0
TEXT
  5
9D
330
17
100
AcDbEntity
  8
11-TEXTO-ROTULO
100
AcDbText
 10
279.0
 20
15.6
 30
0.0
 40
3.5
  1
A3
  7
ISO3098
 72
1
 11
279.0
 21
15.6
 31
0.0
100
AcDbText
 73
2
  0
LWPOLYLINE
  5
9E
330
17
100
AcDbEntity
  8
10-ROTULO
100
AcDbPolyline
 90
4
 70
1
 10
290.0
 20
49.0
 10
360.0
 20
49.0
 10
360.0
 20
61.0
 10
290.0
 20
61.0
  0
TEXT
  5
9F
330
17
100
AcDbEntity
  8
11-TEXTO-ROTULO
100
AcDbText
 10
291.0
 20
60.0
 30
0.0
 40
1.8
  1
Propietario
  7
ISO3098
 11
291.0
 21
60.0
 31
0.0
100
AcDbText
 73
3
  0
TEXT
  5
A0
330
17
100
AcDbEntity
  8
11-TEXTO-ROTULO
100
AcDbText
 10
325.0
 20
53.6
 30
0.0
 40
5.0
  1
FLAMA S.A.
  7
ISO3098
 72
1
 11
325.0
 21
53.6
 31
0.0
100
AcDbText
 73
2
  0
LWPOLYLINE
  5
A1
330
17
100
AcDbEntity
  8
10-ROTULO
100
AcDbPolyline
 90
4
 70
1
 10
290.0
 20
22.0
 10
360.0
 20
22.0
 10
360.0
 20
49.0
 10
290.0
 20
49.0
  0
TEXT
  5
A2
330
17
100
AcDbEntity
  8
11-TEXTO-ROTULO
100
AcDbText
 10
291.0
 20
48.0
 30
0.0
 40
1.8
  1
Denominación
  7
ISO3098
 11
291.0
 21
48.0
 31
0.0
100
AcDbText
 73
3
  0
TEXT
  5
A3
330
17
100
AcDbEntity
  8
11-TEXTO-ROTULO
100
AcDbText
 10
325.0
 20
35.0
 30
0.0
 40
3.5
  1
Símbolos clases de fuego
  7
ISO3098
 72
1
 11
325.0
 21
35.0
 31
0.0
100
AcDbText
 73
2
  0
TEXT
  5
A4
330
17
100
AcDbEntity
  8
11-TEXTO-ROTULO
100
AcDbText
 10
325.0
 20
25.5
 30
0.0
 40
1.8
  1
IRAM 10005 / NFPA 10 - A B C D K
  7
ISO3098
 72
1
 11
325.0
 21
25.5
 31
0.0
100
AcDbText
 73
2
  0
LWPOLYLINE
  5
A5
330
17
100
AcDbEntity
  8
10-ROTULO
100
AcDbPolyline
 90
4
 70
1
 10
290.0
 20
10.0
 10
360.0
 20
10.0
 10
360.0
 20
22.0
 10
290.0
 20
22.0
  0
TEXT
  5
A6
330
17
100
AcDbEntity
  8
11-TEXTO-ROTULO
100
AcDbText
 10
291.0
 20
21.0
 30
0.0
 40
1.8
  1
Tipo de documento
  7
ISO3098
 11
291.0
 21
21.0
 31
0.0
100
AcDbText
 73
3
  0
TEXT
  5
A7
330
17
100
AcDbEntity
  8
11-TEXTO-ROTULO
100
AcDbText
 10
325.0
 20
14.6
 30
0.0
 40
3.5
  1
Plano de señalética
  7
ISO3098
 72
1
 11
325.0
 21
14.6
 31
0.0
100
AcDbText
 73
2
  0
LWPOLYLINE
  5
A8
330
17
100
AcDbEntity
  8
10-ROTULO
100
AcDbPolyline
 90
4
 70
1
 10
360.0
 20
53.0
 10
410.0
 20
53.0
 10
410.0
 20
61.0
 10
360.0
 20
61.0
  0
TEXT
  5
A9
330
17
100
AcDbEntity
  8
11-TEXTO-ROTULO
100
AcDbText
 10
361.0
 20
60.0
 30
0.0
 40
1.8
  1
Reemplaza a / Reemplazado por
  7
ISO3098
 11
361.0
 21
60.0
 31
0.0
100
AcDbText
 73
3
  0
TEXT
  5
AA
330
17
100
AcDbEntity
  8
11-TEXTO-ROTULO
100
AcDbText
 10
385.0
 20
55.6
 30
0.0
 40
1.8
  1
-
  7
ISO3098
 72
1
 11
385.0
 21
55.6
 31
0.0
100
AcDbText
 73
2
  0
LWPOLYLINE
  5
AB
330
17
100
AcDbEntity
  8
10-ROTULO
100
AcDbPolyline
 90
4
 70
1
 10
360.0
 20
43.0
 10
410.0
 20
43.0
 10
410.0
 20
53.0
 10
360.0
 20
53.0
  0
TEXT
  5
AC
330
17
100
AcDbEntity
  8
11-TEXTO-ROTULO
100
AcDbText
 10
361.0
 20
52.0
 30
0.0
 40
1.8
  1
Material
  7
ISO3098
 11
361.0
 21
52.0
 31
0.0
100
AcDbText
 73
3
  0
TEXT
  5
AD
330
17
100
AcDbEntity
  8
11-TEXTO-ROTULO
100
AcDbText
 10
385.0
 20
46.6
 30
0.0
 40
2.5
  1
Ver notas
  7
ISO3098
 72
1
 11
385.0
 21
46.6
 31
0.0
100
AcDbText
 73
2
  0
LWPOLYLINE
  5
AE
330
17
100
AcDbEntity
  8
10-ROTULO
100
AcDbPolyline
 90
4
 70
1
 10
360.0
 20
33.0
 10
382.0
 20
33.0
 10
382.0
 20
43.0
 10
360.0
 20
43.0
  0
TEXT
  5
AF
330
17
100
AcDbEntity
  8
11-TEXTO-ROTULO
100
AcDbText
 10
361.0
 20
42.0
 30
0.0
 40
1.8
  1
Edición
  7
ISO3098
 11
361.0
 21
42.0
 31
0.0
100
AcDbText
 73
3
  0
TEXT
  5
B0
330
17
100
AcDbEntity
  8
11-TEXTO-ROTULO
100
AcDbText
 10
371.0
 20
36.6
 30
0.0
 40
3.5
  1
0
  7
ISO3098
 72
1
 11
371.0
 21
36.6
 31
0.0
100
AcDbText
 73
2
  0
LWPOLYLINE
  5
B1
330
17
100
AcDbEntity
  8
10-ROTULO
100
AcDbPolyline
 90
4
 70
1
 10
382.0
 20
33.0
 10
410.0
 20
33.0
 10
410.0
 20
43.0
 10
382.0
 20
43.0
  0
TEXT
  5
B2
330
17
100
AcDbEntity
  8
11-TEXTO-ROTULO
100
AcDbText
 10
383.0
 20
42.0
 30
0.0
 40
1.8
  1
Fecha de emisión
  7
ISO3098
 11
383.0
 21
42.0
 31
0.0
100
AcDbText
 73
3
  0
TEXT
  5
B3
330
17
100
AcDbEntity
  8
11-TEXTO-ROTULO
100
AcDbText
 10
396.0
 20
36.6
 30
0.0
 40
2.5
  1
28/09/2026
  7
ISO3098
 72
1
 11
396.0
 21
36.6
 31
0.0
100
AcDbText
 73
2
  0
LWPOLYLINE
  5
B4
330
17
100
AcDbEntity
  8
10-ROTULO
100
AcDbPolyline
 90
4
 70
1
 10
360.0
 20
23.0
 10
382.0
 20
23.0
 10
382.0
 20
33.0
 10
360.0
 20
33.0
  0
TEXT
  5
B5
330
17
100
AcDbEntity
  8
11-TEXTO-ROTULO
100
AcDbText
 10
361.0
 20
32.0
 30
0.0
 40
1.8
  1
Hoja
  7
ISO3098
 11
361.0
 21
32.0
 31
0.0
100
AcDbText
 73
3
  0
TEXT
  5
B6
330
17
100
AcDbEntity
  8
11-TEXTO-ROTULO
100
AcDbText
 10
371.0
 20
26.6
 30
0.0
 40
3.5
  1
1 / 1
  7
ISO3098
 72
1
 11
371.0
 21
26.6
 31
0.0
100
AcDbText
 73
2
  0
LWPOLYLINE
  5
B7
330
17
100
AcDbEntity
  8
10-ROTULO
100
AcDbPolyline
 90
4
 70
1
 10
382.0
 20
23.0
 10
410.0
 20
23.0
 10
410.0
 20
33.0
 10
382.0
 20
33.0
  0
TEXT
  5
B8
330
17
100
AcDbEntity
  8
11-TEXTO-ROTULO
100
AcDbText
 10
383.0
 20
32.0
 30
0.0
 40
1.8
  1
Idioma
  7
ISO3098
 11
383.0
 21
32.0
 31
0.0
100
AcDbText
 73
3
  0
TEXT
  5
B9
330
17
100
AcDbEntity
  8
11-TEXTO-ROTULO
100
AcDbText
 10
396.0
 20
26.6
 30
0.0
 40
3.5
  1
es
  7
ISO3098
 72
1
 11
396.0
 21
26.6
 31
0.0
100
AcDbText
 73
2
  0
LWPOLYLINE
  5
BA
330
17
100
AcDbEntity
  8
10-ROTULO
100
AcDbPolyline
 90
4
 70
1
 10
360.0
 20
10.0
 10
410.0
 20
10.0
 10
410.0
 20
23.0
 10
360.0
 20
23.0
  0
TEXT
  5
BB
330
17
100
AcDbEntity
  8
11-TEXTO-ROTULO
100
AcDbText
 10
361.0
 20
22.0
 30
0.0
 40
1.8
  1
N° de plano
  7
ISO3098
 11
361.0
 21
22.0
 31
0.0
100
AcDbText
 73
3
  0
TEXT
  5
BC
330
17
100
AcDbEntity
  8
11-TEXTO-ROTULO
100
AcDbText
 10
385.0
 20
15.1
 30
0.0
 40
5.0
  1
FL_SEN_03
  7
ISO3098
 72
1
 11
385.0
 21
15.1
 31
0.0
100
AcDbText
 73
2
  0
LWPOLYLINE
  5
BD
330
17
100
AcDbEntity
  8
07-RECUADRO
100
AcDbPolyline
 90
4
 70
1
 10
235.0
 20
10.0
 10
410.0
 20
10.0
 10
410.0
 20
61.0
 10
235.0
 20
61.0
  0
HATCH
  5
BE
330
17
100
AcDbEntity
  8
05-RAYADO
 62
7
420
34641
100
AcDbHatch
 10
0.0
 20
0.0
 30
0.0
210
0.0
220
0.0
230
1.0
  2
SOLID
 70
1
 71
0
 91
1
 92
3
 72
0
 73
1
 93
3
 10
45.0
 20
220.0
 10
85.0
 20
220.0
 10
65.0
 20
256.0
 97
0
 75
1
 76
1
 98
0
  0
LWPOLYLINE
  5
BF
330
17
100
AcDbEntity
  8
01-VISIBLE
100
AcDbPolyline
 90
4
 70
1
 10
45.0
 20
220.0
 10
85.0
 20
220.0
 10
65.0
 20
256.0
 10
45.0
 20
220.0
  0
TEXT
  5
C0
330
17
100
AcDbEntity
  8
06-TEXTO
420
16777215
100
AcDbText
 10
65.0
 20
234.6
 30
0.0
 40
16.8
  1
A
  7
ISO3098
 72
1
 11
65.0
 21
234.6
 31
0.0
100
AcDbText
 73
2
  0
DIMENSION
  5
C1
330
17
100
AcDbEntity
  8
04-COTA
100
AcDbDimension
280
0
  2
*D1
  3
FLAMA-IRAM
 10
45.0
 20
205.0
 30
0.0
 11
65.0
 21
207.75
 31
0.0
 70
32
 71
5
  1
<>
100
AcDbAlignedDimension
 13
45.0
 23
213.0
 33
0.0
 14
85.0
 24
213.0
 34
0.0
 50
0.0
100
AcDbRotatedDimension
1001
ACAD
1000
DSTYLE
1002
{
1070
144
1040
1.0
1002
}
  0
TEXT
  5
D0
330
17
100
AcDbEntity
  8
06-TEXTO
100
AcDbText
 10
65.0
 20
197.0
 30
0.0
 40
2.5
  1
Triángulo verde
  7
ISO3098
 72
1
 11
65.0
 21
197.0
 31
0.0
100
AcDbText
 73
2
  0
HATCH
  5
D1
330
17
100
AcDbEntity
  8
05-RAYADO
 62
7
420
11479838
100
AcDbHatch
 10
0.0
 20
0.0
 30
0.0
210
0.0
220
0.0
230
1.0
  2
SOLID
 70
1
 71
0
 91
1
 92
3
 72
0
 73
1
 93
4
 10
150.0
 20
217.0
 10
150.0
 20
257.0
 10
110.0
 20
257.0
 10
110.0
 20
217.0
 97
0
 75
1
 76
1
 98
0
  0
LWPOLYLINE
  5
D2
330
17
100
AcDbEntity
  8
01-VISIBLE
100
AcDbPolyline
 90
5
 70
1
 10
150.0
 20
217.0
 10
150.0
 20
257.0
 10
110.0
 20
257.0
 10
110.0
 20
217.0
 10
150.0
 20
217.0
  0
TEXT
  5
D3
330
17
100
AcDbEntity
  8
06-TEXTO
420
16777215
100
AcDbText
 10
130.0
 20
237.0
 30
0.0
 40
22.0
  1
B
  7
ISO3098
 72
1
 11
130.0
 21
237.0
 31
0.0
100
AcDbText
 73
2
  0
DIMENSION
  5
D4
330
17
100
AcDbEntity
  8
04-COTA
100
AcDbDimension
280
0
  2
*D2
  3
FLAMA-IRAM
 10
110.0
 20
205.0
 30
0.0
 11
130.0
 21
207.75
 31
0.0
 70
32
 71
5
  1
<>
100
AcDbAlignedDimension
 13
110.0
 23
213.0
 33
0.0
 14
150.0
 24
213.0
 34
0.0
 50
0.0
100
AcDbRotatedDimension
1001
ACAD
1000
DSTYLE
1002
{
1070
144
1040
1.0
1002
}
  0
TEXT
  5
E3
330
17
100
AcDbEntity
  8
06-TEXTO
100
AcDbText
 10
130.0
 20
197.0
 30
0.0
 40
2.5
  1
Cuadrado rojo
  7
ISO3098
 72
1
 11
130.0
 21
197.0
 31
0.0
100
AcDbText
 73
2
  0
HATCH
  5
E4
330
17
100
AcDbEntity
  8
05-RAYADO
 62
7
420
21383
100
AcDbHatch
 10
0.0
 20
0.0
 30
0.0
210
0.0
220
0.0
230
1.0
  2
SOLID
 70
1
 71
0
 91
1
 92
3
 72
0
 73
1
 93
256
 10
215.0
 20
237.0
 10
214.99397637392408
 20
236.50917542954176
 10
214.97590912410345
 20
236.01864651345164
 10
214.9458091335738
 20
235.52870872800665
 10
214.90369453344394
 20
235.0396571934088
 10
214.84959069197419
 20
234.55178649601567
 10
214.78353019929563
 20
234.06539051089277
 10
214.70555284777882
 20
233.58076222479397
 10
214.61570560806462
 20
233.09819355967744
 10
214.51404260077058
 20
232.6179751968626
 10
214.40062506389089
 20
232.1403964019347
 10
214.2755213159088
 20
231.66574485050202
 10
214.13880671464418
 20
231.19430645491076
 10
213.99056361186072
 20
230.72636519202217
 10
213.83088130366042
 20
230.2622029321556
 10
213.6598559766948
 20
229.80209926930024
 10
213.47759065022575
 20
229.3463313526982
 10
213.2841951140706
 20
228.8951737199002
 10
213.07978586246887
 20
228.44889813139434
 10
212.8644860239103
 20
228.00777340690786
 10
212.6384252869671
 20
227.57206526348006
 10
212.40173982217422
 20
227.14203615540433
 10
212.15457220000545
 20
226.71794511613558
 10
211.89707130499414
 20
226.30004760225805
 10
211.6293922460509
 20
225.88859533960795
 10
211.35169626303167
 20
225.4838361716431
 10
211.0641506296129
 20
225.08601391015134
 10
210.76692855253214
 20
224.69536818838748
 10
210.46020906725474
 20
224.31213431672708
 10
210.1441769301297
 20
223.93654314092447
 10
209.8190225070992
 20
223.56882090305965
 10
209.48494165902935
 20
223.20918910525867
 10
209.14213562373095
 20
222.85786437626905
 10
208.79081089474133
 20
222.51505834097065
 10
208.43117909694035
 20
222.1809774929008
 10
208.06345685907553
 20
221.85582306987033
 10
207.68786568327292
 20
221.53979093274526
 10
207.30463181161252
 20
221.23307144746786
 10
206.91398608984866
 20
220.9358493703871
 10
206.5161638283569
 20
220.64830373696833
 10
206.11140466039205
 20
220.3706077539491
 10
205.69995239774195
 20
220.10292869500586
 10
205.28205488386442
 20
219.84542779999455
 10
204.85796384459567
 20
219.59826017782578
 10
204.42793473651994
 20
219.3615747130329
 10
203.99222659309214
 20
219.1355139760897
 10
203.55110186860566
 20
218.92021413753113
 10
203.1048262800998
 20
218.7158048859294
 10
202.6536686473018
 20
218.52240934977425
 10
202.19790073069976
 20
218.3401440233052
 10
201.7377970678444
 20
218.16911869633958
 10
201.27363480797783
 20
218.00943638813928
 10
200.80569354508924
 20
217.86119328535582
 10
200.33425514949798
 20
217.7244786840912
 10
199.8596035980653
 20
217.59937493610911
 10
199.3820248031374
 20
217.48595739922942
 10
198.90180644032256
 20
217.38429439193538
 10
198.41923777520603
 20
217.29444715222118
 10
197.93460948910723
 20
217.21646980070437
 10
197.44821350398433
 20
217.15040930802581
 10
196.96034280659123
 20
217.09630546655606
 10
196.47129127199335
 20
217.0541908664262
 10
195.98135348654836
 20
217.02409087589655
 10
195.49082457045824
 20
217.00602362607592
 10
195.0
 20
217.0
 10
194.50917542954176
 20
217.00602362607592
 10
194.01864651345164
 20
217.02409087589655
 10
193.52870872800665
 20
217.0541908664262
 10
193.0396571934088
 20
217.09630546655606
 10
192.55178649601567
 20
217.15040930802581
 10
192.06539051089277
 20
217.21646980070437
 10
191.58076222479397
 20
217.29444715222118
 10
191.09819355967744
 20
217.38429439193538
 10
190.6179751968626
 20
217.48595739922942
 10
190.1403964019347
 20
217.59937493610911
 10
189.66574485050202
 20
217.7244786840912
 10
189.19430645491076
 20
217.86119328535582
 10
188.72636519202217
 20
218.00943638813928
 10
188.2622029321556
 20
218.16911869633958
 10
187.80209926930024
 20
218.3401440233052
 10
187.3463313526982
 20
218.52240934977425
 10
186.8951737199002
 20
218.7158048859294
 10
186.44889813139437
 20
218.92021413753113
 10
186.00777340690786
 20
219.1355139760897
 10
185.57206526348006
 20
219.3615747130329
 10
185.14203615540433
 20
219.59826017782578
 10
184.71794511613558
 20
219.84542779999455
 10
184.30004760225805
 20
220.10292869500586
 10
183.88859533960795
 20
220.3706077539491
 10
183.4838361716431
 20
220.64830373696833
 10
183.08601391015134
 20
220.9358493703871
 10
182.69536818838748
 20
221.23307144746786
 10
182.31213431672708
 20
221.53979093274526
 10
181.93654314092447
 20
221.8558230698703
 10
181.56882090305965
 20
222.1809774929008
 10
181.20918910525867
 20
222.51505834097065
 10
180.85786437626905
 20
222.85786437626905
 10
180.51505834097065
 20
223.20918910525864
 10
180.1809774929008
 20
223.56882090305962
 10
179.8558230698703
 20
223.93654314092447
 10
179.53979093274526
 20
224.31213431672708
 10
179.23307144746786
 20
224.69536818838748
 10
178.9358493703871
 20
225.08601391015134
 10
178.64830373696833
 20
225.48383617164308
 10
178.3706077539491
 20
225.88859533960795
 10
178.10292869500586
 20
226.30004760225805
 10
177.84542779999455
 20
226.71794511613555
 10
177.59826017782578
 20
227.14203615540433
 10
177.3615747130329
 20
227.57206526348006
 10
177.1355139760897
 20
228.00777340690786
 10
176.92021413753113
 20
228.44889813139437
 10
176.7158048859294
 20
228.8951737199002
 10
176.52240934977425
 20
229.3463313526982
 10
176.3401440233052
 20
229.80209926930024
 10
176.16911869633958
 20
230.2622029321556
 10
176.00943638813928
 20
230.72636519202217
 10
175.86119328535582
 20
231.19430645491076
 10
175.7244786840912
 20
231.66574485050202
 10
175.59937493610911
 20
232.1403964019347
 10
175.48595739922942
 20
232.6179751968626
 10
175.38429439193538
 20
233.09819355967744
 10
175.29444715222118
 20
233.58076222479397
 10
175.21646980070437
 20
234.06539051089277
 10
175.15040930802581
 20
234.55178649601567
 10
175.09630546655606
 20
235.03965719340877
 10
175.0541908664262
 20
235.52870872800665
 10
175.02409087589655
 20
236.01864651345164
 10
175.00602362607592
 20
236.50917542954176
 10
175.0
 20
237.0
 10
175.00602362607592
 20
237.49082457045824
 10
175.02409087589655
 20
237.98135348654836
 10
175.0541908664262
 20
238.47129127199335
 10
175.09630546655606
 20
238.9603428065912
 10
175.15040930802581
 20
239.44821350398433
 10
175.21646980070437
 20
239.93460948910723
 10
175.29444715222118
 20
240.41923777520603
 10
175.38429439193538
 20
240.90180644032256
 10
175.48595739922942
 20
241.3820248031374
 10
175.59937493610911
 20
241.85960359806526
 10
175.7244786840912
 20
242.33425514949798
 10
175.86119328535582
 20
242.80569354508924
 10
176.00943638813925
 20
243.27363480797783
 10
176.16911869633958
 20
243.7377970678444
 10
176.3401440233052
 20
244.19790073069976
 10
176.52240934977425
 20
244.6536686473018
 10
176.7158048859294
 20
245.1048262800998
 10
176.92021413753113
 20
245.55110186860563
 10
177.1355139760897
 20
245.99222659309214
 10
177.3615747130329
 20
246.42793473651994
 10
177.59826017782578
 20
246.85796384459567
 10
177.84542779999455
 20
247.28205488386442
 10
178.10292869500586
 20
247.69995239774192
 10
178.3706077539491
 20
248.11140466039205
 10
178.64830373696833
 20
248.5161638283569
 10
178.9358493703871
 20
248.91398608984866
 10
179.23307144746786
 20
249.30463181161252
 10
179.53979093274526
 20
249.68786568327292
 10
179.8558230698703
 20
250.06345685907553
 10
180.1809774929008
 20
250.43117909694035
 10
180.51505834097065
 20
250.79081089474133
 10
180.85786437626905
 20
251.14213562373095
 10
181.20918910525864
 20
251.48494165902935
 10
181.56882090305962
 20
251.8190225070992
 10
181.93654314092447
 20
252.14417693012967
 10
182.31213431672708
 20
252.46020906725474
 10
182.69536818838745
 20
252.7669285525321
 10
183.08601391015134
 20
253.0641506296129
 10
183.4838361716431
 20
253.35169626303167
 10
183.88859533960795
 20
253.6293922460509
 10
184.30004760225805
 20
253.89707130499414
 10
184.71794511613555
 20
254.15457220000545
 10
185.14203615540433
 20
254.40173982217422
 10
185.57206526348006
 20
254.6384252869671
 10
186.00777340690786
 20
254.8644860239103
 10
186.44889813139434
 20
255.07978586246887
 10
186.89517371990019
 20
255.2841951140706
 10
187.3463313526982
 20
255.47759065022572
 10
187.80209926930024
 20
255.6598559766948
 10
188.2622029321556
 20
255.83088130366042
 10
188.72636519202217
 20
255.99056361186072
 10
189.19430645491076
 20
256.13880671464415
 10
189.66574485050202
 20
256.2755213159088
 10
190.1403964019347
 20
256.40062506389086
 10
190.6179751968626
 20
256.51404260077055
 10
191.09819355967744
 20
256.6157056080646
 10
191.58076222479397
 20
256.70555284777885
 10
192.06539051089274
 20
256.7835301992956
 10
192.5517864960157
 20
256.8495906919742
 10
193.0396571934088
 20
256.90369453344397
 10
193.52870872800665
 20
256.9458091335738
 10
194.01864651345164
 20
256.97590912410345
 10
194.50917542954176
 20
256.99397637392406
 10
195.0
 20
257.0
 10
195.49082457045824
 20
256.99397637392406
 10
195.98135348654836
 20
256.97590912410345
 10
196.47129127199335
 20
256.9458091335738
 10
196.9603428065912
 20
256.90369453344397
 10
197.4482135039843
 20
256.8495906919742
 10
197.93460948910723
 20
256.7835301992956
 10
198.41923777520603
 20
256.70555284777885
 10
198.90180644032256
 20
256.6157056080646
 10
199.3820248031374
 20
256.51404260077055
 10
199.85960359806526
 20
256.40062506389086
 10
200.33425514949798
 20
256.2755213159088
 10
200.80569354508924
 20
256.1388067146442
 10
201.27363480797783
 20
255.99056361186075
 10
201.73779706784438
 20
255.83088130366042
 10
202.19790073069976
 20
255.6598559766948
 10
202.6536686473018
 20
255.47759065022572
 10
203.10482628009981
 20
255.2841951140706
 10
203.55110186860566
 20
255.07978586246887
 10
203.99222659309214
 20
254.8644860239103
 10
204.42793473651994
 20
254.6384252869671
 10
204.85796384459567
 20
254.40173982217422
 10
205.28205488386442
 20
254.15457220000545
 10
205.69995239774192
 20
253.89707130499414
 10
206.11140466039203
 20
253.6293922460509
 10
206.5161638283569
 20
253.35169626303167
 10
206.91398608984866
 20
253.0641506296129
 10
207.30463181161255
 20
252.76692855253214
 10
207.68786568327292
 20
252.46020906725474
 10
208.06345685907553
 20
252.1441769301297
 10
208.43117909694035
 20
251.8190225070992
 10
208.79081089474133
 20
251.48494165902935
 10
209.14213562373095
 20
251.14213562373095
 10
209.48494165902935
 20
250.79081089474136
 10
209.8190225070992
 20
250.43117909694038
 10
210.14417693012967
 20
250.06345685907553
 10
210.46020906725474
 20
249.68786568327292
 10
210.7669285525321
 20
249.30463181161255
 10
211.0641506296129
 20
248.91398608984866
 10
211.35169626303167
 20
248.5161638283569
 10
211.6293922460509
 20
248.11140466039205
 10
211.89707130499414
 20
247.69995239774195
 10
212.15457220000545
 20
247.28205488386445
 10
212.40173982217422
 20
246.85796384459567
 10
212.6384252869671
 20
246.42793473651994
 10
212.8644860239103
 20
245.99222659309214
 10
213.07978586246887
 20
245.55110186860566
 10
213.2841951140706
 20
245.10482628009981
 10
213.47759065022572
 20
244.6536686473018
 10
213.6598559766948
 20
244.19790073069976
 10
213.83088130366042
 20
243.7377970678444
 10
213.99056361186072
 20
243.27363480797783
 10
214.13880671464418
 20
242.80569354508924
 10
214.2755213159088
 20
242.33425514949798
 10
214.40062506389089
 20
241.8596035980653
 10
214.51404260077058
 20
241.3820248031374
 10
214.61570560806462
 20
240.9018064403226
 10
214.70555284777882
 20
240.41923777520603
 10
214.78353019929563
 20
239.93460948910726
 10
214.84959069197419
 20
239.44821350398433
 10
214.90369453344394
 20
238.9603428065912
 10
214.9458091335738
 20
238.47129127199335
 10
214.97590912410345
 20
237.98135348654836
 10
214.99397637392408
 20
237.49082457045824
 97
0
 75
1
 76
1
 98
0
  0
LWPOLYLINE
  5
E5
330
17
100
AcDbEntity
  8
01-VISIBLE
100
AcDbPolyline
 90
257
 70
1
 10
215.0
 20
237.0
 10
214.99397637392408
 20
236.50917542954176
 10
214.97590912410345
 20
236.01864651345164
 10
214.9458091335738
 20
235.52870872800665
 10
214.90369453344394
 20
235.0396571934088
 10
214.84959069197419
 20
234.55178649601567
 10
214.78353019929563
 20
234.06539051089277
 10
214.70555284777882
 20
233.58076222479397
 10
214.61570560806462
 20
233.09819355967744
 10
214.51404260077058
 20
232.6179751968626
 10
214.40062506389089
 20
232.1403964019347
 10
214.2755213159088
 20
231.66574485050202
 10
214.13880671464418
 20
231.19430645491076
 10
213.99056361186072
 20
230.72636519202217
 10
213.83088130366042
 20
230.2622029321556
 10
213.6598559766948
 20
229.80209926930024
 10
213.47759065022575
 20
229.3463313526982
 10
213.2841951140706
 20
228.8951737199002
 10
213.07978586246887
 20
228.44889813139434
 10
212.8644860239103
 20
228.00777340690786
 10
212.6384252869671
 20
227.57206526348006
 10
212.40173982217422
 20
227.14203615540433
 10
212.15457220000545
 20
226.71794511613558
 10
211.89707130499414
 20
226.30004760225805
 10
211.6293922460509
 20
225.88859533960795
 10
211.35169626303167
 20
225.4838361716431
 10
211.0641506296129
 20
225.08601391015134
 10
210.76692855253214
 20
224.69536818838748
 10
210.46020906725474
 20
224.31213431672708
 10
210.1441769301297
 20
223.93654314092447
 10
209.8190225070992
 20
223.56882090305965
 10
209.48494165902935
 20
223.20918910525867
 10
209.14213562373095
 20
222.85786437626905
 10
208.79081089474133
 20
222.51505834097065
 10
208.43117909694035
 20
222.1809774929008
 10
208.06345685907553
 20
221.85582306987033
 10
207.68786568327292
 20
221.53979093274526
 10
207.30463181161252
 20
221.23307144746786
 10
206.91398608984866
 20
220.9358493703871
 10
206.5161638283569
 20
220.64830373696833
 10
206.11140466039205
 20
220.3706077539491
 10
205.69995239774195
 20
220.10292869500586
 10
205.28205488386442
 20
219.84542779999455
 10
204.85796384459567
 20
219.59826017782578
 10
204.42793473651994
 20
219.3615747130329
 10
203.99222659309214
 20
219.1355139760897
 10
203.55110186860566
 20
218.92021413753113
 10
203.1048262800998
 20
218.7158048859294
 10
202.6536686473018
 20
218.52240934977425
 10
202.19790073069976
 20
218.3401440233052
 10
201.7377970678444
 20
218.16911869633958
 10
201.27363480797783
 20
218.00943638813928
 10
200.80569354508924
 20
217.86119328535582
 10
200.33425514949798
 20
217.7244786840912
 10
199.8596035980653
 20
217.59937493610911
 10
199.3820248031374
 20
217.48595739922942
 10
198.90180644032256
 20
217.38429439193538
 10
198.41923777520603
 20
217.29444715222118
 10
197.93460948910723
 20
217.21646980070437
 10
197.44821350398433
 20
217.15040930802581
 10
196.96034280659123
 20
217.09630546655606
 10
196.47129127199335
 20
217.0541908664262
 10
195.98135348654836
 20
217.02409087589655
 10
195.49082457045824
 20
217.00602362607592
 10
195.0
 20
217.0
 10
194.50917542954176
 20
217.00602362607592
 10
194.01864651345164
 20
217.02409087589655
 10
193.52870872800665
 20
217.0541908664262
 10
193.0396571934088
 20
217.09630546655606
 10
192.55178649601567
 20
217.15040930802581
 10
192.06539051089277
 20
217.21646980070437
 10
191.58076222479397
 20
217.29444715222118
 10
191.09819355967744
 20
217.38429439193538
 10
190.6179751968626
 20
217.48595739922942
 10
190.1403964019347
 20
217.59937493610911
 10
189.66574485050202
 20
217.7244786840912
 10
189.19430645491076
 20
217.86119328535582
 10
188.72636519202217
 20
218.00943638813928
 10
188.2622029321556
 20
218.16911869633958
 10
187.80209926930024
 20
218.3401440233052
 10
187.3463313526982
 20
218.52240934977425
 10
186.8951737199002
 20
218.7158048859294
 10
186.44889813139437
 20
218.92021413753113
 10
186.00777340690786
 20
219.1355139760897
 10
185.57206526348006
 20
219.3615747130329
 10
185.14203615540433
 20
219.59826017782578
 10
184.71794511613558
 20
219.84542779999455
 10
184.30004760225805
 20
220.10292869500586
 10
183.88859533960795
 20
220.3706077539491
 10
183.4838361716431
 20
220.64830373696833
 10
183.08601391015134
 20
220.9358493703871
 10
182.69536818838748
 20
221.23307144746786
 10
182.31213431672708
 20
221.53979093274526
 10
181.93654314092447
 20
221.8558230698703
 10
181.56882090305965
 20
222.1809774929008
 10
181.20918910525867
 20
222.51505834097065
 10
180.85786437626905
 20
222.85786437626905
 10
180.51505834097065
 20
223.20918910525864
 10
180.1809774929008
 20
223.56882090305962
 10
179.8558230698703
 20
223.93654314092447
 10
179.53979093274526
 20
224.31213431672708
 10
179.23307144746786
 20
224.69536818838748
 10
178.9358493703871
 20
225.08601391015134
 10
178.64830373696833
 20
225.48383617164308
 10
178.3706077539491
 20
225.88859533960795
 10
178.10292869500586
 20
226.30004760225805
 10
177.84542779999455
 20
226.71794511613555
 10
177.59826017782578
 20
227.14203615540433
 10
177.3615747130329
 20
227.57206526348006
 10
177.1355139760897
 20
228.00777340690786
 10
176.92021413753113
 20
228.44889813139437
 10
176.7158048859294
 20
228.8951737199002
 10
176.52240934977425
 20
229.3463313526982
 10
176.3401440233052
 20
229.80209926930024
 10
176.16911869633958
 20
230.2622029321556
 10
176.00943638813928
 20
230.72636519202217
 10
175.86119328535582
 20
231.19430645491076
 10
175.7244786840912
 20
231.66574485050202
 10
175.59937493610911
 20
232.1403964019347
 10
175.48595739922942
 20
232.6179751968626
 10
175.38429439193538
 20
233.09819355967744
 10
175.29444715222118
 20
233.58076222479397
 10
175.21646980070437
 20
234.06539051089277
 10
175.15040930802581
 20
234.55178649601567
 10
175.09630546655606
 20
235.03965719340877
 10
175.0541908664262
 20
235.52870872800665
 10
175.02409087589655
 20
236.01864651345164
 10
175.00602362607592
 20
236.50917542954176
 10
175.0
 20
237.0
 10
175.00602362607592
 20
237.49082457045824
 10
175.02409087589655
 20
237.98135348654836
 10
175.0541908664262
 20
238.47129127199335
 10
175.09630546655606
 20
238.9603428065912
 10
175.15040930802581
 20
239.44821350398433
 10
175.21646980070437
 20
239.93460948910723
 10
175.29444715222118
 20
240.41923777520603
 10
175.38429439193538
 20
240.90180644032256
 10
175.48595739922942
 20
241.3820248031374
 10
175.59937493610911
 20
241.85960359806526
 10
175.7244786840912
 20
242.33425514949798
 10
175.86119328535582
 20
242.80569354508924
 10
176.00943638813925
 20
243.27363480797783
 10
176.16911869633958
 20
243.7377970678444
 10
176.3401440233052
 20
244.19790073069976
 10
176.52240934977425
 20
244.6536686473018
 10
176.7158048859294
 20
245.1048262800998
 10
176.92021413753113
 20
245.55110186860563
 10
177.1355139760897
 20
245.99222659309214
 10
177.3615747130329
 20
246.42793473651994
 10
177.59826017782578
 20
246.85796384459567
 10
177.84542779999455
 20
247.28205488386442
 10
178.10292869500586
 20
247.69995239774192
 10
178.3706077539491
 20
248.11140466039205
 10
178.64830373696833
 20
248.5161638283569
 10
178.9358493703871
 20
248.91398608984866
 10
179.23307144746786
 20
249.30463181161252
 10
179.53979093274526
 20
249.68786568327292
 10
179.8558230698703
 20
250.06345685907553
 10
180.1809774929008
 20
250.43117909694035
 10
180.51505834097065
 20
250.79081089474133
 10
180.85786437626905
 20
251.14213562373095
 10
181.20918910525864
 20
251.48494165902935
 10
181.56882090305962
 20
251.8190225070992
 10
181.93654314092447
 20
252.14417693012967
 10
182.31213431672708
 20
252.46020906725474
 10
182.69536818838745
 20
252.7669285525321
 10
183.08601391015134
 20
253.0641506296129
 10
183.4838361716431
 20
253.35169626303167
 10
183.88859533960795
 20
253.6293922460509
 10
184.30004760225805
 20
253.89707130499414
 10
184.71794511613555
 20
254.15457220000545
 10
185.14203615540433
 20
254.40173982217422
 10
185.57206526348006
 20
254.6384252869671
 10
186.00777340690786
 20
254.8644860239103
 10
186.44889813139434
 20
255.07978586246887
 10
186.89517371990019
 20
255.2841951140706
 10
187.3463313526982
 20
255.47759065022572
 10
187.80209926930024
 20
255.6598559766948
 10
188.2622029321556
 20
255.83088130366042
 10
188.72636519202217
 20
255.99056361186072
 10
189.19430645491076
 20
256.13880671464415
 10
189.66574485050202
 20
256.2755213159088
 10
190.1403964019347
 20
256.40062506389086
 10
190.6179751968626
 20
256.51404260077055
 10
191.09819355967744
 20
256.6157056080646
 10
191.58076222479397
 20
256.70555284777885
 10
192.06539051089274
 20
256.7835301992956
 10
192.5517864960157
 20
256.8495906919742
 10
193.0396571934088
 20
256.90369453344397
 10
193.52870872800665
 20
256.9458091335738
 10
194.01864651345164
 20
256.97590912410345
 10
194.50917542954176
 20
256.99397637392406
 10
195.0
 20
257.0
 10
195.49082457045824
 20
256.99397637392406
 10
195.98135348654836
 20
256.97590912410345
 10
196.47129127199335
 20
256.9458091335738
 10
196.9603428065912
 20
256.90369453344397
 10
197.4482135039843
 20
256.8495906919742
 10
197.93460948910723
 20
256.7835301992956
 10
198.41923777520603
 20
256.70555284777885
 10
198.90180644032256
 20
256.6157056080646
 10
199.3820248031374
 20
256.51404260077055
 10
199.85960359806526
 20
256.40062506389086
 10
200.33425514949798
 20
256.2755213159088
 10
200.80569354508924
 20
256.1388067146442
 10
201.27363480797783
 20
255.99056361186075
 10
201.73779706784438
 20
255.83088130366042
 10
202.19790073069976
 20
255.6598559766948
 10
202.6536686473018
 20
255.47759065022572
 10
203.10482628009981
 20
255.2841951140706
 10
203.55110186860566
 20
255.07978586246887
 10
203.99222659309214
 20
254.8644860239103
 10
204.42793473651994
 20
254.6384252869671
 10
204.85796384459567
 20
254.40173982217422
 10
205.28205488386442
 20
254.15457220000545
 10
205.69995239774192
 20
253.89707130499414
 10
206.11140466039203
 20
253.6293922460509
 10
206.5161638283569
 20
253.35169626303167
 10
206.91398608984866
 20
253.0641506296129
 10
207.30463181161255
 20
252.76692855253214
 10
207.68786568327292
 20
252.46020906725474
 10
208.06345685907553
 20
252.1441769301297
 10
208.43117909694035
 20
251.8190225070992
 10
208.79081089474133
 20
251.48494165902935
 10
209.14213562373095
 20
251.14213562373095
 10
209.48494165902935
 20
250.79081089474136
 10
209.8190225070992
 20
250.43117909694038
 10
210.14417693012967
 20
250.06345685907553
 10
210.46020906725474
 20
249.68786568327292
 10
210.7669285525321
 20
249.30463181161255
 10
211.0641506296129
 20
248.91398608984866
 10
211.35169626303167
 20
248.5161638283569
 10
211.6293922460509
 20
248.11140466039205
 10
211.89707130499414
 20
247.69995239774195
 10
212.15457220000545
 20
247.28205488386445
 10
212.40173982217422
 20
246.85796384459567
 10
212.6384252869671
 20
246.42793473651994
 10
212.8644860239103
 20
245.99222659309214
 10
213.07978586246887
 20
245.55110186860566
 10
213.2841951140706
 20
245.10482628009981
 10
213.47759065022572
 20
244.6536686473018
 10
213.6598559766948
 20
244.19790073069976
 10
213.83088130366042
 20
243.7377970678444
 10
213.99056361186072
 20
243.27363480797783
 10
214.13880671464418
 20
242.80569354508924
 10
214.2755213159088
 20
242.33425514949798
 10
214.40062506389089
 20
241.8596035980653
 10
214.51404260077058
 20
241.3820248031374
 10
214.61570560806462
 20
240.9018064403226
 10
214.70555284777882
 20
240.41923777520603
 10
214.78353019929563
 20
239.93460948910726
 10
214.84959069197419
 20
239.44821350398433
 10
214.90369453344394
 20
238.9603428065912
 10
214.9458091335738
 20
238.47129127199335
 10
214.97590912410345
 20
237.98135348654836
 10
214.99397637392408
 20
237.49082457045824
 10
215.0
 20
237.0
  0
TEXT
  5
E6
330
17
100
AcDbEntity
  8
06-TEXTO
420
16777215
100
AcDbText
 10
195.0
 20
237.0
 30
0.0
 40
22.0
  1
C
  7
ISO3098
 72
1
 11
195.0
 21
237.0
 31
0.0
100
AcDbText
 73
2
  0
DIMENSION
  5
E7
330
17
100
AcDbEntity
  8
04-COTA
100
AcDbDimension
280
0
  2
*D3
  3
FLAMA-IRAM
 10
175.0
 20
205.0
 30
0.0
 11
195.0
 21
207.75
 31
0.0
 70
32
 71
5
  1
<>
100
AcDbAlignedDimension
 13
175.0
 23
213.0
 33
0.0
 14
215.0
 24
213.0
 34
0.0
 50
0.0
100
AcDbRotatedDimension
1001
ACAD
1000
DSTYLE
1002
{
1070
144
1040
1.0
1002
}
  0
TEXT
  5
F6
330
17
100
AcDbEntity
  8
06-TEXTO
100
AcDbText
 10
195.0
 20
197.0
 30
0.0
 40
2.5
  1
Círculo azul
  7
ISO3098
 72
1
 11
195.0
 21
197.0
 31
0.0
100
AcDbText
 73
2
  0
HATCH
  5
F7
330
17
100
AcDbEntity
  8
05-RAYADO
 62
7
420
16361472
100
AcDbHatch
 10
0.0
 20
0.0
 30
0.0
210
0.0
220
0.0
230
1.0
  2
SOLID
 70
1
 71
0
 91
1
 92
3
 72
0
 73
1
 93
10
 10
260.0
 20
257.0
 10
254.70993272936775
 20
244.28115294937453
 10
240.97886967409693
 20
243.18033988749895
 10
251.44049135334362
 20
234.21884705062547
 10
248.24429495415055
 20
220.81966011250105
 10
260.0
 20
228.0
 10
271.7557050458495
 20
220.81966011250105
 10
268.55950864665635
 20
234.21884705062547
 10
279.0211303259031
 20
243.18033988749895
 10
265.2900672706323
 20
244.28115294937453
 97
0
 75
1
 76
1
 98
0
  0
LWPOLYLINE
  5
F8
330
17
100
AcDbEntity
  8
01-VISIBLE
100
AcDbPolyline
 90
11
 70
1
 10
260.0
 20
257.0
 10
254.70993272936775
 20
244.28115294937453
 10
240.97886967409693
 20
243.18033988749895
 10
251.44049135334362
 20
234.21884705062547
 10
248.24429495415055
 20
220.81966011250105
 10
260.0
 20
228.0
 10
271.7557050458495
 20
220.81966011250105
 10
268.55950864665635
 20
234.21884705062547
 10
279.0211303259031
 20
243.18033988749895
 10
265.2900672706323
 20
244.28115294937453
 10
260.0
 20
257.0
  0
TEXT
  5
F9
330
17
100
AcDbEntity
  8
06-TEXTO
420
16777215
100
AcDbText
 10
260.0
 20
237.0
 30
0.0
 40
16.8
  1
D
  7
ISO3098
 72
1
 11
260.0
 21
237.0
 31
0.0
100
AcDbText
 73
2
  0
DIMENSION
  5
FA
330
17
100
AcDbEntity
  8
04-COTA
100
AcDbDimension
280
0
  2
*D4
  3
FLAMA-IRAM
 10
240.0
 20
205.0
 30
0.0
 11
260.0
 21
207.75
 31
0.0
 70
32
 71
5
  1
<>
100
AcDbAlignedDimension
 13
240.0
 23
213.0
 33
0.0
 14
280.0
 24
213.0
 34
0.0
 50
0.0
100
AcDbRotatedDimension
1001
ACAD
1000
DSTYLE
1002
{
1070
144
1040
1.0
1002
}
  0
TEXT
  5
109
330
17
100
AcDbEntity
  8
06-TEXTO
100
AcDbText
 10
260.0
 20
197.0
 30
0.0
 40
2.5
  1
Estrella amarilla
  7
ISO3098
 72
1
 11
260.0
 21
197.0
 31
0.0
100
AcDbText
 73
2
  0
HATCH
  5
10A
330
17
100
AcDbEntity
  8
05-RAYADO
 62
7
420
1973790
100
AcDbHatch
 10
0.0
 20
0.0
 30
0.0
210
0.0
220
0.0
230
1.0
  2
SOLID
 70
1
 71
0
 91
1
 92
3
 72
0
 73
1
 93
6
 10
342.3205080756888
 20
247.0
 10
325.0
 20
257.0
 10
307.6794919243112
 20
247.0
 10
307.6794919243112
 20
227.0
 10
325.0
 20
217.0
 10
342.3205080756888
 20
227.0
 97
0
 75
1
 76
1
 98
0
  0
LWPOLYLINE
  5
10B
330
17
100
AcDbEntity
  8
01-VISIBLE
100
AcDbPolyline
 90
7
 70
1
 10
342.3205080756888
 20
247.0
 10
325.0
 20
257.0
 10
307.6794919243112
 20
247.0
 10
307.6794919243112
 20
227.0
 10
325.0
 20
217.0
 10
342.3205080756888
 20
227.0
 10
342.3205080756888
 20
247.0
  0
TEXT
  5
10C
330
17
100
AcDbEntity
  8
06-TEXTO
420
16777215
100
AcDbText
 10
325.0
 20
237.0
 30
0.0
 40
22.0
  1
K
  7
ISO3098
 72
1
 11
325.0
 21
237.0
 31
0.0
100
AcDbText
 73
2
  0
DIMENSION
  5
10D
330
17
100
AcDbEntity
  8
04-COTA
100
AcDbDimension
280
0
  2
*D5
  3
FLAMA-IRAM
 10
305.0
 20
205.0
 30
0.0
 11
325.0
 21
207.75
 31
0.0
 70
32
 71
5
  1
<>
100
AcDbAlignedDimension
 13
305.0
 23
213.0
 33
0.0
 14
345.0
 24
213.0
 34
0.0
 50
0.0
100
AcDbRotatedDimension
1001
ACAD
1000
DSTYLE
1002
{
1070
144
1040
1.0
1002
}
  0
TEXT
  5
11C
330
17
100
AcDbEntity
  8
06-TEXTO
100
AcDbText
 10
325.0
 20
197.0
 30
0.0
 40
2.5
  1
Hexágono negro
  7
ISO3098
 72
1
 11
325.0
 21
197.0
 31
0.0
100
AcDbText
 73
2
  0
LWPOLYLINE
  5
11D
330
17
100
AcDbEntity
  8
10-ROTULO
100
AcDbPolyline
 90
4
 70
1
 10
45.0
 20
171.5
 10
220.0
 20
171.5
 10
220.0
 20
177.0
 10
45.0
 20
177.0
  0
TEXT
  5
11E
330
17
100
AcDbEntity
  8
06-TEXTO
100
AcDbText
 10
132.5
 20
174.25
 30
0.0
 40
3.5
  1
CLASES DE FUEGO
  7
ISO3098
 72
1
 11
132.5
 21
174.25
 31
0.0
100
AcDbText
 73
2
  0
LWPOLYLINE
  5
11F
330
17
100
AcDbEntity
  8
10-ROTULO
100
AcDbPolyline
 90
4
 70
1
 10
45.0
 20
166.0
 10
70.0
 20
166.0
 10
70.0
 20
171.5
 10
45.0
 20
171.5
  0
TEXT
  5
120
330
17
100
AcDbEntity
  8
06-TEXTO
100
AcDbText
 10
46.5
 20
168.75
 30
0.0
 40
2.5
  1
Clase
  7
ISO3098
 11
46.5
 21
168.75
 31
0.0
100
AcDbText
 73
2
  0
LWPOLYLINE
  5
121
330
17
100
AcDbEntity
  8
10-ROTULO
100
AcDbPolyline
 90
4
 70
1
 10
70.0
 20
166.0
 10
110.0
 20
166.0
 10
110.0
 20
171.5
 10
70.0
 20
171.5
  0
TEXT
  5
122
330
17
100
AcDbEntity
  8
06-TEXTO
100
AcDbText
 10
90.0
 20
168.75
 30
0.0
 40
2.5
  1
Símbolo
  7
ISO3098
 72
1
 11
90.0
 21
168.75
 31
0.0
100
AcDbText
 73
2
  0
LWPOLYLINE
  5
123
330
17
100
AcDbEntity
  8
10-ROTULO
100
AcDbPolyline
 90
4
 70
1
 10
110.0
 20
166.0
 10
220.0
 20
166.0
 10
220.0
 20
171.5
 10
110.0
 20
171.5
  0
TEXT
  5
124
330
17
100
AcDbEntity
  8
06-TEXTO
100
AcDbText
 10
165.0
 20
168.75
 30
0.0
 40
2.5
  1
Fuego
  7
ISO3098
 72
1
 11
165.0
 21
168.75
 31
0.0
100
AcDbText
 73
2
  0
LWPOLYLINE
  5
125
330
17
100
AcDbEntity
  8
10-ROTULO
100
AcDbPolyline
 90
4
 70
1
 10
45.0
 20
160.5
 10
70.0
 20
160.5
 10
70.0
 20
166.0
 10
45.0
 20
166.0
  0
TEXT
  5
126
330
17
100
AcDbEntity
  8
06-TEXTO
100
AcDbText
 10
46.5
 20
163.25
 30
0.0
 40
2.5
  1
Clase A
  7
ISO3098
 11
46.5
 21
163.25
 31
0.0
100
AcDbText
 73
2
  0
LWPOLYLINE
  5
127
330
17
100
AcDbEntity
  8
10-ROTULO
100
AcDbPolyline
 90
4
 70
1
 10
70.0
 20
160.5
 10
110.0
 20
160.5
 10
110.0
 20
166.0
 10
70.0
 20
166.0
  0
TEXT
  5
128
330
17
100
AcDbEntity
  8
06-TEXTO
100
AcDbText
 10
90.0
 20
163.25
 30
0.0
 40
2.5
  1
Triángulo verde
  7
ISO3098
 72
1
 11
90.0
 21
163.25
 31
0.0
100
AcDbText
 73
2
  0
LWPOLYLINE
  5
129
330
17
100
AcDbEntity
  8
10-ROTULO
100
AcDbPolyline
 90
4
 70
1
 10
110.0
 20
160.5
 10
220.0
 20
160.5
 10
220.0
 20
166.0
 10
110.0
 20
166.0
  0
TEXT
  5
12A
330
17
100
AcDbEntity
  8
06-TEXTO
100
AcDbText
 10
165.0
 20
163.25
 30
0.0
 40
1.8
  1
Sólidos combustibles comunes (madera, papel, textiles)
  7
ISO3098
 72
1
 11
165.0
 21
163.25
 31
0.0
100
AcDbText
 73
2
  0
LWPOLYLINE
  5
12B
330
17
100
AcDbEntity
  8
10-ROTULO
100
AcDbPolyline
 90
4
 70
1
 10
45.0
 20
155.0
 10
70.0
 20
155.0
 10
70.0
 20
160.5
 10
45.0
 20
160.5
  0
TEXT
  5
12C
330
17
100
AcDbEntity
  8
06-TEXTO
100
AcDbText
 10
46.5
 20
157.75
 30
0.0
 40
2.5
  1
Clase B
  7
ISO3098
 11
46.5
 21
157.75
 31
0.0
100
AcDbText
 73
2
  0
LWPOLYLINE
  5
12D
330
17
100
AcDbEntity
  8
10-ROTULO
100
AcDbPolyline
 90
4
 70
1
 10
70.0
 20
155.0
 10
110.0
 20
155.0
 10
110.0
 20
160.5
 10
70.0
 20
160.5
  0
TEXT
  5
12E
330
17
100
AcDbEntity
  8
06-TEXTO
100
AcDbText
 10
90.0
 20
157.75
 30
0.0
 40
2.5
  1
Cuadrado rojo
  7
ISO3098
 72
1
 11
90.0
 21
157.75
 31
0.0
100
AcDbText
 73
2
  0
LWPOLYLINE
  5
12F
330
17
100
AcDbEntity
  8
10-ROTULO
100
AcDbPolyline
 90
4
 70
1
 10
110.0
 20
155.0
 10
220.0
 20
155.0
 10
220.0
 20
160.5
 10
110.0
 20
160.5
  0
TEXT
  5
130
330
17
100
AcDbEntity
  8
06-TEXTO
100
AcDbText
 10
165.0
 20
157.75
 30
0.0
 40
2.5
  1
Líquidos y gases inflamables
  7
ISO3098
 72
1
 11
165.0
 21
157.75
 31
0.0
100
AcDbText
 73
2
  0
LWPOLYLINE
  5
131
330
17
100
AcDbEntity
  8
10-ROTULO
100
AcDbPolyline
 90
4
 70
1
 10
45.0
 20
149.5
 10
70.0
 20
149.5
 10
70.0
 20
155.0
 10
45.0
 20
155.0
  0
TEXT
  5
132
330
17
100
AcDbEntity
  8
06-TEXTO
100
AcDbText
 10
46.5
 20
152.25
 30
0.0
 40
2.5
  1
Clase C
  7
ISO3098
 11
46.5
 21
152.25
 31
0.0
100
AcDbText
 73
2
  0
LWPOLYLINE
  5
133
330
17
100
AcDbEntity
  8
10-ROTULO
100
AcDbPolyline
 90
4
 70
1
 10
70.0
 20
149.5
 10
110.0
 20
149.5
 10
110.0
 20
155.0
 10
70.0
 20
155.0
  0
TEXT
  5
134
330
17
100
AcDbEntity
  8
06-TEXTO
100
AcDbText
 10
90.0
 20
152.25
 30
0.0
 40
2.5
  1
Círculo azul
  7
ISO3098
 72
1
 11
90.0
 21
152.25
 31
0.0
100
AcDbText
 73
2
  0
LWPOLYLINE
  5
135
330
17
100
AcDbEntity
  8
10-ROTULO
100
AcDbPolyline
 90
4
 70
1
 10
110.0
 20
149.5
 10
220.0
 20
149.5
 10
220.0
 20
155.0
 10
110.0
 20
155.0
  0
TEXT
  5
136
330
17
100
AcDbEntity
  8
06-TEXTO
100
AcDbText
 10
165.0
 20
152.25
 30
0.0
 40
2.5
  1
Equipos eléctricos energizados
  7
ISO3098
 72
1
 11
165.0
 21
152.25
 31
0.0
100
AcDbText
 73
2
  0
LWPOLYLINE
  5
137
330
17
100
AcDbEntity
  8
10-ROTULO
100
AcDbPolyline
 90
4
 70
1
 10
45.0
 20
144.0
 10
70.0
 20
144.0
 10
70.0
 20
149.5
 10
45.0
 20
149.5
  0
TEXT
  5
138
330
17
100
AcDbEntity
  8
06-TEXTO
100
AcDbText
 10
46.5
 20
146.75
 30
0.0
 40
2.5
  1
Clase D
  7
ISO3098
 11
46.5
 21
146.75
 31
0.0
100
AcDbText
 73
2
  0
LWPOLYLINE
  5
139
330
17
100
AcDbEntity
  8
10-ROTULO
100
AcDbPolyline
 90
4
 70
1
 10
70.0
 20
144.0
 10
110.0
 20
144.0
 10
110.0
 20
149.5
 10
70.0
 20
149.5
  0
TEXT
  5
13A
330
17
100
AcDbEntity
  8
06-TEXTO
100
AcDbText
 10
90.0
 20
146.75
 30
0.0
 40
2.5
  1
Estrella amarilla
  7
ISO3098
 72
1
 11
90.0
 21
146.75
 31
0.0
100
AcDbText
 73
2
  0
LWPOLYLINE
  5
13B
330
17
100
AcDbEntity
  8
10-ROTULO
100
AcDbPolyline
 90
4
 70
1
 10
110.0
 20
144.0
 10
220.0
 20
144.0
 10
220.0
 20
149.5
 10
110.0
 20
149.5
  0
TEXT
  5
13C
330
17
100
AcDbEntity
  8
06-TEXTO
100
AcDbText
 10
165.0
 20
146.75
 30
0.0
 40
2.5
  1
Metales combustibles
  7
ISO3098
 72
1
 11
165.0
 21
146.75
 31
0.0
100
AcDbText
 73
2
  0
LWPOLYLINE
  5
13D
330
17
100
AcDbEntity
  8
10-ROTULO
100
AcDbPolyline
 90
4
 70
1
 10
45.0
 20
138.5
 10
70.0
 20
138.5
 10
70.0
 20
144.0
 10
45.0
 20
144.0
  0
TEXT
  5
13E
330
17
100
AcDbEntity
  8
06-TEXTO
100
AcDbText
 10
46.5
 20
141.25
 30
0.0
 40
2.5
  1
Clase K
  7
ISO3098
 11
46.5
 21
141.25
 31
0.0
100
AcDbText
 73
2
  0
LWPOLYLINE
  5
13F
330
17
100
AcDbEntity
  8
10-ROTULO
100
AcDbPolyline
 90
4
 70
1
 10
70.0
 20
138.5
 10
110.0
 20
138.5
 10
110.0
 20
144.0
 10
70.0
 20
144.0
  0
TEXT
  5
140
330
17
100
AcDbEntity
  8
06-TEXTO
100
AcDbText
 10
90.0
 20
141.25
 30
0.0
 40
2.5
  1
Hexágono negro
  7
ISO3098
 72
1
 11
90.0
 21
141.25
 31
0.0
100
AcDbText
 73
2
  0
LWPOLYLINE
  5
141
330
17
100
AcDbEntity
  8
10-ROTULO
100
AcDbPolyline
 90
4
 70
1
 10
110.0
 20
138.5
 10
220.0
 20
138.5
 10
220.0
 20
144.0
 10
110.0
 20
144.0
  0
TEXT
  5
142
330
17
100
AcDbEntity
  8
06-TEXTO
100
AcDbText
 10
165.0
 20
141.25
 30
0.0
 40
2.5
  1
Aceites y grasas de cocina
  7
ISO3098
 72
1
 11
165.0
 21
141.25
 31
0.0
100
AcDbText
 73
2
  0
LWPOLYLINE
  5
143
330
17
100
AcDbEntity
  8
10-ROTULO
100
AcDbPolyline
 90
4
 70
1
 10
235.0
 20
171.5
 10
355.0
 20
171.5
 10
355.0
 20
177.0
 10
235.0
 20
177.0
  0
TEXT
  5
144
330
17
100
AcDbEntity
  8
06-TEXTO
100
AcDbText
 10
295.0
 20
174.25
 30
0.0
 40
3.5
  1
SÍMBOLOS POR MODELO (según catálogo)
  7
ISO3098
 72
1
 11
295.0
 21
174.25
 31
0.0
100
AcDbText
 73
2
  0
LWPOLYLINE
  5
145
330
17
100
AcDbEntity
  8
10-ROTULO
100
AcDbPolyline
 90
4
 70
1
 10
235.0
 20
166.0
 10
295.0
 20
166.0
 10
295.0
 20
171.5
 10
235.0
 20
171.5
  0
TEXT
  5
146
330
17
100
AcDbEntity
  8
06-TEXTO
100
AcDbText
 10
236.5
 20
168.75
 30
0.0
 40
2.5
  1
Modelo FLAMA
  7
ISO3098
 11
236.5
 21
168.75
 31
0.0
100
AcDbText
 73
2
  0
LWPOLYLINE
  5
147
330
17
100
AcDbEntity
  8
10-ROTULO
100
AcDbPolyline
 90
4
 70
1
 10
295.0
 20
166.0
 10
355.0
 20
166.0
 10
355.0
 20
171.5
 10
295.0
 20
171.5
  0
TEXT
  5
148
330
17
100
AcDbEntity
  8
06-TEXTO
100
AcDbText
 10
325.0
 20
168.75
 30
0.0
 40
2.5
  1
Símbolos en etiqueta
  7
ISO3098
 72
1
 11
325.0
 21
168.75
 31
0.0
100
AcDbText
 73
2
  0
LWPOLYLINE
  5
149
330
17
100
AcDbEntity
  8
10-ROTULO
100
AcDbPolyline
 90
4
 70
1
 10
235.0
 20
160.5
 10
295.0
 20
160.5
 10
295.0
 20
166.0
 10
235.0
 20
166.0
  0
TEXT
  5
14A
330
17
100
AcDbEntity
  8
06-TEXTO
100
AcDbText
 10
236.5
 20
163.25
 30
0.0
 40
2.5
  1
ABC 1 a 100 kg
  7
ISO3098
 11
236.5
 21
163.25
 31
0.0
100
AcDbText
 73
2
  0
LWPOLYLINE
  5
14B
330
17
100
AcDbEntity
  8
10-ROTULO
100
AcDbPolyline
 90
4
 70
1
 10
295.0
 20
160.5
 10
355.0
 20
160.5
 10
355.0
 20
166.0
 10
295.0
 20
166.0
  0
TEXT
  5
14C
330
17
100
AcDbEntity
  8
06-TEXTO
100
AcDbText
 10
325.0
 20
163.25
 30
0.0
 40
2.5
  1
A B C
  7
ISO3098
 72
1
 11
325.0
 21
163.25
 31
0.0
100
AcDbText
 73
2
  0
LWPOLYLINE
  5
14D
330
17
100
AcDbEntity
  8
10-ROTULO
100
AcDbPolyline
 90
4
 70
1
 10
235.0
 20
155.0
 10
295.0
 20
155.0
 10
295.0
 20
160.5
 10
235.0
 20
160.5
  0
TEXT
  5
14E
330
17
100
AcDbEntity
  8
06-TEXTO
100
AcDbText
 10
236.5
 20
157.75
 30
0.0
 40
2.5
  1
BC 5 kg
  7
ISO3098
 11
236.5
 21
157.75
 31
0.0
100
AcDbText
 73
2
  0
LWPOLYLINE
  5
14F
330
17
100
AcDbEntity
  8
10-ROTULO
100
AcDbPolyline
 90
4
 70
1
 10
295.0
 20
155.0
 10
355.0
 20
155.0
 10
355.0
 20
160.5
 10
295.0
 20
160.5
  0
TEXT
  5
150
330
17
100
AcDbEntity
  8
06-TEXTO
100
AcDbText
 10
325.0
 20
157.75
 30
0.0
 40
2.5
  1
B C
  7
ISO3098
 72
1
 11
325.0
 21
157.75
 31
0.0
100
AcDbText
 73
2
  0
LWPOLYLINE
  5
151
330
17
100
AcDbEntity
  8
10-ROTULO
100
AcDbPolyline
 90
4
 70
1
 10
235.0
 20
149.5
 10
295.0
 20
149.5
 10
295.0
 20
155.0
 10
235.0
 20
155.0
  0
TEXT
  5
152
330
17
100
AcDbEntity
  8
06-TEXTO
100
AcDbText
 10
236.5
 20
152.25
 30
0.0
 40
2.5
  1
HCFC/HFC 5 kg
  7
ISO3098
 11
236.5
 21
152.25
 31
0.0
100
AcDbText
 73
2
  0
LWPOLYLINE
  5
153
330
17
100
AcDbEntity
  8
10-ROTULO
100
AcDbPolyline
 90
4
 70
1
 10
295.0
 20
149.5
 10
355.0
 20
149.5
 10
355.0
 20
155.0
 10
295.0
 20
155.0
  0
TEXT
  5
154
330
17
100
AcDbEntity
  8
06-TEXTO
100
AcDbText
 10
325.0
 20
152.25
 30
0.0
 40
2.5
  1
A B C (según certificación)
  7
ISO3098
 72
1
 11
325.0
 21
152.25
 31
0.0
100
AcDbText
 73
2
  0
LWPOLYLINE
  5
155
330
17
100
AcDbEntity
  8
10-ROTULO
100
AcDbPolyline
 90
4
 70
1
 10
235.0
 20
144.0
 10
295.0
 20
144.0
 10
295.0
 20
149.5
 10
235.0
 20
149.5
  0
TEXT
  5
156
330
17
100
AcDbEntity
  8
06-TEXTO
100
AcDbText
 10
236.5
 20
146.75
 30
0.0
 40
2.5
  1
Agua 10 l
  7
ISO3098
 11
236.5
 21
146.75
 31
0.0
100
AcDbText
 73
2
  0
LWPOLYLINE
  5
157
330
17
100
AcDbEntity
  8
10-ROTULO
100
AcDbPolyline
 90
4
 70
1
 10
295.0
 20
144.0
 10
355.0
 20
144.0
 10
355.0
 20
149.5
 10
295.0
 20
149.5
  0
TEXT
  5
158
330
17
100
AcDbEntity
  8
06-TEXTO
100
AcDbText
 10
325.0
 20
146.75
 30
0.0
 40
2.5
  1
A
  7
ISO3098
 72
1
 11
325.0
 21
146.75
 31
0.0
100
AcDbText
 73
2
  0
LWPOLYLINE
  5
159
330
17
100
AcDbEntity
  8
10-ROTULO
100
AcDbPolyline
 90
4
 70
1
 10
235.0
 20
138.5
 10
295.0
 20
138.5
 10
295.0
 20
144.0
 10
235.0
 20
144.0
  0
TEXT
  5
15A
330
17
100
AcDbEntity
  8
06-TEXTO
100
AcDbText
 10
236.5
 20
141.25
 30
0.0
 40
2.5
  1
AFFF 10 l / 50 l
  7
ISO3098
 11
236.5
 21
141.25
 31
0.0
100
AcDbText
 73
2
  0
LWPOLYLINE
  5
15B
330
17
100
AcDbEntity
  8
10-ROTULO
100
AcDbPolyline
 90
4
 70
1
 10
295.0
 20
138.5
 10
355.0
 20
138.5
 10
355.0
 20
144.0
 10
295.0
 20
144.0
  0
TEXT
  5
15C
330
17
100
AcDbEntity
  8
06-TEXTO
100
AcDbText
 10
325.0
 20
141.25
 30
0.0
 40
2.5
  1
A B
  7
ISO3098
 72
1
 11
325.0
 21
141.25
 31
0.0
100
AcDbText
 73
2
  0
LWPOLYLINE
  5
15D
330
17
100
AcDbEntity
  8
10-ROTULO
100
AcDbPolyline
 90
4
 70
1
 10
235.0
 20
133.0
 10
295.0
 20
133.0
 10
295.0
 20
138.5
 10
235.0
 20
138.5
  0
TEXT
  5
15E
330
17
100
AcDbEntity
  8
06-TEXTO
100
AcDbText
 10
236.5
 20
135.75
 30
0.0
 40
2.5
  1
Sales K 6 l
  7
ISO3098
 11
236.5
 21
135.75
 31
0.0
100
AcDbText
 73
2
  0
LWPOLYLINE
  5
15F
330
17
100
AcDbEntity
  8
10-ROTULO
100
AcDbPolyline
 90
4
 70
1
 10
295.0
 20
133.0
 10
355.0
 20
133.0
 10
355.0
 20
138.5
 10
295.0
 20
138.5
  0
TEXT
  5
160
330
17
100
AcDbEntity
  8
06-TEXTO
100
AcDbText
 10
325.0
 20
135.75
 30
0.0
 40
2.5
  1
A K
  7
ISO3098
 72
1
 11
325.0
 21
135.75
 31
0.0
100
AcDbText
 73
2
  0
LWPOLYLINE
  5
161
330
17
100
AcDbEntity
  8
10-ROTULO
100
AcDbPolyline
 90
4
 70
1
 10
235.0
 20
127.5
 10
295.0
 20
127.5
 10
295.0
 20
133.0
 10
235.0
 20
133.0
  0
TEXT
  5
162
330
17
100
AcDbEntity
  8
06-TEXTO
100
AcDbText
 10
236.5
 20
130.25
 30
0.0
 40
2.5
  1
CO2 2 / 5 kg
  7
ISO3098
 11
236.5
 21
130.25
 31
0.0
100
AcDbText
 73
2
  0
LWPOLYLINE
  5
163
330
17
100
AcDbEntity
  8
10-ROTULO
100
AcDbPolyline
 90
4
 70
1
 10
295.0
 20
127.5
 10
355.0
 20
127.5
 10
355.0
 20
133.0
 10
295.0
 20
133.0
  0
TEXT
  5
164
330
17
100
AcDbEntity
  8
06-TEXTO
100
AcDbText
 10
325.0
 20
130.25
 30
0.0
 40
2.5
  1
B C
  7
ISO3098
 72
1
 11
325.0
 21
130.25
 31
0.0
100
AcDbText
 73
2
  0
LWPOLYLINE
  5
165
330
17
100
AcDbEntity
  8
10-ROTULO
100
AcDbPolyline
 90
4
 70
1
 10
235.0
 20
122.0
 10
295.0
 20
122.0
 10
295.0
 20
127.5
 10
235.0
 20
127.5
  0
TEXT
  5
166
330
17
100
AcDbEntity
  8
06-TEXTO
100
AcDbText
 10
236.5
 20
124.75
 30
0.0
 40
2.5
  1
Clase D 9 l
  7
ISO3098
 11
236.5
 21
124.75
 31
0.0
100
AcDbText
 73
2
  0
LWPOLYLINE
  5
167
330
17
100
AcDbEntity
  8
10-ROTULO
100
AcDbPolyline
 90
4
 70
1
 10
295.0
 20
122.0
 10
355.0
 20
122.0
 10
355.0
 20
127.5
 10
295.0
 20
127.5
  0
TEXT
  5
168
330
17
100
AcDbEntity
  8
06-TEXTO
100
AcDbText
 10
325.0
 20
124.75
 30
0.0
 40
2.5
  1
D
  7
ISO3098
 72
1
 11
325.0
 21
124.75
 31
0.0
100
AcDbText
 73
2
  0
TEXT
  5
169
330
17
100
AcDbEntity
  8
06-TEXTO
100
AcDbText
 10
30.0
 20
55.0
 30
0.0
 40
3.5
  1
NOTAS
  7
ISO3098
 11
30.0
 21
55.0
 31
0.0
100
AcDbText
 73
1
  0
TEXT
  5
16A
330
17
100
AcDbEntity
  8
06-TEXTO
100
AcDbText
 10
30.0
 20
50.0
 30
0.0
 40
2.5
  1
1) IRAM 10005: clase A triángulo, B cuadrado, C círculo, D estrella, con la letra en su interior.
  7
ISO3098
 11
30.0
 21
50.0
 31
0.0
100
AcDbText
 73
1
  0
TEXT
  5
16B
330
17
100
AcDbEntity
  8
06-TEXTO
100
AcDbText
 10
30.0
 20
45.0
 30
0.0
 40
2.5
  1
2) Colores según el sistema de NFPA 10 (A verde, B rojo, C azul, D amarillo, K negro); letra blanca.
  7
ISO3098
 11
30.0
 21
45.0
 31
0.0
100
AcDbText
 73
1
  0
TEXT
  5
16C
330
17
100
AcDbEntity
  8
06-TEXTO
100
AcDbText
 10
30.0
 20
40.0
 30
0.0
 40
2.5
  1
3) Tamaño mínimo en la etiqueta del matafuego: 25 mm; en chapa baliza se usan letras rojas (FL_SEN_01).
  7
ISO3098
 11
30.0
 21
40.0
 31
0.0
100
AcDbText
 73
1
  0
TEXT
  5
16D
330
17
100
AcDbEntity
  8
06-TEXTO
100
AcDbText
 10
30.0
 20
35.0
 30
0.0
 40
2.5
  1
4) Referencias RAL: verde 6032, rojo 3000, azul 5005, amarillo 1003, negro 9005.
  7
ISO3098
 11
30.0
 21
35.0
 31
0.0
100
AcDbText
 73
1
  0
VIEWPORT
  5
172
330
16E
100
AcDbEntity
 67
1
  8
VIEWPORTS
100
AcDbViewport
 10
322560.0
 20
228096.0
 30
0.0
 40
709632.0
 41
501811.2
 68
1
 69
1
 12
322560.0
 22
228096.0
 13
0.0
 23
0.0
 14
10.0
 24
10.0
 15
10.0
 25
10.0
 16
0.0
 26
0.0
 36
1.0
 17
0.0
 27
0.0
 37
0.0
 42
50.0
 43
0.0
 44
0.0
 45
501811.2
 50
0.0
 51
0.0
 72
100
 90
557088
  1

281
0
 71
0
 74
0
110
0.0
120
0.0
130
0.0
111
1.0
121
0.0
131
0.0
112
0.0
122
1.0
132
0.0
 79
0
146
0.0
282
0
  0
VIEWPORT
  5
173
330
16E
100
AcDbEntity
 67
1
  8
VIEWPORTS
100
AcDbViewport
 10
210.0
 20
148.5
 30
0.0
 40
420.0
 41
297.0
 68
2
 69
3
 12
210.0
 22
148.5
 13
0.0
 23
0.0
 14
10.0
 24
10.0
 15
10.0
 25
10.0
 16
0.0
 26
0.0
 36
1.0
 17
0.0
 27
0.0
 37
0.0
 42
50.0
 43
0.0
 44
0.0
 45
297.0
 50
0.0
 51
0.0
 72
100
 90
0
  1

281
0
 71
0
 74
0
110
0.0
120
0.0
130
0.0
111
1.0
121
0.0
131
0.0
112
0.0
122
1.0
132
0.0
 79
0
146
0.0
282
0
  0
ENDSEC
  0
SECTION
  2
OBJECTS
  0
DICTIONARY
  5
A
330
0
100
AcDbDictionary
281
1
  3
ACAD_COLOR
350
B
  3
ACAD_GROUP
350
C
  3
ACAD_LAYOUT
350
D
  3
ACAD_MATERIAL
350
E
  3
ACAD_MLEADERSTYLE
350
F
  3
ACAD_MLINESTYLE
350
10
  3
ACAD_PLOTSETTINGS
350
11
  3
ACAD_PLOTSTYLENAME
350
12
  3
ACAD_SCALELIST
350
14
  3
ACAD_TABLESTYLE
350
15
  3
ACAD_VISUALSTYLE
350
16
  3
EZDXF_META
350
2D
  0
DICTIONARY
  5
B
330
A
100
AcDbDictionary
281
1
  0
DICTIONARY
  5
C
330
A
100
AcDbDictionary
281
1
  0
DICTIONARY
  5
D
330
A
100
AcDbDictionary
281
1
  3
Model
350
1A
  3
Lamina
350
171
  0
DICTIONARY
  5
E
330
A
100
AcDbDictionary
281
1
  3
ByBlock
350
1F
  3
ByLayer
350
20
  3
Global
350
21
  0
DICTIONARY
  5
F
330
A
100
AcDbDictionary
281
1
  3
Standard
350
2C
  0
DICTIONARY
  5
10
330
A
100
AcDbDictionary
281
1
  3
Standard
350
22
  0
DICTIONARY
  5
11
330
A
100
AcDbDictionary
281
1
  0
ACDBDICTIONARYWDFLT
  5
12
330
A
100
AcDbDictionary
281
1
  3
Normal
350
13
100
AcDbDictionaryWithDefault
340
13
  0
ACDBPLACEHOLDER
  5
13
330
12
  0
DICTIONARY
  5
14
330
A
100
AcDbDictionary
281
1
  0
DICTIONARY
  5
15
330
A
100
AcDbDictionary
281
1
  0
DICTIONARY
  5
16
330
A
100
AcDbDictionary
281
1
  0
LAYOUT
  5
1A
330
D
100
AcDbPlotSettings
  1

  4
A3
  6

 40
7.5
 41
20.0
 42
7.5
 43
20.0
 44
420.0
 45
297.0
 46
0.0
 47
0.0
 48
0.0
 49
0.0
140
0.0
141
0.0
142
1.0
143
1.0
 70
1024
 72
1
 73
0
 74
5
  7

 75
16
 76
0
 77
2
 78
300
147
1.0
148
0.0
149
0.0
100
AcDbLayout
  1
Model
 70
1
 71
0
 10
0.0
 20
0.0
 11
420.0
 21
297.0
 12
0.0
 22
0.0
 32
0.0
 14
1e+20
 24
1e+20
 34
1e+20
 15
-1e+20
 25
-1e+20
 35
-1e+20
146
0.0
 13
0.0
 23
0.0
 33
0.0
 16
1.0
 26
0.0
 36
0.0
 17
0.0
 27
1.0
 37
0.0
 76
1
330
17
  0
MATERIAL
  5
1F
102
{ACAD_REACTORS
330
E
102
}
330
E
100
AcDbMaterial
  1
ByBlock
  2

 70
0
 40
1.0
 71
1
 41
1.0
 91
-1023410177
 42
1.0
 72
1
  3

 73
1
 74
1
 75
1
 44
0.5
 73
0
 45
1.0
 46
1.0
 77
1
  4

 78
1
 79
1
170
1
 48
1.0
171
1
  6

172
1
173
1
174
1
140
1.0
141
1.0
175
1
  7

176
1
177
1
178
1
143
1.0
179
1
  8

270
1
271
1
272
1
145
1.0
146
1.0
273
1
  9

274
1
275
1
276
1
 42
1.0
 72
1
  3

 73
1
 74
1
 75
1
 94
63
  0
MATERIAL
  5
20
102
{ACAD_REACTORS
330
E
102
}
330
E
100
AcDbMaterial
  1
ByLayer
  2

 70
0
 40
1.0
 71
1
 41
1.0
 91
-1023410177
 42
1.0
 72
1
  3

 73
1
 74
1
 75
1
 44
0.5
 73
0
 45
1.0
 46
1.0
 77
1
  4

 78
1
 79
1
170
1
 48
1.0
171
1
  6

172
1
173
1
174
1
140
1.0
141
1.0
175
1
  7

176
1
177
1
178
1
143
1.0
179
1
  8

270
1
271
1
272
1
145
1.0
146
1.0
273
1
  9

274
1
275
1
276
1
 42
1.0
 72
1
  3

 73
1
 74
1
 75
1
 94
63
  0
MATERIAL
  5
21
102
{ACAD_REACTORS
330
E
102
}
330
E
100
AcDbMaterial
  1
Global
  2

 70
0
 40
1.0
 71
1
 41
1.0
 91
-1023410177
 42
1.0
 72
1
  3

 73
1
 74
1
 75
1
 44
0.5
 73
0
 45
1.0
 46
1.0
 77
1
  4

 78
1
 79
1
170
1
 48
1.0
171
1
  6

172
1
173
1
174
1
140
1.0
141
1.0
175
1
  7

176
1
177
1
178
1
143
1.0
179
1
  8

270
1
271
1
272
1
145
1.0
146
1.0
273
1
  9

274
1
275
1
276
1
 42
1.0
 72
1
  3

 73
1
 74
1
 75
1
 94
63
  0
MLINESTYLE
  5
22
102
{ACAD_REACTORS
330
10
102
}
330
10
100
AcDbMlineStyle
  2
Standard
 70
0
  3

 62
256
 51
90.0
 52
90.0
 71
2
 49
0.5
 62
256
  6
BYLAYER
 49
-0.5
 62
256
  6
BYLAYER
  0
MLEADERSTYLE
  5
2C
102
{ACAD_REACTORS
330
F
102
}
330
F
100
AcDbMLeaderStyle
179
2
170
2
171
1
172
0
 90
2
 40
0.0
 41
0.0
173
1
 91
-1056964608
 92
-2
290
1
 42
2.0
291
1
 43
8.0
  3
Standard
 44
4.0
300

342
29
174
1
175
1
176
0
178
1
 93
-1056964608
 45
4.0
292
0
297
0
 46
4.0
 94
-1056964608
 47
1.0
 49
1.0
140
1.0
294
1
141
0.0
177
0
142
1.0
295
0
296
0
143
3.75
271
0
272
9
273
9
  0
DICTIONARY
  5
2D
330
A
100
AcDbDictionary
280
1
281
1
  3
CREATED_BY_EZDXF
350
2E
  3
WRITTEN_BY_EZDXF
350
176
  0
DICTIONARYVAR
  5
2E
330
2D
100
DictionaryVariables
280
0
  1
1.4.4 @ 2026-09-29T04:41:25.057467+00:00
  0
LAYOUT
  5
171
330
D
100
AcDbPlotSettings
  1

  2
DWG To PDF.pc3
  4
ISO_full_bleed_A3_(420.00_x_297.00_MM)_(420.00_x_297.00_MM)
  6

 40
0.0
 41
0.0
 42
0.0
 43
0.0
 44
420.0
 45
297.0
 46
0.0
 47
0.0
 48
0.0
 49
0.0
140
0.0
141
0.0
142
0.0078125
143
12.0
 70
672
 72
1
 73
0
 74
5
  7

 75
1
 76
0
 77
2
 78
300
147
1.0
148
0.0
149
0.0
100
AcDbLayout
  1
Lamina
 70
1
 71
3
 10
-0.0
 20
-0.0
 11
420.0
 21
297.0
 12
0.0
 22
0.0
 32
0.0
 14
1e+20
 24
1e+20
 34
1e+20
 15
-1e+20
 25
-1e+20
 35
-1e+20
146
0.0
 13
0.0
 23
0.0
 33
0.0
 16
1.0
 26
0.0
 36
0.0
 17
0.0
 27
1.0
 37
0.0
 76
1
330
16E
331
172
  0
DICTIONARYVAR
  5
176
330
2D
100
DictionaryVariables
280
0
  1
1.4.4 @ 2026-09-29T04:41:25.077131+00:00
  0
ENDSEC
  0
EOF
