  0
SECTION
  2
HEADER
  9
$ACADVER
  1
AC1032
  9
$ACADMAINTVER
 90
4
  9
$DWGCODEPAGE
  3
ANSI_1252
  9
$LASTSAVEDBY
  1
ezdxf
  9
$REQUIREDVERSIONS
160
0
  9
$INSBASE
 10
0.0
 20
0.0
 30
0.0
  9
$EXTMIN
 10
1e+20
 20
1e+20
 30
1e+20
  9
$EXTMAX
 10
-1e+20
 20
-1e+20
 30
-1e+20
  9
$LIMMIN
 10
0.0
 20
0.0
  9
$LIMMAX
 10
420.0
 20
297.0
  9
$ORTHOMODE
 70
0
  9
$REGENMODE
 70
1
  9
$FILLMODE
 70
1
  9
$QTEXTMODE
 70
0
  9
$MIRRTEXT
 70
1
  9
$LTSCALE
 40
1.0
  9
$ATTMODE
 70
1
  9
$TEXTSIZE
 40
2.5
  9
$TRACEWID
 40
1.0
  9
$TEXTSTYLE
  7
Standard
  9
$CLAYER
  8
0
  9
$CELTYPE
  6
ByLayer
  9
$CECOLOR
 62
256
  9
$CELTSCALE
 40
1.0
  9
$DISPSILH
 70
0
  9
$DIMSCALE
 40
1.0
  9
$DIMASZ
 40
2.5
  9
$DIMEXO
 40
0.625
  9
$DIMDLI
 40
3.75
  9
$DIMRND
 40
0.0
  9
$DIMDLE
 40
0.0
  9
$DIMEXE
 40
1.25
  9
$DIMTP
 40
0.0
  9
$DIMTM
 40
0.0
  9
$DIMTXT
 40
2.5
  9
$DIMCEN
 40
2.5
  9
$DIMTSZ
 40
0.0
  9
$DIMTOL
 70
0
  9
$DIMLIM
 70
0
  9
$DIMTIH
 70
0
  9
$DIMTOH
 70
0
  9
$DIMSE1
 70
0
  9
$DIMSE2
 70
0
  9
$DIMTAD
 70
1
  9
$DIMZIN
 70
8
  9
$DIMBLK
  1

  9
$DIMASO
 70
1
  9
$DIMSHO
 70
1
  9
$DIMPOST
  1

  9
$DIMAPOST
  1

  9
$DIMALT
 70
0
  9
$DIMALTD
 70
3
  9
$DIMALTF
 40
0.03937007874
  9
$DIMLFAC
 40
1.0
  9
$DIMTOFL
 70
1
  9
$DIMTVP
 40
0.0
  9
$DIMTIX
 70
0
  9
$DIMSOXD
 70
0
  9
$DIMSAH
 70
0
  9
$DIMBLK1
  1

  9
$DIMBLK2
  1

  9
$DIMSTYLE
  2
ISO-25
  9
$DIMCLRD
 70
0
  9
$DIMCLRE
 70
0
  9
$DIMCLRT
 70
0
  9
$DIMTFAC
 40
1.0
  9
$DIMGAP
 40
0.625
  9
$DIMJUST
 70
0
  9
$DIMSD1
 70
0
  9
$DIMSD2
 70
0
  9
$DIMTOLJ
 70
0
  9
$DIMTZIN
 70
8
  9
$DIMALTZ
 70
0
  9
$DIMALTTZ
 70
0
  9
$DIMUPT
 70
0
  9
$DIMDEC
 70
2
  9
$DIMTDEC
 70
2
  9
$DIMALTU
 70
2
  9
$DIMALTTD
 70
3
  9
$DIMTXSTY
  7
Standard
  9
$DIMAUNIT
 70
0
  9
$DIMADEC
 70
0
  9
$DIMALTRND
 40
0.0
  9
$DIMAZIN
 70
0
  9
$DIMDSEP
 70
44
  9
$DIMATFIT
 70
3
  9
$DIMFRAC
 70
0
  9
$DIMLDRBLK
  1

  9
$DIMLUNIT
 70
2
  9
$DIMLWD
 70
-2
  9
$DIMLWE
 70
-2
  9
$DIMTMOVE
 70
0
  9
$DIMFXL
 40
1.0
  9
$DIMFXLON
 70
0
  9
$DIMJOGANG
 40
0.785398163397
  9
$DIMTFILL
 70
0
  9
$DIMTFILLCLR
 70
0
  9
$DIMARCSYM
 70
0
  9
$DIMLTYPE
  6

  9
$DIMLTEX1
  6

  9
$DIMLTEX2
  6

  9
$DIMTXTDIRECTION
 70
0
  9
$LUNITS
 70
2
  9
$LUPREC
 70
4
  9
$SKETCHINC
 40
1.0
  9
$FILLETRAD
 40
10.0
  9
$AUNITS
 70
0
  9
$AUPREC
 70
2
  9
$MENU
  1
.
  9
$ELEVATION
 40
0.0
  9
$PELEVATION
 40
0.0
  9
$THICKNESS
 40
0.0
  9
$LIMCHECK
 70
0
  9
$CHAMFERA
 40
0.0
  9
$CHAMFERB
 40
0.0
  9
$CHAMFERC
 40
0.0
  9
$CHAMFERD
 40
0.0
  9
$SKPOLY
 70
0
  9
$TDCREATE
 40
2461323.8766087964
  9
$TDUCREATE
 40
2458532.153996898
  9
$TDUPDATE
 40
2461323.8766087964
  9
$TDUUPDATE
 40
2458532.1544311
  9
$TDINDWG
 40
0.0
  9
$TDUSRTIMER
 40
0.0
  9
$USRTIMER
 70
1
  9
$ANGBASE
 50
0.0
  9
$ANGDIR
 70
0
  9
$PDMODE
 70
0
  9
$PDSIZE
 40
0.0
  9
$PLINEWID
 40
0.0
  9
$SPLFRAME
 70
0
  9
$SPLINETYPE
 70
6
  9
$SPLINESEGS
 70
8
  9
$HANDSEED
  5
12F
  9
$SURFTAB1
 70
6
  9
$SURFTAB2
 70
6
  9
$SURFTYPE
 70
6
  9
$SURFU
 70
6
  9
$SURFV
 70
6
  9
$UCSBASE
  2

  9
$UCSNAME
  2

  9
$UCSORG
 10
0.0
 20
0.0
 30
0.0
  9
$UCSXDIR
 10
1.0
 20
0.0
 30
0.0
  9
$UCSYDIR
 10
0.0
 20
1.0
 30
0.0
  9
$UCSORTHOREF
  2

  9
$UCSORTHOVIEW
 70
0
  9
$UCSORGTOP
 10
0.0
 20
0.0
 30
0.0
  9
$UCSORGBOTTOM
 10
0.0
 20
0.0
 30
0.0
  9
$UCSORGLEFT
 10
0.0
 20
0.0
 30
0.0
  9
$UCSORGRIGHT
 10
0.0
 20
0.0
 30
0.0
  9
$UCSORGFRONT
 10
0.0
 20
0.0
 30
0.0
  9
$UCSORGBACK
 10
0.0
 20
0.0
 30
0.0
  9
$PUCSBASE
  2

  9
$PUCSNAME
  2

  9
$PUCSORG
 10
0.0
 20
0.0
 30
0.0
  9
$PUCSXDIR
 10
1.0
 20
0.0
 30
0.0
  9
$PUCSYDIR
 10
0.0
 20
1.0
 30
0.0
  9
$PUCSORTHOREF
  2

  9
$PUCSORTHOVIEW
 70
0
  9
$PUCSORGTOP
 10
0.0
 20
0.0
 30
0.0
  9
$PUCSORGBOTTOM
 10
0.0
 20
0.0
 30
0.0
  9
$PUCSORGLEFT
 10
0.0
 20
0.0
 30
0.0
  9
$PUCSORGRIGHT
 10
0.0
 20
0.0
 30
0.0
  9
$PUCSORGFRONT
 10
0.0
 20
0.0
 30
0.0
  9
$PUCSORGBACK
 10
0.0
 20
0.0
 30
0.0
  9
$USERI1
 70
0
  9
$USERI2
 70
0
  9
$USERI3
 70
0
  9
$USERI4
 70
0
  9
$USERI5
 70
0
  9
$USERR1
 40
0.0
  9
$USERR2
 40
0.0
  9
$USERR3
 40
0.0
  9
$USERR4
 40
0.0
  9
$USERR5
 40
0.0
  9
$WORLDVIEW
 70
1
  9
$SHADEDGE
 70
3
  9
$SHADEDIF
 70
70
  9
$TILEMODE
 70
1
  9
$MAXACTVP
 70
64
  9
$PINSBASE
 10
0.0
 20
0.0
 30
0.0
  9
$PLIMCHECK
 70
0
  9
$PEXTMIN
 10
1e+20
 20
1e+20
 30
1e+20
  9
$PEXTMAX
 10
-1e+20
 20
-1e+20
 30
-1e+20
  9
$PLIMMIN
 10
-0.0
 20
-0.0
  9
$PLIMMAX
 10
420.0
 20
297.0
  9
$UNITMODE
 70
0
  9
$VISRETAIN
 70
1
  9
$PLINEGEN
 70
0
  9
$PSLTSCALE
 70
0
  9
$TREEDEPTH
 70
3020
  9
$CMLSTYLE
  2
Standard
  9
$CMLJUST
 70
0
  9
$CMLSCALE
 40
20.0
  9
$PROXYGRAPHICS
 70
1
  9
$MEASUREMENT
 70
1
  9
$CELWEIGHT
370
-1
  9
$ENDCAPS
280
0
  9
$JOINSTYLE
280
0
  9
$LWDISPLAY
290
1
  9
$INSUNITS
 70
4
  9
$HYPERLINKBASE
  1

  9
$STYLESHEET
  1

  9
$XEDIT
290
1
  9
$CEPSNTYPE
380
0
  9
$PSTYLEMODE
290
1
  9
$FINGERPRINTGUID
  2
{66FD55E1-B6C2-440D-9A1E-12799FF81E46}
  9
$VERSIONGUID
  2
{52436D14-9F85-401E-8DE2-27B85CA35EFF}
  9
$EXTNAMES
290
1
  9
$PSVPSCALE
 40
0.0
  9
$OLESTARTUP
290
0
  9
$SORTENTS
280
127
  9
$INDEXCTL
280
0
  9
$HIDETEXT
280
1
  9
$XCLIPFRAME
280
1
  9
$HALOGAP
280
0
  9
$OBSCOLOR
 70
257
  9
$OBSLTYPE
280
0
  9
$INTERSECTIONDISPLAY
280
0
  9
$INTERSECTIONCOLOR
 70
257
  9
$DIMASSOC
280
2
  9
$PROJECTNAME
  1

  9
$CAMERADISPLAY
290
0
  9
$LENSLENGTH
 40
50.0
  9
$CAMERAHEIGHT
 40
0.0
  9
$STEPSPERSEC
 40
24.0
  9
$STEPSIZE
 40
100.0
  9
$3DDWFPREC
 40
2.0
  9
$PSOLWIDTH
 40
0.005
  9
$PSOLHEIGHT
 40
0.08
  9
$LOFTANG1
 40
1.570796326795
  9
$LOFTANG2
 40
1.570796326795
  9
$LOFTMAG1
 40
0.0
  9
$LOFTMAG2
 40
0.0
  9
$LOFTPARAM
 70
7
  9
$LOFTNORMALS
280
1
  9
$LATITUDE
 40
37.795
  9
$LONGITUDE
 40
-122.394
  9
$NORTHDIRECTION
 40
0.0
  9
$TIMEZONE
 70
-8000
  9
$LIGHTGLYPHDISPLAY
280
1
  9
$TILEMODELIGHTSYNCH
280
1
  9
$CMATERIAL
347
20
  9
$SOLIDHIST
280
0
  9
$SHOWHIST
280
1
  9
$DWFFRAME
280
2
  9
$DGNFRAME
280
2
  9
$REALWORLDSCALE
290
1
  9
$INTERFERECOLOR
 62
256
  9
$CSHADOW
280
0
  9
$SHADOWPLANELOCATION
 40
0.0
  0
ENDSEC
  0
SECTION
  2
CLASSES
  0
CLASS
  1
ACDBDICTIONARYWDFLT
  2
AcDbDictionaryWithDefault
  3
ObjectDBX Classes
 90
0
 91
0
280
0
281
0
  0
CLASS
  1
SUN
  2
AcDbSun
  3
SCENEOE
 90
1153
 91
0
280
0
281
0
  0
CLASS
  1
VISUALSTYLE
  2
AcDbVisualStyle
  3
ObjectDBX Classes
 90
4095
 91
0
280
0
281
0
  0
CLASS
  1
MATERIAL
  2
AcDbMaterial
  3
ObjectDBX Classes
 90
1153
 91
0
280
0
281
0
  0
CLASS
  1
SCALE
  2
AcDbScale
  3
ObjectDBX Classes
 90
1153
 91
0
280
0
281
0
  0
CLASS
  1
TABLESTYLE
  2
AcDbTableStyle
  3
ObjectDBX Classes
 90
4095
 91
0
280
0
281
0
  0
CLASS
  1
MLEADERSTYLE
  2
AcDbMLeaderStyle
  3
ACDB_MLEADERSTYLE_CLASS
 90
4095
 91
0
280
0
281
0
  0
CLASS
  1
DICTIONARYVAR
  2
AcDbDictionaryVar
  3
ObjectDBX Classes
 90
0
 91
0
280
0
281
0
  0
CLASS
  1
CELLSTYLEMAP
  2
AcDbCellStyleMap
  3
ObjectDBX Classes
 90
1152
 91
0
280
0
281
0
  0
CLASS
  1
MENTALRAYRENDERSETTINGS
  2
AcDbMentalRayRenderSettings
  3
SCENEOE
 90
1024
 91
0
280
0
281
0
  0
CLASS
  1
ACDBDETAILVIEWSTYLE
  2
AcDbDetailViewStyle
  3
ObjectDBX Classes
 90
1025
 91
0
280
0
281
0
  0
CLASS
  1
ACDBSECTIONVIEWSTYLE
  2
AcDbSectionViewStyle
  3
ObjectDBX Classes
 90
1025
 91
0
280
0
281
0
  0
CLASS
  1
RASTERVARIABLES
  2
AcDbRasterVariables
  3
ISM
 90
0
 91
0
280
0
281
0
  0
CLASS
  1
LAYOUT
  2
AcDbLayout
  3
ObjectDBX Classes
 90
0
 91
0
280
0
281
0
  0
CLASS
  1
ACDBPLACEHOLDER
  2
AcDbPlaceHolder
  3
ObjectDBX Classes
 90
0
 91
0
280
0
281
0
  0
ENDSEC
  0
SECTION
  2
TABLES
  0
TABLE
  2
VPORT
  5
8
330
0
100
AcDbSymbolTable
 70
1
  0
VPORT
  5
23
330
8
100
AcDbSymbolTableRecord
100
AcDbViewportTableRecord
  2
*Active
 70
0
 10
0.0
 20
0.0
 11
1.0
 21
1.0
 12
0.0
 22
0.0
 13
0.0
 23
0.0
 14
0.5
 24
0.5
 15
0.5
 25
0.5
 16
0.0
 26
0.0
 36
1.0
 17
0.0
 27
0.0
 37
0.0
 40
1000.0
 41
1.34
 42
50.0
 43
0.0
 44
0.0
 50
0.0
 51
0.0
 71
0
 72
1000
 73
1
 74
3
 75
0
 76
0
 77
0
 78
0
281
0
 65
0
146
0.0
  0
ENDTAB
  0
TABLE
  2
LTYPE
  5
2
330
0
100
AcDbSymbolTable
 70
6
  0
LTYPE
  5
24
330
2
100
AcDbSymbolTableRecord
100
AcDbLinetypeTableRecord
  2
ByBlock
 70
0
  3

 72
65
 73
0
 40
0.0
  0
LTYPE
  5
25
330
2
100
AcDbSymbolTableRecord
100
AcDbLinetypeTableRecord
  2
ByLayer
 70
0
  3

 72
65
 73
0
 40
0.0
  0
LTYPE
  5
26
330
2
100
AcDbSymbolTableRecord
100
AcDbLinetypeTableRecord
  2
Continuous
 70
0
  3

 72
65
 73
0
 40
0.0
  0
LTYPE
  5
2F
330
2
100
AcDbSymbolTableRecord
100
AcDbLinetypeTableRecord
  2
IRAM-E-TRAZOS
 70
0
  3
IRAM 4502 E - trazos __ __ __
 72
65
 73
2
 40
5.0
 49
4.0
 74
0
 49
-1.0
 74
0
  0
LTYPE
  5
30
330
2
100
AcDbSymbolTableRecord
100
AcDbLinetypeTableRecord
  2
IRAM-F-TRAZO-PUNTO
 70
0
  3
IRAM 4502 F - trazo largo y trazo corto ____ _ ____
 72
65
 73
4
 40
20.0
 49
15.0
 74
0
 49
-2.0
 74
0
 49
1.0
 74
0
 49
-2.0
 74
0
  0
LTYPE
  5
31
330
2
100
AcDbSymbolTableRecord
100
AcDbLinetypeTableRecord
  2
ISO02-TRAZOS
 70
0
  3
ISO 2553 / ISO 128 tipo 02 - línea de identificación de trazos
 72
65
 73
2
 40
4.5
 49
3.0
 74
0
 49
-1.5
 74
0
  0
ENDTAB
  0
TABLE
  2
LAYER
  5
1
330
0
100
AcDbSymbolTable
 70
15
  0
LAYER
  5
27
330
1
100
AcDbSymbolTableRecord
100
AcDbLayerTableRecord
  2
0
 70
0
 62
7
  6
Continuous
370
-3
390
13
347
21
  0
LAYER
  5
28
330
1
100
AcDbSymbolTableRecord
100
AcDbLayerTableRecord
  2
Defpoints
 70
0
 62
7
  6
Continuous
290
0
370
-3
390
13
347
21
  0
LAYER
  5
32
330
1
100
AcDbSymbolTableRecord
100
AcDbLayerTableRecord
  2
01-VISIBLE
 70
0
 62
7
  6
CONTINUOUS
370
70
390
13
347
21
1001
AcAecLayerStandard
1000

1000
A continua gruesa: contornos y aristas visibles
  0
LAYER
  5
34
330
1
100
AcDbSymbolTableRecord
100
AcDbLayerTableRecord
  2
02-OCULTA
 70
0
 62
4
  6
IRAM-E-TRAZOS
370
35
390
13
347
21
1001
AcAecLayerStandard
1000

1000
E de trazos media: contornos y aristas ocultos
  0
LAYER
  5
35
330
1
100
AcDbSymbolTableRecord
100
AcDbLayerTableRecord
  2
03-EJE
 70
0
 62
1
  6
IRAM-F-TRAZO-PUNTO
370
18
390
13
347
21
1001
AcAecLayerStandard
1000

1000
F trazo largo y corto fina: ejes, simetrías, trayectorias
  0
LAYER
  5
36
330
1
100
AcDbSymbolTableRecord
100
AcDbLayerTableRecord
  2
04-COTA
 70
0
 62
3
  6
CONTINUOUS
370
18
390
13
347
21
1001
AcAecLayerStandard
1000

1000
B continua fina: líneas de cota y auxiliares
  0
LAYER
  5
37
330
1
100
AcDbSymbolTableRecord
100
AcDbLayerTableRecord
  2
05-RAYADO
 70
0
 62
8
  6
CONTINUOUS
370
18
390
13
347
21
1001
AcAecLayerStandard
1000

1000
B continua fina: rayados IRAM 4509
  0
LAYER
  5
38
330
1
100
AcDbSymbolTableRecord
100
AcDbLayerTableRecord
  2
06-TEXTO
 70
0
 62
7
  6
CONTINUOUS
370
25
390
13
347
21
1001
AcAecLayerStandard
1000

1000
Escritura IRAM 4503 tipo B (trazo h/10)
  0
LAYER
  5
39
330
1
100
AcDbSymbolTableRecord
100
AcDbLayerTableRecord
  2
07-RECUADRO
 70
0
 62
7
  6
CONTINUOUS
370
70
390
13
347
21
1001
AcAecLayerStandard
1000

1000
Recuadro IRAM 4504
  0
LAYER
  5
3A
330
1
100
AcDbSymbolTableRecord
100
AcDbLayerTableRecord
  2
08-FINA
 70
0
 62
5
  6
CONTINUOUS
370
18
390
13
347
21
1001
AcAecLayerStandard
1000

1000
B continua fina: referencias, fondos de rosca, contornos de detalle
  0
LAYER
  5
3B
330
1
100
AcDbSymbolTableRecord
100
AcDbLayerTableRecord
  2
09-PLANO-CORTE
 70
0
 62
1
  6
IRAM-F-TRAZO-PUNTO
370
18
390
13
347
21
1001
AcAecLayerStandard
1000

1000
G trazo largo y corto fina con extremos gruesos: planos de corte
  0
LAYER
  5
3C
330
1
100
AcDbSymbolTableRecord
100
AcDbLayerTableRecord
  2
10-ROTULO
 70
0
 62
7
  6
CONTINUOUS
370
35
390
13
347
21
1001
AcAecLayerStandard
1000

1000
Rótulo y lista de materiales IRAM 4508
  0
LAYER
  5
3D
330
1
100
AcDbSymbolTableRecord
100
AcDbLayerTableRecord
  2
11-TEXTO-ROTULO
 70
0
 62
7
  6
CONTINUOUS
370
25
390
13
347
21
1001
AcAecLayerStandard
1000

1000
Escritura del rótulo
  0
LAYER
  5
3E
330
1
100
AcDbSymbolTableRecord
100
AcDbLayerTableRecord
  2
12-SOLDADURA
 70
0
 62
6
  6
CONTINUOUS
370
18
390
13
347
21
1001
AcAecLayerStandard
1000

1000
Símbolos de soldadura
  0
LAYER
  5
3F
330
1
100
AcDbSymbolTableRecord
100
AcDbLayerTableRecord
  2
13-GRAFICA
 70
0
 62
30
  6
CONTINUOUS
370
18
390
13
347
21
1001
AcAecLayerStandard
1000

1000
Gráfica impresa representada a escala (etiqueta, sellos, señales): textos del objeto, no anotación del plano
  0
ENDTAB
  0
TABLE
  2
STYLE
  5
5
330
0
100
AcDbSymbolTable
 70
2
  0
STYLE
  5
29
330
5
100
AcDbSymbolTableRecord
100
AcDbTextStyleTableRecord
  2
Standard
 70
0
 40
0.0
 41
1.0
 50
0.0
 71
0
 42
2.5
  3
txt
  4

  0
STYLE
  5
40
330
5
100
AcDbSymbolTableRecord
100
AcDbTextStyleTableRecord
  2
ISO3098
 70
0
 40
0.0
 41
1.0
 50
0.0
 71
0
 42
2.5
  3
isocpeur.ttf
  4

  0
ENDTAB
  0
TABLE
  2
VIEW
  5
7
330
0
100
AcDbSymbolTable
 70
0
  0
ENDTAB
  0
TABLE
  2
UCS
  5
6
330
0
100
AcDbSymbolTable
 70
0
  0
ENDTAB
  0
TABLE
  2
APPID
  5
3
330
0
100
AcDbSymbolTable
 70
4
  0
APPID
  5
2A
330
3
100
AcDbSymbolTableRecord
100
AcDbRegAppTableRecord
  2
ACAD
 70
0
  0
APPID
  5
33
330
3
100
AcDbSymbolTableRecord
100
AcDbRegAppTableRecord
  2
AcAecLayerStandard
 70
0
  0
APPID
  5
12C
330
3
100
AcDbSymbolTableRecord
100
AcDbRegAppTableRecord
  2
HATCHBACKGROUNDCOLOR
 70
0
  0
APPID
  5
12D
330
3
100
AcDbSymbolTableRecord
100
AcDbRegAppTableRecord
  2
EZDXF
 70
0
  0
ENDTAB
  0
TABLE
  2
DIMSTYLE
  5
4
330
0
100
AcDbSymbolTable
 70
2
100
AcDbDimStyleTable
  0
DIMSTYLE
105
2B
330
4
100
AcDbSymbolTableRecord
100
AcDbDimStyleTableRecord
  2
Standard
 70
0
 40
1.0
 41
2.5
 42
0.625
 43
3.75
 44
1.25
 45
0.0
 46
0.0
 47
0.0
 48
0.0
 49
2.5
140
2.5
141
2.5
142
0.0
143
0.03937007874
144
1.0
145
0.0
146
1.0
147
0.625
148
0.0
 69
0
 70
0
 71
0
 72
0
 73
0
 74
0
 75
0
 76
0
 77
1
 78
8
 79
3
170
0
171
3
172
1
173
0
174
0
175
0
176
0
177
0
178
0
179
2
271
2
272
2
273
2
274
3
275
0
276
0
277
2
278
44
279
0
280
0
281
0
282
0
283
0
284
8
285
0
286
0
288
0
289
3
290
0
371
-2
372
-2
  0
DIMSTYLE
105
45
330
4
100
AcDbSymbolTableRecord
100
AcDbDimStyleTableRecord
  2
FLAMA-IRAM
 70
0
 40
1.0
 41
3.5
 42
1.5
 43
3.75
 44
2.0
 45
0.0
 46
0.0
 47
0.0
 48
0.0
 49
2.5
140
3.5
141
2.5
142
0.0
143
0.03937007874
144
1.0
145
0.0
146
1.0
147
1.0
148
0.0
 69
0
 70
0
 71
0
 72
0
 73
0
 74
0
 75
0
 76
0
 77
1
 78
8
 79
3
170
0
171
3
172
1
173
0
174
0
175
0
176
7
177
7
178
7
179
2
271
1
272
2
273
2
274
3
275
0
276
0
277
2
278
44
279
0
280
0
281
0
282
0
283
0
284
8
285
0
286
0
288
0
289
3
290
0
340
40
342
41
343
41
344
41
371
18
372
18
  0
ENDTAB
  0
TABLE
  2
BLOCK_RECORD
  5
9
330
0
100
AcDbSymbolTable
 70
5
  0
BLOCK_RECORD
  5
17
330
9
100
AcDbSymbolTableRecord
100
AcDbBlockTableRecord
  2
*Model_Space
340
1A
 70
0
280
1
281
0
  0
BLOCK_RECORD
  5
41
330
9
100
AcDbSymbolTableRecord
100
AcDbBlockTableRecord
  2
IRAM_FLECHA
340
0
 70
0
280
1
281
0
  0
BLOCK_RECORD
  5
C6
330
9
100
AcDbSymbolTableRecord
100
AcDbBlockTableRecord
  2
*D1
340
0
 70
0
280
1
281
0
  0
BLOCK_RECORD
  5
DC
330
9
100
AcDbSymbolTableRecord
100
AcDbBlockTableRecord
  2
*D2
340
0
 70
0
280
1
281
0
  0
BLOCK_RECORD
  5
126
330
9
100
AcDbSymbolTableRecord
100
AcDbBlockTableRecord
  2
*Paper_Space
340
129
 70
0
280
1
281
0
  0
ENDTAB
  0
ENDSEC
  0
SECTION
  2
BLOCKS
  0
BLOCK
  5
18
330
17
100
AcDbEntity
  8
0
100
AcDbBlockBegin
  2
*Model_Space
 70
0
 10
0.0
 20
0.0
 30
0.0
  3
*Model_Space
  1

  0
ENDBLK
  5
19
330
17
100
AcDbEntity
  8
0
100
AcDbBlockEnd
  0
BLOCK
  5
42
330
41
100
AcDbEntity
  8
0
100
AcDbBlockBegin
  2
IRAM_FLECHA
 70
0
 10
0.0
 20
0.0
 30
0.0
  3
IRAM_FLECHA
  1

  0
SOLID
  5
44
330
41
100
AcDbEntity
  8
0
100
AcDbTrace
 10
0.0
 20
0.0
 30
0.0
 11
-1.0
 21
0.125
 31
0.0
 12
-1.0
 22
-0.125
 32
0.0
 13
-1.0
 23
-0.125
 33
0.0
  0
ENDBLK
  5
43
330
41
100
AcDbEntity
  8
0
100
AcDbBlockEnd
  0
BLOCK
  5
C7
330
C6
100
AcDbEntity
  8
0
100
AcDbBlockBegin
  2
*D1
 70
1
 10
0.0
 20
0.0
 30
0.0
  3
*D1
  1

  0
LINE
  5
C9
330
C6
100
AcDbEntity
  8
0
 62
7
370
18
100
AcDbLine
 10
74.65
 20
120.0
 30
0.0
 11
83.15
 21
120.0
 31
0.0
  0
LINE
  5
CA
330
C6
100
AcDbEntity
  8
0
 62
7
370
18
100
AcDbLine
 10
74.65
 20
128.0
 30
0.0
 11
83.15
 21
128.0
 31
0.0
  0
INSERT
  5
CB
330
C6
100
AcDbEntity
  8
04-COTA
 62
7
100
AcDbBlockReference
  2
IRAM_FLECHA
 10
81.15
 20
120.0
 30
0.0
 41
3.5
 42
3.5
 50
270.0
  0
INSERT
  5
CD
330
C6
100
AcDbEntity
  8
04-COTA
 62
7
100
AcDbBlockReference
  2
IRAM_FLECHA
 10
81.15
 20
128.0
 30
0.0
 41
3.5
 42
3.5
 50
90.0
  0
LINE
  5
CF
330
C6
100
AcDbEntity
  8
0
 62
7
370
18
100
AcDbLine
 10
81.15
 20
123.5
 30
0.0
 11
81.15
 21
124.5
 31
0.0
  0
MTEXT
  5
D0
330
C6
100
AcDbEntity
  8
04-COTA
 62
7
100
AcDbMText
 10
76.4
 20
124.0
 30
0.0
 40
3.5
 71
5
  1
≤ 40
  7
ISO3098
 50
90.0
  0
POINT
  5
D1
330
C6
100
AcDbEntity
  8
Defpoints
100
AcDbPoint
 10
81.15
 20
120.0
 30
0.0
  0
POINT
  5
D2
330
C6
100
AcDbEntity
  8
Defpoints
100
AcDbPoint
 10
73.15
 20
120.0
 30
0.0
  0
POINT
  5
D3
330
C6
100
AcDbEntity
  8
Defpoints
100
AcDbPoint
 10
73.15
 20
128.0
 30
0.0
  0
ENDBLK
  5
C8
330
C6
100
AcDbEntity
  8
0
100
AcDbBlockEnd
  0
BLOCK
  5
DD
330
DC
100
AcDbEntity
  8
0
100
AcDbBlockBegin
  2
*D2
 70
1
 10
0.0
 20
0.0
 30
0.0
  3
*D2
  1

  0
LINE
  5
DF
330
DC
100
AcDbEntity
  8
0
 62
7
370
18
100
AcDbLine
 10
174.65
 20
120.0
 30
0.0
 11
183.15
 21
120.0
 31
0.0
  0
LINE
  5
E0
330
DC
100
AcDbEntity
  8
0
 62
7
370
18
100
AcDbLine
 10
174.65
 20
128.0
 30
0.0
 11
183.15
 21
128.0
 31
0.0
  0
INSERT
  5
E1
330
DC
100
AcDbEntity
  8
04-COTA
 62
7
100
AcDbBlockReference
  2
IRAM_FLECHA
 10
181.15
 20
120.0
 30
0.0
 41
3.5
 42
3.5
 50
270.0
  0
INSERT
  5
E3
330
DC
100
AcDbEntity
  8
04-COTA
 62
7
100
AcDbBlockReference
  2
IRAM_FLECHA
 10
181.15
 20
128.0
 30
0.0
 41
3.5
 42
3.5
 50
90.0
  0
LINE
  5
E5
330
DC
100
AcDbEntity
  8
0
 62
7
370
18
100
AcDbLine
 10
181.15
 20
123.5
 30
0.0
 11
181.15
 21
124.5
 31
0.0
  0
MTEXT
  5
E6
330
DC
100
AcDbEntity
  8
04-COTA
 62
7
100
AcDbMText
 10
176.4
 20
124.0
 30
0.0
 40
3.5
 71
5
  1
≤ 40
  7
ISO3098
 50
90.0
  0
POINT
  5
E7
330
DC
100
AcDbEntity
  8
Defpoints
100
AcDbPoint
 10
181.15
 20
120.0
 30
0.0
  0
POINT
  5
E8
330
DC
100
AcDbEntity
  8
Defpoints
100
AcDbPoint
 10
173.15
 20
120.0
 30
0.0
  0
POINT
  5
E9
330
DC
100
AcDbEntity
  8
Defpoints
100
AcDbPoint
 10
173.15
 20
128.0
 30
0.0
  0
ENDBLK
  5
DE
330
DC
100
AcDbEntity
  8
0
100
AcDbBlockEnd
  0
BLOCK
  5
127
330
126
100
AcDbEntity
  8
0
100
AcDbBlockBegin
  2
*Paper_Space
 70
0
 10
0.0
 20
0.0
 30
0.0
  3
*Paper_Space
  1

  0
ENDBLK
  5
128
330
126
100
AcDbEntity
  8
0
100
AcDbBlockEnd
  0
ENDSEC
  0
SECTION
  2
ENTITIES
  0
LWPOLYLINE
  5
46
330
17
100
AcDbEntity
  8
08-FINA
100
AcDbPolyline
 90
4
 70
1
 10
0.0
 20
0.0
 10
420.0
 20
0.0
 10
420.0
 20
297.0
 10
0.0
 20
297.0
  0
LWPOLYLINE
  5
47
330
17
100
AcDbEntity
  8
07-RECUADRO
100
AcDbPolyline
 90
4
 70
1
 10
25.0
 20
10.0
 10
410.0
 20
10.0
 10
410.0
 20
287.0
 10
25.0
 20
287.0
  0
LINE
  5
48
330
17
100
AcDbEntity
  8
07-RECUADRO
100
AcDbLine
 10
210.0
 20
0.0
 30
0.0
 11
210.0
 21
15.0
 31
0.0
  0
LINE
  5
49
330
17
100
AcDbEntity
  8
07-RECUADRO
100
AcDbLine
 10
210.0
 20
297.0
 30
0.0
 11
210.0
 21
282.0
 31
0.0
  0
LINE
  5
4A
330
17
100
AcDbEntity
  8
07-RECUADRO
100
AcDbLine
 10
0.0
 20
148.5
 30
0.0
 11
30.0
 21
148.5
 31
0.0
  0
LINE
  5
4B
330
17
100
AcDbEntity
  8
07-RECUADRO
100
AcDbLine
 10
420.0
 20
148.5
 30
0.0
 11
405.0
 21
148.5
 31
0.0
  0
LINE
  5
4C
330
17
100
AcDbEntity
  8
08-FINA
100
AcDbLine
 10
60.0
 20
10.0
 30
0.0
 11
60.0
 21
5.0
 31
0.0
  0
LINE
  5
4D
330
17
100
AcDbEntity
  8
08-FINA
100
AcDbLine
 10
60.0
 20
287.0
 30
0.0
 11
60.0
 21
292.0
 31
0.0
  0
LINE
  5
4E
330
17
100
AcDbEntity
  8
08-FINA
100
AcDbLine
 10
110.0
 20
10.0
 30
0.0
 11
110.0
 21
5.0
 31
0.0
  0
LINE
  5
4F
330
17
100
AcDbEntity
  8
08-FINA
100
AcDbLine
 10
110.0
 20
287.0
 30
0.0
 11
110.0
 21
292.0
 31
0.0
  0
LINE
  5
50
330
17
100
AcDbEntity
  8
08-FINA
100
AcDbLine
 10
160.0
 20
10.0
 30
0.0
 11
160.0
 21
5.0
 31
0.0
  0
LINE
  5
51
330
17
100
AcDbEntity
  8
08-FINA
100
AcDbLine
 10
160.0
 20
287.0
 30
0.0
 11
160.0
 21
292.0
 31
0.0
  0
LINE
  5
52
330
17
100
AcDbEntity
  8
08-FINA
100
AcDbLine
 10
260.0
 20
10.0
 30
0.0
 11
260.0
 21
5.0
 31
0.0
  0
LINE
  5
53
330
17
100
AcDbEntity
  8
08-FINA
100
AcDbLine
 10
260.0
 20
287.0
 30
0.0
 11
260.0
 21
292.0
 31
0.0
  0
LINE
  5
54
330
17
100
AcDbEntity
  8
08-FINA
100
AcDbLine
 10
310.0
 20
10.0
 30
0.0
 11
310.0
 21
5.0
 31
0.0
  0
LINE
  5
55
330
17
100
AcDbEntity
  8
08-FINA
100
AcDbLine
 10
310.0
 20
287.0
 30
0.0
 11
310.0
 21
292.0
 31
0.0
  0
LINE
  5
56
330
17
100
AcDbEntity
  8
08-FINA
100
AcDbLine
 10
360.0
 20
10.0
 30
0.0
 11
360.0
 21
5.0
 31
0.0
  0
LINE
  5
57
330
17
100
AcDbEntity
  8
08-FINA
100
AcDbLine
 10
360.0
 20
287.0
 30
0.0
 11
360.0
 21
292.0
 31
0.0
  0
LINE
  5
58
330
17
100
AcDbEntity
  8
08-FINA
100
AcDbLine
 10
25.0
 20
48.5
 30
0.0
 11
20.0
 21
48.5
 31
0.0
  0
LINE
  5
59
330
17
100
AcDbEntity
  8
08-FINA
100
AcDbLine
 10
410.0
 20
48.5
 30
0.0
 11
415.0
 21
48.5
 31
0.0
  0
LINE
  5
5A
330
17
100
AcDbEntity
  8
08-FINA
100
AcDbLine
 10
25.0
 20
98.5
 30
0.0
 11
20.0
 21
98.5
 31
0.0
  0
LINE
  5
5B
330
17
100
AcDbEntity
  8
08-FINA
100
AcDbLine
 10
410.0
 20
98.5
 30
0.0
 11
415.0
 21
98.5
 31
0.0
  0
LINE
  5
5C
330
17
100
AcDbEntity
  8
08-FINA
100
AcDbLine
 10
25.0
 20
198.5
 30
0.0
 11
20.0
 21
198.5
 31
0.0
  0
LINE
  5
5D
330
17
100
AcDbEntity
  8
08-FINA
100
AcDbLine
 10
410.0
 20
198.5
 30
0.0
 11
415.0
 21
198.5
 31
0.0
  0
LINE
  5
5E
330
17
100
AcDbEntity
  8
08-FINA
100
AcDbLine
 10
25.0
 20
248.5
 30
0.0
 11
20.0
 21
248.5
 31
0.0
  0
LINE
  5
5F
330
17
100
AcDbEntity
  8
08-FINA
100
AcDbLine
 10
410.0
 20
248.5
 30
0.0
 11
415.0
 21
248.5
 31
0.0
  0
TEXT
  5
60
330
17
100
AcDbEntity
  8
06-TEXTO
100
AcDbText
 10
42.5
 20
5.0
 30
0.0
 40
3.5
  1
1
  7
ISO3098
 72
1
 11
42.5
 21
5.0
 31
0.0
100
AcDbText
 73
2
  0
TEXT
  5
61
330
17
100
AcDbEntity
  8
06-TEXTO
100
AcDbText
 10
42.5
 20
292.0
 30
0.0
 40
3.5
  1
1
  7
ISO3098
 72
1
 11
42.5
 21
292.0
 31
0.0
100
AcDbText
 73
2
  0
TEXT
  5
62
330
17
100
AcDbEntity
  8
06-TEXTO
100
AcDbText
 10
85.0
 20
5.0
 30
0.0
 40
3.5
  1
2
  7
ISO3098
 72
1
 11
85.0
 21
5.0
 31
0.0
100
AcDbText
 73
2
  0
TEXT
  5
63
330
17
100
AcDbEntity
  8
06-TEXTO
100
AcDbText
 10
85.0
 20
292.0
 30
0.0
 40
3.5
  1
2
  7
ISO3098
 72
1
 11
85.0
 21
292.0
 31
0.0
100
AcDbText
 73
2
  0
TEXT
  5
64
330
17
100
AcDbEntity
  8
06-TEXTO
100
AcDbText
 10
135.0
 20
5.0
 30
0.0
 40
3.5
  1
3
  7
ISO3098
 72
1
 11
135.0
 21
5.0
 31
0.0
100
AcDbText
 73
2
  0
TEXT
  5
65
330
17
100
AcDbEntity
  8
06-TEXTO
100
AcDbText
 10
135.0
 20
292.0
 30
0.0
 40
3.5
  1
3
  7
ISO3098
 72
1
 11
135.0
 21
292.0
 31
0.0
100
AcDbText
 73
2
  0
TEXT
  5
66
330
17
100
AcDbEntity
  8
06-TEXTO
100
AcDbText
 10
185.0
 20
5.0
 30
0.0
 40
3.5
  1
4
  7
ISO3098
 72
1
 11
185.0
 21
5.0
 31
0.0
100
AcDbText
 73
2
  0
TEXT
  5
67
330
17
100
AcDbEntity
  8
06-TEXTO
100
AcDbText
 10
185.0
 20
292.0
 30
0.0
 40
3.5
  1
4
  7
ISO3098
 72
1
 11
185.0
 21
292.0
 31
0.0
100
AcDbText
 73
2
  0
TEXT
  5
68
330
17
100
AcDbEntity
  8
06-TEXTO
100
AcDbText
 10
235.0
 20
5.0
 30
0.0
 40
3.5
  1
5
  7
ISO3098
 72
1
 11
235.0
 21
5.0
 31
0.0
100
AcDbText
 73
2
  0
TEXT
  5
69
330
17
100
AcDbEntity
  8
06-TEXTO
100
AcDbText
 10
235.0
 20
292.0
 30
0.0
 40
3.5
  1
5
  7
ISO3098
 72
1
 11
235.0
 21
292.0
 31
0.0
100
AcDbText
 73
2
  0
TEXT
  5
6A
330
17
100
AcDbEntity
  8
06-TEXTO
100
AcDbText
 10
285.0
 20
5.0
 30
0.0
 40
3.5
  1
6
  7
ISO3098
 72
1
 11
285.0
 21
5.0
 31
0.0
100
AcDbText
 73
2
  0
TEXT
  5
6B
330
17
100
AcDbEntity
  8
06-TEXTO
100
AcDbText
 10
285.0
 20
292.0
 30
0.0
 40
3.5
  1
6
  7
ISO3098
 72
1
 11
285.0
 21
292.0
 31
0.0
100
AcDbText
 73
2
  0
TEXT
  5
6C
330
17
100
AcDbEntity
  8
06-TEXTO
100
AcDbText
 10
335.0
 20
5.0
 30
0.0
 40
3.5
  1
7
  7
ISO3098
 72
1
 11
335.0
 21
5.0
 31
0.0
100
AcDbText
 73
2
  0
TEXT
  5
6D
330
17
100
AcDbEntity
  8
06-TEXTO
100
AcDbText
 10
335.0
 20
292.0
 30
0.0
 40
3.5
  1
7
  7
ISO3098
 72
1
 11
335.0
 21
292.0
 31
0.0
100
AcDbText
 73
2
  0
TEXT
  5
6E
330
17
100
AcDbEntity
  8
06-TEXTO
100
AcDbText
 10
385.0
 20
5.0
 30
0.0
 40
3.5
  1
8
  7
ISO3098
 72
1
 11
385.0
 21
5.0
 31
0.0
100
AcDbText
 73
2
  0
TEXT
  5
6F
330
17
100
AcDbEntity
  8
06-TEXTO
100
AcDbText
 10
385.0
 20
292.0
 30
0.0
 40
3.5
  1
8
  7
ISO3098
 72
1
 11
385.0
 21
292.0
 31
0.0
100
AcDbText
 73
2
  0
TEXT
  5
70
330
17
100
AcDbEntity
  8
06-TEXTO
100
AcDbText
 10
15.0
 20
29.25
 30
0.0
 40
3.5
  1
F
  7
ISO3098
 72
1
 11
15.0
 21
29.25
 31
0.0
100
AcDbText
 73
2
  0
TEXT
  5
71
330
17
100
AcDbEntity
  8
06-TEXTO
100
AcDbText
 10
415.0
 20
29.25
 30
0.0
 40
3.5
  1
F
  7
ISO3098
 72
1
 11
415.0
 21
29.25
 31
0.0
100
AcDbText
 73
2
  0
TEXT
  5
72
330
17
100
AcDbEntity
  8
06-TEXTO
100
AcDbText
 10
15.0
 20
73.5
 30
0.0
 40
3.5
  1
E
  7
ISO3098
 72
1
 11
15.0
 21
73.5
 31
0.0
100
AcDbText
 73
2
  0
TEXT
  5
73
330
17
100
AcDbEntity
  8
06-TEXTO
100
AcDbText
 10
415.0
 20
73.5
 30
0.0
 40
3.5
  1
E
  7
ISO3098
 72
1
 11
415.0
 21
73.5
 31
0.0
100
AcDbText
 73
2
  0
TEXT
  5
74
330
17
100
AcDbEntity
  8
06-TEXTO
100
AcDbText
 10
15.0
 20
123.5
 30
0.0
 40
3.5
  1
D
  7
ISO3098
 72
1
 11
15.0
 21
123.5
 31
0.0
100
AcDbText
 73
2
  0
TEXT
  5
75
330
17
100
AcDbEntity
  8
06-TEXTO
100
AcDbText
 10
415.0
 20
123.5
 30
0.0
 40
3.5
  1
D
  7
ISO3098
 72
1
 11
415.0
 21
123.5
 31
0.0
100
AcDbText
 73
2
  0
TEXT
  5
76
330
17
100
AcDbEntity
  8
06-TEXTO
100
AcDbText
 10
15.0
 20
173.5
 30
0.0
 40
3.5
  1
C
  7
ISO3098
 72
1
 11
15.0
 21
173.5
 31
0.0
100
AcDbText
 73
2
  0
TEXT
  5
77
330
17
100
AcDbEntity
  8
06-TEXTO
100
AcDbText
 10
415.0
 20
173.5
 30
0.0
 40
3.5
  1
C
  7
ISO3098
 72
1
 11
415.0
 21
173.5
 31
0.0
100
AcDbText
 73
2
  0
TEXT
  5
78
330
17
100
AcDbEntity
  8
06-TEXTO
100
AcDbText
 10
15.0
 20
223.5
 30
0.0
 40
3.5
  1
B
  7
ISO3098
 72
1
 11
15.0
 21
223.5
 31
0.0
100
AcDbText
 73
2
  0
TEXT
  5
79
330
17
100
AcDbEntity
  8
06-TEXTO
100
AcDbText
 10
415.0
 20
223.5
 30
0.0
 40
3.5
  1
B
  7
ISO3098
 72
1
 11
415.0
 21
223.5
 31
0.0
100
AcDbText
 73
2
  0
TEXT
  5
7A
330
17
100
AcDbEntity
  8
06-TEXTO
100
AcDbText
 10
15.0
 20
267.75
 30
0.0
 40
3.5
  1
A
  7
ISO3098
 72
1
 11
15.0
 21
267.75
 31
0.0
100
AcDbText
 73
2
  0
TEXT
  5
7B
330
17
100
AcDbEntity
  8
06-TEXTO
100
AcDbText
 10
415.0
 20
267.75
 30
0.0
 40
3.5
  1
A
  7
ISO3098
 72
1
 11
415.0
 21
267.75
 31
0.0
100
AcDbText
 73
2
  0
LWPOLYLINE
  5
7C
330
17
100
AcDbEntity
  8
10-ROTULO
100
AcDbPolyline
 90
4
 70
1
 10
235.0
 20
56.0
 10
249.0
 20
56.0
 10
249.0
 20
61.0
 10
235.0
 20
61.0
  0
LWPOLYLINE
  5
7D
330
17
100
AcDbEntity
  8
10-ROTULO
100
AcDbPolyline
 90
4
 70
1
 10
249.0
 20
56.0
 10
265.0
 20
56.0
 10
265.0
 20
61.0
 10
249.0
 20
61.0
  0
TEXT
  5
7E
330
17
100
AcDbEntity
  8
11-TEXTO-ROTULO
100
AcDbText
 10
257.0
 20
58.5
 30
0.0
 40
2.5
  1
Fecha
  7
ISO3098
 72
1
 11
257.0
 21
58.5
 31
0.0
100
AcDbText
 73
2
  0
LWPOLYLINE
  5
7F
330
17
100
AcDbEntity
  8
10-ROTULO
100
AcDbPolyline
 90
4
 70
1
 10
265.0
 20
56.0
 10
290.0
 20
56.0
 10
290.0
 20
61.0
 10
265.0
 20
61.0
  0
TEXT
  5
80
330
17
100
AcDbEntity
  8
11-TEXTO-ROTULO
100
AcDbText
 10
277.5
 20
58.5
 30
0.0
 40
2.5
  1
Nombre
  7
ISO3098
 72
1
 11
277.5
 21
58.5
 31
0.0
100
AcDbText
 73
2
  0
LWPOLYLINE
  5
81
330
17
100
AcDbEntity
  8
10-ROTULO
100
AcDbPolyline
 90
4
 70
1
 10
235.0
 20
50.0
 10
249.0
 20
50.0
 10
249.0
 20
56.0
 10
235.0
 20
56.0
  0
TEXT
  5
82
330
17
100
AcDbEntity
  8
11-TEXTO-ROTULO
100
AcDbText
 10
236.5
 20
53.0
 30
0.0
 40
2.5
  1
Dibujó
  7
ISO3098
 11
236.5
 21
53.0
 31
0.0
100
AcDbText
 73
2
  0
LWPOLYLINE
  5
83
330
17
100
AcDbEntity
  8
10-ROTULO
100
AcDbPolyline
 90
4
 70
1
 10
249.0
 20
50.0
 10
265.0
 20
50.0
 10
265.0
 20
56.0
 10
249.0
 20
56.0
  0
TEXT
  5
84
330
17
100
AcDbEntity
  8
11-TEXTO-ROTULO
100
AcDbText
 10
257.0
 20
53.0
 30
0.0
 40
2.5
  1
28/09/26
  7
ISO3098
 72
1
 11
257.0
 21
53.0
 31
0.0
100
AcDbText
 73
2
  0
LWPOLYLINE
  5
85
330
17
100
AcDbEntity
  8
10-ROTULO
100
AcDbPolyline
 90
4
 70
1
 10
265.0
 20
50.0
 10
290.0
 20
50.0
 10
290.0
 20
56.0
 10
265.0
 20
56.0
  0
TEXT
  5
86
330
17
100
AcDbEntity
  8
11-TEXTO-ROTULO
100
AcDbText
 10
277.5
 20
53.0
 30
0.0
 40
2.5
  1
T. Sinay
  7
ISO3098
 72
1
 11
277.5
 21
53.0
 31
0.0
100
AcDbText
 73
2
  0
LWPOLYLINE
  5
87
330
17
100
AcDbEntity
  8
10-ROTULO
100
AcDbPolyline
 90
4
 70
1
 10
235.0
 20
44.0
 10
249.0
 20
44.0
 10
249.0
 20
50.0
 10
235.0
 20
50.0
  0
TEXT
  5
88
330
17
100
AcDbEntity
  8
11-TEXTO-ROTULO
100
AcDbText
 10
236.5
 20
47.0
 30
0.0
 40
2.5
  1
Revisó
  7
ISO3098
 11
236.5
 21
47.0
 31
0.0
100
AcDbText
 73
2
  0
LWPOLYLINE
  5
89
330
17
100
AcDbEntity
  8
10-ROTULO
100
AcDbPolyline
 90
4
 70
1
 10
249.0
 20
44.0
 10
265.0
 20
44.0
 10
265.0
 20
50.0
 10
249.0
 20
50.0
  0
LWPOLYLINE
  5
8A
330
17
100
AcDbEntity
  8
10-ROTULO
100
AcDbPolyline
 90
4
 70
1
 10
265.0
 20
44.0
 10
290.0
 20
44.0
 10
290.0
 20
50.0
 10
265.0
 20
50.0
  0
LWPOLYLINE
  5
8B
330
17
100
AcDbEntity
  8
10-ROTULO
100
AcDbPolyline
 90
4
 70
1
 10
235.0
 20
38.0
 10
249.0
 20
38.0
 10
249.0
 20
44.0
 10
235.0
 20
44.0
  0
TEXT
  5
8C
330
17
100
AcDbEntity
  8
11-TEXTO-ROTULO
100
AcDbText
 10
236.5
 20
41.0
 30
0.0
 40
2.5
  1
Aprobó
  7
ISO3098
 11
236.5
 21
41.0
 31
0.0
100
AcDbText
 73
2
  0
LWPOLYLINE
  5
8D
330
17
100
AcDbEntity
  8
10-ROTULO
100
AcDbPolyline
 90
4
 70
1
 10
249.0
 20
38.0
 10
265.0
 20
38.0
 10
265.0
 20
44.0
 10
249.0
 20
44.0
  0
LWPOLYLINE
  5
8E
330
17
100
AcDbEntity
  8
10-ROTULO
100
AcDbPolyline
 90
4
 70
1
 10
265.0
 20
38.0
 10
290.0
 20
38.0
 10
290.0
 20
44.0
 10
265.0
 20
44.0
  0
LWPOLYLINE
  5
8F
330
17
100
AcDbEntity
  8
10-ROTULO
100
AcDbPolyline
 90
4
 70
1
 10
235.0
 20
24.0
 10
255.0
 20
24.0
 10
255.0
 20
38.0
 10
235.0
 20
38.0
  0
TEXT
  5
90
330
17
100
AcDbEntity
  8
11-TEXTO-ROTULO
100
AcDbText
 10
236.0
 20
37.0
 30
0.0
 40
1.8
  1
Escala
  7
ISO3098
 11
236.0
 21
37.0
 31
0.0
100
AcDbText
 73
3
  0
TEXT
  5
91
330
17
100
AcDbEntity
  8
11-TEXTO-ROTULO
100
AcDbText
 10
245.0
 20
29.6
 30
0.0
 40
5.0
  1
1:5
  7
ISO3098
 72
1
 11
245.0
 21
29.6
 31
0.0
100
AcDbText
 73
2
  0
LWPOLYLINE
  5
92
330
17
100
AcDbEntity
  8
10-ROTULO
100
AcDbPolyline
 90
4
 70
1
 10
255.0
 20
24.0
 10
290.0
 20
24.0
 10
290.0
 20
38.0
 10
255.0
 20
38.0
  0
TEXT
  5
93
330
17
100
AcDbEntity
  8
11-TEXTO-ROTULO
100
AcDbText
 10
256.0
 20
37.0
 30
0.0
 40
1.8
  1
Método de proyección
  7
ISO3098
 11
256.0
 21
37.0
 31
0.0
100
AcDbText
 73
3
  0
CIRCLE
  5
94
330
17
100
AcDbEntity
  8
01-VISIBLE
100
AcDbCircle
 10
265.0
 20
29.5
 30
0.0
 40
2.5
  0
CIRCLE
  5
95
330
17
100
AcDbEntity
  8
01-VISIBLE
100
AcDbCircle
 10
265.0
 20
29.5
 30
0.0
 40
1.25
  0
LWPOLYLINE
  5
96
330
17
100
AcDbEntity
  8
01-VISIBLE
100
AcDbPolyline
 90
4
 70
1
 10
270.0
 20
27.0
 10
275.0
 20
28.25
 10
275.0
 20
30.75
 10
270.0
 20
32.0
  0
LINE
  5
97
330
17
100
AcDbEntity
  8
03-EJE
100
AcDbLine
 10
261.0
 20
29.5
 30
0.0
 11
276.5
 21
29.5
 31
0.0
  0
LINE
  5
98
330
17
100
AcDbEntity
  8
03-EJE
100
AcDbLine
 10
265.0
 20
25.5
 30
0.0
 11
265.0
 21
33.5
 31
0.0
  0
TEXT
  5
99
330
17
100
AcDbEntity
  8
11-TEXTO-ROTULO
100
AcDbText
 10
286.5
 20
29.5
 30
0.0
 40
2.5
  1
ISO E
  7
ISO3098
 72
2
 11
286.5
 21
29.5
 31
0.0
100
AcDbText
 73
2
  0
LWPOLYLINE
  5
9A
330
17
100
AcDbEntity
  8
10-ROTULO
100
AcDbPolyline
 90
4
 70
1
 10
235.0
 20
10.0
 10
268.0
 20
10.0
 10
268.0
 20
24.0
 10
235.0
 20
24.0
  0
TEXT
  5
9B
330
17
100
AcDbEntity
  8
11-TEXTO-ROTULO
100
AcDbText
 10
236.0
 20
23.0
 30
0.0
 40
1.8
  1
Tolerancias generales
  7
ISO3098
 11
236.0
 21
23.0
 31
0.0
100
AcDbText
 73
3
  0
TEXT
  5
9C
330
17
100
AcDbEntity
  8
11-TEXTO-ROTULO
100
AcDbText
 10
251.5
 20
15.6
 30
0.0
 40
3.5
  1
ISO 2768-m
  7
ISO3098
 72
1
 11
251.5
 21
15.6
 31
0.0
100
AcDbText
 73
2
  0
LWPOLYLINE
  5
9D
330
17
100
AcDbEntity
  8
10-ROTULO
100
AcDbPolyline
 90
4
 70
1
 10
268.0
 20
10.0
 10
290.0
 20
10.0
 10
290.0
 20
24.0
 10
268.0
 20
24.0
  0
TEXT
  5
9E
330
17
100
AcDbEntity
  8
11-TEXTO-ROTULO
100
AcDbText
 10
269.0
 20
23.0
 30
0.0
 40
1.8
  1
Formato
  7
ISO3098
 11
269.0
 21
23.0
 31
0.0
100
AcDbText
 73
3
  0
TEXT
  5
9F
330
17
100
AcDbEntity
  8
11-TEXTO-ROTULO
100
AcDbText
 10
279.0
 20
15.6
 30
0.0
 40
3.5
  1
A3
  7
ISO3098
 72
1
 11
279.0
 21
15.6
 31
0.0
100
AcDbText
 73
2
  0
LWPOLYLINE
  5
A0
330
17
100
AcDbEntity
  8
10-ROTULO
100
AcDbPolyline
 90
4
 70
1
 10
290.0
 20
49.0
 10
360.0
 20
49.0
 10
360.0
 20
61.0
 10
290.0
 20
61.0
  0
TEXT
  5
A1
330
17
100
AcDbEntity
  8
11-TEXTO-ROTULO
100
AcDbText
 10
291.0
 20
60.0
 30
0.0
 40
1.8
  1
Propietario
  7
ISO3098
 11
291.0
 21
60.0
 31
0.0
100
AcDbText
 73
3
  0
TEXT
  5
A2
330
17
100
AcDbEntity
  8
11-TEXTO-ROTULO
100
AcDbText
 10
325.0
 20
53.6
 30
0.0
 40
5.0
  1
FLAMA S.A.
  7
ISO3098
 72
1
 11
325.0
 21
53.6
 31
0.0
100
AcDbText
 73
2
  0
LWPOLYLINE
  5
A3
330
17
100
AcDbEntity
  8
10-ROTULO
100
AcDbPolyline
 90
4
 70
1
 10
290.0
 20
22.0
 10
360.0
 20
22.0
 10
360.0
 20
49.0
 10
290.0
 20
49.0
  0
TEXT
  5
A4
330
17
100
AcDbEntity
  8
11-TEXTO-ROTULO
100
AcDbText
 10
291.0
 20
48.0
 30
0.0
 40
1.8
  1
Denominación
  7
ISO3098
 11
291.0
 21
48.0
 31
0.0
100
AcDbText
 73
3
  0
TEXT
  5
A5
330
17
100
AcDbEntity
  8
11-TEXTO-ROTULO
100
AcDbText
 10
325.0
 20
35.0
 30
0.0
 40
5.0
  1
Reserva y sustituto
  7
ISO3098
 72
1
 11
325.0
 21
35.0
 31
0.0
100
AcDbText
 73
2
  0
TEXT
  5
A6
330
17
100
AcDbEntity
  8
11-TEXTO-ROTULO
100
AcDbText
 10
325.0
 20
25.5
 30
0.0
 40
1.8
  1
IRAM 3517-2:2020 - 5.3, 9.4.5 y 9.4.15
  7
ISO3098
 72
1
 11
325.0
 21
25.5
 31
0.0
100
AcDbText
 73
2
  0
LWPOLYLINE
  5
A7
330
17
100
AcDbEntity
  8
10-ROTULO
100
AcDbPolyline
 90
4
 70
1
 10
290.0
 20
10.0
 10
360.0
 20
10.0
 10
360.0
 20
22.0
 10
290.0
 20
22.0
  0
TEXT
  5
A8
330
17
100
AcDbEntity
  8
11-TEXTO-ROTULO
100
AcDbText
 10
291.0
 20
21.0
 30
0.0
 40
1.8
  1
Tipo de documento
  7
ISO3098
 11
291.0
 21
21.0
 31
0.0
100
AcDbText
 73
3
  0
TEXT
  5
A9
330
17
100
AcDbEntity
  8
11-TEXTO-ROTULO
100
AcDbText
 10
325.0
 20
14.6
 30
0.0
 40
3.5
  1
Plano de señalética
  7
ISO3098
 72
1
 11
325.0
 21
14.6
 31
0.0
100
AcDbText
 73
2
  0
LWPOLYLINE
  5
AA
330
17
100
AcDbEntity
  8
10-ROTULO
100
AcDbPolyline
 90
4
 70
1
 10
360.0
 20
53.0
 10
410.0
 20
53.0
 10
410.0
 20
61.0
 10
360.0
 20
61.0
  0
TEXT
  5
AB
330
17
100
AcDbEntity
  8
11-TEXTO-ROTULO
100
AcDbText
 10
361.0
 20
60.0
 30
0.0
 40
1.8
  1
Reemplaza a / Reemplazado por
  7
ISO3098
 11
361.0
 21
60.0
 31
0.0
100
AcDbText
 73
3
  0
TEXT
  5
AC
330
17
100
AcDbEntity
  8
11-TEXTO-ROTULO
100
AcDbText
 10
385.0
 20
55.6
 30
0.0
 40
1.8
  1
-
  7
ISO3098
 72
1
 11
385.0
 21
55.6
 31
0.0
100
AcDbText
 73
2
  0
LWPOLYLINE
  5
AD
330
17
100
AcDbEntity
  8
10-ROTULO
100
AcDbPolyline
 90
4
 70
1
 10
360.0
 20
43.0
 10
410.0
 20
43.0
 10
410.0
 20
53.0
 10
360.0
 20
53.0
  0
TEXT
  5
AE
330
17
100
AcDbEntity
  8
11-TEXTO-ROTULO
100
AcDbText
 10
361.0
 20
52.0
 30
0.0
 40
1.8
  1
Material
  7
ISO3098
 11
361.0
 21
52.0
 31
0.0
100
AcDbText
 73
3
  0
TEXT
  5
AF
330
17
100
AcDbEntity
  8
11-TEXTO-ROTULO
100
AcDbText
 10
385.0
 20
46.6
 30
0.0
 40
2.5
  1
Ver notas
  7
ISO3098
 72
1
 11
385.0
 21
46.6
 31
0.0
100
AcDbText
 73
2
  0
LWPOLYLINE
  5
B0
330
17
100
AcDbEntity
  8
10-ROTULO
100
AcDbPolyline
 90
4
 70
1
 10
360.0
 20
33.0
 10
382.0
 20
33.0
 10
382.0
 20
43.0
 10
360.0
 20
43.0
  0
TEXT
  5
B1
330
17
100
AcDbEntity
  8
11-TEXTO-ROTULO
100
AcDbText
 10
361.0
 20
42.0
 30
0.0
 40
1.8
  1
Edición
  7
ISO3098
 11
361.0
 21
42.0
 31
0.0
100
AcDbText
 73
3
  0
TEXT
  5
B2
330
17
100
AcDbEntity
  8
11-TEXTO-ROTULO
100
AcDbText
 10
371.0
 20
36.6
 30
0.0
 40
3.5
  1
1
  7
ISO3098
 72
1
 11
371.0
 21
36.6
 31
0.0
100
AcDbText
 73
2
  0
LWPOLYLINE
  5
B3
330
17
100
AcDbEntity
  8
10-ROTULO
100
AcDbPolyline
 90
4
 70
1
 10
382.0
 20
33.0
 10
410.0
 20
33.0
 10
410.0
 20
43.0
 10
382.0
 20
43.0
  0
TEXT
  5
B4
330
17
100
AcDbEntity
  8
11-TEXTO-ROTULO
100
AcDbText
 10
383.0
 20
42.0
 30
0.0
 40
1.8
  1
Fecha de emisión
  7
ISO3098
 11
383.0
 21
42.0
 31
0.0
100
AcDbText
 73
3
  0
TEXT
  5
B5
330
17
100
AcDbEntity
  8
11-TEXTO-ROTULO
100
AcDbText
 10
396.0
 20
36.6
 30
0.0
 40
2.5
  1
28/09/2026
  7
ISO3098
 72
1
 11
396.0
 21
36.6
 31
0.0
100
AcDbText
 73
2
  0
LWPOLYLINE
  5
B6
330
17
100
AcDbEntity
  8
10-ROTULO
100
AcDbPolyline
 90
4
 70
1
 10
360.0
 20
23.0
 10
382.0
 20
23.0
 10
382.0
 20
33.0
 10
360.0
 20
33.0
  0
TEXT
  5
B7
330
17
100
AcDbEntity
  8
11-TEXTO-ROTULO
100
AcDbText
 10
361.0
 20
32.0
 30
0.0
 40
1.8
  1
Hoja
  7
ISO3098
 11
361.0
 21
32.0
 31
0.0
100
AcDbText
 73
3
  0
TEXT
  5
B8
330
17
100
AcDbEntity
  8
11-TEXTO-ROTULO
100
AcDbText
 10
371.0
 20
26.6
 30
0.0
 40
3.5
  1
1 / 1
  7
ISO3098
 72
1
 11
371.0
 21
26.6
 31
0.0
100
AcDbText
 73
2
  0
LWPOLYLINE
  5
B9
330
17
100
AcDbEntity
  8
10-ROTULO
100
AcDbPolyline
 90
4
 70
1
 10
382.0
 20
23.0
 10
410.0
 20
23.0
 10
410.0
 20
33.0
 10
382.0
 20
33.0
  0
TEXT
  5
BA
330
17
100
AcDbEntity
  8
11-TEXTO-ROTULO
100
AcDbText
 10
383.0
 20
32.0
 30
0.0
 40
1.8
  1
Idioma
  7
ISO3098
 11
383.0
 21
32.0
 31
0.0
100
AcDbText
 73
3
  0
TEXT
  5
BB
330
17
100
AcDbEntity
  8
11-TEXTO-ROTULO
100
AcDbText
 10
396.0
 20
26.6
 30
0.0
 40
3.5
  1
es
  7
ISO3098
 72
1
 11
396.0
 21
26.6
 31
0.0
100
AcDbText
 73
2
  0
LWPOLYLINE
  5
BC
330
17
100
AcDbEntity
  8
10-ROTULO
100
AcDbPolyline
 90
4
 70
1
 10
360.0
 20
10.0
 10
410.0
 20
10.0
 10
410.0
 20
23.0
 10
360.0
 20
23.0
  0
TEXT
  5
BD
330
17
100
AcDbEntity
  8
11-TEXTO-ROTULO
100
AcDbText
 10
361.0
 20
22.0
 30
0.0
 40
1.8
  1
N° de plano
  7
ISO3098
 11
361.0
 21
22.0
 31
0.0
100
AcDbText
 73
3
  0
TEXT
  5
BE
330
17
100
AcDbEntity
  8
11-TEXTO-ROTULO
100
AcDbText
 10
385.0
 20
15.1
 30
0.0
 40
5.0
  1
FL_SEN_06
  7
ISO3098
 72
1
 11
385.0
 21
15.1
 31
0.0
100
AcDbText
 73
2
  0
LWPOLYLINE
  5
BF
330
17
100
AcDbEntity
  8
07-RECUADRO
100
AcDbPolyline
 90
4
 70
1
 10
235.0
 20
10.0
 10
410.0
 20
10.0
 10
410.0
 20
61.0
 10
235.0
 20
61.0
  0
HATCH
  5
C0
330
17
100
AcDbEntity
  8
05-RAYADO
 62
7
420
13114925
100
AcDbHatch
 10
0.0
 20
0.0
 30
0.0
210
0.0
220
0.0
230
1.0
  2
SOLID
 70
1
 71
0
 91
1
 92
3
 72
0
 73
1
 93
99
 10
73.15
 20
120.0
 10
36.849999999999994
 20
120.0
 10
36.849999999999994
 20
214.35000000000002
 10
36.85971773730396
 20
214.94385135321525
 10
36.888860543219344
 20
215.53706679552712
 10
36.93739721089962
 20
216.12901109698154
 10
37.00527576606534
 20
216.71905038879396
 10
37.092423522659445
 20
217.30655284211178
 10
37.198747160681364
 20
217.89088934459275
 10
37.3241328261164
 20
218.4714341740739
 10
37.46844625285341
 20
219.04756566861076
 10
37.63153290646041
 20
219.6186668921685
 10
37.813218149663825
 20
220.18412629525238
 10
38.01330742935453
 20
220.7433383697704
 10
38.23158648492014
 20
221.2957042974264
 10
38.46782157768065
 20
221.84063259094978
 10
38.7217597411817
 20
222.3775397274749
 10
38.99312905207735
 20
222.90585077339188
 10
39.281638921312435
 20
223.425
 10
39.586980405292586
 20
223.9344314893042
 10
39.9088265367088
 20
224.4335997293058
 10
40.24683267466217
 20
224.92197019815063
 10
40.60063687371408
 20
225.3990199365083
 10
40.96986027146632
 20
225.86423810757017
 10
41.35410749425655
 20
226.31712654406627
 10
41.752967080534276
 20
226.75720028171514
 10
42.166011921464154
 20
227.18398807853586
 10
42.59279971828488
 20
227.59703291946573
 10
43.032873455933746
 20
227.99589250574346
 10
43.48576189242982
 20
228.3801397285337
 10
43.95098006349171
 20
228.74936312628594
 10
44.42802980184939
 20
229.10316732533784
 10
44.916400270694204
 20
229.44117346329122
 10
45.415568510695806
 20
229.76301959470743
 10
45.92499999999999
 20
230.0683610786876
 10
46.44414922660814
 20
230.35687094792266
 10
46.972460272525126
 20
230.62824025881832
 10
47.50936740905022
 20
230.88217842231936
 10
48.05429570257361
 20
231.11841351507988
 10
48.6066616302296
 20
231.33669257064548
 10
49.16587370474761
 20
231.53678185033618
 10
49.7313331078315
 20
231.71846709353963
 10
50.302434331389236
 20
231.8815537471466
 10
50.87856582592612
 20
232.02586717388363
 10
51.459110655407265
 20
232.15125283931866
 10
52.04344715788821
 20
232.2575764773406
 10
52.63094961120605
 20
232.34472423393467
 10
53.22098890301846
 20
232.4126027891004
 10
53.81293320447289
 20
232.46113945678067
 10
54.40614864678476
 20
232.49028226269607
 10
55.0
 20
232.50000000000003
 10
55.59385135321522
 20
232.49028226269607
 10
56.18706679552709
 20
232.46113945678067
 10
56.77901109698151
 20
232.4126027891004
 10
57.36905038879393
 20
232.3447242339347
 10
57.95655284211178
 20
232.2575764773406
 10
58.54088934459271
 20
232.15125283931866
 10
59.12143417407386
 20
232.02586717388363
 10
59.69756566861074
 20
231.88155374714663
 10
60.26866689216849
 20
231.71846709353963
 10
60.83412629525238
 20
231.53678185033618
 10
61.393338369770376
 20
231.33669257064548
 10
61.94570429742637
 20
231.11841351507988
 10
62.49063259094976
 20
230.88217842231938
 10
63.02753972747487
 20
230.62824025881832
 10
63.55585077339184
 20
230.3568709479227
 10
64.07499999999999
 20
230.0683610786876
 10
64.58443148930417
 20
229.76301959470743
 10
65.08359972930577
 20
229.44117346329122
 10
65.57197019815061
 20
229.10316732533784
 10
66.04901993650827
 20
228.74936312628594
 10
66.51423810757015
 20
228.38013972853372
 10
66.96712654406625
 20
227.99589250574348
 10
67.4072002817151
 20
227.59703291946573
 10
67.83398807853584
 20
227.18398807853586
 10
68.24703291946571
 20
226.75720028171514
 10
68.64589250574343
 20
226.3171265440663
 10
69.03013972853367
 20
225.8642381075702
 10
69.39936312628592
 20
225.3990199365083
 10
69.75316732533781
 20
224.92197019815063
 10
70.09117346329118
 20
224.43359972930583
 10
70.41301959470741
 20
223.93443148930422
 10
70.71836107868756
 20
223.42500000000004
 10
71.00687094792264
 20
222.90585077339188
 10
71.27824025881829
 20
222.37753972747493
 10
71.53217842231933
 20
221.8406325909498
 10
71.76841351507986
 20
221.29570429742643
 10
71.98669257064546
 20
220.7433383697704
 10
72.18678185033616
 20
220.1841262952524
 10
72.36846709353959
 20
219.61866689216853
 10
72.53155374714659
 20
219.0475656686108
 10
72.6758671738836
 20
218.47143417407392
 10
72.80125283931864
 20
217.89088934459275
 10
72.90757647734056
 20
217.3065528421118
 10
72.99472423393466
 20
216.719050388794
 10
73.06260278910037
 20
216.12901109698157
 10
73.11113945678065
 20
215.53706679552712
 10
73.14028226269605
 20
214.94385135321528
 10
73.15
 20
214.35000000000002
 97
0
 75
1
 76
1
 98
0
  0
HATCH
  5
C1
330
17
100
AcDbEntity
  8
05-RAYADO
 62
7
420
37190
100
AcDbHatch
 10
0.0
 20
0.0
 30
0.0
210
0.0
220
0.0
230
1.0
  2
SOLID
 70
1
 71
0
 91
1
 92
3
 72
0
 73
1
 93
4
 10
73.15
 20
120.0
 10
73.15
 20
128.0
 10
36.849999999999994
 20
128.0
 10
36.849999999999994
 20
120.0
 97
0
 75
1
 76
1
 98
0
  0
LWPOLYLINE
  5
C2
330
17
100
AcDbEntity
  8
01-VISIBLE
100
AcDbPolyline
 90
100
 70
1
 10
73.15
 20
120.0
 10
36.849999999999994
 20
120.0
 10
36.849999999999994
 20
214.35000000000002
 10
36.85971773730396
 20
214.94385135321525
 10
36.888860543219344
 20
215.53706679552712
 10
36.93739721089962
 20
216.12901109698154
 10
37.00527576606534
 20
216.71905038879396
 10
37.092423522659445
 20
217.30655284211178
 10
37.198747160681364
 20
217.89088934459275
 10
37.3241328261164
 20
218.4714341740739
 10
37.46844625285341
 20
219.04756566861076
 10
37.63153290646041
 20
219.6186668921685
 10
37.813218149663825
 20
220.18412629525238
 10
38.01330742935453
 20
220.7433383697704
 10
38.23158648492014
 20
221.2957042974264
 10
38.46782157768065
 20
221.84063259094978
 10
38.7217597411817
 20
222.3775397274749
 10
38.99312905207735
 20
222.90585077339188
 10
39.281638921312435
 20
223.425
 10
39.586980405292586
 20
223.9344314893042
 10
39.9088265367088
 20
224.4335997293058
 10
40.24683267466217
 20
224.92197019815063
 10
40.60063687371408
 20
225.3990199365083
 10
40.96986027146632
 20
225.86423810757017
 10
41.35410749425655
 20
226.31712654406627
 10
41.752967080534276
 20
226.75720028171514
 10
42.166011921464154
 20
227.18398807853586
 10
42.59279971828488
 20
227.59703291946573
 10
43.032873455933746
 20
227.99589250574346
 10
43.48576189242982
 20
228.3801397285337
 10
43.95098006349171
 20
228.74936312628594
 10
44.42802980184939
 20
229.10316732533784
 10
44.916400270694204
 20
229.44117346329122
 10
45.415568510695806
 20
229.76301959470743
 10
45.92499999999999
 20
230.0683610786876
 10
46.44414922660814
 20
230.35687094792266
 10
46.972460272525126
 20
230.62824025881832
 10
47.50936740905022
 20
230.88217842231936
 10
48.05429570257361
 20
231.11841351507988
 10
48.6066616302296
 20
231.33669257064548
 10
49.16587370474761
 20
231.53678185033618
 10
49.7313331078315
 20
231.71846709353963
 10
50.302434331389236
 20
231.8815537471466
 10
50.87856582592612
 20
232.02586717388363
 10
51.459110655407265
 20
232.15125283931866
 10
52.04344715788821
 20
232.2575764773406
 10
52.63094961120605
 20
232.34472423393467
 10
53.22098890301846
 20
232.4126027891004
 10
53.81293320447289
 20
232.46113945678067
 10
54.40614864678476
 20
232.49028226269607
 10
55.0
 20
232.50000000000003
 10
55.59385135321522
 20
232.49028226269607
 10
56.18706679552709
 20
232.46113945678067
 10
56.77901109698151
 20
232.4126027891004
 10
57.36905038879393
 20
232.3447242339347
 10
57.95655284211178
 20
232.2575764773406
 10
58.54088934459271
 20
232.15125283931866
 10
59.12143417407386
 20
232.02586717388363
 10
59.69756566861074
 20
231.88155374714663
 10
60.26866689216849
 20
231.71846709353963
 10
60.83412629525238
 20
231.53678185033618
 10
61.393338369770376
 20
231.33669257064548
 10
61.94570429742637
 20
231.11841351507988
 10
62.49063259094976
 20
230.88217842231938
 10
63.02753972747487
 20
230.62824025881832
 10
63.55585077339184
 20
230.3568709479227
 10
64.07499999999999
 20
230.0683610786876
 10
64.58443148930417
 20
229.76301959470743
 10
65.08359972930577
 20
229.44117346329122
 10
65.57197019815061
 20
229.10316732533784
 10
66.04901993650827
 20
228.74936312628594
 10
66.51423810757015
 20
228.38013972853372
 10
66.96712654406625
 20
227.99589250574348
 10
67.4072002817151
 20
227.59703291946573
 10
67.83398807853584
 20
227.18398807853586
 10
68.24703291946571
 20
226.75720028171514
 10
68.64589250574343
 20
226.3171265440663
 10
69.03013972853367
 20
225.8642381075702
 10
69.39936312628592
 20
225.3990199365083
 10
69.75316732533781
 20
224.92197019815063
 10
70.09117346329118
 20
224.43359972930583
 10
70.41301959470741
 20
223.93443148930422
 10
70.71836107868756
 20
223.42500000000004
 10
71.00687094792264
 20
222.90585077339188
 10
71.27824025881829
 20
222.37753972747493
 10
71.53217842231933
 20
221.8406325909498
 10
71.76841351507986
 20
221.29570429742643
 10
71.98669257064546
 20
220.7433383697704
 10
72.18678185033616
 20
220.1841262952524
 10
72.36846709353959
 20
219.61866689216853
 10
72.53155374714659
 20
219.0475656686108
 10
72.6758671738836
 20
218.47143417407392
 10
72.80125283931864
 20
217.89088934459275
 10
72.90757647734056
 20
217.3065528421118
 10
72.99472423393466
 20
216.719050388794
 10
73.06260278910037
 20
216.12901109698157
 10
73.11113945678065
 20
215.53706679552712
 10
73.14028226269605
 20
214.94385135321528
 10
73.15
 20
214.35000000000002
 10
73.15
 20
120.0
  0
LWPOLYLINE
  5
C3
330
17
100
AcDbEntity
  8
08-FINA
100
AcDbPolyline
 90
5
 70
1
 10
73.15
 20
120.0
 10
73.15
 20
128.0
 10
36.849999999999994
 20
128.0
 10
36.849999999999994
 20
120.0
 10
73.15
 20
120.0
  0
LWPOLYLINE
  5
C4
330
17
100
AcDbEntity
  8
01-VISIBLE
100
AcDbPolyline
 90
4
 70
1
 10
53.4
 20
232.5
 10
56.6
 20
232.5
 10
56.6
 20
237.5
 10
53.4
 20
237.5
  0
DIMENSION
  5
C5
330
17
100
AcDbEntity
  8
04-COTA
100
AcDbDimension
280
0
  2
*D1
  3
FLAMA-IRAM
 10
81.15
 20
120.0
 30
0.0
 11
76.4
 21
124.0
 31
0.0
 70
32
 71
5
  1
≤ 40
100
AcDbAlignedDimension
 13
73.15
 23
120.0
 33
0.0
 14
73.15
 24
128.0
 34
0.0
 50
90.0
100
AcDbRotatedDimension
1001
ACAD
1000
DSTYLE
1002
{
1070
144
1040
5.0
1002
}
  0
TEXT
  5
D4
330
17
100
AcDbEntity
  8
06-TEXTO
100
AcDbText
 10
87.15
 20
146.0
 30
0.0
 40
2.5
  1
faja verde:
  7
ISO3098
 11
87.15
 21
146.0
 31
0.0
100
AcDbText
 73
1
  0
TEXT
  5
D5
330
17
100
AcDbEntity
  8
06-TEXTO
100
AcDbText
 10
87.15
 20
142.0
 30
0.0
 40
2.5
  1
EXTINTOR DE RESERVA
  7
ISO3098
 11
87.15
 21
142.0
 31
0.0
100
AcDbText
 73
1
  0
HATCH
  5
D6
330
17
100
AcDbEntity
  8
05-RAYADO
 62
7
420
13114925
100
AcDbHatch
 10
0.0
 20
0.0
 30
0.0
210
0.0
220
0.0
230
1.0
  2
SOLID
 70
1
 71
0
 91
1
 92
3
 72
0
 73
1
 93
99
 10
173.15
 20
120.0
 10
136.85
 20
120.0
 10
136.85
 20
214.35000000000002
 10
136.85971773730395
 20
214.94385135321525
 10
136.88886054321935
 20
215.53706679552712
 10
136.93739721089963
 20
216.12901109698154
 10
137.00527576606532
 20
216.71905038879396
 10
137.09242352265943
 20
217.30655284211178
 10
137.19874716068136
 20
217.89088934459275
 10
137.3241328261164
 20
218.4714341740739
 10
137.4684462528534
 20
219.04756566861076
 10
137.6315329064604
 20
219.6186668921685
 10
137.81321814966384
 20
220.18412629525238
 10
138.01330742935454
 20
220.7433383697704
 10
138.23158648492014
 20
221.2957042974264
 10
138.46782157768064
 20
221.84063259094978
 10
138.7217597411817
 20
222.3775397274749
 10
138.99312905207734
 20
222.90585077339188
 10
139.28163892131244
 20
223.425
 10
139.5869804052926
 20
223.9344314893042
 10
139.9088265367088
 20
224.4335997293058
 10
140.2468326746622
 20
224.92197019815063
 10
140.60063687371408
 20
225.3990199365083
 10
140.96986027146633
 20
225.86423810757017
 10
141.35410749425654
 20
226.31712654406627
 10
141.7529670805343
 20
226.75720028171514
 10
142.16601192146416
 20
227.18398807853586
 10
142.59279971828488
 20
227.59703291946573
 10
143.03287345593375
 20
227.99589250574346
 10
143.48576189242982
 20
228.3801397285337
 10
143.95098006349173
 20
228.74936312628594
 10
144.4280298018494
 20
229.10316732533784
 10
144.9164002706942
 20
229.44117346329122
 10
145.4155685106958
 20
229.76301959470743
 10
145.92499999999998
 20
230.0683610786876
 10
146.44414922660815
 20
230.35687094792266
 10
146.97246027252513
 20
230.62824025881832
 10
147.5093674090502
 20
230.88217842231936
 10
148.0542957025736
 20
231.11841351507988
 10
148.6066616302296
 20
231.33669257064548
 10
149.1658737047476
 20
231.53678185033618
 10
149.73133310783152
 20
231.71846709353963
 10
150.30243433138924
 20
231.8815537471466
 10
150.8785658259261
 20
232.02586717388363
 10
151.45911065540727
 20
232.15125283931866
 10
152.0434471578882
 20
232.2575764773406
 10
152.63094961120603
 20
232.34472423393467
 10
153.22098890301845
 20
232.4126027891004
 10
153.8129332044729
 20
232.46113945678067
 10
154.40614864678474
 20
232.49028226269607
 10
155.0
 20
232.50000000000003
 10
155.59385135321523
 20
232.49028226269607
 10
156.18706679552707
 20
232.46113945678067
 10
156.77901109698152
 20
232.4126027891004
 10
157.36905038879394
 20
232.3447242339347
 10
157.9565528421118
 20
232.2575764773406
 10
158.5408893445927
 20
232.15125283931866
 10
159.12143417407387
 20
232.02586717388363
 10
159.69756566861074
 20
231.88155374714663
 10
160.26866689216848
 20
231.71846709353963
 10
160.8341262952524
 20
231.53678185033618
 10
161.39333836977036
 20
231.33669257064548
 10
161.94570429742637
 20
231.11841351507988
 10
162.49063259094976
 20
230.88217842231938
 10
163.02753972747487
 20
230.62824025881832
 10
163.55585077339185
 20
230.3568709479227
 10
164.075
 20
230.0683610786876
 10
164.58443148930417
 20
229.76301959470743
 10
165.08359972930577
 20
229.44117346329122
 10
165.5719701981506
 20
229.10316732533784
 10
166.04901993650827
 20
228.74936312628594
 10
166.51423810757015
 20
228.38013972853372
 10
166.96712654406625
 20
227.99589250574348
 10
167.40720028171512
 20
227.59703291946573
 10
167.83398807853584
 20
227.18398807853586
 10
168.2470329194657
 20
226.75720028171514
 10
168.64589250574343
 20
226.3171265440663
 10
169.03013972853367
 20
225.8642381075702
 10
169.39936312628592
 20
225.3990199365083
 10
169.7531673253378
 20
224.92197019815063
 10
170.0911734632912
 20
224.43359972930583
 10
170.4130195947074
 20
223.93443148930422
 10
170.71836107868756
 20
223.42500000000004
 10
171.00687094792264
 20
222.90585077339188
 10
171.2782402588183
 20
222.37753972747493
 10
171.53217842231933
 20
221.8406325909498
 10
171.76841351507986
 20
221.29570429742643
 10
171.98669257064546
 20
220.7433383697704
 10
172.18678185033616
 20
220.1841262952524
 10
172.36846709353958
 20
219.61866689216853
 10
172.53155374714657
 20
219.0475656686108
 10
172.6758671738836
 20
218.47143417407392
 10
172.80125283931864
 20
217.89088934459275
 10
172.90757647734057
 20
217.3065528421118
 10
172.99472423393465
 20
216.719050388794
 10
173.06260278910037
 20
216.12901109698157
 10
173.11113945678065
 20
215.53706679552712
 10
173.14028226269605
 20
214.94385135321528
 10
173.15
 20
214.35000000000002
 97
0
 75
1
 76
1
 98
0
  0
HATCH
  5
D7
330
17
100
AcDbEntity
  8
05-RAYADO
 62
7
420
16768512
100
AcDbHatch
 10
0.0
 20
0.0
 30
0.0
210
0.0
220
0.0
230
1.0
  2
SOLID
 70
1
 71
0
 91
1
 92
3
 72
0
 73
1
 93
4
 10
173.15
 20
120.0
 10
173.15
 20
128.0
 10
136.85
 20
128.0
 10
136.85
 20
120.0
 97
0
 75
1
 76
1
 98
0
  0
LWPOLYLINE
  5
D8
330
17
100
AcDbEntity
  8
01-VISIBLE
100
AcDbPolyline
 90
100
 70
1
 10
173.15
 20
120.0
 10
136.85
 20
120.0
 10
136.85
 20
214.35000000000002
 10
136.85971773730395
 20
214.94385135321525
 10
136.88886054321935
 20
215.53706679552712
 10
136.93739721089963
 20
216.12901109698154
 10
137.00527576606532
 20
216.71905038879396
 10
137.09242352265943
 20
217.30655284211178
 10
137.19874716068136
 20
217.89088934459275
 10
137.3241328261164
 20
218.4714341740739
 10
137.4684462528534
 20
219.04756566861076
 10
137.6315329064604
 20
219.6186668921685
 10
137.81321814966384
 20
220.18412629525238
 10
138.01330742935454
 20
220.7433383697704
 10
138.23158648492014
 20
221.2957042974264
 10
138.46782157768064
 20
221.84063259094978
 10
138.7217597411817
 20
222.3775397274749
 10
138.99312905207734
 20
222.90585077339188
 10
139.28163892131244
 20
223.425
 10
139.5869804052926
 20
223.9344314893042
 10
139.9088265367088
 20
224.4335997293058
 10
140.2468326746622
 20
224.92197019815063
 10
140.60063687371408
 20
225.3990199365083
 10
140.96986027146633
 20
225.86423810757017
 10
141.35410749425654
 20
226.31712654406627
 10
141.7529670805343
 20
226.75720028171514
 10
142.16601192146416
 20
227.18398807853586
 10
142.59279971828488
 20
227.59703291946573
 10
143.03287345593375
 20
227.99589250574346
 10
143.48576189242982
 20
228.3801397285337
 10
143.95098006349173
 20
228.74936312628594
 10
144.4280298018494
 20
229.10316732533784
 10
144.9164002706942
 20
229.44117346329122
 10
145.4155685106958
 20
229.76301959470743
 10
145.92499999999998
 20
230.0683610786876
 10
146.44414922660815
 20
230.35687094792266
 10
146.97246027252513
 20
230.62824025881832
 10
147.5093674090502
 20
230.88217842231936
 10
148.0542957025736
 20
231.11841351507988
 10
148.6066616302296
 20
231.33669257064548
 10
149.1658737047476
 20
231.53678185033618
 10
149.73133310783152
 20
231.71846709353963
 10
150.30243433138924
 20
231.8815537471466
 10
150.8785658259261
 20
232.02586717388363
 10
151.45911065540727
 20
232.15125283931866
 10
152.0434471578882
 20
232.2575764773406
 10
152.63094961120603
 20
232.34472423393467
 10
153.22098890301845
 20
232.4126027891004
 10
153.8129332044729
 20
232.46113945678067
 10
154.40614864678474
 20
232.49028226269607
 10
155.0
 20
232.50000000000003
 10
155.59385135321523
 20
232.49028226269607
 10
156.18706679552707
 20
232.46113945678067
 10
156.77901109698152
 20
232.4126027891004
 10
157.36905038879394
 20
232.3447242339347
 10
157.9565528421118
 20
232.2575764773406
 10
158.5408893445927
 20
232.15125283931866
 10
159.12143417407387
 20
232.02586717388363
 10
159.69756566861074
 20
231.88155374714663
 10
160.26866689216848
 20
231.71846709353963
 10
160.8341262952524
 20
231.53678185033618
 10
161.39333836977036
 20
231.33669257064548
 10
161.94570429742637
 20
231.11841351507988
 10
162.49063259094976
 20
230.88217842231938
 10
163.02753972747487
 20
230.62824025881832
 10
163.55585077339185
 20
230.3568709479227
 10
164.075
 20
230.0683610786876
 10
164.58443148930417
 20
229.76301959470743
 10
165.08359972930577
 20
229.44117346329122
 10
165.5719701981506
 20
229.10316732533784
 10
166.04901993650827
 20
228.74936312628594
 10
166.51423810757015
 20
228.38013972853372
 10
166.96712654406625
 20
227.99589250574348
 10
167.40720028171512
 20
227.59703291946573
 10
167.83398807853584
 20
227.18398807853586
 10
168.2470329194657
 20
226.75720028171514
 10
168.64589250574343
 20
226.3171265440663
 10
169.03013972853367
 20
225.8642381075702
 10
169.39936312628592
 20
225.3990199365083
 10
169.7531673253378
 20
224.92197019815063
 10
170.0911734632912
 20
224.43359972930583
 10
170.4130195947074
 20
223.93443148930422
 10
170.71836107868756
 20
223.42500000000004
 10
171.00687094792264
 20
222.90585077339188
 10
171.2782402588183
 20
222.37753972747493
 10
171.53217842231933
 20
221.8406325909498
 10
171.76841351507986
 20
221.29570429742643
 10
171.98669257064546
 20
220.7433383697704
 10
172.18678185033616
 20
220.1841262952524
 10
172.36846709353958
 20
219.61866689216853
 10
172.53155374714657
 20
219.0475656686108
 10
172.6758671738836
 20
218.47143417407392
 10
172.80125283931864
 20
217.89088934459275
 10
172.90757647734057
 20
217.3065528421118
 10
172.99472423393465
 20
216.719050388794
 10
173.06260278910037
 20
216.12901109698157
 10
173.11113945678065
 20
215.53706679552712
 10
173.14028226269605
 20
214.94385135321528
 10
173.15
 20
214.35000000000002
 10
173.15
 20
120.0
  0
LWPOLYLINE
  5
D9
330
17
100
AcDbEntity
  8
08-FINA
100
AcDbPolyline
 90
5
 70
1
 10
173.15
 20
120.0
 10
173.15
 20
128.0
 10
136.85
 20
128.0
 10
136.85
 20
120.0
 10
173.15
 20
120.0
  0
LWPOLYLINE
  5
DA
330
17
100
AcDbEntity
  8
01-VISIBLE
100
AcDbPolyline
 90
4
 70
1
 10
153.4
 20
232.5
 10
156.6
 20
232.5
 10
156.6
 20
237.5
 10
153.4
 20
237.5
  0
DIMENSION
  5
DB
330
17
100
AcDbEntity
  8
04-COTA
100
AcDbDimension
280
0
  2
*D2
  3
FLAMA-IRAM
 10
181.15
 20
120.0
 30
0.0
 11
176.4
 21
124.0
 31
0.0
 70
32
 71
5
  1
≤ 40
100
AcDbAlignedDimension
 13
173.15
 23
120.0
 33
0.0
 14
173.15
 24
128.0
 34
0.0
 50
90.0
100
AcDbRotatedDimension
1001
ACAD
1000
DSTYLE
1002
{
1070
144
1040
5.0
1002
}
  0
TEXT
  5
EA
330
17
100
AcDbEntity
  8
06-TEXTO
100
AcDbText
 10
187.15
 20
146.0
 30
0.0
 40
2.5
  1
faja amarilla:
  7
ISO3098
 11
187.15
 21
146.0
 31
0.0
100
AcDbText
 73
1
  0
TEXT
  5
EB
330
17
100
AcDbEntity
  8
06-TEXTO
100
AcDbText
 10
187.15
 20
142.0
 30
0.0
 40
2.5
  1
EXTINTOR SUSTITUTO
  7
ISO3098
 11
187.15
 21
142.0
 31
0.0
100
AcDbText
 73
1
  0
TEXT
  5
EC
330
17
100
AcDbEntity
  8
06-TEXTO
100
AcDbText
 10
187.15
 20
138.0
 30
0.0
 40
2.5
  1
REEMPLAZA AL EQUIPO DE
  7
ISO3098
 11
187.15
 21
138.0
 31
0.0
100
AcDbText
 73
1
  0
TEXT
  5
ED
330
17
100
AcDbEntity
  8
06-TEXTO
100
AcDbText
 10
187.15
 20
134.0
 30
0.0
 40
2.5
  1
ESTE PUESTO EN SERVICIO
  7
ISO3098
 11
187.15
 21
134.0
 31
0.0
100
AcDbText
 73
1
  0
TEXT
  5
EE
330
17
100
AcDbEntity
  8
06-TEXTO
100
AcDbText
 10
187.15
 20
130.0
 30
0.0
 40
2.5
  1
datos del PRS
  7
ISO3098
 11
187.15
 21
130.0
 31
0.0
100
AcDbText
 73
1
  0
TEXT
  5
EF
330
17
100
AcDbEntity
  8
06-TEXTO
100
AcDbText
 10
55.0
 20
110.0
 30
0.0
 40
3.5
  1
EXTINTOR DE RESERVA (5.3)
  7
ISO3098
 72
1
 11
55.0
 21
110.0
 31
0.0
100
AcDbText
 73
2
  0
TEXT
  5
F0
330
17
100
AcDbEntity
  8
06-TEXTO
100
AcDbText
 10
155.0
 20
110.0
 30
0.0
 40
3.5
  1
EXTINTOR SUSTITUTO (9.4.5)
  7
ISO3098
 72
1
 11
155.0
 21
110.0
 31
0.0
100
AcDbText
 73
2
  0
LWPOLYLINE
  5
F1
330
17
100
AcDbEntity
  8
01-VISIBLE
100
AcDbPolyline
 90
4
 70
1
 10
285.0
 20
105.0
 10
395.0
 20
105.0
 10
395.0
 20
265.0
 10
285.0
 20
265.0
  0
HATCH
  5
F2
330
17
100
AcDbEntity
  8
05-RAYADO
 62
7
420
13114925
100
AcDbHatch
 10
0.0
 20
0.0
 30
0.0
210
0.0
220
0.0
230
1.0
  2
SOLID
 70
1
 71
0
 91
1
 92
3
 72
0
 73
1
 93
4
 10
395.0
 20
247.0
 10
395.0
 20
265.0
 10
285.0
 20
265.0
 10
285.0
 20
247.0
 97
0
 75
1
 76
1
 98
0
  0
TEXT
  5
F3
330
17
100
AcDbEntity
  8
13-GRAFICA
420
16777215
100
AcDbText
 10
340.0
 20
258.0
 30
0.0
 40
5.0
  1
EXTINTOR ABC 10 kg
  7
ISO3098
 72
1
 11
340.0
 21
258.0
 31
0.0
100
AcDbText
 73
2
  0
TEXT
  5
F4
330
17
100
AcDbEntity
  8
13-GRAFICA
420
16777215
100
AcDbText
 10
340.0
 20
251.0
 30
0.0
 40
2.5
  1
FLAMA S.A.
  7
ISO3098
 72
1
 11
340.0
 21
251.0
 31
0.0
100
AcDbText
 73
2
  0
HATCH
  5
F5
330
17
100
AcDbEntity
  8
05-RAYADO
 62
7
420
37190
100
AcDbHatch
 10
0.0
 20
0.0
 30
0.0
210
0.0
220
0.0
230
1.0
  2
SOLID
 70
1
 71
0
 91
1
 92
3
 72
0
 73
1
 93
4
 10
295.762395692966
 20
225.0
 10
298.2817423221571
 20
229.36363636363635
 10
298.2817423221571
 20
226.45454545454547
 10
298.2817423221571
 20
225.0
 97
0
 75
1
 76
1
 98
0
  0
HATCH
  5
F6
330
17
100
AcDbEntity
  8
05-RAYADO
 62
7
420
37190
100
AcDbHatch
 10
0.0
 20
0.0
 30
0.0
210
0.0
220
0.0
230
1.0
  2
SOLID
 70
1
 71
0
 91
1
 92
3
 72
0
 73
1
 93
6
 10
311.7182576778429
 20
229.36363636363635
 10
311.7182576778429
 20
226.45454545454547
 10
305.0
 20
238.0909090909091
 10
298.2817423221571
 20
226.45454545454547
 10
298.2817423221571
 20
229.36363636363635
 10
305.0
 20
241.0
 97
0
 75
1
 76
1
 98
0
  0
HATCH
  5
F7
330
17
100
AcDbEntity
  8
05-RAYADO
 62
7
420
37190
100
AcDbHatch
 10
0.0
 20
0.0
 30
0.0
210
0.0
220
0.0
230
1.0
  2
SOLID
 70
1
 71
0
 91
1
 92
3
 72
0
 73
1
 93
4
 10
298.2817423221571
 20
225.0
 10
298.2817423221571
 20
226.45454545454547
 10
311.7182576778429
 20
226.45454545454547
 10
311.7182576778429
 20
225.0
 97
0
 75
1
 76
1
 98
0
  0
HATCH
  5
F8
330
17
100
AcDbEntity
  8
05-RAYADO
 62
7
420
37190
100
AcDbHatch
 10
0.0
 20
0.0
 30
0.0
210
0.0
220
0.0
230
1.0
  2
SOLID
 70
1
 71
0
 91
1
 92
3
 72
0
 73
1
 93
4
 10
314.237604307034
 20
225.0
 10
311.7182576778429
 20
225.0
 10
311.7182576778429
 20
226.45454545454547
 10
311.7182576778429
 20
229.36363636363635
 97
0
 75
1
 76
1
 98
0
  0
TEXT
  5
F9
330
17
100
AcDbEntity
  8
13-GRAFICA
420
37190
100
AcDbText
 10
305.0
 20
230.28
 30
0.0
 40
6.9818181818181815
  1
A
  7
ISO3098
 72
1
 11
305.0
 21
230.28
 31
0.0
100
AcDbText
 73
2
  0
HATCH
  5
FA
330
17
100
AcDbEntity
  8
05-RAYADO
 62
7
420
37190
100
AcDbHatch
 10
0.0
 20
0.0
 30
0.0
210
0.0
220
0.0
230
1.0
  2
SOLID
 70
1
 71
0
 91
1
 92
3
 72
0
 73
1
 93
68
 10
314.0
 20
205.08
 10
313.994799504806
 20
204.97414148844408
 10
313.9792481028355
 20
204.8693024522226
 10
313.9534955625908
 20
204.7664925485652
 10
313.9177898951122
 20
204.6667018930457
 10
313.8724749654962
 20
204.57089152422793
 10
313.81798718128675
 20
204.47998414833884
 10
313.75485128963174
 20
204.3948552531033
 10
313.6836753236815
 20
204.31632467631854
 10
313.60514474689677
 20
204.24514871036826
 10
313.5200158516612
 20
204.18201281871328
 10
313.42910847577207
 20
204.12752503450378
 10
313.3332981069543
 20
204.08221010488782
 10
313.23350745143483
 20
204.04650443740923
 10
313.13069754777746
 20
204.02075189716453
 10
313.02585851155595
 20
204.00520049519403
 10
312.92
 20
204.0
 10
297.08
 20
204.0
 10
296.97414148844405
 20
204.00520049519403
 10
296.86930245222254
 20
204.02075189716453
 10
296.76649254856517
 20
204.04650443740923
 10
296.6667018930457
 20
204.08221010488782
 10
296.57089152422793
 20
204.12752503450378
 10
296.4799841483388
 20
204.18201281871328
 10
296.39485525310323
 20
204.24514871036826
 10
296.3163246763185
 20
204.31632467631854
 10
296.24514871036826
 20
204.3948552531033
 10
296.18201281871325
 20
204.47998414833884
 10
296.1275250345038
 20
204.57089152422793
 10
296.0822101048878
 20
204.6667018930457
 10
296.0465044374092
 20
204.7664925485652
 10
296.0207518971645
 20
204.8693024522226
 10
296.005200495194
 20
204.97414148844408
 10
296.0
 20
205.08
 10
296.0
 20
220.92
 10
296.005200495194
 20
221.02585851155592
 10
296.0207518971645
 20
221.1306975477774
 10
296.0465044374092
 20
221.2335074514348
 10
296.0822101048878
 20
221.3332981069543
 10
296.1275250345038
 20
221.42910847577207
 10
296.18201281871325
 20
221.52001585166116
 10
296.24514871036826
 20
221.6051447468967
 10
296.3163246763185
 20
221.68367532368146
 10
296.39485525310323
 20
221.75485128963174
 10
296.4799841483388
 20
221.81798718128672
 10
296.57089152422793
 20
221.87247496549622
 10
296.6667018930457
 20
221.91778989511218
 10
296.76649254856517
 20
221.95349556259077
 10
296.86930245222254
 20
221.97924810283547
 10
296.97414148844405
 20
221.99479950480597
 10
297.08
 20
222.0
 10
312.92
 20
222.0
 10
313.02585851155595
 20
221.99479950480597
 10
313.13069754777746
 20
221.97924810283547
 10
313.23350745143483
 20
221.95349556259077
 10
313.3332981069543
 20
221.91778989511218
 10
313.42910847577207
 20
221.87247496549622
 10
313.5200158516612
 20
221.81798718128672
 10
313.60514474689677
 20
221.75485128963174
 10
313.6836753236815
 20
221.68367532368146
 10
313.75485128963174
 20
221.6051447468967
 10
313.81798718128675
 20
221.52001585166116
 10
313.8724749654962
 20
221.42910847577207
 10
313.9177898951122
 20
221.3332981069543
 10
313.9534955625908
 20
221.2335074514348
 10
313.9792481028355
 20
221.1306975477774
 10
313.994799504806
 20
221.02585851155592
 10
314.0
 20
220.92
 97
0
 75
1
 76
1
 98
0
  0
HATCH
  5
FB
330
17
100
AcDbEntity
  8
05-RAYADO
 62
7
420
16777215
100
AcDbHatch
 10
0.0
 20
0.0
 30
0.0
210
0.0
220
0.0
230
1.0
  2
SOLID
 70
1
 71
0
 91
1
 92
3
 72
0
 73
1
 93
17
 10
297.26
 20
214.44
 10
297.26
 20
215.34
 10
299.132
 20
215.34
 10
298.844
 20
217.356
 10
299.708
 20
219.084
 10
300.14
 20
218.22
 10
300.86
 20
220.524
 10
301.58000000000004
 20
217.93200000000002
 10
301.868
 20
219.66
 10
302.87600000000003
 20
217.644
 10
302.588
 20
215.34
 10
304.46
 20
215.34
 10
304.46
 20
214.44
 10
304.1
 20
214.44
 10
303.56
 20
206.88
 10
298.16
 20
206.88
 10
297.62
 20
214.44
 97
0
 75
1
 76
1
 98
0
  0
HATCH
  5
FC
330
17
100
AcDbEntity
  8
05-RAYADO
 62
7
420
16777215
100
AcDbHatch
 10
0.0
 20
0.0
 30
0.0
210
0.0
220
0.0
230
1.0
  2
SOLID
 70
1
 71
0
 91
1
 92
3
 72
0
 73
1
 93
75
 10
312.0490049676232
 20
208.28899704172719
 10
312.1155320713028
 20
208.26519326340812
 10
312.1794056505147
 20
208.23498331033082
 10
312.2400105677741
 20
208.19865812085783
 10
312.2967631645978
 20
208.15656752642116
 10
312.34911688245427
 20
208.10911688245432
 10
312.39656752642117
 20
208.0567631645978
 10
312.4386581208578
 20
208.0000105677741
 10
312.4749833103308
 20
207.93940565051471
 10
312.5051932634081
 20
207.87553207130287
 10
312.52899704172717
 20
207.8090049676232
 10
312.5461654018903
 20
207.7404650318516
 10
312.556533003204
 20
207.67057234103729
 10
312.56
 20
207.6
 10
312.556533003204
 20
207.5294276589627
 10
312.5461654018903
 20
207.45953496814838
 10
312.52899704172717
 20
207.3909950323768
 10
312.5051932634081
 20
207.32446792869712
 10
312.4749833103308
 20
207.26059434948527
 10
312.4386581208578
 20
207.1999894322259
 10
312.39656752642117
 20
207.14323683540218
 10
312.34911688245427
 20
207.09088311754567
 10
312.2967631645978
 20
207.04343247357883
 10
312.2400105677741
 20
207.00134187914216
 10
312.1794056505147
 20
206.96501668966917
 10
312.1155320713028
 20
206.93480673659187
 10
312.0490049676232
 20
206.9110029582728
 10
311.98046503185157
 20
206.89383459810966
 10
311.91057234103727
 20
206.88346699679602
 10
311.84
 20
206.88
 10
304.64
 20
206.88
 10
304.5694276589627
 20
206.88346699679602
 10
304.4995349681484
 20
206.89383459810966
 10
304.43099503237676
 20
206.9110029582728
 10
304.36446792869714
 20
206.93480673659187
 10
304.30059434948527
 20
206.96501668966917
 10
304.23998943222585
 20
207.00134187914216
 10
304.18323683540217
 20
207.04343247357883
 10
304.1308831175457
 20
207.09088311754567
 10
304.0834324735788
 20
207.14323683540218
 10
304.0413418791422
 20
207.1999894322259
 10
304.00501668966916
 20
207.26059434948527
 10
303.97480673659186
 20
207.32446792869712
 10
303.9510029582728
 20
207.3909950323768
 10
303.9338345981097
 20
207.45953496814838
 10
303.923466996796
 20
207.5294276589627
 10
303.91999999999996
 20
207.6
 10
303.923466996796
 20
207.67057234103729
 10
303.9338345981097
 20
207.7404650318516
 10
303.9510029582728
 20
207.8090049676232
 10
303.97480673659186
 20
207.87553207130287
 10
304.00501668966916
 20
207.93940565051471
 10
304.0413418791422
 20
208.0000105677741
 10
304.0834324735788
 20
208.0567631645978
 10
304.1308831175457
 20
208.10911688245432
 10
304.18323683540217
 20
208.15656752642116
 10
304.23998943222585
 20
208.19865812085783
 10
304.30059434948527
 20
208.23498331033082
 10
304.36446792869714
 20
208.26519326340812
 10
304.43099503237676
 20
208.28899704172719
 10
304.4995349681484
 20
208.30616540189033
 10
304.5694276589627
 20
208.31653300320397
 10
304.64
 20
208.32
 10
305.648
 20
208.32
 10
305.216
 20
211.344
 10
306.512
 20
213.936
 10
307.16
 20
212.64
 10
308.24
 20
216.096
 10
309.32
 20
212.208
 10
309.752
 20
214.79999999999998
 10
311.264
 20
211.77599999999998
 10
310.832
 20
208.32
 10
311.84
 20
208.32
 10
311.91057234103727
 20
208.31653300320397
 10
311.98046503185157
 20
208.30616540189033
 97
0
 75
1
 76
1
 98
0
  0
HATCH
  5
FD
330
17
100
AcDbEntity
  8
05-RAYADO
 62
7
420
13114925
100
AcDbHatch
 10
0.0
 20
0.0
 30
0.0
210
0.0
220
0.0
230
1.0
  2
SOLID
 70
1
 71
0
 91
1
 92
3
 72
0
 73
1
 93
6
 10
332.0
 20
241.0
 10
333.6
 20
241.0
 10
333.6
 20
239.4
 10
333.6
 20
226.6
 10
333.6
 20
225.0
 10
332.0
 20
225.0
 97
0
 75
1
 76
1
 98
0
  0
HATCH
  5
FE
330
17
100
AcDbEntity
  8
05-RAYADO
 62
7
420
13114925
100
AcDbHatch
 10
0.0
 20
0.0
 30
0.0
210
0.0
220
0.0
230
1.0
  2
SOLID
 70
1
 71
0
 91
1
 92
3
 72
0
 73
1
 93
4
 10
346.4
 20
241.0
 10
346.4
 20
239.4
 10
333.6
 20
239.4
 10
333.6
 20
241.0
 97
0
 75
1
 76
1
 98
0
  0
HATCH
  5
FF
330
17
100
AcDbEntity
  8
05-RAYADO
 62
7
420
13114925
100
AcDbHatch
 10
0.0
 20
0.0
 30
0.0
210
0.0
220
0.0
230
1.0
  2
SOLID
 70
1
 71
0
 91
1
 92
3
 72
0
 73
1
 93
4
 10
333.6
 20
225.0
 10
333.6
 20
226.6
 10
346.4
 20
226.6
 10
346.4
 20
225.0
 97
0
 75
1
 76
1
 98
0
  0
HATCH
  5
100
330
17
100
AcDbEntity
  8
05-RAYADO
 62
7
420
13114925
100
AcDbHatch
 10
0.0
 20
0.0
 30
0.0
210
0.0
220
0.0
230
1.0
  2
SOLID
 70
1
 71
0
 91
1
 92
3
 72
0
 73
1
 93
6
 10
348.0
 20
241.0
 10
348.0
 20
225.0
 10
346.4
 20
225.0
 10
346.4
 20
226.6
 10
346.4
 20
239.4
 10
346.4
 20
241.0
 97
0
 75
1
 76
1
 98
0
  0
TEXT
  5
101
330
17
100
AcDbEntity
  8
13-GRAFICA
420
13114925
100
AcDbText
 10
340.0
 20
233.0
 30
0.0
 40
9.600000000000001
  1
B
  7
ISO3098
 72
1
 11
340.0
 21
233.0
 31
0.0
100
AcDbText
 73
2
  0
HATCH
  5
102
330
17
100
AcDbEntity
  8
05-RAYADO
 62
7
420
13114925
100
AcDbHatch
 10
0.0
 20
0.0
 30
0.0
210
0.0
220
0.0
230
1.0
  2
SOLID
 70
1
 71
0
 91
1
 92
3
 72
0
 73
1
 93
68
 10
349.0
 20
205.08
 10
348.994799504806
 20
204.97414148844408
 10
348.9792481028355
 20
204.8693024522226
 10
348.9534955625908
 20
204.7664925485652
 10
348.9177898951122
 20
204.6667018930457
 10
348.8724749654962
 20
204.57089152422793
 10
348.81798718128675
 20
204.47998414833884
 10
348.75485128963174
 20
204.3948552531033
 10
348.6836753236815
 20
204.31632467631854
 10
348.60514474689677
 20
204.24514871036826
 10
348.5200158516612
 20
204.18201281871328
 10
348.42910847577207
 20
204.12752503450378
 10
348.3332981069543
 20
204.08221010488782
 10
348.23350745143483
 20
204.04650443740923
 10
348.13069754777746
 20
204.02075189716453
 10
348.02585851155595
 20
204.00520049519403
 10
347.92
 20
204.0
 10
332.08
 20
204.0
 10
331.97414148844405
 20
204.00520049519403
 10
331.86930245222254
 20
204.02075189716453
 10
331.76649254856517
 20
204.04650443740923
 10
331.6667018930457
 20
204.08221010488782
 10
331.57089152422793
 20
204.12752503450378
 10
331.4799841483388
 20
204.18201281871328
 10
331.39485525310323
 20
204.24514871036826
 10
331.3163246763185
 20
204.31632467631854
 10
331.24514871036826
 20
204.3948552531033
 10
331.18201281871325
 20
204.47998414833884
 10
331.1275250345038
 20
204.57089152422793
 10
331.0822101048878
 20
204.6667018930457
 10
331.0465044374092
 20
204.7664925485652
 10
331.0207518971645
 20
204.8693024522226
 10
331.005200495194
 20
204.97414148844408
 10
331.0
 20
205.08
 10
331.0
 20
220.92
 10
331.005200495194
 20
221.02585851155592
 10
331.0207518971645
 20
221.1306975477774
 10
331.0465044374092
 20
221.2335074514348
 10
331.0822101048878
 20
221.3332981069543
 10
331.1275250345038
 20
221.42910847577207
 10
331.18201281871325
 20
221.52001585166116
 10
331.24514871036826
 20
221.6051447468967
 10
331.3163246763185
 20
221.68367532368146
 10
331.39485525310323
 20
221.75485128963174
 10
331.4799841483388
 20
221.81798718128672
 10
331.57089152422793
 20
221.87247496549622
 10
331.6667018930457
 20
221.91778989511218
 10
331.76649254856517
 20
221.95349556259077
 10
331.86930245222254
 20
221.97924810283547
 10
331.97414148844405
 20
221.99479950480597
 10
332.08
 20
222.0
 10
347.92
 20
222.0
 10
348.02585851155595
 20
221.99479950480597
 10
348.13069754777746
 20
221.97924810283547
 10
348.23350745143483
 20
221.95349556259077
 10
348.3332981069543
 20
221.91778989511218
 10
348.42910847577207
 20
221.87247496549622
 10
348.5200158516612
 20
221.81798718128672
 10
348.60514474689677
 20
221.75485128963174
 10
348.6836753236815
 20
221.68367532368146
 10
348.75485128963174
 20
221.6051447468967
 10
348.81798718128675
 20
221.52001585166116
 10
348.8724749654962
 20
221.42910847577207
 10
348.9177898951122
 20
221.3332981069543
 10
348.9534955625908
 20
221.2335074514348
 10
348.9792481028355
 20
221.1306975477774
 10
348.994799504806
 20
221.02585851155592
 10
349.0
 20
220.92
 97
0
 75
1
 76
1
 98
0
  0
HATCH
  5
103
330
17
100
AcDbEntity
  8
05-RAYADO
 62
7
420
16777215
100
AcDbHatch
 10
0.0
 20
0.0
 30
0.0
210
0.0
220
0.0
230
1.0
  2
SOLID
 70
1
 71
0
 91
1
 92
3
 72
0
 73
1
 93
5
 10
334.2143947172676
 20
217.58377734003184
 10
339.10845676726547
 20
215.3016387266321
 10
336.0656052827324
 20
208.7762226599682
 10
331.72
 20
210.80261168262513
 10
331.72
 20
212.23453060636902
 97
0
 75
1
 76
1
 98
0
  0
HATCH
  5
104
330
17
100
AcDbEntity
  8
05-RAYADO
 62
7
420
16777215
100
AcDbHatch
 10
0.0
 20
0.0
 30
0.0
210
0.0
220
0.0
230
1.0
  2
SOLID
 70
1
 71
0
 91
1
 92
3
 72
0
 73
1
 93
13
 10
346.84
 20
206.88
 10
336.4
 20
206.88
 10
336.4
 20
207.78
 10
340.432
 20
207.78
 10
339.964
 20
211.056
 10
341.368
 20
213.864
 10
342.07
 20
212.46
 10
343.24
 20
216.204
 10
344.41
 20
211.992
 10
344.878
 20
214.8
 10
346.516
 20
211.524
 10
346.048
 20
207.78
 10
346.84
 20
207.78
 97
0
 75
1
 76
1
 98
0
  0
HATCH
  5
105
330
17
100
AcDbEntity
  8
05-RAYADO
 62
7
420
38615
100
AcDbHatch
 10
0.0
 20
0.0
 30
0.0
210
0.0
220
0.0
230
1.0
  2
SOLID
 70
1
 71
0
 91
1
 92
3
 72
0
 73
1
 93
52
 10
368.0717967697245
 20
229.0
 10
367.98618595433993
 20
229.1520898486449
 10
367.9039133345742
 20
229.30601109411973
 10
367.8250180677385
 20
229.461690478248
 10
367.7495377037068
 20
229.6190539060744
 10
367.67750816704444
 20
229.7780264811301
 10
367.6089637399097
 20
229.93853254107927
 10
367.5439370457376
 20
230.10049569373038
 10
367.48245903371276
 20
230.26383885339465
 10
367.42455896403914
 20
230.4284842775747
 10
367.37026439401416
 20
230.5943536039658
 10
367.31960116491257
 20
230.76136788775207
 10
367.2725933896875
 20
230.92944763917984
 10
367.2292634414939
 20
231.09851286139062
 10
367.1896319430405
 20
231.26848308849517
 10
367.15371775677414
 20
231.43927742387098
 10
367.12153797590236
 20
231.61081457866456
 10
367.0931079162579
 20
231.78301291048066
 10
367.06844110900954
 20
231.95579046223958
 10
367.0475492942214
 20
232.12906500118427
 10
367.030442415266
 20
232.30275405801873
 10
367.0171286140912
 20
232.47677496615884
 10
367.00761422734513
 20
232.6510449010773
 10
367.0019037833607
 20
232.8254809197235
 10
367.0
 20
233.0
 10
367.0019037833607
 20
233.1745190802765
 10
367.00761422734513
 20
233.3489550989227
 10
367.0171286140912
 20
233.52322503384113
 10
367.030442415266
 20
233.69724594198127
 10
367.0475492942214
 20
233.87093499881573
 10
367.06844110900954
 20
234.04420953776042
 10
367.0931079162579
 20
234.21698708951934
 10
367.12153797590236
 20
234.38918542133544
 10
367.15371775677414
 20
234.56072257612902
 10
367.1896319430405
 20
234.73151691150483
 10
367.2292634414939
 20
234.90148713860938
 10
367.2725933896875
 20
235.07055236082016
 10
367.31960116491257
 20
235.23863211224793
 10
367.37026439401416
 20
235.40564639603417
 10
367.42455896403914
 20
235.5715157224253
 10
367.48245903371276
 20
235.73616114660535
 10
367.5439370457376
 20
235.89950430626962
 10
367.6089637399097
 20
236.06146745892073
 10
367.67750816704444
 20
236.2219735188699
 10
367.7495377037068
 20
236.3809460939256
 10
367.8250180677385
 20
236.538309521752
 10
367.9039133345742
 20
236.69398890588027
 10
367.98618595433993
 20
236.8479101513551
 10
368.0717967697245
 20
237.0
 10
368.14292514118824
 20
237.1201518245036
 10
368.14292514118824
 20
233.0
 10
368.14292514118824
 20
228.8798481754964
 97
0
 75
1
 76
1
 98
0
  0
HATCH
  5
106
330
17
100
AcDbEntity
  8
05-RAYADO
 62
7
420
38615
100
AcDbHatch
 10
0.0
 20
0.0
 30
0.0
210
0.0
220
0.0
230
1.0
  2
SOLID
 70
1
 71
0
 91
1
 92
3
 72
0
 73
1
 93
242
 10
381.8392949653836
 20
228.84981393471583
 10
381.74713156650307
 20
228.7016031332254
 10
381.6517568984204
 20
228.5554381358432
 10
381.5532163543119
 20
228.41138850919162
 10
381.45155683413986
 20
228.26952281309133
 10
381.34682672232987
 20
228.12990856793024
 10
381.23907586474303
 20
227.99261222252753
 10
381.12835554495183
 20
227.85769912250768
 10
381.01471845983184
 20
227.72523347919946
 10
380.898218694481
 20
227.59527833907472
 10
380.778911696478
 20
227.46789555374184
 10
380.65685424949237
 20
227.34314575050763
 10
380.53210444625813
 20
227.22108830352195
 10
380.4047216609253
 20
227.101781305519
 10
380.27476652080054
 20
226.9852815401682
 10
380.1423008774923
 20
226.87164445504817
 10
380.00738777747245
 20
226.76092413525694
 10
379.8700914320698
 20
226.6531732776701
 10
379.7304771869087
 20
226.54844316586014
 10
379.5886114908084
 20
226.44678364568807
 10
379.4445618641568
 20
226.34824310157964
 10
379.29839686677457
 20
226.25286843349693
 10
379.1501860652842
 20
226.16070503461643
 10
379.0
 20
226.0717967697245
 10
378.8479101513551
 20
225.98618595433993
 10
378.69398890588025
 20
225.9039133345742
 10
378.538309521752
 20
225.82501806773848
 10
378.3809460939256
 20
225.7495377037068
 10
378.2219735188699
 20
225.67750816704444
 10
378.06146745892073
 20
225.6089637399097
 10
377.8995043062696
 20
225.5439370457376
 10
377.73616114660535
 20
225.48245903371273
 10
377.5715157224253
 20
225.42455896403916
 10
377.4056463960342
 20
225.37026439401419
 10
377.23863211224796
 20
225.31960116491257
 10
377.07055236082016
 20
225.27259338968744
 10
376.9014871386094
 20
225.2292634414939
 10
376.7315169115048
 20
225.18963194304052
 10
376.560722576129
 20
225.15371775677414
 10
376.38918542133547
 20
225.12153797590233
 10
376.2169870895193
 20
225.0931079162579
 10
376.0442095377604
 20
225.0684411090095
 10
375.8709349988157
 20
225.04754929422145
 10
375.6972459419813
 20
225.03044241526604
 10
375.52322503384113
 20
225.01712861409118
 10
375.3489550989227
 20
225.00761422734513
 10
375.17451908027647
 20
225.00190378336072
 10
375.0
 20
225.0
 10
374.82548091972353
 20
225.00190378336072
 10
374.6510449010773
 20
225.00761422734513
 10
374.47677496615887
 20
225.01712861409118
 10
374.30275405801876
 20
225.03044241526604
 10
374.1290650011843
 20
225.04754929422145
 10
373.9557904622396
 20
225.0684411090095
 10
373.7830129104807
 20
225.0931079162579
 10
373.61081457866453
 20
225.12153797590233
 10
373.439277423871
 20
225.15371775677414
 10
373.2684830884952
 20
225.18963194304052
 10
373.0985128613906
 20
225.2292634414939
 10
372.92944763917984
 20
225.27259338968744
 10
372.76136788775204
 20
225.31960116491257
 10
372.5943536039658
 20
225.37026439401419
 10
372.4284842775747
 20
225.42455896403916
 10
372.26383885339465
 20
225.48245903371273
 10
372.1004956937304
 20
225.5439370457376
 10
371.93853254107927
 20
225.6089637399097
 10
371.7780264811301
 20
225.67750816704444
 10
371.6190539060744
 20
225.7495377037068
 10
371.461690478248
 20
225.82501806773848
 10
371.30601109411975
 20
225.9039133345742
 10
371.1520898486449
 20
225.98618595433993
 10
371.0
 20
226.0717967697245
 10
370.8498139347158
 20
226.16070503461643
 10
370.70160313322543
 20
226.2528684334969
 10
370.5554381358432
 20
226.34824310157964
 10
370.4113885091916
 20
226.44678364568807
 10
370.2695228130913
 20
226.54844316586014
 10
370.1299085679302
 20
226.6531732776701
 10
369.99261222252755
 20
226.76092413525694
 10
369.8576991225077
 20
226.87164445504817
 10
369.72523347919946
 20
226.9852815401682
 10
369.5952783390747
 20
227.101781305519
 10
369.46789555374187
 20
227.22108830352195
 10
369.34314575050763
 20
227.34314575050763
 10
369.221088303522
 20
227.46789555374184
 10
369.101781305519
 20
227.59527833907472
 10
368.98528154016816
 20
227.72523347919946
 10
368.87164445504817
 20
227.85769912250768
 10
368.76092413525697
 20
227.99261222252753
 10
368.65317327767013
 20
228.12990856793024
 10
368.54844316586014
 20
228.26952281309133
 10
368.4467836456881
 20
228.41138850919162
 10
368.3482431015796
 20
228.5554381358432
 10
368.25286843349693
 20
228.7016031332254
 10
368.1607050346164
 20
228.84981393471583
 10
368.14292514118824
 20
228.8798481754964
 10
368.14292514118824
 20
233.0
 10
368.14455693931563
 20
232.85041370028304
 10
368.1494515570505
 20
232.70089859553948
 10
368.15760666481964
 20
232.55152584686763
 10
368.16901838123334
 20
232.4023665476054
 10
368.18368127493335
 20
232.2534916894942
 10
368.20158836717565
 20
232.10497212891084
 10
368.22273113515416
 20
231.95687855312076
 10
368.24709951605706
 20
231.80928144664196
 10
368.27468191185426
 20
231.66225105770616
 10
368.3054651948197
 20
231.51585736481357
 10
368.33943471377745
 20
231.37017004343548
 10
368.37657430107583
 20
231.22525843284743
 10
368.41686628028475
 20
231.08119150312078
 10
368.46029147460143
 20
230.93803782232126
 10
368.5068292159876
 20
230.7958655238403
 10
368.5564573549987
 20
230.6547422739926
 10
368.6091522713263
 20
230.5147352398074
 10
368.664888885046
 20
230.37591105704564
 10
368.72364066854794
 20
230.23833579850066
 10
368.78537965916604
 20
230.1020749425423
 10
368.8500764724818
 20
229.9671933419641
 10
368.9177003163201
 20
229.83375519309448
 10
368.98821900539014
 20
229.70182400527264
 10
369.0615989766181
 20
229.57146257059293
 10
369.13780530510917
 20
229.44273293404297
 10
369.2168017207794
 20
229.31569636395577
 10
369.29855062561364
 20
229.19041332285795
 10
369.38301311156187
 20
229.06694343869015
 10
369.4701489790528
 20
228.94534547643357
 10
369.5599167561348
 20
228.82567731012983
 10
369.65227371820606
 20
228.70799589534698
 10
369.7471759083559
 20
228.5923572420633
 10
369.84457815828284
 20
228.47881638801368
 10
369.94443410978704
 20
228.36742737249992
 10
370.04669623684885
 20
228.25824321065485
 10
370.1513158682298
 20
228.15131586823108
 10
370.25824321065636
 20
228.04669623684742
 10
370.3674273724992
 20
227.9444341097876
 10
370.4788163880135
 20
227.844578158283
 10
370.5923572420638
 20
227.74717590835553
 10
370.7079958953462
 20
227.6522737182067
 10
370.8256773101296
 20
227.55991675613492
 10
370.9453454764341
 20
227.47014897905242
 10
371.0669434386905
 20
227.38301311156164
 10
371.1904133228562
 20
227.29855062561487
 10
371.3156963639561
 20
227.21680172077927
 10
371.44273293404405
 20
227.13780530510854
 10
371.5714625705947
 20
227.0615989766171
 10
371.70182400527153
 20
226.9882190053907
 10
371.83375519309436
 20
226.9177003163202
 10
371.9671933419625
 20
226.85007647248264
 10
372.1020749425435
 20
226.7853796591655
 10
372.2383357985
 20
226.72364066854826
 10
372.37591105704536
 20
226.66488888504617
 10
372.5147352398077
 20
226.60915227132625
 10
372.65474227399505
 20
226.55645735499775
 10
372.79586552383904
 20
226.506829215988
 10
372.9380378223202
 20
226.46029147460177
 10
373.0811915031224
 20
226.41686628028424
 10
373.2252584328458
 20
226.37657430107626
 10
373.3701700434353
 20
226.33943471377748
 10
373.5158573648152
 20
226.30546519481936
 10
373.6622510577047
 20
226.27468191185457
 10
373.8092814466419
 20
226.24709951605703
 10
373.95687855311996
 20
226.22273113515428
 10
374.10497212891164
 20
226.2015883671755
 10
374.2534916894947
 20
226.18368127493332
 10
374.4023665476047
 20
226.16901838123346
 10
374.5515258468684
 20
226.1576066648196
 10
374.70089859553957
 20
226.14945155705047
 10
374.85041370028176
 20
226.1445569393157
 10
375.0
 20
226.14292514118824
 10
375.14958629971824
 20
226.1445569393157
 10
375.29910140446043
 20
226.14945155705047
 10
375.4484741531318
 20
226.1576066648196
 10
375.5976334523949
 20
226.16901838123343
 10
375.74650831050553
 20
226.18368127493335
 10
375.89502787108836
 20
226.2015883671755
 10
376.04312144688004
 20
226.22273113515428
 10
376.1907185533581
 20
226.24709951605703
 10
376.3377489422953
 20
226.27468191185457
 10
376.4841426351848
 20
226.30546519481936
 10
376.6298299565647
 20
226.33943471377748
 10
376.7747415671542
 20
226.37657430107626
 10
376.9188084968776
 20
226.41686628028424
 10
377.0619621776798
 20
226.46029147460177
 10
377.20413447616096
 20
226.506829215988
 10
377.34525772600495
 20
226.55645735499775
 10
377.4852647601923
 20
226.60915227132625
 10
377.62408894295464
 20
226.66488888504617
 10
377.7616642015
 20
226.72364066854826
 10
377.8979250574565
 20
226.7853796591655
 10
378.0328066580375
 20
226.85007647248264
 10
378.16624480690564
 20
226.9177003163202
 10
378.29817599472847
 20
226.9882190053907
 10
378.4285374294053
 20
227.0615989766171
 10
378.55726706595635
 20
227.1378053051088
 10
378.6843036360443
 20
227.2168017207795
 10
378.80958667714305
 20
227.29855062561435
 10
378.9330565613095
 20
227.38301311156164
 10
379.0546545235659
 20
227.47014897905242
 10
379.1743226898704
 20
227.55991675613492
 10
379.2920041046538
 20
227.6522737182067
 10
379.4076427579362
 20
227.74717590835553
 10
379.5211836119865
 20
227.844578158283
 10
379.6325726275008
 20
227.9444341097876
 10
379.74175678934364
 20
228.04669623684742
 10
379.8486841317702
 20
228.15131586823108
 10
379.95330376315115
 20
228.25824321065485
 10
380.05556589021296
 20
228.36742737249992
 10
380.15542184171716
 20
228.47881638801368
 10
380.2528240916441
 20
228.5923572420633
 10
380.34772628179394
 20
228.70799589534698
 10
380.4400832438652
 20
228.82567731012983
 10
380.5298510209472
 20
228.94534547643357
 10
380.61698688843813
 20
229.06694343869015
 10
380.70144937438636
 20
229.19041332285795
 10
380.7831982792206
 20
229.31569636395577
 10
380.86219469489083
 20
229.44273293404297
 10
380.9384010233819
 20
229.57146257059293
 10
381.01178099460986
 20
229.70182400527264
 10
381.0822996836799
 20
229.83375519309448
 10
381.1499235275182
 20
229.9671933419641
 10
381.21462034083396
 20
230.1020749425423
 10
381.27635933145206
 20
230.23833579850066
 10
381.335111114954
 20
230.37591105704564
 10
381.3908477286737
 20
230.5147352398074
 10
381.4435426450013
 20
230.6547422739926
 10
381.49317078401265
 20
230.79586552384103
 10
381.5397085253981
 20
230.93803782231979
 10
381.5831337197155
 20
231.08119150312154
 10
381.62342569892417
 20
231.22525843284743
 10
381.66056528622255
 20
231.37017004343548
 10
381.6945348051803
 20
231.51585736481357
 10
381.72531808814574
 20
231.66225105770616
 10
381.75290048394294
 20
231.80928144664196
 10
381.77726886484584
 20
231.95687855312076
 10
381.79841163282435
 20
232.10497212891084
 10
381.81631872506665
 20
232.2534916894942
 10
381.83098161876666
 20
232.4023665476054
 10
381.84239333518036
 20
232.55152584686763
 10
381.8505484429495
 20
232.70089859553948
 10
381.85544306068437
 20
232.85041370028304
 10
381.85707485881176
 20
233.0
 10
381.85707485881176
 20
228.8798481754964
 97
0
 75
1
 76
1
 98
0
  0
HATCH
  5
107
330
17
100
AcDbEntity
  8
05-RAYADO
 62
7
420
38615
100
AcDbHatch
 10
0.0
 20
0.0
 30
0.0
210
0.0
220
0.0
230
1.0
  2
SOLID
 70
1
 71
0
 91
1
 92
3
 72
0
 73
1
 93
242
 10
368.1607050346164
 20
237.15018606528417
 10
368.25286843349693
 20
237.2983968667746
 10
368.3482431015796
 20
237.4445618641568
 10
368.4467836456881
 20
237.58861149080838
 10
368.54844316586014
 20
237.73047718690864
 10
368.65317327767013
 20
237.87009143206976
 10
368.76092413525697
 20
238.00738777747247
 10
368.87164445504817
 20
238.14230087749232
 10
368.98528154016816
 20
238.27476652080054
 10
369.101781305519
 20
238.40472166092528
 10
369.221088303522
 20
238.53210444625816
 10
369.34314575050763
 20
238.65685424949237
 10
369.46789555374187
 20
238.77891169647805
 10
369.5952783390747
 20
238.898218694481
 10
369.72523347919946
 20
239.0147184598318
 10
369.8576991225077
 20
239.12835554495183
 10
369.99261222252755
 20
239.23907586474306
 10
370.1299085679302
 20
239.34682672232987
 10
370.2695228130913
 20
239.45155683413986
 10
370.4113885091916
 20
239.55321635431193
 10
370.5554381358432
 20
239.65175689842036
 10
370.70160313322543
 20
239.74713156650307
 10
370.8498139347158
 20
239.83929496538357
 10
371.0
 20
239.9282032302755
 10
371.1520898486449
 20
240.01381404566007
 10
371.30601109411975
 20
240.09608666542576
 10
371.461690478248
 20
240.17498193226152
 10
371.6190539060744
 20
240.2504622962932
 10
371.7780264811301
 20
240.32249183295556
 10
371.93853254107927
 20
240.3910362600903
 10
372.1004956937304
 20
240.4560629542624
 10
372.26383885339465
 20
240.51754096628727
 10
372.4284842775747
 20
240.57544103596084
 10
372.5943536039658
 20
240.62973560598581
 10
372.76136788775204
 20
240.68039883508743
 10
372.92944763917984
 20
240.72740661031256
 10
373.0985128613906
 20
240.7707365585061
 10
373.2684830884952
 20
240.81036805695948
 10
373.439277423871
 20
240.84628224322583
 10
373.61081457866453
 20
240.87846202409767
 10
373.78301291048064
 20
240.9068920837421
 10
373.9557904622396
 20
240.9315588909905
 10
374.1290650011843
 20
240.95245070577855
 10
374.3027540580187
 20
240.96955758473396
 10
374.47677496615887
 20
240.98287138590882
 10
374.6510449010773
 20
240.99238577265487
 10
374.82548091972353
 20
240.99809621663928
 10
375.0
 20
241.0
 10
375.17451908027647
 20
240.99809621663928
 10
375.34895509892266
 20
240.99238577265487
 10
375.52322503384113
 20
240.98287138590882
 10
375.69724594198124
 20
240.96955758473396
 10
375.8709349988157
 20
240.95245070577855
 10
376.0442095377604
 20
240.9315588909905
 10
376.2169870895193
 20
240.9068920837421
 10
376.3891854213354
 20
240.87846202409767
 10
376.560722576129
 20
240.84628224322586
 10
376.7315169115048
 20
240.81036805695948
 10
376.9014871386094
 20
240.7707365585061
 10
377.07055236082016
 20
240.72740661031256
 10
377.23863211224796
 20
240.68039883508743
 10
377.4056463960342
 20
240.62973560598581
 10
377.5715157224253
 20
240.57544103596084
 10
377.73616114660535
 20
240.51754096628727
 10
377.8995043062696
 20
240.4560629542624
 10
378.06146745892073
 20
240.3910362600903
 10
378.2219735188699
 20
240.32249183295556
 10
378.3809460939256
 20
240.2504622962932
 10
378.538309521752
 20
240.17498193226152
 10
378.69398890588025
 20
240.0960866654258
 10
378.8479101513551
 20
240.01381404566007
 10
379.0
 20
239.9282032302755
 10
379.1501860652842
 20
239.83929496538357
 10
379.29839686677457
 20
239.74713156650307
 10
379.4445618641568
 20
239.65175689842036
 10
379.5886114908084
 20
239.55321635431193
 10
379.7304771869087
 20
239.45155683413986
 10
379.8700914320698
 20
239.3468267223299
 10
380.00738777747245
 20
239.23907586474306
 10
380.1423008774923
 20
239.12835554495183
 10
380.27476652080054
 20
239.0147184598318
 10
380.4047216609253
 20
238.898218694481
 10
380.53210444625813
 20
238.77891169647805
 10
380.65685424949237
 20
238.65685424949237
 10
380.778911696478
 20
238.53210444625816
 10
380.898218694481
 20
238.40472166092528
 10
381.01471845983184
 20
238.27476652080057
 10
381.12835554495183
 20
238.14230087749232
 10
381.23907586474303
 20
238.00738777747247
 10
381.34682672232987
 20
237.87009143206976
 10
381.45155683413986
 20
237.73047718690867
 10
381.5532163543119
 20
237.58861149080838
 10
381.6517568984204
 20
237.4445618641568
 10
381.74713156650307
 20
237.2983968667746
 10
381.8392949653836
 20
237.15018606528417
 10
381.85707485881176
 20
237.1201518245036
 10
381.85707485881176
 20
233.0
 10
381.85544306068437
 20
233.14958629971696
 10
381.8505484429495
 20
233.29910140446052
 10
381.84239333518036
 20
233.44847415313237
 10
381.83098161876666
 20
233.5976334523946
 10
381.81631872506665
 20
233.7465083105058
 10
381.79841163282435
 20
233.89502787108916
 10
381.77726886484584
 20
234.04312144687924
 10
381.75290048394294
 20
234.19071855335804
 10
381.72531808814574
 20
234.33774894229384
 10
381.6945348051803
 20
234.48414263518643
 10
381.66056528622255
 20
234.62982995656452
 10
381.62342569892417
 20
234.77474156715257
 10
381.5831337197152
 20
234.91880849687948
 10
381.5397085253987
 20
235.06196217767823
 10
381.4931707840123
 20
235.20413447615996
 10
381.4435426450013
 20
235.3452577260074
 10
381.3908477286737
 20
235.4852647601926
 10
381.335111114954
 20
235.62408894295436
 10
381.27635933145206
 20
235.76166420149934
 10
381.21462034083396
 20
235.8979250574577
 10
381.1499235275182
 20
236.0328066580359
 10
381.0822996836799
 20
236.16624480690552
 10
381.01178099460986
 20
236.29817599472736
 10
380.9384010233819
 20
236.42853742940707
 10
380.86219469489083
 20
236.55726706595703
 10
380.7831982792206
 20
236.68430363604423
 10
380.70144937438636
 20
236.80958667714205
 10
380.61698688843813
 20
236.93305656130985
 10
380.5298510209472
 20
237.05465452356643
 10
380.4400832438652
 20
237.17432268987017
 10
380.34772628179394
 20
237.29200410465302
 10
380.2528240916431
 20
237.40764275793785
 10
380.1554218417186
 20
237.52118361198478
 10
380.05556589021256
 20
237.63257262750054
 10
379.95330376315115
 20
237.74175678934515
 10
379.8486841317702
 20
237.84868413176892
 10
379.74175678934364
 20
237.95330376315258
 10
379.6325726275008
 20
238.0555658902124
 10
379.5211836119865
 20
238.155421841717
 10
379.4076427579362
 20
238.25282409164447
 10
379.2920041046538
 20
238.3477262817933
 10
379.1743226898704
 20
238.44008324386508
 10
379.0546545235659
 20
238.52985102094758
 10
378.9330565613095
 20
238.61698688843836
 10
378.80958667714305
 20
238.70144937438565
 10
378.6843036360443
 20
238.7831982792205
 10
378.55726706595635
 20
238.8621946948912
 10
378.4285374294053
 20
238.9384010233829
 10
378.29817599472847
 20
239.0117809946093
 10
378.16624480690564
 20
239.0822996836798
 10
378.0328066580375
 20
239.14992352751736
 10
377.8979250574565
 20
239.2146203408345
 10
377.7616642015
 20
239.27635933145174
 10
377.62408894295464
 20
239.33511111495383
 10
377.4852647601923
 20
239.39084772867375
 10
377.34525772600495
 20
239.44354264500225
 10
377.20413447616096
 20
239.493170784012
 10
377.0619621776798
 20
239.53970852539823
 10
376.9188084968776
 20
239.58313371971576
 10
376.7747415671542
 20
239.62342569892374
 10
376.6298299565647
 20
239.66056528622252
 10
376.4841426351848
 20
239.69453480518064
 10
376.3377489422944
 20
239.72531808814563
 10
376.1907185533582
 20
239.75290048394297
 10
376.04312144688083
 20
239.7772688648456
 10
375.89502787108836
 20
239.7984116328245
 10
375.7465083105053
 20
239.81631872506668
 10
375.5976334523953
 20
239.83098161876654
 10
375.4484741531315
 20
239.84239333518042
 10
375.29910140446054
 20
239.8505484429495
 10
375.14958629971824
 20
239.8554430606843
 10
375.0
 20
239.85707485881176
 10
374.85041370028176
 20
239.8554430606843
 10
374.70089859553957
 20
239.85054844294953
 10
374.5515258468682
 20
239.8423933351804
 10
374.4023665476051
 20
239.83098161876657
 10
374.25349168949447
 20
239.81631872506665
 10
374.1049721289113
 20
239.79841163282444
 10
373.95687855311945
 20
239.77726886484567
 10
373.809281446643
 20
239.75290048394316
 10
373.6622510577054
 20
239.72531808814554
 10
373.5158573648142
 20
239.6945348051804
 10
373.3701700434353
 20
239.66056528622252
 10
373.2252584328458
 20
239.62342569892374
 10
373.0811915031224
 20
239.58313371971576
 10
372.9380378223202
 20
239.53970852539823
 10
372.79586552383904
 20
239.493170784012
 10
372.65474227399505
 20
239.44354264500225
 10
372.5147352398077
 20
239.39084772867375
 10
372.37591105704536
 20
239.33511111495383
 10
372.2383357985
 20
239.27635933145174
 10
372.1020749425435
 20
239.2146203408345
 10
371.9671933419626
 20
239.14992352751742
 10
371.83375519309413
 20
239.08229968367965
 10
371.70182400527165
 20
239.01178099460935
 10
371.5714625705947
 20
238.9384010233829
 10
371.44273293404365
 20
238.8621946948912
 10
371.3156963639557
 20
238.7831982792205
 10
371.19041332285695
 20
238.70144937438565
 10
371.0669434386905
 20
238.61698688843836
 10
370.94534547643417
 20
238.52985102094763
 10
370.8256773101295
 20
238.44008324386496
 10
370.70799589534624
 20
238.34772628179334
 10
370.5923572420638
 20
238.25282409164447
 10
370.4788163880135
 20
238.155421841717
 10
370.3674273724992
 20
238.0555658902124
 10
370.25824321065636
 20
237.95330376315258
 10
370.1513158682298
 20
237.84868413176892
 10
370.04669623684885
 20
237.74175678934515
 10
369.94443410978704
 20
237.63257262750008
 10
369.84457815828284
 20
237.52118361198632
 10
369.7471759083559
 20
237.4076427579367
 10
369.65227371820606
 20
237.29200410465302
 10
369.55991675613416
 20
237.17432268986937
 10
369.47014897905353
 20
237.05465452356736
 10
369.38301311156175
 20
236.93305656130966
 10
369.29855062561364
 20
236.80958667714205
 10
369.2168017207794
 20
236.68430363604423
 10
369.13780530510917
 20
236.55726706595703
 10
369.0615989766181
 20
236.42853742940707
 10
368.98821900539014
 20
236.29817599472736
 10
368.9177003163201
 20
236.16624480690552
 10
368.8500764724818
 20
236.0328066580359
 10
368.78537965916604
 20
235.8979250574577
 10
368.72364066854794
 20
235.76166420149934
 10
368.664888885046
 20
235.62408894295436
 10
368.6091522713263
 20
235.4852647601926
 10
368.5564573549987
 20
235.3452577260074
 10
368.50682921598735
 20
235.20413447615897
 10
368.4602914746019
 20
235.06196217768021
 10
368.4168662802845
 20
234.91880849687846
 10
368.37657430107583
 20
234.77474156715257
 10
368.33943471377745
 20
234.62982995656452
 10
368.3054651948197
 20
234.48414263518643
 10
368.27468191185426
 20
234.33774894229384
 10
368.24709951605706
 20
234.19071855335804
 10
368.22273113515416
 20
234.04312144687924
 10
368.20158836717565
 20
233.89502787108916
 10
368.18368127493335
 20
233.7465083105058
 10
368.16901838123334
 20
233.5976334523946
 10
368.15760666481964
 20
233.44847415313234
 10
368.1494515570505
 20
233.2991014044605
 10
368.14455693931563
 20
233.14958629971696
 10
368.14292514118824
 20
233.0
 10
368.14292514118824
 20
237.1201518245036
 97
0
 75
1
 76
1
 98
0
  0
HATCH
  5
108
330
17
100
AcDbEntity
  8
05-RAYADO
 62
7
420
38615
100
AcDbHatch
 10
0.0
 20
0.0
 30
0.0
210
0.0
220
0.0
230
1.0
  2
SOLID
 70
1
 71
0
 91
1
 92
3
 72
0
 73
1
 93
52
 10
382.99238577265487
 20
232.6510449010773
 10
382.9828713859088
 20
232.47677496615884
 10
382.969557584734
 20
232.30275405801873
 10
382.9524507057786
 20
232.12906500118427
 10
382.93155889099046
 20
231.95579046223958
 10
382.9068920837421
 20
231.78301291048066
 10
382.87846202409764
 20
231.61081457866456
 10
382.84628224322586
 20
231.43927742387098
 10
382.8103680569595
 20
231.26848308849517
 10
382.7707365585061
 20
231.09851286139062
 10
382.7274066103125
 20
230.92944763917984
 10
382.68039883508743
 20
230.76136788775207
 10
382.62973560598584
 20
230.59435360396583
 10
382.57544103596086
 20
230.4284842775747
 10
382.51754096628724
 20
230.26383885339465
 10
382.4560629542624
 20
230.10049569373038
 10
382.3910362600903
 20
229.93853254107927
 10
382.32249183295556
 20
229.7780264811301
 10
382.2504622962932
 20
229.6190539060744
 10
382.1749819322615
 20
229.461690478248
 10
382.0960866654258
 20
229.30601109411973
 10
382.01381404566007
 20
229.1520898486449
 10
381.9282032302755
 20
229.0
 10
381.85707485881176
 20
228.8798481754964
 10
381.85707485881176
 20
233.0
 10
381.85707485881176
 20
237.1201518245036
 10
381.9282032302755
 20
237.0
 10
382.01381404566007
 20
236.8479101513551
 10
382.0960866654258
 20
236.69398890588027
 10
382.1749819322615
 20
236.538309521752
 10
382.2504622962932
 20
236.3809460939256
 10
382.32249183295556
 20
236.2219735188699
 10
382.3910362600903
 20
236.06146745892073
 10
382.4560629542624
 20
235.89950430626962
 10
382.51754096628724
 20
235.73616114660535
 10
382.57544103596086
 20
235.5715157224253
 10
382.6297356059858
 20
235.4056463960342
 10
382.68039883508743
 20
235.23863211224793
 10
382.7274066103125
 20
235.07055236082016
 10
382.7707365585061
 20
234.90148713860938
 10
382.8103680569595
 20
234.73151691150483
 10
382.84628224322586
 20
234.56072257612902
 10
382.87846202409764
 20
234.38918542133544
 10
382.9068920837421
 20
234.21698708951934
 10
382.93155889099046
 20
234.04420953776042
 10
382.9524507057786
 20
233.87093499881573
 10
382.969557584734
 20
233.69724594198127
 10
382.9828713859088
 20
233.52322503384116
 10
382.99238577265487
 20
233.3489550989227
 10
382.9980962166393
 20
233.1745190802765
 10
383.0
 20
233.0
 10
382.9980962166393
 20
232.8254809197235
 97
0
 75
1
 76
1
 98
0
  0
TEXT
  5
109
330
17
100
AcDbEntity
  8
13-GRAFICA
420
38615
100
AcDbText
 10
375.0
 20
233.0
 30
0.0
 40
6.857142857142857
  1
C
  7
ISO3098
 72
1
 11
375.0
 21
233.0
 31
0.0
100
AcDbText
 73
2
  0
HATCH
  5
10A
330
17
100
AcDbEntity
  8
05-RAYADO
 62
7
420
38615
100
AcDbHatch
 10
0.0
 20
0.0
 30
0.0
210
0.0
220
0.0
230
1.0
  2
SOLID
 70
1
 71
0
 91
1
 92
3
 72
0
 73
1
 93
68
 10
384.0
 20
205.08
 10
383.994799504806
 20
204.97414148844408
 10
383.9792481028355
 20
204.8693024522226
 10
383.9534955625908
 20
204.7664925485652
 10
383.9177898951122
 20
204.6667018930457
 10
383.8724749654962
 20
204.57089152422793
 10
383.81798718128675
 20
204.47998414833884
 10
383.75485128963174
 20
204.3948552531033
 10
383.6836753236815
 20
204.31632467631854
 10
383.60514474689677
 20
204.24514871036826
 10
383.5200158516612
 20
204.18201281871328
 10
383.42910847577207
 20
204.12752503450378
 10
383.3332981069543
 20
204.08221010488782
 10
383.23350745143483
 20
204.04650443740923
 10
383.13069754777746
 20
204.02075189716453
 10
383.02585851155595
 20
204.00520049519403
 10
382.92
 20
204.0
 10
367.08
 20
204.0
 10
366.97414148844405
 20
204.00520049519403
 10
366.86930245222254
 20
204.02075189716453
 10
366.76649254856517
 20
204.04650443740923
 10
366.6667018930457
 20
204.08221010488782
 10
366.57089152422793
 20
204.12752503450378
 10
366.4799841483388
 20
204.18201281871328
 10
366.39485525310323
 20
204.24514871036826
 10
366.3163246763185
 20
204.31632467631854
 10
366.24514871036826
 20
204.3948552531033
 10
366.18201281871325
 20
204.47998414833884
 10
366.1275250345038
 20
204.57089152422793
 10
366.0822101048878
 20
204.6667018930457
 10
366.0465044374092
 20
204.7664925485652
 10
366.0207518971645
 20
204.8693024522226
 10
366.005200495194
 20
204.97414148844408
 10
366.0
 20
205.08
 10
366.0
 20
220.92
 10
366.005200495194
 20
221.02585851155592
 10
366.0207518971645
 20
221.1306975477774
 10
366.0465044374092
 20
221.2335074514348
 10
366.0822101048878
 20
221.3332981069543
 10
366.1275250345038
 20
221.42910847577207
 10
366.18201281871325
 20
221.52001585166116
 10
366.24514871036826
 20
221.6051447468967
 10
366.3163246763185
 20
221.68367532368146
 10
366.39485525310323
 20
221.75485128963174
 10
366.4799841483388
 20
221.81798718128672
 10
366.57089152422793
 20
221.87247496549622
 10
366.6667018930457
 20
221.91778989511218
 10
366.76649254856517
 20
221.95349556259077
 10
366.86930245222254
 20
221.97924810283547
 10
366.97414148844405
 20
221.99479950480597
 10
367.08
 20
222.0
 10
382.92
 20
222.0
 10
383.02585851155595
 20
221.99479950480597
 10
383.13069754777746
 20
221.97924810283547
 10
383.23350745143483
 20
221.95349556259077
 10
383.3332981069543
 20
221.91778989511218
 10
383.42910847577207
 20
221.87247496549622
 10
383.5200158516612
 20
221.81798718128672
 10
383.60514474689677
 20
221.75485128963174
 10
383.6836753236815
 20
221.68367532368146
 10
383.75485128963174
 20
221.6051447468967
 10
383.81798718128675
 20
221.52001585166116
 10
383.8724749654962
 20
221.42910847577207
 10
383.9177898951122
 20
221.3332981069543
 10
383.9534955625908
 20
221.2335074514348
 10
383.9792481028355
 20
221.1306975477774
 10
383.994799504806
 20
221.02585851155592
 10
384.0
 20
220.92
 97
0
 75
1
 76
1
 98
0
  0
HATCH
  5
10B
330
17
100
AcDbEntity
  8
05-RAYADO
 62
7
420
16777215
100
AcDbHatch
 10
0.0
 20
0.0
 30
0.0
210
0.0
220
0.0
230
1.0
  2
SOLID
 70
1
 71
0
 91
1
 92
3
 72
0
 73
1
 93
49
 10
368.52
 20
212.46
 10
367.62
 20
212.46
 10
367.62
 20
206.88
 10
367.61739975240295
 20
206.82707074422203
 10
367.6096240514177
 20
206.77465122611127
 10
367.5967477812954
 20
206.7232462742826
 10
367.5788949475561
 20
206.67335094652285
 10
367.5562374827481
 20
206.62544576211397
 10
367.5289935906434
 20
206.5799920741694
 10
367.49742564481585
 20
206.53742762655162
 10
367.4618376618407
 20
206.49816233815926
 10
367.42257237344836
 20
206.46257435518413
 10
367.38000792583057
 20
206.43100640935663
 10
367.33455423788604
 20
206.4037625172519
 10
367.2866490534771
 20
206.3811050524439
 10
367.2367537257174
 20
206.36325221870462
 10
367.1853487738887
 20
206.35037594858224
 10
367.1329292557779
 20
206.342600247597
 10
367.08
 20
206.34
 10
367.02707074422204
 20
206.342600247597
 10
366.9746512261113
 20
206.35037594858224
 10
366.9232462742826
 20
206.36325221870462
 10
366.87335094652286
 20
206.3811050524439
 10
366.82544576211393
 20
206.4037625172519
 10
366.7799920741694
 20
206.43100640935663
 10
366.7374276265516
 20
206.46257435518413
 10
366.72
 20
206.4783698351719
 10
366.72
 20
213.4016301648281
 10
366.7374276265516
 20
213.41742564481586
 10
366.7799920741694
 20
213.44899359064337
 10
366.82544576211393
 20
213.4762374827481
 10
366.87335094652286
 20
213.4988949475561
 10
366.9232462742826
 20
213.51674778129538
 10
366.9746512261113
 20
213.52962405141776
 10
367.02707074422204
 20
213.537399752403
 10
367.08
 20
213.54
 10
368.52
 20
213.54
 10
368.52
 20
214.79999999999998
 10
373.2
 20
214.79999999999998
 10
373.2
 20
214.07999999999998
 10
375.36
 20
214.07999999999998
 10
375.36
 20
213.54
 10
373.2
 20
213.54
 10
373.2
 20
212.46
 10
375.36
 20
212.46
 10
375.36
 20
211.92
 10
373.2
 20
211.92
 10
373.2
 20
211.2
 10
368.52
 20
211.2
 97
0
 75
1
 76
1
 98
0
  0
HATCH
  5
10C
330
17
100
AcDbEntity
  8
05-RAYADO
 62
7
420
16777215
100
AcDbHatch
 10
0.0
 20
0.0
 30
0.0
210
0.0
220
0.0
230
1.0
  2
SOLID
 70
1
 71
0
 91
1
 92
3
 72
0
 73
1
 93
9
 10
375.68399999999997
 20
210.156
 10
377.08799999999997
 20
212.964
 10
377.78999999999996
 20
211.56
 10
378.96
 20
215.304
 10
380.13
 20
211.09199999999998
 10
380.59799999999996
 20
213.9
 10
382.236
 20
210.624
 10
381.768
 20
206.88
 10
376.152
 20
206.88
 97
0
 75
1
 76
1
 98
0
  0
TEXT
  5
10D
330
17
100
AcDbEntity
  8
13-GRAFICA
100
AcDbText
 10
290.0
 20
195.0
 30
0.0
 40
3.5
  1
MODO DE USO
  7
ISO3098
 11
290.0
 21
195.0
 31
0.0
100
AcDbText
 73
1
  0
TEXT
  5
10E
330
17
100
AcDbEntity
  8
13-GRAFICA
100
AcDbText
 10
290.0
 20
189.5
 30
0.0
 40
2.5
  1
1. Retirar el extintor del soporte.
  7
ISO3098
 11
290.0
 21
189.5
 31
0.0
100
AcDbText
 73
1
  0
TEXT
  5
10F
330
17
100
AcDbEntity
  8
13-GRAFICA
100
AcDbText
 10
290.0
 20
184.0
 30
0.0
 40
2.5
  1
2. Quitar el precinto y la traba.
  7
ISO3098
 11
290.0
 21
184.0
 31
0.0
100
AcDbText
 73
1
  0
TEXT
  5
110
330
17
100
AcDbEntity
  8
13-GRAFICA
100
AcDbText
 10
290.0
 20
178.5
 30
0.0
 40
2.5
  1
3. Apuntar a la base del fuego.
  7
ISO3098
 11
290.0
 21
178.5
 31
0.0
100
AcDbText
 73
1
  0
TEXT
  5
111
330
17
100
AcDbEntity
  8
13-GRAFICA
100
AcDbText
 10
290.0
 20
173.0
 30
0.0
 40
2.5
  1
4. Apretar la palanca y barrer.
  7
ISO3098
 11
290.0
 21
173.0
 31
0.0
100
AcDbText
 73
1
  0
TEXT
  5
112
330
17
100
AcDbEntity
  8
13-GRAFICA
100
AcDbText
 10
290.0
 20
167.5
 30
0.0
 40
2.5
  1
5. Recargar después de cada uso.
  7
ISO3098
 11
290.0
 21
167.5
 31
0.0
100
AcDbText
 73
1
  0
LINE
  5
113
330
17
100
AcDbEntity
  8
08-FINA
100
AcDbLine
 10
289.0
 20
143.0
 30
0.0
 11
391.0
 21
143.0
 31
0.0
  0
TEXT
  5
114
330
17
100
AcDbEntity
  8
13-GRAFICA
100
AcDbText
 10
290.0
 20
137.0
 30
0.0
 40
2.5
  1
Agente: polvo ABC IRAM 3569 - 10 kg
  7
ISO3098
 11
290.0
 21
137.0
 31
0.0
100
AcDbText
 73
1
  0
TEXT
  5
115
330
17
100
AcDbEntity
  8
13-GRAFICA
100
AcDbText
 10
290.0
 20
131.0
 30
0.0
 40
2.5
  1
Gas impulsor: nitrógeno seco
  7
ISO3098
 11
290.0
 21
131.0
 31
0.0
100
AcDbText
 73
1
  0
TEXT
  5
116
330
17
100
AcDbEntity
  8
13-GRAFICA
100
AcDbText
 10
290.0
 20
125.0
 30
0.0
 40
2.5
  1
Ps: 1,4 MPa  -  Pe: 3,5 MPa
  7
ISO3098
 11
290.0
 21
125.0
 31
0.0
100
AcDbText
 73
1
  0
TEXT
  5
117
330
17
100
AcDbEntity
  8
13-GRAFICA
100
AcDbText
 10
290.0
 20
119.0
 30
0.0
 40
2.5
  1
Temperatura: -20 °C a +50 °C
  7
ISO3098
 11
290.0
 21
119.0
 31
0.0
100
AcDbText
 73
1
  0
TEXT
  5
118
330
17
100
AcDbEntity
  8
13-GRAFICA
100
AcDbText
 10
290.0
 20
113.0
 30
0.0
 40
2.5
  1
IRAM 3523 - placa según IRAM 3534
  7
ISO3098
 11
290.0
 21
113.0
 31
0.0
100
AcDbText
 73
1
  0
TEXT
  5
119
330
17
100
AcDbEntity
  8
06-TEXTO
100
AcDbText
 10
285.0
 20
270.0
 30
0.0
 40
3.5
  1
PLACA E INSTRUCCIONES - IRAM 3534 (1:1)
  7
ISO3098
 11
285.0
 21
270.0
 31
0.0
100
AcDbText
 73
1
  0
TEXT
  5
11A
330
17
100
AcDbEntity
  8
06-TEXTO
100
AcDbText
 10
30.0
 20
72.0
 30
0.0
 40
3.5
  1
NOTAS (IRAM 3517-2:2020)
  7
ISO3098
 11
30.0
 21
72.0
 31
0.0
100
AcDbText
 73
1
  0
TEXT
  5
11B
330
17
100
AcDbEntity
  8
06-TEXTO
100
AcDbText
 10
30.0
 20
67.6
 30
0.0
 40
2.5
  1
1) Reserva: ≥ 10 % de la dotación mínima (mínimo un ABC 5 kg si da menos de uno); igual tipo si
  7
ISO3098
 11
30.0
 21
67.6
 31
0.0
100
AcDbText
 73
1
  0
TEXT
  5
11C
330
17
100
AcDbEntity
  8
06-TEXTO
100
AcDbText
 10
30.0
 20
63.2
 30
0.0
 40
2.5
  1
    la dotación es homogénea, ABC 5 kg si es heterogénea; opcional con menos de 5 extintores (5.3).
  7
ISO3098
 11
30.0
 21
63.2
 31
0.0
100
AcDbText
 73
1
  0
TEXT
  5
11D
330
17
100
AcDbEntity
  8
06-TEXTO
100
AcDbText
 10
30.0
 20
58.8
 30
0.0
 40
2.5
  1
2) Reserva: faja verde de 40 mm como máximo en el borde inferior o pollera, sin tapar los datos
  7
ISO3098
 11
30.0
 21
58.8
 31
0.0
100
AcDbText
 73
1
  0
TEXT
  5
11E
330
17
100
AcDbEntity
  8
06-TEXTO
100
AcDbText
 10
30.0
 20
54.4
 30
0.0
 40
2.5
  1
    grabados; la misma leyenda en un lugar visible de la chapa baliza (5.3).
  7
ISO3098
 11
30.0
 21
54.4
 31
0.0
100
AcDbText
 73
1
  0
TEXT
  5
11F
330
17
100
AcDbEntity
  8
06-TEXTO
100
AcDbText
 10
30.0
 20
50.0
 30
0.0
 40
2.5
  1
3) Sustituto del PRS: color de su norma (casquete puede ser de otro color) y faja amarilla de 40 mm
  7
ISO3098
 11
30.0
 21
50.0
 31
0.0
100
AcDbText
 73
1
  0
TEXT
  5
120
330
17
100
AcDbEntity
  8
06-TEXTO
100
AcDbText
 10
30.0
 20
45.599999999999994
 30
0.0
 40
2.5
  1
    máx. con: EXTINTOR SUSTITUTO, que reemplaza al equipo del puesto en mantenimiento, y datos del
  7
ISO3098
 11
30.0
 21
45.599999999999994
 31
0.0
100
AcDbText
 73
1
  0
TEXT
  5
121
330
17
100
AcDbEntity
  8
06-TEXTO
100
AcDbText
 10
30.0
 20
41.199999999999996
 30
0.0
 40
2.5
  1
    PRS (9.4.5). Igual clasificación y al menos igual capacidad.
  7
ISO3098
 11
30.0
 21
41.199999999999996
 31
0.0
100
AcDbText
 73
1
  0
TEXT
  5
122
330
17
100
AcDbEntity
  8
06-TEXTO
100
AcDbText
 10
30.0
 20
36.8
 30
0.0
 40
2.5
  1
4) Placa según IRAM 3534; si se reemplaza en el servicio: marca del PRS y leyenda
  7
ISO3098
 11
30.0
 21
36.8
 31
0.0
100
AcDbText
 73
1
  0
TEXT
  5
123
330
17
100
AcDbEntity
  8
06-TEXTO
100
AcDbText
 10
30.0
 20
32.4
 30
0.0
 40
2.5
  1
    SERVICIO DE MANTENIMIENTO (9.4.15). Instrucciones legibles y dando cara al usuario (8.3.2).
  7
ISO3098
 11
30.0
 21
32.4
 31
0.0
100
AcDbText
 73
1
  0
TEXT
  5
124
330
17
100
AcDbEntity
  8
06-TEXTO
100
AcDbText
 10
30.0
 20
28.0
 30
0.0
 40
2.5
  1
5) Sustituto: PBA tarjeta DPS con sello SUSTITUTO HABILITADO y n° en el libro de actas (Res. 349/07
  7
ISO3098
 11
30.0
 21
28.0
 31
0.0
100
AcDbText
 73
1
  0
TEXT
  5
125
330
17
100
AcDbEntity
  8
06-TEXTO
100
AcDbText
 10
30.0
 20
23.599999999999994
 30
0.0
 40
2.5
  1
    art. 32); CABA tarjeta AGC con «Es sustituto», sin domicilio (Res. AGC 32/15). Ver FL_SUS_*.
  7
ISO3098
 11
30.0
 21
23.599999999999994
 31
0.0
100
AcDbText
 73
1
  0
VIEWPORT
  5
12A
330
126
100
AcDbEntity
 67
1
  8
VIEWPORTS
100
AcDbViewport
 10
322560.0
 20
228096.0
 30
0.0
 40
709632.0
 41
501811.2
 68
1
 69
1
 12
322560.0
 22
228096.0
 13
0.0
 23
0.0
 14
10.0
 24
10.0
 15
10.0
 25
10.0
 16
0.0
 26
0.0
 36
1.0
 17
0.0
 27
0.0
 37
0.0
 42
50.0
 43
0.0
 44
0.0
 45
501811.2
 50
0.0
 51
0.0
 72
100
 90
557088
  1

281
0
 71
0
 74
0
110
0.0
120
0.0
130
0.0
111
1.0
121
0.0
131
0.0
112
0.0
122
1.0
132
0.0
 79
0
146
0.0
282
0
  0
VIEWPORT
  5
12B
330
126
100
AcDbEntity
 67
1
  8
VIEWPORTS
100
AcDbViewport
 10
210.0
 20
148.5
 30
0.0
 40
420.0
 41
297.0
 68
2
 69
3
 12
210.0
 22
148.5
 13
0.0
 23
0.0
 14
10.0
 24
10.0
 15
10.0
 25
10.0
 16
0.0
 26
0.0
 36
1.0
 17
0.0
 27
0.0
 37
0.0
 42
50.0
 43
0.0
 44
0.0
 45
297.0
 50
0.0
 51
0.0
 72
100
 90
0
  1

281
0
 71
0
 74
0
110
0.0
120
0.0
130
0.0
111
1.0
121
0.0
131
0.0
112
0.0
122
1.0
132
0.0
 79
0
146
0.0
282
0
  0
ENDSEC
  0
SECTION
  2
OBJECTS
  0
DICTIONARY
  5
A
330
0
100
AcDbDictionary
281
1
  3
ACAD_COLOR
350
B
  3
ACAD_GROUP
350
C
  3
ACAD_LAYOUT
350
D
  3
ACAD_MATERIAL
350
E
  3
ACAD_MLEADERSTYLE
350
F
  3
ACAD_MLINESTYLE
350
10
  3
ACAD_PLOTSETTINGS
350
11
  3
ACAD_PLOTSTYLENAME
350
12
  3
ACAD_SCALELIST
350
14
  3
ACAD_TABLESTYLE
350
15
  3
ACAD_VISUALSTYLE
350
16
  3
EZDXF_META
350
2D
  0
DICTIONARY
  5
B
330
A
100
AcDbDictionary
281
1
  0
DICTIONARY
  5
C
330
A
100
AcDbDictionary
281
1
  0
DICTIONARY
  5
D
330
A
100
AcDbDictionary
281
1
  3
Model
350
1A
  3
Lamina
350
129
  0
DICTIONARY
  5
E
330
A
100
AcDbDictionary
281
1
  3
ByBlock
350
1F
  3
ByLayer
350
20
  3
Global
350
21
  0
DICTIONARY
  5
F
330
A
100
AcDbDictionary
281
1
  3
Standard
350
2C
  0
DICTIONARY
  5
10
330
A
100
AcDbDictionary
281
1
  3
Standard
350
22
  0
DICTIONARY
  5
11
330
A
100
AcDbDictionary
281
1
  0
ACDBDICTIONARYWDFLT
  5
12
330
A
100
AcDbDictionary
281
1
  3
Normal
350
13
100
AcDbDictionaryWithDefault
340
13
  0
ACDBPLACEHOLDER
  5
13
330
12
  0
DICTIONARY
  5
14
330
A
100
AcDbDictionary
281
1
  0
DICTIONARY
  5
15
330
A
100
AcDbDictionary
281
1
  0
DICTIONARY
  5
16
330
A
100
AcDbDictionary
281
1
  0
LAYOUT
  5
1A
330
D
100
AcDbPlotSettings
  1

  4
A3
  6

 40
7.5
 41
20.0
 42
7.5
 43
20.0
 44
420.0
 45
297.0
 46
0.0
 47
0.0
 48
0.0
 49
0.0
140
0.0
141
0.0
142
1.0
143
1.0
 70
1024
 72
1
 73
0
 74
5
  7

 75
16
 76
0
 77
2
 78
300
147
1.0
148
0.0
149
0.0
100
AcDbLayout
  1
Model
 70
1
 71
0
 10
0.0
 20
0.0
 11
420.0
 21
297.0
 12
0.0
 22
0.0
 32
0.0
 14
1e+20
 24
1e+20
 34
1e+20
 15
-1e+20
 25
-1e+20
 35
-1e+20
146
0.0
 13
0.0
 23
0.0
 33
0.0
 16
1.0
 26
0.0
 36
0.0
 17
0.0
 27
1.0
 37
0.0
 76
1
330
17
  0
MATERIAL
  5
1F
102
{ACAD_REACTORS
330
E
102
}
330
E
100
AcDbMaterial
  1
ByBlock
  2

 70
0
 40
1.0
 71
1
 41
1.0
 91
-1023410177
 42
1.0
 72
1
  3

 73
1
 74
1
 75
1
 44
0.5
 73
0
 45
1.0
 46
1.0
 77
1
  4

 78
1
 79
1
170
1
 48
1.0
171
1
  6

172
1
173
1
174
1
140
1.0
141
1.0
175
1
  7

176
1
177
1
178
1
143
1.0
179
1
  8

270
1
271
1
272
1
145
1.0
146
1.0
273
1
  9

274
1
275
1
276
1
 42
1.0
 72
1
  3

 73
1
 74
1
 75
1
 94
63
  0
MATERIAL
  5
20
102
{ACAD_REACTORS
330
E
102
}
330
E
100
AcDbMaterial
  1
ByLayer
  2

 70
0
 40
1.0
 71
1
 41
1.0
 91
-1023410177
 42
1.0
 72
1
  3

 73
1
 74
1
 75
1
 44
0.5
 73
0
 45
1.0
 46
1.0
 77
1
  4

 78
1
 79
1
170
1
 48
1.0
171
1
  6

172
1
173
1
174
1
140
1.0
141
1.0
175
1
  7

176
1
177
1
178
1
143
1.0
179
1
  8

270
1
271
1
272
1
145
1.0
146
1.0
273
1
  9

274
1
275
1
276
1
 42
1.0
 72
1
  3

 73
1
 74
1
 75
1
 94
63
  0
MATERIAL
  5
21
102
{ACAD_REACTORS
330
E
102
}
330
E
100
AcDbMaterial
  1
Global
  2

 70
0
 40
1.0
 71
1
 41
1.0
 91
-1023410177
 42
1.0
 72
1
  3

 73
1
 74
1
 75
1
 44
0.5
 73
0
 45
1.0
 46
1.0
 77
1
  4

 78
1
 79
1
170
1
 48
1.0
171
1
  6

172
1
173
1
174
1
140
1.0
141
1.0
175
1
  7

176
1
177
1
178
1
143
1.0
179
1
  8

270
1
271
1
272
1
145
1.0
146
1.0
273
1
  9

274
1
275
1
276
1
 42
1.0
 72
1
  3

 73
1
 74
1
 75
1
 94
63
  0
MLINESTYLE
  5
22
102
{ACAD_REACTORS
330
10
102
}
330
10
100
AcDbMlineStyle
  2
Standard
 70
0
  3

 62
256
 51
90.0
 52
90.0
 71
2
 49
0.5
 62
256
  6
BYLAYER
 49
-0.5
 62
256
  6
BYLAYER
  0
MLEADERSTYLE
  5
2C
102
{ACAD_REACTORS
330
F
102
}
330
F
100
AcDbMLeaderStyle
179
2
170
2
171
1
172
0
 90
2
 40
0.0
 41
0.0
173
1
 91
-1056964608
 92
-2
290
1
 42
2.0
291
1
 43
8.0
  3
Standard
 44
4.0
300

342
29
174
1
175
1
176
0
178
1
 93
-1056964608
 45
4.0
292
0
297
0
 46
4.0
 94
-1056964608
 47
1.0
 49
1.0
140
1.0
294
1
141
0.0
177
0
142
1.0
295
0
296
0
143
3.75
271
0
272
9
273
9
  0
DICTIONARY
  5
2D
330
A
100
AcDbDictionary
280
1
281
1
  3
CREATED_BY_EZDXF
350
2E
  3
WRITTEN_BY_EZDXF
350
12E
  0
DICTIONARYVAR
  5
2E
330
2D
100
DictionaryVariables
280
0
  1
1.4.4 @ 2026-10-09T21:02:19.481218+00:00
  0
LAYOUT
  5
129
330
D
100
AcDbPlotSettings
  1

  2
DWG To PDF.pc3
  4
ISO_full_bleed_A3_(420.00_x_297.00_MM)_(420.00_x_297.00_MM)
  6

 40
0.0
 41
0.0
 42
0.0
 43
0.0
 44
420.0
 45
297.0
 46
0.0
 47
0.0
 48
0.0
 49
0.0
140
0.0
141
0.0
142
0.0078125
143
12.0
 70
672
 72
1
 73
0
 74
5
  7

 75
1
 76
0
 77
2
 78
300
147
1.0
148
0.0
149
0.0
100
AcDbLayout
  1
Lamina
 70
1
 71
3
 10
-0.0
 20
-0.0
 11
420.0
 21
297.0
 12
0.0
 22
0.0
 32
0.0
 14
1e+20
 24
1e+20
 34
1e+20
 15
-1e+20
 25
-1e+20
 35
-1e+20
146
0.0
 13
0.0
 23
0.0
 33
0.0
 16
1.0
 26
0.0
 36
0.0
 17
0.0
 27
1.0
 37
0.0
 76
1
330
126
331
12A
  0
DICTIONARYVAR
  5
12E
330
2D
100
DictionaryVariables
280
0
  1
1.4.4 @ 2026-10-09T21:02:19.499052+00:00
  0
ENDSEC
  0
EOF
